<?xml version="1.0" standalone="no"?>
<!DOCTYPE svg PUBLIC "-//W3C//DTD SVG 1.1//EN" "http://www.w3.org/Graphics/SVG/1.1/DTD/svg11.dtd" >
<svg xmlns="http://www.w3.org/2000/svg" xmlns:xlink="http://www.w3.org/1999/xlink" version="1.1">
<metadata>
Created by FontForge 20201107 at Mon Jun 28 18:07:17 2021
 By 
Copyright 2021 The Stick No Bills Project Authors (https://github.com/mooniak/stick-no-bills-font)
</metadata>
<defs>
<font id="StickNoBills-ExtraBold" horiz-adv-x="687" >
  <font-face 
    font-family="Stick No Bills ExtraBold"
    font-weight="800"
    font-stretch="normal"
    units-per-em="1000"
    panose-1="0 0 0 0 0 0 0 0 0 0"
    ascent="800"
    descent="-200"
    x-height="570"
    cap-height="700"
    bbox="-626 -311 1518 982"
    underline-thickness="50"
    underline-position="-125"
    unicode-range="U+000D-111F4"
  />
<missing-glyph horiz-adv-x="631" 
d="M50 -93v847h531v-847h-531zM300 114q-16 0 -27.5 12t-11.5 28q0 17 11.5 29t27.5 12t27.5 -12t11.5 -29q0 -16 -11.5 -28t-27.5 -12zM157 17h317v616h-317v-616zM267 215v117q45 0 66 10.5t21 40.5q0 27 -14.5 38t-33.5 11q-11 0 -20.5 -3.5t-17 -9t-13.5 -13.5l-42 45
q8 11 19.5 22t30.5 19t47 8q52 0 80.5 -30.5t29.5 -81.5q1 -38 -12.5 -62.5t-34 -37t-39.5 -15.5v-58h-67z" />
    <glyph glyph-name="fi" unicode="fi" horiz-adv-x="504" 
d="M89 0v400h-63v116h63v36q0 17 9.5 41t29 47.5t48 39.5t67.5 16h61l-27 -117h-33q-14 0 -21 -6t-9.5 -12.5t-2.5 -8.5v-36h246v-516h-122v400h-124v-400h-122zM395 558q-30 0 -51.5 21.5t-21.5 50.5q0 30 21.5 51.5t51.5 21.5t51.5 -21.5t21.5 -51.5q0 -29 -21.5 -50.5
t-51.5 -21.5z" />
    <glyph glyph-name="fl" unicode="fl" horiz-adv-x="503" 
d="M89 0v400h-63v116h63v36q0 17 9.5 41t29 47.5t48 39.5t67.5 16h214v-696h-126v579h-87q-14 0 -21 -6t-9.5 -12.5t-2.5 -8.5v-37l66 1v-116h-66v-400h-122z" />
    <glyph glyph-name=".notdef" horiz-adv-x="631" 
d="M50 -93v847h531v-847h-531zM300 114q-16 0 -27.5 12t-11.5 28q0 17 11.5 29t27.5 12t27.5 -12t11.5 -29q0 -16 -11.5 -28t-27.5 -12zM157 17h317v616h-317v-616zM267 215v117q45 0 66 10.5t21 40.5q0 27 -14.5 38t-33.5 11q-11 0 -20.5 -3.5t-17 -9t-13.5 -13.5l-42 45
q8 11 19.5 22t30.5 19t47 8q52 0 80.5 -30.5t29.5 -81.5q1 -38 -12.5 -62.5t-34 -37t-39.5 -15.5v-58h-67z" />
    <glyph glyph-name=".null" horiz-adv-x="0" 
 />
    <glyph glyph-name="nonmarkingreturn" horiz-adv-x="333" 
 />
    <glyph glyph-name="CR" unicode="&#xd;" horiz-adv-x="682" 
 />
    <glyph glyph-name="space" unicode=" " horiz-adv-x="230" 
 />
    <glyph glyph-name="exclam" unicode="!" horiz-adv-x="244" 
d="M59 166v534h129v-534h-129zM122 -22q-31 0 -53 22t-22 53q0 32 22 54t53 22q32 0 53.5 -22t21.5 -54q0 -31 -21.5 -53t-53.5 -22z" />
    <glyph glyph-name="quotedbl" unicode="&#x22;" horiz-adv-x="392" 
d="M223 465v271h127v-271h-127zM43 465v271h127v-271h-127z" />
    <glyph glyph-name="numbersign" unicode="#" horiz-adv-x="753" 
d="M141 22l27 154h-140l25 121h137l18 107h-146l22 121h146l27 157h121l-28 -158h106l27 158h121l-28 -158h138l-19 -121l-140 1l-19 -108h143l-18 -121l-146 1l-27 -154h-120l26 154h-105l-27 -154h-121zM416 296l18 108h-105l-19 -107z" />
    <glyph glyph-name="dollar" unicode="$" horiz-adv-x="481" 
d="M258 -47v174q9 1 20 6t20.5 14t15.5 22.5t6 31.5q0 21 -8 35.5t-22 25t-32 18.5v148q20 -7 38 -15t37 -19q37 -20 66 -46t45.5 -59.5t16.5 -77.5t-17.5 -83.5t-47 -69.5t-67.5 -46v-59h-71zM132 -47v60q-34 16 -59 42t-38.5 54t-14.5 49l127 45q1 -20 10 -35.5t22 -25.5
t24 -15v-174h-71zM203 302q-14 5 -27.5 10.5t-24.5 10.5q-34 16 -62 39.5t-44.5 58t-16.5 83.5t15 82.5t39 56t50 36.5v71h71v-182q-7 -2 -14.5 -7.5t-13.5 -13t-9.5 -16.5t-3.5 -19q0 -13 6 -24t15.5 -19t19.5 -15v-152zM303 510q-2 17 -9.5 29t-17 19.5t-18.5 9.5v182h71
v-68q32 -16 54 -41.5t35 -49.5t15 -38z" />
    <glyph glyph-name="percent" unicode="%" horiz-adv-x="629" 
d="M160 -23l175 739h126l-174 -739h-127zM495 9q-45 0 -76.5 31.5t-31.5 76.5t31.5 76.5t76.5 31.5t76.5 -31.5t31.5 -76.5t-31.5 -76.5t-76.5 -31.5zM134 467q-45 0 -76.5 31.5t-31.5 76.5t31.5 76.5t76.5 31.5t76.5 -31.5t31.5 -76.5t-31.5 -76.5t-76.5 -31.5z" />
    <glyph glyph-name="ampersand" unicode="&#x26;" horiz-adv-x="658" 
d="M487 0l-331 393q-31 40 -42.5 71t-11.5 63q0 48 20 86t55.5 62.5t81.5 30.5v-131q-7 -1 -13.5 -7t-10.5 -15t-4 -21q0 -8 2.5 -16.5t8 -17.5t13.5 -20l159 -191q5 7 10 15.5t9 19.5t5 23h143q-4 -37 -13.5 -66.5t-23 -54.5t-31.5 -50l115 -137zM244 0q-59 0 -107.5 28.5
t-77.5 77t-29 107.5q0 47 20 88t54 70l93 -109q-9 -8 -15 -17t-8.5 -18t-2.5 -18q0 -19 9.5 -35t26 -26t35.5 -10q11 0 22.5 3.5t22.5 12.5l91 -107q-28 -22 -62 -34.5t-72 -12.5zM343 526q0 7 -2 16.5t-8.5 19t-18.5 13.5v131q59 -7 101 -48t53 -99z" />
    <glyph glyph-name="quotesingle" unicode="'" horiz-adv-x="212" 
d="M43 465v271h127v-271h-127z" />
    <glyph glyph-name="parenleft" unicode="(" horiz-adv-x="223" 
d="M203 -37q-71 30 -106 64t-46 74t-11 88v321q0 53 11.5 89.5t32.5 61.5t51 42t67 32l1 -87q-19 -11 -32.5 -27t-20 -40t-6.5 -60v-319q0 -49 7.5 -78t21 -45.5t30.5 -27.5v-88z" />
    <glyph glyph-name="parenright" unicode=")" horiz-adv-x="223" 
d="M20 -37v88q13 8 24 19t19 28t12.5 42t4.5 62v319q0 36 -7 60t-20 40t-33 27l1 87q50 -19 86 -44.5t56 -67.5t20 -113v-321q0 -36 -6 -67.5t-22.5 -59.5t-49 -52.5t-85.5 -46.5z" />
    <glyph glyph-name="asterisk" unicode="*" horiz-adv-x="324" 
d="M125 478v86l-68 -47l-41 57l87 59l-88 58l42 57l68 -44v81h71v-83l71 46l42 -57l-88 -59l87 -60l-41 -57l-71 50v-87h-71z" />
    <glyph glyph-name="plus" unicode="+" horiz-adv-x="405" 
d="M138 87v143h-123v127h123v141h127v-141h125v-127h-125v-143h-127z" />
    <glyph glyph-name="comma" unicode="," horiz-adv-x="265" 
d="M51 -23l37 152h127l-37 -152h-127z" />
    <glyph glyph-name="hyphen" unicode="-" horiz-adv-x="416" 
d="M50 230v127h316v-127h-316z" />
    <glyph glyph-name="period" unicode="." horiz-adv-x="210" 
d="M105 -5q-31 0 -53 22t-22 53q0 32 22 54t53 22q32 0 53.5 -22t21.5 -54q0 -31 -21.5 -53t-53.5 -22z" />
    <glyph glyph-name="slash" unicode="/" horiz-adv-x="401" 
d="M50 -23l175 739h126l-174 -739h-127z" />
    <glyph glyph-name="zero" unicode="0" horiz-adv-x="499" 
d="M277 0v134q21 5 32.5 24.5t16.5 48.5t6.5 63.5t1.5 68.5v22q0 34 -1.5 68.5t-6.5 63.5t-16.5 48.5t-32.5 24.5v134q32 0 66 -14t62.5 -51t46 -106t17.5 -179t-17.5 -179t-46 -106t-62.5 -51t-66 -14zM222 0q-32 0 -66 14t-62.5 51t-46 106t-17.5 179t17.5 179t46 106
t62.5 51t66 14v-134q-21 -5 -32.5 -24.5t-16.5 -48.5t-6.5 -63.5t-1.5 -68.5v-22q0 -34 1.5 -68.5t6.5 -63.5t16.5 -48.5t32.5 -24.5v-134z" />
    <glyph glyph-name="one" unicode="1" horiz-adv-x="277" 
d="M106 0v514h-76v126l76 60h141v-700h-141z" />
    <glyph glyph-name="two" unicode="2" horiz-adv-x="495" 
d="M51 190q0 26 11 49t29 42t40 36.5t44 32.5t40 29q34 26 61 45t43 38.5t16 44.5q0 20 -9.5 34t-24.5 21.5t-33 7.5v130q69 0 112.5 -28t64 -73t20.5 -97q0 -59 -28.5 -100.5t-93.5 -88.5q-20 -15 -40 -27.5t-37 -24t-29.5 -23t-20 -23t-7.5 -25.5h-158zM51 0v138h404v-138
h-404zM151 498l-121 23q0 46 25.5 86.5t67 66.5t90.5 26v-130q-8 0 -23 -6t-27 -21.5t-12 -44.5z" />
    <glyph glyph-name="three" unicode="3" horiz-adv-x="502" 
d="M268 0v130q17 2 34 8.5t28.5 22t11.5 43.5q0 17 -5.5 31.5t-19.5 25.5t-39 17.5t-65 6.5v130q40 0 65 6.5t39 18t19.5 26t5.5 30.5q0 42 -24 56.5t-50 17.5v130q30 0 65.5 -10.5t67 -33.5t51.5 -61t20 -94q0 -64 -23 -100.5t-44 -50.5q21 -14 44 -50.5t23 -100.5
q0 -55 -20 -93.5t-51.5 -61.5t-67 -33.5t-65.5 -10.5zM213 0q-49 0 -90.5 26t-67 67t-25.5 86l121 23q0 -28 12 -44t27 -22t23 -6v-130zM151 498l-121 23q0 46 25.5 86.5t67 66.5t90.5 26v-130q-8 -1 -23 -7t-27 -21t-12 -44z" />
    <glyph glyph-name="four" unicode="4" horiz-adv-x="491" 
d="M267 0v701h140v-429h54v-130h-54v-142h-140zM20 142v130l190 326v-252l-46 -74h46v-130h-190z" />
    <glyph glyph-name="five" unicode="5" horiz-adv-x="520" 
d="M160 286l-115 68l29 346h359v-130h-238l-12 -128q10 2 21 3.5t24 1.5v-123q-25 -2 -43.5 -13.5t-24.5 -24.5zM225 -1q-49 0 -93.5 25.5t-73 66t-28.5 85.5l121 23q1 -23 16 -38.5t32.5 -23.5t25.5 -8v-130zM282 0v126q18 3 33 12t25.5 22t16 29t5.5 35q0 21 -7 38.5
t-18.5 30.5t-26 21t-28.5 10v123q72 -1 118 -34t68 -84t22 -106q0 -70 -30 -119.5t-77.5 -76t-100.5 -27.5z" />
    <glyph glyph-name="six" unicode="6" horiz-adv-x="505" 
d="M232 -1q-65 0 -105 31.5t-61 83t-28.5 113t-7.5 122.5q0 38 3.5 84.5t14.5 93.5t33 86t59 63t92 24v-130q-25 -4 -38.5 -22t-19.5 -42.5t-7.5 -49.5t-1.5 -44q13 6 32.5 9.5t34.5 3.5v-130q-19 -5 -31.5 -18t-19 -30t-6.5 -35q0 -14 3.5 -27t10.5 -24.5t18 -19.5t25 -12
v-130zM286 -1v130q19 5 31.5 17.5t19 30t6.5 35.5t-6.5 35t-19 30t-31.5 18v130q62 0 104 -29t63.5 -77t21.5 -104q0 -65 -26 -114t-69 -75.5t-94 -26.5zM345 522q-5 19 -16.5 29t-23.5 14.5t-19 4.5v130q53 0 98 -30.5t67 -75.5z" />
    <glyph glyph-name="seven" unicode="7" horiz-adv-x="449" 
d="M143 0q0 74 11 146t30 138.5t43 124.5t49 106h143q-31 -60 -56 -123t-43 -128.5t-27.5 -132t-9.5 -131.5h-140zM30 570v130h399v-130h-399z" />
    <glyph glyph-name="eight" unicode="8" horiz-adv-x="492" 
d="M275 -2v129q20 3 32.5 15t19 29t6.5 35q0 14 -3.5 26.5t-10.5 23.5t-18 18.5t-25 10.5v128q19 4 31.5 15.5t19 28.5t6.5 35q0 19 -6.5 35.5t-19 28.5t-32.5 15v129q31 0 64 -14.5t61 -41.5t45 -65t17 -86q0 -56 -22 -93.5t-42 -50.5q20 -13 42 -50.5t22 -93.5
q0 -48 -17 -86t-45 -65t-61 -41.5t-64 -14.5zM217 -2q-31 0 -64 14.5t-61 41.5t-45 65t-17 86q0 56 22 93.5t42 50.5q-20 13 -42 50.5t-22 93.5q0 48 17 86t45 65t61 41.5t64 14.5v-129q-19 -3 -32 -15t-19.5 -28.5t-6.5 -35.5q0 -18 6.5 -35t19 -28.5t31.5 -15.5v-128
q-14 -3 -25 -10.5t-18 -18.5t-10.5 -23.5t-3.5 -26.5q0 -18 6.5 -35t19.5 -29t32 -15v-129z" />
    <glyph glyph-name="nine" unicode="9" horiz-adv-x="505" 
d="M273 -1v130q27 2 41.5 19.5t19.5 42.5t5.5 51t0.5 45q-6 -3 -14.5 -5.5t-18 -4t-18 -2.5t-16.5 -1v130q29 8 43 32t14 51q0 14 -3.5 27t-10.5 24.5t-18 19.5t-25 12v130q66 0 106 -31.5t61 -84.5t28 -118.5t7 -134.5q0 -32 -2.5 -75t-13 -88t-32 -83.5t-59 -62
t-95.5 -23.5zM219 -1q-61 0 -101.5 30.5t-63.5 75.5l106 72q8 -22 25.5 -34.5t33.5 -13.5v-130zM219 274q-62 0 -104 29t-63.5 77t-21.5 104q0 66 26 114.5t69.5 75t93.5 26.5v-130q-14 -4 -25 -12t-18 -19.5t-10.5 -24.5t-3.5 -27q0 -27 14.5 -51t42.5 -32v-130z" />
    <glyph glyph-name="colon" unicode=":" horiz-adv-x="250" 
d="M125 355q-31 0 -53 22t-22 53q0 32 22 54t53 22q32 0 53.5 -22t21.5 -54q0 -31 -21.5 -53t-53.5 -22zM125 65q-31 0 -53 22t-22 53q0 32 22 54t53 22q32 0 53.5 -22t21.5 -54q0 -31 -21.5 -53t-53.5 -22z" />
    <glyph glyph-name="semicolon" unicode=";" horiz-adv-x="291" 
d="M50 -23l37 152h127l-37 -152h-127zM166 285q-31 0 -53 22t-22 53q0 32 22 54t53 22q32 0 53.5 -22t21.5 -54q0 -31 -21.5 -53t-53.5 -22z" />
    <glyph glyph-name="less" unicode="&#x3c;" horiz-adv-x="414" 
d="M384 79l-354 179v64l354 178v-130l-176 -78l176 -86v-127z" />
    <glyph glyph-name="equal" unicode="=" horiz-adv-x="418" 
d="M50 325v127h318v-127h-318zM50 131v127h318v-127h-318z" />
    <glyph glyph-name="greater" unicode="&#x3e;" horiz-adv-x="414" 
d="M30 79v127l176 86l-176 78v130l354 -178v-64z" />
    <glyph glyph-name="question" unicode="?" horiz-adv-x="460" 
d="M134 166v220q50 1 87.5 7t59 26.5t21.5 62.5q0 35 -13.5 55t-34.5 29t-44 9q-21 0 -39.5 -6.5t-33 -17.5t-25.5 -25l-82 85q15 19 38 40.5t59 36.5t89 15q99 0 155 -57.5t58 -154.5q1 -53 -14 -92t-40.5 -65t-55 -40.5t-56.5 -17.5v-110h-129zM197 -22q-31 0 -53 22
t-22 53q0 32 22 54t53 22q32 0 54 -22t22 -54q0 -31 -22 -53t-54 -22z" />
    <glyph glyph-name="at" unicode="@" horiz-adv-x="803" 
d="M419 -87q-84 0 -157.5 26t-128.5 75.5t-86 120.5t-31 162q0 95 33.5 172t92 132t134.5 84.5t162 29.5q65 0 126.5 -18t112 -56.5t80 -97.5t29.5 -142q0 -57 -14.5 -102.5t-39.5 -80t-56.5 -57t-66.5 -34t-69 -11.5q-24 0 -41 5.5t-28 16t-18 23.5q-7 -13 -33.5 -29
t-67.5 -16q-44 0 -77.5 23.5t-51.5 63.5t-18 91q0 69 31.5 119.5t80 78t97.5 27.5q31 0 50.5 -8.5t30.5 -18.5t15 -15l8 27h84l-50 -196q-2 -8 -4.5 -19.5t-2.5 -22.5q0 -8 1.5 -14t6 -9t12.5 -3q16 0 33.5 11t33 32t25 50.5t9.5 66.5q0 53 -19.5 91t-52.5 62.5t-72.5 36.5
t-79.5 12q-51 0 -104.5 -18.5t-99 -56t-74 -94t-28.5 -132.5q0 -81 34.5 -144t98.5 -99t150 -36q60 0 124 19.5t124 61.5l50 -91q-31 -29 -78 -51.5t-103.5 -35t-116.5 -12.5z" />
    <glyph glyph-name="A" unicode="A" horiz-adv-x="528" 
d="M369 0l-20 85h-104l30 138h36l-106 477h139l165 -700h-140zM32 0l129 582h15l60 -280l-66 -302h-138z" />
    <glyph glyph-name="B" unicode="B" horiz-adv-x="488" 
d="M225 0v123h5q22 0 38 7t27 19t16.5 27t5.5 30q0 32 -21.5 57.5t-62.5 25.5h-8v122h8q28 0 46.5 12t28 31t9.5 40t-9.5 40t-29 31t-48.5 12h-5v123h24q55 0 94.5 -17t64.5 -45t37 -63t12 -71q0 -45 -17.5 -87t-50.5 -67q22 -16 37 -41t23 -54t8 -59q0 -48 -21.5 -93
t-67.5 -74t-119 -29h-24zM30 0v700h140v-700h-140z" />
    <glyph glyph-name="C" unicode="C" horiz-adv-x="494" 
d="M235 -5q-54 0 -91.5 20t-60.5 50.5t-34 62t-11 53.5v337q0 23 11 54.5t34 61.5t60.5 50.5t91.5 20.5v-141q-17 0 -28 -6.5t-17 -15t-8.5 -15.5t-2.5 -9v-337q0 -2 2.5 -9t8.5 -15.5t17 -14.5t28 -6v-141zM289 -5v141q7 2 15.5 5.5t16 10t10.5 14.5q4 8 4.5 18t0.5 19v6v6
l138 -33q0 -53 -27 -95.5t-69.5 -67t-88.5 -24.5zM336 480v7.5v7.5q0 9 -0.5 19t-4.5 18q-3 6 -7.5 11.5t-10.5 9.5t-12.5 7t-11.5 4v141q35 0 67.5 -16t59.5 -42.5t42.5 -60.5t15.5 -70z" />
    <glyph glyph-name="D" unicode="D" horiz-adv-x="472" 
d="M237 0v141q2 0 11 2t19.5 8t18 17t7.5 29v306q0 2 -2 10.5t-8 19t-17 18.5t-29 8v141q54 0 91.5 -21.5t60.5 -53.5t34 -65t11 -57v-306q0 -55 -22 -93t-54 -61t-65 -33t-56 -10zM42 0v700h141v-700h-141z" />
    <glyph glyph-name="E" unicode="E" horiz-adv-x="444" 
d="M42 0v700h364v-140h-223v-142h129v-141h-129v-136h223v-141h-364z" />
    <glyph glyph-name="F" unicode="F" horiz-adv-x="432" 
d="M42 1v699h364v-140h-223v-142h129v-141h-129v-276h-141z" />
    <glyph glyph-name="G" unicode="G" horiz-adv-x="507" 
d="M234 -5q-22 0 -55 10.5t-65.5 34t-54 61t-21.5 91.5v332q3 24 15.5 55t36 60t59.5 47.5t85 18.5v-141q-23 0 -35 -11t-15.5 -24t-3.5 -21v-316q0 -17 7.5 -28t17.5 -17t18.5 -8.5t10.5 -2.5v-141zM288 -5v141q2 0 9 3.5t15 10.5t13.5 17t5.5 23v33h-43v130h185v-177
q0 -30 -17 -62t-44.5 -58.5t-60 -43.5t-63.5 -17zM335 465v39q0 15 -4 26.5t-11 18.5t-15.5 11t-16.5 4v141q47 0 89 -27t69 -70.5t27 -91.5z" />
    <glyph glyph-name="H" unicode="H" horiz-adv-x="525" 
d="M344 0v288h-54v128h54v284h141v-700h-141zM40 0v700h141v-284h54v-128h-54v-288h-141z" />
    <glyph glyph-name="I" unicode="I" horiz-adv-x="225" 
d="M42 0v700h141v-700h-141z" />
    <glyph glyph-name="J" unicode="J" horiz-adv-x="484" 
d="M256 -5v142q2 0 10.5 2.5t19 8.5t18.5 17t8 28v507h140v-507q0 -54 -21.5 -92t-54 -61t-65 -34t-55.5 -11zM202 -5q-22 0 -54 11.5t-62 35.5t-50.5 61.5t-20.5 89.5v49h142v-49q0 -17 6 -28t14.5 -17t15.5 -8.5t9 -2.5v-142z" />
    <glyph glyph-name="K" unicode="K" horiz-adv-x="488" 
d="M335 0l-112 341l107 359h139l-106 -359l110 -341h-138zM42 0v700h141v-700h-141z" />
    <glyph glyph-name="L" unicode="L" horiz-adv-x="433" 
d="M42 0v700h141v-560h235v-140h-376z" />
    <glyph glyph-name="M" unicode="M" horiz-adv-x="696" 
d="M295 0l-253 608v92h110l191 -463l106 239h10v-325l-67 -151h-97zM42 0v444h9l132 -317v-127h-141zM513 0v700h141v-700h-141z" />
    <glyph glyph-name="N" unicode="N" horiz-adv-x="529" 
d="M420 0l-378 608v92h115l330 -532v-168h-67zM42 0v492h8l133 -214v-278h-141zM479 284l-133 214v202h141v-416h-8z" />
    <glyph glyph-name="O" unicode="O" horiz-adv-x="549" 
d="M302 -5v142q13 0 24.5 5.5t21 15t15 22.5t5.5 29v279q0 17 -5 30.5t-13.5 24t-20.5 16t-27 5.5v141q42 0 79.5 -16t66 -43.5t45 -64t16.5 -77.5v-300q0 -44 -14.5 -82t-41.5 -66.5t-65.5 -44.5t-85.5 -16zM246 -5q-42 0 -79 16.5t-65.5 45.5t-45 67t-16.5 80v300
q0 41 16.5 77.5t45 64.5t66 43.5t79.5 15.5v-141q-15 0 -27 -5.5t-20.5 -16t-13.5 -24t-5 -30.5v-279q0 -16 5.5 -29.5t14.5 -23t20.5 -14.5t24.5 -5v-142z" />
    <glyph glyph-name="P" unicode="P" horiz-adv-x="479" 
d="M42 0v700h141v-700h-141zM237 319v138h33q8 0 20 2t21.5 13t9.5 37t-9.5 37t-21.5 13t-20 2h-33v139h37q75 0 116 -25t57.5 -69t16.5 -101q0 -62 -18.5 -103.5t-60 -62t-111.5 -20.5h-37z" />
    <glyph glyph-name="Q" unicode="Q" horiz-adv-x="526" 
d="M360 -107l-71 102v142q2 0 10.5 2.5t19 9t18.5 18t8 28.5v313q0 3 -4.5 16.5t-16.5 26.5t-35 13v141q49 0 86 -19.5t61.5 -49t37 -60t12.5 -52.5v-329q0 -34 -9 -61.5t-24.5 -49t-35.5 -37.5l55 -79zM234 -5q-22 0 -55 11t-65.5 35t-54 62t-21.5 92v329q0 23 12 53.5
t37 59.5t62 48.5t86 19.5v-141q-23 0 -35 -13t-16.5 -26.5t-4.5 -16.5v-313q0 -17 7.5 -28.5t18 -18t19 -9t10.5 -2.5v-142z" />
    <glyph glyph-name="R" unicode="R" horiz-adv-x="505" 
d="M353 0l-15 178q-3 39 -12.5 62.5t-28 34.5t-49.5 11h-11v125h13q45 0 65.5 24.5t20.5 54.5q0 36 -24.5 56.5t-61.5 20.5h-13v133h22q67 0 113.5 -25t71 -68.5t24.5 -100.5q0 -51 -18.5 -90t-49.5 -64q32 -20 47.5 -59.5t18.5 -75.5l17 -217h-130zM42 0v700h141v-700h-141
z" />
    <glyph glyph-name="S" unicode="S" horiz-adv-x="481" 
d="M258 -3v130q11 1 22 6.5t20 15t14.5 21.5t5.5 26q0 25 -15 44.5t-38.5 34t-47.5 24.5t-43 16t-25 8q-29 9 -57.5 33t-47 62.5t-18.5 88.5q0 53 19.5 89.5t48.5 59t58.5 33.5t48.5 11v-132q-8 -3 -15.5 -8t-13 -13t-9 -17t-3.5 -19q0 -18 9.5 -31t26.5 -23t38.5 -19.5
t46.5 -19.5t50 -24q32 -17 61 -42t48 -59.5t19 -82.5q0 -57 -28 -105.5t-74.5 -78t-100.5 -29.5zM203 -3q-41 0 -74.5 17t-58 43t-37.5 53t-13 48l127 45q0 -20 9 -35.5t22 -25.5t25 -15v-130zM303 510q0 17 -7.5 29t-17.5 19.5t-20 9.5v132q40 0 72 -15.5t55 -39.5
t35.5 -49t12.5 -43z" />
    <glyph glyph-name="T" unicode="T" horiz-adv-x="463" 
d="M161 0v562h-146v138h433v-138h-146v-562h-141z" />
    <glyph glyph-name="U" unicode="U" horiz-adv-x="512" 
d="M229 -5q-22 0 -55.5 11t-65.5 34t-54 61t-22 92v507h142v-507q0 -17 7.5 -28t18 -17t19 -8.5t10.5 -2.5v-142zM283 -5v142q2 0 10.5 2.5t19 8.5t18.5 17t8 28v507h140v-507q0 -54 -21.5 -92t-53.5 -61.5t-65 -34t-56 -10.5z" />
    <glyph glyph-name="V" unicode="V" horiz-adv-x="472" 
d="M211 0l-203 700h144l159 -542l-53 -158h-47zM331 290l-66 224l55 186h144l-123 -410h-10z" />
    <glyph glyph-name="W" unicode="W" horiz-adv-x="792" 
d="M213 0l-203 700h144l159 -542l-53 -158h-47zM525 0l-203 700h144l158 -542l-52 -158h-47zM333 290l-66 224l55 186h144l-123 -410h-10zM649 290l-66 224l55 186h144l-123 -410h-10z" />
    <glyph glyph-name="X" unicode="X" horiz-adv-x="442" 
d="M15 0l136 361l-124 339h137l57 -152l57 152h137l-124 -339l136 -361h-145l-61 167l-61 -167h-145z" />
    <glyph glyph-name="Y" unicode="Y" horiz-adv-x="451" 
d="M143 0v252l-131 448h147l130 -447v-253h-146zM321 331l-66 234l39 135h145l-109 -369h-9z" />
    <glyph glyph-name="Z" unicode="Z" horiz-adv-x="426" 
d="M30 0v141l210 419h-210v140h366v-137l-210 -419h210v-144h-366z" />
    <glyph glyph-name="bracketleft" unicode="[" horiz-adv-x="258" 
d="M50 -36v775h194v-110h-61l-3 -555h64v-110h-194z" />
    <glyph glyph-name="backslash" unicode="\" horiz-adv-x="385" 
d="M216 -23l-174 739h126l175 -739h-127z" />
    <glyph glyph-name="bracketright" unicode="]" horiz-adv-x="251" 
d="M14 -36v110h64l-3 555h-61v110h194v-775h-194z" />
    <glyph glyph-name="asciicircum" unicode="^" horiz-adv-x="506" 
d="M60 460l149 296h88l149 -296h-123l-71 143l-70 -143h-122z" />
    <glyph glyph-name="underscore" unicode="_" horiz-adv-x="510" 
d="M30 -205v107h450v-107h-450z" />
    <glyph glyph-name="grave" unicode="`" horiz-adv-x="346" 
d="M115 605l-73 152h127l37 -152h-91z" />
    <glyph glyph-name="a" unicode="a" horiz-adv-x="472" 
d="M194 0q-53 0 -91 20t-58 50.5t-20 61.5v51q0 10 2.5 27.5t13.5 37.5t38 34q16 9 42.5 18t55.5 18.5t55 20t42.5 22t16.5 24.5v23q0 11 -4.5 19.5t-14 14t-25.5 5.5v123q58 0 96 -25.5t57 -61.5t19 -66v-261q0 -6 4.5 -19t23.5 -13v-124q-32 0 -56.5 8.5t-41.5 23.5
q-19 -16 -44 -24t-57 -8v123q18 0 27 7t12.5 16.5t3.5 16.5v82q-16 -9 -37 -17t-43 -13.5t-38.5 -10.5t-23.5 -8q-13 -6 -13 -23v-14q0 -12 4.5 -20t17 -12t36.5 -4v-123zM148 383l-116 44q0 41 24.5 73t62 51t76.5 19v-123q-15 0 -25.5 -7t-16 -21t-5.5 -36z" />
    <glyph glyph-name="b" unicode="b" horiz-adv-x="466" 
d="M233 0v130h36q16 0 23.5 6.5t10.5 13.5l3 7v256q0 1 -2.5 7.5t-10.5 13t-23 6.5h-37v130h36q42 0 73.5 -16.5t52 -41.5t31 -50.5t10.5 -44.5v-262q0 -18 -10 -44t-31 -51.5t-52.5 -42.5t-73.5 -17h-36zM42 0v716h138v-716h-138z" />
    <glyph glyph-name="c" unicode="c" horiz-adv-x="456" 
d="M216 0q-49 0 -82.5 16.5t-54.5 41.5t-30.5 51.5t-9.5 45.5v262q0 20 10 46t31.5 50.5t55 40.5t79.5 16v-128q-17 0 -27.5 -4.5t-14.5 -10.5t-4 -12v-260q0 -10 5 -16t15.5 -8.5t26.5 -3.5v-127zM261 -1v129q18 0 29.5 3.5t17.5 13t6 27.5v33l122 -47q1 -43 -24.5 -79.5
t-66 -58.5t-84.5 -21zM302 365v33q0 17 -5 26t-14.5 13t-21.5 4v129q45 0 82 -21.5t59 -57.5t22 -79z" />
    <glyph glyph-name="d" unicode="d" horiz-adv-x="461" 
d="M197 0q-43 0 -74 17t-51.5 42.5t-30.5 51.5t-10 44v260q0 18 10 44t30.5 50.5t51 41t72.5 16.5h33v-129h-33q-15 0 -22.5 -6.5t-10 -13.5t-2.5 -8v-253q0 -1 3 -7.5t11 -13t23 -6.5h31v-130h-31zM281 0v716h139l-1 -716h-138z" />
    <glyph glyph-name="e" unicode="e" horiz-adv-x="485" 
d="M216 0q-44 0 -77.5 16.5t-55.5 41.5t-33 51t-11 46v262q0 20 11 46t33.5 50.5t55.5 40.5t76 16v-126q-13 0 -22.5 -6t-15 -14t-5.5 -16v-50h149v49q0 16 -8 24t-20 10.5t-24 2.5v126q41 0 81.5 -19t68 -53t27.5 -80v-189h-274v-74q0 -7 4 -14.5t13.5 -12.5t26.5 -5v-123z
M269 0v122q21 0 35 7t22 18.5t12 25.5l109 -41q-7 -32 -31 -62.5t-61.5 -50t-85.5 -19.5z" />
    <glyph glyph-name="f" unicode="f" horiz-adv-x="321" 
d="M85 0v389h-70v130h70v39q0 18 10 44t31 52t53 44t75 19h67l-30 -129h-36q-15 0 -23 -7t-10.5 -14t-2.5 -9v-39h72v-130h-72v-389h-134z" />
    <glyph glyph-name="g" unicode="g" horiz-adv-x="456" 
d="M20 -190l31 123h198q17 0 26 7.5t12.5 15.5t3.5 9v47q-7 -1 -14.5 -2t-15 -1.5t-15.5 -0.5v124q18 0 27.5 5t13.5 13t4 15v255q0 3 -4 11t-13.5 14.5t-27.5 6.5v125q8 0 15.5 -0.5t15 -2t14.5 -3.5v6h128v-612q0 -18 -10.5 -44t-31.5 -51.5t-52.5 -42.5t-73.5 -17h-231z
M203 8q-44 0 -76.5 17t-53.5 42t-31.5 51t-10.5 44v263q0 19 10.5 44.5t31.5 50t53.5 41t76.5 16.5v-125q-18 0 -28.5 -6.5t-14.5 -13.5t-4 -10v-259q0 -6 4.5 -13.5t14.5 -12.5t28 -5v-124z" />
    <glyph glyph-name="h" unicode="h" horiz-adv-x="473" 
d="M42 -8v724h125v-170q11 4 26 5.5t28 1.5v-123q-18 0 -30 -8.5t-17.5 -17.5t-5.5 -12v-400h-126zM318 -8v400q0 2 -4 11.5t-14 18t-30 8.5v123q55 0 93.5 -22t59 -56.5t20.5 -72.5v-410h-125z" />
    <glyph glyph-name="i" unicode="i" horiz-adv-x="245" 
d="M57 0v562h134v-562h-134zM123 611q-30 0 -51.5 21.5t-21.5 50.5t21.5 50.5t51.5 21.5q29 0 50.5 -21.5t21.5 -50.5t-21.5 -50.5t-50.5 -21.5z" />
    <glyph glyph-name="j" unicode="j" horiz-adv-x="242" 
d="M-42 -199l30 128h29q16 0 23.5 7t10.5 14t3 8v582h134v-582q0 -19 -10.5 -46t-31 -52t-52 -42t-73.5 -17h-63zM120 579q-30 0 -51.5 21.5t-21.5 50.5t21.5 50.5t51.5 21.5q29 0 50.5 -21.5t21.5 -50.5t-21.5 -50.5t-50.5 -21.5z" />
    <glyph glyph-name="k" unicode="k" horiz-adv-x="500" 
d="M335 0l-126 287l123 283h146l-126 -283l128 -287h-145zM42 0v716h138v-716h-138z" />
    <glyph glyph-name="l" unicode="l" horiz-adv-x="228" 
d="M42 0v716h144v-716h-144z" />
    <glyph glyph-name="m" unicode="m" horiz-adv-x="762" 
d="M313 0v398q0 17 -10.5 28.5t-37.5 11.5v133q38 0 66 -10t50 -27q22 18 50 27.5t65 9.5v-133q-27 0 -37 -12t-10 -28v-398h-136zM38 0v415q0 21 11.5 47.5t34.5 51.5t56.5 41t78.5 16v-133q-26 0 -35.5 -13.5t-9.5 -26.5v-398h-136zM588 0v398q0 18 -10 29t-37 11v133
q45 0 79.5 -16.5t57.5 -41.5t34.5 -51.5t11.5 -46.5v-415h-136z" />
    <glyph glyph-name="n" unicode="n" horiz-adv-x="487" 
d="M38 379q0 42 13 77t37 60.5t57 39.5t73 14v-130q-15 0 -25.5 -8t-16.5 -23t-6 -36v-373h-132v379zM316 373q0 21 -5.5 36t-16.5 23t-26 8v130q40 0 73 -14t57 -39.5t37 -60.5t13 -77v-379h-132v373z" />
    <glyph glyph-name="o" unicode="o" horiz-adv-x="476" 
d="M218 -1q-36 0 -68.5 13t-57.5 37t-39.5 58t-14.5 76v196q0 42 13 77t37 60.5t57 39.5t73 14v-130q-15 0 -25.5 -8t-16.5 -23t-6 -36v-185q0 -17 6 -30.5t17 -21t25 -7.5v-130zM268 -1v130q14 0 25 7.5t17 21t6 30.5v185q0 21 -5.5 36t-16.5 23t-26 8v130q40 0 73 -14
t57 -39.5t37 -60.5t13 -77v-196q0 -42 -14.5 -76t-39.5 -58t-57.5 -37t-68.5 -13z" />
    <glyph glyph-name="p" unicode="p" horiz-adv-x="481" 
d="M230 0v130h34q18 0 26.5 6.5t11 13t2.5 7.5v256q0 1 -2.5 7.5t-11 13t-26.5 6.5h-34v130h34q44 0 76.5 -17t53.5 -42t31.5 -51.5t10.5 -44.5v-260q0 -18 -10.5 -44.5t-31.5 -51.5t-53.5 -42t-76.5 -17h-34zM39 -199v769h141v-769h-141z" />
    <glyph glyph-name="q" unicode="q" horiz-adv-x="476" 
d="M212 0q-44 0 -76.5 17t-53.5 42t-31.5 51.5t-10.5 44.5v260q0 18 10.5 44.5t31.5 51.5t53.5 42t76.5 17h34v-130h-34q-17 0 -26 -6.5t-12 -13t-3 -7.5v-256q0 -1 3 -7.5t12 -13t26 -6.5h34v-130h-34zM296 -199v769h141v-769h-141z" />
    <glyph glyph-name="r" unicode="r" horiz-adv-x="361" 
d="M42 0v570h136v-63q12 15 32.5 30.5t47.5 26.5t57 11h18h18l-31 -134q-36 0 -68.5 -20.5t-53 -51.5t-20.5 -64v-305h-136z" />
    <glyph glyph-name="s" unicode="s" horiz-adv-x="454" 
d="M245 -5v126q12 0 26 5t24 15t10 25q0 20 -19.5 32.5t-49 21t-61 16.5t-55.5 19q-22 10 -43.5 29t-36 49t-14.5 73q0 50 18.5 82.5t46.5 51.5t57 27t50 8v-124q-23 0 -33.5 -7t-13 -15t-2.5 -13q0 -18 17.5 -33.5t56 -29t100.5 -27.5q20 -4 39.5 -15t35.5 -29t26 -44.5
t10 -62.5q0 -57 -25.5 -97.5t-68.5 -61.5t-95 -21zM200 -5q-64 0 -103.5 24t-58 59.5t-18.5 71.5l124 23q0 -15 8.5 -26.5t21.5 -18t26 -7.5v-126zM301 397q0 25 -12.5 36t-26.5 14.5t-19 3.5l1 124q54 0 94.5 -24t63 -60t22.5 -73z" />
    <glyph glyph-name="t" unicode="t" horiz-adv-x="324" 
d="M254 0q-67 0 -104 23t-51.5 64.5t-14.5 97.5v256h-70v129h70v146h134v-146h66v-130h-66v-265q0 -11 7 -24t30 -13h29l30 -138h-60z" />
    <glyph glyph-name="u" unicode="u" horiz-adv-x="487" 
d="M266 -5v133q18 0 28.5 6t14.5 15t4 18v403h136v-419q0 -20 -11.5 -46.5t-34.5 -51.5t-57.5 -41.5t-79.5 -16.5zM220 -5q-45 0 -79.5 16t-57 41t-34 51.5t-11.5 47.5v419h136v-403q0 -9 4 -18t14 -15t28 -6v-133z" />
    <glyph glyph-name="v" unicode="v" horiz-adv-x="443" 
d="M181 0l-174 570h149l146 -432l-45 -138h-76zM316 229l-71 204l42 137h149l-107 -341h-13z" />
    <glyph glyph-name="w" unicode="w" horiz-adv-x="723" 
d="M461 0l-174 570h149l146 -432l-45 -138h-76zM181 0l-174 570h149l146 -432l-45 -138h-76zM316 229l-71 204l42 137h149l-107 -341h-13zM596 229l-71 204l42 137h149l-107 -341h-13z" />
    <glyph glyph-name="x" unicode="x" horiz-adv-x="416" 
d="M8 0l125 288l-123 282h138l60 -131l58 131h139l-121 -282l124 -288h-137l-63 139l-63 -139h-137z" />
    <glyph glyph-name="y" unicode="y" horiz-adv-x="429" 
d="M37 -200l100 328l-130 442h144l133 -444l-109 -326h-138zM301 232l-60 204l42 134h144l-113 -338h-13z" />
    <glyph glyph-name="z" unicode="z" horiz-adv-x="386" 
d="M30 0v131l173 309h-173v130h326v-130l-168 -309h168v-131h-326z" />
    <glyph glyph-name="braceleft" unicode="{" horiz-adv-x="292" 
d="M272 -38q-39 0 -74 4t-62.5 24t-43 67.5t-15.5 134.5v98q0 24 -17.5 34t-44.5 24q27 11 44.5 21.5t17.5 38.5v96q0 79 15 125.5t41.5 69t62 29.5t76.5 7v-100q-25 0 -39 -9t-20 -28.5t-7 -51t-1 -77.5v-86q-1 -13 -14 -21.5t-31 -13.5q19 -6 31.5 -17t12.5 -27v-97
q0 -45 3 -74t10.5 -44.5t21 -21.5t33.5 -6v-99z" />
    <glyph glyph-name="bar" unicode="|" horiz-adv-x="205" 
d="M50 -134v888h105v-888h-105z" />
    <glyph glyph-name="braceright" unicode="}" horiz-adv-x="292" 
d="M20 -38v99q20 0 33.5 6t21 22t10.5 45t3 74v96q0 16 12.5 27t31.5 17q-19 5 -31.5 14t-12.5 22v85q0 46 -1 77.5t-7.5 51t-20 28.5t-39.5 9v100q41 0 76.5 -7t62.5 -29.5t42 -69t15 -125.5v-96q0 -28 17 -38.5t44 -21.5q-27 -14 -44.5 -24t-17.5 -34v-98
q0 -84 -15.5 -130.5t-43 -68t-62.5 -26.5t-74 -5z" />
    <glyph glyph-name="asciitilde" unicode="~" horiz-adv-x="628" 
d="M411 235q-34 0 -62 11t-53.5 25.5t-51.5 25.5t-57 11q-22 0 -48.5 -8t-58.5 -28v133q34 20 62 27.5t51 7.5q33 0 59.5 -11t52 -25.5t52.5 -25.5t60 -11q26 0 58.5 10t72.5 35v-131q-42 -25 -75.5 -35.5t-61.5 -10.5z" />
    <glyph glyph-name="uni00A0" unicode="&#xa0;" horiz-adv-x="230" 
 />
    <glyph glyph-name="exclamdown" unicode="&#xa1;" horiz-adv-x="245" 
d="M36 -198v567h134v-567h-134zM102 415q-33 0 -57 24t-24 56q0 33 24 56.5t57 23.5t56.5 -23.5t23.5 -56.5q0 -32 -23.5 -56t-56.5 -24z" />
    <glyph glyph-name="cent" unicode="&#xa2;" horiz-adv-x="456" 
d="M302 363v36q0 15 -6 23.5t-15.5 12.5t-19.5 4v129q44 0 81 -21.5t59.5 -57.5t22.5 -80zM215 0q-49 0 -82.5 16.5t-54 41.5t-30 51.5t-9.5 45.5v260q0 20 10.5 45.5t32.5 50.5t55 41t78 16v-128q-18 0 -28 -6t-14 -15t-4 -19v-235q0 -7 4.5 -15.5t15 -14.5t26.5 -6v-129z
M261 -1v130q19 0 36 7.5t17 35.5v16.5v16.5l122 -47q0 -43 -25.5 -79.5t-65.5 -58t-84 -21.5zM165 537v125h50v-125h-50zM165 -94v125h50v-125h-50zM261 537v125h51v-125h-51zM261 -94v125h51v-125h-51z" />
    <glyph glyph-name="sterling" unicode="&#xa3;" horiz-adv-x="460" 
d="M76 0v288h-56v107h56v119q0 52 19 95t60 69.5t106 26.5h2q21 0 39 -3.5t34 -10.5q44 -17 70 -51t34 -70l-99 -50q-7 23 -24 43.5t-50 20.5q-24 0 -41 -14.5t-17 -52.5v-121h139v-107h-140v-181h224v-108h-356z" />
    <glyph glyph-name="currency" unicode="&#xa4;" horiz-adv-x="646" 
d="M300 133q-37 0 -65 11.5t-48 30.5l-75 -66l-71 81l95 85v10.5v10.5v139v10.5v10.5l-96 84l72 82l76 -67q20 19 47.5 29.5t64.5 10.5v-118q-17 0 -27 -5.5t-13.5 -13.5t-3.5 -16v-157q0 -9 4.5 -17t14 -12.5t25.5 -4.5v-118zM341 133v117q17 0 26 5.5t12.5 13.5t3.5 16
v156q0 10 -4 18t-13 13t-25 5v118q35 0 61.5 -10.5t46.5 -29.5l75 67l72 -82l-96 -85v-10.5v-10.5v-141v-8.5v-9.5l95 -85l-71 -81l-74 65q-20 -19 -46.5 -30t-62.5 -11z" />
    <glyph glyph-name="yen" unicode="&#xa5;" horiz-adv-x="449" 
d="M165 0v238l-130 460h137l63 -213l60 213h137l-130 -462v-236h-137zM16 239v60h425v-60h-425zM16 349v60h425v-60h-425z" />
    <glyph glyph-name="brokenbar" unicode="&#xa6;" horiz-adv-x="214" 
d="M42 407v357h122v-357h-122zM42 -140v357h122v-357h-122z" />
    <glyph glyph-name="section" unicode="&#xa7;" horiz-adv-x="603" 
d="M274 125q-1 1 -16.5 7t-36.5 15t-39 19q-40 23 -69 49.5t-44 59.5t-15 74q0 48 19.5 86.5t52.5 63.5q-5 15 -7.5 33t-2.5 36q0 54 17.5 90.5t45.5 58.5t58.5 32t55.5 10h112v-132h-104q-25 0 -39.5 -14t-14.5 -37q0 -10 3.5 -19t9.5 -16t14 -14v-155q-1 1 -14 5.5
t-21 8.5q-7 4 -13.5 7t-13.5 7q-7 -6 -12 -16t-5 -25q0 -23 11 -39t29 -27.5t39 -20.5v-147zM198 -136v132h104q25 0 39.5 14.5t14.5 36.5q0 11 -3.5 19.5t-9.5 16.5t-15 14v155q14 -5 21.5 -8t14.5 -7t13.5 -7t13.5 -7q8 6 12.5 15.5t4.5 25.5q0 17 -6 30.5t-17 23.5
t-25.5 18t-31.5 15v147q23 -10 47.5 -19.5t45.5 -21.5q34 -18 63 -43.5t47 -60t18 -80.5q0 -47 -19.5 -85t-52.5 -64q5 -15 7.5 -33t2.5 -36q0 -54 -17.5 -90.5t-45.5 -58.5t-58 -32t-56 -10h-112z" />
    <glyph glyph-name="dieresis" unicode="&#xa8;" horiz-adv-x="430" 
d="M300 603q-31 0 -53 22t-22 53q0 32 22 54t53 22q32 0 53.5 -22t21.5 -54q0 -31 -21.5 -53t-53.5 -22zM130 603q-31 0 -53 22t-22 53q0 32 22 54t53 22q32 0 53.5 -22t21.5 -54q0 -31 -21.5 -53t-53.5 -22z" />
    <glyph glyph-name="copyright" unicode="&#xa9;" horiz-adv-x="824" 
d="M397 -49q-66 2 -130 30.5t-116.5 79t-84 121t-31.5 157.5q0 75 23 136t61.5 108t86 78.5t97.5 48t94 16.5v-90q-47 0 -95 -21t-88.5 -60t-65 -93t-24.5 -120q0 -60 21.5 -113t59 -93.5t87 -64.5t105.5 -27v-93zM432 -49v93q56 3 105.5 26.5t87 63.5t59 92t21.5 112
q0 66 -24 120.5t-64 94t-88.5 61.5t-96.5 22v90q45 0 95.5 -17t98.5 -50t86.5 -81.5t60.5 -111t20 -139.5q-2 -83 -33 -151t-82.5 -117.5t-115 -77t-130.5 -30.5zM462 413v19q0 15 -4.5 25t-11.5 14.5t-14 4.5v90q30 0 57 -17.5t44 -44.5t17 -58zM397 112q-34 0 -58 13
t-38.5 32.5t-21.5 39.5t-7 34v216q0 19 12.5 47t40 50t72.5 22v-90q-14 0 -22 -6.5t-10.5 -13.5t-2.5 -9v-216q0 -1 2.5 -8t10.5 -13.5t22 -6.5v-91zM432 112v89q13 0 21.5 11t8.5 30v22l88 -32q0 -30 -17 -57.5t-44 -45t-57 -17.5z" />
    <glyph glyph-name="ordfeminine" unicode="&#xaa;" horiz-adv-x="248" 
d="M19 325v68h206v-68h-206zM99 419q-27 0 -46 10t-28.5 25t-9.5 31v26q0 4 1 13t6.5 19t19.5 17q8 5 21 9.5t27.5 9t27.5 10t21.5 11t8.5 12.5v11q0 5 -2.5 9.5t-7 7t-12.5 3.5v61q28 0 47 -13t29 -30.5t10 -32.5v-131q0 -3 2 -9.5t12 -6.5v-62q-17 0 -29 4.5t-20 11.5
q-10 -8 -22.5 -12t-28.5 -4v62q9 0 13.5 3.5t6.5 8t2 8.5v41q-8 -5 -19 -9t-21.5 -7t-19 -5t-11.5 -4q-7 -3 -7 -11v-7q0 -6 2.5 -10t8.5 -6t18 -2v-62zM76 611l-58 22q0 20 12.5 36t31 25.5t38.5 9.5v-61q-8 0 -13.5 -4t-8 -11t-2.5 -17z" />
    <glyph glyph-name="guillemotleft" unicode="&#xab;" horiz-adv-x="457" 
d="M442 102l-211 157v62l211 156v-125l-89 -60l89 -68v-122zM231 102l-211 157v62l211 156v-125l-89 -60l89 -68v-122z" />
    <glyph glyph-name="logicalnot" unicode="&#xac;" horiz-adv-x="540" 
d="M372 208v119h-332v115h450v-234h-118z" />
    <glyph glyph-name="uni00AD" unicode="&#xad;" horiz-adv-x="376" 
d="M30 230v127h316v-127h-316z" />
    <glyph glyph-name="registered" unicode="&#xae;" horiz-adv-x="404" 
d="M192 354q-43 2 -80 25.5t-59.5 63t-22.5 88.5q0 42 16 74t41.5 54t54 33t53.5 11v-41q-29 0 -58 -17t-48 -46.5t-19 -69.5q0 -36 16.5 -65.5t44 -47.5t60.5 -20zM211 354v42q34 2 61.5 20t44.5 47.5t17 65.5q0 39 -18.5 69t-46.5 47t-58 17v41q25 0 53 -11.5t53 -34
t41 -55t16 -74.5q0 -51 -24 -90t-61.5 -60.5t-77.5 -23.5zM143 430v197h39v-197h-39zM230 431l-3 50q-1 17 -8 23.5t-21 6.5v36h4q13 0 18.5 6.5t5.5 14.5q0 11 -6.5 17t-17.5 6h-4v37q21 0 35.5 -7.5t21.5 -20.5t7 -30q0 -28 -19 -40q8 -6 13 -14t6 -24l3 -61h-35z" />
    <glyph glyph-name="macron" unicode="&#xaf;" horiz-adv-x="510" 
d="M30 712v107h450v-107h-450z" />
    <glyph glyph-name="degree" unicode="&#xb0;" horiz-adv-x="301" 
d="M150 468q-31 0 -57.5 15.5t-42 42t-15.5 58.5q0 31 15.5 57t42 41.5t57.5 15.5q32 0 58.5 -15.5t42 -41.5t15.5 -58q0 -31 -15.5 -57.5t-42 -42t-58.5 -15.5zM150 545q17 0 28 11t11 27q0 17 -11 28t-28 11q-16 0 -27 -11t-11 -28q0 -16 11 -27t27 -11z" />
    <glyph glyph-name="plusminus" unicode="&#xb1;" horiz-adv-x="427" 
d="M26 40v127h376v-127h-376zM148 248v143h-123v127h123v141h127v-141h125v-127h-125v-143h-127z" />
    <glyph glyph-name="uni00B2" unicode="&#xb2;" horiz-adv-x="223" 
d="M17 475q0 15 7.5 27t19.5 22.5t24.5 19t22.5 16.5q18 14 36 27t18 32q0 9 -4.5 15t-11 9t-14.5 3v59q47 0 68 -27t21 -62q0 -27 -12.5 -45.5t-42.5 -40.5q-15 -11 -29 -19.5t-22.5 -17t-8.5 -18.5h-72zM17 390v62h182v-62h-182zM62 614l-54 10q0 31 24.5 56t57.5 25v-59
q-5 0 -16.5 -6.5t-11.5 -25.5z" />
    <glyph glyph-name="uni00B3" unicode="&#xb3;" horiz-adv-x="232" 
d="M122 387v58q11 2 22 8.5t11 25.5q0 14 -10.5 25t-47.5 11v58q36 0 47 11t11 25q0 20 -11 26.5t-22 7.5v59q18 0 39.5 -8.5t37 -28t15.5 -53.5q0 -28 -10.5 -44.5t-20.5 -23.5q10 -6 20.5 -22.5t10.5 -45.5q0 -33 -15.5 -52.5t-37 -28t-39.5 -8.5zM97 387
q-33 0 -57.5 24.5t-24.5 55.5l54 11q0 -19 11 -26t17 -7v-58zM69 611l-54 10q0 31 24.5 56t57.5 25v-59q-6 -1 -17 -7t-11 -25z" />
    <glyph glyph-name="acute" unicode="&#xb4;" horiz-adv-x="395" 
d="M115 605l37 152h127l-73 -152h-91z" />
    <glyph glyph-name="uni00B5" unicode="&#xb5;" horiz-adv-x="503" 
d="M48 0v698h124v-372q0 -6 3.5 -12t13 -10t25.5 -4v-121q-11 0 -21 1t-21 3v-183h-124zM256 179v121q17 0 26 4t12.5 10t3.5 12v374h124v-372q0 -7 7.5 -16.5t34.5 -9.5v-121q-32 0 -57.5 8.5t-45.5 23.5q-21 -16 -46.5 -25t-58.5 -9z" />
    <glyph glyph-name="paragraph" unicode="&#xb6;" horiz-adv-x="481" 
d="M204 -5v334q-78 0 -123.5 51.5t-45.5 130.5q0 54 21 98t59 70t89 26h83v-710h-83zM344 -5v710h83v-710h-83z" />
    <glyph glyph-name="periodcentered" unicode="&#xb7;" horiz-adv-x="250" 
d="M130 287q-31 0 -53 22t-22 53q0 32 22 54t53 22q32 0 53.5 -22t21.5 -54q0 -31 -21.5 -53t-53.5 -22z" />
    <glyph glyph-name="cedilla" unicode="&#xb8;" horiz-adv-x="426" 
d="M123 -36v91q27 0 51.5 13.5t24.5 54.5h92q0 -38 -15.5 -74.5t-52 -60.5t-100.5 -24z" />
    <glyph glyph-name="uni00B9" unicode="&#xb9;" horiz-adv-x="153" 
d="M45 384v232h-34v56l34 27h64v-315h-64z" />
    <glyph glyph-name="ordmasculine" unicode="&#xba;" horiz-adv-x="230" 
d="M26 361v71h178v-71h-178zM103 451q-16 0 -31 5.5t-26 16.5t-17.5 26t-6.5 34v89q0 19 6 34.5t16.5 27t25.5 18t33 6.5v-59q-7 0 -11.5 -3.5t-7 -10.5t-2.5 -16v-83q0 -8 2.5 -14t7.5 -9.5t11 -3.5v-58zM126 451v58q6 0 11 3.5t7.5 9.5t2.5 14v83q0 9 -2.5 16t-7.5 10.5
t-11 3.5v59q18 0 32.5 -6.5t25.5 -18t17 -27t6 -34.5v-89q0 -19 -6.5 -34t-18 -26t-26 -16.5t-30.5 -5.5z" />
    <glyph glyph-name="guillemotright" unicode="&#xbb;" horiz-adv-x="457" 
d="M226 102v122l89 68l-89 60v125l211 -156v-62zM15 102v122l89 68l-89 60v125l211 -156v-62z" />
    <glyph glyph-name="onequarter" unicode="&#xbc;" horiz-adv-x="508" 
d="M0 0l432 700h76l-425 -700h-83zM236 61v70l108 188v-144l-23 -44h23v-70h-108zM372 0v351h80v-220h27v-70h-27v-61h-80zM87 350v257h-38v63l38 30h81v-350h-81z" />
    <glyph glyph-name="onehalf" unicode="&#xbd;" horiz-adv-x="582" 
d="M87 350v257h-38v63l38 30h81v-350h-81zM0 0l432 700h76l-425 -700h-83zM377 235l-71 13q0 31 16 53.5t40.5 35.5t48.5 13v-77q-8 -1 -21 -8.5t-13 -29.5zM306 101q0 15 7 27t19 21.5t27 17t30 14.5q35 16 59 27t24 33q0 14 -9.5 22.5t-23.5 9.5v77q34 0 59.5 -14
t39.5 -38t14 -55q0 -42 -23 -63t-51 -35q-14 -7 -27.5 -12.5t-24 -10.5t-17 -10t-6.5 -11h-97zM306 0v75h236v-75h-236z" />
    <glyph glyph-name="threequarters" unicode="&#xbe;" horiz-adv-x="575" 
d="M102 585l-71 13q0 31 16 53.5t40.5 35.5t48.5 13v-77q-8 -1 -21 -8.5t-13 -29.5zM164 351v77q13 0 20 9.5t7 19.5q0 8 -4 15.5t-12 12.5t-21 5h-18v71h18q13 0 21 5t12 12.5t4 15.5q0 11 -7 20t-20 9v77q20 0 44 -11t41 -33.5t17 -57.5q0 -29 -11.5 -47t-22.5 -25
q10 -6 22 -24.5t12 -48.5q0 -35 -17.5 -57.5t-41 -33.5t-43.5 -11zM136 350q-24 0 -48.5 13t-40.5 36t-16 53l71 13q0 -21 13 -29t21 -9v-77zM67 0l432 700h76l-425 -700h-83zM303 61v70l108 188v-144l-23 -44h23v-70h-108zM439 0v351h80v-220h27v-70h-27v-61h-80z" />
    <glyph glyph-name="questiondown" unicode="&#xbf;" horiz-adv-x="445" 
d="M321 526v-220q-49 0 -87 -6.5t-59.5 -27t-21.5 -62.5q0 -34 13.5 -54.5t34.5 -29.5t44 -9q22 0 40 6.5t33 17.5t25 25l82 -85q-15 -19 -38 -40.5t-59 -36.5t-89 -15q-99 0 -155 57.5t-58 154.5q-1 53 14 92t40.5 65t55 40.5t56.5 17.5v110h129zM258 714q32 0 53.5 -21.5
t21.5 -53.5q0 -31 -21.5 -53.5t-53.5 -22.5q-31 0 -53.5 22.5t-22.5 53.5q0 32 22.5 53.5t53.5 21.5z" />
    <glyph glyph-name="Agrave" unicode="&#xc0;" horiz-adv-x="528" 
d="M223 766l-73 152h127l37 -152h-91zM369 0l-20 85h-104l30 138h36l-106 477h139l165 -700h-140zM32 0l129 582h15l60 -280l-66 -302h-138z" />
    <glyph glyph-name="Aacute" unicode="&#xc1;" horiz-adv-x="528" 
d="M230 766l37 152h127l-73 -152h-91zM369 0l-20 85h-104l30 138h36l-106 477h139l165 -700h-140zM32 0l129 582h15l60 -280l-66 -302h-138z" />
    <glyph glyph-name="Acircumflex" unicode="&#xc2;" horiz-adv-x="528" 
d="M167 766l75 152h66l77 -152h-82l-28 57l-27 -57h-81zM369 0l-20 85h-104l30 138h36l-106 477h139l165 -700h-140zM32 0l129 582h15l60 -280l-66 -302h-138z" />
    <glyph glyph-name="Atilde" unicode="&#xc3;" horiz-adv-x="528" 
d="M331 748q-26 0 -47 10t-40.5 20t-43.5 10q-13 0 -29.5 -5t-36.5 -17v102q21 12 38.5 17t31.5 5q26 0 46 -10t40 -20.5t45 -10.5q17 0 36 6.5t44 21.5v-101q-25 -16 -46 -22t-38 -6zM369 0l-20 85h-104l30 138h36l-106 477h139l165 -700h-140zM32 0l129 582h15l60 -280
l-66 -302h-138z" />
    <glyph glyph-name="Adieresis" unicode="&#xc4;" horiz-adv-x="528" 
d="M361 766q-31 0 -53 22t-22 53q0 32 22 54t53 22q32 0 53.5 -22t21.5 -54q0 -31 -21.5 -53t-53.5 -22zM191 766q-31 0 -53 22t-22 53q0 32 22 54t53 22q32 0 53.5 -22t21.5 -54q0 -31 -21.5 -53t-53.5 -22zM369 0l-20 85h-104l30 138h36l-106 477h139l165 -700h-140zM32 0
l129 582h15l60 -280l-66 -302h-138z" />
    <glyph glyph-name="Aring" unicode="&#xc5;" horiz-adv-x="516" 
d="M353 0l-20 85h-94l30 138h36l-105 475q-13 13 -20 30.5t-7 36.5q0 40 28 68t68 28t68 -28t28 -68q0 -19 -6.5 -36t-19.5 -30l151 -699h-137zM26 0l129 582h15l60 -280l-66 -302h-138zM269 733q14 0 23 9.5t9 22.5q0 14 -9 23t-23 9q-13 0 -22.5 -9t-9.5 -23
q0 -13 9.5 -22.5t22.5 -9.5z" />
    <glyph glyph-name="AE" unicode="&#xc6;" horiz-adv-x="727" 
d="M26 0l180 700h495v-140h-223v-142h129v-141h-129v-136h223v-141h-364v148h-65l29 120h36v292h-17l-138 -560h-156z" />
    <glyph glyph-name="Ccedilla" unicode="&#xc7;" horiz-adv-x="494" 
d="M140 -199v91q27 0 51.5 13.5t24.5 54.5h92q0 -38 -15.5 -74.5t-52 -60.5t-100.5 -24zM235 -5q-54 0 -91.5 20t-60.5 50.5t-34 62t-11 53.5v337q0 23 11 54.5t34 61.5t60.5 50.5t91.5 20.5v-141q-17 0 -28 -6.5t-17 -15t-8.5 -15.5t-2.5 -9v-337q0 -2 2.5 -9t8.5 -15.5
t17 -14.5t28 -6v-141zM289 -5v141q7 2 15.5 5.5t16 10t10.5 14.5q4 8 4.5 18t0.5 19v6v6l138 -33q0 -53 -27 -95.5t-69.5 -67t-88.5 -24.5zM336 480v7.5v7.5q0 9 -0.5 19t-4.5 18q-3 6 -7.5 11.5t-10.5 9.5t-12.5 7t-11.5 4v141q35 0 67.5 -16t59.5 -42.5t42.5 -60.5
t15.5 -70z" />
    <glyph glyph-name="Egrave" unicode="&#xc8;" horiz-adv-x="444" 
d="M171 766l-73 152h127l37 -152h-91zM42 0v700h364v-140h-223v-142h129v-141h-129v-136h223v-141h-364z" />
    <glyph glyph-name="Eacute" unicode="&#xc9;" horiz-adv-x="444" 
d="M243 766l37 152h127l-73 -152h-91zM42 0v700h364v-140h-223v-142h129v-141h-129v-136h223v-141h-364z" />
    <glyph glyph-name="Ecircumflex" unicode="&#xca;" horiz-adv-x="444" 
d="M115 766l75 152h66l77 -152h-82l-28 57l-27 -57h-81zM42 0v700h364v-140h-223v-142h129v-141h-129v-136h223v-141h-364z" />
    <glyph glyph-name="Edieresis" unicode="&#xcb;" horiz-adv-x="444" 
d="M309 766q-31 0 -53 22t-22 53q0 32 22 54t53 22q32 0 53.5 -22t21.5 -54q0 -31 -21.5 -53t-53.5 -22zM139 766q-31 0 -53 22t-22 53q0 32 22 54t53 22q32 0 53.5 -22t21.5 -54q0 -31 -21.5 -53t-53.5 -22zM42 0v700h364v-140h-223v-142h129v-141h-129v-136h223v-141h-364
z" />
    <glyph glyph-name="Igrave" unicode="&#xcc;" horiz-adv-x="225" 
d="M67 766l-73 152h127l37 -152h-91zM42 0v700h141v-700h-141z" />
    <glyph glyph-name="Iacute" unicode="&#xcd;" horiz-adv-x="225" 
d="M67 766l37 152h127l-73 -152h-91zM42 0v700h141v-700h-141z" />
    <glyph glyph-name="Icircumflex" unicode="&#xce;" horiz-adv-x="225" 
d="M3 766l75 152h66l77 -152h-82l-28 57l-27 -57h-81zM42 0v700h141v-700h-141z" />
    <glyph glyph-name="Idieresis" unicode="&#xcf;" horiz-adv-x="225" 
d="M197 766q-31 0 -53 22t-22 53q0 32 22 54t53 22q32 0 53.5 -22t21.5 -54q0 -31 -21.5 -53t-53.5 -22zM27 766q-31 0 -53 22t-22 53q0 32 22 54t53 22q32 0 53.5 -22t21.5 -54q0 -31 -21.5 -53t-53.5 -22zM42 0v700h141v-700h-141z" />
    <glyph glyph-name="Eth" unicode="&#xd0;" horiz-adv-x="501" 
d="M83 0v292h-57v128h57v280h141v-280h56v-128h-56v-292h-141zM278 0v141q2 0 11 2t19.5 8t18 17t7.5 29v306q0 2 -2 10.5t-8 19t-17 18.5t-29 8v141q54 0 91.5 -21.5t60.5 -53.5t34 -65t11 -57v-306q0 -55 -22 -93t-54 -61t-65 -33t-56 -10z" />
    <glyph glyph-name="Ntilde" unicode="&#xd1;" horiz-adv-x="529" 
d="M321 766q-26 0 -47 10t-40.5 20t-43.5 10q-13 0 -29.5 -5t-36.5 -17v102q21 12 38.5 17t31.5 5q26 0 46 -10t40 -20.5t45 -10.5q17 0 36 6.5t44 21.5v-101q-25 -16 -46 -22t-38 -6zM420 0l-378 608v92h115l330 -532v-168h-67zM42 0v492h8l133 -214v-278h-141zM479 284
l-133 214v202h141v-416h-8z" />
    <glyph glyph-name="Ograve" unicode="&#xd2;" horiz-adv-x="524" 
d="M209 766l-73 152h127l37 -152h-91zM302 -5v142q13 0 24.5 5.5t21 15t15 22.5t5.5 29v279q0 17 -5 30.5t-13.5 24t-20.5 16t-27 5.5v141q42 0 79.5 -16t66 -43.5t45 -64t16.5 -77.5v-300q0 -44 -14.5 -82t-41.5 -66.5t-65.5 -44.5t-85.5 -16zM246 -5q-42 0 -79 16.5
t-65.5 45.5t-45 67t-16.5 80v300q0 41 16.5 77.5t45 64.5t66 43.5t79.5 15.5v-141q-15 0 -27 -5.5t-20.5 -16t-13.5 -24t-5 -30.5v-279q0 -16 5.5 -29.5t14.5 -23t20.5 -14.5t24.5 -5v-142z" />
    <glyph glyph-name="Oacute" unicode="&#xd3;" horiz-adv-x="524" 
d="M217 766l37 152h127l-73 -152h-91zM302 -5v142q13 0 24.5 5.5t21 15t15 22.5t5.5 29v279q0 17 -5 30.5t-13.5 24t-20.5 16t-27 5.5v141q42 0 79.5 -16t66 -43.5t45 -64t16.5 -77.5v-300q0 -44 -14.5 -82t-41.5 -66.5t-65.5 -44.5t-85.5 -16zM246 -5q-42 0 -79 16.5
t-65.5 45.5t-45 67t-16.5 80v300q0 41 16.5 77.5t45 64.5t66 43.5t79.5 15.5v-141q-15 0 -27 -5.5t-20.5 -16t-13.5 -24t-5 -30.5v-279q0 -16 5.5 -29.5t14.5 -23t20.5 -14.5t24.5 -5v-142z" />
    <glyph glyph-name="Ocircumflex" unicode="&#xd4;" horiz-adv-x="524" 
d="M153 766l75 152h66l77 -152h-82l-28 57l-27 -57h-81zM302 -5v142q13 0 24.5 5.5t21 15t15 22.5t5.5 29v279q0 17 -5 30.5t-13.5 24t-20.5 16t-27 5.5v141q42 0 79.5 -16t66 -43.5t45 -64t16.5 -77.5v-300q0 -44 -14.5 -82t-41.5 -66.5t-65.5 -44.5t-85.5 -16zM246 -5
q-42 0 -79 16.5t-65.5 45.5t-45 67t-16.5 80v300q0 41 16.5 77.5t45 64.5t66 43.5t79.5 15.5v-141q-15 0 -27 -5.5t-20.5 -16t-13.5 -24t-5 -30.5v-279q0 -16 5.5 -29.5t14.5 -23t20.5 -14.5t24.5 -5v-142z" />
    <glyph glyph-name="Otilde" unicode="&#xd5;" horiz-adv-x="524" 
d="M318 748q-26 0 -47 10t-40.5 20t-43.5 10q-13 0 -29.5 -5t-36.5 -17v102q21 12 38.5 17t31.5 5q26 0 46 -10t40 -20.5t45 -10.5q17 0 36 6.5t44 21.5v-101q-25 -16 -46 -22t-38 -6zM302 -5v142q13 0 24.5 5.5t21 15t15 22.5t5.5 29v279q0 17 -5 30.5t-13.5 24t-20.5 16
t-27 5.5v141q42 0 79.5 -16t66 -43.5t45 -64t16.5 -77.5v-300q0 -44 -14.5 -82t-41.5 -66.5t-65.5 -44.5t-85.5 -16zM246 -5q-42 0 -79 16.5t-65.5 45.5t-45 67t-16.5 80v300q0 41 16.5 77.5t45 64.5t66 43.5t79.5 15.5v-141q-15 0 -27 -5.5t-20.5 -16t-13.5 -24t-5 -30.5
v-279q0 -16 5.5 -29.5t14.5 -23t20.5 -14.5t24.5 -5v-142z" />
    <glyph glyph-name="Odieresis" unicode="&#xd6;" horiz-adv-x="524" 
d="M347 766q-31 0 -53 22t-22 53q0 32 22 54t53 22q32 0 53.5 -22t21.5 -54q0 -31 -21.5 -53t-53.5 -22zM177 766q-31 0 -53 22t-22 53q0 32 22 54t53 22q32 0 53.5 -22t21.5 -54q0 -31 -21.5 -53t-53.5 -22zM302 -5v142q13 0 24.5 5.5t21 15t15 22.5t5.5 29v279
q0 17 -5 30.5t-13.5 24t-20.5 16t-27 5.5v141q42 0 79.5 -16t66 -43.5t45 -64t16.5 -77.5v-300q0 -44 -14.5 -82t-41.5 -66.5t-65.5 -44.5t-85.5 -16zM246 -5q-42 0 -79 16.5t-65.5 45.5t-45 67t-16.5 80v300q0 41 16.5 77.5t45 64.5t66 43.5t79.5 15.5v-141q-15 0 -27 -5.5
t-20.5 -16t-13.5 -24t-5 -30.5v-279q0 -16 5.5 -29.5t14.5 -23t20.5 -14.5t24.5 -5v-142z" />
    <glyph glyph-name="multiply" unicode="&#xd7;" horiz-adv-x="697" 
d="M190 168l-89 89l159 160l-160 161l89 89l160 -160l159 159l89 -89l-159 -159l159 -159l-90 -89l-158 158z" />
    <glyph glyph-name="Oslash" unicode="&#xd8;" horiz-adv-x="662" 
d="M304 -5q-21 0 -53 10t-63 32t-53 57l-57 -51l-78 88l108 97v296q0 23 12 53.5t37 59.5t62 48.5t86 19.5v-141q-17 0 -28 -7t-17 -17.5t-8.5 -20.5t-2.5 -17v-146l166 149q0 9 -4 23t-16 25t-36 11v141q41 0 73.5 -14t56.5 -36t39 -48l56 51l78 -88l-106 -96v-279
q0 -54 -22 -92t-54 -62t-65 -35t-56 -11v142q2 0 10.5 2.5t19 9t18.5 18t8 28.5v152l-166 -150q0 -23 12.5 -36.5t26 -18.5t16.5 -5v-142z" />
    <glyph glyph-name="Ugrave" unicode="&#xd9;" horiz-adv-x="512" 
d="M203 766l-73 152h127l37 -152h-91zM229 -5q-22 0 -55.5 11t-65.5 34t-54 61t-22 92v507h142v-507q0 -17 7.5 -28t18 -17t19 -8.5t10.5 -2.5v-142zM283 -5v142q2 0 10.5 2.5t19 8.5t18.5 17t8 28v507h140v-507q0 -54 -21.5 -92t-53.5 -61.5t-65 -34t-56 -10.5z" />
    <glyph glyph-name="Uacute" unicode="&#xda;" horiz-adv-x="512" 
d="M210 766l37 152h127l-73 -152h-91zM229 -5q-22 0 -55.5 11t-65.5 34t-54 61t-22 92v507h142v-507q0 -17 7.5 -28t18 -17t19 -8.5t10.5 -2.5v-142zM283 -5v142q2 0 10.5 2.5t19 8.5t18.5 17t8 28v507h140v-507q0 -54 -21.5 -92t-53.5 -61.5t-65 -34t-56 -10.5z" />
    <glyph glyph-name="Ucircumflex" unicode="&#xdb;" horiz-adv-x="512" 
d="M147 766l75 152h66l77 -152h-82l-28 57l-27 -57h-81zM229 -5q-22 0 -55.5 11t-65.5 34t-54 61t-22 92v507h142v-507q0 -17 7.5 -28t18 -17t19 -8.5t10.5 -2.5v-142zM283 -5v142q2 0 10.5 2.5t19 8.5t18.5 17t8 28v507h140v-507q0 -54 -21.5 -92t-53.5 -61.5t-65 -34
t-56 -10.5z" />
    <glyph glyph-name="Udieresis" unicode="&#xdc;" horiz-adv-x="512" 
d="M341 766q-31 0 -53 22t-22 53q0 32 22 54t53 22q32 0 53.5 -22t21.5 -54q0 -31 -21.5 -53t-53.5 -22zM171 766q-31 0 -53 22t-22 53q0 32 22 54t53 22q32 0 53.5 -22t21.5 -54q0 -31 -21.5 -53t-53.5 -22zM229 -5q-22 0 -55.5 11t-65.5 34t-54 61t-22 92v507h142v-507
q0 -17 7.5 -28t18 -17t19 -8.5t10.5 -2.5v-142zM283 -5v142q2 0 10.5 2.5t19 8.5t18.5 17t8 28v507h140v-507q0 -54 -21.5 -92t-53.5 -61.5t-65 -34t-56 -10.5z" />
    <glyph glyph-name="Yacute" unicode="&#xdd;" horiz-adv-x="451" 
d="M180 766l37 152h127l-73 -152h-91zM143 0v252l-131 448h147l130 -447v-253h-146zM321 331l-66 234l39 135h145l-109 -369h-9z" />
    <glyph glyph-name="Thorn" unicode="&#xde;" horiz-adv-x="474" 
d="M26 0v700h141v-700h-141zM221 208v139h33q3 0 11 1t17 6t16 15.5t7 29.5q0 20 -7 30.5t-16.5 15t-17.5 5.5t-10 1h-33v139q91 0 140 -23t68 -65.5t19 -99.5q0 -71 -24 -114t-74 -61.5t-129 -18.5z" />
    <glyph glyph-name="germandbls" unicode="&#xdf;" horiz-adv-x="522" 
d="M27 0v457q0 18 0.5 48.5t8 64.5t27 65t58 50.5t101.5 19.5q55 0 90 -15t54.5 -38.5t28 -49.5t10 -48.5t1.5 -35.5v-113l-64 1q-17 -3 -25 -12.5t-10 -19t-2 -13.5q0 -6 4.5 -15.5t23 -21t58.5 -25.5q25 -8 49 -25t40 -44.5t16 -70.5q0 -50 -23 -86t-61 -54.5t-85 -18.5
h-128v110h128q8 0 20 3.5t22 13.5t10 28q0 21 -14.5 31.5t-37.5 19t-51 22.5q-24 12 -43 29.5t-30.5 43.5t-11.5 63q0 41 14 69t37.5 45.5t51.5 28.5v12q0 20 -6 33t-16 20.5t-22 10.5t-25 3q-19 0 -32.5 -6t-21.5 -17t-12 -27.5t-4 -37.5v-498h-128z" />
    <glyph glyph-name="agrave" unicode="&#xe0;" horiz-adv-x="472" 
d="M175 632l-73 152h127l37 -152h-91zM194 0q-53 0 -91 20t-58 50.5t-20 61.5v51q0 10 2.5 27.5t13.5 37.5t38 34q16 9 42.5 18t55.5 18.5t55 20t42.5 22t16.5 24.5v23q0 11 -4.5 19.5t-14 14t-25.5 5.5v123q58 0 96 -25.5t57 -61.5t19 -66v-261q0 -6 4.5 -19t23.5 -13v-124
q-32 0 -56.5 8.5t-41.5 23.5q-19 -16 -44 -24t-57 -8v123q18 0 27 7t12.5 16.5t3.5 16.5v82q-16 -9 -37 -17t-43 -13.5t-38.5 -10.5t-23.5 -8q-13 -6 -13 -23v-14q0 -12 4.5 -20t17 -12t36.5 -4v-123zM148 383l-116 44q0 41 24.5 73t62 51t76.5 19v-123q-15 0 -25.5 -7
t-16 -21t-5.5 -36z" />
    <glyph glyph-name="aacute" unicode="&#xe1;" horiz-adv-x="472" 
d="M175 632l37 152h127l-73 -152h-91zM194 0q-53 0 -91 20t-58 50.5t-20 61.5v51q0 10 2.5 27.5t13.5 37.5t38 34q16 9 42.5 18t55.5 18.5t55 20t42.5 22t16.5 24.5v23q0 11 -4.5 19.5t-14 14t-25.5 5.5v123q58 0 96 -25.5t57 -61.5t19 -66v-261q0 -6 4.5 -19t23.5 -13v-124
q-32 0 -56.5 8.5t-41.5 23.5q-19 -16 -44 -24t-57 -8v123q18 0 27 7t12.5 16.5t3.5 16.5v82q-16 -9 -37 -17t-43 -13.5t-38.5 -10.5t-23.5 -8q-13 -6 -13 -23v-14q0 -12 4.5 -20t17 -12t36.5 -4v-123zM148 383l-116 44q0 41 24.5 73t62 51t76.5 19v-123q-15 0 -25.5 -7
t-16 -21t-5.5 -36z" />
    <glyph glyph-name="acircumflex" unicode="&#xe2;" horiz-adv-x="472" 
d="M112 632l75 152h66l77 -152h-82l-28 57l-27 -57h-81zM194 0q-53 0 -91 20t-58 50.5t-20 61.5v51q0 10 2.5 27.5t13.5 37.5t38 34q16 9 42.5 18t55.5 18.5t55 20t42.5 22t16.5 24.5v23q0 11 -4.5 19.5t-14 14t-25.5 5.5v123q58 0 96 -25.5t57 -61.5t19 -66v-261
q0 -6 4.5 -19t23.5 -13v-124q-32 0 -56.5 8.5t-41.5 23.5q-19 -16 -44 -24t-57 -8v123q18 0 27 7t12.5 16.5t3.5 16.5v82q-16 -9 -37 -17t-43 -13.5t-38.5 -10.5t-23.5 -8q-13 -6 -13 -23v-14q0 -12 4.5 -20t17 -12t36.5 -4v-123zM148 383l-116 44q0 41 24.5 73t62 51
t76.5 19v-123q-15 0 -25.5 -7t-16 -21t-5.5 -36z" />
    <glyph glyph-name="atilde" unicode="&#xe3;" horiz-adv-x="472" 
d="M277 632q-26 0 -47 10t-40.5 20t-43.5 10q-13 0 -29.5 -5t-36.5 -17v102q21 12 38.5 17t31.5 5q26 0 46 -10t40 -20.5t45 -10.5q17 0 36 6.5t44 21.5v-101q-25 -16 -46 -22t-38 -6zM194 0q-53 0 -91 20t-58 50.5t-20 61.5v51q0 10 2.5 27.5t13.5 37.5t38 34q16 9 42.5 18
t55.5 18.5t55 20t42.5 22t16.5 24.5v23q0 11 -4.5 19.5t-14 14t-25.5 5.5v123q58 0 96 -25.5t57 -61.5t19 -66v-261q0 -6 4.5 -19t23.5 -13v-124q-32 0 -56.5 8.5t-41.5 23.5q-19 -16 -44 -24t-57 -8v123q18 0 27 7t12.5 16.5t3.5 16.5v82q-16 -9 -37 -17t-43 -13.5
t-38.5 -10.5t-23.5 -8q-13 -6 -13 -23v-14q0 -12 4.5 -20t17 -12t36.5 -4v-123zM148 383l-116 44q0 41 24.5 73t62 51t76.5 19v-123q-15 0 -25.5 -7t-16 -21t-5.5 -36z" />
    <glyph glyph-name="adieresis" unicode="&#xe4;" horiz-adv-x="472" 
d="M306 632q-31 0 -53 22t-22 53q0 32 22 54t53 22q32 0 53.5 -22t21.5 -54q0 -31 -21.5 -53t-53.5 -22zM136 632q-31 0 -53 22t-22 53q0 32 22 54t53 22q32 0 53.5 -22t21.5 -54q0 -31 -21.5 -53t-53.5 -22zM194 0q-53 0 -91 20t-58 50.5t-20 61.5v51q0 10 2.5 27.5
t13.5 37.5t38 34q16 9 42.5 18t55.5 18.5t55 20t42.5 22t16.5 24.5v23q0 11 -4.5 19.5t-14 14t-25.5 5.5v123q58 0 96 -25.5t57 -61.5t19 -66v-261q0 -6 4.5 -19t23.5 -13v-124q-32 0 -56.5 8.5t-41.5 23.5q-19 -16 -44 -24t-57 -8v123q18 0 27 7t12.5 16.5t3.5 16.5v82
q-16 -9 -37 -17t-43 -13.5t-38.5 -10.5t-23.5 -8q-13 -6 -13 -23v-14q0 -12 4.5 -20t17 -12t36.5 -4v-123zM148 383l-116 44q0 41 24.5 73t62 51t76.5 19v-123q-15 0 -25.5 -7t-16 -21t-5.5 -36z" />
    <glyph glyph-name="aring" unicode="&#xe5;" horiz-adv-x="472" 
d="M221 632q-40 0 -68 28t-28 68t28 68t68 28t68 -28t28 -68t-28 -68t-68 -28zM221 696q14 0 23 9.5t9 22.5q0 14 -9 23t-23 9q-13 0 -22.5 -9t-9.5 -23q0 -13 9.5 -22.5t22.5 -9.5zM194 0q-53 0 -91 20t-58 50.5t-20 61.5v51q0 10 2.5 27.5t13.5 37.5t38 34q16 9 42.5 18
t55.5 18.5t55 20t42.5 22t16.5 24.5v23q0 11 -4.5 19.5t-14 14t-25.5 5.5v123q58 0 96 -25.5t57 -61.5t19 -66v-261q0 -6 4.5 -19t23.5 -13v-124q-32 0 -56.5 8.5t-41.5 23.5q-19 -16 -44 -24t-57 -8v123q18 0 27 7t12.5 16.5t3.5 16.5v82q-16 -9 -37 -17t-43 -13.5
t-38.5 -10.5t-23.5 -8q-13 -6 -13 -23v-14q0 -12 4.5 -20t17 -12t36.5 -4v-123zM148 383l-116 44q0 41 24.5 73t62 51t76.5 19v-123q-15 0 -25.5 -7t-16 -21t-5.5 -36z" />
    <glyph glyph-name="ae" unicode="&#xe6;" horiz-adv-x="666" 
d="M451 0q-40 0 -73.5 10t-56.5 30q-14 -19 -38.5 -29t-53.5 -10v112q16 0 24.5 8t11.5 17t3 11v78q-14 -8 -32.5 -13.5t-37.5 -10.5t-35 -10.5t-26 -12.5t-10 -18v-13q0 -14 6 -22t18 -11t29 -3v-112q-48 0 -82.5 15.5t-53 40.5t-18.5 53v70q0 27 17.5 46t45 32t58.5 23
t58.5 19.5t45 21.5t17.5 29v22q0 11 -8 19.5t-21 13.5t-28 5q-17 0 -34 -6.5t-28 -20t-11 -35.5l-95 26q0 40 22 72.5t61 52t88 19.5q33 0 63 -9.5t52 -26.5q20 15 44.5 24t55.5 9v-115q-14 0 -24 -5.5t-15.5 -14.5t-5.5 -18v-39h141v35q0 14 -7 23.5t-18 14t-22 4.5v115
q37 0 74 -19t62 -50t25 -69v-170h-255v-49q0 -16 8.5 -27.5t25.5 -17.5t43 -6q27 0 50.5 9.5t29.5 39.5l99 -37q-15 -60 -66 -90t-123 -30z" />
    <glyph glyph-name="ccedilla" unicode="&#xe7;" horiz-adv-x="456" 
d="M117 -199v91q27 0 51.5 13.5t24.5 54.5h92q0 -38 -15.5 -74.5t-52 -60.5t-100.5 -24zM216 0q-49 0 -82.5 16.5t-54.5 41.5t-30.5 51.5t-9.5 45.5v262q0 20 10 46t31.5 50.5t55 40.5t79.5 16v-128q-17 0 -27.5 -4.5t-14.5 -10.5t-4 -12v-260q0 -10 5 -16t15.5 -8.5
t26.5 -3.5v-127zM261 -1v129q18 0 29.5 3.5t17.5 13t6 27.5v33l122 -47q1 -43 -24.5 -79.5t-66 -58.5t-84.5 -21zM302 365v33q0 17 -5 26t-14.5 13t-21.5 4v129q45 0 82 -21.5t59 -57.5t22 -79z" />
    <glyph glyph-name="egrave" unicode="&#xe8;" horiz-adv-x="485" 
d="M197 629l-73 152h127l37 -152h-91zM216 0q-44 0 -77.5 16.5t-55.5 41.5t-33 51t-11 46v262q0 20 11 46t33.5 50.5t55.5 40.5t76 16v-126q-13 0 -22.5 -6t-15 -14t-5.5 -16v-50h149v49q0 16 -8 24t-20 10.5t-24 2.5v126q41 0 81.5 -19t68 -53t27.5 -80v-189h-274v-74
q0 -7 4 -14.5t13.5 -12.5t26.5 -5v-123zM269 0v122q21 0 35 7t22 18.5t12 25.5l109 -41q-7 -32 -31 -62.5t-61.5 -50t-85.5 -19.5z" />
    <glyph glyph-name="eacute" unicode="&#xe9;" horiz-adv-x="485" 
d="M197 629l37 152h127l-73 -152h-91zM216 0q-44 0 -77.5 16.5t-55.5 41.5t-33 51t-11 46v262q0 20 11 46t33.5 50.5t55.5 40.5t76 16v-126q-13 0 -22.5 -6t-15 -14t-5.5 -16v-50h149v49q0 16 -8 24t-20 10.5t-24 2.5v126q41 0 81.5 -19t68 -53t27.5 -80v-189h-274v-74
q0 -7 4 -14.5t13.5 -12.5t26.5 -5v-123zM269 0v122q21 0 35 7t22 18.5t12 25.5l109 -41q-7 -32 -31 -62.5t-61.5 -50t-85.5 -19.5z" />
    <glyph glyph-name="ecircumflex" unicode="&#xea;" horiz-adv-x="485" 
d="M133 629l75 152h66l77 -152h-82l-28 57l-27 -57h-81zM216 0q-44 0 -77.5 16.5t-55.5 41.5t-33 51t-11 46v262q0 20 11 46t33.5 50.5t55.5 40.5t76 16v-126q-13 0 -22.5 -6t-15 -14t-5.5 -16v-50h149v49q0 16 -8 24t-20 10.5t-24 2.5v126q41 0 81.5 -19t68 -53t27.5 -80
v-189h-274v-74q0 -7 4 -14.5t13.5 -12.5t26.5 -5v-123zM269 0v122q21 0 35 7t22 18.5t12 25.5l109 -41q-7 -32 -31 -62.5t-61.5 -50t-85.5 -19.5z" />
    <glyph glyph-name="edieresis" unicode="&#xeb;" horiz-adv-x="485" 
d="M327 629q-31 0 -53 22t-22 53q0 32 22 54t53 22q32 0 53.5 -22t21.5 -54q0 -31 -21.5 -53t-53.5 -22zM157 629q-31 0 -53 22t-22 53q0 32 22 54t53 22q32 0 53.5 -22t21.5 -54q0 -31 -21.5 -53t-53.5 -22zM216 0q-44 0 -77.5 16.5t-55.5 41.5t-33 51t-11 46v262
q0 20 11 46t33.5 50.5t55.5 40.5t76 16v-126q-13 0 -22.5 -6t-15 -14t-5.5 -16v-50h149v49q0 16 -8 24t-20 10.5t-24 2.5v126q41 0 81.5 -19t68 -53t27.5 -80v-189h-274v-74q0 -7 4 -14.5t13.5 -12.5t26.5 -5v-123zM269 0v122q21 0 35 7t22 18.5t12 25.5l109 -41
q-7 -32 -31 -62.5t-61.5 -50t-85.5 -19.5z" />
    <glyph glyph-name="igrave" unicode="&#xec;" horiz-adv-x="174" 
d="M41 629l-73 152h127l37 -152h-91zM26 0v516h122v-516h-122z" />
    <glyph glyph-name="iacute" unicode="&#xed;" horiz-adv-x="174" 
d="M41 629l37 152h127l-73 -152h-91zM26 0v516h122v-516h-122z" />
    <glyph glyph-name="icircumflex" unicode="&#xee;" horiz-adv-x="174" 
d="M-22 629l75 152h66l77 -152h-82l-28 57l-27 -57h-81zM26 0v516h122v-516h-122z" />
    <glyph glyph-name="idieresis" unicode="&#xef;" horiz-adv-x="174" 
d="M172 629q-31 0 -53 22t-22 53q0 32 22 54t53 22q32 0 53.5 -22t21.5 -54q0 -31 -21.5 -53t-53.5 -22zM2 629q-31 0 -53 22t-22 53q0 32 22 54t53 22q32 0 53.5 -22t21.5 -54q0 -31 -21.5 -53t-53.5 -22zM26 0v516h122v-516h-122z" />
    <glyph glyph-name="eth" unicode="&#xf0;" horiz-adv-x="420" 
d="M233 -1v118q17 0 26 6t12.5 14t3.5 15v211q0 11 -3.5 18.5t-12.5 12t-26 4.5v118q11 0 20.5 -0.5t19.5 -3.5q-1 14 -2.5 25t-3.5 21l-57 -17l-18 57l50 16q-9 10 -21 18t-29 15v67q44 -8 78.5 -26t59.5 -47l50 16l18 -58l-34 -11q14 -30 21 -66t7 -80v-301
q0 -18 -9.5 -42.5t-29.5 -47t-49.5 -37.5t-70.5 -15zM192 -1q-42 0 -73 15t-51 38t-30 47t-10 42v235q0 18 10 42t30.5 46.5t51.5 37t72 14.5v-118q-18 0 -27.5 -6t-13 -14t-3.5 -15v-209q0 -11 4 -19.5t14 -13t26 -4.5v-118z" />
    <glyph glyph-name="ntilde" unicode="&#xf1;" horiz-adv-x="487" 
d="M300 632q-26 0 -47 10t-40.5 20t-43.5 10q-13 0 -29.5 -5t-36.5 -17v102q21 12 38.5 17t31.5 5q26 0 46 -10t40 -20.5t45 -10.5q17 0 36 6.5t44 21.5v-101q-25 -16 -46 -22t-38 -6zM38 379q0 42 13 77t37 60.5t57 39.5t73 14v-130q-15 0 -25.5 -8t-16.5 -23t-6 -36v-373
h-132v379zM316 373q0 21 -5.5 36t-16.5 23t-26 8v130q40 0 73 -14t57 -39.5t37 -60.5t13 -77v-379h-132v373z" />
    <glyph glyph-name="ograve" unicode="&#xf2;" horiz-adv-x="476" 
d="M195 629l-73 152h127l37 -152h-91zM218 -1q-36 0 -68.5 13t-57.5 37t-39.5 58t-14.5 76v196q0 42 13 77t37 60.5t57 39.5t73 14v-130q-15 0 -25.5 -8t-16.5 -23t-6 -36v-185q0 -17 6 -30.5t17 -21t25 -7.5v-130zM268 -1v130q14 0 25 7.5t17 21t6 30.5v185q0 21 -5.5 36
t-16.5 23t-26 8v130q40 0 73 -14t57 -39.5t37 -60.5t13 -77v-196q0 -42 -14.5 -76t-39.5 -58t-57.5 -37t-68.5 -13z" />
    <glyph glyph-name="oacute" unicode="&#xf3;" horiz-adv-x="476" 
d="M195 629l37 152h127l-73 -152h-91zM218 -1q-36 0 -68.5 13t-57.5 37t-39.5 58t-14.5 76v196q0 42 13 77t37 60.5t57 39.5t73 14v-130q-15 0 -25.5 -8t-16.5 -23t-6 -36v-185q0 -17 6 -30.5t17 -21t25 -7.5v-130zM268 -1v130q14 0 25 7.5t17 21t6 30.5v185q0 21 -5.5 36
t-16.5 23t-26 8v130q40 0 73 -14t57 -39.5t37 -60.5t13 -77v-196q0 -42 -14.5 -76t-39.5 -58t-57.5 -37t-68.5 -13z" />
    <glyph glyph-name="ocircumflex" unicode="&#xf4;" horiz-adv-x="476" 
d="M132 629l75 152h66l77 -152h-82l-28 57l-27 -57h-81zM218 -1q-36 0 -68.5 13t-57.5 37t-39.5 58t-14.5 76v196q0 42 13 77t37 60.5t57 39.5t73 14v-130q-15 0 -25.5 -8t-16.5 -23t-6 -36v-185q0 -17 6 -30.5t17 -21t25 -7.5v-130zM268 -1v130q14 0 25 7.5t17 21t6 30.5
v185q0 21 -5.5 36t-16.5 23t-26 8v130q40 0 73 -14t57 -39.5t37 -60.5t13 -77v-196q0 -42 -14.5 -76t-39.5 -58t-57.5 -37t-68.5 -13z" />
    <glyph glyph-name="otilde" unicode="&#xf5;" horiz-adv-x="476" 
d="M297 629q-26 0 -47 10t-40.5 20t-43.5 10q-13 0 -29.5 -5t-36.5 -17v102q21 12 38.5 17t31.5 5q26 0 46 -10t40 -20.5t45 -10.5q17 0 36 6.5t44 21.5v-101q-25 -16 -46 -22t-38 -6zM218 -1q-36 0 -68.5 13t-57.5 37t-39.5 58t-14.5 76v196q0 42 13 77t37 60.5t57 39.5
t73 14v-130q-15 0 -25.5 -8t-16.5 -23t-6 -36v-185q0 -17 6 -30.5t17 -21t25 -7.5v-130zM268 -1v130q14 0 25 7.5t17 21t6 30.5v185q0 21 -5.5 36t-16.5 23t-26 8v130q40 0 73 -14t57 -39.5t37 -60.5t13 -77v-196q0 -42 -14.5 -76t-39.5 -58t-57.5 -37t-68.5 -13z" />
    <glyph glyph-name="odieresis" unicode="&#xf6;" horiz-adv-x="476" 
d="M326 629q-31 0 -53 22t-22 53q0 32 22 54t53 22q32 0 53.5 -22t21.5 -54q0 -31 -21.5 -53t-53.5 -22zM156 629q-31 0 -53 22t-22 53q0 32 22 54t53 22q32 0 53.5 -22t21.5 -54q0 -31 -21.5 -53t-53.5 -22zM218 -1q-36 0 -68.5 13t-57.5 37t-39.5 58t-14.5 76v196
q0 42 13 77t37 60.5t57 39.5t73 14v-130q-15 0 -25.5 -8t-16.5 -23t-6 -36v-185q0 -17 6 -30.5t17 -21t25 -7.5v-130zM268 -1v130q14 0 25 7.5t17 21t6 30.5v185q0 21 -5.5 36t-16.5 23t-26 8v130q40 0 73 -14t57 -39.5t37 -60.5t13 -77v-196q0 -42 -14.5 -76t-39.5 -58
t-57.5 -37t-68.5 -13z" />
    <glyph glyph-name="divide" unicode="&#xf7;" horiz-adv-x="650" 
d="M68 228v127h450v-127h-450zM302 410q-32 0 -54 22t-22 53q0 32 22 54t53 22q32 0 53.5 -22t21.5 -53q0 -32 -21.5 -54t-52.5 -22zM302 57q-32 0 -54 22t-22 53q0 32 22 54t53 22q32 0 53.5 -22t21.5 -53q0 -32 -21.5 -54t-52.5 -22z" />
    <glyph glyph-name="oslash" unicode="&#xf8;" horiz-adv-x="498" 
d="M231 -1q-48 0 -80.5 18.5t-52.5 45.5l-45 -41l-53 60l67 61v9.5v8.5v215q0 18 10 42t30.5 46.5t51.5 37t72 14.5v-118q-18 0 -27.5 -6t-13 -14t-3.5 -15v-110l127 117q-1 13 -10.5 20.5t-31.5 7.5v118q47 0 79 -18.5t51 -46.5l43 39l53 -60l-67 -61v-8.5v-9.5v-210
q0 -18 -9.5 -42.5t-29.5 -47t-49.5 -37.5t-70.5 -15v118q17 0 26 6t12.5 14t3.5 15v109l-126 -116q2 -13 12 -20.5t31 -7.5v-118z" />
    <glyph glyph-name="ugrave" unicode="&#xf9;" horiz-adv-x="487" 
d="M198 629l-73 152h127l37 -152h-91zM266 -5v133q18 0 28.5 6t14.5 15t4 18v403h136v-419q0 -20 -11.5 -46.5t-34.5 -51.5t-57.5 -41.5t-79.5 -16.5zM220 -5q-45 0 -79.5 16t-57 41t-34 51.5t-11.5 47.5v419h136v-403q0 -9 4 -18t14 -15t28 -6v-133z" />
    <glyph glyph-name="uacute" unicode="&#xfa;" horiz-adv-x="487" 
d="M263 629l37 152h127l-73 -152h-91zM266 -5v133q18 0 28.5 6t14.5 15t4 18v403h136v-419q0 -20 -11.5 -46.5t-34.5 -51.5t-57.5 -41.5t-79.5 -16.5zM220 -5q-45 0 -79.5 16t-57 41t-34 51.5t-11.5 47.5v419h136v-403q0 -9 4 -18t14 -15t28 -6v-133z" />
    <glyph glyph-name="ucircumflex" unicode="&#xfb;" horiz-adv-x="487" 
d="M134 629l75 152h66l77 -152h-82l-28 57l-27 -57h-81zM266 -5v133q18 0 28.5 6t14.5 15t4 18v403h136v-419q0 -20 -11.5 -46.5t-34.5 -51.5t-57.5 -41.5t-79.5 -16.5zM220 -5q-45 0 -79.5 16t-57 41t-34 51.5t-11.5 47.5v419h136v-403q0 -9 4 -18t14 -15t28 -6v-133z" />
    <glyph glyph-name="udieresis" unicode="&#xfc;" horiz-adv-x="487" 
d="M328 629q-31 0 -53 22t-22 53q0 32 22 54t53 22q32 0 53.5 -22t21.5 -54q0 -31 -21.5 -53t-53.5 -22zM158 629q-31 0 -53 22t-22 53q0 32 22 54t53 22q32 0 53.5 -22t21.5 -54q0 -31 -21.5 -53t-53.5 -22zM266 -5v133q18 0 28.5 6t14.5 15t4 18v403h136v-419
q0 -20 -11.5 -46.5t-34.5 -51.5t-57.5 -41.5t-79.5 -16.5zM220 -5q-45 0 -79.5 16t-57 41t-34 51.5t-11.5 47.5v419h136v-403q0 -9 4 -18t14 -15t28 -6v-133z" />
    <glyph glyph-name="yacute" unicode="&#xfd;" horiz-adv-x="429" 
d="M234 637l37 152h127l-73 -152h-91zM37 -200l100 328l-130 442h144l133 -444l-109 -326h-138zM301 232l-60 204l42 134h144l-113 -338h-13z" />
    <glyph glyph-name="thorn" unicode="&#xfe;" horiz-adv-x="422" 
d="M30 -182v882h125v-882h-125zM203 0v119h31q19 0 27.5 4t11.5 10t3 10v232q0 10 -12.5 18t-35.5 8h-32v118h32q54 0 91.5 -23.5t57 -56.5t19.5 -61v-239q0 -26 -17.5 -59t-53.5 -56.5t-93 -23.5h-29z" />
    <glyph glyph-name="ydieresis" unicode="&#xff;" horiz-adv-x="429" 
d="M300 637q-31 0 -53 22t-22 53q0 32 22 54t53 22q32 0 53.5 -22t21.5 -54q0 -31 -21.5 -53t-53.5 -22zM130 637q-31 0 -53 22t-22 53q0 32 22 54t53 22q32 0 53.5 -22t21.5 -54q0 -31 -21.5 -53t-53.5 -22zM37 -200l100 328l-130 442h144l133 -444l-109 -326h-138z
M301 232l-60 204l42 134h144l-113 -338h-13z" />
    <glyph glyph-name="Amacron" unicode="&#x100;" horiz-adv-x="528" 
d="M118 766v82h316v-82h-316zM369 0l-20 85h-104l30 138h36l-106 477h139l165 -700h-140zM32 0l129 582h15l60 -280l-66 -302h-138z" />
    <glyph glyph-name="amacron" unicode="&#x101;" horiz-adv-x="472" 
d="M63 632v82h316v-82h-316zM194 0q-53 0 -91 20t-58 50.5t-20 61.5v51q0 10 2.5 27.5t13.5 37.5t38 34q16 9 42.5 18t55.5 18.5t55 20t42.5 22t16.5 24.5v23q0 11 -4.5 19.5t-14 14t-25.5 5.5v123q58 0 96 -25.5t57 -61.5t19 -66v-261q0 -6 4.5 -19t23.5 -13v-124
q-32 0 -56.5 8.5t-41.5 23.5q-19 -16 -44 -24t-57 -8v123q18 0 27 7t12.5 16.5t3.5 16.5v82q-16 -9 -37 -17t-43 -13.5t-38.5 -10.5t-23.5 -8q-13 -6 -13 -23v-14q0 -12 4.5 -20t17 -12t36.5 -4v-123zM148 383l-116 44q0 41 24.5 73t62 51t76.5 19v-123q-15 0 -25.5 -7
t-16 -21t-5.5 -36z" />
    <glyph glyph-name="Abreve" unicode="&#x102;" horiz-adv-x="528" 
d="M276 766q-26 0 -48 13t-35 35t-13 48h64q0 -13 9.5 -22.5t22.5 -9.5q14 0 23 9.5t9 22.5h64q0 -26 -13 -48t-34.5 -35t-48.5 -13zM369 0l-20 85h-104l30 138h36l-106 477h139l165 -700h-140zM32 0l129 582h15l60 -280l-66 -302h-138z" />
    <glyph glyph-name="abreve" unicode="&#x103;" horiz-adv-x="472" 
d="M221 632q-26 0 -48 13t-35 35t-13 48h64q0 -13 9.5 -22.5t22.5 -9.5q14 0 23 9.5t9 22.5h64q0 -26 -13 -48t-34.5 -35t-48.5 -13zM194 0q-53 0 -91 20t-58 50.5t-20 61.5v51q0 10 2.5 27.5t13.5 37.5t38 34q16 9 42.5 18t55.5 18.5t55 20t42.5 22t16.5 24.5v23
q0 11 -4.5 19.5t-14 14t-25.5 5.5v123q58 0 96 -25.5t57 -61.5t19 -66v-261q0 -6 4.5 -19t23.5 -13v-124q-32 0 -56.5 8.5t-41.5 23.5q-19 -16 -44 -24t-57 -8v123q18 0 27 7t12.5 16.5t3.5 16.5v82q-16 -9 -37 -17t-43 -13.5t-38.5 -10.5t-23.5 -8q-13 -6 -13 -23v-14
q0 -12 4.5 -20t17 -12t36.5 -4v-123zM148 383l-116 44q0 41 24.5 73t62 51t76.5 19v-123q-15 0 -25.5 -7t-16 -21t-5.5 -36z" />
    <glyph glyph-name="Aogonek" unicode="&#x104;" horiz-adv-x="528" 
d="M562 -199q-63 0 -100 24t-52.5 60.5t-15.5 74.5h92q0 -41 24.5 -54.5t51.5 -13.5v-91zM369 0l-20 85h-104l30 138h36l-106 477h139l165 -700h-140zM32 0l129 582h15l60 -280l-66 -302h-138z" />
    <glyph glyph-name="aogonek" unicode="&#x105;" horiz-adv-x="472" 
d="M477 -200q-63 0 -100 24t-52.5 60.5t-15.5 74.5h92q0 -41 24.5 -54.5t51.5 -13.5v-91zM194 0q-53 0 -91 20t-58 50.5t-20 61.5v51q0 10 2.5 27.5t13.5 37.5t38 34q16 9 42.5 18t55.5 18.5t55 20t42.5 22t16.5 24.5v23q0 11 -4.5 19.5t-14 14t-25.5 5.5v123q58 0 96 -25.5
t57 -61.5t19 -66v-261q0 -6 4.5 -19t23.5 -13v-124q-32 0 -56.5 8.5t-41.5 23.5q-19 -16 -44 -24t-57 -8v123q18 0 27 7t12.5 16.5t3.5 16.5v82q-16 -9 -37 -17t-43 -13.5t-38.5 -10.5t-23.5 -8q-13 -6 -13 -23v-14q0 -12 4.5 -20t17 -12t36.5 -4v-123zM148 383l-116 44
q0 41 24.5 73t62 51t76.5 19v-123q-15 0 -25.5 -7t-16 -21t-5.5 -36z" />
    <glyph glyph-name="Cacute" unicode="&#x106;" horiz-adv-x="494" 
d="M217 766l37 152h127l-73 -152h-91zM235 -5q-54 0 -91.5 20t-60.5 50.5t-34 62t-11 53.5v337q0 23 11 54.5t34 61.5t60.5 50.5t91.5 20.5v-141q-17 0 -28 -6.5t-17 -15t-8.5 -15.5t-2.5 -9v-337q0 -2 2.5 -9t8.5 -15.5t17 -14.5t28 -6v-141zM289 -5v141q7 2 15.5 5.5
t16 10t10.5 14.5q4 8 4.5 18t0.5 19v6v6l138 -33q0 -53 -27 -95.5t-69.5 -67t-88.5 -24.5zM336 480v7.5v7.5q0 9 -0.5 19t-4.5 18q-3 6 -7.5 11.5t-10.5 9.5t-12.5 7t-11.5 4v141q35 0 67.5 -16t59.5 -42.5t42.5 -60.5t15.5 -70z" />
    <glyph glyph-name="cacute" unicode="&#x107;" horiz-adv-x="456" 
d="M193 629l37 152h127l-73 -152h-91zM216 0q-49 0 -82.5 16.5t-54.5 41.5t-30.5 51.5t-9.5 45.5v262q0 20 10 46t31.5 50.5t55 40.5t79.5 16v-128q-17 0 -27.5 -4.5t-14.5 -10.5t-4 -12v-260q0 -10 5 -16t15.5 -8.5t26.5 -3.5v-127zM261 -1v129q18 0 29.5 3.5t17.5 13
t6 27.5v33l122 -47q1 -43 -24.5 -79.5t-66 -58.5t-84.5 -21zM302 365v33q0 17 -5 26t-14.5 13t-21.5 4v129q45 0 82 -21.5t59 -57.5t22 -79z" />
    <glyph glyph-name="Ccaron" unicode="&#x10c;" horiz-adv-x="494" 
d="M228 766l-75 152h81l27 -57l28 57h82l-77 -152h-66zM235 -5q-54 0 -91.5 20t-60.5 50.5t-34 62t-11 53.5v337q0 23 11 54.5t34 61.5t60.5 50.5t91.5 20.5v-141q-17 0 -28 -6.5t-17 -15t-8.5 -15.5t-2.5 -9v-337q0 -2 2.5 -9t8.5 -15.5t17 -14.5t28 -6v-141zM289 -5v141
q7 2 15.5 5.5t16 10t10.5 14.5q4 8 4.5 18t0.5 19v6v6l138 -33q0 -53 -27 -95.5t-69.5 -67t-88.5 -24.5zM336 480v7.5v7.5q0 9 -0.5 19t-4.5 18q-3 6 -7.5 11.5t-10.5 9.5t-12.5 7t-11.5 4v141q35 0 67.5 -16t59.5 -42.5t42.5 -60.5t15.5 -70z" />
    <glyph glyph-name="ccaron" unicode="&#x10d;" horiz-adv-x="456" 
d="M204 629l-75 152h81l27 -57l28 57h82l-77 -152h-66zM216 0q-49 0 -82.5 16.5t-54.5 41.5t-30.5 51.5t-9.5 45.5v262q0 20 10 46t31.5 50.5t55 40.5t79.5 16v-128q-17 0 -27.5 -4.5t-14.5 -10.5t-4 -12v-260q0 -10 5 -16t15.5 -8.5t26.5 -3.5v-127zM261 -1v129
q18 0 29.5 3.5t17.5 13t6 27.5v33l122 -47q1 -43 -24.5 -79.5t-66 -58.5t-84.5 -21zM302 365v33q0 17 -5 26t-14.5 13t-21.5 4v129q45 0 82 -21.5t59 -57.5t22 -79z" />
    <glyph glyph-name="Dcaron" unicode="&#x10e;" horiz-adv-x="472" 
d="M204 766l-75 152h81l27 -57l28 57h82l-77 -152h-66zM237 0v141q2 0 11 2t19.5 8t18 17t7.5 29v306q0 2 -2 10.5t-8 19t-17 18.5t-29 8v141q54 0 91.5 -21.5t60.5 -53.5t34 -65t11 -57v-306q0 -55 -22 -93t-54 -61t-65 -33t-56 -10zM42 0v700h141v-700h-141z" />
    <glyph glyph-name="dcaron" unicode="&#x10f;" horiz-adv-x="461" 
d="M511 607l37 152h127l-37 -152h-127zM197 0q-43 0 -74 17t-51.5 42.5t-30.5 51.5t-10 44v260q0 18 10 44t30.5 50.5t51 41t72.5 16.5h33v-129h-33q-15 0 -22.5 -6.5t-10 -13.5t-2.5 -8v-253q0 -1 3 -7.5t11 -13t23 -6.5h31v-130h-31zM281 0v716h139l-1 -716h-138z" />
    <glyph glyph-name="Dcroat" unicode="&#x110;" horiz-adv-x="501" 
d="M83 0v292h-57v128h57v280h141v-280h56v-128h-56v-292h-141zM278 0v141q2 0 11 2t19.5 8t18 17t7.5 29v306q0 2 -2 10.5t-8 19t-17 18.5t-29 8v141q54 0 91.5 -21.5t60.5 -53.5t34 -65t11 -57v-306q0 -55 -22 -93t-54 -61t-65 -33t-56 -10z" />
    <glyph glyph-name="dcroat" unicode="&#x111;" horiz-adv-x="414" 
d="M258 0v570h-84v96h84v50h126v-50h64v-96h-64v-570h-126zM182 0q-39 0 -67.5 15.5t-47 38.5t-27.5 47t-9 40v236q0 17 9 40.5t27.5 46t46.5 37.5t66 15h30v-118h-30q-13 0 -20 -6t-9.5 -12t-2.5 -7v-230q0 -1 2.5 -7t10 -12t21.5 -6h28v-118h-28z" />
    <glyph glyph-name="Emacron" unicode="&#x112;" horiz-adv-x="444" 
d="M66 766v82h316v-82h-316zM42 0v700h364v-140h-223v-142h129v-141h-129v-136h223v-141h-364z" />
    <glyph glyph-name="emacron" unicode="&#x113;" horiz-adv-x="485" 
d="M84 629v82h316v-82h-316zM216 0q-44 0 -77.5 16.5t-55.5 41.5t-33 51t-11 46v262q0 20 11 46t33.5 50.5t55.5 40.5t76 16v-126q-13 0 -22.5 -6t-15 -14t-5.5 -16v-50h149v49q0 16 -8 24t-20 10.5t-24 2.5v126q41 0 81.5 -19t68 -53t27.5 -80v-189h-274v-74q0 -7 4 -14.5
t13.5 -12.5t26.5 -5v-123zM269 0v122q21 0 35 7t22 18.5t12 25.5l109 -41q-7 -32 -31 -62.5t-61.5 -50t-85.5 -19.5z" />
    <glyph glyph-name="Edotaccent" unicode="&#x116;" horiz-adv-x="444" 
d="M224 766q-31 0 -53 22t-22 54q0 31 22 53t54 22q31 0 52.5 -22t21.5 -54q0 -31 -21 -53t-54 -22zM42 0v700h364v-140h-223v-142h129v-141h-129v-136h223v-141h-364z" />
    <glyph glyph-name="edotaccent" unicode="&#x117;" horiz-adv-x="485" 
d="M242 629q-31 0 -53 22t-22 54q0 31 22 53t54 22q31 0 52.5 -22t21.5 -54q0 -31 -21 -53t-54 -22zM216 0q-44 0 -77.5 16.5t-55.5 41.5t-33 51t-11 46v262q0 20 11 46t33.5 50.5t55.5 40.5t76 16v-126q-13 0 -22.5 -6t-15 -14t-5.5 -16v-50h149v49q0 16 -8 24t-20 10.5
t-24 2.5v126q41 0 81.5 -19t68 -53t27.5 -80v-189h-274v-74q0 -7 4 -14.5t13.5 -12.5t26.5 -5v-123zM269 0v122q21 0 35 7t22 18.5t12 25.5l109 -41q-7 -32 -31 -62.5t-61.5 -50t-85.5 -19.5z" />
    <glyph glyph-name="Eogonek" unicode="&#x118;" horiz-adv-x="444" 
d="M426 -199q-63 0 -100 24t-52.5 60.5t-15.5 74.5h92q0 -41 24.5 -54.5t51.5 -13.5v-91zM42 0v700h364v-140h-223v-142h129v-141h-129v-136h223v-141h-364z" />
    <glyph glyph-name="eogonek" unicode="&#x119;" horiz-adv-x="485" 
d="M368 -199q-63 0 -100 24t-52.5 60.5t-15.5 74.5h92q0 -41 24.5 -54.5t51.5 -13.5v-91zM216 0q-44 0 -77.5 16.5t-55.5 41.5t-33 51t-11 46v262q0 20 11 46t33.5 50.5t55.5 40.5t76 16v-126q-13 0 -22.5 -6t-15 -14t-5.5 -16v-50h149v49q0 16 -8 24t-20 10.5t-24 2.5v126
q41 0 81.5 -19t68 -53t27.5 -80v-189h-274v-74q0 -7 4 -14.5t13.5 -12.5t26.5 -5v-123zM269 0v122q21 0 35 7t22 18.5t12 25.5l109 -41q-7 -32 -31 -62.5t-61.5 -50t-85.5 -19.5z" />
    <glyph glyph-name="Ecaron" unicode="&#x11a;" horiz-adv-x="444" 
d="M190 766l-75 152h81l27 -57l28 57h82l-77 -152h-66zM42 0v700h364v-140h-223v-142h129v-141h-129v-136h223v-141h-364z" />
    <glyph glyph-name="ecaron" unicode="&#x11b;" horiz-adv-x="485" 
d="M208 629l-75 152h81l27 -57l28 57h82l-77 -152h-66zM216 0q-44 0 -77.5 16.5t-55.5 41.5t-33 51t-11 46v262q0 20 11 46t33.5 50.5t55.5 40.5t76 16v-126q-13 0 -22.5 -6t-15 -14t-5.5 -16v-50h149v49q0 16 -8 24t-20 10.5t-24 2.5v126q41 0 81.5 -19t68 -53t27.5 -80
v-189h-274v-74q0 -7 4 -14.5t13.5 -12.5t26.5 -5v-123zM269 0v122q21 0 35 7t22 18.5t12 25.5l109 -41q-7 -32 -31 -62.5t-61.5 -50t-85.5 -19.5z" />
    <glyph glyph-name="Gbreve" unicode="&#x11e;" horiz-adv-x="507" 
d="M261 766q-26 0 -48 13t-35 35t-13 48h64q0 -13 9.5 -22.5t22.5 -9.5q14 0 23 9.5t9 22.5h64q0 -26 -13 -48t-34.5 -35t-48.5 -13zM234 -5q-22 0 -55 10.5t-65.5 34t-54 61t-21.5 91.5v332q3 24 15.5 55t36 60t59.5 47.5t85 18.5v-141q-23 0 -35 -11t-15.5 -24t-3.5 -21
v-316q0 -17 7.5 -28t17.5 -17t18.5 -8.5t10.5 -2.5v-141zM288 -5v141q2 0 9 3.5t15 10.5t13.5 17t5.5 23v33h-43v130h185v-177q0 -30 -17 -62t-44.5 -58.5t-60 -43.5t-63.5 -17zM335 465v39q0 15 -4 26.5t-11 18.5t-15.5 11t-16.5 4v141q47 0 89 -27t69 -70.5t27 -91.5z" />
    <glyph glyph-name="gbreve" unicode="&#x11f;" horiz-adv-x="456" 
d="M221 638q-26 0 -48 13t-35 35t-13 48h64q0 -13 9.5 -22.5t22.5 -9.5q14 0 23 9.5t9 22.5h64q0 -26 -13 -48t-34.5 -35t-48.5 -13zM20 -190l31 123h198q17 0 26 7.5t12.5 15.5t3.5 9v47q-7 -1 -14.5 -2t-15 -1.5t-15.5 -0.5v124q18 0 27.5 5t13.5 13t4 15v255q0 3 -4 11
t-13.5 14.5t-27.5 6.5v125q8 0 15.5 -0.5t15 -2t14.5 -3.5v6h128v-612q0 -18 -10.5 -44t-31.5 -51.5t-52.5 -42.5t-73.5 -17h-231zM203 8q-44 0 -76.5 17t-53.5 42t-31.5 51t-10.5 44v263q0 19 10.5 44.5t31.5 50t53.5 41t76.5 16.5v-125q-18 0 -28.5 -6.5t-14.5 -13.5
t-4 -10v-259q0 -6 4.5 -13.5t14.5 -12.5t28 -5v-124z" />
    <glyph glyph-name="uni0122" unicode="&#x122;" horiz-adv-x="507" 
d="M179 -218l37 152h127l-37 -152h-127zM234 -5q-22 0 -55 10.5t-65.5 34t-54 61t-21.5 91.5v332q3 24 15.5 55t36 60t59.5 47.5t85 18.5v-141q-23 0 -35 -11t-15.5 -24t-3.5 -21v-316q0 -17 7.5 -28t17.5 -17t18.5 -8.5t10.5 -2.5v-141zM288 -5v141q2 0 9 3.5t15 10.5
t13.5 17t5.5 23v33h-43v130h185v-177q0 -30 -17 -62t-44.5 -58.5t-60 -43.5t-63.5 -17zM335 465v39q0 15 -4 26.5t-11 18.5t-15.5 11t-16.5 4v141q47 0 89 -27t69 -70.5t27 -91.5z" />
    <glyph glyph-name="uni0123" unicode="&#x123;" horiz-adv-x="456" 
d="M241 638l37 152h127l-73 -152h-91zM20 -190l31 123h198q17 0 26 7.5t12.5 15.5t3.5 9v47q-7 -1 -14.5 -2t-15 -1.5t-15.5 -0.5v124q18 0 27.5 5t13.5 13t4 15v255q0 3 -4 11t-13.5 14.5t-27.5 6.5v125q8 0 15.5 -0.5t15 -2t14.5 -3.5v6h128v-612q0 -18 -10.5 -44
t-31.5 -51.5t-52.5 -42.5t-73.5 -17h-231zM203 8q-44 0 -76.5 17t-53.5 42t-31.5 51t-10.5 44v263q0 19 10.5 44.5t31.5 50t53.5 41t76.5 16.5v-125q-18 0 -28.5 -6.5t-14.5 -13.5t-4 -10v-259q0 -6 4.5 -13.5t14.5 -12.5t28 -5v-124z" />
    <glyph glyph-name="Imacron" unicode="&#x12a;" horiz-adv-x="225" 
d="M-46 766v82h316v-82h-316zM42 0v700h141v-700h-141z" />
    <glyph glyph-name="imacron" unicode="&#x12b;" horiz-adv-x="174" 
d="M-71 629v82h316v-82h-316zM26 0v516h122v-516h-122z" />
    <glyph glyph-name="Iogonek" unicode="&#x12e;" horiz-adv-x="225" 
d="M235 -197q-63 0 -100 24t-52.5 60.5t-15.5 74.5h92q0 -41 24.5 -54.5t51.5 -13.5v-91zM42 0v700h141v-700h-141z" />
    <glyph glyph-name="iogonek" unicode="&#x12f;" horiz-adv-x="245" 
d="M246 -198q-63 0 -100 24t-52.5 60.5t-15.5 74.5h92q0 -41 24.5 -54.5t51.5 -13.5v-91zM57 0v562h134v-562h-134zM123 611q-30 0 -51.5 21.5t-21.5 50.5t21.5 50.5t51.5 21.5q29 0 50.5 -21.5t21.5 -50.5t-21.5 -50.5t-50.5 -21.5z" />
    <glyph glyph-name="Idotaccent" unicode="&#x130;" horiz-adv-x="225" 
d="M113 766q-31 0 -53 22t-22 54q0 31 22 53t54 22q31 0 52.5 -22t21.5 -54q0 -31 -21 -53t-54 -22zM42 0v700h141v-700h-141z" />
    <glyph glyph-name="dotlessi" unicode="&#x131;" horiz-adv-x="174" 
d="M26 0v516h122v-516h-122z" />
    <glyph glyph-name="uni0136" unicode="&#x136;" horiz-adv-x="488" 
d="M176 -213l37 152h127l-37 -152h-127zM335 0l-112 341l107 359h139l-106 -359l110 -341h-138zM42 0v700h141v-700h-141z" />
    <glyph glyph-name="uni0137" unicode="&#x137;" horiz-adv-x="500" 
d="M179 -213l37 152h127l-37 -152h-127zM335 0l-126 287l123 283h146l-126 -283l128 -287h-145zM42 0v716h138v-716h-138z" />
    <glyph glyph-name="Lacute" unicode="&#x139;" horiz-adv-x="433" 
d="M66 766l37 152h127l-73 -152h-91zM42 0v700h141v-560h235v-140h-376z" />
    <glyph glyph-name="lacute" unicode="&#x13a;" horiz-adv-x="228" 
d="M67 820l37 152h127l-73 -152h-91zM42 0v716h144v-716h-144z" />
    <glyph glyph-name="uni013B" unicode="&#x13b;" horiz-adv-x="433" 
d="M148 -213l37 152h127l-37 -152h-127zM42 0v700h141v-560h235v-140h-376z" />
    <glyph glyph-name="uni013C" unicode="&#x13c;" horiz-adv-x="228" 
d="M31 -222l37 152h127l-37 -152h-127zM57 0v716h144v-716h-144z" />
    <glyph glyph-name="Lcaron" unicode="&#x13d;" horiz-adv-x="433" 
d="M274 553l37 152h127l-37 -152h-127zM42 0v700h141v-560h235v-140h-376z" />
    <glyph glyph-name="lcaron" unicode="&#x13e;" horiz-adv-x="407" 
d="M212 607l37 152h127l-37 -152h-127zM31 0v716h144v-716h-144z" />
    <glyph glyph-name="Lslash" unicode="&#x141;" horiz-adv-x="530" 
d="M129 0v233l-31 -24l-72 93l103 80v318h141v-208l78 61l72 -93l-150 -117v-204h235v-139h-376z" />
    <glyph glyph-name="lslash" unicode="&#x142;" horiz-adv-x="424" 
d="M112 209l-72 93l300 234l72 -93zM159 -9v716h144v-716h-144z" />
    <glyph glyph-name="Nacute" unicode="&#x143;" horiz-adv-x="529" 
d="M219 766l37 152h127l-73 -152h-91zM420 0l-378 608v92h115l330 -532v-168h-67zM42 0v492h8l133 -214v-278h-141zM479 284l-133 214v202h141v-416h-8z" />
    <glyph glyph-name="nacute" unicode="&#x144;" horiz-adv-x="487" 
d="M198 632l37 152h127l-73 -152h-91zM38 379q0 42 13 77t37 60.5t57 39.5t73 14v-130q-15 0 -25.5 -8t-16.5 -23t-6 -36v-373h-132v379zM316 373q0 21 -5.5 36t-16.5 23t-26 8v130q40 0 73 -14t57 -39.5t37 -60.5t13 -77v-379h-132v373z" />
    <glyph glyph-name="uni0145" unicode="&#x145;" horiz-adv-x="529" 
d="M183 -213l37 152h127l-37 -152h-127zM420 0l-378 608v92h115l330 -532v-168h-67zM42 0v492h8l133 -214v-278h-141zM479 284l-133 214v202h141v-416h-8z" />
    <glyph glyph-name="uni0146" unicode="&#x146;" horiz-adv-x="487" 
d="M161 -213l37 152h127l-37 -152h-127zM38 379q0 42 13 77t37 60.5t57 39.5t73 14v-130q-15 0 -25.5 -8t-16.5 -23t-6 -36v-373h-132v379zM316 373q0 21 -5.5 36t-16.5 23t-26 8v130q40 0 73 -14t57 -39.5t37 -60.5t13 -77v-379h-132v373z" />
    <glyph glyph-name="Ncaron" unicode="&#x147;" horiz-adv-x="529" 
d="M231 766l-75 152h81l27 -57l28 57h82l-77 -152h-66zM420 0l-378 608v92h115l330 -532v-168h-67zM42 0v492h8l133 -214v-278h-141zM479 284l-133 214v202h141v-416h-8z" />
    <glyph glyph-name="ncaron" unicode="&#x148;" horiz-adv-x="487" 
d="M209 632l-75 152h81l27 -57l28 57h82l-77 -152h-66zM38 379q0 42 13 77t37 60.5t57 39.5t73 14v-130q-15 0 -25.5 -8t-16.5 -23t-6 -36v-373h-132v379zM316 373q0 21 -5.5 36t-16.5 23t-26 8v130q40 0 73 -14t57 -39.5t37 -60.5t13 -77v-379h-132v373z" />
    <glyph glyph-name="Omacron" unicode="&#x14c;" horiz-adv-x="524" 
d="M104 766v82h316v-82h-316zM302 -5v142q13 0 24.5 5.5t21 15t15 22.5t5.5 29v279q0 17 -5 30.5t-13.5 24t-20.5 16t-27 5.5v141q42 0 79.5 -16t66 -43.5t45 -64t16.5 -77.5v-300q0 -44 -14.5 -82t-41.5 -66.5t-65.5 -44.5t-85.5 -16zM246 -5q-42 0 -79 16.5t-65.5 45.5
t-45 67t-16.5 80v300q0 41 16.5 77.5t45 64.5t66 43.5t79.5 15.5v-141q-15 0 -27 -5.5t-20.5 -16t-13.5 -24t-5 -30.5v-279q0 -16 5.5 -29.5t14.5 -23t20.5 -14.5t24.5 -5v-142z" />
    <glyph glyph-name="omacron" unicode="&#x14d;" horiz-adv-x="476" 
d="M83 629v82h316v-82h-316zM218 -1q-36 0 -68.5 13t-57.5 37t-39.5 58t-14.5 76v196q0 42 13 77t37 60.5t57 39.5t73 14v-130q-15 0 -25.5 -8t-16.5 -23t-6 -36v-185q0 -17 6 -30.5t17 -21t25 -7.5v-130zM268 -1v130q14 0 25 7.5t17 21t6 30.5v185q0 21 -5.5 36t-16.5 23
t-26 8v130q40 0 73 -14t57 -39.5t37 -60.5t13 -77v-196q0 -42 -14.5 -76t-39.5 -58t-57.5 -37t-68.5 -13z" />
    <glyph glyph-name="Ohungarumlaut" unicode="&#x150;" horiz-adv-x="524" 
d="M308 766l37 152h127l-73 -152h-91zM148 766l37 152h127l-73 -152h-91zM302 -5v142q13 0 24.5 5.5t21 15t15 22.5t5.5 29v279q0 17 -5 30.5t-13.5 24t-20.5 16t-27 5.5v141q42 0 79.5 -16t66 -43.5t45 -64t16.5 -77.5v-300q0 -44 -14.5 -82t-41.5 -66.5t-65.5 -44.5
t-85.5 -16zM246 -5q-42 0 -79 16.5t-65.5 45.5t-45 67t-16.5 80v300q0 41 16.5 77.5t45 64.5t66 43.5t79.5 15.5v-141q-15 0 -27 -5.5t-20.5 -16t-13.5 -24t-5 -30.5v-279q0 -16 5.5 -29.5t14.5 -23t20.5 -14.5t24.5 -5v-142z" />
    <glyph glyph-name="ohungarumlaut" unicode="&#x151;" horiz-adv-x="476" 
d="M287 629l37 152h127l-73 -152h-91zM127 629l37 152h127l-73 -152h-91zM218 -1q-36 0 -68.5 13t-57.5 37t-39.5 58t-14.5 76v196q0 42 13 77t37 60.5t57 39.5t73 14v-130q-15 0 -25.5 -8t-16.5 -23t-6 -36v-185q0 -17 6 -30.5t17 -21t25 -7.5v-130zM268 -1v130
q14 0 25 7.5t17 21t6 30.5v185q0 21 -5.5 36t-16.5 23t-26 8v130q40 0 73 -14t57 -39.5t37 -60.5t13 -77v-196q0 -42 -14.5 -76t-39.5 -58t-57.5 -37t-68.5 -13z" />
    <glyph glyph-name="OE" unicode="&#x152;" horiz-adv-x="724" 
d="M277 0v142h57v417h-57v141h421v-140h-223v-142h129v-141h-129v-136h223v-141h-421zM222 0q-22 0 -55 11t-65.5 35t-54 62t-21.5 92v319q0 23 12 53.5t37 59.5t62 48.5t86 19.5v-141q-17 0 -28 -8t-17 -18.5t-8.5 -19t-2.5 -10.5v-303q0 -17 7.5 -28.5t18 -18t19 -9
t10.5 -2.5v-142z" />
    <glyph glyph-name="oe" unicode="&#x153;" horiz-adv-x="671" 
d="M231 -1v114q17 0 26.5 5t13.5 13.5t4 18.5v212q0 13 -4.5 20.5t-14 11.5t-25.5 4v118q37 0 59.5 -8.5t41.5 -24.5q20 15 44.5 24t55.5 9v-115q-14 0 -24 -5.5t-15.5 -14.5t-5.5 -18v-39h141v35q0 14 -7 23.5t-18 14t-22 4.5v115q37 0 74 -19t62 -50t25 -69v-170h-255v-49
q0 -16 8.5 -27.5t25.5 -17.5t43 -6q27 0 50.5 9.5t29.5 39.5l99 -37q-15 -60 -66 -90t-120 -30q-43 0 -71.5 10t-51.5 24q-19 -16 -42 -25.5t-61 -9.5zM190 -1q-43 0 -74 15.5t-51 39t-29.5 47.5t-9.5 40v235q0 17 10 40.5t30 46.5t51 38t73 15v-118q-17 0 -27 -4.5
t-13.5 -12.5t-3.5 -18v-211q0 -11 4.5 -20t14 -14t25.5 -5v-114z" />
    <glyph glyph-name="Racute" unicode="&#x154;" horiz-adv-x="505" 
d="M185 766l37 152h127l-73 -152h-91zM353 0l-15 178q-3 39 -12.5 62.5t-28 34.5t-49.5 11h-11v125h13q45 0 65.5 24.5t20.5 54.5q0 36 -24.5 56.5t-61.5 20.5h-13v133h22q67 0 113.5 -25t71 -68.5t24.5 -100.5q0 -51 -18.5 -90t-49.5 -64q32 -20 47.5 -59.5t18.5 -75.5
l17 -217h-130zM42 0v700h141v-700h-141z" />
    <glyph glyph-name="racute" unicode="&#x155;" horiz-adv-x="361" 
d="M177 629l37 152h127l-73 -152h-91zM42 0v570h136v-63q12 15 32.5 30.5t47.5 26.5t57 11h18h18l-31 -134q-36 0 -68.5 -20.5t-53 -51.5t-20.5 -64v-305h-136z" />
    <glyph glyph-name="uni0156" unicode="&#x156;" horiz-adv-x="505" 
d="M179 -213l37 152h127l-37 -152h-127zM353 0l-15 178q-3 39 -12.5 62.5t-28 34.5t-49.5 11h-11v125h13q45 0 65.5 24.5t20.5 54.5q0 36 -24.5 56.5t-61.5 20.5h-13v133h22q67 0 113.5 -25t71 -68.5t24.5 -100.5q0 -51 -18.5 -90t-49.5 -64q32 -20 47.5 -59.5t18.5 -75.5
l17 -217h-130zM42 0v700h141v-700h-141z" />
    <glyph glyph-name="uni0157" unicode="&#x157;" horiz-adv-x="361" 
d="M10 -213l37 152h127l-37 -152h-127zM42 0v570h136v-63q12 15 32.5 30.5t47.5 26.5t57 11h18h18l-31 -134q-36 0 -68.5 -20.5t-53 -51.5t-20.5 -64v-305h-136z" />
    <glyph glyph-name="Rcaron" unicode="&#x158;" horiz-adv-x="505" 
d="M180 766l-75 152h81l27 -57l28 57h82l-77 -152h-66zM353 0l-15 178q-3 39 -12.5 62.5t-28 34.5t-49.5 11h-11v125h13q45 0 65.5 24.5t20.5 54.5q0 36 -24.5 56.5t-61.5 20.5h-13v133h22q67 0 113.5 -25t71 -68.5t24.5 -100.5q0 -51 -18.5 -90t-49.5 -64
q32 -20 47.5 -59.5t18.5 -75.5l17 -217h-130zM42 0v700h141v-700h-141z" />
    <glyph glyph-name="rcaron" unicode="&#x159;" horiz-adv-x="361" 
d="M162 629l-75 152h81l27 -57l28 57h82l-77 -152h-66zM42 0v570h136v-63q12 15 32.5 30.5t47.5 26.5t57 11h18h18l-31 -134q-36 0 -68.5 -20.5t-53 -51.5t-20.5 -64v-305h-136z" />
    <glyph glyph-name="Sacute" unicode="&#x15a;" horiz-adv-x="481" 
d="M185 766l37 152h127l-73 -152h-91zM258 -3v130q11 1 22 6.5t20 15t14.5 21.5t5.5 26q0 25 -15 44.5t-38.5 34t-47.5 24.5t-43 16t-25 8q-29 9 -57.5 33t-47 62.5t-18.5 88.5q0 53 19.5 89.5t48.5 59t58.5 33.5t48.5 11v-132q-8 -3 -15.5 -8t-13 -13t-9 -17t-3.5 -19
q0 -18 9.5 -31t26.5 -23t38.5 -19.5t46.5 -19.5t50 -24q32 -17 61 -42t48 -59.5t19 -82.5q0 -57 -28 -105.5t-74.5 -78t-100.5 -29.5zM203 -3q-41 0 -74.5 17t-58 43t-37.5 53t-13 48l127 45q0 -20 9 -35.5t22 -25.5t25 -15v-130zM303 510q0 17 -7.5 29t-17.5 19.5t-20 9.5
v132q40 0 72 -15.5t55 -39.5t35.5 -49t12.5 -43z" />
    <glyph glyph-name="sacute" unicode="&#x15b;" horiz-adv-x="454" 
d="M175 630l37 152h127l-73 -152h-91zM245 -5v126q12 0 26 5t24 15t10 25q0 20 -19.5 32.5t-49 21t-61 16.5t-55.5 19q-22 10 -43.5 29t-36 49t-14.5 73q0 50 18.5 82.5t46.5 51.5t57 27t50 8v-124q-23 0 -33.5 -7t-13 -15t-2.5 -13q0 -18 17.5 -33.5t56 -29t100.5 -27.5
q20 -4 39.5 -15t35.5 -29t26 -44.5t10 -62.5q0 -57 -25.5 -97.5t-68.5 -61.5t-95 -21zM200 -5q-64 0 -103.5 24t-58 59.5t-18.5 71.5l124 23q0 -15 8.5 -26.5t21.5 -18t26 -7.5v-126zM301 397q0 25 -12.5 36t-26.5 14.5t-19 3.5l1 124q54 0 94.5 -24t63 -60t22.5 -73z" />
    <glyph glyph-name="uni015E" unicode="&#x15e;" horiz-adv-x="481" 
d="M113 -199v91q27 0 51.5 13.5t24.5 54.5h92q0 -38 -15.5 -74.5t-52 -60.5t-100.5 -24zM258 -3v130q11 1 22 6.5t20 15t14.5 21.5t5.5 26q0 25 -15 44.5t-38.5 34t-47.5 24.5t-43 16t-25 8q-29 9 -57.5 33t-47 62.5t-18.5 88.5q0 53 19.5 89.5t48.5 59t58.5 33.5t48.5 11
v-132q-8 -3 -15.5 -8t-13 -13t-9 -17t-3.5 -19q0 -18 9.5 -31t26.5 -23t38.5 -19.5t46.5 -19.5t50 -24q32 -17 61 -42t48 -59.5t19 -82.5q0 -57 -28 -105.5t-74.5 -78t-100.5 -29.5zM203 -3q-41 0 -74.5 17t-58 43t-37.5 53t-13 48l127 45q0 -20 9 -35.5t22 -25.5t25 -15
v-130zM303 510q0 17 -7.5 29t-17.5 19.5t-20 9.5v132q40 0 72 -15.5t55 -39.5t35.5 -49t12.5 -43z" />
    <glyph glyph-name="uni015F" unicode="&#x15f;" horiz-adv-x="454" 
d="M102 -199v91q27 0 51.5 13.5t24.5 54.5h92q0 -38 -15.5 -74.5t-52 -60.5t-100.5 -24zM245 -5v126q12 0 26 5t24 15t10 25q0 20 -19.5 32.5t-49 21t-61 16.5t-55.5 19q-22 10 -43.5 29t-36 49t-14.5 73q0 50 18.5 82.5t46.5 51.5t57 27t50 8v-124q-23 0 -33.5 -7t-13 -15
t-2.5 -13q0 -18 17.5 -33.5t56 -29t100.5 -27.5q20 -4 39.5 -15t35.5 -29t26 -44.5t10 -62.5q0 -57 -25.5 -97.5t-68.5 -61.5t-95 -21zM200 -5q-64 0 -103.5 24t-58 59.5t-18.5 71.5l124 23q0 -15 8.5 -26.5t21.5 -18t26 -7.5v-126zM301 397q0 25 -12.5 36t-26.5 14.5
t-19 3.5l1 124q54 0 94.5 -24t63 -60t22.5 -73z" />
    <glyph glyph-name="Scaron" unicode="&#x160;" horiz-adv-x="481" 
d="M188 766l-75 152h81l27 -57l28 57h82l-77 -152h-66zM251 -3v130q11 1 22 6.5t20 15t14.5 21.5t5.5 26q0 25 -15 44.5t-38.5 34t-47.5 24.5t-43 16t-25 8q-29 9 -57.5 33t-47 62.5t-18.5 88.5q0 53 19.5 89.5t48.5 59t58.5 33.5t48.5 11v-132q-8 -3 -15.5 -8t-13 -13
t-9 -17t-3.5 -19q0 -18 9.5 -31t26.5 -23t38.5 -19.5t46.5 -19.5t50 -24q32 -17 61 -42t48 -59.5t19 -82.5q0 -57 -28 -105.5t-74.5 -78t-100.5 -29.5zM196 -3q-41 0 -74.5 17t-58 43t-37.5 53t-13 48l127 45q0 -20 9 -35.5t22 -25.5t25 -15v-130zM296 510q0 17 -7.5 29
t-17.5 19.5t-20 9.5v132q40 0 72 -15.5t55 -39.5t35.5 -49t12.5 -43z" />
    <glyph glyph-name="scaron" unicode="&#x161;" horiz-adv-x="454" 
d="M187 630l-75 152h81l27 -57l28 57h82l-77 -152h-66zM245 -5v126q12 0 26 5t24 15t10 25q0 20 -19.5 32.5t-49 21t-61 16.5t-55.5 19q-22 10 -43.5 29t-36 49t-14.5 73q0 50 18.5 82.5t46.5 51.5t57 27t50 8v-124q-23 0 -33.5 -7t-13 -15t-2.5 -13q0 -18 17.5 -33.5
t56 -29t100.5 -27.5q20 -4 39.5 -15t35.5 -29t26 -44.5t10 -62.5q0 -57 -25.5 -97.5t-68.5 -61.5t-95 -21zM200 -5q-64 0 -103.5 24t-58 59.5t-18.5 71.5l124 23q0 -15 8.5 -26.5t21.5 -18t26 -7.5v-126zM301 397q0 25 -12.5 36t-26.5 14.5t-19 3.5l1 124q54 0 94.5 -24
t63 -60t22.5 -73z" />
    <glyph glyph-name="uni0162" unicode="&#x162;" horiz-adv-x="463" 
d="M110 -199v91q27 0 51.5 13.5t24.5 54.5h92q0 -38 -15.5 -74.5t-52 -60.5t-100.5 -24zM161 0v562h-146v138h433v-138h-146v-562h-141z" />
    <glyph glyph-name="uni0163" unicode="&#x163;" horiz-adv-x="324" 
d="M147 -199v91q27 0 51.5 13.5t24.5 54.5h92q0 -38 -15.5 -74.5t-52 -60.5t-100.5 -24zM254 0q-67 0 -104 23t-51.5 64.5t-14.5 97.5v256h-70v129h70v146h134v-146h66v-130h-66v-265q0 -11 7 -24t30 -13h29l30 -138h-60z" />
    <glyph glyph-name="Tcaron" unicode="&#x164;" horiz-adv-x="463" 
d="M198 766l-75 152h81l27 -57l28 57h82l-77 -152h-66zM161 0v562h-146v138h433v-138h-146v-562h-141z" />
    <glyph glyph-name="tcaron" unicode="&#x165;" horiz-adv-x="542" 
d="M258 609l37 152h127l-37 -152h-127zM254 0q-67 0 -104 23t-51.5 64.5t-14.5 97.5v256h-70v129h70v146h134v-146h66v-130h-66v-265q0 -11 7 -24t30 -13h29l30 -138h-60z" />
    <glyph glyph-name="Umacron" unicode="&#x16a;" horiz-adv-x="512" 
d="M98 766v82h316v-82h-316zM229 -5q-22 0 -55.5 11t-65.5 34t-54 61t-22 92v507h142v-507q0 -17 7.5 -28t18 -17t19 -8.5t10.5 -2.5v-142zM283 -5v142q2 0 10.5 2.5t19 8.5t18.5 17t8 28v507h140v-507q0 -54 -21.5 -92t-53.5 -61.5t-65 -34t-56 -10.5z" />
    <glyph glyph-name="umacron" unicode="&#x16b;" horiz-adv-x="487" 
d="M85 629v82h316v-82h-316zM266 -5v133q18 0 28.5 6t14.5 15t4 18v403h136v-419q0 -20 -11.5 -46.5t-34.5 -51.5t-57.5 -41.5t-79.5 -16.5zM220 -5q-45 0 -79.5 16t-57 41t-34 51.5t-11.5 47.5v419h136v-403q0 -9 4 -18t14 -15t28 -6v-133z" />
    <glyph glyph-name="Uring" unicode="&#x16e;" horiz-adv-x="512" 
d="M256 766q-40 0 -68 28t-28 68t28 68t68 28t68 -28t28 -68t-28 -68t-68 -28zM256 830q14 0 23 9.5t9 22.5q0 14 -9 23t-23 9q-13 0 -22.5 -9t-9.5 -23q0 -13 9.5 -22.5t22.5 -9.5zM229 -5q-22 0 -55.5 11t-65.5 34t-54 61t-22 92v507h142v-507q0 -17 7.5 -28t18 -17
t19 -8.5t10.5 -2.5v-142zM283 -5v142q2 0 10.5 2.5t19 8.5t18.5 17t8 28v507h140v-507q0 -54 -21.5 -92t-53.5 -61.5t-65 -34t-56 -10.5z" />
    <glyph glyph-name="uring" unicode="&#x16f;" horiz-adv-x="487" 
d="M243 629q-40 0 -68 28t-28 68t28 68t68 28t68 -28t28 -68t-28 -68t-68 -28zM243 693q14 0 23 9.5t9 22.5q0 14 -9 23t-23 9q-13 0 -22.5 -9t-9.5 -23q0 -13 9.5 -22.5t22.5 -9.5zM266 -5v133q18 0 28.5 6t14.5 15t4 18v403h136v-419q0 -20 -11.5 -46.5t-34.5 -51.5
t-57.5 -41.5t-79.5 -16.5zM220 -5q-45 0 -79.5 16t-57 41t-34 51.5t-11.5 47.5v419h136v-403q0 -9 4 -18t14 -15t28 -6v-133z" />
    <glyph glyph-name="Uhungarumlaut" unicode="&#x170;" horiz-adv-x="512" 
d="M302 766l37 152h127l-73 -152h-91zM142 766l37 152h127l-73 -152h-91zM229 -5q-22 0 -55.5 11t-65.5 34t-54 61t-22 92v507h142v-507q0 -17 7.5 -28t18 -17t19 -8.5t10.5 -2.5v-142zM283 -5v142q2 0 10.5 2.5t19 8.5t18.5 17t8 28v507h140v-507q0 -54 -21.5 -92
t-53.5 -61.5t-65 -34t-56 -10.5z" />
    <glyph glyph-name="uhungarumlaut" unicode="&#x171;" horiz-adv-x="487" 
d="M289 629l37 152h127l-73 -152h-91zM129 629l37 152h127l-73 -152h-91zM266 -5v133q18 0 28.5 6t14.5 15t4 18v403h136v-419q0 -20 -11.5 -46.5t-34.5 -51.5t-57.5 -41.5t-79.5 -16.5zM220 -5q-45 0 -79.5 16t-57 41t-34 51.5t-11.5 47.5v419h136v-403q0 -9 4 -18t14 -15
t28 -6v-133z" />
    <glyph glyph-name="Uogonek" unicode="&#x172;" horiz-adv-x="512" 
d="M378 -199q-63 0 -100 24t-52.5 60.5t-15.5 74.5h92q0 -41 24.5 -54.5t51.5 -13.5v-91zM229 -5q-22 0 -55.5 11t-65.5 34t-54 61t-22 92v507h142v-507q0 -17 7.5 -28t18 -17t19 -8.5t10.5 -2.5v-142zM283 -5v142q2 0 10.5 2.5t19 8.5t18.5 17t8 28v507h140v-507
q0 -54 -21.5 -92t-53.5 -61.5t-65 -34t-56 -10.5z" />
    <glyph glyph-name="uogonek" unicode="&#x173;" horiz-adv-x="487" 
d="M367 -199q-63 0 -100 24t-52.5 60.5t-15.5 74.5h92q0 -41 24.5 -54.5t51.5 -13.5v-91zM266 -5v133q18 0 28.5 6t14.5 15t4 18v403h136v-419q0 -20 -11.5 -46.5t-34.5 -51.5t-57.5 -41.5t-79.5 -16.5zM220 -5q-45 0 -79.5 16t-57 41t-34 51.5t-11.5 47.5v419h136v-403
q0 -9 4 -18t14 -15t28 -6v-133z" />
    <glyph glyph-name="Ydieresis" unicode="&#x178;" horiz-adv-x="451" 
d="M311 766q-31 0 -53 22t-22 53q0 32 22 54t53 22q32 0 53.5 -22t21.5 -54q0 -31 -21.5 -53t-53.5 -22zM141 766q-31 0 -53 22t-22 53q0 32 22 54t53 22q32 0 53.5 -22t21.5 -54q0 -31 -21.5 -53t-53.5 -22zM143 0v252l-131 448h147l130 -447v-253h-146zM321 331l-66 234
l39 135h145l-109 -369h-9z" />
    <glyph glyph-name="Zacute" unicode="&#x179;" horiz-adv-x="426" 
d="M168 766l37 152h127l-73 -152h-91zM30 0v141l210 419h-210v140h366v-137l-210 -419h210v-144h-366z" />
    <glyph glyph-name="zacute" unicode="&#x17a;" horiz-adv-x="386" 
d="M148 629l37 152h127l-73 -152h-91zM30 0v131l173 309h-173v130h326v-130l-168 -309h168v-131h-326z" />
    <glyph glyph-name="Zdotaccent" unicode="&#x17b;" horiz-adv-x="426" 
d="M213 766q-31 0 -53 22t-22 54q0 31 22 53t54 22q31 0 52.5 -22t21.5 -54q0 -31 -21 -53t-54 -22zM30 0v141l210 419h-210v140h366v-137l-210 -419h210v-144h-366z" />
    <glyph glyph-name="zdotaccent" unicode="&#x17c;" horiz-adv-x="386" 
d="M193 629q-31 0 -53 22t-22 54q0 31 22 53t54 22q31 0 52.5 -22t21.5 -54q0 -31 -21 -53t-54 -22zM30 0v131l173 309h-173v130h326v-130l-168 -309h168v-131h-326z" />
    <glyph glyph-name="Zcaron" unicode="&#x17d;" horiz-adv-x="426" 
d="M179 766l-75 152h81l27 -57l28 57h82l-77 -152h-66zM30 0v141l210 419h-210v140h366v-137l-210 -419h210v-144h-366z" />
    <glyph glyph-name="zcaron" unicode="&#x17e;" horiz-adv-x="386" 
d="M159 629l-75 152h81l27 -57l28 57h82l-77 -152h-66zM30 0v131l173 309h-173v130h326v-130l-168 -309h168v-131h-326z" />
    <glyph glyph-name="florin" unicode="&#x192;" horiz-adv-x="382" 
d="M26 -168l27 105h55q14 0 21 6t9.5 13t2.5 8v436h-63v116h63v36q0 17 9.5 41t29 47.5t48 39.5t67.5 16h61l-27 -117h-33q-21 0 -27 -12.5t-6 -14.5v-37l66 1v-116h-66v-430q0 -31 -15 -63t-49 -53.5t-90 -21.5h-83z" />
    <glyph glyph-name="uni0218" unicode="&#x218;" horiz-adv-x="481" 
d="M149 -216l37 152h127l-37 -152h-127zM258 -3v130q11 1 22 6.5t20 15t14.5 21.5t5.5 26q0 25 -15 44.5t-38.5 34t-47.5 24.5t-43 16t-25 8q-29 9 -57.5 33t-47 62.5t-18.5 88.5q0 53 19.5 89.5t48.5 59t58.5 33.5t48.5 11v-132q-8 -3 -15.5 -8t-13 -13t-9 -17t-3.5 -19
q0 -18 9.5 -31t26.5 -23t38.5 -19.5t46.5 -19.5t50 -24q32 -17 61 -42t48 -59.5t19 -82.5q0 -57 -28 -105.5t-74.5 -78t-100.5 -29.5zM203 -3q-41 0 -74.5 17t-58 43t-37.5 53t-13 48l127 45q0 -20 9 -35.5t22 -25.5t25 -15v-130zM303 510q0 17 -7.5 29t-17.5 19.5t-20 9.5
v132q40 0 72 -15.5t55 -39.5t35.5 -49t12.5 -43z" />
    <glyph glyph-name="uni0219" unicode="&#x219;" horiz-adv-x="454" 
d="M141 -218l37 152h127l-37 -152h-127zM245 -5v126q12 0 26 5t24 15t10 25q0 20 -19.5 32.5t-49 21t-61 16.5t-55.5 19q-22 10 -43.5 29t-36 49t-14.5 73q0 50 18.5 82.5t46.5 51.5t57 27t50 8v-124q-23 0 -33.5 -7t-13 -15t-2.5 -13q0 -18 17.5 -33.5t56 -29t100.5 -27.5
q20 -4 39.5 -15t35.5 -29t26 -44.5t10 -62.5q0 -57 -25.5 -97.5t-68.5 -61.5t-95 -21zM200 -5q-64 0 -103.5 24t-58 59.5t-18.5 71.5l124 23q0 -15 8.5 -26.5t21.5 -18t26 -7.5v-126zM301 397q0 25 -12.5 36t-26.5 14.5t-19 3.5l1 124q54 0 94.5 -24t63 -60t22.5 -73z" />
    <glyph glyph-name="uni021A" unicode="&#x21a;" horiz-adv-x="463" 
d="M134 -213l37 152h127l-37 -152h-127zM161 0v562h-146v138h433v-138h-146v-562h-141z" />
    <glyph glyph-name="uni021B" unicode="&#x21b;" horiz-adv-x="324" 
d="M191 -213l37 152h127l-37 -152h-127zM254 0q-67 0 -104 23t-51.5 64.5t-14.5 97.5v256h-70v129h70v146h134v-146h66v-130h-66v-265q0 -11 7 -24t30 -13h29l30 -138h-60z" />
    <glyph glyph-name="circumflex" unicode="&#x2c6;" horiz-adv-x="270" 
d="M26 514l75 152h66l77 -152h-82l-28 57l-27 -57h-81z" />
    <glyph glyph-name="caron" unicode="&#x2c7;" horiz-adv-x="270" 
d="M101 514l-75 152h81l27 -57l28 57h82l-77 -152h-66z" />
    <glyph glyph-name="uni02C9" unicode="&#x2c9;" horiz-adv-x="416" 
d="M50 514v82h316v-82h-316z" />
    <glyph glyph-name="breve" unicode="&#x2d8;" horiz-adv-x="244" 
d="M122 430q-26 0 -48 13t-35 35t-13 48h64q0 -13 9.5 -22.5t22.5 -9.5q14 0 23 9.5t9 22.5h64q0 -26 -13 -48t-34.5 -35t-48.5 -13z" />
    <glyph glyph-name="dotaccent" unicode="&#x2d9;" horiz-adv-x="202" 
d="M101 603q-31 0 -53 22t-22 54q0 31 22 53t54 22q31 0 52.5 -22t21.5 -54q0 -31 -21 -53t-54 -22z" />
    <glyph glyph-name="ring" unicode="&#x2da;" horiz-adv-x="244" 
d="M122 430q-40 0 -68 28t-28 68t28 68t68 28t68 -28t28 -68t-28 -68t-68 -28zM122 494q14 0 23 9.5t9 22.5q0 14 -9 23t-23 9q-13 0 -22.5 -9t-9.5 -23q0 -13 9.5 -22.5t22.5 -9.5z" />
    <glyph glyph-name="ogonek" unicode="&#x2db;" horiz-adv-x="219" 
d="M106 -199q-63 0 -100 24t-52.5 60.5t-15.5 74.5h92q0 -41 24.5 -54.5t51.5 -13.5v-91z" />
    <glyph glyph-name="tilde" unicode="&#x2dc;" horiz-adv-x="333" 
d="M223 86q-26 0 -47 10t-40.5 20t-43.5 10q-13 0 -29.5 -5t-36.5 -17v102q21 12 38.5 17t31.5 5q26 0 46 -10t40 -20.5t45 -10.5q17 0 36 6.5t44 21.5v-101q-25 -16 -46 -22t-38 -6z" />
    <glyph glyph-name="hungarumlaut" unicode="&#x2dd;" horiz-adv-x="356" 
d="M185 605l37 152h127l-73 -152h-91zM25 605l37 152h127l-73 -152h-91z" />
    <glyph glyph-name="pi" unicode="&#x3c0;" horiz-adv-x="533" 
d="M87 0v389h-57v130h473v-130h-57v-247q0 -7 3.5 -15t13 -13.5t26.5 -5.5v-112q-49 0 -85.5 18t-56.5 49t-20 70v256h-118v-389h-122z" />
    <glyph glyph-name="sinAnusvara" unicode="&#xd82;" horiz-adv-x="354" 
d="M155 89q-34 0 -63 16t-47 45.5t-18 71.5v134q0 43 16.5 73.5t45.5 47.5t66 17v-100q-8 0 -14 -4.5t-9 -14t-3 -23.5v-127q0 -12 3.5 -20t9.5 -11.5t13 -3.5v-101zM191 89v101q7 0 13 3.5t9.5 11.5t3.5 20v127q0 14 -3 23.5t-9 14t-14 4.5v100q37 0 66 -17t45.5 -47.5
t16.5 -73.5v-134q0 -42 -18 -71.5t-47.5 -45.5t-62.5 -16z" />
    <glyph glyph-name="sinVisarga" unicode="&#xd83;" horiz-adv-x="388" 
d="M219 298v107q16 0 23.5 9.5t7.5 21.5t-8 21.5t-23 9.5v101h14q42 0 70 -19.5t41.5 -49.5t13.5 -64t-14 -65.5t-42 -51.5t-69 -20h-14zM155 -7q-41 0 -69 20t-42 51.5t-14 65.5t14 64t41.5 49.5t69.5 19.5h14v-101q-15 0 -23 -9.5t-8 -21.5t8 -21.5t23 -9.5v-107h-14z
M219 -7v107q16 0 23.5 9.5t7.5 21.5t-8 21.5t-23 9.5v101h14q42 0 70 -19.5t41.5 -49.5t13.5 -64t-14 -65.5t-42 -51.5t-69 -20h-14zM155 298q-41 0 -69 20t-42 51.5t-14 65.5t14 64t41.5 49.5t69.5 19.5h14v-101q-15 0 -23 -9.5t-8 -21.5t8 -21.5t23 -9.5v-107h-14z" />
    <glyph glyph-name="sinA" unicode="&#xd85;" horiz-adv-x="544" 
d="M257 0h-18q-56 0 -104 22t-76.5 66.5t-28.5 112.5t29 112.5t80.5 66.5t116.5 22h57q0 19 -10 31t-26 18t-34 6q-22 0 -41 -9.5t-26 -27.5l-118 39q11 40 38 66.5t64.5 39.5t77.5 13q50 0 97 -20t77 -59t30 -97v-139h-186q-12 0 -32 -2.5t-35.5 -15.5t-15.5 -44
q0 -37 21.5 -51t46.5 -14h16v-136zM312 -169v549q0 43 12.5 79t49.5 65.5t110 54.5l30 -145q-34 -9 -49 -19.5t-19 -23t-4 -29.5v-222h52v-140h-52v-169h-130z" />
    <glyph glyph-name="sinAa" unicode="&#xd86;" horiz-adv-x="821" 
d="M569 0v141h20q20 0 31 6t16.5 15.5t7 20.5t1.5 19v150q0 10 -1.5 22.5t-7 23.5t-16.5 18.5t-31 7.5h-20v140h20q70 0 113 -27t63.5 -72.5t20.5 -102.5v-160q0 -57 -20.5 -102.5t-63.5 -72.5t-113 -27h-20zM257 0h-18q-56 0 -104 22t-76.5 66.5t-28.5 112.5t29 112.5
t80.5 66.5t116.5 22h57q0 19 -10 31t-26 18t-34 6q-22 0 -41 -9.5t-26 -27.5l-118 39q11 40 38 66.5t64.5 39.5t77.5 13q50 0 97 -20t77 -59t30 -97v-139h-186q-12 0 -32 -2.5t-35.5 -15.5t-15.5 -44q0 -37 21.5 -51t46.5 -14h16v-136zM312 -169v549q0 43 12.5 79t49.5 65.5
t110 54.5l30 -145q-34 -9 -49 -19.5t-19 -23t-4 -29.5v-222h52v-140h-52v-169h-130z" />
    <glyph glyph-name="sinAe" unicode="&#xd87;" horiz-adv-x="821" 
d="M779 0q-53 0 -100 17.5t-76 56.5t-29 104v72q0 33 4.5 56.5t13.5 43t23 40t34 48.5h-70v136h222v-136q-26 -36 -43 -61t-26.5 -43t-13.5 -33t-4 -33v-66q0 -18 6.5 -30t15.5 -18t18.5 -8.5t15.5 -2.5h31v-143h-22zM257 0h-18q-56 0 -104 22t-76.5 66.5t-28.5 112.5
t29 112.5t80.5 66.5t116.5 22h57q0 19 -10 31t-26 18t-34 6q-22 0 -41 -9.5t-26 -27.5l-118 39q11 40 38 66.5t64.5 39.5t77.5 13q50 0 97 -20t77 -59t30 -97v-139h-186q-12 0 -32 -2.5t-35.5 -15.5t-15.5 -44q0 -37 21.5 -51t46.5 -14h16v-136zM312 -169v549q0 43 12.5 79
t49.5 65.5t110 54.5l30 -145q-34 -9 -49 -19.5t-19 -23t-4 -29.5v-222h52v-140h-52v-169h-130z" />
    <glyph glyph-name="sinAae" unicode="&#xd88;" horiz-adv-x="821" 
d="M769 0q-53 0 -97.5 16.5t-71 48.5t-26.5 78v40q0 24 10 43t27.5 37.5t39.5 38.5h-77v110l87 52h-87v110h217v-110l-89 -52h89v-110q-25 -19 -40.5 -33.5t-23 -26t-10 -22.5t-2.5 -24v-4q0 -15 5 -24.5t13.5 -15t18 -7.5t18.5 -2h21v-143h-22zM257 0h-18q-56 0 -104 22
t-76.5 66.5t-28.5 112.5t29 112.5t80.5 66.5t116.5 22h57q0 19 -10 31t-26 18t-34 6q-22 0 -41 -9.5t-26 -27.5l-118 39q11 40 38 66.5t64.5 39.5t77.5 13q50 0 97 -20t77 -59t30 -97v-139h-186q-12 0 -32 -2.5t-35.5 -15.5t-15.5 -44q0 -37 21.5 -51t46.5 -14h16v-136z
M312 -169v549q0 43 12.5 79t49.5 65.5t110 54.5l30 -145q-34 -9 -49 -19.5t-19 -23t-4 -29.5v-222h52v-140h-52v-169h-130z" />
    <glyph glyph-name="sinI" unicode="&#xd89;" horiz-adv-x="569" 
d="M196 0v128h29q40 0 72.5 8.5t56 26.5t36 46.5t12.5 68.5v67q0 27 -6.5 45t-18.5 28t-28.5 14.5t-36.5 4.5v141h16q52 0 100.5 -23t79.5 -65.5t31 -100.5v-140q0 -61 -21.5 -107.5t-57.5 -78t-81 -47.5t-92 -16h-91zM248 -204q-53 0 -89.5 17t-59.5 45t-34 61l133 34
q3 -10 10.5 -17t18.5 -10.5t21 -3.5q15 0 26 5t17 12.5t6 15.5h137q0 -45 -21.5 -81t-63 -57t-101.5 -21zM207 176q-69 0 -107.5 21.5t-54 54t-15.5 66.5v72q0 58 31 100t79.5 65t100.5 23h16v-141h-16q-16 0 -29 -4t-23 -12.5t-15.5 -20.5t-5.5 -27v-27q0 -6 1.5 -13
t7.5 -12t19 -5q20 0 24 10.5t4 20.5v18h130v-88q0 -7 -2.5 -23t-15.5 -34t-43.5 -31t-85.5 -13z" />
    <glyph glyph-name="sinIi" unicode="&#xd8a;" horiz-adv-x="609" 
d="M536 587q-30 0 -51.5 21.5t-21.5 50.5q0 30 21.5 51.5t51.5 21.5t51.5 -21.5t21.5 -51.5q0 -29 -21.5 -50.5t-51.5 -21.5zM123 697q-30 0 -51.5 21.5t-21.5 50.5q0 30 21.5 51.5t51.5 21.5t51.5 -21.5t21.5 -51.5q0 -29 -21.5 -50.5t-51.5 -21.5zM244 -5q-38 0 -76 12.5
t-69 41.5t-50 76t-19 116v154q0 36 5 64.5t18 56.5t38 60l201 262l112 -79l-181 -243q-21 -28 -32.5 -45.5t-16 -35.5t-4.5 -49v-151q0 -51 16.5 -73.5t57.5 -22.5v-144zM358 564q55 0 89.5 -23t51 -64.5t16.5 -98.5v-164q0 -86 -30 -133.5t-79 -66t-106 -19.5v144
q46 0 60.5 22.5t14.5 73.5v92q0 37 -3 59.5t-18 33.5t-52 11h-78v5l92 128h42z" />
    <glyph glyph-name="sinU" unicode="&#xd8b;" horiz-adv-x="569" 
d="M268 -169q-39 0 -80.5 16t-77.5 48t-58 79.5t-22 110.5v48q0 43 8.5 89t32.5 86t70.5 65t122.5 25h120q0 24 -14.5 36t-31.5 16t-26 4q-7 0 -21.5 -1.5t-28 -8.5t-19.5 -24l-115 44q11 38 39.5 62.5t67.5 36.5t80 12q52 0 97 -19.5t73 -61t28 -109.5v-128h-245
q-30 0 -49 -8.5t-29.5 -25t-14.5 -39t-4 -51.5v-48q0 -30 7.5 -50.5t20 -32.5t25.5 -18.5t25 -8.5t19 -3v-141zM324 -168v140q20 0 38 4t32.5 12.5t24.5 21.5t15 32l135 -38q-11 -52 -36.5 -85.5t-60 -52.5t-73 -26.5t-75.5 -7.5z" />
    <glyph glyph-name="sinUu" unicode="&#xd8c;" horiz-adv-x="973" 
d="M757 -8q-44 0 -85 19t-67 58t-26 97v36h127v-36q0 -18 8.5 -30t21.5 -18.5t27 -6.5t26 6t19.5 18.5t7.5 30.5v257q0 10 -5 15t-10 5q-6 0 -11 -5t-5 -15v-48q0 -42 -29.5 -64.5t-66.5 -22.5q-27 0 -52 12.5t-41.5 38.5t-16.5 66v159h92v-121q0 -8 5 -12.5t11 -4.5
q5 0 10 4.5t5 12.5v19q0 37 16.5 61t43 36t54.5 12q50 0 88 -34.5t39 -99.5v-271q0 -57 -27 -95.5t-69.5 -58.5t-89.5 -20zM268 -169q-39 0 -80.5 16t-77.5 48t-58 79.5t-22 110.5v48q0 43 8.5 89t32.5 86t70.5 65t122.5 25h120q0 24 -14.5 36t-31.5 16t-26 4
q-7 0 -21.5 -1.5t-28 -8.5t-19.5 -24l-115 44q11 38 39.5 62.5t67.5 36.5t80 12q52 0 97 -19.5t73 -61t28 -109.5v-128h-245q-30 0 -49 -8.5t-29.5 -25t-14.5 -39t-4 -51.5v-48q0 -30 7.5 -50.5t20 -32.5t25.5 -18.5t25 -8.5t19 -3v-141zM324 -168v140q20 0 38 4t32.5 12.5
t24.5 21.5t15 32l135 -38q-11 -52 -36.5 -85.5t-60 -52.5t-73 -26.5t-75.5 -7.5z" />
    <glyph glyph-name="sinRVocalic" unicode="&#xd8d;" horiz-adv-x="1015" 
d="M210 -8q-52 0 -93 21t-64 58.5t-23 88.5v42h139v-31q0 -19 14.5 -29.5t31.5 -10.5t31.5 10.5t14.5 31.5v29h128v-29q0 -21 14.5 -31.5t31.5 -10.5t31.5 10.5t14.5 29.5v31h139v-42q0 -55 -22.5 -92.5t-62.5 -56.5t-93 -19q-36 0 -66.5 10t-53.5 34q-22 -24 -50 -34
t-62 -10zM30 251v28q0 42 15 67t38.5 37t50.5 15.5t50 3.5h282q23 0 50 -3.5t50.5 -15.5t38.5 -37t15 -67v-28h-139v7q0 7 -4.5 12.5t-12.5 9t-20 3.5h-238q-12 0 -20.5 -3.5t-12.5 -9t-4 -12.5v-7h-139zM261 378v19q0 23 -10.5 34.5t-24.5 15.5t-23 4q-18 0 -29.5 -9.5
t-14.5 -20.5l-118 39q18 58 64 86.5t99 28.5q21 0 42 -4.5t41 -13t38 -21.5q18 13 38 21.5t41 13t42 4.5q53 0 99 -28.5t64 -86.5l-118 -39q-3 11 -14.5 20.5t-29.5 9.5q-9 0 -22.5 -4t-24.5 -15.5t-11 -34.5v-19h-128zM828 0q-39 0 -76 17.5t-60.5 53t-23.5 88.5
q0 39 15 73.5t49 56t90 21.5h6v-114h-6q-17 0 -27 -10t-10 -26q0 -20 13.5 -31t29.5 -11q15 0 26 11t11 33v220q0 14 -3.5 28t-15.5 24t-38 10h-90v130h108q45 0 81 -23t57 -63t21 -90v-241q0 -53 -23 -88t-59 -52t-75 -17z" />
    <glyph glyph-name="sinLVocalic" unicode="&#xd8f;" horiz-adv-x="978" 
d="M139 -6q-39 0 -66.5 27.5t-27.5 66.5t27.5 66.5t66.5 27.5t66.5 -27.5t27.5 -66.5t-27.5 -66.5t-66.5 -27.5zM53 50q-14 33 -18.5 69t-4.5 83h131q0 -35 5 -62t12 -54zM30 251v81q0 68 27.5 122t75 86t106.5 32q41 0 82 -16v-134l-23 8q-19 7 -44 7q-21 0 -42.5 -10
t-36 -38t-14.5 -82v-56h-131zM817 251v56q0 54 -14.5 82t-35.5 38t-43 10q-25 0 -44 -7l-23 -8v134q41 16 82 16q60 0 107 -32t74.5 -86t27.5 -122v-81h-131zM925 50l-125 36q8 27 12.5 54t4.5 62h131q0 -47 -4.5 -83t-18.5 -69zM839 -6q-39 0 -66.5 27.5t-27.5 66.5
t27.5 66.5t66.5 27.5t66.5 -27.5t27.5 -66.5t-27.5 -66.5t-66.5 -27.5zM464 -12q-133 0 -194 53.5t-61 160.5h140q0 -26 13 -44t36.5 -26.5t54.5 -8.5h72q33 0 56 9t35.5 27t12.5 43h140q0 -103 -62.5 -158.5t-189.5 -55.5h-53zM210 251q0 61 20.5 93.5t57.5 45t85 12.5h225
q54 0 92 -11.5t58.5 -44t20.5 -95.5h-139q0 6 -1 13.5t-7 13t-21 5.5h-217q-16 0 -23.5 -5.5t-9.5 -13t-2 -13.5h-139zM425 378v19q0 23 -10.5 34.5t-24.5 15.5t-23 4q-18 0 -29.5 -9.5t-14.5 -20.5l-118 39q18 58 64 86.5t99 28.5q21 0 42 -4.5t41 -13t38 -21.5
q18 13 38 21.5t41 13t42 4.5q53 0 99 -28.5t64 -86.5l-118 -39q-3 11 -14.5 20.5t-29.5 9.5q-9 0 -22.5 -4t-24.5 -15.5t-11 -34.5v-19h-128z" />
    <glyph glyph-name="sinLlVocalic" unicode="&#xd90;" horiz-adv-x="1402" 
d="M1186 -8q-44 0 -85 19t-67 58t-26 97v36h127v-36q0 -18 8.5 -30t21.5 -18.5t27 -6.5t26 6t19.5 18.5t7.5 30.5v257q0 10 -5 15t-10 5q-6 0 -11 -5t-5 -15v-48q0 -42 -29.5 -64.5t-66.5 -22.5q-27 0 -52 12.5t-41.5 38.5t-16.5 66v159h92v-121q0 -8 5 -12.5t11 -4.5
q5 0 10 4.5t5 12.5v19q0 37 16.5 61t43 36t54.5 12q50 0 88 -34.5t39 -99.5v-271q0 -57 -27 -95.5t-69.5 -58.5t-89.5 -20zM139 -6q-39 0 -66.5 27.5t-27.5 66.5t27.5 66.5t66.5 27.5t66.5 -27.5t27.5 -66.5t-27.5 -66.5t-66.5 -27.5zM53 50q-14 33 -18.5 69t-4.5 83h131
q0 -35 5 -62t12 -54zM30 251v81q0 68 27.5 122t75 86t106.5 32q41 0 82 -16v-134l-23 8q-19 7 -44 7q-21 0 -42.5 -10t-36 -38t-14.5 -82v-56h-131zM817 251v56q0 54 -14.5 82t-35.5 38t-43 10q-25 0 -44 -7l-23 -8v134q41 16 82 16q60 0 107 -32t74.5 -86t27.5 -122v-81
h-131zM925 50l-125 36q8 27 12.5 54t4.5 62h131q0 -47 -4.5 -83t-18.5 -69zM839 -6q-39 0 -66.5 27.5t-27.5 66.5t27.5 66.5t66.5 27.5t66.5 -27.5t27.5 -66.5t-27.5 -66.5t-66.5 -27.5zM464 -12q-133 0 -194 53.5t-61 160.5h140q0 -26 13 -44t36.5 -26.5t54.5 -8.5h72
q33 0 56 9t35.5 27t12.5 43h140q0 -103 -62.5 -158.5t-189.5 -55.5h-53zM210 251q0 61 20.5 93.5t57.5 45t85 12.5h225q54 0 92 -11.5t58.5 -44t20.5 -95.5h-139q0 6 -1 13.5t-7 13t-21 5.5h-217q-16 0 -23.5 -5.5t-9.5 -13t-2 -13.5h-139zM425 378v19q0 23 -10.5 34.5
t-24.5 15.5t-23 4q-18 0 -29.5 -9.5t-14.5 -20.5l-118 39q18 58 64 86.5t99 28.5q21 0 42 -4.5t41 -13t38 -21.5q18 13 38 21.5t41 13t42 4.5q53 0 99 -28.5t64 -86.5l-118 -39q-3 11 -14.5 20.5t-29.5 9.5q-9 0 -22.5 -4t-24.5 -15.5t-11 -34.5v-19h-128z" />
    <glyph glyph-name="sinE" unicode="&#xd91;" horiz-adv-x="604" 
d="M283 -5q-63 0 -111.5 27t-75.5 73.5t-27 102.5q0 10 2 24.5t9 29.5h-50v102h217v6q0 15 -6 23.5t-15.5 12.5t-20.5 4q-10 0 -23.5 -5t-16.5 -19l-99 26q13 44 39 65.5t54.5 28.5t47.5 7q33 0 62 -12t48 -32q17 -19 25 -44t8 -65v-98h-84q-4 0 -18.5 -2t-27.5 -12.5
t-13 -36.5q0 -17 8 -31t25 -22t43 -8v-145zM339 -5v145q21 0 43 7.5t37 31t15 71.5h140q0 -129 -59.5 -192t-175.5 -63zM339 755q67 0 120 -21.5t84 -73t31 -143.5v-267h-140v258q0 64 -16.5 92.5t-67.5 28.5h-11v-15q0 -16 3.5 -31.5t16.5 -25t39 -9.5v-107q-64 0 -104 23
t-58 61t-18 81v149h121z" />
    <glyph glyph-name="sinEe" unicode="&#xd92;" horiz-adv-x="604" 
d="M437 518v301h136v-301h-136zM283 -5q-63 0 -111.5 27t-75.5 73.5t-27 102.5q0 10 2 24.5t9 29.5h-50v102h217v6q0 15 -6 23.5t-15.5 12.5t-20.5 4q-10 0 -23.5 -5t-16.5 -19l-99 26q13 44 39 65.5t54.5 28.5t47.5 7q33 0 62 -12t48 -32q17 -19 25 -44t8 -65v-98h-84
q-4 0 -18.5 -2t-27.5 -12.5t-13 -36.5q0 -17 8 -31t25 -22t43 -8v-145zM339 -5v145q21 0 43 7.5t37 31t15 71.5h140q0 -129 -59.5 -192t-175.5 -63zM339 755q67 0 120 -21.5t84 -73t31 -143.5v-267h-140v258q0 64 -16.5 92.5t-67.5 28.5h-11v-15q0 -16 3.5 -31.5t16.5 -25
t39 -9.5v-107q-64 0 -104 23t-58 61t-18 81v149h121z" />
    <glyph glyph-name="sinAi" unicode="&#xd93;" horiz-adv-x="1061" 
d="M740 -5q-63 0 -111.5 27t-75.5 73.5t-27 102.5q0 10 2 24.5t9 29.5h-50v102h217v6q0 15 -6 23.5t-15.5 12.5t-20.5 4q-10 0 -23.5 -5t-16.5 -19l-99 26q13 44 39 65.5t54.5 28.5t47.5 7q33 0 62 -12t48 -32q17 -19 25 -44t8 -65v-98h-84q-4 0 -18.5 -2t-27.5 -12.5
t-13 -36.5q0 -17 8 -31t25 -22t43 -8v-145zM796 -5v145q21 0 43 7.5t37 31t15 71.5h140q0 -129 -59.5 -192t-175.5 -63zM796 755q67 0 120 -21.5t84 -73t31 -143.5v-267h-140v258q0 64 -16.5 92.5t-67.5 28.5h-11v-15q0 -16 3.5 -31.5t16.5 -25t39 -9.5v-107q-64 0 -104 23
t-58 61t-18 81v149h121zM188 -5q-54 0 -86 23t-47.5 57t-20 67.5t-4.5 55.5v173q0 29 7.5 62.5t27 63t54.5 48.5t89 19h41v-130h-30q-14 0 -26.5 -7.5t-20 -21.5t-7.5 -34v-173q0 -19 3 -36t12.5 -27t28.5 -10v-130h-21zM257 -5v130q18 0 26.5 10.5t8.5 28.5v33
q0 13 -5.5 18.5t-15 7t-23.5 1.5h-15v130h87q30 0 54 -8t38.5 -29.5t14.5 -61.5v-98q0 -43 -17 -80t-48 -59.5t-74 -22.5h-31zM302 400q-1 8 -5.5 14.5t-11.5 11t-16 6.5t-20 2v130h21q49 0 81.5 -21.5t51 -52.5t21.5 -59z" />
    <glyph glyph-name="sinO" unicode="&#xd94;" horiz-adv-x="606" 
d="M196 -8q-47 0 -84.5 21t-59.5 58.5t-22 88.5v182q0 43 20 72t51 44t63 15q30 0 57 -12t43.5 -36t16.5 -61v-16q0 -8 5 -12.5t10 -4.5q6 0 11 4.5t5 12.5v121h92v-129q0 -37 -16 -62t-41 -37t-52 -12q-37 0 -67 23t-30 68v8q0 10 -5 15t-11 5q-5 0 -10 -5t-5 -15v-159
q0 -13 6.5 -22t16.5 -14t21 -5t20.5 4.5t15.5 13.5t6 23v33h100v-33q0 -13 6 -22t16 -13.5t20 -4.5q11 0 21 4.5t16.5 13.5t6.5 22v33h137v-42q0 -51 -22 -88.5t-59.5 -58.5t-85.5 -21q-67 0 -106 43q-22 -24 -50 -33.5t-57 -9.5zM172 530l-137 36q0 42 19.5 76.5t52 60
t73 39t82.5 13.5v-138q-24 0 -44.5 -6.5t-33 -25.5t-12.5 -55zM439 202v306q0 54 -15 76.5t-42 27t-63 4.5v139q88 0 145 -22.5t84.5 -73.5t27.5 -139v-318h-137z" />
    <glyph glyph-name="sinOo" unicode="&#xd95;" horiz-adv-x="606" 
d="M196 -8q-47 0 -84.5 21t-59.5 58.5t-22 88.5v182q0 43 20 72t51 44t63 15q30 0 57 -12t43.5 -36t16.5 -61v-16q0 -8 5 -12.5t10 -4.5q6 0 11 4.5t5 12.5v121h92v-129q0 -38 -15.5 -63t-39.5 -36.5t-50 -11.5q-38 0 -69.5 24t-31.5 67v8q0 10 -5 15t-11 5q-5 0 -10 -5
t-5 -15v-159q0 -13 6.5 -22t16.5 -14t21 -5t20.5 4.5t15.5 13.5t6 23v33h100v-33q0 -13 6 -22t16 -13.5t20 -4.5q11 0 21 4.5t16.5 13.5t6.5 22v34h137v-43q0 -51 -22 -88.5t-59.5 -58.5t-85.5 -21q-67 0 -106 43q-22 -24 -50 -33.5t-57 -9.5zM439 203v252q0 30 -12.5 44
t-33 18.5t-45.5 4.5v130q80 0 130.5 -20.5t74 -60t23.5 -97.5v-271h-137zM68 522v130h35q-15 13 -22 28t-7 31q0 27 16.5 51.5t44 40.5t58.5 16h91v-116h-45q-22 0 -28.5 -8.5t-6.5 -16.5q0 -13 9.5 -19.5t25.5 -6.5h109v-130h-280zM431 673q0 14 -8 20t-23.5 8t-38.5 2h-20
v116h52q56 0 90 -11t52 -31t24.5 -46.5t6.5 -57.5h-135z" />
    <glyph glyph-name="sinAu" unicode="&#xd96;" horiz-adv-x="1030" 
d="M814 -8q-44 0 -85 19t-67 58t-26 97v36h127v-36q0 -18 8.5 -30t21.5 -18.5t27 -6.5t26 6t19.5 18.5t7.5 30.5v257q0 10 -5 15t-10 5q-6 0 -11 -5t-5 -15v-48q0 -42 -29.5 -64.5t-66.5 -22.5q-27 0 -52 12.5t-41.5 38.5t-16.5 66v159h92v-121q0 -8 5 -12.5t11 -4.5
q5 0 10 4.5t5 12.5v19q0 37 16.5 61t43 36t54.5 12q50 0 88 -34.5t39 -99.5v-271q0 -57 -27 -95.5t-69.5 -58.5t-89.5 -20zM196 -8q-47 0 -84.5 21t-59.5 58.5t-22 88.5v182q0 43 20 72t51 44t63 15q30 0 57 -12t43.5 -36t16.5 -61v-16q0 -8 5 -12.5t10 -4.5q6 0 11 4.5
t5 12.5v121h92v-129q0 -37 -16 -62t-41 -37t-52 -12q-37 0 -67 23t-30 68v8q0 10 -5 15t-11 5q-5 0 -10 -5t-5 -15v-159q0 -13 6.5 -22t16.5 -14t21 -5t20.5 4.5t15.5 13.5t6 23v33h100v-33q0 -13 6 -22t16 -13.5t20 -4.5q11 0 21 4.5t16.5 13.5t6.5 22v33h137v-42
q0 -51 -22 -88.5t-59.5 -58.5t-85.5 -21q-67 0 -106 43q-22 -24 -50 -33.5t-57 -9.5zM172 530l-137 36q0 42 19.5 76.5t52 60t73 39t82.5 13.5v-138q-24 0 -44.5 -6.5t-33 -25.5t-12.5 -55zM439 202v306q0 54 -15 76.5t-42 27t-63 4.5v139q88 0 145 -22.5t84.5 -73.5
t27.5 -139v-318h-137z" />
    <glyph glyph-name="sinKa" unicode="&#xd9a;" horiz-adv-x="800" 
d="M200 567q50 0 87 -20t50 -45l-92 -100q0 26 -17 35t-32 9q-22 0 -35.5 -13.5t-13.5 -30.5l-117 37q7 49 35.5 77t65.5 39.5t69 11.5zM525 574q64 0 119.5 -27.5t90.5 -83.5t35 -142v-116q0 -58 -20 -104.5t-63 -74t-113 -27.5v143q20 0 31 6.5t16.5 16t7 20.5t1.5 20v102
q0 38 -17 66.5t-44.5 44.5t-59.5 16q-21 0 -42.5 -8.5t-41.5 -25.5l-270 -219l-125 -21v90l271 230q45 47 104.5 70.5t119.5 23.5zM203 -7q-33 0 -64.5 15t-52.5 40.5t-21 57.5v16q0 13 -2.5 26.5t-19.5 13.5q-4 0 -7 -0.5t-6 -1.5l117 95q10 -8 17.5 -16.5t12 -17.5
t4.5 -19v-42q0 -14 9.5 -21t20.5 -7t20 7t9 21v42h100v-40q0 -15 9.5 -22.5t20.5 -7.5t20.5 7.5t9.5 22.5v40q0 16 -3.5 29.5t-13.5 25t-32 19.5l97 78q32 -13 49.5 -33t24.5 -46t7 -57v-82q0 -44 -21.5 -76.5t-54.5 -49.5t-68 -17q-27 0 -52 10.5t-43 32.5
q-15 -22 -38 -32.5t-49 -10.5z" />
    <glyph glyph-name="sinKha" unicode="&#xd9b;" horiz-adv-x="625" 
d="M440 -7q-44 0 -85.5 19.5t-68 52t-26.5 69.5v88h135v-46q0 -16 9.5 -23.5t20.5 -7.5t20.5 7.5t9.5 23.5v324q0 59 -18 87.5t-77 28.5h-31v139h31q67 0 120 -22.5t84 -77.5t31 -155v-301q0 -76 -22.5 -121t-57.5 -65t-75 -20zM260 -65v326q0 26 -14.5 39t-32.5 13t-33 -13
t-15 -39v-59q0 -18 3 -32t13.5 -22t32.5 -8v-140q-76 0 -115.5 27t-54 70.5t-14.5 91.5v84q0 61 27.5 100.5t71 59t89.5 19.5q45 0 85.5 -17.5t66 -51t25.5 -83.5v-365h-135zM183 530l-137 36q0 42 19.5 76.5t52 60t73 39t82.5 13.5v-139q-24 0 -44.5 -6.5t-33 -25
t-12.5 -54.5z" />
    <glyph glyph-name="sinGa" unicode="&#xd9c;" horiz-adv-x="717" 
d="M490 -8v143q26 0 38 11t15 25.5t3 26.5v150q0 14 -3 31t-15 29.5t-38 12.5v143q70 0 113 -27.5t63.5 -74t20.5 -104.5v-160q0 -58 -20.5 -104.5t-63.5 -74t-113 -27.5zM227 -8q-69 0 -112.5 27.5t-64 74t-20.5 104.5v160q0 58 20.5 104.5t64 74t112.5 27.5v-143
q-26 0 -38 -12.5t-15 -29.5t-3 -31v-150q0 -12 3 -26.5t15 -25.5t38 -11v-143zM283 -8v143q27 0 38 9.5t13.5 22.5t2.5 21q0 9 -2.5 21.5t-13.5 22t-38 9.5h-12v106h100q18 0 39 -10t36 -38t15 -83v-50q0 -91 -45 -132.5t-133 -41.5zM254 241v109q0 59 15 107.5t54 77.5
t111 29v-143q-23 0 -31.5 -12.5t-9 -29t-0.5 -29.5v-109h-139z" />
    <glyph glyph-name="sinGha" unicode="&#xd9d;" 
d="M233 -11q-50 0 -87.5 21t-58 58.5t-20.5 88.5v42h139v-33q0 -12 8.5 -23t30.5 -11q23 0 30.5 12t7.5 22q0 11 7 24.5t27 13.5h90q20 0 27 -13.5t7 -24.5q0 -10 8 -22t30 -12q23 0 31 12.5t8 21.5v33h139v-42q0 -51 -20.5 -88.5t-57.5 -58.5t-88 -21q-53 0 -78.5 22
t-25.5 57q0 17 -8 25t-17 8q-10 0 -17.5 -8t-7.5 -25q0 -35 -25.5 -57t-78.5 -22zM67 251v9q0 10 1 15t3 8h-41v119h473q23 0 50 -3.5t50.5 -15.5t38.5 -37t15 -67v-28h-139v6q0 6 -4.5 12t-12.5 10t-20 4h-235q-14 0 -23 -4t-13 -10t-4 -12v-6h-139zM298 378v19
q0 23 -10.5 34.5t-24.5 15.5t-23 4q-18 0 -29.5 -9.5t-14.5 -20.5l-118 39q18 58 64 86.5t99 28.5q21 0 42 -4.5t41 -13t38 -21.5q18 13 38 21.5t41 13t42 4.5q53 0 99 -28.5t64 -86.5l-118 -39q-3 11 -14.5 20.5t-29.5 9.5q-9 0 -22.5 -4t-24.5 -15.5t-11 -34.5v-19h-128z
" />
    <glyph glyph-name="sinNga" unicode="&#xd9e;" horiz-adv-x="593" 
d="M205 -8q-48 0 -88 21t-63.5 58.5t-23.5 88.5v37q0 31 3 58.5t15 49t40.5 34t79.5 12.5h46v-100h-13q-9 0 -16.5 -3.5t-12 -10.5t-4.5 -20v-51q0 -6 3.5 -14t12 -14t23.5 -6t23 6t11.5 14t3.5 14v36h100v-36q0 -6 3.5 -14t11.5 -14t23 -6t23.5 6t12 14t3.5 14v34h141v-40
q0 -76 -45 -122t-114 -46q-25 0 -53.5 9.5t-50.5 33.5q-19 -25 -42.5 -34t-52.5 -9zM214 251v100h15q11 0 17 7.5t6 15.5q0 9 -5.5 16t-17.5 7h-55q-8 0 -13 -3.5t-7.5 -8.5t-2.5 -11h-98q0 31 13.5 59t40 46t66.5 18h65q40 0 66.5 -18t40 -46t13.5 -59t-13.5 -59t-40 -46
t-66.5 -18h-24zM173 528l-137 36q0 42 20.5 76.5t54.5 60t76 39t84 13.5v-138q-24 0 -46.5 -6.5t-37 -25.5t-14.5 -55zM422 200v296q0 43 -6.5 68.5t-26.5 37.5t-62 12v139q71 0 124 -20t82.5 -71t29.5 -144v-318h-141z" />
    <glyph glyph-name="sinNnga" unicode="&#xd9f;" horiz-adv-x="911" 
d="M103 -29q-30 39 -46 76t-21.5 77t-5.5 85v78q0 62 8.5 113t32.5 87.5t71 56.5t123 20h156v-143h-197q-19 0 -30.5 -8.5t-17.5 -25t-8 -42t-2 -58.5v-78q0 -40 3.5 -70.5t17.5 -59.5t46 -68zM421 -8q-69 0 -112.5 27.5t-64 74t-20.5 104.5v160q0 58 20.5 104.5t64 74
t112.5 27.5v-143q-26 0 -38 -12.5t-15 -29.5t-3 -31v-150q0 -12 3 -26.5t15 -25.5t38 -11v-143zM477 -8v143q27 0 38 9.5t13.5 22.5t2.5 21q0 9 -2.5 21.5t-13.5 22t-38 9.5h-12v106h100q18 0 39 -10t36 -38t15 -83v-50q0 -91 -45 -132.5t-133 -41.5zM448 241v109
q0 59 15 107.5t54 77.5t111 29v-143q-23 0 -31.5 -12.5t-9 -29t-0.5 -29.5v-109h-139zM684 -8v143q26 0 38 11t15 25.5t3 26.5v150q0 14 -3 31t-15 29.5t-38 12.5v143q70 0 113 -27.5t63.5 -74t20.5 -104.5v-160q0 -58 -20.5 -104.5t-63.5 -74t-113 -27.5z" />
    <glyph glyph-name="sinCa" unicode="&#xda0;" horiz-adv-x="604" 
d="M339 -5v140q21 0 43 7.5t37 32.5t15 75v248q0 59 -18 88.5t-77 29.5v139q67 0 120 -21t84 -72.5t31 -141.5v-270q0 -129 -59.5 -192t-175.5 -63zM283 -5q-63 0 -111.5 27.5t-75.5 73t-27 99.5q0 12 2 27.5t9 29.5h-50v102h217v6q0 15 -6 23.5t-15.5 12.5t-20.5 4
q-10 0 -23.5 -5t-16.5 -19l-99 26q13 44 39 65.5t54.5 28.5t47.5 7q33 0 62 -12t48 -32q17 -19 25 -44t8 -65v-98h-84q-18 0 -31 -8t-20 -21t-7 -27q0 -15 8 -29t24.5 -23t42.5 -9v-140zM203 530l-137 36q0 40 18.5 74t50 60t70 40.5t78.5 14.5v-138q-20 0 -38.5 -8t-30 -27
t-11.5 -52z" />
    <glyph glyph-name="sinCha" unicode="&#xda1;" horiz-adv-x="655" 
d="M289 -12q-133 0 -194 53.5t-61 160.5h140q0 -26 13 -44t36.5 -26.5t54.5 -8.5h72q33 0 56 9t35.5 27t12.5 43v34l-37 -1q-51 -1 -88.5 21.5t-58 61t-20.5 82.5q0 48 22.5 86t60.5 60.5t84 22.5q47 0 85 -22.5t60.5 -60.5t22.5 -84h-124q0 17 -12.5 29.5t-29.5 12.5
q-11 0 -21 -5.5t-15.5 -15t-5.5 -21.5q0 -11 5.5 -21t15.5 -15.5t21 -5.5h67q51 0 79.5 -28.5t28.5 -69.5v-60q0 -103 -62.5 -158.5t-189.5 -55.5h-53zM35 251q0 61 20.5 93.5t57.5 45t85 12.5h52q0 20 -10.5 30.5t-24 14.5t-23.5 4q-18 0 -29.5 -9.5t-14.5 -20.5l-118 39
q18 58 64 86.5t103 28.5q20 0 38.5 -3.5t36 -11t32.5 -19.5t28 -29l54 -229h-177q-16 0 -23.5 -5.5t-9.5 -13t-2 -13.5h-139zM304 522l243 315l103 -76l-219 -291z" />
    <glyph glyph-name="sinJa" unicode="&#xda2;" horiz-adv-x="653" 
d="M289 -12q-133 0 -194 53.5t-61 160.5h140q0 -26 13 -44t36.5 -26.5t54.5 -8.5h72q33 0 56 9t35.5 27t12.5 43h140q0 -103 -62.5 -158.5t-189.5 -55.5h-53zM35 251q0 61 20.5 93.5t57.5 45t85 12.5h225q54 0 92 -11.5t58.5 -44t20.5 -95.5h-139q0 6 -1 13.5t-7 13t-21 5.5
h-217q-16 0 -23.5 -5.5t-9.5 -13t-2 -13.5h-139zM250 378v19q0 23 -10.5 34.5t-24.5 15.5t-23 4q-18 0 -29.5 -9.5t-14.5 -20.5l-118 39q18 58 64 86.5t99 28.5q21 0 42 -4.5t41 -13t38 -21.5q18 13 38 21.5t41 13t42 4.5q53 0 99 -28.5t64 -86.5l-118 -39q-3 11 -14.5 20.5
t-29.5 9.5q-9 0 -22.5 -4t-24.5 -15.5t-11 -34.5v-19h-128zM304 522l243 315l103 -76l-219 -291z" />
    <glyph glyph-name="sinJha" unicode="&#xda3;" horiz-adv-x="1138" 
d="M30 160v99l305 250q47 35 104 52t112 17q68 0 126.5 -24.5t94.5 -77.5t36 -140h-137q0 42 -18.5 65.5t-46 32.5t-56.5 9q-35 0 -67.5 -11.5t-57.5 -31.5l-270 -219zM147 402l-117 37q7 49 35.5 77t65.5 39.5t69 11.5q50 0 87 -20t50 -45l-92 -100q0 26 -17 35t-32 9
q-22 0 -35.5 -13.5t-13.5 -30.5zM750 -8q-48 0 -88 21t-63.5 58.5t-23.5 88.5v102q0 31 5.5 64t25.5 62t62 47l78 19l62 -118h-22q-15 0 -28 -3t-23.5 -11.5t-16 -22.5t-5.5 -37v-96q0 -6 3.5 -14t12 -14t23.5 -6t23.5 6t11.5 14t3 14v36h100v-36q0 -6 3 -14t11.5 -14
t23.5 -6t23.5 6t12 14t3.5 14v36h141v-42q0 -76 -45 -122t-114 -46q-25 0 -53.5 9.5t-50.5 33.5q-19 -25 -42.5 -34t-52.5 -9zM734 588l-136 49q19 37 51 63.5t73.5 40.5t85.5 14v-138q-16 0 -29.5 -2.5t-24.5 -8.5t-20 -18zM967 202v296q0 43 -8.5 68.5t-30.5 37.5t-64 12
v139q71 0 126 -20t86.5 -71t31.5 -144v-318h-141zM365 287l83 67q32 -13 49.5 -33t24.5 -46t7 -57v-82q0 -44 -21.5 -76.5t-54.5 -49.5t-68 -17q-27 0 -52 10.5t-43 32.5q-15 -22 -38 -32.5t-49 -10.5q-33 0 -64.5 15t-52.5 40.5t-21 57.5v16q0 13 -2.5 26.5t-19.5 13.5
q-4 0 -7 -0.5t-6 -1.5l117 95q10 -8 17.5 -16.5t12 -17.5t4.5 -19v-42q0 -14 9.5 -21t20.5 -7t20 7t9 21v42h100v-40q0 -15 9.5 -22.5t20.5 -7.5t20.5 7.5t9.5 22.5v40q0 14 -2.5 26.5t-10 22.5t-22.5 18v18z" />
    <glyph glyph-name="sinNya" unicode="&#xda4;" horiz-adv-x="1168" 
d="M875 -1q-60 0 -112 20.5t-83.5 64.5t-31.5 115q0 67 29 110.5t80 65.5t117 22h44q0 23 -12 36.5t-30.5 19.5t-39.5 7.5t-40 1.5v130q51 0 98.5 -8.5t85 -30.5t59.5 -59.5t22 -96.5v-135h-187q-12 0 -31.5 -2.5t-35.5 -15.5t-16 -44q0 -27 13 -41t32.5 -19t38.5 -5h37
q25 0 45 6t30 30l128 -34q-9 -32 -29 -57.5t-47 -43.5t-59.5 -27.5t-67.5 -9.5h-37zM111 -41q-30 39 -47.5 76t-25.5 77t-8 85v90q0 90 31 149t81 88.5t106 29.5q11 0 29 -3t49 -18v-131q-35 11 -50 14.5t-26 3.5q-19 0 -38.5 -10.5t-32.5 -39t-13 -83.5v-90
q0 -40 5.5 -70.5t21.5 -59.5t48 -68zM382 -7q-33 0 -65 15t-52.5 40.5t-20.5 57.5v16q0 13 -2.5 26.5t-19.5 13.5q-4 0 -7 -0.5t-6 -1.5l117 95q10 -8 17.5 -16.5t12 -17.5t4.5 -19v-42q0 -14 9.5 -21t20.5 -7t20 7t9 21v42h100v-40q0 -15 9.5 -22.5t20.5 -7.5t20.5 7.5
t9.5 22.5v40q0 16 -3.5 29.5t-13.5 25t-32 19.5l97 78q32 -13 49.5 -33t24.5 -46t7 -57v-82q0 -44 -21.5 -76.5t-54.5 -49.5t-68 -17q-27 0 -52 10.5t-43 32.5q-15 -22 -38 -32.5t-49 -10.5zM326 402l-117 37q7 49 35.5 77t65.5 39.5t69 11.5q50 0 87 -20t50 -45l-92 -100
q0 26 -17 35t-32 9q-22 0 -35.5 -13.5t-13.5 -30.5zM985 -205q-59 0 -101 21t-63.5 57t-21.5 81h137q0 -8 6 -15.5t17.5 -12.5t25.5 -5q16 0 31 8t19 23l133 -34q-11 -33 -33.5 -61t-59.5 -45t-90 -17zM209 160v99l301 245q34 28 67 47.5t72.5 30.5t91.5 11v-131
q-46 0 -77.5 -19.5t-59.5 -42.5l-270 -219z" />
    <glyph glyph-name="sinJnya" unicode="&#xda5;" horiz-adv-x="1083" 
d="M790 -8q-69 0 -115 28t-69 72t-23 91t22 89.5t66.5 69.5t111.5 27h50q0 25 -16.5 36.5t-39.5 14t-42 1.5t-24 -1v144q26 0 60.5 -2t70 -10.5t66 -29t49.5 -57.5t19 -96v-135h-187q-36 0 -53 -16t-17 -36t18 -37t53 -17h37q25 0 45 6t30 30l128 -34q-9 -32 -29 -57.5
t-47 -43.5t-59.5 -27.5t-67.5 -9.5h-37zM111 -41q-30 39 -47.5 76t-25.5 77t-8 85v90q0 62 8.5 113t32.5 87.5t71 56.5t123 20h156v-143h-197q-19 0 -30.5 -8.5t-17.5 -25t-8 -42t-2 -58.5v-90q0 -40 5.5 -70.5t21.5 -59.5t48 -68zM421 -8q-69 0 -112.5 27.5t-64 74
t-20.5 104.5v160q0 58 20.5 104.5t64 74t112.5 27.5v-143q-26 0 -38 -12.5t-15 -29.5t-3 -31v-150q0 -12 3 -26.5t15 -25.5t38 -11v-143zM477 -8v143q27 0 38 9.5t13.5 22.5t2.5 21q0 9 -2.5 21.5t-13.5 22t-38 9.5h-12v106h100q18 0 39 -15.5t36 -48.5t15 -88v-29
q0 -91 -45 -132.5t-133 -41.5zM900 -212q-59 0 -101 21t-63.5 57t-21.5 81h137q0 -8 6 -15.5t17.5 -12.5t25.5 -5q16 0 31 8t19 23l133 -34q-11 -33 -33.5 -61t-59.5 -45t-90 -17zM448 241v109q0 59 15 107.5t54 77.5t111 29h28v-143h-28q-23 0 -31.5 -12.5t-9 -29
t-0.5 -29.5v-109h-139z" />
    <glyph glyph-name="sinNyja" unicode="&#xda6;" horiz-adv-x="828" 
d="M106 -41q-30 39 -46.5 75t-23 74.5t-6.5 83.5v140q0 10 2.5 37t14 61t37.5 66.5t73.5 54t122.5 21.5q13 0 29.5 -2.5t11.5 -16.5v-131q-25 9 -39.5 12t-27.5 3q-21 0 -42.5 -10t-36 -38t-14.5 -82v-110q0 -40 5.5 -70.5t21.5 -59.5t48 -68zM464 -12q-133 0 -194 53.5
t-61 160.5h140q0 -26 13 -44t36.5 -26.5t54.5 -8.5h72q33 0 56 9t35.5 27t12.5 43h140q0 -103 -62.5 -158.5t-189.5 -55.5h-53zM210 251q0 61 20.5 93.5t57.5 45t85 12.5h225q54 0 92 -11.5t58.5 -44t20.5 -95.5h-139q0 6 -1 13.5t-7 13t-21 5.5h-217q-16 0 -23.5 -5.5
t-9.5 -13t-2 -13.5h-139zM425 378v19q0 23 -10.5 34.5t-24.5 15.5t-23 4q-18 0 -29.5 -9.5t-14.5 -20.5l-118 39q18 58 64 86.5t99 28.5q21 0 42 -4.5t41 -13t38 -21.5q18 13 38 21.5t41 13t42 4.5q53 0 99 -28.5t64 -86.5l-118 -39q-3 11 -14.5 20.5t-29.5 9.5
q-9 0 -22.5 -4t-24.5 -15.5t-11 -34.5v-19h-128zM479 522l243 315l103 -76l-219 -291z" />
    <glyph glyph-name="sinTta" unicode="&#xda7;" horiz-adv-x="558" 
d="M297 -5v140q25 0 45.5 7.5t33 32t12.5 73.5v260q0 48 -12.5 71t-33 30t-45.5 7v139q119 0 175 -58t56 -177v-283q0 -37 -9 -79t-33 -79t-69.5 -60.5t-119.5 -23.5zM241 -5q-54 0 -93.5 20t-66 52.5t-39 69.5t-12.5 71v54q0 31 6 67.5t26 69.5t63 54t116 21v-138
q-20 0 -36.5 -6t-26.5 -22t-10 -46v-40q0 -19 7.5 -39.5t23.5 -34t42 -13.5v-140zM167 530l-137 36q0 40 18 74t48.5 60t68 40.5t76.5 14.5v-138q-19 0 -36 -8t-27.5 -27t-10.5 -52z" />
    <glyph glyph-name="sinTtha" unicode="&#xda8;" horiz-adv-x="593" 
d="M205 -8q-48 0 -88 21t-63.5 58.5t-23.5 88.5v95q0 26 5.5 60t25 65.5t60 52.5t109.5 21h13v-138h-13q-11 0 -22 -3t-20 -10.5t-14.5 -20t-5.5 -31.5v-78q0 -9 3.5 -18.5t12 -16t23.5 -6.5t23 6t11.5 14t3.5 14v36h100v-36q0 -6 3.5 -14t11.5 -14t23 -6q16 0 24.5 6t12 14
t3.5 14v36h140v-42q0 -76 -45 -122t-114 -46q-25 0 -53.5 9.5t-50.5 33.5q-19 -25 -42.5 -34t-52.5 -9zM328 755q67 0 120 -21.5t84 -73t31 -143.5v-316h-140v307q0 64 -16.5 92.5t-67.5 28.5h-11v-15q0 -16 3.5 -31.5t16.5 -25t39 -9.5v-107q-64 0 -104 23t-58 61t-18 81
v149h121z" />
    <glyph glyph-name="sinDda" unicode="&#xda9;" horiz-adv-x="632" 
d="M245 -8q-48 0 -87 21t-62.5 58.5t-23.5 88.5v59q0 5 1 16.5t7 15.5h-50v102h251q0 26 -13 36t-29 10q-7 0 -21.5 -4t-18.5 -20l-99 26q13 44 39 65.5t54.5 28.5t47.5 7q33 0 62 -12t48 -32q17 -19 25 -44t8 -65v-98h-142q-15 0 -22.5 -5.5t-10 -13t-2.5 -13.5v-53
q0 -6 3.5 -14t12 -14t23.5 -6t23 6t11.5 14t3.5 14v36h100v-36q0 -6 3.5 -14t11.5 -14t23 -6t23.5 6t12 14t3.5 14v36h141v-42q0 -76 -45 -122t-114 -46q-25 0 -53.5 9.5t-50.5 33.5q-19 -25 -42.5 -34t-51.5 -9zM212 530l-137 36q0 42 20.5 76.5t54.5 60t76 39t84 13.5
v-138q-24 0 -46.5 -6.5t-37 -25.5t-14.5 -55zM461 202v296q0 43 -6.5 68.5t-26.5 37.5t-62 12v139q71 0 124 -20t82.5 -71t29.5 -144v-318h-141z" />
    <glyph glyph-name="sinDdha" unicode="&#xdaa;" horiz-adv-x="632" 
d="M245 -8q-48 0 -87 21t-62.5 58.5t-23.5 88.5v29q0 28 5.5 42.5t12.5 19.5h-60v102h251q0 26 -13 36t-29 10q-7 0 -21.5 -4t-18.5 -20l-99 26q13 44 39 65.5t54.5 28.5t47.5 7q33 0 62 -12t48 -32q17 -19 25 -44t8 -65v-94h-140q-16 0 -24 -6.5t-10.5 -15t-2.5 -14.5v-53
q0 -6 3.5 -14t12 -14t23.5 -6t23 6t11.5 14t3.5 14v36h100v-36q0 -6 3.5 -14t11.5 -14t23 -6q16 0 24.5 6t12 14t3.5 14v36h140v-42q0 -76 -45 -122t-114 -46q-25 0 -53.5 9.5t-50.5 33.5q-19 -25 -42.5 -34t-51.5 -9zM367 755q67 0 120 -21.5t84 -73t31 -143.5v-262h-140
v253q0 64 -16.5 92.5t-67.5 28.5h-11v-15q0 -16 3.5 -31.5t16.5 -25t39 -9.5v-107q-64 0 -102.5 23t-55 61t-16.5 81v149h115z" />
    <glyph glyph-name="sinNna" unicode="&#xdab;" horiz-adv-x="1017" 
d="M134 -8l-134 34q10 27 31 58t55 53t83 22q24 0 49.5 -4.5t50.5 -9.5t48 -5q20 0 35 7t23.5 29.5t8.5 66.5v100q0 16 -2 38t-10.5 43.5t-28.5 35.5t-56 14q-25 0 -42 -7t-27.5 -18t-15 -24t-4.5 -25t4 -23.5t12 -20.5t20 -14.5t28 -5.5h56v-134h-77q-48 0 -89 23.5
t-66 67.5t-25 105q0 69 32 115t86 69.5t120 23.5q65 0 106 -20t63.5 -51.5t32.5 -67.5t12 -69t2 -55v-100q0 -56 -11 -101t-32 -76.5t-52 -48.5t-71 -17q-28 0 -55.5 7t-52.5 13.5t-47 6.5q-27 0 -41.5 -12t-18.5 -23zM762 -6q-68 0 -115.5 22.5t-72 61.5t-24.5 86v38h140
v-15q0 -22 11.5 -35.5t30 -19.5t38.5 -6q16 0 34 4.5t31 17.5t13 37v17h139v-21q0 -62 -30 -104t-81 -62.5t-114 -20.5zM641 281v69q0 42 -12.5 56.5t-30.5 14.5q-15 0 -21 -5.5t-8 -8.5l-40 125q3 5 25.5 18t62.5 13q35 0 58.5 -12.5t37.5 -28.5q16 16 43 28.5t70 12.5
q47 0 83 -17t57 -52t21 -89v-154h-139v121q0 14 -4.5 31t-30.5 17q-23 0 -30.5 -14.5t-7.5 -33.5v-91h-134zM391 470l-132 52l244 315l107 -76z" />
    <glyph glyph-name="sinNndda" unicode="&#xdac;" horiz-adv-x="789" 
d="M402 -8q-48 0 -87 21t-62.5 58.5t-23.5 88.5v39q0 5 1 16.5t7 15.5h-30v102h216q0 26 -16 39t-45 13q-11 0 -21.5 -4t-24.5 -20l-99 40q13 41 40 62.5t59 30t60 8.5q59 0 95 -25t53 -64.5t17 -83.5v-98h-142q-15 0 -22.5 -5.5t-10 -13t-2.5 -13.5v-33q0 -6 3.5 -14
t12 -14t23.5 -6t23 6t11.5 14t3.5 14v36h100v-36q0 -6 3 -14t11.5 -14t23.5 -6t23.5 6t12 14t3.5 14v36h141v-42q0 -76 -45 -122t-114 -46q-25 0 -53.5 9.5t-50.5 33.5q-19 -25 -42.5 -34t-51.5 -9zM103 -28q-30 39 -46 76t-21.5 77t-5.5 85v67q0 69 29.5 120.5t77.5 79.5
t104 28q39 0 75 -13v-131q-25 11 -40 14.5t-28 3.5q-21 0 -42 -11t-34.5 -39.5t-13.5 -81.5v-37q0 -40 5.5 -70.5t21.5 -59.5t48 -68zM369 530l-137 36q0 42 20.5 76.5t54.5 60t76 39t84 13.5v-138q-24 0 -46.5 -6.5t-37 -25.5t-14.5 -55zM618 202v296q0 43 -6.5 68.5
t-26.5 37.5t-62 12v139q71 0 124 -20t82.5 -71t29.5 -144v-318h-141z" />
    <glyph glyph-name="sinTa" unicode="&#xdad;" horiz-adv-x="771" 
d="M544 -1v143q20 0 31 6.5t16.5 16t7 20.5t1.5 20v102q0 38 -15 64.5t-39 40t-52 13.5q-17 0 -34.5 -5.5t-34.5 -18.5l-270 -213l-125 -34v105l271 221q31 25 60 45t62 31.5t76 11.5q63 0 118 -27.5t89 -82.5t34 -137v-116q0 -58 -20 -104.5t-63 -74t-113 -27.5zM303 -8
q-36 0 -70 11.5t-65 35.5t-57 62q-9 13 -17.5 25.5t-19.5 21t-27 8.5q-4 0 -8 -0.5t-9 -1.5l44 95q11 3 20 4.5t17 1.5q23 0 39 -9t28 -24t23 -31t23 -31t28.5 -24t39.5 -9q21 0 39.5 8.5t30 24t11.5 36.5q0 13 -4.5 24.5t-15.5 22t-29 17.5l97 78q35 -15 52.5 -40.5t24 -54
t6.5 -52.5q0 -60 -27.5 -105t-73 -69.5t-100.5 -24.5zM154 402l-117 37q7 49 35.5 77t65.5 39.5t67 11.5q35 0 65 -11.5t50.5 -25.5t23.5 -23l-92 -105q0 26 -17 35t-32 9q-22 0 -35.5 -13.5t-13.5 -30.5z" />
    <glyph glyph-name="sinTha" unicode="&#xdae;" horiz-adv-x="561" 
d="M247 -5q-54 0 -94.5 17.5t-68 46.5t-41 63.5t-13.5 68.5v64q0 26 6 58t25 62t57.5 49.5t103.5 19.5h19v-138h-13q-25 0 -42.5 -14.5t-17.5 -55.5v-22q0 -25 10 -41.5t27.5 -24.5t41.5 -8v-145zM302 -5v145q21 0 41.5 7.5t34 31t13.5 71.5h140q0 -129 -56.5 -192
t-172.5 -63zM296 755q67 0 120 -21.5t84 -73t31 -143.5v-267h-140v258q0 64 -16.5 92.5t-67.5 28.5h-11v-15q0 -16 3.5 -31.5t16.5 -25t39 -9.5v-107q-64 0 -104 23t-58 61t-18 81v149h121z" />
    <glyph glyph-name="sinDa" unicode="&#xdaf;" horiz-adv-x="552" 
d="M257 0q-60 0 -111.5 20.5t-83.5 64.5t-32 115q0 67 29 111.5t80 67.5t117 23h57q0 19 -10 31t-25.5 18t-33.5 6q-22 0 -42.5 -9.5t-25.5 -27.5l-118 39q11 40 38 66.5t65 39.5t78 13q50 0 96.5 -20t76.5 -59.5t30 -99.5v-136h-186q-12 0 -32 -2.5t-35.5 -15.5t-15.5 -44
q0 -27 13 -41t32.5 -19t38.5 -5h37q25 0 45 6t30 30l128 -34q-9 -32 -29 -57.5t-47 -43.5t-59.5 -27.5t-67.5 -9.5h-37zM369 -204q-60 0 -101.5 21t-63 57t-21.5 81h137q0 -8 6 -15.5t17.5 -12.5t25.5 -5q16 0 31 8t19 23l133 -34q-11 -33 -34 -61t-59.5 -45t-89.5 -17z" />
    <glyph glyph-name="sinDha" unicode="&#xdb0;" horiz-adv-x="593" 
d="M205 -8q-48 0 -88 21t-63.5 58.5t-23.5 88.5v102q0 31 6 67.5t26 69.5t63 54t116 21h22v-138h-22q-15 0 -28 -3t-23.5 -11.5t-16 -22.5t-5.5 -37v-96q0 -6 3.5 -14t12 -14t23.5 -6t23 6t11.5 14t3.5 14v36h100v-36q0 -6 3.5 -14t11.5 -14t23 -6t23.5 6t12 14t3.5 14v36
h141v-42q0 -76 -45 -122t-114 -46q-25 0 -53.5 9.5t-50.5 33.5q-19 -25 -42.5 -34t-52.5 -9zM173 530l-137 36q0 42 20.5 76.5t54.5 60t76 39t84 13.5v-138q-24 0 -46.5 -6.5t-37 -25.5t-14.5 -55zM422 202v296q0 43 -6.5 68.5t-26.5 37.5t-62 12v139q71 0 124 -20t82.5 -71
t29.5 -144v-318h-141z" />
    <glyph glyph-name="sinNa" unicode="&#xdb1;" horiz-adv-x="758" 
d="M532 -8v143q20 0 31 6.5t16.5 16t7 20.5t1.5 20v119q0 37 -17 63.5t-43.5 41t-56.5 14.5q-28 0 -53.5 -13.5t-44.5 -38.5l-78 -103q-27 -36 -50.5 -62t-45 -40t-45.5 -14h-29v139h25q6 0 15.5 9t22 25t26.5 37l69 104q32 48 83 71.5t109 23.5q47 0 92 -15t81.5 -45
t58 -74.5t21.5 -102.5v-139q0 -58 -20 -104.5t-63 -74t-113 -27.5zM278 -8q-53 0 -98.5 17t-79 50.5t-52 83t-18.5 113.5v88h118v-74q0 -11 2 -34t12.5 -48.5t35 -43t69.5 -17.5q35 0 56 11.5t30 29t9 34.5q0 10 -2.5 19t-8.5 17t-15 13l76 103q31 -16 50.5 -40.5t29.5 -54
t10 -61.5q0 -50 -24.5 -97.5t-74 -78t-125.5 -30.5zM149 402l-117 37q7 49 35.5 77t65 39.5t65.5 11.5q36 0 66.5 -12t48.5 -26.5t18 -22.5l-84 -104q0 26 -17 35t-32 9q-22 0 -35.5 -13.5t-13.5 -30.5z" />
    <glyph glyph-name="sinNda" unicode="&#xdb3;" horiz-adv-x="742" 
d="M449 0q-60 0 -111.5 20.5t-83.5 64.5t-32 115q0 67 29 110.5t80 65.5t117 22h57q0 24 -14.5 36t-31.5 16t-26 4q-7 0 -21.5 -1.5t-28 -8.5t-19.5 -24l-123 48q18 42 48.5 65t67 32.5t73.5 9.5q57 0 103.5 -19.5t74 -61t27.5 -109.5v-122h-187q-12 0 -32 -2.5t-35.5 -15.5
t-15.5 -44q0 -27 13 -41t32.5 -19t38.5 -5h37q25 0 45 6t30 30l128 -34q-9 -32 -29 -57.5t-47 -43.5t-59.5 -27.5t-67.5 -9.5h-37zM559 -204q-60 0 -101.5 21t-63 57t-21.5 81h137q0 -8 6 -15.5t17.5 -12.5t25.5 -5q16 0 31 8t19 23l133 -34q-11 -33 -34 -61t-59.5 -45
t-89.5 -17zM103 -29q-30 39 -46 76t-21.5 77t-5.5 85v85q0 90 33 151t87.5 91.5t117.5 30.5q48 0 96 -18v-129q-16 6 -34 10t-38 4q-31 0 -60 -12.5t-47.5 -43t-18.5 -84.5v-85q0 -40 3.5 -70.5t17.5 -59.5t46 -68z" />
    <glyph glyph-name="sinPa" unicode="&#xdb4;" horiz-adv-x="628" 
d="M289 -12q-133 0 -194 53.5t-61 160.5h140q0 -26 13 -44t36.5 -26.5t54.5 -8.5h72q33 0 56 9t35.5 27t12.5 43h140q0 -103 -62.5 -158.5t-189.5 -55.5h-53zM35 251q0 61 20.5 93.5t57.5 45t85 12.5h225q54 0 92 -11.5t58.5 -44t20.5 -95.5h-139q0 6 -1 13.5t-7 13t-21 5.5
h-217q-16 0 -23.5 -5.5t-9.5 -13t-2 -13.5h-139zM250 378v19q0 23 -10.5 34.5t-24.5 15.5t-23 4q-18 0 -29.5 -9.5t-14.5 -20.5l-118 39q18 58 64 86.5t99 28.5q21 0 42 -4.5t41 -13t38 -21.5q18 13 38 21.5t41 13t42 4.5q53 0 99 -28.5t64 -86.5l-118 -39q-3 11 -14.5 20.5
t-29.5 9.5q-9 0 -22.5 -4t-24.5 -15.5t-11 -34.5v-19h-128z" />
    <glyph glyph-name="sinPha" unicode="&#xdb5;" horiz-adv-x="568" 
d="M170 502q41 0 73.5 -16.5t51.5 -46t19 -70.5v-117h-84q-4 0 -18.5 -2t-27.5 -12.5t-13 -36.5q0 -17 8 -31t25 -22t43 -8v-145q-63 0 -111.5 27.5t-75.5 72.5t-27 97q0 25 2.5 49t15 47.5t40.5 44.5q25 18 53 27t67 9q0 14 -11.5 22t-29.5 8q-13 0 -25.5 -5t-15.5 -19
l-99 26q13 40 35.5 61.5t50 30.5t54.5 9zM303 -5v145q21 0 43 7.5t37 31t15 71.5h140q0 -129 -59.5 -192t-175.5 -63zM303 755q67 0 120 -21.5t84 -73t31 -143.5v-267h-140v258q0 64 -16.5 92.5t-67.5 28.5h-11v-15q0 -16 3.5 -31.5t16.5 -25t39 -9.5v-107q-64 0 -104 23
t-58 61t-18 81v149h121z" />
    <glyph glyph-name="sinBa" unicode="&#xdb6;" horiz-adv-x="609" 
d="M401 -8q-39 0 -74.5 16.5t-57.5 49t-22 80.5v129q0 23 -13 34.5t-30 11.5q-16 0 -29 -11.5t-13 -34.5v-74q0 -31 13 -42t36 -11v-140q-90 0 -135.5 44t-45.5 143v96q0 54 27 92t68.5 57.5t86.5 19.5q43 0 82 -19t63.5 -59t24.5 -102v-98q0 -18 9 -27t19 -9q11 0 20 9
t9 27v40h140v-40q0 -61 -26.5 -101.5t-67 -60.5t-84.5 -20zM178 530l-137 36q0 56 33 98.5t85.5 66.5t108.5 24v-138q-24 0 -44.5 -6.5t-33 -25.5t-12.5 -55zM439 214v264q0 39 -7.5 70.5t-27.5 49.5t-59 18h-21v139h21q67 0 120 -26t83.5 -82.5t30.5 -146.5v-286h-140z" />
    <glyph glyph-name="sinBha" unicode="&#xdb7;" horiz-adv-x="754" 
d="M265 -8q-69 0 -112.5 27.5t-64 74t-20.5 104.5v56q0 23 7 43h-45v118h211q0 23 -10 35t-33 12q-13 0 -24.5 -6t-14.5 -19l-99 26q17 52 57 76.5t84 24.5q36 0 69 -15.5t53.5 -44.5t20.5 -71v-136h-79q-26 0 -38 -9t-15 -21.5t-3 -23.5v-44q0 -12 3 -27t15 -26t38 -11
v-143zM320 -8v143q27 0 38 9.5t13.5 22.5t2.5 21q0 9 -2.5 21t-12.5 21.5t-34 10.5h-34v109q0 59 15 107.5t54 77.5t111 29v-143q-21 0 -29.5 -11.5t-10 -27.5t-1.5 -31v-7q17 -2 32.5 -15.5t25.5 -40.5t10 -72v-50q0 -91 -45 -132.5t-133 -41.5zM527 -8v143q26 0 38 11
t15 25.5t3 26.5v155q0 14 -3 30t-15 27t-38 11v143q70 0 113 -27.5t63.5 -75t20.5 -108.5v-155q0 -58 -20.5 -104.5t-63.5 -74t-113 -27.5z" />
    <glyph glyph-name="sinMa" unicode="&#xdb8;" horiz-adv-x="600" 
d="M303 469h92v-129q0 -38 -15.5 -63t-39.5 -36.5t-50 -11.5q-38 0 -69.5 24t-31.5 67v8q0 10 -5 15t-11 5q-5 0 -10 -5t-5 -15v-76q0 -29 5 -49.5t14 -34t22 -20.5t28.5 -10t33.5 -3v-140q-73 0 -119 24.5t-70 63.5t-33 83.5t-9 85.5v47q0 59 21 97t53 56.5t64 18.5
q41 0 72.5 -27t31.5 -80v-16q0 -8 5 -12.5t10 -4.5q6 0 11 4.5t5 12.5v121zM34 565q0 42 19.5 76.5t52 60t73 39t82.5 13.5v-138q-24 0 -44.5 -6.5t-33 -25.5t-12.5 -55zM317 754q79 0 129 -22t77 -59.5t37 -82.5t10 -92v-246q0 -47 -10 -92.5t-37 -83t-77 -59.5t-129 -22
v140q34 0 59.5 7.5t39.5 32.5t14 77v246q0 53 -14 77.5t-39.5 32t-59.5 7.5v139z" />
    <glyph glyph-name="sinMba" unicode="&#xdb9;" horiz-adv-x="607" 
d="M190 -11q-47 0 -83.5 21t-56.5 58.5t-20 88.5v182q0 45 20 74.5t51 44.5t63 15q30 0 56.5 -12t43 -36t16.5 -61v-16q0 -8 5 -12.5t10 -4.5q6 0 11 4.5t5 12.5v121h92v-129q0 -38 -15.5 -63t-39.5 -36.5t-50 -11.5q-38 0 -69.5 24t-31.5 67v8q0 10 -5 15t-11 5
q-5 0 -10 -5t-5 -15v-162q0 -10 4 -17t11 -10.5t14 -3.5q11 0 19.5 7.5t8.5 23.5q0 6 1.5 12.5t5.5 12.5t10.5 9.5t16.5 3.5h89q10 0 16.5 -3.5t10.5 -9.5t5.5 -12.5t1.5 -12.5q0 -16 9 -23.5t19 -7.5q8 0 14.5 3.5t10.5 10.5t4 18v333q0 54 -16 78.5t-40.5 31t-50.5 6.5
v139q117 0 182 -56t65 -187v-355q0 -51 -20.5 -88.5t-57 -58.5t-85.5 -21q-23 0 -39 6t-27 16q-11 11 -16 25t-5 31t-8 25t-17 8q-10 0 -17.5 -8t-7.5 -25t-5 -31t-16 -25q-10 -10 -26.5 -16t-39.5 -6zM183 530l-137 36q0 42 19.5 76.5t52 60t73 39t82.5 13.5v-138
q-24 0 -44.5 -6.5t-33 -25.5t-12.5 -55z" />
    <glyph glyph-name="sinYa" unicode="&#xdba;" horiz-adv-x="655" 
d="M210 -8q-52 0 -93 21t-64 58.5t-23 88.5v42h139v-31q0 -19 14.5 -29.5t31.5 -10.5t31.5 10.5t14.5 31.5v29h128v-29q0 -21 14.5 -31.5t31.5 -10.5t31.5 10.5t14.5 29.5v31h139v-42q0 -55 -22.5 -92.5t-62.5 -56.5t-93 -19q-36 0 -66.5 10t-53.5 34q-22 -24 -50 -34
t-62 -10zM30 251v89q0 77 30.5 126t80 73t107.5 24h17v-130h-20q-40 0 -58 -30.5t-18 -85.5v-66h-139zM480 251v3q0 7 -2 13.5t-11 11t-30 4.5h-144v83q0 45 9.5 82t29.5 63.5t52.5 40.5t77.5 14q49 0 92 -22t71 -86l-110 -37q-8 15 -21 20t-25 5q-20 0 -33 -10.5t-13 -33.5
h56q54 0 85 -18.5t43.5 -49t12.5 -65.5v-18h-140z" />
    <glyph glyph-name="sinRa" unicode="&#xdbb;" horiz-adv-x="545" 
d="M244 -5q-38 0 -76 12.5t-69 41.5t-50 76t-19 116v154q0 36 5 64.5t18 56.5t38 60l201 262l112 -79l-181 -243q-21 -28 -32.5 -45.5t-16 -35.5t-4.5 -49v-151q0 -51 16.5 -73.5t57.5 -22.5v-144zM358 564q55 0 89.5 -23t51 -64.5t16.5 -98.5v-164q0 -86 -30 -133.5
t-79 -66t-106 -19.5v144q46 0 60.5 22.5t14.5 73.5v92q0 37 -3 59.5t-18 33.5t-52 11h-78v5l92 128h42z" />
    <glyph glyph-name="sinLa" unicode="&#xdbd;" horiz-adv-x="626" 
d="M283 -171q-41 0 -85 11t-82 38t-61.5 74.5t-23.5 121.5v257q0 75 22.5 123t60 74t82 36.5t87.5 10.5v-140q-33 0 -58.5 -10.5t-40.5 -33t-15 -60.5v-257q0 -38 15 -61t40.5 -33.5t58.5 -10.5v-140zM344 -173v140q41 0 70.5 16.5t39.5 53.5l135 -38q-11 -52 -36.5 -85.5
t-60 -52.5t-73 -26.5t-75.5 -7.5zM206 251v114h212v-114h-212zM413 54q-49 0 -80.5 13.5t-49 34t-25 43.5t-9 42t-1.5 28v108h128v-88q0 -14 7.5 -27.5t32.5 -13.5q21 0 30 9.5t10.5 20.5t1.5 16v91q0 38 -15 60.5t-40.5 33t-58.5 10.5v140q43 0 87 -10.5t81.5 -36.5
t60.5 -74t23 -123v-91q0 -59 -21 -100.5t-61.5 -63.5t-100.5 -22z" />
    <glyph glyph-name="sinVa" unicode="&#xdc0;" horiz-adv-x="568" 
d="M303 -5v140q21 0 43 7.5t37 32.5t15 75v248q0 59 -18 88.5t-77 29.5v139q67 0 120 -21t84 -72.5t31 -141.5v-270q0 -129 -59.5 -192t-175.5 -63zM247 -5q-63 0 -111.5 27.5t-75.5 72.5t-27 97q0 25 2.5 49t15 47.5t40.5 44.5q25 18 53 27t67 9q0 14 -11.5 22t-29.5 8
q-13 0 -25.5 -5t-15.5 -19l-99 26q13 40 35.5 61.5t50 30.5t54.5 9q41 0 73.5 -16.5t51.5 -46t19 -70.5v-117h-84q-5 0 -19.5 -2t-27 -13t-12.5 -37q0 -20 9 -34.5t26 -22.5t41 -8v-140zM167 530l-137 36q0 40 18.5 74t50 60t70 40.5t78.5 14.5v-138q-20 0 -38.5 -8t-30 -27
t-11.5 -52z" />
    <glyph glyph-name="sinSha" unicode="&#xdc1;" horiz-adv-x="717" 
d="M30 358q0 58 20.5 104.5t64 74t112.5 27.5v-143q-26 0 -38 -12.5t-15 -29.5t-3 -31v-150q0 -12 3 -26.5t15 -25.5t38 -11v-143q-69 0 -112.5 27.5t-64 74t-20.5 104.5v160zM254 350q0 59 15 107.5t54 77.5t111 29v-143q-22 0 -32.5 -8t-14 -22t-3.5 -31v-29h5
q24 0 40 -16.5t24 -45t8 -63.5v-30q0 -96 -45 -140t-133 -44v143q26 0 37.5 9.5t14 21t2.5 18.5q0 23 -6 35.5t-17 17t-26 4.5h-34v109zM546 198v150q0 14 -3 31t-15 29.5t-38 12.5v143q70 0 113 -27.5t63.5 -74t20.5 -104.5v-160q0 -58 -20.5 -104.5t-63.5 -74t-113 -27.5
v143q26 0 38 11t15 25.5t3 26.5zM373 168q0 41 8 70t22 48.5t33 31t41.5 16t47.5 4.5h21v-103h-21q-19 0 -31.5 -4t-19.5 -12t-10 -20.5t-3 -29.5z" />
    <glyph glyph-name="sinSsa" unicode="&#xdc2;" horiz-adv-x="660" 
d="M285 -12q-133 0 -194 53.5t-61 160.5h140q0 -26 13 -44t36.5 -26.5t54.5 -8.5h112q33 0 56 9t35.5 27t12.5 43h140q0 -103 -62.5 -158.5t-189.5 -55.5h-93zM31 251q0 63 20.5 97t57.5 46.5t85 12.5h265q54 0 92 -12t58.5 -45.5t20.5 -98.5h-139q0 7 -1 15.5t-7 15
t-21 6.5h-257q-16 0 -23.5 -6.5t-9.5 -15t-2 -15.5h-139zM244 168q0 55 24 95.5t58.5 66.5t65.5 37h166q-28 -9 -59.5 -28.5t-59 -46t-44.5 -57.5t-17 -65zM268 378v19q0 23 -10.5 34.5t-24.5 15.5t-23 4q-18 0 -29.5 -9.5t-14.5 -20.5l-118 39q18 58 64 86.5t99 28.5
q21 0 42 -4.5t41 -13t38 -21.5q18 13 38 21.5t41 13t42 4.5q53 0 99 -28.5t64 -86.5l-118 -39q-3 11 -14.5 20.5t-29.5 9.5q-9 0 -22.5 -4t-24.5 -15.5t-11 -34.5v-19h-128z" />
    <glyph glyph-name="sinSa" unicode="&#xdc3;" 
d="M247 -8q-52 0 -93 21t-64 58.5t-23 88.5v42h139v-31q0 -19 14.5 -29.5t31.5 -10.5t31.5 10.5t14.5 31.5v29h128v-29q0 -21 14.5 -31.5t31.5 -10.5t31.5 10.5t14.5 29.5v31h139v-42q0 -55 -22.5 -92.5t-62.5 -56.5t-93 -19q-36 0 -66.5 10t-53.5 34q-22 -24 -50 -34
t-62 -10zM67 251v10q0 10 2.5 15.5t5.5 6.5h-45v119h473q23 0 50 -3.5t50.5 -15.5t38.5 -37t15 -67v-28h-139v1q0 11 -4.5 17.5t-13 10t-19.5 3.5h-235q-11 0 -20 -3.5t-14.5 -10.5t-5.5 -17v-1h-139zM298 378v19q0 23 -10.5 34.5t-24.5 15.5t-23 4q-18 0 -29.5 -9.5
t-14.5 -20.5l-118 39q18 58 64 86.5t99 28.5q21 0 42 -4.5t41 -13t38 -21.5q18 13 38 21.5t41 13t42 4.5q53 0 99 -28.5t64 -86.5l-118 -39q-3 11 -14.5 20.5t-29.5 9.5q-9 0 -22.5 -4t-24.5 -15.5t-11 -34.5v-19h-128z" />
    <glyph glyph-name="sinHa" unicode="&#xdc4;" horiz-adv-x="716" 
d="M227 -8q-69 0 -112.5 27.5t-64 74t-20.5 104.5v40q0 48 20.5 88.5t58.5 65.5t90 25h14q0 19 -10 32t-33 13q-13 0 -24.5 -6t-14.5 -19l-99 26q17 52 57 76.5t84 24.5q36 0 69 -15.5t53.5 -44.5t20.5 -71v-152h-89q-31 0 -45.5 -9t-18 -21.5t-3.5 -22.5v-30
q0 -12 3.5 -26.5t18 -25.5t45.5 -11v-143zM282 -8v143q27 0 38 9.5t13.5 22.5t2.5 21q0 9 -2.5 21t-12.5 21.5t-34 10.5h-34v109q0 59 15 107.5t54 77.5t111 29v-143q-21 0 -29.5 -11t-10 -26.5t-1.5 -30.5v-9q17 -2 32.5 -15.5t25.5 -40.5t10 -72v-50q0 -91 -45 -132.5
t-133 -41.5zM489 -8v143q26 0 38 11t15 25.5t3 26.5v150q0 14 -3 31t-15 29.5t-38 12.5v143q70 0 113 -27.5t63.5 -74t20.5 -104.5v-160q0 -58 -20.5 -104.5t-63.5 -74t-113 -27.5z" />
    <glyph glyph-name="sinLla" unicode="&#xdc5;" horiz-adv-x="609" 
d="M283 -170q-113 0 -183 61t-70 186v117q0 64 29 107t72.5 65t84.5 22h325v-132h-293q-22 0 -40 -10.5t-28.5 -34.5t-10.5 -65v-71q0 -27 7.5 -47t22 -32.5t36 -19t48.5 -6.5v-140zM344 -170v140q27 0 49.5 7t38.5 22.5t22 40.5l135 -38q-11 -52 -36.5 -85.5t-60 -52.5
t-73 -26.5t-75.5 -7.5zM358 67h-33q-40 0 -73.5 12.5t-57.5 34t-37 48t-13 54.5l91 85q0 -31 7.5 -52.5t20 -34t26 -19t26 -8.5t19.5 -2h20q27 0 47.5 10.5t27.5 26.5l113 -29q-21 -55 -55.5 -82t-69 -35.5t-59.5 -8.5zM115 421v25q0 59 37.5 94t97.5 35q27 0 46.5 -7
t33.5 -20q15 17 35 22t39 5q64 0 100 -39t36 -99h-116q0 13 -7.5 20t-19.5 7q-13 0 -19.5 -8.5t-6.5 -18.5h-85q-1 11 -5.5 19.5t-21.5 8.5q-16 0 -22 -9.5t-6 -20.5z" />
    <glyph glyph-name="sinFa" unicode="&#xdc6;" horiz-adv-x="650" 
d="M30 251v145q0 55 22.5 92.5t63 56.5t92.5 19q36 0 67 -10t53 -34q22 24 50 34t62 10q53 0 93.5 -20.5t63.5 -58.5t23 -89v-145h-139v134q0 20 -14.5 30t-31.5 10t-31.5 -10.5t-14.5 -31.5v-132h-128v132q0 21 -14.5 31.5t-31.5 10.5t-31.5 -10t-14.5 -30v-134h-139z
M225 0q-69 0 -112 26.5t-63 72t-20 103.5h139q0 -12 3 -25.5t15 -23.5t38 -10v-143zM425 0v143q26 0 38 10t15 23.5t3 25.5h139q0 -58 -20 -103.5t-62.5 -72t-112.5 -26.5z" />
    <glyph glyph-name="sinVirama" unicode="&#xdca;" horiz-adv-x="196" 
d="M30 619v200h136v-200h-136z" />
    <glyph glyph-name="sinMatraAa" unicode="&#xdcf;" horiz-adv-x="277" 
d="M30 0v143h20q20 0 31 6.5t16.5 16t7 20.5t1.5 20v152q0 11 -1.5 23.5t-7 23.5t-16.5 18.5t-31 7.5h-20v143h20q70 0 113 -27.5t63.5 -74t20.5 -104.5v-162q0 -58 -20.5 -104.5t-63.5 -74t-113 -27.5h-20z" />
    <glyph glyph-name="sinMatraAe" unicode="&#xdd0;" horiz-adv-x="287" 
d="M235 0q-53 0 -100 17.5t-76 56.5t-29 104v72q0 33 4.5 56.5t13.5 43t23 40t34 48.5h-70v136h222v-136q-26 -36 -43 -61t-26.5 -43t-13.5 -33t-4 -33v-66q0 -18 6.5 -30t15.5 -18t18.5 -8.5t15.5 -2.5h31v-143h-22z" />
    <glyph glyph-name="sinMatraAae" unicode="&#xdd1;" horiz-adv-x="277" 
d="M225 0q-53 0 -97.5 16.5t-71 48.5t-26.5 78v40q0 24 10 43t27.5 37.5t39.5 38.5h-77v110l87 52h-87v110h217v-110l-89 -52h89v-110q-25 -19 -40.5 -33.5t-23 -26t-10 -22.5t-2.5 -24v-4q0 -15 5 -24.5t13.5 -15t18 -7.5t18.5 -2h21v-143h-22z" />
    <glyph glyph-name="sinMatraI" unicode="&#xdd2;" horiz-adv-x="0" 
d="M-573 602v28q0 47 23.5 82.5t63.5 56t89 20.5h171q50 0 89.5 -20.5t63 -56t23.5 -82.5v-28h-130q0 20 -6 31t-15 17t-20 7.5t-21 1.5h-139q-10 0 -21 -1.5t-20 -7.5t-15 -17t-6 -31h-130z" />
    <glyph glyph-name="sinMatraIi" unicode="&#xdd3;" horiz-adv-x="0" 
d="M-486 657v-20h-140v20q0 89 54 141t146 52h9v-130h-9q-31 0 -45.5 -19t-14.5 -44zM-272 850q103 0 164 -46.5t61 -134.5q0 -77 -44.5 -122.5t-112.5 -45.5q-46 0 -81.5 20t-56 53t-20.5 72v28h120v-14q0 -16 10 -26.5t26 -10.5q15 0 24.5 10.5t9.5 30.5q0 30 -24.5 43
t-75.5 13h-90v130h90z" />
    <glyph glyph-name="sinMatraU" unicode="&#xdd4;" horiz-adv-x="0" 
d="M-170 -205v328h140v-328h-140zM-478 -205v140h182v-140h-182zM-240 -205v140h80v-140h-80z" />
    <glyph glyph-name="sinMatraUu" unicode="&#xdd6;" horiz-adv-x="0" 
d="M-172 -205v328h140v-328h-140zM-172 -205q-13 9 -25 14t-23 7t-22 2v140q9 0 21 -1.5t25 -5.5t24 -12v-144zM-415 -205q-16 0 -33.5 6t-37.5 20v140q20 -14 37.5 -20t33.5 -6q21 0 40.5 6t38.5 11.5t38 5.5v-140q-19 0 -38 -5.5t-38.5 -11.5t-40.5 -6z" />
    <glyph glyph-name="sinMatraR" unicode="&#xdd8;" horiz-adv-x="375" 
d="M188 0q-39 0 -76 17.5t-60.5 53t-23.5 88.5q0 39 15 73.5t49 56t90 21.5h6v-114h-6q-17 0 -27 -10t-10 -26q0 -20 13.5 -31t29.5 -11q15 0 26 11t11 33v220q0 14 -3.5 28t-15.5 24t-38 10h-90v130h108q45 0 81 -23t57 -63t21 -90v-241q0 -53 -23 -88t-59 -52t-75 -17z
" />
    <glyph glyph-name="sinMatraE" unicode="&#xdd9;" horiz-adv-x="457" 
d="M188 -5q-54 0 -86 23t-47.5 57t-20 67.5t-4.5 55.5v173q0 29 7.5 62.5t27 63t54.5 48.5t89 19h41v-130h-30q-14 0 -26.5 -7.5t-20 -21.5t-7.5 -34v-173q0 -19 3 -36t12.5 -27t28.5 -10v-130h-21zM257 -5v130q18 0 26.5 10.5t8.5 28.5v33q0 13 -5.5 18.5t-15 7t-23.5 1.5
h-15v130h87q30 0 54 -8t38.5 -29.5t14.5 -61.5v-98q0 -43 -17 -80t-48 -59.5t-74 -22.5h-31zM302 400q-1 8 -5.5 14.5t-11.5 11t-16 6.5t-20 2v130h21q49 0 81.5 -21.5t51 -52.5t21.5 -59z" />
    <glyph glyph-name="sinMatraEe" unicode="&#xdda;" horiz-adv-x="796" 
d="M630 619v200h136v-200h-136zM188 -5q-54 0 -86 23t-47.5 57t-20 67.5t-4.5 55.5v173q0 29 7.5 62.5t27 63t54.5 48.5t89 19h41v-130h-30q-14 0 -26.5 -7.5t-20 -21.5t-7.5 -34v-173q0 -19 3 -36t12.5 -27t28.5 -10v-130h-21zM257 -5v130q18 0 26.5 10.5t8.5 28.5v33
q0 13 -5.5 18.5t-15 7t-23.5 1.5h-15v130h87q30 0 54 -8t38.5 -29.5t14.5 -61.5v-98q0 -43 -17 -80t-48 -59.5t-74 -22.5h-31zM302 400q-1 8 -5.5 14.5t-11.5 11t-16 6.5t-20 2v130h21q49 0 81.5 -21.5t51 -52.5t21.5 -59z" />
    <glyph glyph-name="sinMatraAi" unicode="&#xddb;" horiz-adv-x="914" 
d="M188 -5q-54 0 -86 23t-47.5 57t-20 67.5t-4.5 55.5v173q0 29 7.5 62.5t27 63t54.5 48.5t89 19h41v-130h-30q-14 0 -26.5 -7.5t-20 -21.5t-7.5 -34v-173q0 -19 3 -36t12.5 -27t28.5 -10v-130h-21zM257 -5v130q18 0 26.5 10.5t8.5 28.5v33q0 13 -5.5 18.5t-15 7t-23.5 1.5
h-15v130h87q30 0 54 -8t38.5 -29.5t14.5 -61.5v-98q0 -43 -17 -80t-48 -59.5t-74 -22.5h-31zM302 400q-1 8 -5.5 14.5t-11.5 11t-16 6.5t-20 2v130h21q49 0 81.5 -21.5t51 -52.5t21.5 -59zM645 -5q-54 0 -86 23t-47.5 57t-20 67.5t-4.5 55.5v173q0 29 7.5 62.5t27 63
t54.5 48.5t89 19h41v-130h-30q-14 0 -26.5 -7.5t-20 -21.5t-7.5 -34v-173q0 -19 3 -36t12.5 -27t28.5 -10v-130h-21zM714 -5v130q18 0 26.5 10.5t8.5 28.5v33q0 13 -5.5 18.5t-15 7t-23.5 1.5h-15v130h87q30 0 54 -8t38.5 -29.5t14.5 -61.5v-98q0 -43 -17 -80t-48 -59.5
t-74 -22.5h-31zM759 400q-1 8 -5.5 14.5t-11.5 11t-16 6.5t-20 2v130h21q49 0 81.5 -21.5t51 -52.5t21.5 -59z" />
    <glyph glyph-name="sinMatraO" unicode="&#xddc;" horiz-adv-x="734" 
d="M487 0v143h20q20 0 31 6.5t16.5 16t7 20.5t1.5 20v152q0 11 -1.5 23.5t-7 23.5t-16.5 18.5t-31 7.5h-20v143h20q70 0 113 -27.5t63.5 -74t20.5 -104.5v-162q0 -58 -20.5 -104.5t-63.5 -74t-113 -27.5h-20zM188 -5q-54 0 -86 23t-47.5 57t-20 67.5t-4.5 55.5v173
q0 29 7.5 62.5t27 63t54.5 48.5t89 19h41v-130h-30q-14 0 -26.5 -7.5t-20 -21.5t-7.5 -34v-173q0 -19 3 -36t12.5 -27t28.5 -10v-130h-21zM257 -5v130q18 0 26.5 10.5t8.5 28.5v33q0 13 -5.5 18.5t-15 7t-23.5 1.5h-15v130h87q30 0 54 -8t38.5 -29.5t14.5 -61.5v-98
q0 -43 -17 -80t-48 -59.5t-74 -22.5h-31zM302 400q-1 8 -5.5 14.5t-11.5 11t-16 6.5t-20 2v130h21q49 0 81.5 -21.5t51 -52.5t21.5 -59z" />
    <glyph glyph-name="sinMatraOo" unicode="&#xddd;" horiz-adv-x="801" 
d="M553 619v200h136v-200h-136zM554 0v143h20q20 0 31 6.5t16.5 16t7 20.5t1.5 20v152q0 11 -1.5 23.5t-7 23.5t-16.5 18.5t-31 7.5h-20v143h20q70 0 113 -27.5t63.5 -74t20.5 -104.5v-162q0 -58 -20.5 -104.5t-63.5 -74t-113 -27.5h-20zM188 -5q-54 0 -86 23t-47.5 57
t-20 67.5t-4.5 55.5v173q0 29 7.5 62.5t27 63t54.5 48.5t89 19h41v-130h-30q-14 0 -26.5 -7.5t-20 -21.5t-7.5 -34v-173q0 -19 3 -36t12.5 -27t28.5 -10v-130h-21zM257 -5v130q18 0 26.5 10.5t8.5 28.5v33q0 13 -5.5 18.5t-15 7t-23.5 1.5h-15v130h87q30 0 54 -8t38.5 -29.5
t14.5 -61.5v-98q0 -43 -17 -80t-48 -59.5t-74 -22.5h-31zM302 400q-1 8 -5.5 14.5t-11.5 11t-16 6.5t-20 2v130h21q49 0 81.5 -21.5t51 -52.5t21.5 -59z" />
    <glyph glyph-name="sinMatraAu" unicode="&#xdde;" horiz-adv-x="881" 
d="M665 -8q-44 0 -85 19t-67 58t-26 97v36h127v-36q0 -18 8.5 -30t21.5 -18.5t27 -6.5t26 6t19.5 18.5t7.5 30.5v257q0 10 -5 15t-10 5q-6 0 -11 -5t-5 -15v-48q0 -42 -29.5 -64.5t-66.5 -22.5q-27 0 -52 12.5t-41.5 38.5t-16.5 66v159h92v-121q0 -8 5 -12.5t11 -4.5
q5 0 10 4.5t5 12.5v19q0 37 16.5 61t43 36t54.5 12q50 0 88 -34.5t39 -99.5v-271q0 -57 -27 -95.5t-69.5 -58.5t-89.5 -20zM188 -5q-54 0 -86 23t-47.5 57t-20 67.5t-4.5 55.5v173q0 29 7.5 62.5t27 63t54.5 48.5t89 19h41v-130h-30q-14 0 -26.5 -7.5t-20 -21.5t-7.5 -34
v-173q0 -19 3 -36t12.5 -27t28.5 -10v-130h-21zM257 -5v130q18 0 26.5 10.5t8.5 28.5v33q0 13 -5.5 18.5t-15 7t-23.5 1.5h-15v130h87q30 0 54 -8t38.5 -29.5t14.5 -61.5v-98q0 -43 -17 -80t-48 -59.5t-74 -22.5h-31zM302 400q-1 8 -5.5 14.5t-11.5 11t-16 6.5t-20 2v130h21
q49 0 81.5 -21.5t51 -52.5t21.5 -59z" />
    <glyph glyph-name="sinMatraLs" unicode="&#xddf;" horiz-adv-x="424" 
d="M208 -8q-44 0 -85 19t-67 58t-26 97v36h127v-36q0 -18 8.5 -30t21.5 -18.5t27 -6.5t26 6t19.5 18.5t7.5 30.5v257q0 10 -5 15t-10 5q-6 0 -11 -5t-5 -15v-48q0 -42 -29.5 -64.5t-66.5 -22.5q-27 0 -52 12.5t-41.5 38.5t-16.5 66v159h92v-121q0 -8 5 -12.5t11 -4.5
q5 0 10 4.5t5 12.5v19q0 37 16.5 61t43 36t54.5 12q50 0 88 -34.5t39 -99.5v-271q0 -57 -27 -95.5t-69.5 -58.5t-89.5 -20z" />
    <glyph glyph-name="sinOnelith" unicode="&#xde7;" horiz-adv-x="779" 
d="M250 312q0 23 20 39t46 16t45 -16t19 -39q0 -22 -19 -38.5t-45 -16.5t-46 16.5t-20 38.5zM29 236q0 -75 36.5 -131.5t100 -87.5t143.5 -31q85 0 143 28.5t88 76t30 104.5q0 69 -32.5 115.5t-86 70t-118.5 23.5q-52 0 -88 -25.5t-36 -67.5q0 -26 15.5 -46t40.5 -31.5
t51 -11.5q27 0 51 11.5t39 31.5t15 46q0 15 -6 30t-18 26q44 -10 65 -37.5t21 -55.5q0 -38 -21.5 -66.5t-60.5 -44t-92 -15.5q-63 0 -106 21t-65 55.5t-22 73.5q0 35 17 64.5t47.5 51.5t72.5 34t93 12q75 0 141 -27t116.5 -84t81 -146t34.5 -214h36q-4 132 -36.5 227.5
t-88 157.5t-128 92t-156.5 30q-73 0 -131.5 -18t-100 -52t-63.5 -82t-22 -108z" />
    <glyph glyph-name="sinTwolith" unicode="&#xde8;" horiz-adv-x="1143" 
d="M1062 188q0 -80 -40 -124t-98 -44q-24 0 -39 4.5t-25 9.5v-35q11 -6 29.5 -10.5t40.5 -4.5q60 0 100.5 34t61 89t20.5 117q0 38 -6 77t-19.5 74t-37.5 62t-60 43t-86 16q-51 0 -91 -23t-66 -62t-34.5 -89t1.5 -104l11 -57l24 -77q-4 29 -5 55.5t-1 49.5q0 49 17.5 87
t53.5 59.5t90 21.5q51 0 86.5 -23t54 -61.5t18.5 -84.5zM250 312q0 23 20 39t46 16t45 -16t19 -39q0 -22 -19 -38.5t-45 -16.5t-46 16.5t-20 38.5zM29 236q0 -75 36.5 -131.5t100 -87.5t143.5 -31q85 0 143 28.5t88 76t30 104.5q0 69 -32.5 115.5t-86 70t-118.5 23.5
q-52 0 -88 -25.5t-36 -67.5q0 -26 15.5 -46t40.5 -31.5t51 -11.5q27 0 51 11.5t39 31.5t15 46q0 15 -6 30t-18 26q44 -10 65 -37.5t21 -55.5q0 -38 -21.5 -66.5t-60.5 -44t-92 -15.5q-63 0 -106 21t-65 55.5t-22 73.5q0 35 17 64.5t47.5 51.5t72.5 34t93 12q75 0 141 -27
t116.5 -84t81 -146t34.5 -214h36q-4 132 -36.5 227.5t-88 157.5t-128 92t-156.5 30q-73 0 -131.5 -18t-100 -52t-63.5 -82t-22 -108z" />
    <glyph glyph-name="sinThreelith" unicode="&#xde9;" horiz-adv-x="1525" 
d="M1166 111q0 -61 36 -96.5t96 -35.5q80 0 121 63t41 176t-41 176t-121 63q-35 0 -65 -16t-48.5 -45t-18.5 -70v-14t1 -13h34q-1 5 -1 9.5v8.5q0 28 7.5 41t17.5 17.5t16 4.5q13 0 26 -13t21.5 -48t8.5 -101q0 -65 -8.5 -100t-21.5 -47.5t-26 -12.5q-6 0 -16 3.5
t-17.5 16.5t-7.5 41v9.5t1 8.5h-34q-1 -7 -1 -13v-13zM250 312q0 23 20 39t46 16t45 -16t19 -39q0 -22 -19 -38.5t-45 -16.5t-46 16.5t-20 38.5zM29 236q0 -75 36.5 -131.5t100 -87.5t143.5 -31q85 0 143 28.5t88 76t30 104.5q0 69 -32.5 115.5t-86 70t-118.5 23.5
q-52 0 -88 -25.5t-36 -67.5q0 -26 15.5 -46t40.5 -31.5t51 -11.5q27 0 51 11.5t39 31.5t15 46q0 15 -6 30t-18 26q44 -10 65 -37.5t21 -55.5q0 -38 -21.5 -66.5t-60.5 -44t-92 -15.5q-63 0 -106 21t-65 55.5t-22 73.5q0 35 17 64.5t47.5 51.5t72.5 34t93 12q75 0 141 -27
t116.5 -84t81 -146t34.5 -214h36q-4 132 -36.5 227.5t-88 157.5t-128 92t-156.5 30q-73 0 -131.5 -18t-100 -52t-63.5 -82t-22 -108zM1062 188q0 -80 -40 -124t-98 -44q-24 0 -39 4.5t-25 9.5v-35q11 -6 29.5 -10.5t40.5 -4.5q60 0 100.5 34t61 89t20.5 117q0 38 -6 77
t-19.5 74t-37.5 62t-60 43t-86 16q-51 0 -91 -23t-66 -62t-34.5 -89t1.5 -104l11 -57l24 -77q-4 29 -5 55.5t-1 49.5q0 49 17.5 87t53.5 59.5t90 21.5q51 0 86.5 -23t54 -61.5t18.5 -84.5z" />
    <glyph glyph-name="sinFourlith" unicode="&#xdea;" horiz-adv-x="693" 
d="M27 187q0 -55 25.5 -93.5t69.5 -62t100.5 -34t117.5 -10.5q56 0 109 10.5t95.5 34t67.5 61.5t25 92q0 51 -20 84t-53.5 51.5t-73.5 26t-81 7.5q-11 0 -19 -0.5t-16 -1.5q-3 17 -3 29q0 35 22.5 60t84.5 25q39 0 64 -15.5t25 -44.5q0 -23 -17 -37.5t-43 -14.5t-40.5 20.5
t-14.5 48.5q0 39 13.5 71t33 55.5t37.5 36.5q26 18 48 29.5t39.5 21t27 19.5t9.5 24q0 12 -7.5 24.5t-33.5 12.5q-17 0 -44.5 -12.5t-53.5 -36.5t-50 -61t-39 -84t-15 -101q0 -22 9 -45t28.5 -38.5t51.5 -15.5q38 0 59 13t29.5 32t8.5 36q0 35 -20 56t-47.5 30.5t-52.5 9.5
q-40 0 -74 -11.5t-54.5 -38.5t-20.5 -73q0 -25 9 -54q13 1 29.5 2.5t35.5 1.5q68 0 101 -14t43 -33t10 -33q0 -26 -18 -44.5t-49.5 -29.5t-73 -16t-88.5 -5q-45 0 -87 4.5t-74.5 14.5t-51.5 27t-19 43q0 12 5.5 26t21 27.5t47.5 22t84 8.5q8 0 18.5 -0.5t20.5 -1.5
q3 12 4 25t1 23q0 60 -37 93t-96 33q-28 0 -54.5 -9t-43.5 -27.5t-17 -48.5q0 -22 13 -35t35 -13q20 0 32.5 10t22.5 31q6 14 19.5 26t32.5 12q22 0 33.5 -11t16.5 -26t5 -29v-11t-1 -12q-7 2 -10 2h-20q-66 0 -112 -22.5t-70.5 -61t-24.5 -85.5z" />
    <glyph glyph-name="sinFivelith" unicode="&#xdeb;" horiz-adv-x="529" 
d="M282 -20q25 0 49 2t47 8q-43 -42 -69.5 -80.5t-26.5 -89.5q0 -34 14 -63.5t44 -48t78 -18.5q15 0 33.5 3t36.5 7v38q-36 12 -55 34t-25.5 48.5t-6.5 51.5q0 33 8 62t20.5 54t27.5 45t28 36l-30 23q-35 -40 -60 -49.5t-52 -9.5q-29 0 -57 17.5t-45.5 51.5t-17.5 83
q0 74 39.5 106.5t117.5 32.5h73q-16 86 -56.5 127.5t-116.5 41.5q-49 0 -81.5 -21t-32.5 -53q0 -19 14.5 -32t36.5 -13q17 0 31.5 7.5t23.5 26.5q8 15 20.5 24.5t29.5 9.5q29 0 53 -22.5t32 -63.5h-138q-106 0 -167 -41t-61 -135q0 -88 62.5 -144t178.5 -56z" />
    <glyph glyph-name="sinSixlith" unicode="&#xdec;" horiz-adv-x="828" 
d="M396 348q49 0 96.5 -6t88.5 -18t72.5 -31.5t49 -47t17.5 -63.5q0 -45 -14.5 -76t-38 -49.5t-50 -27t-50.5 -9.5v-24q34 0 70 11t66.5 36t49.5 65.5t19 100.5q0 73 -26.5 124.5t-69 85.5t-93 53t-100 26.5t-87.5 7.5q-39 0 -86.5 -9t-95.5 -29.5t-88.5 -55t-65 -86
t-24.5 -122.5q0 -57 18.5 -96.5t47.5 -64t63 -36t65 -11.5q68 0 104.5 35.5t36.5 94.5v14t-1 13h-34q1 -4 1 -8.5v-9.5q0 -50 -26.5 -77.5t-80.5 -27.5q-19 0 -42 8t-43.5 24t-33.5 40.5t-13 57.5q0 35 12.5 64.5t37.5 52.5t61 39t83 24t104 8zM567 -4q29 0 53.5 14.5
t39 38.5t14.5 53t-14.5 53.5t-39 39t-53.5 14.5t-53 -14.5t-38.5 -39t-14.5 -53.5q0 -43 31.5 -74.5t74.5 -31.5zM567 169q28 0 47.5 -20t19.5 -47t-19.5 -46.5t-47.5 -19.5q-27 0 -46.5 19.5t-19.5 46.5t19.5 47t46.5 20z" />
    <glyph glyph-name="sinSevenlith" unicode="&#xded;" horiz-adv-x="754" 
d="M284 492q-56 0 -92 -19.5t-36 -59.5q0 -17 13.5 -32.5t41.5 -15.5q23 0 37 12.5t21 23.5q11 20 27.5 27t35.5 7q24 0 47 -13.5t39 -36.5t18 -53h-119q-84 0 -146 -31t-95.5 -83.5t-33.5 -117.5q0 -71 29 -128t79 -97t112.5 -61.5t129.5 -21.5t126 20t104 56.5t70.5 86
t25.5 108.5h-38q0 -46 -18.5 -82.5t-49.5 -62t-68 -39t-73 -13.5q-68 0 -123.5 29t-88.5 85.5t-33 139.5t44.5 131t154.5 48h52v5.5v4.5q0 56 -25 97t-68.5 63.5t-99.5 22.5z" />
    <glyph glyph-name="sinEightlith" unicode="&#xdee;" horiz-adv-x="656" 
d="M59 189q0 -73 33.5 -130t92 -89.5t131.5 -32.5q80 0 142.5 36.5t98.5 97t36 132.5q0 50 -15.5 91t-47.5 76q-37 41 -82.5 60.5t-80.5 19.5q25 7 58 18t65 24.5t53 24.5q56 29 79 55t23 51q0 21 -15.5 30t-29.5 9q-24 0 -40 -11t-30.5 -29.5t-31.5 -39t-42 -40.5
q-37 -28 -69.5 -45t-67.5 -29.5t-81 -30.5q-50 -19 -91 -52.5t-64.5 -82t-23.5 -113.5zM116 240q0 42 20 76t52.5 57.5t70 36t71.5 12.5q54 0 92.5 -18t59 -49.5t20.5 -73.5q0 -59 -26.5 -99.5t-73.5 -61t-109 -20.5q-63 0 -102 20.5t-57 53t-18 66.5z" />
    <glyph glyph-name="sinNinelith" unicode="&#xdef;" horiz-adv-x="1172" 
d="M691 660q0 33 23 54.5t54 21.5q32 0 55.5 -22t23.5 -54q0 -28 -22.5 -50.5t-56.5 -22.5t-55.5 22.5t-21.5 50.5zM280 652q0 -44 34 -81t98 -52l7 12q-59 20 -82.5 50t-23.5 53q0 48 38 77t98.5 42.5t128.5 13.5q34 0 66.5 -3.5t56.5 -8.5t31 -9l18 20q-31 0 -52 -16.5
t-32 -41t-11 -49.5q0 -30 16 -54t42 -38t55 -14q48 0 81.5 31.5t33.5 78.5q0 46 -28 81t-73.5 59t-99 36t-105.5 12q-79 0 -135.5 -19t-92.5 -49t-52.5 -64.5t-16.5 -66.5zM250 312q0 23 20 39t46 16t45 -16t19 -39q0 -22 -19 -38.5t-45 -16.5t-46 16.5t-20 38.5zM29 236
q0 -75 36.5 -131.5t100 -87.5t143.5 -31q85 0 143 28.5t88 76t30 104.5q0 69 -32.5 115.5t-86 70t-118.5 23.5q-52 0 -88 -25.5t-36 -67.5q0 -26 15.5 -46t40.5 -31.5t51 -11.5q27 0 51 11.5t39 31.5t15 46q0 15 -6 30t-18 26q44 -10 65 -37.5t21 -55.5q0 -38 -21.5 -66.5
t-60.5 -44t-92 -15.5q-63 0 -106 21t-65 55.5t-22 73.5q0 35 17 64.5t47.5 51.5t72.5 34t93 12q75 0 141 -27t116.5 -84t81 -146t34.5 -214h36q-4 132 -36.5 227.5t-88 157.5t-128 92t-156.5 30q-73 0 -131.5 -18t-100 -52t-63.5 -82t-22 -108zM1062 188q0 -80 -40 -124
t-98 -44q-24 0 -39 4.5t-25 9.5v-35q11 -6 29.5 -10.5t40.5 -4.5q60 0 100.5 34t61 89t20.5 117q0 38 -6 77t-19.5 74t-37.5 62t-60 43t-86 16q-51 0 -91 -23t-66 -62t-34.5 -89t1.5 -104l11 -57l24 -77q-4 29 -5 55.5t-1 49.5q0 49 17.5 87t53.5 59.5t90 21.5
q51 0 86.5 -23t54 -61.5t18.5 -84.5z" />
    <glyph glyph-name="sinMatraRr" unicode="&#xdf2;" horiz-adv-x="750" 
d="M188 0q-39 0 -76 17.5t-60.5 53t-23.5 88.5q0 39 15 73.5t49 56t90 21.5h6v-114h-6q-17 0 -27 -10t-10 -26q0 -20 13.5 -31t29.5 -11q15 0 26 11t11 33v220q0 14 -3.5 28t-15.5 24t-38 10h-90v130h108q45 0 81 -23t57 -63t21 -90v-241q0 -53 -23 -88t-59 -52t-75 -17z
M563 0q-39 0 -76 17.5t-60.5 53t-23.5 88.5q0 39 15 73.5t49 56t90 21.5h6v-114h-6q-17 0 -27 -10t-10 -26q0 -20 13.5 -31t29.5 -11q15 0 26 11t11 33v220q0 14 -3.5 28t-15.5 24t-38 10h-90v130h108q45 0 81 -23t57 -63t21 -90v-241q0 -53 -23 -88t-59 -52t-75 -17z" />
    <glyph glyph-name="sinMatraLl" unicode="&#xdf3;" horiz-adv-x="424" 
d="M208 -8q-44 0 -85 19t-67 58t-26 97v36h127v-36q0 -18 8.5 -30t21.5 -18.5t27 -6.5t26 6t19.5 18.5t7.5 30.5v257q0 10 -5 15t-10 5q-6 0 -11 -5t-5 -15v-48q0 -42 -29.5 -64.5t-66.5 -22.5q-27 0 -52 12.5t-41.5 38.5t-16.5 66v159h92v-121q0 -8 5 -12.5t11 -4.5
q5 0 10 4.5t5 12.5v19q0 37 16.5 61t43 36t54.5 12q50 0 88 -34.5t39 -99.5v-271q0 -57 -27 -95.5t-69.5 -58.5t-89.5 -20z" />
    <glyph glyph-name="sinkundaliya" unicode="&#xdf4;" horiz-adv-x="1556" 
d="M40 0v112h220q47 0 81 11t62 36.5t55 69t59 107.5t75 153l98 -55q-54 -106 -93.5 -181.5t-73 -124.5t-69 -77t-82 -39.5t-112.5 -11.5h-220zM649 -1l-99 56l231 468l98 -56zM823 -1l-99 56l170 341l98 -55zM998 -1l-100 56l112 227q91 -55 154 -88.5t105.5 -51t71 -23.5
t51.5 -6h124v-113h-124q-45 0 -95.5 15t-109 43.5t-126.5 67.5z" />
    <glyph glyph-name="uni200C" unicode="&#x200c;" horiz-adv-x="0" 
d="M-20 9v752h40v-752h-40z" />
    <glyph glyph-name="uni200D" unicode="&#x200d;" horiz-adv-x="0" 
d="M-145 489l-22 33l323 223l23 -33zM-20 9v620h40v-620h-40zM145 489l-323 223l23 33l323 -223z" />
    <glyph glyph-name="endash" unicode="&#x2013;" horiz-adv-x="532" 
d="M26 230v127h480v-127h-480z" />
    <glyph glyph-name="emdash" unicode="&#x2014;" horiz-adv-x="906" 
d="M26 230v127h854v-127h-854z" />
    <glyph glyph-name="quoteleft" unicode="&#x2018;" horiz-adv-x="187" 
d="M30 465v271h127v-271h-127z" />
    <glyph glyph-name="quoteright" unicode="&#x2019;" horiz-adv-x="187" 
d="M30 465v271h127v-271h-127z" />
    <glyph glyph-name="quotesinglbase" unicode="&#x201a;" horiz-adv-x="187" 
d="M30 465v271h127v-271h-127z" />
    <glyph glyph-name="quotedblleft" unicode="&#x201c;" horiz-adv-x="367" 
d="M210 465v271h127v-271h-127zM30 465v271h127v-271h-127z" />
    <glyph glyph-name="quotedblright" unicode="&#x201d;" horiz-adv-x="367" 
d="M210 465v271h127v-271h-127zM30 465v271h127v-271h-127z" />
    <glyph glyph-name="quotedblbase" unicode="&#x201e;" horiz-adv-x="359" 
d="M188 -23l37 152h127l-37 -152h-127zM7 -23l37 152h127l-37 -152h-127z" />
    <glyph glyph-name="dagger" unicode="&#x2020;" horiz-adv-x="453" 
d="M156 -56v506h-130v127h130v187h141v-187h130v-127h-130v-506h-141z" />
    <glyph glyph-name="daggerdbl" unicode="&#x2021;" horiz-adv-x="453" 
d="M156 -56v187h-130v127h130v192h-130v127h130v187h141v-187h130v-127h-130v-192h130v-127h-130v-187h-141z" />
    <glyph glyph-name="bullet" unicode="&#x2022;" horiz-adv-x="352" 
d="M176 194q-42 0 -76 20t-54 54t-20 76t20 76.5t54 55t76 20.5q43 0 76.5 -20.5t53.5 -55t20 -76.5t-20 -76t-53.5 -54t-76.5 -20z" />
    <glyph glyph-name="ellipsis" unicode="&#x2026;" horiz-adv-x="611" 
d="M506 -21q-31 0 -53 22t-22 53q0 32 22 54t53 22q32 0 53.5 -22t21.5 -54q0 -31 -21.5 -53t-53.5 -22zM105 -21q-31 0 -53 22t-22 53q0 32 22 54t53 22q32 0 53.5 -22t21.5 -54q0 -31 -21.5 -53t-53.5 -22zM306 -21q-31 0 -53 22t-22 53q0 32 22 54t53 22q32 0 53.5 -22
t21.5 -54q0 -31 -21.5 -53t-53.5 -22z" />
    <glyph glyph-name="perthousand" unicode="&#x2030;" horiz-adv-x="897" 
d="M65 0l432 700h76l-425 -700h-83zM122 352q-16 0 -34.5 7t-34.5 25.5t-26.5 53t-10.5 89.5q0 74 17.5 111.5t42.5 50.5t46 13v-77q-14 -3 -20 -16.5t-7.5 -33t-1.5 -42.5v-11q0 -23 1.5 -43t7.5 -33t20 -17v-77zM489 0q-16 0 -34.5 7t-34.5 25.5t-26.5 53t-10.5 89.5
q0 74 17.5 111.5t42.5 50.5t46 13v-77q-14 -3 -20 -16.5t-7.5 -33t-1.5 -42.5v-11q0 -23 1.5 -43t7.5 -33t20 -17v-77zM149 352v77q14 4 20 17t7.5 33t1.5 43v11q0 23 -1.5 42.5t-7.5 33t-20 16.5v77q22 0 46.5 -13t42 -50.5t17.5 -111.5q0 -55 -10.5 -89.5t-26.5 -53
t-34.5 -25.5t-34.5 -7zM516 0v77q14 4 20 17t7.5 33t1.5 43v11q0 23 -1.5 42.5t-7.5 33t-20 16.5v77q22 0 46.5 -13t42 -50.5t17.5 -111.5q0 -55 -10.5 -89.5t-26.5 -53t-34.5 -25.5t-34.5 -7zM747 0q-16 0 -34.5 7t-34.5 25.5t-26.5 53t-10.5 89.5q0 74 17.5 111.5
t42.5 50.5t46 13v-77q-14 -3 -20 -16.5t-7.5 -33t-1.5 -42.5v-11q0 -23 1.5 -43t7.5 -33t20 -17v-77zM774 0v77q14 4 20 17t7.5 33t1.5 43v11q0 23 -1.5 42.5t-7.5 33t-20 16.5v77q22 0 46.5 -13t42 -50.5t17.5 -111.5q0 -55 -10.5 -89.5t-26.5 -53t-34.5 -25.5t-34.5 -7z
" />
    <glyph glyph-name="guilsinglleft" unicode="&#x2039;" horiz-adv-x="338" 
d="M157 79l-131 213l131 208h155l-131 -208l131 -213h-155z" />
    <glyph glyph-name="guilsinglright" unicode="&#x203a;" horiz-adv-x="338" 
d="M26 79l131 213l-131 208h155l131 -208l-131 -213h-155z" />
    <glyph glyph-name="fraction" unicode="&#x2044;" horiz-adv-x="560" 
d="M26 -2l432 704h76l-425 -704h-83z" />
    <glyph glyph-name="uni2074" unicode="&#x2074;" horiz-adv-x="269" 
d="M20 439v63l97 169v-129l-20 -40h20v-63h-97zM142 384v316h72v-198h25v-63h-25v-55h-72z" />
    <glyph glyph-name="Euro" unicode="&#x20ac;" horiz-adv-x="567" 
d="M380 463q0 11 0.5 25t0.5 20q0 16 -5 27t-14.5 17t-23.5 6v140q41 -1 74 -15t56.5 -39t36 -58t12.5 -72zM278 2q-38 3 -69.5 18t-55.5 40t-38 56.5t-16 65.5v76h-49v59h49v60h-49v59h49v60q0 41 14.5 77t39 63.5t57 44t68.5 17.5v-140q-10 0 -18 -3.5t-13.5 -10t-8 -15.5
t-2.5 -21v-72h172v-60h-172v-59h172v-59h-172v-56q0 -18 3 -29.5t9 -18.5t13.5 -10t16.5 -3v-139zM338 2v140q15 1 24.5 8t14 19.5t4.5 29.5v19v19l136 -51q0 -31 -15 -63t-41 -59t-58 -44t-65 -18z" />
    <glyph glyph-name="uni2113" unicode="&#x2113;" horiz-adv-x="196" 
d="M226 -7q-22 0 -54 11t-62 34t-50.5 61t-20.5 92v507h132v-507q0 -17 7.5 -28t18 -17t19 -8.5t10.5 -2.5v-142z" />
    <glyph glyph-name="trademark" unicode="&#x2122;" horiz-adv-x="403" 
d="M72 484v169h-46v47h139v-47h-45v-169h-48zM188 484v143h3l45 -108v-35h-48zM265 484l-77 185v31h37l56 -136l32 72h4v-107l-19 -45h-33zM330 484v216h47v-216h-47z" />
    <glyph glyph-name="uni2126" unicode="&#x2126;" horiz-adv-x="473" 
d="M30 0v65h47q-16 21 -24 42.5t-8 36.5v235q0 19 10 43t30 46t51 36.5t73 14.5v-118q-18 0 -27.5 -5.5t-13 -13.5t-3.5 -16v-209q0 -11 3.5 -19.5t13.5 -13t27 -4.5v-120h-179zM264 0v120q18 0 27.5 4.5t13 13t3.5 19.5v209q0 8 -3.5 16t-13 13.5t-27.5 5.5v118
q42 0 73 -14.5t51 -36.5t30 -46t10 -43v-235q0 -15 -7.5 -36.5t-24.5 -42.5h47v-65h-179z" />
    <glyph glyph-name="estimated" unicode="&#x212e;" horiz-adv-x="531" 
d="M238 -3q-52 0 -100 25.5t-78 70.5t-30 103v310q0 58 30 103t78 70.5t100 25.5v-140q-16 -1 -31.5 -10.5t-26 -29.5t-10.5 -54v-65h191v65q0 50 -22 71t-46 23v140q53 0 100.5 -25.5t77.5 -70.5t30 -103v-240h-331v-35q0 -50 23 -71t45 -23v-140zM293 -3v140q14 2 28 9.5
t25 23.5t14 42l140 -34q-5 -53 -35.5 -94t-76 -64t-95.5 -23z" />
    <glyph glyph-name="partialdiff" unicode="&#x2202;" horiz-adv-x="420" 
d="M233 -1v118q17 0 26 6.5t12.5 16t3.5 17.5v196q0 13 -3.5 23t-12.5 16t-26 6v118q11 0 20.5 -0.5t19.5 -3.5q0 31 -16 56t-43.5 42.5t-64.5 27t-79 9.5v67q111 0 182 -29t105.5 -89t34.5 -154v-301q0 -18 -9.5 -42.5t-29.5 -47t-49.5 -37.5t-70.5 -15zM192 -1
q-42 0 -73 15t-51 38t-30 47t-10 42v235q0 18 10 42t30.5 46.5t51.5 37t72 14.5v-118q-18 0 -27.5 -7.5t-13 -18t-3.5 -19.5v-199q0 -11 4 -19.5t14 -13t26 -4.5v-118z" />
    <glyph glyph-name="uni2206" unicode="&#x2206;" horiz-adv-x="646" 
d="M80 0l150 576h10l55 -206l-62 -245h180l-150 575h122l181 -700h-486z" />
    <glyph glyph-name="product" unicode="&#x220f;" horiz-adv-x="534" 
d="M73 -140v705h-43v135h474v-135h-43v-705h-130v705h-128v-705h-130z" />
    <glyph glyph-name="summation" unicode="&#x2211;" horiz-adv-x="676" 
d="M30 -140v149l220 302l-220 297v92h110l289 -393l-222 -297h321v-150h-498zM312 560l-97 131v9h313v-140h-216z" />
    <glyph glyph-name="minus" unicode="&#x2212;" horiz-adv-x="416" 
d="M50 230v127h316v-127h-316z" />
    <glyph glyph-name="uni2215" unicode="&#x2215;" horiz-adv-x="560" 
d="M26 -2l432 704h76l-425 -704h-83z" />
    <glyph glyph-name="uni2219" unicode="&#x2219;" horiz-adv-x="250" 
d="M105 364q-31 0 -53 22t-22 53q0 32 22 54t53 22q32 0 53.5 -22t21.5 -54q0 -31 -21.5 -53t-53.5 -22z" />
    <glyph glyph-name="radical" unicode="&#x221a;" horiz-adv-x="639" 
d="M306 0l-179 440l-85 -31l-36 104l206 78l145 -357l131 585h141l-181 -819h-142z" />
    <glyph glyph-name="infinity" unicode="&#x221e;" horiz-adv-x="798" 
d="M235 0v118q14 0 22.5 3t12.5 10l66 131l-64 125q-5 6 -14 9t-23 3v118q53 0 89.5 -22t52.5 -53l25 -48l24 48q16 31 53 53t89 22v-118q-14 0 -23 -3t-14 -9l-64 -125l66 -131q5 -7 13.5 -10t21.5 -3v-118q-51 0 -83.5 21.5t-52.5 52.5l-30 60l-31 -60q-19 -31 -52 -52.5
t-84 -21.5zM194 0q-42 0 -73 15t-51 38t-30 47t-10 42v235q0 18 10 42t30.5 46.5t51.5 37t72 14.5v-118q-18 0 -27.5 -6t-13 -14t-3.5 -15v-209q0 -11 4 -19.5t14 -13t26 -4.5v-118zM609 0v118q17 0 26 5.5t12.5 14t3.5 15.5v211q0 11 -3.5 18.5t-12.5 12t-26 4.5v118
q40 0 70 -14.5t49.5 -37t29.5 -46.5t10 -42v-235q0 -18 -9.5 -42.5t-29.5 -47t-49.5 -37.5t-70.5 -15z" />
    <glyph glyph-name="integral" unicode="&#x222b;" horiz-adv-x="341" 
d="M30 -205v65q2 0 17 5.5t33.5 20.5t32.5 42t14 69v628q0 54 20 91t49.5 60t61 33t53.5 10v-65q-2 0 -16.5 -3.5t-33 -16t-32 -38.5t-13.5 -71v-628q0 -54 -20 -92.5t-50.5 -62.5t-61.5 -35.5t-54 -11.5z" />
    <glyph glyph-name="approxequal" unicode="&#x2248;" horiz-adv-x="568" 
d="M381 365q-34 0 -62 11t-53.5 25.5t-51.5 25.5t-57 11q-22 0 -48.5 -8t-58.5 -28v133q34 20 62 27.5t51 7.5q33 0 59.5 -11t52 -25.5t52.5 -25.5t60 -11q26 0 58.5 10t72.5 35v-131q-42 -25 -75.5 -35.5t-61.5 -10.5zM381 127q-34 0 -62 11t-53.5 25.5t-51.5 25.5t-57 11
q-22 0 -48.5 -8t-58.5 -28v133q34 20 62 27.5t51 7.5q33 0 59.5 -11t52 -25.5t52.5 -25.5t60 -11q26 0 58.5 10t72.5 35v-131q-42 -25 -75.5 -35.5t-61.5 -10.5z" />
    <glyph glyph-name="notequal" unicode="&#x2260;" horiz-adv-x="418" 
d="M59 -78l175 739h126l-174 -739h-127zM50 325v127h318v-127h-318zM50 131v127h318v-127h-318z" />
    <glyph glyph-name="lessequal" unicode="&#x2264;" horiz-adv-x="474" 
d="M444 153l-414 178v58l414 178v-127l-218 -80l218 -80v-127zM30 -1v107h414v-107h-414z" />
    <glyph glyph-name="greaterequal" unicode="&#x2265;" horiz-adv-x="474" 
d="M30 154v127l218 80l-218 80v127l414 -178v-58zM30 0v107h414v-107h-414z" />
    <glyph glyph-name="lozenge" unicode="&#x25ca;" horiz-adv-x="414" 
d="M175 -2l-178 354l178 354h64l179 -354l-179 -354h-64zM205 176l86 176l-86 176l-78 -176z" />
    <glyph glyph-name="uni25CC" unicode="&#x25cc;" horiz-adv-x="636" 
d="M443 430q-23 0 -39 16t-16 38q0 23 16 38.5t38 15.5q23 0 38.5 -15.5t15.5 -37.5q0 -23 -15.5 -39t-37.5 -16zM203 18q-23 0 -39 16t-16 38q0 23 16 38.5t38 15.5q23 0 38.5 -15.5t15.5 -37.5q0 -23 -15.5 -39t-37.5 -16zM117 104q-23 0 -39 16t-16 38q0 23 16 38.5
t38 15.5q23 0 38.5 -15.5t15.5 -37.5q0 -23 -15.5 -39t-37.5 -16zM323 -14q-23 0 -39 16t-16 38q0 23 16 38.5t38 15.5q23 0 38.5 -15.5t15.5 -37.5q0 -23 -15.5 -39t-37.5 -16zM85 224q-23 0 -39 16t-16 38q0 23 16 38.5t38 15.5q23 0 38.5 -15.5t15.5 -37.5
q0 -23 -15.5 -39t-37.5 -16zM117 344q-23 0 -39 16t-16 38q0 23 16 38.5t38 15.5q23 0 38.5 -15.5t15.5 -37.5q0 -23 -15.5 -39t-37.5 -16zM443 18q-23 0 -39 16t-16 38q0 23 16 38.5t38 15.5q23 0 38.5 -15.5t15.5 -37.5q0 -23 -15.5 -39t-37.5 -16zM203 430q-23 0 -39 16
t-16 38q0 23 16 38.5t38 15.5q23 0 38.5 -15.5t15.5 -37.5q0 -23 -15.5 -39t-37.5 -16zM529 104q-23 0 -39 16t-16 38q0 23 16 38.5t38 15.5q23 0 38.5 -15.5t15.5 -37.5q0 -23 -15.5 -39t-37.5 -16zM561 224q-23 0 -39 16t-16 38q0 23 16 38.5t38 15.5q23 0 38.5 -15.5
t15.5 -37.5q0 -23 -15.5 -39t-37.5 -16zM323 462q-23 0 -39 16t-16 38q0 23 16 38.5t38 15.5q23 0 38.5 -15.5t15.5 -37.5q0 -23 -15.5 -39t-37.5 -16zM529 344q-23 0 -39 16t-16 38q0 23 16 38.5t38 15.5q23 0 38.5 -15.5t15.5 -37.5q0 -23 -15.5 -39t-37.5 -16z" />
    <glyph glyph-name="u111E1" unicode="&#x111e1;" horiz-adv-x="830" 
d="M719 475v-485h34v485h-34zM248 312q0 23 20 39t46 16t45 -16t19 -39q0 -22 -19 -38.5t-45 -16.5t-46 16.5t-20 38.5zM27 236q0 -75 36.5 -131.5t100 -87.5t143.5 -31q85 0 143 28.5t88 76t30 104.5q0 69 -32.5 115.5t-86 70t-118.5 23.5q-52 0 -88 -25.5t-36 -67.5
q0 -26 15.5 -46t40.5 -31.5t51 -11.5q27 0 51 11.5t39 31.5t15 46q0 15 -6 30t-18 26q44 -10 65 -37.5t21 -55.5q0 -38 -21.5 -66.5t-60.5 -44t-92 -15.5q-63 0 -106 21t-65 55.5t-22 73.5q0 35 17 64.5t47.5 51.5t72.5 34t93 12q75 0 141 -27t116.5 -84t81 -146t34.5 -214
h36q-4 132 -36.5 227.5t-88 157.5t-128 92t-156.5 30q-73 0 -131.5 -18t-100 -52t-63.5 -82t-22 -108z" />
    <glyph glyph-name="u111E2" unicode="&#x111e2;" horiz-adv-x="1091" 
d="M333 345q26 0 45 -15.5t19 -38.5q0 -22 -19 -39t-45 -17t-45.5 17t-19.5 39q0 23 19.5 38.5t45.5 15.5zM46 215q0 -74 35.5 -130.5t99 -88.5t145.5 -32q78 0 137 26.5t91.5 73.5t32.5 109q0 63 -29.5 110.5t-82.5 73.5t-125 26q-53 0 -88 -26t-35 -67q0 -37 31.5 -63.5
t74.5 -26.5t74 26.5t31 63.5q0 15 -6.5 30t-17.5 25q38 -9 62 -34.5t24 -58.5q0 -38 -21.5 -66.5t-60.5 -44t-92 -15.5q-56 0 -99.5 19t-68 53t-24.5 78q0 48 29 84.5t80 57t116 20.5q85 0 145 -27t104.5 -89t81.5 -167q31 -85 60.5 -141t60.5 -88t65.5 -45.5t73.5 -13.5
q64 0 107.5 41t67.5 114l-38 18q-25 -37 -59.5 -56.5t-80.5 -19.5t-87 22.5t-75 68.5t-60 114q-42 111 -92.5 178t-116.5 97.5t-157 30.5q-96 0 -166 -32t-108.5 -90.5t-38.5 -137.5z" />
    <glyph glyph-name="u111E3" unicode="&#x111e3;" horiz-adv-x="1357" 
d="M723 187l11 -180l19 -18v127q0 46 10 70.5t25.5 33.5t32.5 9q35 0 57.5 -29.5t40.5 -77.5q24 -65 49 -109.5t53.5 -72t62 -40t72.5 -12.5q64 0 107.5 41t66.5 114l-37 18q-25 -37 -59.5 -56.5t-81.5 -19.5q-46 0 -87 22.5t-74.5 68.5t-59.5 114q-10 25 -23 54t-34.5 50
t-58.5 21q-48 0 -72 -35.5t-20 -92.5zM248 312q0 23 20 39t46 16t45 -16t19 -39q0 -22 -19 -38.5t-45 -16.5t-46 16.5t-20 38.5zM27 236q0 -75 36.5 -131.5t100 -87.5t143.5 -31q85 0 143 28.5t88 76t30 104.5q0 69 -32.5 115.5t-86 70t-118.5 23.5q-52 0 -88 -25.5
t-36 -67.5q0 -26 15.5 -46t40.5 -31.5t51 -11.5q27 0 51 11.5t39 31.5t15 46q0 15 -6 30t-18 26q44 -10 65 -37.5t21 -55.5q0 -38 -21.5 -66.5t-60.5 -44t-92 -15.5q-63 0 -106 21t-65 55.5t-22 73.5q0 35 17 64.5t47.5 51.5t72.5 34t93 12q75 0 141 -27t116.5 -84t81 -146
t34.5 -214h36q-4 132 -36.5 227.5t-88 157.5t-128 92t-156.5 30q-73 0 -131.5 -18t-100 -52t-63.5 -82t-22 -108z" />
    <glyph glyph-name="u111E4" unicode="&#x111e4;" horiz-adv-x="914" 
d="M190 485q-50 0 -87 -31t-56.5 -89t-19.5 -138q0 -70 25.5 -127.5t68.5 -91t95 -33.5q25 0 45 8v33q-10 -4 -19.5 -6t-19.5 -2q-40 0 -71.5 23.5t-50 64.5t-18.5 91q0 68 30.5 104t86.5 36q51 0 79.5 -36t28.5 -101v-24h38v24q0 66 28 101.5t80 35.5t80 -35.5t28 -101.5
v-24h38v24q0 65 30 101t82 36q57 0 86 -38.5t29 -115.5v-374h-61q-41 0 -69.5 23t-28.5 57q0 38 19 66.5t54 45.5q6 3 9 5t10.5 5t28 11.5t61.5 24.5l-12 29q-25 -10 -53 -20.5t-66 -27.5q-73 -31 -107.5 -67.5t-34.5 -83.5q0 -57 44 -89t121 -32h126v520q0 100 -40.5 159.5
t-109.5 59.5q-71 0 -107 -46.5t-36 -137.5h24q0 90 -37 137t-108 47q-70 0 -107.5 -47t-37.5 -137h24q0 91 -35.5 137.5t-106.5 46.5z" />
    <glyph glyph-name="u111E5" unicode="&#x111e5;" horiz-adv-x="1312" 
d="M842 319q-31 0 -58.5 -16t-44 -47t-14.5 -75l9 -171l19 -21v89q0 48 14.5 74t35.5 36.5t39 10.5q23 0 45.5 -10.5t37.5 -36.5t15 -74v-89h34v201q0 31 -16 60.5t-45.5 49t-70.5 19.5zM962 61l12 -36v33q0 47 19 71t50 24q32 0 50 -20t34 -66q18 -54 53.5 -73.5t91.5 -3.5
v30q-38 -10 -61 -5t-36 23.5t-24 49.5q-11 34 -22.5 70t-32 60.5t-58.5 24.5q-49 0 -70.5 -44t-8.5 -117zM248 312q0 23 20 39t46 16t45 -16t19 -39q0 -22 -19 -38.5t-45 -16.5t-46 16.5t-20 38.5zM27 236q0 -75 36.5 -131.5t100 -87.5t143.5 -31q85 0 143 28.5t88 76
t30 104.5q0 69 -32.5 115.5t-86 70t-118.5 23.5q-52 0 -88 -25.5t-36 -67.5q0 -26 15.5 -46t40.5 -31.5t51 -11.5q27 0 51 11.5t39 31.5t15 46q0 15 -6 30t-18 26q44 -10 65 -37.5t21 -55.5q0 -38 -21.5 -66.5t-60.5 -44t-92 -15.5q-63 0 -106 21t-65 55.5t-22 73.5
q0 35 17 64.5t47.5 51.5t72.5 34t93 12q75 0 141 -27t116.5 -84t81 -146t34.5 -214h36q-4 132 -36.5 227.5t-88 157.5t-128 92t-156.5 30q-73 0 -131.5 -18t-100 -52t-63.5 -82t-22 -108z" />
    <glyph glyph-name="u111E6" unicode="&#x111e6;" horiz-adv-x="825" 
d="M448 269v31h-86q-90 0 -143 -44.5t-53 -119.5q0 -53 23 -90t62.5 -60.5t89 -34t102.5 -10.5q109 0 182.5 41.5t111.5 115t38 167.5q0 75 -23.5 140t-66 113.5t-101.5 76t-130 27.5q-87 0 -151 -32t-108 -94h41q39 47 93.5 71.5t124.5 24.5q60 0 106.5 -23t79.5 -62.5
t50 -88.5t17 -102q0 -94 -62.5 -151.5t-197.5 -57.5q-33 0 -68 3t-65 12t-48.5 26t-18.5 45q0 22 14.5 39t43.5 27t72 10h71zM178 -59v40q-89 77 -89 218q0 60 19.5 110t64 80.5t118.5 30.5h52t52 -1v29q-24 1 -47.5 1.5t-46.5 0.5q-124 0 -187.5 -65.5t-63.5 -182.5
q0 -90 35 -161t93 -100zM235 361q0 -38 31 -64t96 -26l45 14v18h-35q-43 0 -70.5 12t-27.5 46q0 23 17 41t70 18v28q-48 0 -75.5 -13t-39 -33t-11.5 -41z" />
    <glyph glyph-name="u111E7" unicode="&#x111e7;" horiz-adv-x="823" 
d="M578 72v-295h-29q-44 0 -70 12.5t-38 30.5t-15.5 36t-3.5 29q0 17 8.5 41t30 42t60.5 18q17 0 32.5 -0.5t31.5 -5.5l21 -7q39 -12 69.5 -32.5t69.5 -61.5h28v609h-43v-573l26 -9q-28 29 -64 55.5t-86 42.5l-16 7q-33 6 -69 6q-71 0 -113 -20t-59.5 -52.5t-17.5 -70.5
q0 -29 21 -58.5t64 -49.5t110 -20h93v444q0 55 -15 107.5t-49 95t-88.5 67.5t-134.5 25q-79 0 -133.5 -26.5t-87 -69t-47 -92t-14.5 -95.5q0 -41 11 -81.5t32.5 -73.5t55 -53t78.5 -20q21 0 45 9v30q-20 -7 -39 -7q-41 0 -73.5 21t-50.5 54t-18 67q0 44 15 77t44.5 55.5
t75 34t106.5 11.5q84 0 138.5 -24t81 -79.5t26.5 -150.5z" />
    <glyph glyph-name="u111E8" unicode="&#x111e8;" horiz-adv-x="944" 
d="M210 485q-76 0 -119.5 -63.5t-43.5 -181.5q0 -72 25.5 -120t68.5 -72.5t95 -24.5q12 0 23 2t22 7v32q-20 -7 -39 -7q-60 0 -100 32.5t-40 110.5q0 65 30.5 96t86.5 31q51 0 79.5 -36t28.5 -101v-24h38v24q0 66 28 101.5t80 35.5t80 -35.5t28 -101.5v-24h38v24
q0 65 30 101t82 36q41 0 66 -19t37 -53.5t12 -81.5q0 -91 -29.5 -157t-76 -110t-101 -70.5t-105 -37.5t-85.5 -12q-56 0 -103 7.5t-74.5 26t-27.5 51.5q0 39 41 61t129 22q75 0 140 -16.5t123 -46t110 -67t100 -79.5v43q-41 39 -90.5 75.5t-108.5 65.5t-127.5 46.5
t-146.5 17.5q-44 0 -93 -5.5t-91.5 -18.5t-69 -37t-26.5 -61q0 -38 27.5 -62.5t73.5 -38t101.5 -19t112.5 -5.5q48 0 106.5 13.5t117 44.5t107 84.5t78 133.5t29.5 191q0 62 -8.5 112t-26.5 86t-46.5 55t-68.5 19q-71 0 -107 -46.5t-36 -137.5h24q0 90 -37 137t-108 47
q-70 0 -107.5 -47t-37.5 -137h24q0 91 -35.5 137.5t-106.5 46.5z" />
    <glyph glyph-name="u111E9" unicode="&#x111e9;" horiz-adv-x="1331" 
d="M355 466q-76 0 -120 -64.5t-44 -187.5q0 -69 25.5 -119t68.5 -76.5t95 -26.5q25 0 45 8v33q-10 -4 -19 -6t-20 -2q-40 0 -71.5 17t-50 50t-18.5 82q0 70 30.5 101.5t86.5 31.5q51 0 79.5 -35.5t28.5 -100.5v-25h39v25q0 66 27.5 101t79.5 35t80 -35t28 -101v-25h39v25
q0 65 29.5 100.5t81.5 35.5q41 0 66 -18.5t37 -53t12 -81.5q0 -64 -23.5 -121t-74 -100.5t-130.5 -68.5t-193 -25q-105 0 -195 25t-158 73.5t-105.5 119t-37.5 160.5q0 136 62 231.5t178 146.5t278 51q296 0 457 -192t203 -594h28v609h-42v-464l25 -118q0 130 -25.5 249.5
t-78 220t-132.5 175t-188.5 115.5t-246.5 41q-174 0 -299 -56.5t-192.5 -161.5t-67.5 -253q0 -113 39.5 -203.5t111.5 -154.5t172.5 -98t221.5 -34q149 0 250 58t152.5 163.5t51.5 245.5q0 62 -8.5 112t-26.5 85.5t-46.5 55t-68.5 19.5q-70 0 -106.5 -46.5t-36.5 -137.5h25
q0 90 -37.5 137t-108.5 47q-70 0 -107.5 -47t-37.5 -137h24q0 91 -35.5 137.5t-105.5 46.5z" />
    <glyph glyph-name="u111EA" unicode="&#x111ea;" horiz-adv-x="1095" 
d="M668 466q-45 0 -84.5 -23t-70 -62t-49.5 -89.5t-23 -105.5l31 -10q6 19 15 26.5t22 7.5q11 0 19 -6t8 -23q0 -22 -22 -35.5t-51.5 -19.5t-52.5 -6q-32 0 -64 8t-53.5 27t-21.5 50q0 29 29.5 55t99.5 26v28h-12q-85 0 -137.5 -48t-52.5 -127q0 -54 25 -95.5t70 -65
t104 -23.5q88 0 142 47.5t54 125.5q0 50 -21.5 81.5t-56.5 31.5q-16 0 -32 -8q15 47 60 76.5t101 29.5q64 0 107.5 -28.5t66.5 -83.5t23 -134v-106h-29q-43 0 -68 26.5t-25 64.5q0 43 25 68.5t65 25.5q11 0 20.5 -1t18.5 -3l19 -7q33 -12 56 -33.5t43.5 -62t44.5 -109.5h31
v510h-43v-474l26 -8q-22 64 -43.5 103.5t-47.5 63t-65 40.5l-16 6q-9 2 -28 4t-28 2q-75 0 -122 -34.5t-47 -90.5q0 -57 48 -89.5t131 -32.5h68v249q0 77 -26.5 135.5t-73 92t-107.5 33.5zM172 -44v40q-90 77 -90 218q0 60 20 110t64.5 80.5t117.5 30.5h104v30h-47h-47
q-124 0 -187.5 -65.5t-63.5 -182.5q0 -90 35.5 -161t93.5 -100zM229 376q0 -38 30.5 -64t96.5 -26l44 13v19h-35q-43 0 -70.5 12t-27.5 46q0 23 17 41t70 18v28q-47 0 -74.5 -13t-39 -33t-11.5 -41z" />
    <glyph glyph-name="u111EB" unicode="&#x111eb;" horiz-adv-x="1005" 
d="M311 271h196v30h-364v-38q14 3 60 5.5t108 2.5zM197 118q0 -46 21.5 -88t61.5 -68.5t96 -26.5q60 0 97.5 26t56.5 72q17 -45 55 -70.5t95 -25.5q87 0 143 50.5t56 145.5q0 91 -58 134t-158 43q-21 0 -43 -2t-32 -5q5 50 31.5 74t72.5 24h53v32q-36 0 -64 13t-44 36.5
t-16 55.5q0 41 29 70t74 29q40 0 72 -18t56 -46t41 -60.5t28.5 -62t18.5 -49.5h35v268h-42v-198l23 -41q-6 17 -17.5 46.5t-30 62.5t-47 62.5t-69 48.5t-95.5 19q-37 0 -75.5 -12t-65 -40.5t-26.5 -77.5q0 -34 17.5 -57.5t45 -37.5t58 -20t56.5 -6v15q-65 0 -109 -38
t-44 -115v-5.5v-5.5q31 7 57 9t57 2q62 0 97.5 -22.5t35.5 -63.5q0 -43 -37.5 -67.5t-102.5 -24.5q-38 0 -63.5 7.5t-37.5 22.5t-12 38v19h-32v-19q0 -21 -13 -36.5t-38 -23.5t-62 -8t-65 11t-44 30.5t-16 44.5q0 28 13 46t38.5 27.5t62.5 9.5h115l-36 30h-16
q-30 0 -72.5 -8t-75.5 -20q-52 -16 -81 -57t-29 -98zM50 198q0 -60 15.5 -112.5t44.5 -91t68 -57.5v40q-90 77 -90 217q0 60 20.5 110.5t67.5 81t127 30.5h92v31h-95q-123 0 -186.5 -66t-63.5 -183zM259 358q0 -38 33 -59.5t88 -21.5l51 12v12h-41q-48 0 -72.5 15.5
t-24.5 41.5q0 24 16.5 41t54.5 17h21v23q-126 0 -126 -81z" />
    <glyph glyph-name="u111EC" unicode="&#x111ec;" horiz-adv-x="848" 
d="M276 416q58 0 98 -22t57 -72q58 -1 77.5 -25.5t19.5 -57.5q0 -31 -21 -50t-48 -19q-15 0 -35.5 5t-35.5 24t-15 60q0 47 -28.5 68t-68.5 21q-52 0 -86 -44t-34 -113q0 -77 38 -135.5t105 -91.5t155 -33q158 0 243.5 85t85.5 243l-82 55q0 -103 -67 -163t-183 -60
q-111 0 -176.5 38.5t-65.5 105.5q0 35 20 58.5t53 23.5q26 0 42.5 -14.5t16.5 -43.5q0 -48 18 -74t45 -36t55 -10q40 0 70 28.5t30 71.5q0 47 -24.5 76t-80.5 36q-22 50 -70.5 75.5t-113.5 25.5q-72 0 -125 -33t-81.5 -94t-28.5 -145t36 -148.5t100 -99.5v40
q-46 31 -73 87.5t-27 120.5q0 76 24 128.5t70 80t111 27.5zM411 629q87 0 155.5 -19t113 -54t58.5 -83h35v255h-42v-221l10 2q-15 44 -49.5 82.5t-81.5 67.5t-101.5 46t-109.5 17q-67 0 -118.5 -16t-80 -44.5t-28.5 -66.5q0 -35 21 -55.5t75.5 -30.5t156.5 -16q56 -3 92 -6
t59 -8.5t39.5 -15t34.5 -24.5q23 -20 37 -54t14 -74l82 -62q0 72 -26 131t-75 93q-23 17 -57.5 27.5t-83.5 17t-117 8.5q-77 3 -116 7.5t-52 13.5t-13 25q0 27 44.5 42t123.5 15z" />
    <glyph glyph-name="u111ED" unicode="&#x111ed;" horiz-adv-x="1283" 
d="M176 -44v41q-49 35 -69 77.5t-20 104.5q0 46 14 81.5t39.5 56.5t58.5 21q16 0 29 -3t30 -8l4 35q-16 5 -31 8.5t-36 3.5q-35 0 -69 -21t-56 -65.5t-22 -115.5q0 -38 12.5 -78.5t41 -76.5t74.5 -61zM429 377q0 44 -29 67t-68 23q-19 0 -40 -8t-35 -26.5t-14 -52.5
q0 -10 3 -23.5t12 -29.5l22 13q-4 11 -5 17.5t-1 15.5q0 32 18 45.5t43 13.5q31 0 47 -19t16 -45q0 -17 -8.5 -30t-16.5 -21q-33 -37 -67.5 -91.5t-60.5 -116.5t-34 -124l27 -19q8 40 20 61.5t33 21.5q18 0 30.5 -9.5t25.5 -24t33 -29t53 -24t86 -9.5q62 0 109 24.5
t73.5 68.5t26.5 101q0 58 -25.5 99.5t-72.5 64t-113 22.5q-59 0 -94 -16q28 35 80.5 54.5t116.5 19.5q42 0 78.5 -13.5t65.5 -38.5t49 -62h26l1 11q4 29 23 54t56 25q29 0 49.5 -13t32 -38.5t11.5 -63.5v-265h-28q-29 0 -54 11.5t-40 32t-15 47.5q0 41 28.5 67.5t71.5 26.5
q14 0 24.5 -1t19.5 -4l20 -6q36 -13 62.5 -37.5t49 -65t44.5 -102.5h30v510h-42v-474l25 -9q-20 59 -43 98t-52.5 65t-72.5 44l-16 4q-19 5 -38 6.5t-36 1.5q-49 0 -86 -15.5t-58 -43.5t-21 -65q0 -59 50 -90.5t143 -31.5h68v357q0 53 -14.5 88t-40 52t-59.5 17
q-27 0 -49 -11t-37 -31t-23 -45.5t-8 -55.5h23q0 28 -17 53.5t-46 45.5t-66 32t-77 12q-57 0 -105 -24t-99 -80q1 7 1 11zM372 262q29 20 66 30.5t81 10.5q41 0 68.5 -13t42 -34t14.5 -44q0 -33 -18.5 -53t-52 -29t-77.5 -9q-40 0 -67.5 7.5t-49 14.5t-43.5 7
q-10 0 -20.5 -2t-18.5 -8q17 33 32 60.5t43 61.5z" />
    <glyph glyph-name="u111EE" unicode="&#x111ee;" horiz-adv-x="900" 
d="M226 19q-10 -19 -16.5 -36t-26.5 -17q-25 0 -45 20.5t-33 52t-20 65.5t-7 61q0 126 42 185.5t118 59.5q44 0 83.5 -25.5t57.5 -57.5l20 23q-12 21 -33.5 42.5t-52.5 36.5t-74 15q-53 0 -98 -26.5t-71.5 -86.5t-26.5 -163q0 -40 9 -81.5t26.5 -77t43.5 -57t61 -21.5
q29 0 42.5 19.5t24.5 47.5zM314 -70q35 0 64.5 24.5t29.5 67.5q0 37 -28 63t-66 26q-37 0 -59.5 -20.5t-26.5 -51.5q-4 11 -6.5 29.5t-2.5 25.5q0 50 27 86.5t72 56.5t99 20q42 0 66.5 -8t34.5 -20.5t10 -25.5q0 -21 -8.5 -32.5t-21 -20t-25.5 -19t-21.5 -27t-8.5 -45.5
q0 -52 37 -91t107 -39q61 0 104.5 28.5t71.5 77t41 108.5t13 123l-82 56q0 -60 -15.5 -109t-43 -85t-65 -55t-81.5 -19q-14 0 -31 5t-17 22t13.5 27t33 19.5t39.5 22.5t33.5 35.5t13.5 60.5q0 52 -26.5 86t-70.5 50.5t-99 16.5q-67 0 -122.5 -30.5t-88 -86t-32.5 -130.5
q0 -56 14.5 -107t45 -83t78.5 -32zM314 77q23 0 40 -16.5t17 -39.5t-17 -39.5t-40 -16.5q-22 0 -39 16.5t-17 39.5t17 39.5t39 16.5zM446 629q80 0 138 -13.5t97 -36.5t61 -50.5t30 -55.5h36v255h-43v-221l10 2q-7 20 -29.5 55.5t-63.5 71.5t-102.5 61t-145.5 25
q-38 0 -78 -6.5t-74 -21t-55 -39t-21 -60.5q0 -38 22.5 -58t60 -28t82 -10.5t88.5 -4.5q60 -3 99.5 -6.5t68.5 -13.5t57 -35q29 -24 40 -60t11 -68l82 -62q0 78 -28 135.5t-72 88.5q-33 24 -79 34.5t-94 14t-86 4.5q-60 3 -100 5.5t-60 11.5t-20 29q0 19 16.5 30t42.5 17
t55 8t54 2z" />
    <glyph glyph-name="u111EF" unicode="&#x111ef;" horiz-adv-x="1043" 
d="M546 311q0 -73 -18.5 -114t-46.5 -59t-57 -22t-50 -4h-81v33h81q31 0 58 8.5t44 31t17 64.5q0 24 -10 41.5t-28 27t-42 9.5q-37 0 -59 -23.5t-22 -77.5v-12h-39v12q0 53 -25 77t-68 24q-37 0 -57.5 -20.5t-28 -51.5t-7.5 -61q0 -91 37.5 -139.5t100.5 -48.5q20 0 38 7
v-30q-11 -4 -22 -6t-22 -2q-60 0 -102 37t-64.5 100.5t-22.5 141.5q0 42 9 83t27.5 74.5t46.5 53.5t65 20q58 0 89.5 -35t31.5 -103h-13q0 68 31.5 103t85.5 35q43 0 70 -25t40 -65t13 -84zM326 145q76 0 146 -24t125.5 -65.5t88 -94.5t32.5 -112q0 -41 -17.5 -72t-44.5 -31
q-40 0 -63 43.5t-23 152.5q0 15 0.5 51t3 86t9.5 105.5t20 108.5t34.5 96.5t53 69.5t74.5 26t73.5 -30.5t51 -79.5t32.5 -106.5t18 -113t8 -98.5t2 -62l-17 101v389h40v-509h-41q0 48 -4.5 97.5t-16 95t-30.5 81t-47.5 56.5t-68.5 21q-21 0 -44 -12t-44 -39t-38 -71.5
t-27 -109.5t-10 -153q0 -63 6 -97.5t18.5 -48t29.5 -13.5q11 0 17.5 11t9.5 26.5t3 28.5q0 57 -31.5 105t-84 83.5t-116 55t-127.5 19.5z" />
    <glyph glyph-name="u111F0" unicode="&#x111f0;" horiz-adv-x="1569" 
d="M404 485q-54 0 -85.5 -35t-31.5 -103h13q0 68 -31.5 103t-89.5 35q-37 0 -64.5 -20t-46 -53.5t-28 -74.5t-9.5 -83q0 -78 22.5 -141.5t64.5 -101t102 -37.5q22 0 44 9v30q-18 -7 -38 -7q-63 0 -100.5 48t-37.5 139q0 31 7.5 61.5t28 51.5t57.5 21q43 0 68 -24t25 -77v-12
h39v12q0 53 22 77t59 24q24 0 42 -9.5t28 -27t10 -41.5q0 -42 -17 -64.5t-44 -31t-58 -8.5h-81v-33h81q21 0 50 4t57 22t46.5 59t18.5 114q0 44 -13 84t-40 65t-70 25zM602 -58v133q0 84 6 148t21.5 108.5t44 70.5t73.5 35l60 44q-97 -9 -148 -49.5t-69.5 -120t-18.5 -205.5
v-164q0 -109 22.5 -152.5t63.5 -43.5q27 0 44 31t17 72q0 59 -35 112t-94.5 94.5t-132.5 65.5t-149 24l1 -33q64 0 130.5 -19.5t123 -55t91 -83.5t34.5 -105q0 -13 -3 -28.5t-9.5 -26.5t-17.5 -11q-18 0 -30 13.5t-18.5 48t-6.5 97.5zM705 396q0 -38 31 -64t96 -26l45 13v18
h-35q-43 0 -70.5 12.5t-27.5 46.5q0 23 16.5 41t70.5 18v28q-48 0 -75.5 -13t-39 -33t-11.5 -41zM1144 486q-45 0 -84 -23t-69.5 -62t-49.5 -89.5t-23 -105.5l30 -10q7 19 16 26.5t22 7.5q10 0 18 -6.5t8 -22.5q0 -22 -22 -35.5t-51.5 -19.5t-52.5 -6q-32 0 -64 8t-53.5 27
t-21.5 50q0 19 12.5 37.5t41.5 31t76 12.5v28h-12q-85 0 -137.5 -48t-52.5 -128q0 -54 25 -95.5t70 -65t103 -23.5q88 0 142 47.5t54 125.5q0 51 -21 82.5t-56 31.5q-17 0 -33 -8q16 47 60.5 76.5t100.5 29.5q64 0 107.5 -28.5t66.5 -83.5t23 -135v-105h-29q-43 0 -68 26.5
t-25 64.5q0 43 25 68.5t66 25.5q11 0 20 -1t18 -4l20 -6q32 -12 55 -34t44 -62.5t45 -108.5h30v510h-42v-474l25 -9q-22 65 -43.5 104t-47.5 62.5t-65 40.5l-16 6q-9 2 -27.5 4t-27.5 2q-76 0 -123 -34t-47 -90q0 -57 48 -89.5t131 -32.5h68v249q0 76 -26.5 135t-73 92.5
t-107.5 33.5z" />
    <glyph glyph-name="u111F1" unicode="&#x111f1;" horiz-adv-x="936" 
d="M46 198q0 -90 35 -161.5t93 -100.5v40q-46 41 -67.5 94t-21.5 124q0 60 20 110.5t67 81t127 30.5q23 0 46 -0.5t46 -4.5v29q-24 4 -47.5 5.5t-47.5 1.5q-123 0 -186.5 -66t-63.5 -183zM230 370q0 -26 20.5 -42t51 -23t61.5 -7v24q-93 5 -93 50q0 9 7 20t25.5 18t54.5 4
l3 15h-38q-39 3 -65.5 -11.5t-26.5 -47.5zM481 102q-45 0 -89 5t-80 17t-58 33t-22 53q0 26 18 44t50 27.5t75 9.5q1 0 12 -0.5t26 -1.5t26 -3q2 8 3 15.5t1 13.5q-21 3 -44.5 5t-35.5 2q-95 0 -151 -44t-56 -125q0 -61 26 -102.5t71 -66.5t103.5 -36.5t124.5 -11.5
q62 0 119 13t101.5 39.5t70 68.5t25.5 100q0 66 -30 102.5t-76.5 50.5t-95.5 14q-14 0 -28 -1t-30 -3q-1 4 -1 7v6q0 41 26 54.5t73 13.5h35v32q-36 0 -64 13t-44 36.5t-16 55.5q0 41 29 70t73 29q41 0 72.5 -18t56 -46.5t41.5 -60.5t28.5 -61.5t18.5 -49.5h35v268h-42v-198
l23 -41q-6 17 -17.5 46.5t-30 62.5t-47 62.5t-69 48.5t-95.5 19q-37 0 -75.5 -12t-65 -40.5t-26.5 -77.5q0 -34 17.5 -57.5t44.5 -37.5t57.5 -20t57.5 -6v15q-60 0 -97.5 -24t-37.5 -85q0 -9 1 -19t3 -20q20 4 42 6t41 2q44 0 73.5 -9.5t44.5 -26.5t15 -39
q0 -32 -20.5 -54.5t-54.5 -36t-76 -19.5t-85 -6z" />
    <glyph glyph-name="u111F2" unicode="&#x111f2;" horiz-adv-x="926" 
d="M36 198q0 -90 35 -161.5t93 -100.5v40q-46 41 -67.5 94t-21.5 124q0 60 20 110.5t67 81t127 30.5q23 0 46 -0.5t46 -4.5v29q-24 4 -47.5 5.5t-47.5 1.5q-123 0 -186.5 -66t-63.5 -183zM220 370q0 -26 20.5 -42t51 -23t61.5 -7v24q-93 5 -93 50q0 9 7 20t25.5 18t54.5 4
l3 15h-38q-39 3 -65.5 -11.5t-26.5 -47.5zM471 -64q63 0 119.5 13t101 39.5t70 68.5t25.5 100q0 96 -71 138q17 13 24 27.5t7 32.5q0 35 -30.5 64t-88.5 29q-64 0 -102.5 -31.5t-38.5 -92.5q0 -18 4 -37q20 4 42 6.5t41 2.5q38 0 70 -9t51.5 -29t19.5 -54q0 -30 -21 -53
t-56.5 -38t-79.5 -23t-90 -8q-47 0 -91.5 8t-80 24t-56.5 40t-21 56q0 31 20.5 49t54 26t71.5 8q1 0 12 -0.5t26 -1.5t26 -2q4 12 4 26q-21 3 -44.5 5t-35.5 2q-95 0 -151.5 -43.5t-56.5 -124.5q0 -61 26 -103t71.5 -67t104 -36.5t124.5 -11.5zM619 416q42 0 64 -19.5
t22 -44.5t-18 -43q-22 8 -47.5 11.5t-54.5 3.5q-14 0 -28 -1t-30 -3q-1 4 -1 7v6q0 41 27.5 62t65.5 21zM386 142q64 -16 116.5 -11.5t83.5 23.5t31 46q0 15 -12.5 28.5t-38.5 18.5l-3 -4q36 5 76 16t60 31l-38 8q-7 -8 -32.5 -16t-60.5 -13q-27 -4 -59 -6t-54 -2v-26
q66 0 97.5 -8.5t31.5 -26.5q0 -14 -25.5 -26t-70 -14t-102.5 12v-30zM622 420h38v13q-36 0 -64 13t-44 36.5t-16 55.5q0 41 29 70t73 29q41 0 72.5 -18t56 -46.5t41.5 -60.5t28.5 -61.5t18.5 -49.5h35v268h-42v-198l23 -41q-6 17 -17.5 46.5t-30 62.5t-47 62.5t-69 48.5
t-95.5 19q-37 0 -75.5 -12t-65 -40.5t-26.5 -77.5q0 -34 17.5 -57.5t44.5 -36.5t57.5 -19t57.5 -6z" />
    <glyph glyph-name="u111F3" unicode="&#x111f3;" horiz-adv-x="1347" 
d="M829 173q0 -76 -25.5 -145t-75.5 -122.5t-124 -85.5t-172 -35q-56 -1 -97.5 9.5t-64 30t-22.5 45.5q0 43 53 58.5t156 15.5v32q-110 0 -189 -8t-121 -30.5t-42 -67.5q0 -39 41.5 -67t113 -42.5t160.5 -14.5q140 0 240.5 58.5t155 163.5t54.5 245q0 62 -8.5 112
t-26.5 85.5t-46.5 55t-68.5 19.5q-71 0 -107 -46.5t-36 -137.5h24q0 90 -37 137t-108 47q-70 0 -107.5 -47t-37.5 -137h24q0 91 -35.5 137.5t-106.5 46.5q-76 0 -119.5 -63.5t-43.5 -181.5q0 -72 25.5 -120t68.5 -72.5t95 -24.5q12 0 23 2t22 6v33q-10 -4 -19.5 -5.5
t-19.5 -1.5q-60 0 -100 32.5t-40 110.5q0 65 30.5 96t86.5 31q51 0 79.5 -36t28.5 -101v-24h38v24q0 66 28 101.5t80 35.5t80 -35.5t28 -101.5v-24h38v24q0 65 30 101t82 36q41 0 66 -19t37 -53.5t12 -81.5zM906 51q0 -154 37 -229.5t91 -75.5q22 0 39.5 15.5t17.5 46.5
q0 49 -60.5 87t-186 59.5t-319.5 21.5h-68v-32h68q192 0 309 -19t170 -49.5t53 -64.5q0 -28 -27 -28q-37 0 -64.5 66t-27.5 202q0 83 13 136.5t35.5 84t49 43t53.5 12.5q40 0 68.5 -21t47.5 -56.5t30.5 -81t16 -95t4.5 -97.5h41v509h-40v-389l17 -101q0 19 -2 62t-8 98.5
t-18 113t-32.5 106.5t-51 79.5t-73.5 30.5q-51 0 -84.5 -29.5t-53.5 -76t-29.5 -100t-13 -102.5t-3 -83.5t0.5 -42.5z" />
    <glyph glyph-name="u111F4" unicode="&#x111f4;" horiz-adv-x="1060" 
d="M197 490q-50 0 -87 -31t-56.5 -88.5t-19.5 -137.5q0 -71 25 -128.5t68 -91t96 -33.5q11 0 22.5 2t21.5 6v33q-10 -4 -19 -5.5t-19 -1.5q-40 0 -72 23.5t-50.5 64t-18.5 91.5q0 67 31 103t87 36q50 0 78.5 -36t28.5 -101v-24h39v24q0 66 28 101.5t80 35.5t80 -35.5
t28 -101.5v-24h38v24q0 65 29.5 101t82.5 36q57 0 85.5 -38.5t28.5 -115.5v-374l42 -53v520q0 100 -40.5 159.5t-109.5 59.5q-71 0 -107 -46.5t-36 -137.5h24q0 90 -37 137t-108 47t-108 -47t-37 -137h24q0 91 -36 137.5t-106 46.5zM708 110q-55 0 -105 -17t-85 -58l28 -18
q30 37 72 50t87 13q53 0 104 -18t98.5 -60.5t88.5 -117.5h30v608h-42v-572l25 -8q-54 105 -134.5 151.5t-166.5 46.5zM577 -47q0 -13 -8 -26t-23 -13q-16 0 -27 10.5t-11 28.5q0 14 8.5 31t25.5 30l-19 18q-24 -13 -35 -36t-11 -43q0 -34 21.5 -52t47.5 -18q21 0 42 16.5
t21 53.5q0 38 -33.5 64t-101.5 26q-44 0 -89 -21t-75 -61.5t-30 -100.5q0 -54 28 -92.5t70 -58.5t82 -20q34 0 58.5 11t44.5 27.5t39.5 33t41.5 27.5t52 11q40 0 70 -16.5t50 -40.5t29 -45h29v522l-42 -70v-379q-23 29 -62.5 45t-77.5 16q-42 0 -70 -9.5t-49 -21.5
t-40.5 -21.5t-43.5 -9.5q-27 0 -56 14.5t-49 41.5t-20 66q0 38 14 64.5t40.5 41t61.5 14.5q55 0 76 -19t21 -39z" />
    <glyph glyph-name="sinKSsa" horiz-adv-x="1204" 
d="M200 567q50 0 87 -20t50 -45l-92 -100q0 26 -17 35t-32 9q-22 0 -35.5 -13.5t-13.5 -30.5l-117 37q7 49 35.5 77t65.5 39.5t69 11.5zM30 160v99l276 226q74 61 161 87t169 26q63 0 117.5 -13t95 -36.5t60.5 -54.5l-97 -89q-13 16 -38.5 29.5t-60 22t-75.5 8.5
q-56 0 -118 -19.5t-124 -69.5l-241 -195zM203 -7q-33 0 -64.5 15t-52.5 40.5t-21 57.5v16q0 13 -2.5 26.5t-19.5 13.5q-4 0 -7 -0.5t-6 -1.5l117 95q10 -8 17.5 -16.5t12 -17.5t4.5 -19v-42q0 -14 9.5 -21t20.5 -7t20 7t9 21v42h100v-40q0 -15 9.5 -22.5t20.5 -7.5t20.5 7.5
t9.5 22.5v40q0 16 -3.5 29.5t-13.5 25t-32 19.5l97 78q32 -13 49.5 -33t24.5 -46t7 -57v-82q0 -44 -21.5 -76.5t-54.5 -49.5t-68 -17q-27 0 -52 10.5t-43 32.5q-15 -22 -38 -32.5t-49 -10.5zM738 407h265q54 0 92 -12t58.5 -45.5t20.5 -98.5h-139q0 7 -1 15.5t-7 15t-21 6.5
h-257q-16 0 -23.5 -6.5t-9.5 -15t-2 -15.5h-139q0 63 20.5 97t57.5 46.5t85 12.5zM829 -12q-133 0 -194 53.5t-61 160.5h140q0 -26 13 -44t36.5 -26.5t54.5 -8.5h112q33 0 56 9t35.5 27t12.5 43h140q0 -103 -62.5 -158.5t-189.5 -55.5h-93zM992 575q62 0 106 -29.5t62 -85.5
l-118 -39q-3 11 -14.5 20.5t-29.5 9.5q-9 0 -22.5 -4t-24.5 -15.5t-11 -34.5v-19h-128v19q0 51 15 84t38 52t48 28t46.5 11.5t32.5 2.5zM788 168q0 55 24 95.5t58.5 66.5t65.5 37h166q-28 -9 -59.5 -28.5t-59 -46t-44.5 -57.5t-17 -65z" />
    <glyph glyph-name="sinKVa" horiz-adv-x="1108" 
d="M200 567q50 0 87 -20t50 -45l-92 -100q0 26 -17 35t-32 9q-22 0 -35.5 -13.5t-13.5 -30.5l-117 37q7 49 35.5 77t65.5 39.5t69 11.5zM203 -7q-33 0 -64.5 15t-52.5 40.5t-21 57.5v16q0 13 -2.5 26.5t-19.5 13.5q-4 0 -7 -0.5t-6 -1.5l117 95q10 -8 17.5 -16.5t12 -17.5
t4.5 -19v-42q0 -14 9.5 -21t20.5 -7t20 7t9 21v42h100v-40q0 -15 9.5 -22.5t20.5 -7.5t20.5 7.5t9.5 22.5v40q0 16 -3.5 29.5t-13.5 25t-32 19.5l97 78q32 -13 49.5 -33t24.5 -46t7 -57v-82q0 -44 -21.5 -76.5t-54.5 -49.5t-68 -17q-27 0 -52 10.5t-43 32.5
q-15 -22 -38 -32.5t-49 -10.5zM573 197q0 27 7.5 56.5t23.5 53.5q17 23 44 39.5t67 22.5q-8 24 -30 42.5t-53.5 29t-67.5 10.5q-38 0 -74 -13t-65 -38l-270 -219l-125 -21v99l305 250q50 41 112 60.5t125 19.5q70 0 132.5 -24.5t103.5 -73t46 -122.5v-117h-84q-5 0 -19.5 -2
t-27 -13t-12.5 -37q0 -20 9 -34.5t26 -22.5t41 -8v-140q-63 0 -111.5 27t-75.5 73t-27 102zM938 498q0 59 -18 88.5t-77 29.5v139q67 0 120 -21t84 -72.5t31 -141.5v-270q0 -129 -59.5 -192t-175.5 -63v140q21 0 43 7.5t37 32.5t15 75v248zM787 755v-138q-13 0 -25 -3
t-23 -11l-144 47q19 32 49.5 55.5t67.5 36.5t75 13z" />
    <glyph glyph-name="sinTVa" horiz-adv-x="1082" 
d="M761 -5q-63 0 -111.5 26t-75.5 71.5t-27 103.5q0 21 5 50t20 54q16 26 44.5 44t69.5 25q-9 19 -22 32.5t-29 22t-33.5 12.5t-36.5 4q-44 0 -90 -19t-84 -48l-236 -185l-125 -34v105l294 239q50 40 109.5 57.5t115.5 17.5q54 0 104.5 -15t89.5 -44.5t62 -73.5t23 -101v-87
h-84q-5 0 -19.5 -2t-27 -13t-12.5 -37q0 -20 9 -34.5t26 -22.5t41 -8v-140zM303 -8q-27 0 -53 6.5t-50.5 19.5t-46.5 34t-42 49q-13 20 -26.5 37.5t-37.5 17.5q-4 0 -8 -0.5t-9 -1.5l44 95q11 3 20 4.5t17 1.5q23 0 39 -9t28 -24t23 -31t23 -31t28.5 -24t39.5 -9
q21 0 39.5 8.5t30 24t11.5 36.5q0 13 -4.5 24.5t-15.5 22t-29 17.5l97 78q35 -15 52.5 -40.5t24 -54t6.5 -52.5q0 -60 -27.5 -105t-73 -69.5t-100.5 -24.5zM154 402l-117 37q7 49 35.5 77t65 39.5t65.5 11.5q36 0 66.5 -12t48.5 -26.5t18 -22.5l-84 -104q0 26 -17 35t-32 9
q-22 0 -35.5 -13.5t-13.5 -30.5zM817 -5v140q21 0 43 7.5t37 32.5t15 75v248q0 59 -18 88.5t-77 29.5v139q67 0 120 -21t84 -72.5t31 -141.5v-270q0 -129 -59.5 -192t-175.5 -63zM713 603l-144 47q19 32 49.5 55.5t67.5 36.5t75 13v-138q-13 0 -25 -3t-23 -11z" />
    <glyph glyph-name="sinTTha" horiz-adv-x="1080" 
d="M154 402l-117 37q7 49 35.5 77t65.5 39.5t67 11.5q35 0 65 -11.5t50.5 -25.5t23.5 -23l-92 -105q0 26 -17 35t-32 9q-22 0 -35.5 -13.5t-13.5 -30.5zM303 -8q-22 0 -43 4t-41 12.5t-39 21.5t-36 30.5t-33 40.5q-13 20 -26.5 37.5t-37.5 17.5q-4 0 -8 -0.5t-9 -1.5l44 95
q11 3 20 4.5t17 1.5q23 0 39 -9t28 -24t23 -31t23 -31t28.5 -24t39.5 -9q21 0 39.5 8.5t30 24t11.5 36.5q0 13 -4.5 24.5t-15.5 22t-29 17.5l97 78q35 -15 52.5 -40.5t24 -54t6.5 -52.5q0 -60 -27.5 -105t-73 -69.5t-100.5 -24.5zM30 154v105l271 221q34 28 65 49.5t66.5 34
t80.5 12.5q46 0 90 -14.5t79.5 -46.5t56.5 -83.5t21 -124.5l-140 12q0 49 -17.5 73.5t-41.5 33t-43 8.5q-30 0 -59.5 -15.5t-67.5 -45.5l-236 -185zM766 -5q-54 0 -94.5 17.5t-68 46.5t-41 63.5t-13.5 68.5v64q0 26 9.5 50.5t30 44.5t53.5 32t79 12l39 -88h-13
q-17 0 -30.5 -6t-21.5 -21.5t-8 -42.5v-22q0 -25 9.5 -41.5t27.5 -24.5t42 -8v-145zM821 -5v145q21 0 41.5 7.5t34 31t13.5 71.5h140q0 -129 -56.5 -192t-172.5 -63zM815 755q67 0 120 -21.5t84 -73t31 -143.5v-267h-140v258q0 64 -16.5 92.5t-67.5 28.5h-11v-15
q0 -16 3.5 -31.5t16.5 -25t39 -9.5v-107q-64 0 -104 23t-58 61t-18 81v149h121z" />
    <glyph glyph-name="sinNDa" horiz-adv-x="972" 
d="M677 0q-60 0 -112 20.5t-83.5 64.5t-31.5 115q0 67 29 110.5t80 65t117 21.5h43q0 31 -20 44.5t-48.5 17t-53.5 3.5v130q51 0 98.5 -8.5t85 -30.5t59.5 -59.5t22 -96.5v-134h-186q-12 0 -31.5 -2.5t-35.5 -15.5t-16 -44q0 -27 13 -41t32.5 -19t38.5 -5h37q25 0 45 6
t30 30l128 -34q-9 -32 -29 -57.5t-47 -43.5t-59.5 -27.5t-67.5 -9.5h-37zM789 -204q-59 0 -101 21t-63.5 57t-21.5 81h137q0 -8 6 -15.5t17.5 -12.5t25.5 -5q16 0 31 8t19 23l133 -34q-11 -33 -34 -61t-59.5 -45t-89.5 -17zM198 567q36 0 66.5 -12t48.5 -26.5t18 -22.5
l-84 -104q0 26 -17 35t-32 9q-22 0 -35.5 -13.5t-13.5 -30.5l-117 37q7 49 35.5 77t65 39.5t65.5 11.5zM278 -8q-53 0 -98.5 17t-79 50.5t-52 83t-18.5 113.5v88h118v-74q0 -11 2 -34t12.5 -48.5t35 -43t69.5 -17.5q35 0 56 11.5t30 29t9 34.5q0 10 -2.5 19t-8.5 17t-15 13
l76 103q31 -16 50.5 -40.5t29.5 -54t10 -61.5q0 -50 -24.5 -97.5t-74 -78t-125.5 -30.5zM125 165v139h25q5 0 12.5 6.5t20 22.5t31.5 42l70 96q41 56 104.5 88.5t153.5 32.5v-130q-40 0 -71 -9t-54.5 -26t-43.5 -43l-78 -103q-27 -36 -50.5 -62t-45 -40t-45.5 -14h-29z" />
    <glyph glyph-name="sinNDha" horiz-adv-x="1110" 
d="M198 567q36 0 66.5 -12t48.5 -26.5t18 -22.5l-84 -104q0 26 -17 35t-32 9q-22 0 -35.5 -13.5t-13.5 -30.5l-117 37q7 49 35.5 77t65 39.5t65.5 11.5zM278 -8q-53 0 -98.5 17t-79 50.5t-52 83t-18.5 113.5v88h118v-74q0 -11 2 -34t12.5 -48.5t35 -43t69.5 -17.5
q35 0 56 11.5t30 29t9 34.5q0 10 -2.5 19t-8.5 17t-15 13l76 103q31 -16 50.5 -40.5t29.5 -54t10 -61.5q0 -50 -24.5 -97.5t-74 -78t-125.5 -30.5zM504 594q72 0 135 -28t102 -85t39 -145h-122q0 38 -15 63t-38.5 40.5t-49 22t-45.5 6.5q-40 0 -74 -23t-63 -61l-78 -103
q-27 -36 -50.5 -62t-45 -40t-45.5 -14h-29v139h25q5 0 12.5 6.5t20 22.5t31.5 42l70 96q27 37 57 64.5t69 43t94 15.5zM722 -8q-48 0 -88 21t-63.5 58.5t-23.5 88.5v102q0 31 5.5 64t25.5 62t62 47l78 19l62 -118h-22q-15 0 -28 -3t-23.5 -11.5t-16 -22.5t-5.5 -37v-96
q0 -6 3.5 -14t12 -14t23.5 -6t23.5 6t11.5 14t3 14v36h100v-36q0 -6 3 -14t11.5 -14t23.5 -6t23.5 6t12 14t3.5 14v36h141v-42q0 -76 -45 -122t-114 -46q-25 0 -53.5 9.5t-50.5 33.5q-19 -25 -42.5 -34t-52.5 -9zM939 498q0 39 -6.5 65t-26.5 39.5t-62 13.5v139
q71 0 124 -22t82.5 -73t29.5 -140v-320h-141v298zM715 588l-136 49q28 56 85.5 87t124.5 31v-138q-24 0 -42 -5.5t-32 -23.5z" />
    <glyph glyph-name="sinNVa" horiz-adv-x="1082" 
d="M149 402l-117 37q7 49 35.5 77t65.5 39.5t67 11.5q35 0 64.5 -12t48 -26.5t18.5 -22.5l-84 -104q0 26 -17.5 35t-29.5 9q-25 0 -38 -14t-13 -30zM278 -8q-53 0 -98.5 17t-79 50.5t-52 83t-18.5 113.5v88h118v-74q0 -60 18 -91t48 -41.5t64 -10.5q27 0 45.5 11.5t28.5 29
t10 35.5q0 10 -2.5 18.5t-8.5 16.5t-15 13l76 103q31 -16 50.5 -40.5t29.5 -54t10 -61.5q0 -50 -24.5 -97.5t-74 -78t-125.5 -30.5zM761 -5q-63 0 -111.5 26.5t-75.5 71t-27 96.5q0 51 14 88t45 60.5t80 31.5q-17 39 -45.5 57t-60.5 22.5t-61 4.5q-47 0 -85.5 -20t-60.5 -49
l-78 -103q-27 -36 -50.5 -62t-45 -40t-45.5 -14h-29v139h25q7 0 17 10t22 26t25 35q22 32 39.5 60t29.5 44q36 53 103 80t140 27q56 0 110 -15.5t97.5 -46t69.5 -77t26 -108.5v-87h-85q-15 0 -28.5 -4.5t-22 -16.5t-8.5 -36q0 -14 8 -28t25 -23t43 -9v-140zM817 -5v140
q21 0 43 7.5t37 32.5t15 75v248q0 59 -18 88.5t-77 29.5v139q67 0 120 -21t84 -72.5t31 -141.5v-270q0 -129 -59.5 -192t-175.5 -63zM713 603l-144 47q19 32 49.5 55.5t67.5 36.5t75 13v-138q-13 0 -25 -3t-23 -11z" />
    <glyph glyph-name="sinNTha" horiz-adv-x="1078" 
d="M125 165v139h25q6 0 15.5 9t22 25t26.5 37l69 104q36 54 95 79t119 25q72 0 134 -33t99.5 -94.5t37.5 -149.5l-137 -20q0 56 -16.5 91.5t-46.5 52.5t-73 17q-38 0 -67 -14t-55 -49l-78 -103q-27 -36 -50.5 -62t-45 -40t-45.5 -14h-29zM278 -8q-53 0 -98.5 17t-79 50.5
t-52 83t-18.5 113.5v88h118v-74q0 -11 2 -34t12.5 -48.5t35 -43t69.5 -17.5q35 0 56 11.5t30 29t9 34.5q0 10 -2.5 19t-8.5 17t-15 13l76 103q31 -16 50.5 -40.5t29.5 -54t10 -61.5q0 -50 -24.5 -97.5t-74 -78t-125.5 -30.5zM149 402l-117 37q7 49 35.5 77t65 39.5
t65.5 11.5q36 0 66.5 -12t48.5 -26.5t18 -22.5l-84 -104q0 26 -17 35t-32 9q-22 0 -35.5 -13.5t-13.5 -30.5zM774 -5q-54 0 -94.5 17.5t-68 46.5t-41 63.5t-13.5 68.5v64q0 26 9.5 50.5t30 44.5t53.5 32t79 12l39 -88h-13q-17 0 -30.5 -6t-21.5 -21.5t-8 -42.5v-22
q0 -25 9.5 -41.5t27.5 -24.5t42 -8v-145zM829 -5v145q21 0 41.5 7.5t34 31t13.5 71.5h140q0 -129 -56.5 -192t-172.5 -63zM823 755q67 0 120 -21.5t84 -73t31 -143.5v-267h-140v258q0 64 -16.5 92.5t-67.5 28.5h-11v-15q0 -16 3.5 -31.5t16.5 -25t39 -9.5v-107
q-64 0 -104 23t-58 61t-18 81v149h121z" />
    <glyph glyph-name="sinDVa" horiz-adv-x="758" 
d="M93 -28q-24 35 -38 62t-19.5 58t-5.5 77v120q0 67 24 113t66 70t94 24q25 0 51.5 -5.5t53.5 -16.5v-99q-38 11 -52.5 13t-23.5 2q-24 0 -41.5 -10.5t-26.5 -32.5t-9 -58v-120q0 -40 5.5 -64.5t18 -44.5t33.5 -48zM493 -5v140q21 0 43 7.5t37 32.5t15 75v248
q0 59 -18 88.5t-77 29.5v139q67 0 120 -21t84 -72.5t31 -141.5v-270q0 -129 -59.5 -192t-175.5 -63zM437 -5q-63 0 -111.5 27.5t-75.5 72.5t-27 97q0 25 2.5 49t15 47.5t40.5 44.5q25 18 53 27t67 9q0 14 -11.5 22t-29.5 8q-13 0 -25.5 -5t-15.5 -19l-99 26q13 40 35.5 61.5
t50 30.5t54.5 9q41 0 73.5 -16.5t51.5 -46t19 -70.5v-117h-84q-5 0 -19.5 -2t-27 -13t-12.5 -37q0 -20 9 -34.5t26 -22.5t41 -8v-140zM357 530l-137 36q0 40 18.5 74t50 60t70 40.5t78.5 14.5v-138q-20 0 -38.5 -8t-30 -27t-11.5 -52z" />
    <glyph glyph-name="sinDDha" horiz-adv-x="785" 
d="M93 -28q-30 39 -43 73.5t-16.5 72t-3.5 82.5v40q0 36 8.5 76.5t32.5 76.5t71 58.5t123 22.5h176v-138h-217q-25 0 -37.5 -15t-16.5 -36t-4 -41v-74q0 -27 3.5 -51.5t15.5 -50t38 -56.5zM397 -8q-48 0 -88 21t-63.5 58.5t-23.5 88.5v102q0 31 6 67.5t26 69.5t63 54t116 21
h22v-138h-22q-15 0 -28 -3t-23.5 -11.5t-16 -22.5t-5.5 -37v-96q0 -6 3.5 -14t12 -14t23.5 -6t23.5 6t11.5 14t3 14v36h100v-36q0 -6 3.5 -14t11.5 -14t23 -6t23.5 6t12 14t3.5 14v36h141v-42q0 -76 -45 -122t-114 -46q-25 0 -53.5 9.5t-50.5 33.5q-19 -25 -42.5 -34
t-52.5 -9zM365 530l-137 36q0 42 20.5 76.5t54.5 60t76 39t84 13.5v-138q-24 0 -46.5 -6.5t-37 -25.5t-14.5 -55zM614 202v296q0 43 -6 68.5t-26.5 37.5t-62.5 12v139q71 0 124 -20t82.5 -71t29.5 -144v-318h-141z" />
    <glyph glyph-name="sinTtTtha" horiz-adv-x="786" 
d="M93 -28q-30 39 -43 73.5t-16.5 72t-3.5 82.5v40q0 36 8.5 76.5t32.5 76.5t71 58.5t123 22.5h176v-138h-217q-25 0 -37.5 -15t-16.5 -36t-4 -41v-74q0 -27 3.5 -51.5t15.5 -50t38 -56.5zM398 -8q-48 0 -88 21t-63.5 58.5t-23.5 88.5v95q0 26 5.5 60t25 65.5t60 52.5
t109.5 21h13v-138h-13q-11 0 -22 -3t-20 -10.5t-14.5 -20t-5.5 -31.5v-78q0 -9 3.5 -18.5t12 -16t23.5 -6.5t23.5 6t11.5 14t3 14v36h100v-36q0 -6 3.5 -14t11.5 -14t23 -6q16 0 24.5 6t12 14t3.5 14v36h140v-42q0 -76 -45 -122t-114 -46q-25 0 -53.5 9.5t-50.5 33.5
q-19 -25 -42.5 -34t-52.5 -9zM521 755q67 0 120 -21.5t84 -73t31 -143.5v-316h-140v307q0 64 -16.5 92.5t-67.5 28.5h-11v-15q0 -16 3.5 -31.5t16.5 -25t39 -9.5v-107q-64 0 -104 23t-58 61t-18 81v149h121z" />
    <glyph glyph-name="sinMatraU.sub" horiz-adv-x="202" 
d="M163 -282q-37 0 -69.5 12.5t-52.5 40t-20 72.5v54q0 33 5.5 53t18.5 38t35 46h-56v86h153v-86q-21 -27 -34.5 -45t-21 -31t-10 -24.5t-2.5 -25.5v-51q0 -17 7 -28t18.5 -16t22.5 -5h20v-90h-14z" />
    <glyph glyph-name="sinMatraUu.sub" horiz-adv-x="204" 
d="M155 -282q-37 0 -67 11t-48.5 33.5t-18.5 56.5v28q0 18 7 32.5t20 28.5t32 29h-59v70l66 43h-66v70h150v-70l-67 -43h67v-70q-30 -22 -43 -36t-15.5 -23.5t-2.5 -21.5v-8q0 -13 6 -22t16 -13.5t23 -4.5h16v-90h-16z" />
    <glyph glyph-name="sinRakar" horiz-adv-x="0" 
d="M-265 -234v131q25 0 46.5 6.5t34.5 20t13 32.5q0 26 -25 32.5t-69 6.5v120q121 0 175.5 -46t54.5 -118q0 -58 -30 -99.5t-82 -63.5t-118 -22zM-321 -234q-51 0 -97.5 20t-75.5 56t-29 83v28h130q0 -12 5.5 -21.5t15 -17t23 -11.5t28.5 -4v-133z" />
    <glyph glyph-name="sinReph" horiz-adv-x="438" 
d="M152 584q-38 0 -70.5 18t-52 49.5t-19.5 72.5q0 42 20.5 75t57 52t83.5 19h86q90 0 130.5 -40.5t40.5 -108.5v-107h-115v80q0 26 -6.5 42t-20.5 23t-37 7h-74q-26 0 -40.5 -13.5t-14.5 -32.5q0 -17 9.5 -26t22.5 -9q9 0 15.5 4t10 11t3.5 15l92 -1q0 -40 -15.5 -69.5
t-42.5 -45t-63 -15.5z" />
    <glyph glyph-name="sinYansaya" horiz-adv-x="518" 
d="M30 0l78 313q5 23 8.5 39t3.5 29q0 23 -16.5 38t-63.5 15v130q61 0 109.5 -22t76.5 -64t28 -102q0 -16 -2 -31t-6 -32l-75 -313h-141zM230 0l32 135h26q25 0 42.5 7t17.5 38v48q0 13 -2.5 20.5t-7 11.5t-10 5t-10.5 1h-85v137h85q31 0 61 -4t54.5 -19t39.5 -48t15 -92
v-80q0 -42 -14.5 -78.5t-43.5 -59t-74 -22.5h-126zM307 566q49 0 92 -22t71 -86l-110 -37q-5 10 -13 15.5t-16.5 7.5t-16.5 2q-10 0 -18.5 -2.5t-14.5 -8t-9.5 -13.5t-3.5 -20l-130 -36q0 91 39 145.5t130 54.5z" />
    <glyph glyph-name="sinMatraAa.virama" horiz-adv-x="278" 
d="M30 619v200h136v-200h-136zM31 0v143h20q20 0 31 6.5t16.5 16t7 20.5t1.5 20v152q0 11 -1.5 23.5t-7 23.5t-16.5 18.5t-31 7.5h-20v143h20q70 0 113 -27.5t63.5 -74t20.5 -104.5v-162q0 -58 -20.5 -104.5t-63.5 -74t-113 -27.5h-20z" />
    <glyph glyph-name="sinK" horiz-adv-x="800" 
d="M530 619v200h136v-200h-136zM200 567q50 0 87 -20t50 -45l-92 -100q0 26 -17 35t-32 9q-22 0 -35.5 -13.5t-13.5 -30.5l-117 37q7 49 35.5 77t65.5 39.5t69 11.5zM525 574q64 0 119.5 -27.5t90.5 -83.5t35 -142v-116q0 -58 -20 -104.5t-63 -74t-113 -27.5v143
q20 0 31 6.5t16.5 16t7 20.5t1.5 20v102q0 38 -17 66.5t-44.5 44.5t-59.5 16q-21 0 -42.5 -8.5t-41.5 -25.5l-270 -219l-125 -21v90l271 230q45 47 104.5 70.5t119.5 23.5zM203 -7q-33 0 -64.5 15t-52.5 40.5t-21 57.5v16q0 13 -2.5 26.5t-19.5 13.5q-4 0 -7 -0.5t-6 -1.5
l117 95q10 -8 17.5 -16.5t12 -17.5t4.5 -19v-42q0 -14 9.5 -21t20.5 -7t20 7t9 21v42h100v-40q0 -15 9.5 -22.5t20.5 -7.5t20.5 7.5t9.5 22.5v40q0 16 -3.5 29.5t-13.5 25t-32 19.5l97 78q32 -13 49.5 -33t24.5 -46t7 -57v-82q0 -44 -21.5 -76.5t-54.5 -49.5t-68 -17
q-27 0 -52 10.5t-43 32.5q-15 -22 -38 -32.5t-49 -10.5z" />
    </font>
</defs>
</svg>
