<?xml version="1.0" standalone="no"?>
<!DOCTYPE svg PUBLIC "-//W3C//DTD SVG 1.1//EN" "http://www.w3.org/Graphics/SVG/1.1/DTD/svg11.dtd" >
<svg xmlns="http://www.w3.org/2000/svg" xmlns:xlink="http://www.w3.org/1999/xlink" version="1.1">
<metadata>
Created by FontForge 20201107 at Mon Jun 28 18:07:17 2021
 By 
Copyright 2021 The Stick No Bills Project Authors (https://github.com/mooniak/stick-no-bills-font)
</metadata>
<defs>
<font id="StickNoBills-Regular" horiz-adv-x="465" >
  <font-face 
    font-family="Stick No Bills"
    font-weight="400"
    font-stretch="normal"
    units-per-em="1000"
    panose-1="0 0 0 0 0 0 0 0 0 0"
    ascent="800"
    descent="-200"
    x-height="536"
    cap-height="700"
    bbox="-594 -311 1513 946"
    underline-thickness="50"
    underline-position="-125"
    unicode-range="U+000D-111F4"
  />
<missing-glyph horiz-adv-x="631" 
d="M50 -93v847h531v-847h-531zM296 67q-13 0 -22.5 9.5t-9.5 22.5q0 14 9.5 24t22.5 10t23 -10t10 -24q0 -13 -10 -22.5t-23 -9.5zM116 -27h399v711h-399v-711zM269 159v159q60 1 91.5 20t31.5 67q0 37 -23 62.5t-62 25.5q-23 0 -39.5 -8t-27 -18.5t-18.5 -20.5l-35 34
q10 13 26 27.5t40 25.5t57 11q64 0 99.5 -38t36.5 -96q1 -46 -17.5 -76.5t-47.5 -46t-58 -17.5v-111h-54z" />
    <glyph glyph-name="fi" unicode="fi" horiz-adv-x="426" 
d="M113 0v423h-63v70h63v59q0 17 6 41t21 47.5t40.5 39.5t65.5 16h31l-16 -70h-20q-24 -1 -35.5 -13.5t-15.5 -29t-4 -31.5v-60h186v-492h-73v423h-113v-423h-73zM335 557q-19 0 -32.5 13.5t-13.5 31.5t13.5 31.5t32.5 13.5q18 0 31.5 -13.5t13.5 -31.5q0 -19 -13.5 -32
t-31.5 -13z" />
    <glyph glyph-name="fl" unicode="fl" horiz-adv-x="438" 
d="M113 0v423h-63v70h63v59q0 17 6 41t21 47.5t40.5 39.5t65.5 16h137v-696h-75v626h-63q-23 0 -36 -12.5t-18 -29.5t-5 -32v-60l64 1v-70h-64v-423h-73z" />
    <glyph glyph-name=".notdef" horiz-adv-x="631" 
d="M50 -93v847h531v-847h-531zM296 67q-13 0 -22.5 9.5t-9.5 22.5q0 14 9.5 24t22.5 10t23 -10t10 -24q0 -13 -10 -22.5t-23 -9.5zM116 -27h399v711h-399v-711zM269 159v159q60 1 91.5 20t31.5 67q0 37 -23 62.5t-62 25.5q-23 0 -39.5 -8t-27 -18.5t-18.5 -20.5l-35 34
q10 13 26 27.5t40 25.5t57 11q64 0 99.5 -38t36.5 -96q1 -46 -17.5 -76.5t-47.5 -46t-58 -17.5v-111h-54z" />
    <glyph glyph-name=".null" horiz-adv-x="0" 
 />
    <glyph glyph-name="nonmarkingreturn" horiz-adv-x="333" 
 />
    <glyph glyph-name="CR" unicode="&#xd;" horiz-adv-x="682" 
 />
    <glyph glyph-name="space" unicode=" " horiz-adv-x="236" 
 />
    <glyph glyph-name="exclam" unicode="!" horiz-adv-x="177" 
d="M51 166v534h76v-534h-76zM88 -11q-18 0 -31.5 14t-13.5 32q0 19 13.5 32.5t31.5 13.5q20 0 33 -13.5t13 -32.5q0 -18 -13 -32t-33 -14z" />
    <glyph glyph-name="quotedbl" unicode="&#x22;" horiz-adv-x="285" 
d="M169 465v271h75v-271h-75zM41 465v271h75v-271h-75z" />
    <glyph glyph-name="numbersign" unicode="#" horiz-adv-x="751" 
d="M167 22l32 179h-164l14 71h163l27 157h-170l12 71h170l32 182h72l-32 -182h155l31 182h72l-31 -182h162l-12 -72l-163 1l-27 -158h167l-11 -71l-169 1l-31 -179h-72l31 179h-154l-32 -179h-72zM438 271l27 158h-154l-27 -157z" />
    <glyph glyph-name="dollar" unicode="$" horiz-adv-x="505" 
d="M267 -47v119q16 0 37 9.5t41.5 26.5t34 41.5t13.5 56.5q0 36 -18.5 57.5t-47.5 33.5t-60 19v83q22 -5 41.5 -10t36.5 -12q36 -14 65 -35t46 -53.5t17 -82.5q0 -46 -21 -88t-57 -72.5t-82 -41.5v-51h-46zM172 -47v52q-43 11 -74 38.5t-48 59.5t-18 55l73 26q6 -36 25 -60
t43 -36.5t45 -15.5v-119h-46zM218 330q-16 3 -30 7t-25 8q-36 15 -63.5 35t-43.5 51.5t-16 78.5q0 54 21 90t51.5 57.5t59.5 31.5v61h46v-126q-10 0 -27 -7t-33.5 -21t-28 -35.5t-11.5 -50.5q0 -28 14 -46.5t37 -29.5t49 -19v-85zM370 529q-7 32 -25 52.5t-39 31t-39 11.5
v126h46v-59q41 -11 69 -38t44 -55t19 -45z" />
    <glyph glyph-name="percent" unicode="%" horiz-adv-x="429" 
d="M88 -17l175 739h74l-174 -739h-75zM325 63q-24 0 -41.5 17.5t-17.5 41.5t17.5 41.5t41.5 17.5q25 0 42 -17.5t17 -41.5t-17 -41.5t-42 -17.5zM102 523q-24 0 -41.5 17.5t-17.5 41.5t17.5 41t41.5 17q25 0 42 -17t17 -41t-17 -41.5t-42 -17.5z" />
    <glyph glyph-name="ampersand" unicode="&#x26;" horiz-adv-x="645" 
d="M526 9l-357 389q-31 36 -46 64.5t-15 67.5q0 46 20.5 83.5t56 62t80.5 30.5v-76q-19 -2 -38 -14.5t-31 -33.5t-12 -50q0 -20 7.5 -35.5t18.5 -27.5t19 -22l215 -234q13 14 25.5 36t20.5 47t8 49h81q-1 -40 -13 -76.5t-29 -66t-36 -52.5l108 -119zM254 -1q-58 0 -107.5 27
t-80 75.5t-30.5 111.5q0 47 20.5 89t58.5 74l54 -61q-10 -8 -22.5 -22.5t-21.5 -34.5t-9 -47q0 -40 20 -70t52.5 -46t67.5 -16q26 0 52 10t45 30l53 -60q-33 -30 -72 -45t-80 -15zM401 540q-2 18 -12 37t-27 34t-42 19v76q59 -7 101 -48t53 -99z" />
    <glyph glyph-name="quotesingle" unicode="'" horiz-adv-x="157" 
d="M41 465v271h75v-271h-75z" />
    <glyph glyph-name="parenleft" unicode="(" horiz-adv-x="216" 
d="M184 -18q-61 30 -92 60t-41.5 65.5t-10.5 81.5v321q0 53 12 87.5t31.5 56.5t45.5 36t54 27l1 -49q-19 -11 -37.5 -26t-29.5 -42.5t-11 -77.5v-328q0 -53 12.5 -84.5t30.5 -49.5t35 -29v-49z" />
    <glyph glyph-name="parenright" unicode=")" horiz-adv-x="221" 
d="M32 -20v49q14 8 28.5 20t27 31t20.5 49.5t8 76.5v315q0 48 -13 76.5t-32.5 45.5t-38.5 28v48q53 -19 85.5 -46.5t48 -67t15.5 -95.5v-317q0 -20 -4 -47.5t-18.5 -58t-44.5 -58.5t-82 -49z" />
    <glyph glyph-name="asterisk" unicode="*" horiz-adv-x="343" 
d="M144 478v105l-84 -58l-30 42l101 67l-100 65l31 42l82 -52v96h53v-100l86 56l30 -42l-100 -66l99 -69l-30 -42l-85 61v-105h-53z" />
    <glyph glyph-name="plus" unicode="+" horiz-adv-x="435" 
d="M179 87v170h-149v74h149v167h75v-167h151v-74h-151v-170h-75z" />
    <glyph glyph-name="comma" unicode="," horiz-adv-x="200" 
d="M44 -23l37 152h75l-37 -152h-75z" />
    <glyph glyph-name="hyphen" unicode="-" horiz-adv-x="404" 
d="M44 257v74h316v-74h-316z" />
    <glyph glyph-name="period" unicode="." horiz-adv-x="179" 
d="M89 -4q-22 0 -37.5 15.5t-15.5 37.5t15.5 38t37.5 16q23 0 38.5 -16t15.5 -38t-15.5 -37.5t-38.5 -15.5z" />
    <glyph glyph-name="slash" unicode="/" horiz-adv-x="337" 
d="M44 -17l175 739h74l-174 -739h-75z" />
    <glyph glyph-name="zero" unicode="0" horiz-adv-x="503" 
d="M281 0v76q21 4 40.5 19.5t34.5 46t24 79.5t9 118v44q0 54 -9 97.5t-25 74.5t-35 48t-39 19v77q32 -1 65 -18t60.5 -56.5t44 -106t16.5 -166.5q0 -110 -18 -179t-47 -106.5t-61 -51.5t-60 -15zM222 0q-28 1 -60 15t-61 51.5t-47 106.5t-18 179q0 100 16.5 166.5t44 106
t60.5 56.5t66 18v-77q-20 -2 -39.5 -18.5t-35 -47t-24.5 -74.5t-9 -99v-44q0 -69 10 -118t26 -80t35 -47t36 -18v-76z" />
    <glyph glyph-name="one" unicode="1" horiz-adv-x="207" 
d="M90 0v580h-54v76l54 44h81v-700h-81z" />
    <glyph glyph-name="two" unicode="2" horiz-adv-x="504" 
d="M56 124q0 42 17.5 76t44 59.5t56.5 45t55.5 33t39.5 21.5q30 19 58.5 37t46.5 42.5t18 60.5q0 34 -12 62.5t-40 46t-76 17.5v75q75 0 120 -29t65 -75t19 -99q-1 -61 -31 -100.5t-87 -73.5q-21 -13 -48.5 -27t-55 -30.5t-51 -37t-37.5 -46t-14 -58.5h-88zM56 0v78h404v-78
h-404zM107 506l-70 14q3 44 26 84t62 67t90 29v-75q-17 0 -40.5 -11.5t-42.5 -37.5t-25 -70z" />
    <glyph glyph-name="three" unicode="3" horiz-adv-x="506" 
d="M270 -2v74q35 1 63 14t44.5 40t16.5 68q0 21 -5.5 41.5t-21.5 38t-45 28t-77 10.5v74q48 0 77 10.5t45 28t21.5 38.5t5.5 40q0 63 -35.5 92t-88.5 30v75q42 0 78 -13t63.5 -38t43 -60.5t15.5 -81.5q0 -55 -19 -94t-56 -64q37 -25 56 -64t19 -94q0 -46 -15.5 -81.5
t-43 -61t-63.5 -38t-78 -12.5zM215 -2q-51 3 -90 29.5t-62 66.5t-26 83l70 14q6 -43 25 -69t42.5 -37.5t40.5 -12.5v-74zM107 506l-70 14q3 44 26 84t62 67t90 29v-75q-17 0 -40.5 -12t-42.5 -37.5t-25 -69.5z" />
    <glyph glyph-name="four" unicode="4" horiz-adv-x="497" 
d="M326 0v701h81v-482h54v-75h-54v-144h-81zM26 144v75l251 426v-142l-168 -284h168v-75h-251z" />
    <glyph glyph-name="five" unicode="5" horiz-adv-x="520" 
d="M111 312l-69 42l29 346h356v-75h-286l-17 -209q16 11 41 21t59 10v-72q-33 -1 -62 -16.5t-51 -46.5zM223 0q-45 0 -83.5 18.5t-65.5 49.5t-37 67l68 22q12 -27 29.5 -44.5t40.5 -27t48 -11.5v-74zM273 0v73q22 1 46 11.5t44 29.5t33 46.5t13 63.5q0 40 -13.5 68.5
t-34 46.5t-44.5 26.5t-44 9.5v72q73 0 119.5 -33t69 -84.5t22.5 -106.5q0 -71 -31 -120.5t-79 -75.5t-101 -27z" />
    <glyph glyph-name="six" unicode="6" horiz-adv-x="522" 
d="M241 -1q-65 2 -105.5 32t-62 80.5t-29.5 112t-8 125.5q0 36 4 81t16 91t35 85t59.5 64t90.5 28v-75q-44 -7 -69.5 -35.5t-38 -68t-16 -82t-3.5 -78.5q21 36 57 51t70 15v-75q-38 -2 -63 -22t-38.5 -50.5t-13.5 -66.5q0 -16 6 -38.5t19 -44.5t35 -37.5t55 -16.5v-75z
M296 -1v75q37 2 62 23.5t38.5 53t13.5 60.5q0 45 -16.5 75.5t-42.5 46.5t-55 18v74q62 0 104.5 -28.5t64 -77t21.5 -106.5q0 -63 -26.5 -111.5t-69.5 -75t-94 -27.5zM398 552q-6 18 -20.5 34.5t-35.5 27t-47 10.5v75q57 0 101 -30.5t65 -74.5z" />
    <glyph glyph-name="seven" unicode="7" horiz-adv-x="443" 
d="M189 0q4 65 16 138t31.5 149t46.5 149.5t62 139.5h83q-38 -72 -66 -147.5t-47 -151t-29.5 -146t-14.5 -131.5h-82zM36 624v76h399v-75z" />
    <glyph glyph-name="eight" unicode="8" horiz-adv-x="508" 
d="M282 -1v75q32 2 58 17.5t41.5 43t15.5 67.5q0 30 -10.5 50.5t-27 33t-37.5 19t-41 7.5v74q40 2 64.5 18t36.5 41t12 52q0 30 -12.5 57.5t-37 47.5t-64.5 22v75q39 0 73.5 -16t60.5 -44t41 -64.5t15 -77.5q0 -49 -20.5 -88t-53.5 -60q39 -23 57.5 -62t18.5 -89
q0 -40 -14.5 -76.5t-40.5 -63.5t-60.5 -43t-74.5 -16zM226 -1q-40 0 -74.5 16t-60.5 43t-40.5 63.5t-14.5 76.5q0 50 18.5 89t57.5 62q-33 21 -53.5 60t-20.5 88q0 41 15 77.5t41.5 64.5t60.5 44t73 16v-75q-39 -2 -64 -22t-37 -47.5t-12 -57.5q0 -27 11.5 -52t36 -41
t64.5 -18v-74q-20 -1 -40.5 -7.5t-37.5 -19t-27.5 -33t-10.5 -50.5q0 -40 16 -67.5t42 -43t57 -17.5v-75z" />
    <glyph glyph-name="nine" unicode="9" horiz-adv-x="521" 
d="M278 1v75q25 1 48 16.5t41 46.5t29 79.5t11 115.5q-6 -5 -15 -15t-23.5 -20t-36.5 -17.5t-54 -7.5v76q57 3 86 41t29 98q0 19 -7 41.5t-20.5 43t-35.5 34.5t-52 16v76q66 0 106.5 -30.5t62.5 -81.5t30 -116t8 -135q0 -32 -4 -75.5t-16 -89t-35 -85t-60 -63.5t-92 -23z
M230 0q-59 0 -104.5 32t-69.5 79l62 41q15 -32 46 -53.5t66 -22.5v-76zM230 274q-63 0 -106.5 27.5t-65.5 75t-22 108.5q0 64 27 112t72 75.5t95 27.5v-76q-31 -2 -53.5 -16t-37 -35t-21 -44t-6.5 -43q0 -58 31 -95.5t87 -40.5v-76z" />
    <glyph glyph-name="colon" unicode=":" horiz-adv-x="192" 
d="M96 313q-18 0 -31.5 13.5t-13.5 32.5t13.5 32.5t31.5 13.5q19 0 32.5 -13.5t13.5 -32.5t-13.5 -32.5t-32.5 -13.5zM96 23q-19 0 -32.5 13.5t-13.5 32.5t13.5 32.5t32.5 13.5t32 -13.5t13 -32.5t-13 -32.5t-32 -13.5z" />
    <glyph glyph-name="semicolon" unicode=";" horiz-adv-x="236" 
d="M50 -23l37 152h74l-37 -152h-74zM140 285q-18 0 -31.5 13.5t-13.5 32.5t13.5 32.5t31.5 13.5q20 0 33 -13.5t13 -32.5t-13 -32.5t-33 -13.5z" />
    <glyph glyph-name="less" unicode="&#x3c;" horiz-adv-x="426" 
d="M390 79l-354 190v45l354 186v-76l-255 -132l255 -138v-75z" />
    <glyph glyph-name="equal" unicode="=" horiz-adv-x="418" 
d="M50 325v75h318v-75h-318zM50 183v75h318v-75h-318z" />
    <glyph glyph-name="greater" unicode="&#x3e;" horiz-adv-x="426" 
d="M36 79v75l255 138l-255 132v76l354 -186v-45z" />
    <glyph glyph-name="question" unicode="?" horiz-adv-x="472" 
d="M166 109v235q55 1 99 14.5t70.5 45t26.5 83.5q0 43 -18 74.5t-49.5 49t-73.5 17.5q-35 0 -62 -11t-45 -27t-29 -30l-49 51q15 19 38.5 40.5t59.5 36.5t89 15q97 0 153.5 -57.5t59.5 -154.5q0 -54 -18.5 -93t-47.5 -65t-63.5 -40t-66.5 -17v-167h-74zM203 -22
q-18 0 -32 13.5t-14 32.5t14 32.5t32 13.5q19 0 32.5 -13.5t13.5 -32.5t-13.5 -32.5t-32.5 -13.5z" />
    <glyph glyph-name="at" unicode="@" horiz-adv-x="783" 
d="M411 -66q-85 0 -155 27.5t-120.5 77.5t-78 117t-27.5 148q0 86 31.5 157t87 123t129 80.5t156.5 28.5q57 0 113 -17t102.5 -52.5t74.5 -89t28 -126.5q0 -64 -16 -110t-41.5 -76t-55 -47t-57.5 -24.5t-49 -7.5q-20 0 -37.5 8.5t-29 21t-16.5 23.5q-8 -13 -33.5 -30.5
t-63.5 -17.5q-35 0 -63.5 20t-44.5 54.5t-16 77.5q0 64 28.5 108t70 66.5t80.5 22.5q27 0 44 -6.5t27 -15.5t15 -14l7 23h57l-45 -176q-2 -8 -5 -19.5t-4 -22.5q-1 -8 3 -20.5t14.5 -22t25.5 -9.5t38 9.5t45 31t36.5 58.5t14.5 94q0 53 -21.5 94t-57.5 68.5t-79.5 41.5
t-86.5 14q-64 0 -123.5 -22.5t-106.5 -64t-75.5 -100.5t-28.5 -132q0 -90 40 -159t109.5 -108t159.5 -39q70 0 133 22t123 64l31 -57q-34 -27 -78.5 -48.5t-97.5 -34t-111 -12.5z" />
    <glyph glyph-name="A" unicode="A" horiz-adv-x="469" 
d="M363 0l-25 115h-154l17 78h117l-112 506h80l157 -699h-80zM31 0l134 592h16l30 -139l-101 -453h-79z" />
    <glyph glyph-name="B" unicode="B" horiz-adv-x="502" 
d="M165 -1v72h60q45 0 76 12.5t50 32.5t27 43.5t8 45.5q0 46 -28 78t-93 32h-100v72h100q45 0 70.5 14.5t37 39.5t11.5 55q0 29 -14.5 60t-45 51.5t-80.5 20.5h-79v72h88q56 0 96.5 -18t65.5 -47.5t37 -64.5t12 -70q0 -49 -20 -88t-49 -61q20 -15 36 -36t25.5 -48.5
t9.5 -65.5q0 -55 -25.5 -101t-72.5 -73.5t-112 -27.5h-91zM36 0v700h80v-700h-80z" />
    <glyph glyph-name="C" unicode="C" horiz-adv-x="507" 
d="M239 -5q-55 0 -93 20t-61.5 50.5t-34.5 62t-11 53.5v337q0 23 11 54.5t34.5 62t61.5 51t93 20.5v-80q-33 0 -55.5 -12.5t-37 -30t-20.5 -35.5t-6 -30v-337q0 -12 6.5 -30t20.5 -35.5t37 -29.5t55 -12v-79zM287 -5v79q18 2 39.5 9.5t39.5 24t26 42.5q3 8 4.5 17t1.5 17
q1 5 1.5 9.5t0.5 6.5l75 -18q0 -53 -27 -95.5t-70 -67t-91 -24.5zM398 496v8v8q-1 8 -2 15.5t-4 15.5q-10 29 -25.5 45.5t-32 24t-29.5 10t-18 3.5v80q36 0 69.5 -16t60.5 -43t42.5 -61t15.5 -70z" />
    <glyph glyph-name="D" unicode="D" horiz-adv-x="472" 
d="M170 0v79q33 0 65.5 3t59 14t42 35t15.5 66v306q0 38 -14 61t-39 35.5t-58 17t-71 4.5v79q56 0 104 -10.5t83.5 -33t55.5 -60.5t20 -93v-306q0 -66 -24 -105.5t-63 -59.5t-85 -26t-91 -6zM41 0v700h80v-700h-80z" />
    <glyph glyph-name="E" unicode="E" horiz-adv-x="444" 
d="M41 0v700h364v-79h-284v-233h190v-79h-190v-230h284v-79h-364z" />
    <glyph glyph-name="F" unicode="F" horiz-adv-x="439" 
d="M41 1v699h364v-79h-284v-233h190v-79h-190v-308h-80z" />
    <glyph glyph-name="G" unicode="G" horiz-adv-x="512" 
d="M238 -5q-24 0 -57.5 10.5t-66 34t-54 61t-21.5 91.5v332q1 23 13.5 54t37 60t61 48t87.5 19v-79q-34 0 -61 -17.5t-42 -44t-15 -56.5v-316q0 -33 14.5 -55.5t34.5 -36.5t39.5 -20t29.5 -6v-79zM286 -5v79q13 0 31 8.5t35.5 24.5t29 37t11.5 46v88h-107v75h188v-177
q0 -30 -17 -62t-44.5 -59t-61 -43.5t-65.5 -16.5zM396 487l-1 25q-2 31 -14.5 52.5t-30 35t-35 20t-29.5 6.5v79q48 1 91 -26.5t70 -71t27 -91.5z" />
    <glyph glyph-name="H" unicode="H" horiz-adv-x="494" 
d="M374 0v315h-102v74h102v311h80v-700h-80zM40 0v700h80v-311h102v-74h-102v-315h-80z" />
    <glyph glyph-name="I" unicode="I" horiz-adv-x="164" 
d="M42 0v700h80v-700h-80z" />
    <glyph glyph-name="J" unicode="J" horiz-adv-x="492" 
d="M257 -5v80q10 0 29.5 6.5t39.5 21t34.5 37t14.5 53.5v507h80v-507q0 -54 -22 -92t-55 -61t-65.5 -34t-55.5 -11zM207 -5q-22 0 -54 11.5t-62.5 35.5t-51.5 61.5t-21 89.5v49h81v-45q0 -32 12 -55.5t30 -38t36 -21.5t30 -7v-80z" />
    <glyph glyph-name="K" unicode="K" horiz-adv-x="490" 
d="M387 0l-223 341l218 359h86l-218 -359l222 -341h-85zM41 0v700h80v-700h-80z" />
    <glyph glyph-name="L" unicode="L" horiz-adv-x="435" 
d="M41 0v700h80v-621h296v-79h-376z" />
    <glyph glyph-name="M" unicode="M" horiz-adv-x="696" 
d="M312 0l-270 650v50h66l235 -570l172 389h10v-177l-151 -342h-62zM42 0v507h9l71 -173v-334h-80zM574 0v700h80v-700h-80z" />
    <glyph glyph-name="N" unicode="N" horiz-adv-x="529" 
d="M448 0l-406 649v51h69l376 -601v-99h-39zM42 0v554h8l72 -116v-438h-80zM479 195l-72 118v387h80v-505h-8z" />
    <glyph glyph-name="O" unicode="O" horiz-adv-x="536" 
d="M295 -5v80q18 0 39 8.5t39.5 24.5t30.5 39.5t12 53.5v299q0 21 -8.5 42.5t-24 40.5t-37.5 30.5t-51 11.5v80q47 0 84 -18t63 -47t40 -61.5t14 -62.5v-317q0 -50 -19 -88t-49 -64t-65 -39t-68 -13zM240 -5q-30 0 -64.5 13t-65.5 39t-50.5 64t-19.5 88v317q0 30 14 63
t40 61.5t63.5 46.5t83.5 18v-80q-28 0 -50.5 -11.5t-38 -31t-24 -41t-8.5 -41.5v-299q0 -30 12.5 -53t31 -39.5t39 -25t37.5 -8.5v-80z" />
    <glyph glyph-name="P" unicode="P" horiz-adv-x="482" 
d="M42 0v700h80v-700h-80zM171 312v78h103q34 0 58 10.5t37 36.5t13 71q0 43 -12.5 68t-36.5 36t-59 11h-103v77h117q56 -1 95 -21t60 -62t21 -112q0 -72 -21.5 -113.5t-60.5 -59.5t-94 -20h-117z" />
    <glyph glyph-name="Q" unicode="Q" horiz-adv-x="527" 
d="M361 -107l-73 102v80q5 0 23.5 5.5t40.5 18.5t38 36.5t16 59.5v313q0 21 -13 48.5t-39 48.5t-66 21v79q50 0 87.5 -19.5t62 -48.5t37 -60t12.5 -53v-329q0 -49 -18.5 -83t-46 -56t-54.5 -36l57 -83zM238 -5q-24 0 -57.5 11t-66 35t-54 62t-21.5 92v329q0 23 12.5 53.5
t37 60t62 48.5t88.5 19v-79q-40 0 -66.5 -21t-39.5 -48.5t-13 -48.5v-313q0 -36 15.5 -59.5t37.5 -37t40.5 -18.5t24.5 -5v-80z" />
    <glyph glyph-name="R" unicode="R" horiz-adv-x="507" 
d="M405 0l-15 178q-4 42 -14 70.5t-33 43t-65 13.5h-107v74h101q58 0 84 31t26 91q0 62 -30.5 94t-94.5 32h-86v73h102q54 -1 96 -21t66.5 -62t24.5 -112q0 -63 -19 -102.5t-50 -59.5q30 -15 49.5 -47.5t23.5 -78.5l17 -217h-76zM42 0v700h80v-700h-80z" />
    <glyph glyph-name="S" unicode="S" horiz-adv-x="493" 
d="M261 -3v75q16 0 37.5 9.5t41.5 27t33.5 41.5t13.5 54q0 35 -19 58t-48.5 37t-61.5 22t-59.5 13.5t-41.5 10.5q-34 12 -62 32.5t-44.5 53.5t-16.5 80q0 52 20 88t49 58t59 32.5t50 10.5v-76q-10 -1 -27 -7.5t-33.5 -20.5t-28 -35.5t-11.5 -51.5q0 -29 15.5 -48t40.5 -31
t55.5 -21t61 -16t54.5 -16q34 -13 63 -33.5t47 -53.5t18 -84q0 -54 -28 -101.5t-75 -77.5t-103 -30zM212 -3q-42 0 -76 17t-58.5 43t-38 53t-13.5 48l73 26q6 -36 25 -60t43 -36.5t45 -15.5v-75zM364 529q-6 32 -24 52.5t-39.5 31t-39.5 11.5v76q41 0 73 -16t55 -40.5
t35.5 -49t14.5 -41.5z" />
    <glyph glyph-name="T" unicode="T" horiz-adv-x="469" 
d="M194 0v622h-176v78h433v-78h-177v-622h-80z" />
    <glyph glyph-name="U" unicode="U" horiz-adv-x="521" 
d="M236 -5q-22 0 -55.5 11t-66.5 34t-55 61t-22 92v507h81v-507q0 -31 14 -54t35 -37t40 -20.5t29 -6.5v-80zM285 -5v80q11 0 30 6t39.5 20t35 36.5t14.5 55.5v507h80v-507q0 -54 -22 -92t-54.5 -61.5t-66 -34t-56.5 -10.5z" />
    <glyph glyph-name="V" unicode="V" horiz-adv-x="474" 
d="M212 0l-203 700h81l180 -616l-29 -84h-29zM287 185l-35 120l132 395h81l-168 -515h-10z" />
    <glyph glyph-name="W" unicode="W" horiz-adv-x="792" 
d="M213 0l-203 700h81l178 -610l-28 -90h-28zM544 0l-191 700h81l167 -614l-29 -86h-28zM283 194l-35 121l105 385h81l-141 -506h-10zM623 194l-36 120l114 386h81l-149 -506h-10z" />
    <glyph glyph-name="X" unicode="X" horiz-adv-x="460" 
d="M24 0l167 362l-155 338h78l116 -242l116 242h78l-155 -338l167 -362h-81l-125 262l-125 -262h-81z" />
    <glyph glyph-name="Y" unicode="Y" horiz-adv-x="473" 
d="M186 0v252l-163 448h83l162 -447v-253h-82zM294 319l-38 121l111 260h83l-150 -381h-6z" />
    <glyph glyph-name="Z" unicode="Z" horiz-adv-x="439" 
d="M36 0v77l278 544h-278v79h366v-76l-278 -544h279l-1 -80h-366z" />
    <glyph glyph-name="bracketleft" unicode="[" horiz-adv-x="211" 
d="M50 -36v775h126v-67h-48l-3 -641h51v-67h-126z" />
    <glyph glyph-name="backslash" unicode="\" horiz-adv-x="332" 
d="M215 -23l-174 739h75l175 -739h-76z" />
    <glyph glyph-name="bracketright" unicode="]" horiz-adv-x="208" 
d="M36 -36v67h50l-3 641h-47v67h125v-775h-125z" />
    <glyph glyph-name="asciicircum" unicode="^" horiz-adv-x="458" 
d="M54 460l149 296h52l149 -296h-74l-102 203l-101 -203h-73z" />
    <glyph glyph-name="underscore" unicode="_" horiz-adv-x="522" 
d="M36 -205v66h450v-66h-450z" />
    <glyph glyph-name="grave" unicode="`" horiz-adv-x="233" 
d="M99 605l-58 152h75l37 -152h-54z" />
    <glyph glyph-name="a" unicode="a" horiz-adv-x="467" 
d="M195 1q-50 0 -86 18.5t-55.5 47.5t-19.5 58v48q0 15 3 31.5t14 33.5t34 29q16 8 45.5 16.5t63.5 17t65 18.5t51.5 20.5t20.5 22.5v19q0 28 -13.5 47.5t-33 30t-41.5 10.5v70q56 0 92 -24.5t53.5 -61t17.5 -70.5v-276q0 -6 4.5 -19.5t22.5 -13.5v-73q-30 0 -48 10t-31 25
q-19 -18 -49 -26.5t-61 -8.5v72q23 0 42.5 7.5t32 25.5t12.5 49v118q-21 -11 -52.5 -20t-65.5 -16.5t-61 -15t-37 -17.5q-12 -9 -12 -32v-29q1 -25 13 -40.5t32.5 -22.5t46.5 -7v-72zM110 378l-69 26q0 39 23 69.5t58.5 48t73.5 17.5v-72q-23 0 -42.5 -10.5t-31.5 -30.5
t-12 -48z" />
    <glyph glyph-name="b" unicode="b" horiz-adv-x="443" 
d="M168 0v75h85q21 0 40.5 11t31.5 28.5t12 34.5v240q0 17 -11.5 34t-30 28.5t-41.5 11.5h-86v75h86q35 0 64.5 -14t50.5 -36t32.5 -47t11.5 -48v-246q0 -18 -9.5 -43t-29.5 -48.5t-50.5 -39.5t-71.5 -16h-84zM41 0v706h79v-706h-79z" />
    <glyph glyph-name="c" unicode="c" horiz-adv-x="442" 
d="M206 0q-47 0 -79 15.5t-51 39.5t-27.5 48.5t-8.5 43.5v243q0 21 10 46.5t30.5 48.5t52 38t73.5 15v-74q-28 0 -48.5 -13t-31 -30t-10.5 -34v-240q0 -16 11 -33.5t31 -28.5t48 -11v-74zM250 -1v74q24 0 44.5 10.5t33.5 29t15 43.5v21l73 -27q0 -41 -24 -75.5t-62 -55
t-80 -20.5zM332 361l-1 23q-1 28 -13.5 45t-30.5 25.5t-36 8.5v75q42 0 77 -20.5t55.5 -54.5t20.5 -75z" />
    <glyph glyph-name="d" unicode="d" horiz-adv-x="441" 
d="M191 0q-41 0 -71 16t-50 39.5t-30 48.5t-10 43v245q0 23 11.5 48t33 47t50 35.5t63.5 13.5h85v-74h-84q-22 0 -41 -11.5t-30.5 -29t-11.5 -33.5v-239q0 -18 12.5 -35t31.5 -28t40 -11h83v-75h-82zM321 0v706h80l-1 -706h-79z" />
    <glyph glyph-name="e" unicode="e" 
d="M209 0q-42 0 -73.5 15.5t-53 39t-32 48.5t-10.5 44v246q0 19 10.5 43.5t32 47.5t53 38.5t72.5 15.5v-74q-27 0 -47.5 -13.5t-32 -32t-11.5 -33.5v-71h234v70q0 25 -14 43t-35.5 28.5t-45.5 10.5v72q40 0 78.5 -19t64.5 -51.5t26 -73.5v-154h-308v-93q0 -14 11.5 -31.5
t32.5 -30.5t48 -13v-72zM256 0v73q30 0 51.5 12.5t34.5 30t17 34.5l67 -25q-8 -32 -31 -61t-58 -46.5t-81 -17.5z" />
    <glyph glyph-name="f" unicode="f" horiz-adv-x="274" 
d="M90 0v419h-66v75h66v60q0 18 6.5 42.5t22 49t42.5 41.5t68 17h33l-17 -74h-18q-25 -1 -38 -13.5t-17.5 -29.5t-4.5 -33v-61l67 1v-75h-67v-419h-77z" />
    <glyph glyph-name="g" unicode="g" horiz-adv-x="442" 
d="M26 -185l19 72h187q32 2 53.5 14.5t32 30t10.5 30.5v75q-6 -4 -18 -12.5t-29 -15t-40 -6.5v70q23 0 42.5 11.5t32 29.5t12.5 35v243q0 23 -14 40t-34 26.5t-39 9.5v72q19 0 36.5 -5.5t31 -13t19.5 -14.5v33h75v-578q0 -17 -9.5 -41.5t-29.5 -48.5t-49.5 -40.5
t-70.5 -16.5h-218zM197 3q-42 0 -72.5 16t-50 39.5t-29 48t-9.5 41.5v249q0 18 10 42t29.5 47.5t49.5 38.5t72 15v-72q-26 0 -46 -13.5t-30.5 -30.5t-10.5 -30v-245q0 -14 10.5 -31t30 -30t46.5 -13v-72z" />
    <glyph glyph-name="h" unicode="h" horiz-adv-x="456" 
d="M41 -3v708h73v-214q12 12 36.5 24.5t59.5 12.5v-72q-24 0 -46 -13t-35.5 -31t-13.5 -36v-379h-74zM346 -3v379q0 17 -9 35.5t-28.5 31.5t-51.5 13v72q52 0 88.5 -21t55.5 -53.5t19 -68.5v-388h-74z" />
    <glyph glyph-name="i" unicode="i" horiz-adv-x="181" 
d="M53 0v534h77v-534h-77zM91 578q-18 0 -32 13.5t-14 31.5t14 31.5t32 13.5t31.5 -13.5t13.5 -31.5t-13.5 -31.5t-31.5 -13.5z" />
    <glyph glyph-name="j" unicode="j" horiz-adv-x="201" 
d="M-42 -188l17 74h19q23 1 40.5 13.5t28 30t10.5 32.5v564h77v-564q0 -18 -9.5 -43.5t-29 -49.5t-49 -40.5t-69.5 -16.5h-35zM112 565q-18 0 -32 13.5t-14 31.5t14 31.5t32 13.5t31.5 -13t13.5 -32q0 -18 -13.5 -31.5t-31.5 -13.5z" />
    <glyph glyph-name="k" unicode="k" horiz-adv-x="475" 
d="M361 0l-216 269l215 267h94l-216 -267l217 -269h-94zM41 0v705h79v-705h-79z" />
    <glyph glyph-name="l" unicode="l" horiz-adv-x="166" 
d="M42 0v705h82v-705h-82z" />
    <glyph glyph-name="m" unicode="m" horiz-adv-x="725" 
d="M323 0v382q0 34 -21 58t-61 24v76q48 0 75 -16t46 -40q20 25 47 40.5t74 15.5v-76q-40 0 -60.5 -24.5t-20.5 -57.5v-382h-79zM38 0v392q0 21 8.5 46t27.5 48.5t49 38.5t73 15v-76q-39 0 -59.5 -25t-20.5 -57v-382h-78zM608 0v382q0 35 -21 58.5t-60 23.5v76
q43 0 73.5 -15.5t49.5 -39t28 -49t9 -44.5v-392h-79z" />
    <glyph glyph-name="n" unicode="n" 
d="M38 378q0 28 11.5 56.5t33.5 52.5t54 38t73 14v-76q-25 0 -46.5 -12.5t-35 -33t-13.5 -45.5v-372h-77v378zM350 372q0 19 -11 40t-32.5 36t-51.5 15v76q40 0 72 -14.5t54 -38.5t33.5 -52.5t11.5 -55.5v-378h-76v372z" />
    <glyph glyph-name="o" unicode="o" horiz-adv-x="454" 
d="M208 -1q-39 0 -70.5 14t-53.5 37.5t-34 51.5t-12 56v219q0 28 11 56.5t33 52t54 38t72 14.5v-75q-30 0 -50.5 -14.5t-31.5 -36.5t-11 -45v-199q0 -20 12 -42t33 -37t48 -15v-75zM253 -1v75q28 0 48.5 14.5t31.5 36t11 41.5v201q0 22 -11 44t-31 37t-49 15v75
q41 0 71.5 -14.5t52.5 -38t32.5 -52t10.5 -56.5v-219q0 -28 -11.5 -56t-33.5 -51.5t-52.5 -37.5t-69.5 -14z" />
    <glyph glyph-name="p" unicode="p" horiz-adv-x="459" 
d="M172 0v75h81q30 0 50 12t29.5 29t9.5 33v239q0 13 -10 30.5t-31 31t-54 13.5h-79v75h79q44 0 76.5 -15.5t53.5 -39t31.5 -48.5t10.5 -44v-246q0 -19 -10 -44t-30.5 -48t-52.5 -38t-75 -15h-79zM41 -189v727h80v-727h-80z" />
    <glyph glyph-name="q" unicode="q" horiz-adv-x="453" 
d="M207 0q-43 0 -75 15t-52.5 38t-30.5 48t-10 44v246q0 19 10 44t30 48.5t52 39t76 15.5h78v-75h-78q-33 0 -53 -13.5t-29.5 -31t-9.5 -30.5v-239q0 -16 10 -33t30 -29t50 -12h76v-75h-74zM332 -189v727h80v-727h-80z" />
    <glyph glyph-name="r" unicode="r" horiz-adv-x="284" 
d="M42 0v538h78v-77q9 17 27.5 34.5t44 30.5t55.5 13h11h10l-18 -76q-33 0 -62.5 -23.5t-48.5 -59t-19 -73.5v-307h-78z" />
    <glyph glyph-name="s" unicode="s" horiz-adv-x="431" 
d="M232 -5v73q21 0 45 10t41 30t17 50q0 24 -20 39t-51.5 25t-69 18.5t-72.5 18.5q-18 7 -40.5 20t-39.5 37.5t-17 64.5q0 44 16.5 74.5t42 49.5t53 27t50.5 8v-72q-23 0 -43.5 -11.5t-33 -30t-12.5 -41.5q0 -25 22.5 -40t67.5 -27t111 -28q15 -3 34 -11.5t37 -23.5
t29.5 -38t11.5 -55q0 -52 -24 -89.5t-65 -57.5t-90 -20zM189 -5q-54 0 -92 22.5t-57.5 56.5t-19.5 68l73 13q0 -25 15.5 -44.5t37.5 -30.5t43 -12v-73zM329 380q0 32 -18.5 51t-42 27.5t-38.5 8.5l1 73q51 0 89 -22.5t59.5 -56.5t21.5 -69z" />
    <glyph glyph-name="t" unicode="t" horiz-adv-x="281" 
d="M244 0q-64 1 -98.5 22.5t-48.5 60.5t-14 92v280h-65v75h65v176h78v-176h64v-75h-64v-290q0 -38 17.5 -62.5t68.5 -24.5h12l18 -78h-33z" />
    <glyph glyph-name="u" unicode="u" 
d="M254 -5v77q29 0 50 12.5t32.5 31t11.5 36.5v384h79v-393q0 -19 -10.5 -44t-32.5 -49t-54.5 -39.5t-75.5 -15.5zM210 -5q-43 0 -75.5 15t-54 38.5t-32 49t-10.5 45.5v393h78v-384q0 -17 12 -36t33 -31.5t49 -12.5v-77z" />
    <glyph glyph-name="v" unicode="v" horiz-adv-x="420" 
d="M185 0l-176 537h86l158 -463l-25 -74h-43zM265 147l-38 110l97 280h87l-134 -390h-12z" />
    <glyph glyph-name="w" unicode="w" horiz-adv-x="723" 
d="M496 1l-178 537h87l158 -464l-25 -73h-42zM186 1l-177 537h86l158 -464l-24 -73h-43zM265 147l-38 111l91 280h87l-128 -391h-12zM574 147l-38 111l92 280h86l-127 -391h-13z" />
    <glyph glyph-name="x" unicode="x" horiz-adv-x="394" 
d="M8 0l145 272l-141 266h78l107 -187l106 186h79l-139 -265l143 -272h-78l-111 195l-111 -195h-78z" />
    <glyph glyph-name="y" unicode="y" horiz-adv-x="406" 
d="M60 -189l99 307l-154 419h81l155 -420l-102 -306h-79zM258 186l-34 107l97 244h81l-135 -351h-9z" />
    <glyph glyph-name="z" unicode="z" horiz-adv-x="368" 
d="M30 0l1 75l221 387h-222v74h308v-71l-220 -390h220v-75h-308z" />
    <glyph glyph-name="braceleft" unicode="{" horiz-adv-x="248" 
d="M228 -38q-33 0 -61 7t-48.5 27t-31 59.5t-10.5 104.5v130q0 24 -17.5 34t-44.5 24q27 11 44 21.5t18 38.5v128q0 65 10.5 104.5t30 60t47.5 27.5t63 7v-60q-26 0 -41.5 -7.5t-22.5 -29t-9.5 -62t-2.5 -107.5v-86q0 -13 -9 -21.5t-27 -13.5q19 -6 27.5 -17t8.5 -27v-97
q0 -62 5 -99.5t14.5 -56t24 -24t32.5 -5.5v-60z" />
    <glyph glyph-name="bar" unicode="|" horiz-adv-x="163" 
d="M50 -134v888h63v-888h-63z" />
    <glyph glyph-name="braceright" unicode="}" horiz-adv-x="248" 
d="M20 -38v60q18 0 32.5 5.5t24 24.5t14.5 56t5 99v97q0 16 8.5 27t27.5 17q-18 5 -27 13.5t-9 21.5v86q0 67 -2 107.5t-9.5 62t-22.5 29t-42 7.5v60q35 0 63 -7t48 -27.5t30.5 -60t10.5 -104.5v-128q0 -28 17 -38.5t44 -21.5q-27 -14 -44.5 -24t-17.5 -34v-130
q0 -64 -10.5 -103t-31 -59.5t-48 -28t-61.5 -7.5z" />
    <glyph glyph-name="asciitilde" unicode="~" horiz-adv-x="628" 
d="M411 264q-34 0 -62 11t-53.5 25.5t-51.5 25.5t-57 11q-22 0 -48.5 -8t-58.5 -28v76q34 20 62 27.5t51 7.5q33 0 59.5 -11t52 -25.5t52.5 -25.5t60 -11q26 0 58.5 10t72.5 35v-74q-42 -25 -75.5 -35.5t-61.5 -10.5z" />
    <glyph glyph-name="uni00A0" unicode="&#xa0;" horiz-adv-x="236" 
 />
    <glyph glyph-name="exclamdown" unicode="&#xa1;" horiz-adv-x="181" 
d="M31 -136v537h78v-537h-78zM70 443q-20 0 -35 14.5t-15 34.5q0 19 15 33.5t35 14.5q19 0 33.5 -14.5t14.5 -33.5q0 -20 -14.5 -34.5t-33.5 -14.5z" />
    <glyph glyph-name="cent" unicode="&#xa2;" horiz-adv-x="434" 
d="M331 360v22q-2 28 -15 45.5t-31 26t-35 8.5v75q42 0 76.5 -20.5t55.5 -54.5t21 -75zM205 0q-47 0 -79 15.5t-51 39.5t-28 48.5t-9 43.5v242q0 21 10.5 46.5t31 48.5t52 38t73.5 15v-74q-28 0 -48.5 -13.5t-31 -32t-10.5 -36.5v-230q0 -15 11 -33t31 -31t48 -13v-74z
M250 -1v75q32 0 59.5 21t32.5 58v13v11l72 -27q0 -41 -24 -75.5t-61.5 -55t-78.5 -20.5zM165 510v101h40v-101h-40zM165 -74v101h40v-101h-40zM250 510v101h40v-101h-40zM250 -74v101h40v-101h-40z" />
    <glyph glyph-name="sterling" unicode="&#xa3;" horiz-adv-x="407" 
d="M80 0v308h-60v66h60v163q0 44 16.5 82t51.5 61.5t89 23.5h2q19 0 34.5 -3t29.5 -9q33 -13 53.5 -36.5t29.5 -50.5l-61 -30q-10 21 -30 39t-52 18q-36 0 -61 -23t-25 -69v-164h143v-66h-144v-244h228v-66h-304z" />
    <glyph glyph-name="currency" unicode="&#xa4;" horiz-adv-x="617" 
d="M285 132q-44 0 -75.5 17.5t-51.5 41.5l-74 -66l-44 49l86 78q-3 8 -4 16t-1 15v165q0 6 1.5 14.5t3.5 16.5l-86 77l44 50l75 -66q20 23 51 39.5t75 16.5v-70q-31 0 -51.5 -14t-30.5 -33t-10 -36v-157q0 -16 11.5 -35.5t32 -34t48.5 -14.5v-70zM326 132v70q30 0 49.5 14
t29 33.5t9.5 35.5v157q0 18 -10 37t-29.5 33t-48.5 14v70q42 0 72.5 -16.5t49.5 -40.5l75 67l44 -50l-87 -78q3 -8 4 -16t1 -15v-165q0 -7 -1 -14.5t-4 -15.5l87 -78l-44 -49l-74 65q-20 -24 -50 -41t-73 -17z" />
    <glyph glyph-name="yen" unicode="&#xa5;" horiz-adv-x="451" 
d="M190 0v268l-142 430h80l102 -298l101 298h79l-141 -431v-267h-79zM19 187v44h419v-44h-419zM19 285v44h419v-44h-419z" />
    <glyph glyph-name="brokenbar" unicode="&#xa6;" horiz-adv-x="165" 
d="M42 402v356h73v-356h-73zM42 -136v355h73v-355h-73z" />
    <glyph glyph-name="section" unicode="&#xa7;" horiz-adv-x="602" 
d="M276 160q-12 3 -29.5 6.5t-35.5 9t-32 12.5q-38 17 -66 38.5t-43.5 52t-15.5 74.5q0 51 21 88.5t53 60.5q-6 14 -9.5 32t-3.5 39q0 54 19 90t48 57t61 30.5t58 9.5h103v-76h-83q-65 0 -97 -29.5t-32 -77.5q0 -24 11.5 -41.5t30.5 -29t42 -20.5v-90q-7 2 -18.5 5t-19.5 7
q-18 7 -33.5 15t-27.5 19q-17 -13 -30 -34.5t-13 -53.5q0 -36 21.5 -57.5t54.5 -33.5t66 -20v-83zM197 -137v76h81q60 0 96.5 29t36.5 81q0 27 -12 45t-31.5 29.5t-42.5 19.5v87q12 -3 20.5 -5.5t15.5 -5.5q20 -6 37.5 -14.5t30.5 -23.5q17 16 28 37.5t11 49.5
q0 29 -12.5 48.5t-33.5 32.5t-46.5 21t-50.5 13v84q26 -7 51 -13.5t44 -14.5q35 -13 64 -33.5t46.5 -53.5t17.5 -84q0 -44 -19 -83.5t-52 -67.5q5 -14 7.5 -31.5t2.5 -36.5q0 -41 -14.5 -75.5t-40.5 -59t-60 -38t-73 -13.5h-102z" />
    <glyph glyph-name="dieresis" unicode="&#xa8;" horiz-adv-x="332" 
d="M230 632q-19 0 -32.5 14t-13.5 33t13.5 32.5t32.5 13.5q20 0 33.5 -13.5t13.5 -32.5t-13.5 -33t-33.5 -14zM102 632q-19 0 -33 14t-14 33t14 32.5t33 13.5t32.5 -13.5t13.5 -32.5t-13.5 -33t-32.5 -14z" />
    <glyph glyph-name="copyright" unicode="&#xa9;" horiz-adv-x="788" 
d="M381 -29q-67 1 -128.5 28.5t-110.5 76.5t-78 116t-29 147q0 73 22.5 131.5t59.5 103t83 74t93 44.5t88 15v-54q-50 0 -101 -21.5t-94.5 -62.5t-70.5 -98.5t-27 -130.5q0 -61 22.5 -116.5t62.5 -99.5t93 -69.5t115 -26.5v-57zM416 -29v57q59 1 111.5 26.5t92.5 69t62.5 99
t22.5 116.5q0 67 -25 124t-66.5 99.5t-93 66.5t-104.5 24v54q45 0 93.5 -17t93 -48.5t80 -77t55.5 -103.5t20 -127q-1 -78 -30.5 -144t-78 -115t-109 -76t-124.5 -28zM478 426v11q0 24 -10 40t-24.5 25t-27.5 9v54q31 0 57.5 -17t42 -44t15.5 -58zM381 113q-36 0 -61 13.5
t-39.5 34t-21 42t-6.5 38.5v195q0 25 13.5 55t42 52t72.5 22v-54q-26 0 -42 -13t-23 -31.5t-7 -32.5v-193q0 -16 8 -33.5t24.5 -29.5t39.5 -12v-53zM416 112v54q25 0 44 20.5t19 50.5v14l54 -19q0 -31 -16.5 -58.5t-43 -44.5t-57.5 -17z" />
    <glyph glyph-name="ordfeminine" unicode="&#xaa;" horiz-adv-x="237" 
d="M20 366v37h195v-37h-195zM101 436q-25 0 -43.5 9.5t-28 23.5t-9.5 29v24q0 7 1.5 15.5t7 17t17.5 14.5q8 4 22.5 8t32 8.5t32.5 9.5t25.5 10t10.5 12v9q0 13 -6.5 23t-16.5 15.5t-21 5.5v35q27 0 45 -12.5t27.5 -30.5t9.5 -35v-138q0 -3 2 -10t11 -7v-36q-16 0 -24.5 5
t-14.5 13q-10 -10 -25 -14t-31 -4v36q12 0 22 4t16 12.5t6 24.5v59q-10 -6 -26.5 -10.5t-33 -8t-30 -7.5t-18.5 -9q-6 -4 -6 -15v-15q0 -13 6 -20.5t16.5 -11t23.5 -3.5v-36zM58 625l-34 13q-1 19 11 34t29.5 24t36.5 9v-36q-11 0 -21 -5.5t-16 -15.5t-6 -23z" />
    <glyph glyph-name="guillemotleft" unicode="&#xab;" horiz-adv-x="468" 
d="M446 115l-211 157v36l211 156v-80l-129 -92l129 -98v-79zM235 115l-211 157v36l211 156v-80l-129 -92l129 -98v-79z" />
    <glyph glyph-name="logicalnot" unicode="&#xac;" horiz-adv-x="517" 
d="M395 208v144h-355v68h427v-212h-72z" />
    <glyph glyph-name="uni00AD" unicode="&#xad;" horiz-adv-x="376" 
d="M24 257v74h316v-74h-316z" />
    <glyph glyph-name="registered" unicode="&#xae;" horiz-adv-x="392" 
d="M187 363q-42 2 -77.5 24.5t-56.5 59.5t-21 82q0 36 13 65.5t36 51.5t51 34.5t56 12.5v-30q-32 -2 -61 -19.5t-47 -47.5t-18 -68q0 -36 17 -65.5t45.5 -48t62.5 -20.5v-31zM204 363v31q36 2 64 20.5t45 48t17 65.5q0 38 -17.5 68t-46 47.5t-62.5 19.5v30q30 0 57 -12.5
t50 -34.5t36 -52t13 -66q0 -46 -21.5 -82.5t-57 -58.5t-77.5 -24zM137 431v196h28v-196h-28zM234 432l-4 49q-2 22 -14.5 28t-36.5 6v26h13q19 0 28 8.5t9 19.5q0 18 -11.5 25t-32.5 7h-6v26q18 0 35.5 -4.5t29 -16.5t11.5 -36q0 -30 -20 -41q9 -5 14 -15t6 -22l5 -60h-26z
" />
    <glyph glyph-name="macron" unicode="&#xaf;" horiz-adv-x="510" 
d="M36 712v66h450v-66h-450z" />
    <glyph glyph-name="degree" unicode="&#xb0;" horiz-adv-x="246" 
d="M123 496q-24 0 -44 11.5t-32 31.5t-12 44t12 44t32 31.5t44 11.5t44 -11.5t32 -31.5t12 -44t-12 -44t-32 -31.5t-44 -11.5zM122 545q17 0 28 11t11 27q0 17 -11 28t-28 11q-16 0 -27 -11t-11 -28q0 -16 11 -27t27 -11z" />
    <glyph glyph-name="plusminus" unicode="&#xb1;" horiz-adv-x="432" 
d="M28 93v74h376v-74h-376zM192 248v170h-149v74h149v167h75v-167h151v-74h-151v-170h-75z" />
    <glyph glyph-name="uni00B2" unicode="&#xb2;" horiz-adv-x="228" 
d="M22 449q0 24 11.5 41t28 29.5t32 20.5t23.5 13q21 13 36.5 27t15.5 36q0 10 -5 21t-16 18.5t-30 7.5v39q48 0 69 -26.5t21 -61.5q0 -32 -17 -51.5t-43 -35.5q-16 -9 -34.5 -19t-31.5 -23.5t-13 -35.5h-47zM22 388v41h181v-41h-181zM52 617l-36 7q2 29 24 52.5t56 25.5
v-39q-11 -1 -26 -11t-18 -35z" />
    <glyph glyph-name="uni00B3" unicode="&#xb3;" horiz-adv-x="228" 
d="M119 387v39q16 1 33 12.5t17 37.5q0 17 -13.5 33t-47.5 16v38q33 0 47 16t14 33q0 27 -17 38t-33 12v39q24 0 44.5 -10.5t33 -30t12.5 -46.5q0 -23 -8.5 -41t-24.5 -30q16 -10 24.5 -27.5t8.5 -41.5q0 -26 -12.5 -45.5t-33 -30.5t-44.5 -11zM95 387q-33 2 -54 26t-23 52
l37 7q3 -25 16.5 -35.5t23.5 -10.5v-39zM55 616l-37 7q2 28 23 52t54 26v-39q-10 -1 -23.5 -11t-16.5 -35z" />
    <glyph glyph-name="acute" unicode="&#xb4;" horiz-adv-x="343" 
d="M115 605l37 152h75l-59 -152h-53z" />
    <glyph glyph-name="uni00B5" unicode="&#xb5;" horiz-adv-x="496" 
d="M40 0v698h74v-378q0 -11 12 -21.5t33.5 -17t46.5 -6.5v-71q-35 0 -58.5 10t-33.5 13v-227h-74zM248 204v71q26 0 47 6.5t33.5 17t12.5 21.5v380h73v-380q0 -18 7.5 -30.5t34.5 -12.5v-71q-32 0 -51.5 8.5t-34.5 24.5q-20 -16 -51.5 -25.5t-70.5 -9.5z" />
    <glyph glyph-name="paragraph" unicode="&#xb6;" horiz-adv-x="410" 
d="M204 -5v334q-78 0 -123.5 51.5t-45.5 134.5q0 51 21 94.5t59 69.5t89 26h51v-710h-51zM305 -5v710h51v-710h-51z" />
    <glyph glyph-name="periodcentered" unicode="&#xb7;" horiz-adv-x="191" 
d="M114 288q-22 0 -37.5 15.5t-15.5 37.5t15.5 38t37.5 16q23 0 38.5 -16t15.5 -38t-15.5 -37.5t-38.5 -15.5z" />
    <glyph glyph-name="cedilla" unicode="&#xb8;" horiz-adv-x="410" 
d="M123 -20v59q37 0 64 21.5t27 62.5h61q0 -32 -14.5 -65t-48 -55.5t-89.5 -22.5z" />
    <glyph glyph-name="uni00B9" unicode="&#xb9;" horiz-adv-x="122" 
d="M34 385v260h-24v34l24 20h41v-314h-41z" />
    <glyph glyph-name="ordmasculine" unicode="&#xba;" horiz-adv-x="230" 
d="M26 392v40h178v-40h-178zM108 463q-18 0 -32 6t-24 16.5t-15 23t-5 25.5v98q0 12 5 24.5t14.5 23t23.5 17t33 6.5v-34q-14 0 -23 -6.5t-14 -16.5t-5 -19v-89q0 -9 5.5 -19t14.5 -16.5t22 -6.5v-33zM128 463v33q12 0 21 6.5t14 16.5t5 18v90q0 9 -5 19t-14 16.5t-21 6.5
v34q18 0 31.5 -6.5t23.5 -17t14.5 -23t4.5 -24.5v-98q0 -13 -5 -25.5t-15 -23t-23.5 -16.5t-30.5 -6z" />
    <glyph glyph-name="guillemotright" unicode="&#xbb;" horiz-adv-x="457" 
d="M226 127v73l141 92l-141 85v74l211 -137v-48zM15 127v73l141 92l-141 85v74l211 -137v-48z" />
    <glyph glyph-name="onequarter" unicode="&#xbc;" horiz-adv-x="502" 
d="M0 0l432 700h52l-429 -700h-55zM233 61v46l131 223v-92l-75 -131h75v-46h-131zM388 0v350h51v-243h27v-46h-27v-61h-51zM85 350v290h-28v38l28 22h50v-350h-50z" />
    <glyph glyph-name="onehalf" unicode="&#xbd;" horiz-adv-x="565" 
d="M85 350v290h-28v38l28 22h50v-350h-50zM0 0l432 700h52l-429 -700h-55zM348 246l-46 10q2 25 14.5 46t33.5 34t47 15v-49q-13 -1 -29.5 -13t-19.5 -43zM308 71q0 26 12.5 44t30.5 30t35.5 19.5t27.5 12.5q27 13 46 26.5t19 41.5q0 25 -13.5 40.5t-43.5 16.5v49
q37 0 61 -14.5t35 -38t11 -52.5q0 -39 -18.5 -60t-45.5 -34q-14 -7 -31 -14t-33 -15.5t-26 -21t-10 -30.5h-57zM308 0v48h215v-48h-215z" />
    <glyph glyph-name="threequarters" unicode="&#xbe;" horiz-adv-x="604" 
d="M82 596l-46 9q2 25 15 46t34 34.5t46 14.5v-49q-13 0 -29.5 -12t-19.5 -43zM159 347v49q26 0 39 15.5t13 37.5q0 6 -4 18.5t-15.5 23t-38.5 10.5h-13v45h13q27 0 38.5 10.5t15.5 23.5t4 19q0 22 -13 37t-39 15v49q27 0 50 -12.5t36.5 -34.5t13.5 -52q0 -27 -10 -46
t-28 -31q18 -12 28 -31.5t10 -46.5q0 -29 -13.5 -51.5t-36.5 -35t-50 -12.5zM131 347q-25 2 -46 15t-34 34t-15 46l46 9q3 -30 19.5 -42.5t29.5 -12.5v-49zM102 0l432 700h52l-429 -700h-55zM335 61v46l131 223v-92l-75 -131h75v-46h-131zM491 0v350h50v-243h27v-46h-27v-61
h-50z" />
    <glyph glyph-name="questiondown" unicode="&#xbf;" horiz-adv-x="445" 
d="M286 581v-235q-54 -1 -98.5 -14.5t-71 -44.5t-26.5 -85q0 -42 18 -73.5t50 -49t73 -17.5q36 0 62.5 11t45 26.5t28.5 29.5l49 -50q-15 -19 -38 -40.5t-59.5 -36.5t-89.5 -15q-97 0 -153.5 57.5t-59.5 154.5q0 53 18.5 92.5t47.5 65.5t64 40t66 17v167h74zM249 712
q19 0 32.5 -13.5t13.5 -32.5q0 -18 -13.5 -32t-32.5 -14q-18 0 -32 14t-14 32q0 19 14 32.5t32 13.5z" />
    <glyph glyph-name="Agrave" unicode="&#xc0;" horiz-adv-x="469" 
d="M217 766l-58 152h75l37 -152h-54zM363 0l-25 115h-154l17 78h117l-112 506h80l157 -699h-80zM31 0l134 592h16l30 -139l-101 -453h-79z" />
    <glyph glyph-name="Aacute" unicode="&#xc1;" horiz-adv-x="469" 
d="M221 766l37 152h75l-59 -152h-53zM363 0l-25 115h-154l17 78h117l-112 506h80l157 -699h-80zM31 0l134 592h16l30 -139l-101 -453h-79z" />
    <glyph glyph-name="Acircumflex" unicode="&#xc2;" horiz-adv-x="469" 
d="M149 766l75 152h46l76 -152h-54l-45 91l-44 -91h-54zM363 0l-25 115h-154l17 78h117l-112 506h80l157 -699h-80zM31 0l134 592h16l30 -139l-101 -453h-79z" />
    <glyph glyph-name="Atilde" unicode="&#xc3;" horiz-adv-x="469" 
d="M304 759q-26 0 -47 10t-40.5 20t-43.5 10q-13 0 -29.5 -5t-36.5 -17v64q21 12 38.5 17t31.5 5q26 0 46 -10t40 -20.5t45 -10.5q17 0 36 6.5t44 21.5v-63q-25 -16 -46 -22t-38 -6zM363 0l-25 115h-154l17 78h117l-112 506h80l157 -699h-80zM31 0l134 592h16l30 -139
l-101 -453h-79z" />
    <glyph glyph-name="Adieresis" unicode="&#xc4;" horiz-adv-x="469" 
d="M312 766q-19 0 -32.5 14t-13.5 33t13.5 32.5t32.5 13.5q20 0 33.5 -13.5t13.5 -32.5t-13.5 -33t-33.5 -14zM184 766q-19 0 -33 14t-14 33t14 32.5t33 13.5t32.5 -13.5t13.5 -32.5t-13.5 -33t-32.5 -14zM363 0l-25 115h-154l17 78h117l-112 506h80l157 -699h-80zM31 0
l134 592h16l30 -139l-101 -453h-79z" />
    <glyph glyph-name="Aring" unicode="&#xc5;" horiz-adv-x="516" 
d="M383 0l-25 115h-150l17 78h117l-111 503q-19 8 -31.5 27t-12.5 42q0 34 23.5 58t57.5 24t58.5 -24t24.5 -58q0 -22 -11 -40t-29 -28l151 -697h-79zM55 0l134 592h16l30 -139l-101 -453h-79zM268 729q16 0 26.5 10.5t10.5 25.5q0 16 -10.5 26t-26.5 10q-14 0 -24.5 -10
t-10.5 -26q0 -15 10 -25.5t25 -10.5z" />
    <glyph glyph-name="AE" unicode="&#xc6;" horiz-adv-x="727" 
d="M59 0l180 700h462v-79h-254v-234h160v-79h-160v-229h254v-79h-334v172h-127l17 72h110v377h-63l-156 -621h-89z" />
    <glyph glyph-name="Ccedilla" unicode="&#xc7;" horiz-adv-x="507" 
d="M141 -184v59q37 0 64 21.5t27 62.5h61q0 -32 -14.5 -65t-48 -55.5t-89.5 -22.5zM239 -5q-55 0 -93 20t-61.5 50.5t-34.5 62t-11 53.5v337q0 23 11 54.5t34.5 62t61.5 51t93 20.5v-80q-33 0 -55.5 -12.5t-37 -30t-20.5 -35.5t-6 -30v-337q0 -12 6.5 -30t20.5 -35.5
t37 -29.5t55 -12v-79zM287 -5v79q18 2 39.5 9.5t39.5 24t26 42.5q3 8 4.5 17t1.5 17q1 5 1.5 9.5t0.5 6.5l75 -18q0 -53 -27 -95.5t-70 -67t-91 -24.5zM398 496v8v8q-1 8 -2 15.5t-4 15.5q-10 29 -25.5 45.5t-32 24t-29.5 10t-18 3.5v80q36 0 69.5 -16t60.5 -43t42.5 -61
t15.5 -70z" />
    <glyph glyph-name="Egrave" unicode="&#xc8;" horiz-adv-x="444" 
d="M193 766l-58 152h75l37 -152h-54zM41 0v700h364v-79h-284v-233h190v-79h-190v-230h284v-79h-364z" />
    <glyph glyph-name="Eacute" unicode="&#xc9;" horiz-adv-x="444" 
d="M241 766l37 152h75l-59 -152h-53zM41 0v700h364v-79h-284v-233h190v-79h-190v-230h284v-79h-364z" />
    <glyph glyph-name="Ecircumflex" unicode="&#xca;" horiz-adv-x="444" 
d="M125 766l75 152h46l76 -152h-54l-45 91l-44 -91h-54zM41 0v700h364v-79h-284v-233h190v-79h-190v-230h284v-79h-364z" />
    <glyph glyph-name="Edieresis" unicode="&#xcb;" horiz-adv-x="444" 
d="M288 766q-19 0 -32.5 14t-13.5 33t13.5 32.5t32.5 13.5q20 0 33.5 -13.5t13.5 -32.5t-13.5 -33t-33.5 -14zM160 766q-19 0 -33 14t-14 33t14 32.5t33 13.5t32.5 -13.5t13.5 -32.5t-13.5 -33t-32.5 -14zM41 0v700h364v-79h-284v-233h190v-79h-190v-230h284v-79h-364z" />
    <glyph glyph-name="Igrave" unicode="&#xcc;" horiz-adv-x="164" 
d="M54 766l-58 152h75l37 -152h-54zM42 0v700h80v-700h-80z" />
    <glyph glyph-name="Iacute" unicode="&#xcd;" horiz-adv-x="164" 
d="M56 766l37 152h75l-59 -152h-53zM42 0v700h80v-700h-80z" />
    <glyph glyph-name="Icircumflex" unicode="&#xce;" horiz-adv-x="164" 
d="M-16 766l75 152h46l76 -152h-54l-45 91l-44 -91h-54zM42 0v700h80v-700h-80z" />
    <glyph glyph-name="Idieresis" unicode="&#xcf;" horiz-adv-x="164" 
d="M146 766q-19 0 -32.5 14t-13.5 33t13.5 32.5t32.5 13.5q20 0 33.5 -13.5t13.5 -32.5t-13.5 -33t-33.5 -14zM18 766q-19 0 -33 14t-14 33t14 32.5t33 13.5t32.5 -13.5t13.5 -32.5t-13.5 -33t-32.5 -14zM42 0v700h80v-700h-80z" />
    <glyph glyph-name="Eth" unicode="&#xd0;" horiz-adv-x="503" 
d="M82 0v318h-56v74h56v308h81v-308h56v-74h-56v-318h-81zM211 0v79q34 0 66 3t58.5 14t42.5 35t16 66v306q0 38 -14.5 61t-39 35.5t-58 17t-71.5 4.5v79q57 0 104.5 -10.5t83 -33t55.5 -60.5t20 -93v-306q0 -66 -23.5 -105.5t-62.5 -59.5t-85 -26t-92 -6z" />
    <glyph glyph-name="Ntilde" unicode="&#xd1;" horiz-adv-x="529" 
d="M321 766q-26 0 -47 10t-40.5 20t-43.5 10q-13 0 -29.5 -5t-36.5 -17v64q21 12 38.5 17t31.5 5q26 0 46 -10t40 -20.5t45 -10.5q17 0 36 6.5t44 21.5v-63q-25 -16 -46 -22t-38 -6zM448 0l-406 649v51h69l376 -601v-99h-39zM42 0v554h8l72 -116v-438h-80zM479 195l-72 118
v387h80v-505h-8z" />
    <glyph glyph-name="Ograve" unicode="&#xd2;" horiz-adv-x="526" 
d="M231 766l-58 152h75l37 -152h-54zM295 -5v80q18 0 39 8.5t39.5 24.5t30.5 39.5t12 53.5v299q0 21 -8.5 42.5t-24 40.5t-37.5 30.5t-51 11.5v80q47 0 84 -18t63 -47t40 -61.5t14 -62.5v-317q0 -50 -19 -88t-49 -64t-65 -39t-68 -13zM240 -5q-30 0 -64.5 13t-65.5 39
t-50.5 64t-19.5 88v317q0 30 14 63t40 61.5t63.5 46.5t83.5 18v-80q-28 0 -50.5 -11.5t-38 -31t-24 -41t-8.5 -41.5v-299q0 -30 12.5 -53t31 -39.5t39 -25t37.5 -8.5v-80z" />
    <glyph glyph-name="Oacute" unicode="&#xd3;" horiz-adv-x="526" 
d="M236 766l37 152h75l-59 -152h-53zM295 -5v80q18 0 39 8.5t39.5 24.5t30.5 39.5t12 53.5v299q0 21 -8.5 42.5t-24 40.5t-37.5 30.5t-51 11.5v80q47 0 84 -18t63 -47t40 -61.5t14 -62.5v-317q0 -50 -19 -88t-49 -64t-65 -39t-68 -13zM240 -5q-30 0 -64.5 13t-65.5 39
t-50.5 64t-19.5 88v317q0 30 14 63t40 61.5t63.5 46.5t83.5 18v-80q-28 0 -50.5 -11.5t-38 -31t-24 -41t-8.5 -41.5v-299q0 -30 12.5 -53t31 -39.5t39 -25t37.5 -8.5v-80z" />
    <glyph glyph-name="Ocircumflex" unicode="&#xd4;" horiz-adv-x="526" 
d="M164 766l75 152h46l76 -152h-54l-45 91l-44 -91h-54zM295 -5v80q18 0 39 8.5t39.5 24.5t30.5 39.5t12 53.5v299q0 21 -8.5 42.5t-24 40.5t-37.5 30.5t-51 11.5v80q47 0 84 -18t63 -47t40 -61.5t14 -62.5v-317q0 -50 -19 -88t-49 -64t-65 -39t-68 -13zM240 -5
q-30 0 -64.5 13t-65.5 39t-50.5 64t-19.5 88v317q0 30 14 63t40 61.5t63.5 46.5t83.5 18v-80q-28 0 -50.5 -11.5t-38 -31t-24 -41t-8.5 -41.5v-299q0 -30 12.5 -53t31 -39.5t39 -25t37.5 -8.5v-80z" />
    <glyph glyph-name="Otilde" unicode="&#xd5;" horiz-adv-x="526" 
d="M318 767q-26 0 -47 10t-40.5 20t-43.5 10q-13 0 -29.5 -5t-36.5 -17v64q21 12 38.5 17t31.5 5q26 0 46 -10t40 -20.5t45 -10.5q17 0 36 6.5t44 21.5v-63q-25 -16 -46 -22t-38 -6zM295 -5v80q18 0 39 8.5t39.5 24.5t30.5 39.5t12 53.5v299q0 21 -8.5 42.5t-24 40.5
t-37.5 30.5t-51 11.5v80q47 0 84 -18t63 -47t40 -61.5t14 -62.5v-317q0 -50 -19 -88t-49 -64t-65 -39t-68 -13zM240 -5q-30 0 -64.5 13t-65.5 39t-50.5 64t-19.5 88v317q0 30 14 63t40 61.5t63.5 46.5t83.5 18v-80q-28 0 -50.5 -11.5t-38 -31t-24 -41t-8.5 -41.5v-299
q0 -30 12.5 -53t31 -39.5t39 -25t37.5 -8.5v-80z" />
    <glyph glyph-name="Odieresis" unicode="&#xd6;" horiz-adv-x="526" 
d="M326 766q-19 0 -32.5 14t-13.5 33t13.5 32.5t32.5 13.5q20 0 33.5 -13.5t13.5 -32.5t-13.5 -33t-33.5 -14zM198 766q-19 0 -33 14t-14 33t14 32.5t33 13.5t32.5 -13.5t13.5 -32.5t-13.5 -33t-32.5 -14zM295 -5v80q18 0 39 8.5t39.5 24.5t30.5 39.5t12 53.5v299
q0 21 -8.5 42.5t-24 40.5t-37.5 30.5t-51 11.5v80q47 0 84 -18t63 -47t40 -61.5t14 -62.5v-317q0 -50 -19 -88t-49 -64t-65 -39t-68 -13zM240 -5q-30 0 -64.5 13t-65.5 39t-50.5 64t-19.5 88v317q0 30 14 63t40 61.5t63.5 46.5t83.5 18v-80q-28 0 -50.5 -11.5t-38 -31
t-24 -41t-8.5 -41.5v-299q0 -30 12.5 -53t31 -39.5t39 -25t37.5 -8.5v-80z" />
    <glyph glyph-name="multiply" unicode="&#xd7;" horiz-adv-x="575" 
d="M388 185l-150 151l-49 -50l-82 83l149 148l-49 49l81 81l149 -148l50 50l81 -82l-149 -149l50 -51z" />
    <glyph glyph-name="Oslash" unicode="&#xd8;" horiz-adv-x="669" 
d="M304 -5q-23 0 -59 12.5t-69 40t-52 70.5l-62 -56l-48 50l94 85v327q0 23 12 53.5t37 59.5t62 48.5t86 19.5v-80q-29 0 -51 -12.5t-36.5 -31.5t-22 -39t-7.5 -36v-236l285 255q-4 22 -18 45t-37.5 39t-58.5 16v80q47 0 82.5 -18t60 -45.5t37.5 -56.5l61 54l46 -51l-90 -82
v-311q0 -54 -22 -92t-54 -62t-65 -35t-56 -11v80q13 0 33 7.5t38.5 22.5t32 37.5t13.5 52.5v239l-286 -257q6 -34 27.5 -57t46 -34t40.5 -11v-80z" />
    <glyph glyph-name="Ugrave" unicode="&#xd9;" horiz-adv-x="521" 
d="M225 766l-58 152h75l37 -152h-54zM236 -5q-22 0 -55.5 11t-66.5 34t-55 61t-22 92v507h81v-507q0 -31 14 -54t35 -37t40 -20.5t29 -6.5v-80zM285 -5v80q11 0 30 6t39.5 20t35 36.5t14.5 55.5v507h80v-507q0 -54 -22 -92t-54.5 -61.5t-66 -34t-56.5 -10.5z" />
    <glyph glyph-name="Uacute" unicode="&#xda;" horiz-adv-x="521" 
d="M229 766l37 152h75l-59 -152h-53zM236 -5q-22 0 -55.5 11t-66.5 34t-55 61t-22 92v507h81v-507q0 -31 14 -54t35 -37t40 -20.5t29 -6.5v-80zM285 -5v80q11 0 30 6t39.5 20t35 36.5t14.5 55.5v507h80v-507q0 -54 -22 -92t-54.5 -61.5t-66 -34t-56.5 -10.5z" />
    <glyph glyph-name="Ucircumflex" unicode="&#xdb;" horiz-adv-x="521" 
d="M157 766l75 152h46l76 -152h-54l-45 91l-44 -91h-54zM236 -5q-22 0 -55.5 11t-66.5 34t-55 61t-22 92v507h81v-507q0 -31 14 -54t35 -37t40 -20.5t29 -6.5v-80zM285 -5v80q11 0 30 6t39.5 20t35 36.5t14.5 55.5v507h80v-507q0 -54 -22 -92t-54.5 -61.5t-66 -34
t-56.5 -10.5z" />
    <glyph glyph-name="Udieresis" unicode="&#xdc;" horiz-adv-x="521" 
d="M320 766q-19 0 -32.5 14t-13.5 33t13.5 32.5t32.5 13.5q20 0 33.5 -13.5t13.5 -32.5t-13.5 -33t-33.5 -14zM192 766q-19 0 -33 14t-14 33t14 32.5t33 13.5t32.5 -13.5t13.5 -32.5t-13.5 -33t-32.5 -14zM236 -5q-22 0 -55.5 11t-66.5 34t-55 61t-22 92v507h81v-507
q0 -31 14 -54t35 -37t40 -20.5t29 -6.5v-80zM285 -5v80q11 0 30 6t39.5 20t35 36.5t14.5 55.5v507h80v-507q0 -54 -22 -92t-54.5 -61.5t-66 -34t-56.5 -10.5z" />
    <glyph glyph-name="Yacute" unicode="&#xdd;" horiz-adv-x="473" 
d="M199 766l37 152h75l-59 -152h-53zM186 0v252l-163 448h83l162 -447v-253h-82zM294 319l-38 121l111 260h83l-150 -381h-6z" />
    <glyph glyph-name="Thorn" unicode="&#xde;" horiz-adv-x="474" 
d="M56 0v700h80v-700h-80zM189 208v78h39q22 0 46 3.5t45 15t34.5 34t13.5 59.5q0 38 -13 60.5t-34 34t-45.5 15.5t-48.5 4h-37v78q99 2 155 -17.5t79.5 -62.5t24.5 -110q1 -77 -29 -120t-87.5 -59t-142.5 -13z" />
    <glyph glyph-name="germandbls" unicode="&#xdf;" horiz-adv-x="522" 
d="M26 0v457q0 20 1 51.5t9 65.5t28 63.5t58.5 48.5t101.5 19q53 0 87 -14t53.5 -36.5t28.5 -48.5t11 -49.5t2 -38.5v-112h-56q-17 -1 -27 -8t-14 -16t-4 -15q0 -9 4.5 -19.5t23 -22.5t58.5 -26q25 -8 49 -24.5t40 -45t16 -74.5q0 -47 -23 -82t-61 -54t-85 -19h-128v67h111
q27 0 53.5 7.5t44.5 26.5t18 53q0 29 -9.5 44t-28 25.5t-46.5 24.5q-24 12 -48.5 25.5t-41.5 35.5t-17 59q0 35 15 56t38.5 31.5t48.5 13.5v12q0 30 -2.5 57.5t-13 49t-33 34.5t-62.5 13q-41 0 -66 -13.5t-37.5 -34.5t-16.5 -44.5t-4 -44.5v-498h-76z" />
    <glyph glyph-name="agrave" unicode="&#xe0;" horiz-adv-x="467" 
d="M182 601l-58 152h75l37 -152h-54zM195 1q-50 0 -86 18.5t-55.5 47.5t-19.5 58v48q0 15 3 31.5t14 33.5t34 29q16 8 45.5 16.5t63.5 17t65 18.5t51.5 20.5t20.5 22.5v19q0 28 -13.5 47.5t-33 30t-41.5 10.5v70q56 0 92 -24.5t53.5 -61t17.5 -70.5v-276q0 -6 4.5 -19.5
t22.5 -13.5v-73q-30 0 -48 10t-31 25q-19 -18 -49 -26.5t-61 -8.5v72q23 0 42.5 7.5t32 25.5t12.5 49v118q-21 -11 -52.5 -20t-65.5 -16.5t-61 -15t-37 -17.5q-12 -9 -12 -32v-29q1 -25 13 -40.5t32.5 -22.5t46.5 -7v-72zM110 378l-69 26q0 39 23 69.5t58.5 48t73.5 17.5
v-72q-23 0 -42.5 -10.5t-31.5 -30.5t-12 -48z" />
    <glyph glyph-name="aacute" unicode="&#xe1;" horiz-adv-x="467" 
d="M184 601l37 152h75l-59 -152h-53zM195 1q-50 0 -86 18.5t-55.5 47.5t-19.5 58v48q0 15 3 31.5t14 33.5t34 29q16 8 45.5 16.5t63.5 17t65 18.5t51.5 20.5t20.5 22.5v19q0 28 -13.5 47.5t-33 30t-41.5 10.5v70q56 0 92 -24.5t53.5 -61t17.5 -70.5v-276q0 -6 4.5 -19.5
t22.5 -13.5v-73q-30 0 -48 10t-31 25q-19 -18 -49 -26.5t-61 -8.5v72q23 0 42.5 7.5t32 25.5t12.5 49v118q-21 -11 -52.5 -20t-65.5 -16.5t-61 -15t-37 -17.5q-12 -9 -12 -32v-29q1 -25 13 -40.5t32.5 -22.5t46.5 -7v-72zM110 378l-69 26q0 39 23 69.5t58.5 48t73.5 17.5
v-72q-23 0 -42.5 -10.5t-31.5 -30.5t-12 -48z" />
    <glyph glyph-name="acircumflex" unicode="&#xe2;" horiz-adv-x="467" 
d="M112 601l75 152h46l76 -152h-54l-45 91l-44 -91h-54zM195 1q-50 0 -86 18.5t-55.5 47.5t-19.5 58v48q0 15 3 31.5t14 33.5t34 29q16 8 45.5 16.5t63.5 17t65 18.5t51.5 20.5t20.5 22.5v19q0 28 -13.5 47.5t-33 30t-41.5 10.5v70q56 0 92 -24.5t53.5 -61t17.5 -70.5v-276
q0 -6 4.5 -19.5t22.5 -13.5v-73q-30 0 -48 10t-31 25q-19 -18 -49 -26.5t-61 -8.5v72q23 0 42.5 7.5t32 25.5t12.5 49v118q-21 -11 -52.5 -20t-65.5 -16.5t-61 -15t-37 -17.5q-12 -9 -12 -32v-29q1 -25 13 -40.5t32.5 -22.5t46.5 -7v-72zM110 378l-69 26q0 39 23 69.5
t58.5 48t73.5 17.5v-72q-23 0 -42.5 -10.5t-31.5 -30.5t-12 -48z" />
    <glyph glyph-name="atilde" unicode="&#xe3;" horiz-adv-x="467" 
d="M273 601q-26 0 -47 10t-40.5 20t-43.5 10q-13 0 -29.5 -5t-36.5 -17v64q21 12 38.5 17t31.5 5q26 0 46 -10t40 -20.5t45 -10.5q17 0 36 6.5t44 21.5v-63q-25 -16 -46 -22t-38 -6zM195 1q-50 0 -86 18.5t-55.5 47.5t-19.5 58v48q0 15 3 31.5t14 33.5t34 29q16 8 45.5 16.5
t63.5 17t65 18.5t51.5 20.5t20.5 22.5v19q0 28 -13.5 47.5t-33 30t-41.5 10.5v70q56 0 92 -24.5t53.5 -61t17.5 -70.5v-276q0 -6 4.5 -19.5t22.5 -13.5v-73q-30 0 -48 10t-31 25q-19 -18 -49 -26.5t-61 -8.5v72q23 0 42.5 7.5t32 25.5t12.5 49v118q-21 -11 -52.5 -20
t-65.5 -16.5t-61 -15t-37 -17.5q-12 -9 -12 -32v-29q1 -25 13 -40.5t32.5 -22.5t46.5 -7v-72zM110 378l-69 26q0 39 23 69.5t58.5 48t73.5 17.5v-72q-23 0 -42.5 -10.5t-31.5 -30.5t-12 -48z" />
    <glyph glyph-name="adieresis" unicode="&#xe4;" horiz-adv-x="467" 
d="M275 600q-19 0 -32.5 14t-13.5 33t13.5 32.5t32.5 13.5q20 0 33.5 -13.5t13.5 -32.5t-13.5 -33t-33.5 -14zM147 600q-19 0 -33 14t-14 33t14 32.5t33 13.5t32.5 -13.5t13.5 -32.5t-13.5 -33t-32.5 -14zM195 1q-50 0 -86 18.5t-55.5 47.5t-19.5 58v48q0 15 3 31.5t14 33.5
t34 29q16 8 45.5 16.5t63.5 17t65 18.5t51.5 20.5t20.5 22.5v19q0 28 -13.5 47.5t-33 30t-41.5 10.5v70q56 0 92 -24.5t53.5 -61t17.5 -70.5v-276q0 -6 4.5 -19.5t22.5 -13.5v-73q-30 0 -48 10t-31 25q-19 -18 -49 -26.5t-61 -8.5v72q23 0 42.5 7.5t32 25.5t12.5 49v118
q-21 -11 -52.5 -20t-65.5 -16.5t-61 -15t-37 -17.5q-12 -9 -12 -32v-29q1 -25 13 -40.5t32.5 -22.5t46.5 -7v-72zM110 378l-69 26q0 39 23 69.5t58.5 48t73.5 17.5v-72q-23 0 -42.5 -10.5t-31.5 -30.5t-12 -48z" />
    <glyph glyph-name="aring" unicode="&#xe5;" horiz-adv-x="467" 
d="M218 618q-33 0 -56 23t-23 56t23 56t56 23t56 -23t23 -56t-23 -56t-56 -23zM218 665q14 0 23 9.5t9 22.5q0 14 -9 23t-23 9q-13 0 -22.5 -9t-9.5 -23q0 -13 9.5 -22.5t22.5 -9.5zM195 1q-50 0 -86 18.5t-55.5 47.5t-19.5 58v48q0 15 3 31.5t14 33.5t34 29q16 8 45.5 16.5
t63.5 17t65 18.5t51.5 20.5t20.5 22.5v19q0 28 -13.5 47.5t-33 30t-41.5 10.5v70q56 0 92 -24.5t53.5 -61t17.5 -70.5v-276q0 -6 4.5 -19.5t22.5 -13.5v-73q-30 0 -48 10t-31 25q-19 -18 -49 -26.5t-61 -8.5v72q23 0 42.5 7.5t32 25.5t12.5 49v118q-21 -11 -52.5 -20
t-65.5 -16.5t-61 -15t-37 -17.5q-12 -9 -12 -32v-29q1 -25 13 -40.5t32.5 -22.5t46.5 -7v-72zM110 378l-69 26q0 39 23 69.5t58.5 48t73.5 17.5v-72q-23 0 -42.5 -10.5t-31.5 -30.5t-12 -48z" />
    <glyph glyph-name="ae" unicode="&#xe6;" horiz-adv-x="527" 
d="M498 0q-49 0 -87.5 15.5t-59.5 44.5q-19 -32 -51 -46t-72 -13v68q24 0 43 7.5t30.5 25t11.5 47.5v127q-13 -11 -39 -19t-57.5 -15.5t-60 -17t-47 -24.5t-18.5 -38v-17q0 -29 12.5 -45.5t33.5 -23.5t44 -7v-68q-48 0 -82.5 17t-53.5 44t-19 55v49q0 35 21 58t53.5 38
t69 25.5t69 20t53.5 21t21 29.5v20q0 21 -14.5 38t-39 27.5t-53.5 10.5q-26 0 -51.5 -9t-41.5 -28.5t-16 -51.5l-60 18q0 43 24 73.5t63.5 47t84.5 16.5q44 0 81 -16t61 -48q19 24 50 42t75 18v-69q-27 0 -48 -13t-32.5 -33t-11.5 -40v-60h231v64q0 24 -13.5 42.5t-35 29.5
t-44.5 11v68q38 0 75.5 -19t62.5 -50t25 -69v-147h-301v-83q0 -24 16.5 -43t44 -29.5t59.5 -10.5q42 0 76 20t44 58l62 -23q-16 -58 -64.5 -89t-123.5 -31z" />
    <glyph glyph-name="ccedilla" unicode="&#xe7;" horiz-adv-x="442" 
d="M109 -183v59q37 0 64 21.5t27 62.5h61q0 -32 -14.5 -65t-48 -55.5t-89.5 -22.5zM206 0q-47 0 -79 15.5t-51 39.5t-27.5 48.5t-8.5 43.5v243q0 21 10 46.5t30.5 48.5t52 38t73.5 15v-74q-28 0 -48.5 -13t-31 -30t-10.5 -34v-240q0 -16 11 -33.5t31 -28.5t48 -11v-74z
M250 -1v74q24 0 44.5 10.5t33.5 29t15 43.5v21l73 -27q0 -41 -24 -75.5t-62 -55t-80 -20.5zM332 361l-1 23q-1 28 -13.5 45t-30.5 25.5t-36 8.5v75q42 0 77 -20.5t55.5 -54.5t20.5 -75z" />
    <glyph glyph-name="egrave" unicode="&#xe8;" 
d="M203 598l-58 152h75l37 -152h-54zM209 0q-42 0 -73.5 15.5t-53 39t-32 48.5t-10.5 44v246q0 19 10.5 43.5t32 47.5t53 38.5t72.5 15.5v-74q-27 0 -47.5 -13.5t-32 -32t-11.5 -33.5v-71h234v70q0 25 -14 43t-35.5 28.5t-45.5 10.5v72q40 0 78.5 -19t64.5 -51.5t26 -73.5
v-154h-308v-93q0 -14 11.5 -31.5t32.5 -30.5t48 -13v-72zM256 0v73q30 0 51.5 12.5t34.5 30t17 34.5l67 -25q-8 -32 -31 -61t-58 -46.5t-81 -17.5z" />
    <glyph glyph-name="eacute" unicode="&#xe9;" 
d="M205 598l37 152h75l-59 -152h-53zM209 0q-42 0 -73.5 15.5t-53 39t-32 48.5t-10.5 44v246q0 19 10.5 43.5t32 47.5t53 38.5t72.5 15.5v-74q-27 0 -47.5 -13.5t-32 -32t-11.5 -33.5v-71h234v70q0 25 -14 43t-35.5 28.5t-45.5 10.5v72q40 0 78.5 -19t64.5 -51.5t26 -73.5
v-154h-308v-93q0 -14 11.5 -31.5t32.5 -30.5t48 -13v-72zM256 0v73q30 0 51.5 12.5t34.5 30t17 34.5l67 -25q-8 -32 -31 -61t-58 -46.5t-81 -17.5z" />
    <glyph glyph-name="ecircumflex" unicode="&#xea;" 
d="M132 598l75 152h46l76 -152h-54l-45 91l-44 -91h-54zM209 0q-42 0 -73.5 15.5t-53 39t-32 48.5t-10.5 44v246q0 19 10.5 43.5t32 47.5t53 38.5t72.5 15.5v-74q-27 0 -47.5 -13.5t-32 -32t-11.5 -33.5v-71h234v70q0 25 -14 43t-35.5 28.5t-45.5 10.5v72q40 0 78.5 -19
t64.5 -51.5t26 -73.5v-154h-308v-93q0 -14 11.5 -31.5t32.5 -30.5t48 -13v-72zM256 0v73q30 0 51.5 12.5t34.5 30t17 34.5l67 -25q-8 -32 -31 -61t-58 -46.5t-81 -17.5z" />
    <glyph glyph-name="edieresis" unicode="&#xeb;" 
d="M295 597q-19 0 -32.5 14t-13.5 33t13.5 32.5t32.5 13.5q20 0 33.5 -13.5t13.5 -32.5t-13.5 -33t-33.5 -14zM167 597q-19 0 -33 14t-14 33t14 32.5t33 13.5t32.5 -13.5t13.5 -32.5t-13.5 -33t-32.5 -14zM209 0q-42 0 -73.5 15.5t-53 39t-32 48.5t-10.5 44v246
q0 19 10.5 43.5t32 47.5t53 38.5t72.5 15.5v-74q-27 0 -47.5 -13.5t-32 -32t-11.5 -33.5v-71h234v70q0 25 -14 43t-35.5 28.5t-45.5 10.5v72q40 0 78.5 -19t64.5 -51.5t26 -73.5v-154h-308v-93q0 -14 11.5 -31.5t32.5 -30.5t48 -13v-72zM256 0v73q30 0 51.5 12.5t34.5 30
t17 34.5l67 -25q-8 -32 -31 -61t-58 -46.5t-81 -17.5z" />
    <glyph glyph-name="igrave" unicode="&#xec;" horiz-adv-x="174" 
d="M59 598l-58 152h75l37 -152h-54zM51 0v516h73v-516h-73z" />
    <glyph glyph-name="iacute" unicode="&#xed;" horiz-adv-x="174" 
d="M61 598l37 152h75l-59 -152h-53zM51 0v516h73v-516h-73z" />
    <glyph glyph-name="icircumflex" unicode="&#xee;" horiz-adv-x="174" 
d="M-11 598l75 152h46l76 -152h-54l-45 91l-44 -91h-54zM51 0v516h73v-516h-73z" />
    <glyph glyph-name="idieresis" unicode="&#xef;" horiz-adv-x="174" 
d="M152 597q-19 0 -32.5 14t-13.5 33t13.5 32.5t32.5 13.5q20 0 33.5 -13.5t13.5 -32.5t-13.5 -33t-33.5 -14zM24 597q-19 0 -33 14t-14 33t14 32.5t33 13.5t32.5 -13.5t13.5 -32.5t-13.5 -33t-32.5 -14zM51 0v516h73v-516h-73z" />
    <glyph glyph-name="eth" unicode="&#xf0;" horiz-adv-x="420" 
d="M233 -1v70q30 0 49.5 14t29 33.5t9.5 35.5v217q0 18 -10.5 35.5t-30 29.5t-47.5 12v70q27 0 48 -7.5t36 -21.5q0 28 -5 49.5t-13 38.5l-62 -18l-14 45l53 16q-19 21 -41.5 33t-42.5 19v44q40 -7 77.5 -25.5t65.5 -52.5l55 16l14 -45l-43 -13q15 -30 23 -68t8 -88v-297
q0 -18 -9.5 -42.5t-29.5 -47t-49.5 -37.5t-70.5 -15zM192 -1q-42 0 -73 15t-51 38t-30 47t-10 42v235q0 18 10 42t30.5 46.5t51.5 37t72 14.5v-70q-31 0 -51.5 -14t-30.5 -33t-10 -36v-209q0 -17 11 -37t32 -34t49 -14v-70z" />
    <glyph glyph-name="ntilde" unicode="&#xf1;" 
d="M289 601q-26 0 -47 10t-40.5 20t-43.5 10q-13 0 -29.5 -5t-36.5 -17v64q21 12 38.5 17t31.5 5q26 0 46 -10t40 -20.5t45 -10.5q17 0 36 6.5t44 21.5v-63q-25 -16 -46 -22t-38 -6zM38 378q0 28 11.5 56.5t33.5 52.5t54 38t73 14v-76q-25 0 -46.5 -12.5t-35 -33
t-13.5 -45.5v-372h-77v378zM350 372q0 19 -11 40t-32.5 36t-51.5 15v76q40 0 72 -14.5t54 -38.5t33.5 -52.5t11.5 -55.5v-378h-76v372z" />
    <glyph glyph-name="ograve" unicode="&#xf2;" horiz-adv-x="454" 
d="M202 598l-58 152h75l37 -152h-54zM208 -1q-39 0 -70.5 14t-53.5 37.5t-34 51.5t-12 56v219q0 28 11 56.5t33 52t54 38t72 14.5v-75q-30 0 -50.5 -14.5t-31.5 -36.5t-11 -45v-199q0 -20 12 -42t33 -37t48 -15v-75zM253 -1v75q28 0 48.5 14.5t31.5 36t11 41.5v201
q0 22 -11 44t-31 37t-49 15v75q41 0 71.5 -14.5t52.5 -38t32.5 -52t10.5 -56.5v-219q0 -28 -11.5 -56t-33.5 -51.5t-52.5 -37.5t-69.5 -14z" />
    <glyph glyph-name="oacute" unicode="&#xf3;" horiz-adv-x="454" 
d="M203 598l37 152h75l-59 -152h-53zM208 -1q-39 0 -70.5 14t-53.5 37.5t-34 51.5t-12 56v219q0 28 11 56.5t33 52t54 38t72 14.5v-75q-30 0 -50.5 -14.5t-31.5 -36.5t-11 -45v-199q0 -20 12 -42t33 -37t48 -15v-75zM253 -1v75q28 0 48.5 14.5t31.5 36t11 41.5v201
q0 22 -11 44t-31 37t-49 15v75q41 0 71.5 -14.5t52.5 -38t32.5 -52t10.5 -56.5v-219q0 -28 -11.5 -56t-33.5 -51.5t-52.5 -37.5t-69.5 -14z" />
    <glyph glyph-name="ocircumflex" unicode="&#xf4;" horiz-adv-x="454" 
d="M131 598l75 152h46l76 -152h-54l-45 91l-44 -91h-54zM208 -1q-39 0 -70.5 14t-53.5 37.5t-34 51.5t-12 56v219q0 28 11 56.5t33 52t54 38t72 14.5v-75q-30 0 -50.5 -14.5t-31.5 -36.5t-11 -45v-199q0 -20 12 -42t33 -37t48 -15v-75zM253 -1v75q28 0 48.5 14.5t31.5 36
t11 41.5v201q0 22 -11 44t-31 37t-49 15v75q41 0 71.5 -14.5t52.5 -38t32.5 -52t10.5 -56.5v-219q0 -28 -11.5 -56t-33.5 -51.5t-52.5 -37.5t-69.5 -14z" />
    <glyph glyph-name="otilde" unicode="&#xf5;" horiz-adv-x="454" 
d="M286 598q-26 0 -47 10t-40.5 20t-43.5 10q-13 0 -29.5 -5t-36.5 -17v64q21 12 38.5 17t31.5 5q26 0 46 -10t40 -20.5t45 -10.5q17 0 36 6.5t44 21.5v-63q-25 -16 -46 -22t-38 -6zM208 -1q-39 0 -70.5 14t-53.5 37.5t-34 51.5t-12 56v219q0 28 11 56.5t33 52t54 38
t72 14.5v-75q-30 0 -50.5 -14.5t-31.5 -36.5t-11 -45v-199q0 -20 12 -42t33 -37t48 -15v-75zM253 -1v75q28 0 48.5 14.5t31.5 36t11 41.5v201q0 22 -11 44t-31 37t-49 15v75q41 0 71.5 -14.5t52.5 -38t32.5 -52t10.5 -56.5v-219q0 -28 -11.5 -56t-33.5 -51.5t-52.5 -37.5
t-69.5 -14z" />
    <glyph glyph-name="odieresis" unicode="&#xf6;" horiz-adv-x="454" 
d="M294 597q-19 0 -32.5 14t-13.5 33t13.5 32.5t32.5 13.5q20 0 33.5 -13.5t13.5 -32.5t-13.5 -33t-33.5 -14zM166 597q-19 0 -33 14t-14 33t14 32.5t33 13.5t32.5 -13.5t13.5 -32.5t-13.5 -33t-32.5 -14zM208 -1q-39 0 -70.5 14t-53.5 37.5t-34 51.5t-12 56v219
q0 28 11 56.5t33 52t54 38t72 14.5v-75q-30 0 -50.5 -14.5t-31.5 -36.5t-11 -45v-199q0 -20 12 -42t33 -37t48 -15v-75zM253 -1v75q28 0 48.5 14.5t31.5 36t11 41.5v201q0 22 -11 44t-31 37t-49 15v75q41 0 71.5 -14.5t52.5 -38t32.5 -52t10.5 -56.5v-219q0 -28 -11.5 -56
t-33.5 -51.5t-52.5 -37.5t-69.5 -14z" />
    <glyph glyph-name="divide" unicode="&#xf7;" horiz-adv-x="650" 
d="M87 255v74h450v-74h-450zM321 387q-22 0 -38 16t-16 38t16 37.5t38 15.5t37.5 -15.5t15.5 -37.5t-15.5 -38t-37.5 -16zM321 104q-22 0 -38 15.5t-16 37.5q0 23 16 38.5t38 15.5t37.5 -15.5t15.5 -38.5q0 -22 -15.5 -37.5t-37.5 -15.5z" />
    <glyph glyph-name="oslash" unicode="&#xf8;" horiz-adv-x="509" 
d="M230 -1q-51 0 -85.5 22t-53.5 52l-45 -41l-38 42l60 54q0 6 -1 11t-1 10v227q0 18 10 42t30.5 46.5t51.5 37t72 14.5v-70q-31 0 -51 -14t-30.5 -33t-10.5 -36v-171l216 198q-9 22 -29 39t-54 17v70q52 0 86 -22.5t52 -52.5l44 40l38 -41l-62 -57q1 -4 1 -8.5v-8.5v-225
q0 -18 -9.5 -42.5t-29.5 -47t-49.5 -37.5t-70.5 -15v70q30 0 49.5 14t29.5 33.5t10 35.5v167l-213 -195q9 -22 30.5 -38.5t52.5 -16.5v-70z" />
    <glyph glyph-name="ugrave" unicode="&#xf9;" 
d="M205 598l-58 152h75l37 -152h-54zM254 -5v77q29 0 50 12.5t32.5 31t11.5 36.5v384h79v-393q0 -19 -10.5 -44t-32.5 -49t-54.5 -39.5t-75.5 -15.5zM210 -5q-43 0 -75.5 15t-54 38.5t-32 49t-10.5 45.5v393h78v-384q0 -17 12 -36t33 -31.5t49 -12.5v-77z" />
    <glyph glyph-name="uacute" unicode="&#xfa;" 
d="M232 598l37 152h75l-59 -152h-53zM254 -5v77q29 0 50 12.5t32.5 31t11.5 36.5v384h79v-393q0 -19 -10.5 -44t-32.5 -49t-54.5 -39.5t-75.5 -15.5zM210 -5q-43 0 -75.5 15t-54 38.5t-32 49t-10.5 45.5v393h78v-384q0 -17 12 -36t33 -31.5t49 -12.5v-77z" />
    <glyph glyph-name="ucircumflex" unicode="&#xfb;" 
d="M134 598l75 152h46l76 -152h-54l-45 91l-44 -91h-54zM254 -5v77q29 0 50 12.5t32.5 31t11.5 36.5v384h79v-393q0 -19 -10.5 -44t-32.5 -49t-54.5 -39.5t-75.5 -15.5zM210 -5q-43 0 -75.5 15t-54 38.5t-32 49t-10.5 45.5v393h78v-384q0 -17 12 -36t33 -31.5t49 -12.5v-77z
" />
    <glyph glyph-name="udieresis" unicode="&#xfc;" 
d="M296 597q-19 0 -32.5 14t-13.5 33t13.5 32.5t32.5 13.5q20 0 33.5 -13.5t13.5 -32.5t-13.5 -33t-33.5 -14zM168 597q-19 0 -33 14t-14 33t14 32.5t33 13.5t32.5 -13.5t13.5 -32.5t-13.5 -33t-32.5 -14zM254 -5v77q29 0 50 12.5t32.5 31t11.5 36.5v384h79v-393
q0 -19 -10.5 -44t-32.5 -49t-54.5 -39.5t-75.5 -15.5zM210 -5q-43 0 -75.5 15t-54 38.5t-32 49t-10.5 45.5v393h78v-384q0 -17 12 -36t33 -31.5t49 -12.5v-77z" />
    <glyph glyph-name="yacute" unicode="&#xfd;" horiz-adv-x="406" 
d="M202 601l37 152h75l-59 -152h-53zM60 -189l99 307l-154 419h81l155 -420l-102 -306h-79zM258 186l-34 107l97 244h81l-135 -351h-9z" />
    <glyph glyph-name="thorn" unicode="&#xfe;" horiz-adv-x="422" 
d="M30 -182v882h74v-882h-74zM154 0v70h80q26 0 46 9.5t32 28t12 44.5v216q0 36 -27 57.5t-69 21.5h-81v70h81q54 0 91.5 -23.5t57 -56.5t19.5 -61v-237q0 -26 -17.5 -59t-53.5 -56.5t-93 -23.5h-78z" />
    <glyph glyph-name="ydieresis" unicode="&#xff;" horiz-adv-x="406" 
d="M267 601q-19 0 -32.5 14t-13.5 33t13.5 32.5t32.5 13.5q20 0 33.5 -13.5t13.5 -32.5t-13.5 -33t-33.5 -14zM139 601q-19 0 -33 14t-14 33t14 32.5t33 13.5t32.5 -13.5t13.5 -32.5t-13.5 -33t-32.5 -14zM60 -189l99 307l-154 419h81l155 -420l-102 -306h-79zM258 186
l-34 107l97 244h81l-135 -351h-9z" />
    <glyph glyph-name="Amacron" unicode="&#x100;" horiz-adv-x="469" 
d="M90 766v50h316v-50h-316zM363 0l-25 115h-154l17 78h117l-112 506h80l157 -699h-80zM31 0l134 592h16l30 -139l-101 -453h-79z" />
    <glyph glyph-name="amacron" unicode="&#x101;" horiz-adv-x="467" 
d="M65 601v50h316v-50h-316zM195 1q-50 0 -86 18.5t-55.5 47.5t-19.5 58v48q0 15 3 31.5t14 33.5t34 29q16 8 45.5 16.5t63.5 17t65 18.5t51.5 20.5t20.5 22.5v19q0 28 -13.5 47.5t-33 30t-41.5 10.5v70q56 0 92 -24.5t53.5 -61t17.5 -70.5v-276q0 -6 4.5 -19.5t22.5 -13.5
v-73q-30 0 -48 10t-31 25q-19 -18 -49 -26.5t-61 -8.5v72q23 0 42.5 7.5t32 25.5t12.5 49v118q-21 -11 -52.5 -20t-65.5 -16.5t-61 -15t-37 -17.5q-12 -9 -12 -32v-29q1 -25 13 -40.5t32.5 -22.5t46.5 -7v-72zM110 378l-69 26q0 39 23 69.5t58.5 48t73.5 17.5v-72
q-23 0 -42.5 -10.5t-31.5 -30.5t-12 -48z" />
    <glyph glyph-name="Abreve" unicode="&#x102;" horiz-adv-x="469" 
d="M248 766q-24 0 -41 12t-26.5 30t-9.5 34h45q0 -13 9.5 -22.5t22.5 -9.5q14 0 23 9.5t9 22.5h45q0 -16 -9.5 -34t-26.5 -30t-41 -12zM363 0l-25 115h-154l17 78h117l-112 506h80l157 -699h-80zM31 0l134 592h16l30 -139l-101 -453h-79z" />
    <glyph glyph-name="abreve" unicode="&#x103;" horiz-adv-x="467" 
d="M211 600q-24 0 -41 12t-26.5 30t-9.5 34h45q0 -13 9.5 -22.5t22.5 -9.5q14 0 23 9.5t9 22.5h45q0 -16 -9.5 -34t-26.5 -30t-41 -12zM195 1q-50 0 -86 18.5t-55.5 47.5t-19.5 58v48q0 15 3 31.5t14 33.5t34 29q16 8 45.5 16.5t63.5 17t65 18.5t51.5 20.5t20.5 22.5v19
q0 28 -13.5 47.5t-33 30t-41.5 10.5v70q56 0 92 -24.5t53.5 -61t17.5 -70.5v-276q0 -6 4.5 -19.5t22.5 -13.5v-73q-30 0 -48 10t-31 25q-19 -18 -49 -26.5t-61 -8.5v72q23 0 42.5 7.5t32 25.5t12.5 49v118q-21 -11 -52.5 -20t-65.5 -16.5t-61 -15t-37 -17.5q-12 -9 -12 -32
v-29q1 -25 13 -40.5t32.5 -22.5t46.5 -7v-72zM110 378l-69 26q0 39 23 69.5t58.5 48t73.5 17.5v-72q-23 0 -42.5 -10.5t-31.5 -30.5t-12 -48z" />
    <glyph glyph-name="Aogonek" unicode="&#x104;" horiz-adv-x="469" 
d="M530 -183q-56 0 -89.5 22.5t-48 55.5t-14.5 65h61q0 -41 27 -62.5t64 -21.5v-59zM363 0l-25 115h-154l17 78h117l-112 506h80l157 -699h-80zM31 0l134 592h16l30 -139l-101 -453h-79z" />
    <glyph glyph-name="aogonek" unicode="&#x105;" horiz-adv-x="467" 
d="M481 -183q-56 0 -89.5 22.5t-48 55.5t-14.5 65h61q0 -41 27 -62.5t64 -21.5v-59zM195 1q-50 0 -86 18.5t-55.5 47.5t-19.5 58v48q0 15 3 31.5t14 33.5t34 29q16 8 45.5 16.5t63.5 17t65 18.5t51.5 20.5t20.5 22.5v19q0 28 -13.5 47.5t-33 30t-41.5 10.5v70q56 0 92 -24.5
t53.5 -61t17.5 -70.5v-276q0 -6 4.5 -19.5t22.5 -13.5v-73q-30 0 -48 10t-31 25q-19 -18 -49 -26.5t-61 -8.5v72q23 0 42.5 7.5t32 25.5t12.5 49v118q-21 -11 -52.5 -20t-65.5 -16.5t-61 -15t-37 -17.5q-12 -9 -12 -32v-29q1 -25 13 -40.5t32.5 -22.5t46.5 -7v-72zM110 378
l-69 26q0 39 23 69.5t58.5 48t73.5 17.5v-72q-23 0 -42.5 -10.5t-31.5 -30.5t-12 -48z" />
    <glyph glyph-name="Cacute" unicode="&#x106;" horiz-adv-x="507" 
d="M252 766l37 152h75l-59 -152h-53zM239 -5q-55 0 -93 20t-61.5 50.5t-34.5 62t-11 53.5v337q0 23 11 54.5t34.5 62t61.5 51t93 20.5v-80q-33 0 -55.5 -12.5t-37 -30t-20.5 -35.5t-6 -30v-337q0 -12 6.5 -30t20.5 -35.5t37 -29.5t55 -12v-79zM287 -5v79q18 2 39.5 9.5
t39.5 24t26 42.5q3 8 4.5 17t1.5 17q1 5 1.5 9.5t0.5 6.5l75 -18q0 -53 -27 -95.5t-70 -67t-91 -24.5zM398 496v8v8q-1 8 -2 15.5t-4 15.5q-10 29 -25.5 45.5t-32 24t-29.5 10t-18 3.5v80q36 0 69.5 -16t60.5 -43t42.5 -61t15.5 -70z" />
    <glyph glyph-name="cacute" unicode="&#x107;" horiz-adv-x="442" 
d="M201 598l37 152h75l-59 -152h-53zM206 0q-47 0 -79 15.5t-51 39.5t-27.5 48.5t-8.5 43.5v243q0 21 10 46.5t30.5 48.5t52 38t73.5 15v-74q-28 0 -48.5 -13t-31 -30t-10.5 -34v-240q0 -16 11 -33.5t31 -28.5t48 -11v-74zM250 -1v74q24 0 44.5 10.5t33.5 29t15 43.5v21
l73 -27q0 -41 -24 -75.5t-62 -55t-80 -20.5zM332 361l-1 23q-1 28 -13.5 45t-30.5 25.5t-36 8.5v75q42 0 77 -20.5t55.5 -54.5t20.5 -75z" />
    <glyph glyph-name="Ccaron" unicode="&#x10c;" horiz-adv-x="507" 
d="M239 766l-76 152h54l45 -91l44 91h54l-76 -152h-45zM239 -5q-55 0 -93 20t-61.5 50.5t-34.5 62t-11 53.5v337q0 23 11 54.5t34.5 62t61.5 51t93 20.5v-80q-33 0 -55.5 -12.5t-37 -30t-20.5 -35.5t-6 -30v-337q0 -12 6.5 -30t20.5 -35.5t37 -29.5t55 -12v-79zM287 -5v79
q18 2 39.5 9.5t39.5 24t26 42.5q3 8 4.5 17t1.5 17q1 5 1.5 9.5t0.5 6.5l75 -18q0 -53 -27 -95.5t-70 -67t-91 -24.5zM398 496v8v8q-1 8 -2 15.5t-4 15.5q-10 29 -25.5 45.5t-32 24t-29.5 10t-18 3.5v80q36 0 69.5 -16t60.5 -43t42.5 -61t15.5 -70z" />
    <glyph glyph-name="ccaron" unicode="&#x10d;" horiz-adv-x="442" 
d="M205 598l-76 152h54l45 -91l44 91h54l-76 -152h-45zM206 0q-47 0 -79 15.5t-51 39.5t-27.5 48.5t-8.5 43.5v243q0 21 10 46.5t30.5 48.5t52 38t73.5 15v-74q-28 0 -48.5 -13t-31 -30t-10.5 -34v-240q0 -16 11 -33.5t31 -28.5t48 -11v-74zM250 -1v74q24 0 44.5 10.5
t33.5 29t15 43.5v21l73 -27q0 -41 -24 -75.5t-62 -55t-80 -20.5zM332 361l-1 23q-1 28 -13.5 45t-30.5 25.5t-36 8.5v75q42 0 77 -20.5t55.5 -54.5t20.5 -75z" />
    <glyph glyph-name="Dcaron" unicode="&#x10e;" horiz-adv-x="472" 
d="M216 766l-76 152h54l45 -91l44 91h54l-76 -152h-45zM170 0v79q33 0 65.5 3t59 14t42 35t15.5 66v306q0 38 -14 61t-39 35.5t-58 17t-71 4.5v79q56 0 104 -10.5t83.5 -33t55.5 -60.5t20 -93v-306q0 -66 -24 -105.5t-63 -59.5t-85 -26t-91 -6zM41 0v700h80v-700h-80z" />
    <glyph glyph-name="dcaron" unicode="&#x10f;" horiz-adv-x="441" 
d="M482 571l37 152h75l-37 -152h-75zM191 0q-41 0 -71 16t-50 39.5t-30 48.5t-10 43v245q0 23 11.5 48t33 47t50 35.5t63.5 13.5h85v-74h-84q-22 0 -41 -11.5t-30.5 -29t-11.5 -33.5v-239q0 -18 12.5 -35t31.5 -28t40 -11h83v-75h-82zM321 0v706h80l-1 -706h-79z" />
    <glyph glyph-name="Dcroat" unicode="&#x110;" horiz-adv-x="503" 
d="M82 0v318h-56v74h56v308h81v-308h56v-74h-56v-318h-81zM211 0v79q34 0 66 3t58.5 14t42.5 35t16 66v306q0 38 -14.5 61t-39 35.5t-58 17t-71.5 4.5v79q57 0 104.5 -10.5t83 -33t55.5 -60.5t20 -93v-306q0 -66 -23.5 -105.5t-62.5 -59.5t-85 -26t-92 -6z" />
    <glyph glyph-name="dcroat" unicode="&#x111;" horiz-adv-x="414" 
d="M310 0v580h-72v61h72v65h74v-65h64v-61h-64v-580h-74zM183 0q-40 0 -69 15t-48 38t-28.5 47t-9.5 41v236q0 22 11 46.5t31.5 45.5t48 34t61.5 13h83v-70h-82q-22 0 -40.5 -11.5t-30 -28t-11.5 -33.5v-230q0 -17 12.5 -34t31 -28t38.5 -11h82v-70h-80z" />
    <glyph glyph-name="Emacron" unicode="&#x112;" horiz-adv-x="444" 
d="M66 766v50h316v-50h-316zM41 0v700h364v-79h-284v-233h190v-79h-190v-230h284v-79h-364z" />
    <glyph glyph-name="emacron" unicode="&#x113;" 
d="M73 598v50h316v-50h-316zM209 0q-42 0 -73.5 15.5t-53 39t-32 48.5t-10.5 44v246q0 19 10.5 43.5t32 47.5t53 38.5t72.5 15.5v-74q-27 0 -47.5 -13.5t-32 -32t-11.5 -33.5v-71h234v70q0 25 -14 43t-35.5 28.5t-45.5 10.5v72q40 0 78.5 -19t64.5 -51.5t26 -73.5v-154h-308
v-93q0 -14 11.5 -31.5t32.5 -30.5t48 -13v-72zM256 0v73q30 0 51.5 12.5t34.5 30t17 34.5l67 -25q-8 -32 -31 -61t-58 -46.5t-81 -17.5z" />
    <glyph glyph-name="Edotaccent" unicode="&#x116;" horiz-adv-x="444" 
d="M224 766q-20 0 -34 14t-14 34q0 21 14 35t34 14q21 0 34.5 -14t13.5 -35q0 -20 -13.5 -34t-34.5 -14zM41 0v700h364v-79h-284v-233h190v-79h-190v-230h284v-79h-364z" />
    <glyph glyph-name="edotaccent" unicode="&#x117;" 
d="M231 598q-20 0 -34 14t-14 34q0 21 14 35t34 14q21 0 34.5 -14t13.5 -35q0 -20 -13.5 -34t-34.5 -14zM209 0q-42 0 -73.5 15.5t-53 39t-32 48.5t-10.5 44v246q0 19 10.5 43.5t32 47.5t53 38.5t72.5 15.5v-74q-27 0 -47.5 -13.5t-32 -32t-11.5 -33.5v-71h234v70
q0 25 -14 43t-35.5 28.5t-45.5 10.5v72q40 0 78.5 -19t64.5 -51.5t26 -73.5v-154h-308v-93q0 -14 11.5 -31.5t32.5 -30.5t48 -13v-72zM256 0v73q30 0 51.5 12.5t34.5 30t17 34.5l67 -25q-8 -32 -31 -61t-58 -46.5t-81 -17.5z" />
    <glyph glyph-name="Eogonek" unicode="&#x118;" horiz-adv-x="444" 
d="M416 -183q-55 0 -88.5 22.5t-48 55.5t-14.5 65h60q0 -41 27 -62.5t64 -21.5v-59zM41 0v700h364v-79h-284v-233h190v-79h-190v-230h284v-79h-364z" />
    <glyph glyph-name="eogonek" unicode="&#x119;" 
d="M356 -183q-55 0 -89 22.5t-48.5 55.5t-14.5 65h61q0 -41 27 -62.5t64 -21.5v-59zM209 0q-42 0 -73.5 15.5t-53 39t-32 48.5t-10.5 44v246q0 19 10.5 43.5t32 47.5t53 38.5t72.5 15.5v-74q-27 0 -47.5 -13.5t-32 -32t-11.5 -33.5v-71h234v70q0 25 -14 43t-35.5 28.5
t-45.5 10.5v72q40 0 78.5 -19t64.5 -51.5t26 -73.5v-154h-308v-93q0 -14 11.5 -31.5t32.5 -30.5t48 -13v-72zM256 0v73q30 0 51.5 12.5t34.5 30t17 34.5l67 -25q-8 -32 -31 -61t-58 -46.5t-81 -17.5z" />
    <glyph glyph-name="Ecaron" unicode="&#x11a;" horiz-adv-x="444" 
d="M201 766l-76 152h54l45 -91l44 91h54l-76 -152h-45zM41 0v700h364v-79h-284v-233h190v-79h-190v-230h284v-79h-364z" />
    <glyph glyph-name="ecaron" unicode="&#x11b;" 
d="M208 598l-76 152h54l45 -91l44 91h54l-76 -152h-45zM209 0q-42 0 -73.5 15.5t-53 39t-32 48.5t-10.5 44v246q0 19 10.5 43.5t32 47.5t53 38.5t72.5 15.5v-74q-27 0 -47.5 -13.5t-32 -32t-11.5 -33.5v-71h234v70q0 25 -14 43t-35.5 28.5t-45.5 10.5v72q40 0 78.5 -19
t64.5 -51.5t26 -73.5v-154h-308v-93q0 -14 11.5 -31.5t32.5 -30.5t48 -13v-72zM256 0v73q30 0 51.5 12.5t34.5 30t17 34.5l67 -25q-8 -32 -31 -61t-58 -46.5t-81 -17.5z" />
    <glyph glyph-name="Gbreve" unicode="&#x11e;" horiz-adv-x="512" 
d="M260 766q-24 0 -41 12t-26.5 30t-9.5 34h45q0 -13 9.5 -22.5t22.5 -9.5q14 0 23 9.5t9 22.5h45q0 -16 -9.5 -34t-26.5 -30t-41 -12zM238 -5q-24 0 -57.5 10.5t-66 34t-54 61t-21.5 91.5v332q1 23 13.5 54t37 60t61 48t87.5 19v-79q-34 0 -61 -17.5t-42 -44t-15 -56.5
v-316q0 -33 14.5 -55.5t34.5 -36.5t39.5 -20t29.5 -6v-79zM286 -5v79q13 0 31 8.5t35.5 24.5t29 37t11.5 46v88h-107v75h188v-177q0 -30 -17 -62t-44.5 -59t-61 -43.5t-65.5 -16.5zM396 487l-1 25q-2 31 -14.5 52.5t-30 35t-35 20t-29.5 6.5v79q48 1 91 -26.5t70 -71
t27 -91.5z" />
    <glyph glyph-name="gbreve" unicode="&#x11f;" horiz-adv-x="442" 
d="M214 601q-24 0 -41 12t-26.5 30t-9.5 34h45q0 -13 9.5 -22.5t22.5 -9.5q14 0 23 9.5t9 22.5h45q0 -16 -9.5 -34t-26.5 -30t-41 -12zM26 -185l19 72h187q32 2 53.5 14.5t32 30t10.5 30.5v75q-6 -4 -18 -12.5t-29 -15t-40 -6.5v70q23 0 42.5 11.5t32 29.5t12.5 35v243
q0 23 -14 40t-34 26.5t-39 9.5v72q19 0 36.5 -5.5t31 -13t19.5 -14.5v33h75v-578q0 -17 -9.5 -41.5t-29.5 -48.5t-49.5 -40.5t-70.5 -16.5h-218zM197 3q-42 0 -72.5 16t-50 39.5t-29 48t-9.5 41.5v249q0 18 10 42t29.5 47.5t49.5 38.5t72 15v-72q-26 0 -46 -13.5
t-30.5 -30.5t-10.5 -30v-245q0 -14 10.5 -31t30 -30t46.5 -13v-72z" />
    <glyph glyph-name="uni0122" unicode="&#x122;" horiz-adv-x="512" 
d="M191 -218l37 152h75l-37 -152h-75zM238 -5q-24 0 -57.5 10.5t-66 34t-54 61t-21.5 91.5v332q1 23 13.5 54t37 60t61 48t87.5 19v-79q-34 0 -61 -17.5t-42 -44t-15 -56.5v-316q0 -33 14.5 -55.5t34.5 -36.5t39.5 -20t29.5 -6v-79zM286 -5v79q13 0 31 8.5t35.5 24.5t29 37
t11.5 46v88h-107v75h188v-177q0 -30 -17 -62t-44.5 -59t-61 -43.5t-65.5 -16.5zM396 487l-1 25q-2 31 -14.5 52.5t-30 35t-35 20t-29.5 6.5v79q48 1 91 -26.5t70 -71t27 -91.5z" />
    <glyph glyph-name="uni0123" unicode="&#x123;" horiz-adv-x="442" 
d="M218 601l37 152h75l-59 -152h-53zM26 -185l19 72h187q32 2 53.5 14.5t32 30t10.5 30.5v75q-6 -4 -18 -12.5t-29 -15t-40 -6.5v70q23 0 42.5 11.5t32 29.5t12.5 35v243q0 23 -14 40t-34 26.5t-39 9.5v72q19 0 36.5 -5.5t31 -13t19.5 -14.5v33h75v-578q0 -17 -9.5 -41.5
t-29.5 -48.5t-49.5 -40.5t-70.5 -16.5h-218zM197 3q-42 0 -72.5 16t-50 39.5t-29 48t-9.5 41.5v249q0 18 10 42t29.5 47.5t49.5 38.5t72 15v-72q-26 0 -46 -13.5t-30.5 -30.5t-10.5 -30v-245q0 -14 10.5 -31t30 -30t46.5 -13v-72z" />
    <glyph glyph-name="Imacron" unicode="&#x12a;" horiz-adv-x="164" 
d="M-76 766v50h316v-50h-316zM42 0v700h80v-700h-80z" />
    <glyph glyph-name="imacron" unicode="&#x12b;" horiz-adv-x="174" 
d="M-70 598v50h316v-50h-316zM51 0v516h73v-516h-73z" />
    <glyph glyph-name="Iogonek" unicode="&#x12e;" horiz-adv-x="164" 
d="M204 -182q-56 0 -89.5 22.5t-48 55.5t-14.5 65h61q0 -41 27 -62.5t64 -21.5v-59zM42 0v700h80v-700h-80z" />
    <glyph glyph-name="iogonek" unicode="&#x12f;" horiz-adv-x="181" 
d="M213 -181q-56 0 -89.5 22.5t-48 55.5t-14.5 65h61q0 -41 27 -62.5t64 -21.5v-59zM53 0v534h77v-534h-77zM91 578q-18 0 -32 13.5t-14 31.5t14 31.5t32 13.5t31.5 -13.5t13.5 -31.5t-13.5 -31.5t-31.5 -13.5z" />
    <glyph glyph-name="Idotaccent" unicode="&#x130;" horiz-adv-x="164" 
d="M82 766q-20 0 -34 14t-14 34q0 21 14 35t34 14q21 0 34.5 -14t13.5 -35q0 -20 -13.5 -34t-34.5 -14zM42 0v700h80v-700h-80z" />
    <glyph glyph-name="dotlessi" unicode="&#x131;" horiz-adv-x="174" 
d="M51 0v516h73v-516h-73z" />
    <glyph glyph-name="uni0136" unicode="&#x136;" horiz-adv-x="490" 
d="M168 -213l37 152h75l-37 -152h-75zM387 0l-223 341l218 359h86l-218 -359l222 -341h-85zM41 0v700h80v-700h-80z" />
    <glyph glyph-name="uni0137" unicode="&#x137;" horiz-adv-x="475" 
d="M160 -213l37 152h75l-37 -152h-75zM361 0l-216 269l215 267h94l-216 -267l217 -269h-94zM41 0v705h79v-705h-79z" />
    <glyph glyph-name="Lacute" unicode="&#x139;" horiz-adv-x="435" 
d="M55 766l37 152h75l-59 -152h-53zM41 0v700h80v-621h296v-79h-376z" />
    <glyph glyph-name="lacute" unicode="&#x13a;" horiz-adv-x="166" 
d="M56 783l37 152h75l-59 -152h-53zM42 0v705h82v-705h-82z" />
    <glyph glyph-name="uni013B" unicode="&#x13b;" horiz-adv-x="435" 
d="M167 -213l37 152h75l-37 -152h-75zM41 0v700h80v-621h296v-79h-376z" />
    <glyph glyph-name="uni013C" unicode="&#x13c;" horiz-adv-x="166" 
d="M10 -217l37 152h75l-37 -152h-75zM48 0v705h82v-705h-82z" />
    <glyph glyph-name="Lcaron" unicode="&#x13d;" horiz-adv-x="435" 
d="M195 553l37 152h75l-37 -152h-75zM41 0v700h80v-621h296v-79h-376z" />
    <glyph glyph-name="lcaron" unicode="&#x13e;" horiz-adv-x="237" 
d="M170 570l37 152h75l-37 -152h-75zM38 0v705h82v-705h-82z" />
    <glyph glyph-name="Lslash" unicode="&#x141;" horiz-adv-x="469" 
d="M129 0v261l-44 -34l-44 56l88 68v349h80v-287l72 57l44 -57l-116 -89v-246h296v-78h-376z" />
    <glyph glyph-name="lslash" unicode="&#x142;" horiz-adv-x="424" 
d="M124 255l-44 56l232 179l44 -56zM178 -4v706h82v-706h-82z" />
    <glyph glyph-name="Nacute" unicode="&#x143;" horiz-adv-x="529" 
d="M238 766l37 152h75l-59 -152h-53zM448 0l-406 649v51h69l376 -601v-99h-39zM42 0v554h8l72 -116v-438h-80zM479 195l-72 118v387h80v-505h-8z" />
    <glyph glyph-name="nacute" unicode="&#x144;" 
d="M206 601l37 152h75l-59 -152h-53zM38 378q0 28 11.5 56.5t33.5 52.5t54 38t73 14v-76q-25 0 -46.5 -12.5t-35 -33t-13.5 -45.5v-372h-77v378zM350 372q0 19 -11 40t-32.5 36t-51.5 15v76q40 0 72 -14.5t54 -38.5t33.5 -52.5t11.5 -55.5v-378h-76v372z" />
    <glyph glyph-name="uni0145" unicode="&#x145;" horiz-adv-x="529" 
d="M202 -213l37 152h75l-37 -152h-75zM448 0l-406 649v51h69l376 -601v-99h-39zM42 0v554h8l72 -116v-438h-80zM479 195l-72 118v387h80v-505h-8z" />
    <glyph glyph-name="uni0146" unicode="&#x146;" 
d="M170 -213l37 152h75l-37 -152h-75zM38 378q0 28 11.5 56.5t33.5 52.5t54 38t73 14v-76q-25 0 -46.5 -12.5t-35 -33t-13.5 -45.5v-372h-77v378zM350 372q0 19 -11 40t-32.5 36t-51.5 15v76q40 0 72 -14.5t54 -38.5t33.5 -52.5t11.5 -55.5v-378h-76v372z" />
    <glyph glyph-name="Ncaron" unicode="&#x147;" horiz-adv-x="529" 
d="M242 766l-76 152h54l45 -91l44 91h54l-76 -152h-45zM448 0l-406 649v51h69l376 -601v-99h-39zM42 0v554h8l72 -116v-438h-80zM479 195l-72 118v387h80v-505h-8z" />
    <glyph glyph-name="ncaron" unicode="&#x148;" 
d="M209 601l-76 152h54l45 -91l44 91h54l-76 -152h-45zM38 378q0 28 11.5 56.5t33.5 52.5t54 38t73 14v-76q-25 0 -46.5 -12.5t-35 -33t-13.5 -45.5v-372h-77v378zM350 372q0 19 -11 40t-32.5 36t-51.5 15v76q40 0 72 -14.5t54 -38.5t33.5 -52.5t11.5 -55.5v-378h-76v372z
" />
    <glyph glyph-name="Omacron" unicode="&#x14c;" horiz-adv-x="526" 
d="M104 766v50h316v-50h-316zM295 -5v80q18 0 39 8.5t39.5 24.5t30.5 39.5t12 53.5v299q0 21 -8.5 42.5t-24 40.5t-37.5 30.5t-51 11.5v80q47 0 84 -18t63 -47t40 -61.5t14 -62.5v-317q0 -50 -19 -88t-49 -64t-65 -39t-68 -13zM240 -5q-30 0 -64.5 13t-65.5 39t-50.5 64
t-19.5 88v317q0 30 14 63t40 61.5t63.5 46.5t83.5 18v-80q-28 0 -50.5 -11.5t-38 -31t-24 -41t-8.5 -41.5v-299q0 -30 12.5 -53t31 -39.5t39 -25t37.5 -8.5v-80z" />
    <glyph glyph-name="omacron" unicode="&#x14d;" horiz-adv-x="454" 
d="M72 598v50h316v-50h-316zM208 -1q-39 0 -70.5 14t-53.5 37.5t-34 51.5t-12 56v219q0 28 11 56.5t33 52t54 38t72 14.5v-75q-30 0 -50.5 -14.5t-31.5 -36.5t-11 -45v-199q0 -20 12 -42t33 -37t48 -15v-75zM253 -1v75q28 0 48.5 14.5t31.5 36t11 41.5v201q0 22 -11 44
t-31 37t-49 15v75q41 0 71.5 -14.5t52.5 -38t32.5 -52t10.5 -56.5v-219q0 -28 -11.5 -56t-33.5 -51.5t-52.5 -37.5t-69.5 -14z" />
    <glyph glyph-name="Ohungarumlaut" unicode="&#x150;" horiz-adv-x="526" 
d="M298 766l37 152h75l-59 -152h-53zM182 766l37 152h75l-59 -152h-53zM295 -5v80q18 0 39 8.5t39.5 24.5t30.5 39.5t12 53.5v299q0 21 -8.5 42.5t-24 40.5t-37.5 30.5t-51 11.5v80q47 0 84 -18t63 -47t40 -61.5t14 -62.5v-317q0 -50 -19 -88t-49 -64t-65 -39t-68 -13z
M240 -5q-30 0 -64.5 13t-65.5 39t-50.5 64t-19.5 88v317q0 30 14 63t40 61.5t63.5 46.5t83.5 18v-80q-28 0 -50.5 -11.5t-38 -31t-24 -41t-8.5 -41.5v-299q0 -30 12.5 -53t31 -39.5t39 -25t37.5 -8.5v-80z" />
    <glyph glyph-name="ohungarumlaut" unicode="&#x151;" horiz-adv-x="454" 
d="M267 598l37 152h75l-59 -152h-53zM150 598l37 152h75l-59 -152h-53zM208 -1q-39 0 -70.5 14t-53.5 37.5t-34 51.5t-12 56v219q0 28 11 56.5t33 52t54 38t72 14.5v-75q-30 0 -50.5 -14.5t-31.5 -36.5t-11 -45v-199q0 -20 12 -42t33 -37t48 -15v-75zM253 -1v75
q28 0 48.5 14.5t31.5 36t11 41.5v201q0 22 -11 44t-31 37t-49 15v75q41 0 71.5 -14.5t52.5 -38t32.5 -52t10.5 -56.5v-219q0 -28 -11.5 -56t-33.5 -51.5t-52.5 -37.5t-69.5 -14z" />
    <glyph glyph-name="OE" unicode="&#x152;" horiz-adv-x="543" 
d="M293 0v80h41v541h-41v79h405v-79h-284v-233h190v-79h-190v-230h284v-79h-405zM244 0q-45 0 -89.5 6.5t-80.5 26.5t-58 59.5t-22 105.5v311q0 55 18.5 92t52 58.5t79.5 31t100 9.5v-79q-37 0 -68.5 -4.5t-54 -17t-34.5 -35.5t-12 -61v-305q0 -41 13.5 -65.5t37.5 -35.5
t54 -14t64 -3v-80z" />
    <glyph glyph-name="oe" unicode="&#x153;" horiz-adv-x="723" 
d="M233 -1v68q30 0 49.5 14t29.5 33.5t10 36.5v212q0 19 -10 37.5t-29.5 32t-49.5 13.5v70q47 0 76.5 -18t48.5 -42q20 24 51 42t75 18v-69q-28 0 -48.5 -13t-32 -33t-11.5 -40v-60h231v64q0 24 -13.5 42.5t-35 29.5t-44.5 11v68q38 0 75 -19t62 -50t25 -69v-147h-300v-83
q0 -24 16.5 -43t43.5 -29.5t59 -10.5q43 0 76.5 20t44.5 58l61 -23q-15 -58 -63.5 -89t-122.5 -31q-50 0 -88.5 17.5t-59.5 43.5q-19 -25 -49 -43.5t-77 -18.5zM192 -1q-42 0 -73 15t-51 38.5t-30 47.5t-10 41v235q0 18 10 41.5t30.5 46.5t51.5 37.5t72 14.5v-70
q-30 0 -50.5 -13t-31 -32.5t-10.5 -37.5v-210q0 -17 11.5 -37t32 -34.5t48.5 -14.5v-68z" />
    <glyph glyph-name="Racute" unicode="&#x154;" horiz-adv-x="507" 
d="M195 766l37 152h75l-59 -152h-53zM405 0l-15 178q-4 42 -14 70.5t-33 43t-65 13.5h-107v74h101q58 0 84 31t26 91q0 62 -30.5 94t-94.5 32h-86v73h102q54 -1 96 -21t66.5 -62t24.5 -112q0 -63 -19 -102.5t-50 -59.5q30 -15 49.5 -47.5t23.5 -78.5l17 -217h-76zM42 0v700
h80v-700h-80z" />
    <glyph glyph-name="racute" unicode="&#x155;" horiz-adv-x="284" 
d="M134 598l37 152h75l-59 -152h-53zM42 0v538h78v-77q9 17 27.5 34.5t44 30.5t55.5 13h11h10l-18 -76q-33 0 -62.5 -23.5t-48.5 -59t-19 -73.5v-307h-78z" />
    <glyph glyph-name="uni0156" unicode="&#x156;" horiz-adv-x="507" 
d="M198 -213l37 152h75l-37 -152h-75zM405 0l-15 178q-4 42 -14 70.5t-33 43t-65 13.5h-107v74h101q58 0 84 31t26 91q0 62 -30.5 94t-94.5 32h-86v73h102q54 -1 96 -21t66.5 -62t24.5 -112q0 -63 -19 -102.5t-50 -59.5q30 -15 49.5 -47.5t23.5 -78.5l17 -217h-76zM42 0v700
h80v-700h-80z" />
    <glyph glyph-name="uni0157" unicode="&#x157;" horiz-adv-x="284" 
d="M5 -213l37 152h75l-37 -152h-75zM42 0v538h78v-77q9 17 27.5 34.5t44 30.5t55.5 13h11h10l-18 -76q-33 0 -62.5 -23.5t-48.5 -59t-19 -73.5v-307h-78z" />
    <glyph glyph-name="Rcaron" unicode="&#x158;" horiz-adv-x="507" 
d="M192 766l-76 152h54l45 -91l44 91h54l-76 -152h-45zM405 0l-15 178q-4 42 -14 70.5t-33 43t-65 13.5h-107v74h101q58 0 84 31t26 91q0 62 -30.5 94t-94.5 32h-86v73h102q54 -1 96 -21t66.5 -62t24.5 -112q0 -63 -19 -102.5t-50 -59.5q30 -15 49.5 -47.5t23.5 -78.5
l17 -217h-76zM42 0v700h80v-700h-80z" />
    <glyph glyph-name="rcaron" unicode="&#x159;" horiz-adv-x="284" 
d="M132 598l-76 152h54l45 -91l44 91h54l-76 -152h-45zM42 0v538h78v-77q9 17 27.5 34.5t44 30.5t55.5 13h11h10l-18 -76q-33 0 -62.5 -23.5t-48.5 -59t-19 -73.5v-307h-78z" />
    <glyph glyph-name="Sacute" unicode="&#x15a;" horiz-adv-x="493" 
d="M204 766l37 152h75l-59 -152h-53zM261 -3v75q16 0 37.5 9.5t41.5 27t33.5 41.5t13.5 54q0 35 -19 58t-48.5 37t-61.5 22t-59.5 13.5t-41.5 10.5q-34 12 -62 32.5t-44.5 53.5t-16.5 80q0 52 20 88t49 58t59 32.5t50 10.5v-76q-10 -1 -27 -7.5t-33.5 -20.5t-28 -35.5
t-11.5 -51.5q0 -29 15.5 -48t40.5 -31t55.5 -21t61 -16t54.5 -16q34 -13 63 -33.5t47 -53.5t18 -84q0 -54 -28 -101.5t-75 -77.5t-103 -30zM212 -3q-42 0 -76 17t-58.5 43t-38 53t-13.5 48l73 26q6 -36 25 -60t43 -36.5t45 -15.5v-75zM364 529q-6 32 -24 52.5t-39.5 31
t-39.5 11.5v76q41 0 73 -16t55 -40.5t35.5 -49t14.5 -41.5z" />
    <glyph glyph-name="sacute" unicode="&#x15b;" horiz-adv-x="431" 
d="M182 599l37 152h75l-59 -152h-53zM232 -5v73q21 0 45 10t41 30t17 50q0 24 -20 39t-51.5 25t-69 18.5t-72.5 18.5q-18 7 -40.5 20t-39.5 37.5t-17 64.5q0 44 16.5 74.5t42 49.5t53 27t50.5 8v-72q-23 0 -43.5 -11.5t-33 -30t-12.5 -41.5q0 -25 22.5 -40t67.5 -27t111 -28
q15 -3 34 -11.5t37 -23.5t29.5 -38t11.5 -55q0 -52 -24 -89.5t-65 -57.5t-90 -20zM189 -5q-54 0 -92 22.5t-57.5 56.5t-19.5 68l73 13q0 -25 15.5 -44.5t37.5 -30.5t43 -12v-73zM329 380q0 32 -18.5 51t-42 27.5t-38.5 8.5l1 73q51 0 89 -22.5t59.5 -56.5t21.5 -69z" />
    <glyph glyph-name="uni015E" unicode="&#x15e;" horiz-adv-x="493" 
d="M111 -183v59q37 0 64 21.5t27 62.5h61q0 -32 -14.5 -65t-48 -55.5t-89.5 -22.5zM261 -3v75q16 0 37.5 9.5t41.5 27t33.5 41.5t13.5 54q0 35 -19 58t-48.5 37t-61.5 22t-59.5 13.5t-41.5 10.5q-34 12 -62 32.5t-44.5 53.5t-16.5 80q0 52 20 88t49 58t59 32.5t50 10.5v-76
q-10 -1 -27 -7.5t-33.5 -20.5t-28 -35.5t-11.5 -51.5q0 -29 15.5 -48t40.5 -31t55.5 -21t61 -16t54.5 -16q34 -13 63 -33.5t47 -53.5t18 -84q0 -54 -28 -101.5t-75 -77.5t-103 -30zM212 -3q-42 0 -76 17t-58.5 43t-38 53t-13.5 48l73 26q6 -36 25 -60t43 -36.5t45 -15.5v-75
zM364 529q-6 32 -24 52.5t-39.5 31t-39.5 11.5v76q41 0 73 -16t55 -40.5t35.5 -49t14.5 -41.5z" />
    <glyph glyph-name="uni015F" unicode="&#x15f;" horiz-adv-x="431" 
d="M148 -183v59q37 0 64 21.5t27 62.5h61q0 -32 -14.5 -65t-48 -55.5t-89.5 -22.5zM232 -5v73q21 0 45 10t41 30t17 50q0 24 -20 39t-51.5 25t-69 18.5t-72.5 18.5q-18 7 -40.5 20t-39.5 37.5t-17 64.5q0 44 16.5 74.5t42 49.5t53 27t50.5 8v-72q-23 0 -43.5 -11.5t-33 -30
t-12.5 -41.5q0 -25 22.5 -40t67.5 -27t111 -28q15 -3 34 -11.5t37 -23.5t29.5 -38t11.5 -55q0 -52 -24 -89.5t-65 -57.5t-90 -20zM189 -5q-54 0 -92 22.5t-57.5 56.5t-19.5 68l73 13q0 -25 15.5 -44.5t37.5 -30.5t43 -12v-73zM329 380q0 32 -18.5 51t-42 27.5t-38.5 8.5
l1 73q51 0 89 -22.5t59.5 -56.5t21.5 -69z" />
    <glyph glyph-name="Scaron" unicode="&#x160;" horiz-adv-x="493" 
d="M199 766l-76 152h54l45 -91l44 91h54l-76 -152h-45zM254 -3v75q16 0 37.5 9.5t41.5 27t33.5 41.5t13.5 54q0 35 -19 58t-48.5 37t-61.5 22t-59.5 13.5t-41.5 10.5q-34 12 -62 32.5t-44.5 53.5t-16.5 80q0 52 20 88t49 58t59 32.5t50 10.5v-76q-10 -1 -27 -7.5
t-33.5 -20.5t-28 -35.5t-11.5 -51.5q0 -29 15.5 -48t40.5 -31t55.5 -21t61 -16t54.5 -16q34 -13 63 -33.5t47 -53.5t18 -84q0 -54 -28 -101.5t-75 -77.5t-103 -30zM205 -3q-42 0 -76 17t-58.5 43t-38 53t-13.5 48l73 26q6 -36 25 -60t43 -36.5t45 -15.5v-75zM357 529
q-6 32 -24 52.5t-39.5 31t-39.5 11.5v76q41 0 73 -16t55 -40.5t35.5 -49t14.5 -41.5z" />
    <glyph glyph-name="scaron" unicode="&#x161;" horiz-adv-x="431" 
d="M188 599l-76 152h54l45 -91l44 91h54l-76 -152h-45zM235 -5v73q21 0 45 10t41 30t17 50q0 24 -20 39t-51.5 25t-69 18.5t-72.5 18.5q-18 7 -40.5 20t-39.5 37.5t-17 64.5q0 44 16.5 74.5t42 49.5t53 27t50.5 8v-72q-23 0 -43.5 -11.5t-33 -30t-12.5 -41.5q0 -25 22.5 -40
t67.5 -27t111 -28q15 -3 34 -11.5t37 -23.5t29.5 -38t11.5 -55q0 -52 -24 -89.5t-65 -57.5t-90 -20zM192 -5q-54 0 -92 22.5t-57.5 56.5t-19.5 68l73 13q0 -25 15.5 -44.5t37.5 -30.5t43 -12v-73zM332 380q0 32 -18.5 51t-42 27.5t-38.5 8.5l1 73q51 0 89 -22.5t59.5 -56.5
t21.5 -69z" />
    <glyph glyph-name="uni0162" unicode="&#x162;" horiz-adv-x="469" 
d="M110 -183v59q37 0 64 21.5t27 62.5h61q0 -32 -14.5 -65t-48 -55.5t-89.5 -22.5zM194 0v622h-176v78h433v-78h-177v-622h-80z" />
    <glyph glyph-name="uni0163" unicode="&#x163;" horiz-adv-x="281" 
d="M123 -181v59q37 0 64 21.5t27 62.5h61q0 -32 -14.5 -65t-48 -55.5t-89.5 -22.5zM244 0q-64 1 -98.5 22.5t-48.5 60.5t-14 92v280h-65v75h65v176h78v-176h64v-75h-64v-290q0 -38 17.5 -62.5t68.5 -24.5h12l18 -78h-33z" />
    <glyph glyph-name="Tcaron" unicode="&#x164;" horiz-adv-x="469" 
d="M209 766l-76 152h54l45 -91l44 91h54l-76 -152h-45zM194 0v622h-176v78h433v-78h-177v-622h-80z" />
    <glyph glyph-name="tcaron" unicode="&#x165;" horiz-adv-x="368" 
d="M210 572l37 152h75l-37 -152h-75zM244 0q-64 1 -98.5 22.5t-48.5 60.5t-14 92v280h-65v75h65v176h78v-176h64v-75h-64v-290q0 -38 17.5 -62.5t68.5 -24.5h12l18 -78h-33z" />
    <glyph glyph-name="Umacron" unicode="&#x16a;" horiz-adv-x="521" 
d="M98 766v50h316v-50h-316zM236 -5q-22 0 -55.5 11t-66.5 34t-55 61t-22 92v507h81v-507q0 -31 14 -54t35 -37t40 -20.5t29 -6.5v-80zM285 -5v80q11 0 30 6t39.5 20t35 36.5t14.5 55.5v507h80v-507q0 -54 -22 -92t-54.5 -61.5t-66 -34t-56.5 -10.5z" />
    <glyph glyph-name="umacron" unicode="&#x16b;" 
d="M74 598v50h316v-50h-316zM254 -5v77q29 0 50 12.5t32.5 31t11.5 36.5v384h79v-393q0 -19 -10.5 -44t-32.5 -49t-54.5 -39.5t-75.5 -15.5zM210 -5q-43 0 -75.5 15t-54 38.5t-32 49t-10.5 45.5v393h78v-384q0 -17 12 -36t33 -31.5t49 -12.5v-77z" />
    <glyph glyph-name="Uring" unicode="&#x16e;" horiz-adv-x="521" 
d="M256 783q-33 0 -56 23t-23 56t23 56t56 23t56 -23t23 -56t-23 -56t-56 -23zM256 830q14 0 23 9.5t9 22.5q0 14 -9 23t-23 9q-13 0 -22.5 -9t-9.5 -23q0 -13 9.5 -22.5t22.5 -9.5zM236 -5q-22 0 -55.5 11t-66.5 34t-55 61t-22 92v507h81v-507q0 -31 14 -54t35 -37
t40 -20.5t29 -6.5v-80zM285 -5v80q11 0 30 6t39.5 20t35 36.5t14.5 55.5v507h80v-507q0 -54 -22 -92t-54.5 -61.5t-66 -34t-56.5 -10.5z" />
    <glyph glyph-name="uring" unicode="&#x16f;" 
d="M232 615q-33 0 -56 23t-23 56t23 56t56 23t56 -23t23 -56t-23 -56t-56 -23zM232 662q14 0 23 9.5t9 22.5q0 14 -9 23t-23 9q-13 0 -22.5 -9t-9.5 -23q0 -13 9.5 -22.5t22.5 -9.5zM254 -5v77q29 0 50 12.5t32.5 31t11.5 36.5v384h79v-393q0 -19 -10.5 -44t-32.5 -49
t-54.5 -39.5t-75.5 -15.5zM210 -5q-43 0 -75.5 15t-54 38.5t-32 49t-10.5 45.5v393h78v-384q0 -17 12 -36t33 -31.5t49 -12.5v-77z" />
    <glyph glyph-name="Uhungarumlaut" unicode="&#x170;" horiz-adv-x="521" 
d="M310 766l37 152h75l-59 -152h-53zM193 766l37 152h75l-59 -152h-53zM236 -5q-22 0 -55.5 11t-66.5 34t-55 61t-22 92v507h81v-507q0 -31 14 -54t35 -37t40 -20.5t29 -6.5v-80zM285 -5v80q11 0 30 6t39.5 20t35 36.5t14.5 55.5v507h80v-507q0 -54 -22 -92t-54.5 -61.5
t-66 -34t-56.5 -10.5z" />
    <glyph glyph-name="uhungarumlaut" unicode="&#x171;" 
d="M263 598l37 152h75l-59 -152h-53zM146 598l37 152h75l-59 -152h-53zM254 -5v77q29 0 50 12.5t32.5 31t11.5 36.5v384h79v-393q0 -19 -10.5 -44t-32.5 -49t-54.5 -39.5t-75.5 -15.5zM210 -5q-43 0 -75.5 15t-54 38.5t-32 49t-10.5 45.5v393h78v-384q0 -17 12 -36t33 -31.5
t49 -12.5v-77z" />
    <glyph glyph-name="Uogonek" unicode="&#x172;" horiz-adv-x="521" 
d="M377 -183q-56 0 -89.5 22.5t-48 55.5t-14.5 65h61q0 -41 27 -62.5t64 -21.5v-59zM236 -5q-22 0 -55.5 11t-66.5 34t-55 61t-22 92v507h81v-507q0 -31 14 -54t35 -37t40 -20.5t29 -6.5v-80zM285 -5v80q11 0 30 6t39.5 20t35 36.5t14.5 55.5v507h80v-507q0 -54 -22 -92
t-54.5 -61.5t-66 -34t-56.5 -10.5z" />
    <glyph glyph-name="uogonek" unicode="&#x173;" 
d="M356 -184q-56 0 -89.5 22.5t-48 55.5t-14.5 65h61q0 -41 27 -62.5t64 -21.5v-59zM254 -5v77q29 0 50 12.5t32.5 31t11.5 36.5v384h79v-393q0 -19 -10.5 -44t-32.5 -49t-54.5 -39.5t-75.5 -15.5zM210 -5q-43 0 -75.5 15t-54 38.5t-32 49t-10.5 45.5v393h78v-384
q0 -17 12 -36t33 -31.5t49 -12.5v-77z" />
    <glyph glyph-name="Ydieresis" unicode="&#x178;" horiz-adv-x="473" 
d="M290 766q-19 0 -32.5 14t-13.5 33t13.5 32.5t32.5 13.5q20 0 33.5 -13.5t13.5 -32.5t-13.5 -33t-33.5 -14zM162 766q-19 0 -33 14t-14 33t14 32.5t33 13.5t32.5 -13.5t13.5 -32.5t-13.5 -33t-32.5 -14zM186 0v252l-163 448h83l162 -447v-253h-82zM294 319l-38 121
l111 260h83l-150 -381h-6z" />
    <glyph glyph-name="Zacute" unicode="&#x179;" horiz-adv-x="439" 
d="M187 766l37 152h75l-59 -152h-53zM36 0v77l278 544h-278v79h366v-76l-278 -544h279l-1 -80h-366z" />
    <glyph glyph-name="zacute" unicode="&#x17a;" horiz-adv-x="368" 
d="M158 598l37 152h75l-59 -152h-53zM30 0l1 75l221 387h-222v74h308v-71l-220 -390h220v-75h-308z" />
    <glyph glyph-name="Zdotaccent" unicode="&#x17b;" horiz-adv-x="439" 
d="M213 766q-20 0 -34 14t-14 34q0 21 14 35t34 14q21 0 34.5 -14t13.5 -35q0 -20 -13.5 -34t-34.5 -14zM36 0v77l278 544h-278v79h366v-76l-278 -544h279l-1 -80h-366z" />
    <glyph glyph-name="zdotaccent" unicode="&#x17c;" horiz-adv-x="368" 
d="M184 598q-20 0 -34 14t-14 34q0 21 14 35t34 14q21 0 34.5 -14t13.5 -35q0 -20 -13.5 -34t-34.5 -14zM30 0l1 75l221 387h-222v74h308v-71l-220 -390h220v-75h-308z" />
    <glyph glyph-name="Zcaron" unicode="&#x17d;" horiz-adv-x="439" 
d="M190 766l-76 152h54l45 -91l44 91h54l-76 -152h-45zM36 0v77l278 544h-278v79h366v-76l-278 -544h279l-1 -80h-366z" />
    <glyph glyph-name="zcaron" unicode="&#x17e;" horiz-adv-x="368" 
d="M162 598l-76 152h54l45 -91l44 91h54l-76 -152h-45zM30 0l1 75l221 387h-222v74h308v-71l-220 -390h220v-75h-308z" />
    <glyph glyph-name="florin" unicode="&#x192;" horiz-adv-x="382" 
d="M26 -168l17 65h39q24 0 36.5 10t17.5 25t5 28v463h-63v69h63v50q0 23 9.5 49.5t29 50t48 39t67.5 15.5h61l-16 -70h-30q-53 0 -74.5 -26t-21.5 -63v-46l66 1v-69h-66v-453q0 -31 -10.5 -63t-40 -53.5t-85.5 -21.5h-52z" />
    <glyph glyph-name="uni0218" unicode="&#x218;" horiz-adv-x="493" 
d="M170 -216l37 152h75l-37 -152h-75zM261 -3v75q16 0 37.5 9.5t41.5 27t33.5 41.5t13.5 54q0 35 -19 58t-48.5 37t-61.5 22t-59.5 13.5t-41.5 10.5q-34 12 -62 32.5t-44.5 53.5t-16.5 80q0 52 20 88t49 58t59 32.5t50 10.5v-76q-10 -1 -27 -7.5t-33.5 -20.5t-28 -35.5
t-11.5 -51.5q0 -29 15.5 -48t40.5 -31t55.5 -21t61 -16t54.5 -16q34 -13 63 -33.5t47 -53.5t18 -84q0 -54 -28 -101.5t-75 -77.5t-103 -30zM212 -3q-42 0 -76 17t-58.5 43t-38 53t-13.5 48l73 26q6 -36 25 -60t43 -36.5t45 -15.5v-75zM364 529q-6 32 -24 52.5t-39.5 31
t-39.5 11.5v76q41 0 73 -16t55 -40.5t35.5 -49t14.5 -41.5z" />
    <glyph glyph-name="uni0219" unicode="&#x219;" horiz-adv-x="431" 
d="M139 -218l37 152h75l-37 -152h-75zM232 -5v73q21 0 45 10t41 30t17 50q0 24 -20 39t-51.5 25t-69 18.5t-72.5 18.5q-18 7 -40.5 20t-39.5 37.5t-17 64.5q0 44 16.5 74.5t42 49.5t53 27t50.5 8v-72q-23 0 -43.5 -11.5t-33 -30t-12.5 -41.5q0 -25 22.5 -40t67.5 -27
t111 -28q15 -3 34 -11.5t37 -23.5t29.5 -38t11.5 -55q0 -52 -24 -89.5t-65 -57.5t-90 -20zM189 -5q-54 0 -92 22.5t-57.5 56.5t-19.5 68l73 13q0 -25 15.5 -44.5t37.5 -30.5t43 -12v-73zM329 380q0 32 -18.5 51t-42 27.5t-38.5 8.5l1 73q51 0 89 -22.5t59.5 -56.5t21.5 -69z
" />
    <glyph glyph-name="uni021A" unicode="&#x21a;" horiz-adv-x="469" 
d="M160 -213l37 152h75l-37 -152h-75zM194 0v622h-176v78h433v-78h-177v-622h-80z" />
    <glyph glyph-name="uni021B" unicode="&#x21b;" horiz-adv-x="281" 
d="M152 -213l37 152h75l-37 -152h-75zM244 0q-64 1 -98.5 22.5t-48.5 60.5t-14 92v280h-65v75h65v176h78v-176h64v-75h-64v-290q0 -38 17.5 -62.5t68.5 -24.5h12l18 -78h-33z" />
    <glyph glyph-name="circumflex" unicode="&#x2c6;" horiz-adv-x="270" 
d="M36 514l75 152h46l76 -152h-54l-45 91l-44 -91h-54z" />
    <glyph glyph-name="caron" unicode="&#x2c7;" horiz-adv-x="270" 
d="M112 514l-76 152h54l45 -91l44 91h54l-76 -152h-45z" />
    <glyph glyph-name="uni02C9" unicode="&#x2c9;" horiz-adv-x="416" 
d="M50 530v50h316v-50h-316z" />
    <glyph glyph-name="breve" unicode="&#x2d8;" horiz-adv-x="244" 
d="M122 450q-24 0 -41 12t-26.5 30t-9.5 34h45q0 -13 9.5 -22.5t22.5 -9.5q14 0 23 9.5t9 22.5h45q0 -16 -9.5 -34t-26.5 -30t-41 -12z" />
    <glyph glyph-name="dotaccent" unicode="&#x2d9;" horiz-adv-x="202" 
d="M101 630q-20 0 -34 14t-14 34q0 21 14 35t34 14q21 0 34.5 -14t13.5 -35q0 -20 -13.5 -34t-34.5 -14z" />
    <glyph glyph-name="ring" unicode="&#x2da;" horiz-adv-x="244" 
d="M122 447q-33 0 -56 23t-23 56t23 56t56 23t56 -23t23 -56t-23 -56t-56 -23zM122 494q14 0 23 9.5t9 22.5q0 14 -9 23t-23 9q-13 0 -22.5 -9t-9.5 -23q0 -13 9.5 -22.5t22.5 -9.5z" />
    <glyph glyph-name="ogonek" unicode="&#x2db;" horiz-adv-x="219" 
d="M106 -183q-56 0 -89.5 22.5t-48 55.5t-14.5 65h61q0 -41 27 -62.5t64 -21.5v-59z" />
    <glyph glyph-name="tilde" unicode="&#x2dc;" horiz-adv-x="333" 
d="M223 105q-26 0 -47 10t-40.5 20t-43.5 10q-13 0 -29.5 -5t-36.5 -17v64q21 12 38.5 17t31.5 5q26 0 46 -10t40 -20.5t45 -10.5q17 0 36 6.5t44 21.5v-63q-25 -16 -46 -22t-38 -6z" />
    <glyph glyph-name="hungarumlaut" unicode="&#x2dd;" horiz-adv-x="300" 
d="M193 605l37 152h75l-59 -152h-53zM76 605l37 152h75l-59 -152h-53z" />
    <glyph glyph-name="pi" unicode="&#x3c0;" horiz-adv-x="466" 
d="M76 -2v444h-81v75h477v-75h-79v-300q0 -34 9 -51t24 -22t32 -5v-68q-49 0 -79 19t-43.5 50.5t-13.5 67.5v309h-174v-444h-72z" />
    <glyph glyph-name="sinAnusvara" unicode="&#xd82;" horiz-adv-x="341" 
d="M148 94q-37 0 -64 17t-42 43.5t-15 55.5v150q0 29 14.5 56t41.5 44t65 17v-62q-18 0 -31 -9t-19.5 -23.5t-6.5 -29.5v-136q0 -14 7 -28t20.5 -23t29.5 -9v-63zM180 94v63q17 0 30 8.5t19.5 22.5t6.5 27v138q0 15 -6.5 29t-19 23.5t-30.5 9.5v62q38 0 65 -17t41 -44
t14 -56v-150q0 -29 -15 -55.5t-42 -43.5t-63 -17z" />
    <glyph glyph-name="sinVisarga" unicode="&#xd83;" horiz-adv-x="386" 
d="M218 298v67q33 0 50 21.5t17 47.5t-17 48t-50 22v64h14q41 0 68.5 -20t41 -50t13.5 -64t-13.5 -65.5t-41 -51t-68.5 -19.5h-14zM154 -7q-41 0 -68.5 19.5t-41 51t-13.5 65.5t13.5 64t41 50t68.5 20h14v-64q-33 0 -50 -22t-17 -48t17 -47.5t50 -21.5v-67h-14zM218 -7v67
q33 0 50 21.5t17 47.5t-17 48t-50 22v64h14q41 0 68.5 -20t41 -50t13.5 -64t-13.5 -65.5t-41 -51t-68.5 -19.5h-14zM154 298q-41 0 -68.5 19.5t-41 51t-13.5 65.5t13.5 64t41 50t68.5 20h14v-64q-33 0 -50 -22t-17 -48t17 -47.5t50 -21.5v-67h-14z" />
    <glyph glyph-name="sinA" unicode="&#xd85;" horiz-adv-x="542" 
d="M305 0h-55q-59 0 -109 21.5t-80.5 65.5t-30.5 113q0 68 29 112.5t80.5 67t116.5 22.5h104q0 35 -16.5 58t-43 34.5t-57.5 11.5q-36 0 -67 -18.5t-41 -53.5l-71 23q11 40 37.5 67t62.5 41t76 14q49 0 94 -20.5t73.5 -61.5t28.5 -103v-72h-186q-40 0 -71 -13.5t-49 -41
t-18 -67.5q0 -56 36.5 -89t102.5 -33h54v-78zM360 -169v581q0 43 14.5 76t44.5 56.5t76 36.5l17 -80q-31 -8 -47.5 -23.5t-22.5 -34.5t-6 -38v-324h58v-81h-58v-169h-76z" />
    <glyph glyph-name="sinAa" unicode="&#xd86;" horiz-adv-x="809" 
d="M570 0v80h20q20 0 38.5 4.5t34 17t24.5 35.5t9 60v160q0 37 -9 61t-24.5 37t-34 18.5t-38.5 5.5h-20v79h20q67 0 108 -24t60 -68t19 -105v-164q0 -61 -19 -105t-60 -68t-108 -24h-20zM305 0h-55q-59 0 -109 21.5t-80.5 65.5t-30.5 113q0 68 29 112.5t80.5 67t116.5 22.5
h104q0 35 -16.5 58t-43 34.5t-57.5 11.5q-36 0 -67 -18.5t-41 -53.5l-71 23q11 40 37.5 67t62.5 41t76 14q49 0 94 -20.5t73.5 -61.5t28.5 -103v-72h-186q-40 0 -71 -13.5t-49 -41t-18 -67.5q0 -56 36.5 -89t102.5 -33h54v-78zM360 -169v581q0 43 14.5 76t44.5 56.5t76 36.5
l17 -80q-31 -8 -47.5 -23.5t-22.5 -34.5t-6 -38v-324h58v-81h-58v-169h-76z" />
    <glyph glyph-name="sinAe" unicode="&#xd87;" horiz-adv-x="807" 
d="M766 0q-56 0 -100 18.5t-69 58.5t-25 104v92q0 38 5 65t17 50.5t33.5 48.5t56.5 59h-110v78h207v-78q-45 -43 -71 -72.5t-38.5 -51.5t-16 -43t-3.5 -48v-90q0 -18 4.5 -37.5t16 -36t33 -26.5t55.5 -10h20v-81h-15zM305 0h-55q-59 0 -109 21.5t-80.5 65.5t-30.5 113
q0 68 29 112.5t80.5 67t116.5 22.5h104q0 35 -16.5 58t-43 34.5t-57.5 11.5q-36 0 -67 -18.5t-41 -53.5l-71 23q11 40 37.5 67t62.5 41t76 14q49 0 94 -20.5t73.5 -61.5t28.5 -103v-72h-186q-40 0 -71 -13.5t-49 -41t-18 -67.5q0 -56 36.5 -89t102.5 -33h54v-78zM360 -169
v581q0 43 14.5 76t44.5 56.5t76 36.5l17 -80q-31 -8 -47.5 -23.5t-22.5 -34.5t-6 -38v-324h58v-81h-58v-169h-76z" />
    <glyph glyph-name="sinAae" unicode="&#xd88;" horiz-adv-x="819" 
d="M750 0q-50 0 -90.5 14.5t-64 47t-23.5 85.5v44q0 32 9 55.5t32.5 48t66.5 56.5h-108v68l115 87h-115v68h205v-68l-117 -87h117v-68q-45 -32 -70.5 -53.5t-37 -37t-14.5 -29t-3 -29.5v-35q0 -15 3.5 -30t14 -27.5t29.5 -20.5t50 -8h28v-81h-27zM317 0h-55q-59 0 -109 21.5
t-80.5 65.5t-30.5 113q0 68 29 112.5t80.5 67t116.5 22.5h104q0 35 -16.5 58t-43 34.5t-57.5 11.5q-36 0 -67 -18.5t-41 -53.5l-71 23q11 40 37.5 67t62.5 41t76 14q49 0 94 -20.5t73.5 -61.5t28.5 -103v-72h-186q-40 0 -71 -13.5t-49 -41t-18 -67.5q0 -56 36.5 -89
t102.5 -33h54v-78zM372 -169v581q0 43 14.5 76t44.5 56.5t76 36.5l17 -80q-31 -8 -47.5 -23.5t-22.5 -34.5t-6 -38v-324h58v-81h-58v-169h-76z" />
    <glyph glyph-name="sinI" unicode="&#xd89;" horiz-adv-x="561" 
d="M194 0v75h66q35 0 69 9t62 30t44.5 57t16.5 90v103q0 41 -14.5 66t-36.5 38.5t-46.5 18.5t-44.5 5v81h16q52 0 99 -22t76.5 -64.5t29.5 -104.5v-133q0 -59 -17.5 -105t-50 -78t-77.5 -49t-101 -17h-91zM250 -204q-44 0 -81.5 15.5t-64 44t-35.5 66.5l76 20
q6 -25 22.5 -40.5t38 -23.5t42.5 -8q26 0 50 10.5t39.5 29.5t15.5 45h79q0 -50 -25 -85.5t-66 -54.5t-91 -19zM182 175q-48 0 -83.5 17t-55 48t-19.5 74v72q0 60 32 101t81.5 63.5t101.5 22.5h16v-81h-16q-16 0 -38.5 -5.5t-44.5 -18.5t-37 -34.5t-15 -53.5v-54
q0 -24 10.5 -39.5t27.5 -22.5t36 -7q29 0 48.5 15.5t19.5 41.5v51h76v-79q0 -20 -8 -39.5t-24.5 -36t-43.5 -26t-64 -9.5z" />
    <glyph glyph-name="sinIi" unicode="&#xd8a;" horiz-adv-x="559" 
d="M468 592q-30 0 -51.5 21.5t-21.5 50.5q0 30 21.5 51.5t51.5 21.5t51.5 -21.5t21.5 -51.5q0 -29 -21.5 -50.5t-51.5 -21.5zM123 697q-30 0 -51.5 21.5t-21.5 50.5q0 30 21.5 51.5t51.5 21.5t51.5 -21.5t21.5 -51.5q0 -29 -21.5 -50.5t-51.5 -21.5zM238 -6q-38 0 -75 12.5
t-67 40.5t-48 74.5t-18 115.5v171q0 35 5.5 65t23 63t51.5 75l161 202l63 -46l-155 -198q-27 -34 -41.5 -58.5t-21 -49.5t-6.5 -61v-165q0 -84 33.5 -121.5t94.5 -37.5v-82zM326 564q62 0 99.5 -24t54.5 -68t17 -104v-141q0 -92 -27 -142.5t-73 -70t-103 -19.5v82
q68 0 95.5 39t27.5 119v112q0 55 -13.5 85t-38.5 42.5t-62 12.5h-122v4l54 73h91z" />
    <glyph glyph-name="sinU" unicode="&#xd8b;" horiz-adv-x="554" 
d="M268 -169q-39 0 -80.5 16t-77.5 48t-58 79.5t-22 110.5v48q0 43 8.5 89t33 86t71 64.5t123.5 24.5h170q-3 40 -22.5 62.5t-46 32t-51.5 9.5q-24 0 -49 -6.5t-44 -20.5t-26 -36l-69 26q11 36 40 60.5t68 37t80 12.5q49 0 93 -18.5t73 -59t31 -105.5v-74h-245
q-30 0 -58 -7.5t-50.5 -27t-36 -55.5t-13.5 -94v-48q0 -44 14 -75t35 -50.5t43.5 -30t40.5 -14t25 -4.5v-80zM324 -168v80q20 0 45.5 4t50.5 16t44.5 34.5t27.5 59.5l77 -22q-11 -52 -36.5 -85.5t-60 -52.5t-73 -26.5t-75.5 -7.5z" />
    <glyph glyph-name="sinUu" unicode="&#xd8c;" horiz-adv-x="968" 
d="M762 -8q-43 0 -83 18t-65.5 54.5t-25.5 91.5v46h75v-47q0 -28 15 -48t38 -30t49 -10q25 0 47.5 9.5t36.5 29.5t14 49v294q0 21 -12 31.5t-27 10.5t-27.5 -10.5t-12.5 -31.5v-51q0 -46 -29.5 -70.5t-65.5 -24.5q-25 0 -48 11.5t-38 35.5t-15 60v154h61v-139
q0 -20 12.5 -30.5t26.5 -10.5q15 0 27 10.5t12 30.5v39q0 35 15 58t38.5 34.5t49.5 11.5q41 0 74 -29t34 -85v-298q0 -54 -25.5 -90.5t-65.5 -55t-85 -18.5zM268 -169q-39 0 -80.5 16t-77.5 48t-58 79.5t-22 110.5v48q0 43 8.5 89t33 86t71 64.5t123.5 24.5h170
q-3 40 -22.5 62.5t-46 32t-51.5 9.5q-24 0 -49 -6.5t-44 -20.5t-26 -36l-69 26q11 36 40 60.5t68 37t80 12.5q49 0 93 -18.5t73 -59t31 -105.5v-74h-245q-30 0 -58 -7.5t-50.5 -27t-36 -55.5t-13.5 -94v-48q0 -44 14 -75t35 -50.5t43.5 -30t40.5 -14t25 -4.5v-80zM324 -168
v80q20 0 45.5 4t50.5 16t44.5 34.5t27.5 59.5l77 -22q-11 -52 -36.5 -85.5t-60 -52.5t-73 -26.5t-75.5 -7.5z" />
    <glyph glyph-name="sinRVocalic" unicode="&#xd8d;" horiz-adv-x="985" 
d="M193 -3q-46 0 -83 19t-58.5 52.5t-21.5 79.5v48h80v-43q0 -38 25 -57.5t60 -19.5q36 0 61 19.5t25 58.5v42h76v-42q0 -39 25 -58.5t61 -19.5q35 0 60 19.5t25 57.5v43h80v-48q0 -47 -21.5 -81t-58 -52t-82.5 -18q-41 0 -74 14.5t-54 43.5q-20 -29 -52.5 -43.5
t-72.5 -14.5zM30 245v39q0 28 8 50t23.5 37.5t40.5 23t59 7.5h316q34 0 59 -7.5t40.5 -23t23.5 -37.5t8 -50v-39h-80v31q0 23 -8 34.5t-22 15.5t-29 4h-300q-15 0 -28.5 -4t-22 -15.5t-8.5 -34.5v-31h-80zM281 379v29q0 25 -10.5 44.5t-30.5 31t-47 11.5q-36 0 -56.5 -14
t-27.5 -34l-71 23q19 53 62 75.5t93 22.5q20 0 43 -5t45 -16.5t38 -33.5q17 22 38.5 33.5t45 16.5t42.5 5q50 0 93 -22.5t62 -75.5l-71 -23q-7 20 -27.5 34t-56.5 14q-27 0 -46.5 -11.5t-30.5 -31t-11 -44.5v-29h-76zM809 0q-37 0 -71 18t-54.5 51t-20.5 77q0 38 17 70.5
t49.5 52t77.5 19.5h27v-69h-27q-31 0 -52 -21t-21 -52q0 -32 22.5 -53.5t52.5 -21.5t51.5 21.5t21.5 54.5v245q0 30 -7.5 52t-23.5 35t-42 13h-90v76h96q45 0 76 -21.5t47 -59.5t16 -88v-254q0 -43 -20 -76t-53 -51t-72 -18z" />
    <glyph glyph-name="sinLVocalic" unicode="&#xd8f;" horiz-adv-x="922" 
d="M133 -6q-34 0 -58.5 24t-24.5 59q0 34 24.5 58t58.5 24q35 0 59 -24t24 -58q0 -35 -24 -59t-59 -24zM59 40q-15 32 -22 73.5t-7 88.5h76q0 -35 7 -69t16 -57zM30 251v104q0 56 19.5 97.5t54 64.5t78.5 23q31 0 68 -13v-80l-24 8q-18 6 -37 6t-38 -9.5t-32 -34t-13 -70.5
v-96h-76zM815 251v96q0 46 -12.5 70.5t-31.5 34t-39 9.5q-19 0 -36 -6l-24 -8v80q36 13 68 13q45 0 79 -23t53.5 -64.5t19.5 -97.5v-104h-77zM863 40l-70 36q10 23 16 57t6 69h77q0 -47 -7 -88.5t-22 -73.5zM789 -6q-35 0 -59 24t-24 59q0 34 24 58t59 24q34 0 58 -24
t24 -58q0 -35 -24 -59t-58 -24zM432 -8q-133 0 -192 49t-59 156h80q0 -50 20 -78t57.5 -38.5t89.5 -10.5h66q53 0 90 11t57 39t20 77h80q0 -106 -60 -155.5t-190 -49.5h-59zM181 246q0 61 21 95t58 47.5t85 13.5h225q54 0 92 -12.5t58.5 -46.5t20.5 -97h-80q0 25 -6 44.5
t-25 29.5t-58 10h-222q-39 0 -58 -11.5t-25 -31t-6 -41.5h-80zM423 379v29q0 25 -10.5 44.5t-30.5 31t-47 11.5q-36 0 -56.5 -14t-28.5 -34l-70 23q19 53 62 75.5t93 22.5q20 0 42.5 -5t45 -16.5t38.5 -33.5q17 22 38.5 33.5t44.5 16.5t43 5q50 0 93 -22.5t62 -75.5l-71 -23
q-7 20 -28 34t-56 14q-27 0 -47 -11.5t-31 -31t-11 -44.5v-29h-75z" />
    <glyph glyph-name="sinLlVocalic" unicode="&#xd90;" horiz-adv-x="1331" 
d="M1126 -8q-43 0 -83 18t-65.5 54.5t-25.5 91.5v46h75v-47q0 -28 15 -48t38 -30t49 -10q25 0 47.5 9.5t36.5 29.5t14 49v294q0 21 -12 31.5t-27 10.5t-27.5 -10.5t-12.5 -31.5v-51q0 -46 -29.5 -70.5t-65.5 -24.5q-25 0 -48 11.5t-38 35.5t-15 60v154h61v-139
q0 -20 12.5 -30.5t26.5 -10.5q15 0 27 10.5t12 30.5v39q0 35 15 58t38.5 34.5t49.5 11.5q41 0 74 -29t34 -85v-298q0 -54 -25.5 -90.5t-65.5 -55t-85 -18.5zM133 -6q-34 0 -58.5 24t-24.5 59q0 34 24.5 58t58.5 24q35 0 59 -24t24 -58q0 -35 -24 -59t-59 -24zM59 40
q-15 32 -22 73.5t-7 88.5h76q0 -35 7 -69t16 -57zM30 251v104q0 56 19.5 97.5t54 64.5t78.5 23q31 0 68 -13v-80l-24 8q-18 6 -37 6t-38 -9.5t-32 -34t-13 -70.5v-96h-76zM815 251v96q0 46 -12.5 70.5t-31.5 34t-39 9.5q-19 0 -36 -6l-24 -8v80q36 13 68 13q45 0 79 -23
t53.5 -64.5t19.5 -97.5v-104h-77zM863 40l-70 36q10 23 16 57t6 69h77q0 -47 -7 -88.5t-22 -73.5zM789 -6q-35 0 -59 24t-24 59q0 34 24 58t59 24q34 0 58 -24t24 -58q0 -35 -24 -59t-58 -24zM432 -8q-133 0 -192 49t-59 156h80q0 -50 20 -78t57.5 -38.5t89.5 -10.5h66
q53 0 90 11t57 39t20 77h80q0 -106 -60 -155.5t-190 -49.5h-59zM181 246q0 61 21 95t58 47.5t85 13.5h225q54 0 92 -12.5t58.5 -46.5t20.5 -97h-80q0 25 -6 44.5t-25 29.5t-58 10h-222q-39 0 -58 -11.5t-25 -31t-6 -41.5h-80zM423 379v29q0 25 -10.5 44.5t-30.5 31t-47 11.5
q-36 0 -56.5 -14t-28.5 -34l-70 23q19 53 62 75.5t93 22.5q20 0 42.5 -5t45 -16.5t38.5 -33.5q17 22 38.5 33.5t44.5 16.5t43 5q50 0 93 -22.5t62 -75.5l-71 -23q-7 20 -28 34t-56 14q-27 0 -47 -11.5t-31 -31t-11 -44.5v-29h-75z" />
    <glyph glyph-name="sinE" unicode="&#xd91;" horiz-adv-x="595" 
d="M281 -2q-68 0 -115 28t-71 73t-24 95q0 24 7.5 48.5t22.5 43.5h-71v65h246v7q0 21 -11 35.5t-28.5 22t-35.5 7.5q-19 0 -38.5 -9.5t-26.5 -29.5l-63 16q9 34 30.5 53t48 27.5t50.5 8.5q28 0 54.5 -9.5t45.5 -27.5q19 -17 29 -40.5t10 -59.5v-66h-109q-19 0 -38 -11
t-30.5 -31t-11.5 -49q0 -28 13.5 -54.5t42 -43.5t73.5 -17v-82zM336 -2v82q43 0 76 15t52.5 51t19.5 99h81q0 -123 -55.5 -185t-173.5 -62zM335 755q66 0 118 -21.5t82 -73t30 -143.5v-272h-81v257q0 91 -31.5 135t-112.5 44h-5v-53q0 -37 13 -60.5t36 -34.5t52 -11v-67
q-60 0 -99 23t-57 62t-18 85v130h73z" />
    <glyph glyph-name="sinEe" unicode="&#xd92;" horiz-adv-x="595" 
d="M485 518v301h80v-301h-80zM281 -2q-68 0 -115 28t-71 73t-24 95q0 24 7.5 48.5t22.5 43.5h-71v65h246v7q0 21 -11 35.5t-28.5 22t-35.5 7.5q-19 0 -38.5 -9.5t-26.5 -29.5l-63 16q9 34 30.5 53t48 27.5t50.5 8.5q28 0 54.5 -9.5t45.5 -27.5q19 -17 29 -40.5t10 -59.5v-66
h-109q-19 0 -38 -11t-30.5 -31t-11.5 -49q0 -28 13.5 -54.5t42 -43.5t73.5 -17v-82zM336 -2v82q43 0 76 15t52.5 51t19.5 99h81q0 -123 -55.5 -185t-173.5 -62zM335 755q66 0 118 -21.5t82 -73t30 -143.5v-272h-81v257q0 91 -31.5 135t-112.5 44h-5v-53q0 -37 13 -60.5
t36 -34.5t52 -11v-67q-60 0 -99 23t-57 62t-18 85v130h73z" />
    <glyph glyph-name="sinAi" unicode="&#xd93;" horiz-adv-x="1052" 
d="M738 -2q-68 0 -115 28t-71 73t-24 95q0 24 7.5 48.5t22.5 43.5h-71v65h246v7q0 21 -11 35.5t-28.5 22t-35.5 7.5q-19 0 -38.5 -9.5t-26.5 -29.5l-63 16q9 34 30.5 53t48 27.5t50.5 8.5q28 0 54.5 -9.5t45.5 -27.5q19 -17 29 -40.5t10 -59.5v-66h-109q-19 0 -38 -11
t-30.5 -31t-11.5 -49q0 -28 13.5 -54.5t42 -43.5t73.5 -17v-82zM793 -2v82q43 0 76 15t52.5 51t19.5 99h81q0 -123 -55.5 -185t-173.5 -62zM792 755q66 0 118 -21.5t82 -73t30 -143.5v-272h-81v257q0 91 -31.5 135t-112.5 44h-5v-53q0 -37 13 -60.5t36 -34.5t52 -11v-67
q-60 0 -99 23t-57 62t-18 85v130h73zM188 -5q-54 0 -86 23t-47.5 57t-20 67.5t-4.5 55.5v173q0 29 7.5 62.5t27 63t54.5 48.5t89 19h41v-76h-36q-38 0 -61.5 -16t-33.5 -42.5t-10 -58.5v-173q0 -37 8.5 -66t30.5 -45t62 -16v-76h-21zM257 -5v76q49 0 70.5 23.5t21.5 63.5v73
q0 22 -9 32t-22 12.5t-27 2.5h-58v76h87q30 0 54 -8t38.5 -29.5t14.5 -61.5v-98q0 -43 -16 -80t-48 -59.5t-81 -22.5h-25zM351 413q-1 8 -5.5 20.5t-15.5 25t-30.5 21t-50.5 8.5v76h21q49 0 81.5 -21.5t51 -52.5t21.5 -59z" />
    <glyph glyph-name="sinO" unicode="&#xd94;" horiz-adv-x="590" 
d="M181 -3q-43 0 -77.5 18t-54 51t-19.5 78v212q0 40 18 67t45.5 40.5t57.5 13.5q27 0 52.5 -12t41 -36t15.5 -61v-40q0 -14 10 -22t21 -8q12 0 21.5 8t9.5 22v141h61v-147q0 -30 -13.5 -51t-34.5 -31t-45 -10q-33 0 -60 21t-27 63v39q0 25 -14.5 37.5t-31.5 12.5t-32 -13
t-15 -39v-200q0 -15 8 -33t25 -30.5t44 -12.5t43.5 12.5t24.5 30t8 33.5v45h65v-45q0 -15 7.5 -33t24.5 -30t43 -12q28 0 44.5 12t24.5 30t8 33v50h80v-57q0 -45 -19.5 -78t-53.5 -51t-78 -18q-75 0 -114 52q-19 -27 -49 -39.5t-65 -12.5zM113 544l-78 20q0 43 19.5 78.5
t52.5 60.5t72.5 38.5t79.5 13.5v-79q-37 0 -70.5 -14.5t-54.5 -44t-21 -73.5zM480 201v311q0 67 -20 102.5t-56.5 48t-87.5 12.5v80q86 0 140 -24.5t79 -77t25 -137.5v-315h-80z" />
    <glyph glyph-name="sinOo" unicode="&#xd95;" horiz-adv-x="590" 
d="M181 -3q-43 0 -77.5 18t-54 51t-19.5 78v212q0 40 18 67t45.5 40.5t56.5 13.5q28 0 53.5 -12t41 -36t15.5 -61v-40q0 -14 10 -22t21 -8q12 0 21.5 8t9.5 22v141h61v-147q0 -31 -13.5 -51.5t-34 -30.5t-43.5 -10q-33 0 -61 21.5t-28 62.5v39q0 25 -14.5 37.5t-31.5 12.5
t-32 -13t-15 -39v-200q0 -15 8 -33t25 -30.5t44 -12.5t43.5 12.5t24.5 30t8 33.5v45h65v-45q0 -15 7.5 -33t24.5 -30t43 -12q28 0 44.5 12t24.5 30t8 33v48h80v-55q0 -45 -19.5 -78t-53.5 -51t-78 -18q-75 0 -114 52q-19 -27 -49 -39.5t-65 -12.5zM480 199v262
q0 48 -14.5 72.5t-43.5 33.5t-74 9v76q80 0 126.5 -20.5t66 -60t19.5 -97.5v-275h-80zM63 576v76h35q-16 14 -22 30.5t-6 32.5q0 27 15.5 50.5t42.5 38.5t60 15h88v-70h-72q-31 0 -44 -15.5t-13 -32.5q0 -20 14.5 -34.5t42.5 -14.5h144v-76h-285zM476 673q0 37 -13 53
t-34.5 19.5t-49.5 3.5h-47v70h60q56 0 88.5 -12t48 -33t20.5 -47t5 -54h-78z" />
    <glyph glyph-name="sinAu" unicode="&#xd96;" horiz-adv-x="1000" 
d="M794 -8q-43 0 -83 18t-65.5 54.5t-25.5 91.5v46h75v-47q0 -28 15 -48t38 -30t49 -10q25 0 47.5 9.5t36.5 29.5t14 49v294q0 21 -12 31.5t-27 10.5t-27.5 -10.5t-12.5 -31.5v-51q0 -46 -29.5 -70.5t-65.5 -24.5q-25 0 -48 11.5t-38 35.5t-15 60v154h61v-139
q0 -20 12.5 -30.5t26.5 -10.5q15 0 27 10.5t12 30.5v39q0 35 15 58t38.5 34.5t49.5 11.5q41 0 74 -29t34 -85v-298q0 -54 -25.5 -90.5t-65.5 -55t-85 -18.5zM181 -3q-43 0 -77.5 18t-54 51t-19.5 78v212q0 40 18 67t45.5 40.5t57.5 13.5q27 0 52.5 -12t41 -36t15.5 -61v-40
q0 -14 10 -22t21 -8q12 0 21.5 8t9.5 22v141h61v-147q0 -30 -13.5 -51t-34.5 -31t-45 -10q-33 0 -60 21t-27 63v39q0 25 -14.5 37.5t-31.5 12.5t-32 -13t-15 -39v-200q0 -15 8 -33t25 -30.5t44 -12.5t43.5 12.5t24.5 30t8 33.5v45h65v-45q0 -15 7.5 -33t24.5 -30t43 -12
q28 0 44.5 12t24.5 30t8 33v50h80v-57q0 -45 -19.5 -78t-53.5 -51t-78 -18q-75 0 -114 52q-19 -27 -49 -39.5t-65 -12.5zM113 544l-78 20q0 43 19.5 78.5t52.5 60.5t72.5 38.5t79.5 13.5v-79q-37 0 -70.5 -14.5t-54.5 -44t-21 -73.5zM480 201v311q0 67 -20 102.5t-56.5 48
t-87.5 12.5v80q86 0 140 -24.5t79 -77t25 -137.5v-315h-80z" />
    <glyph glyph-name="sinKa" unicode="&#xd9a;" horiz-adv-x="776" 
d="M189 566q48 0 87 -23.5t51 -57.5l-56 -57q-6 31 -31 47t-53 16q-27 0 -51 -16.5t-34 -49.5l-70 22q12 44 37.5 70t57.5 37.5t62 11.5zM515 566q60 0 112.5 -27t85.5 -81.5t33 -140.5v-120q0 -61 -17 -105.5t-57 -68.5t-110 -24v81q22 0 40.5 5t33 17.5t22.5 35.5t8 59
v114q0 57 -23 96t-60 59t-80 20q-32 0 -64 -11.5t-60 -34.5l-276 -233l-73 -25v61l282 245q43 38 96 58t107 20zM192 -6q-32 0 -61 14.5t-47.5 41t-18.5 61.5v25q0 16 -5 32t-16 16q-3 0 -7 -0.5t-7 -1.5l47 63q25 -6 37.5 -17.5t17 -24.5t4.5 -23v-48q0 -27 19 -41.5
t40 -14.5t38 13.5t17 42.5v64h64v-63q0 -30 18.5 -43.5t40.5 -13.5q24 0 44.5 14.5t20.5 42.5v92q0 34 -9.5 54.5t-31.5 33t-60 19.5l61 51q36 -8 62 -25t39.5 -47.5t13.5 -79.5v-108q0 -41 -18.5 -70t-48.5 -43.5t-63 -14.5q-27 0 -53.5 10.5t-47.5 30.5
q-18 -21 -41.5 -31.5t-48.5 -10.5z" />
    <glyph glyph-name="sinKha" unicode="&#xd9b;" horiz-adv-x="602" 
d="M423 -5q-39 0 -75.5 17.5t-59.5 50t-23 76.5v65h78v-48q0 -37 23.5 -55t50.5 -18t50 18t23 55v352q0 91 -36.5 129t-110.5 38h-19v80h19q74 0 125 -25.5t77.5 -79.5t26.5 -142v-343q0 -60 -22 -97.5t-55.5 -55t-71.5 -17.5zM265 -65v340q0 44 -24 66.5t-54 22.5
q-29 0 -53.5 -22.5t-24.5 -66.5v-88q0 -41 11 -64t34 -33t58 -10v-80q-66 0 -106 21t-58 61.5t-18 99.5v98q0 56 23.5 93t60 55.5t75.5 18.5t74.5 -17.5t57.5 -52t22 -87.5v-355h-78zM122 544l-78 20q0 43 19.5 78.5t52 60.5t72 38.5t80.5 13.5v-80q-38 0 -71 -14.5
t-54 -43.5t-21 -73z" />
    <glyph glyph-name="sinGa" unicode="&#xd9c;" horiz-adv-x="709" 
d="M488 -8v81q38 0 62.5 17.5t36 48t11.5 70.5v134q0 41 -11 72.5t-35.5 49.5t-63.5 18v81q64 0 106 -27.5t63.5 -76.5t21.5 -113v-138q0 -64 -21.5 -113t-63.5 -76.5t-106 -27.5zM220 -8q-63 0 -105.5 27.5t-63.5 76.5t-21 113v138q0 64 21 113t63.5 76.5t105.5 27.5v-81
q-38 0 -62.5 -18t-36 -49.5t-11.5 -72.5v-134q0 -40 12 -70.5t36 -48t62 -17.5v-81zM276 -8v81q35 0 56.5 11t31.5 32t10 50q0 18 -4 39.5t-20.5 37.5t-52.5 16h-27v66h62q38 0 63.5 -17.5t39 -48.5t13.5 -74v-32q0 -82 -45.5 -121.5t-126.5 -39.5zM253 259v97
q0 59 17.5 106t57 74.5t104.5 27.5v-81q-41 0 -62.5 -19t-29 -48.5t-7.5 -58.5v-98h-80z" />
    <glyph glyph-name="sinGha" unicode="&#xd9d;" horiz-adv-x="681" 
d="M216 -4q-39 0 -71.5 17.5t-52 51t-19.5 81.5v49h80v-45q0 -36 19.5 -55.5t48.5 -19.5q37 0 52 20.5t15 55.5q0 24 11.5 38.5t45.5 14.5h39q30 -1 41 -15.5t11 -36.5q0 -36 14.5 -56.5t52.5 -20.5q29 0 48.5 20.5t19.5 54.5v45h80v-49q0 -48 -19.5 -81.5t-52 -51
t-71.5 -17.5q-59 0 -88.5 30t-29.5 86q0 15 -6.5 22t-21.5 7t-21.5 -7t-6.5 -22q0 -56 -29.5 -86t-88.5 -30zM73 245v32q0 18 4 32.5t14 20.5h-61v72h490q34 0 59 -7.5t40.5 -23t23.5 -37.5t8 -50v-39h-80v31q0 22 -8 34t-22 16t-29 4h-298q-17 0 -31 -4t-22 -16t-8 -34v-31
h-80zM325 379v29q0 25 -11 44.5t-31 31t-47 11.5q-35 0 -56 -14t-28 -34l-70 23q19 53 62 75.5t93 22.5q20 0 42.5 -5t44.5 -16.5t39 -33.5q16 22 38 33.5t45 16.5t42 5q50 0 93.5 -22.5t62.5 -75.5l-71 -23q-7 20 -28 34t-56 14q-27 0 -47 -11.5t-31 -31t-11 -44.5v-29h-75
z" />
    <glyph glyph-name="sinNga" unicode="&#xd9e;" horiz-adv-x="585" 
d="M185 -3q-44 0 -79.5 18t-55.5 51t-20 78v71q0 30 5.5 55t20 43t41 27.5t67.5 9.5h72v-64h-29q-41 0 -62 -7t-28 -21t-7 -34v-74q0 -13 7 -30t23.5 -30t44.5 -13q29 0 45 13t22.5 30t6.5 30v46h66v-46q0 -13 6.5 -30t22.5 -30t45 -13q28 0 44.5 13t23.5 30t7 30v75h81v-81
q0 -67 -41.5 -107t-106.5 -40q-33 0 -63 12.5t-50 39.5q-18 -27 -46 -39.5t-63 -12.5zM214 286v64h33q22 0 33 13.5t11 29.5q0 15 -10.5 27t-31.5 12h-75q-27 0 -39 -8t-15.5 -17.5t-3.5 -15.5h-63q0 31 13.5 54.5t40 37t66.5 13.5h77q36 0 59.5 -15t35 -39t11.5 -50
t-12 -50.5t-35.5 -40t-58.5 -15.5h-36zM114 543l-79 20q0 44 20 79t53.5 60t73.5 38.5t81 13.5v-79q-38 0 -72 -14.5t-55.5 -44t-21.5 -73.5zM474 225v282q0 63 -17 99.5t-50.5 52.5t-87.5 16v79q79 0 131.5 -23.5t78.5 -76t26 -138.5v-291h-81z" />
    <glyph glyph-name="sinNnga" unicode="&#xd9f;" horiz-adv-x="870" 
d="M98 -16q-30 39 -44.5 73t-19 70.5t-4.5 81.5v78q0 62 8.5 113t32.5 87.5t71 56.5t123 20h117v-81h-150q-46 0 -71 -18t-36 -46.5t-14 -63.5t-3 -68v-78q0 -40 3.5 -71t17.5 -60.5t46 -68.5zM382 -8q-63 0 -105.5 27.5t-63.5 76.5t-21 113v138q0 64 21 113t63.5 76.5
t105.5 27.5v-81q-39 0 -63.5 -18t-35.5 -49.5t-11 -72.5v-134q0 -40 11.5 -70.5t36 -48t62.5 -17.5v-81zM438 -8v81q35 0 56.5 11t31.5 32t10 50q0 18 -4.5 39.5t-20.5 37.5t-53 16h-27v66h63q37 0 63 -17.5t39 -48.5t13 -74v-32q0 -82 -45.5 -121.5t-125.5 -39.5zM414 259
v97q0 59 18 106t57 74.5t105 27.5v-81q-41 0 -63 -19t-29 -48.5t-7 -58.5v-98h-81zM650 -8v81q38 0 62 17.5t36 48t12 70.5v134q0 41 -11 72.5t-35.5 49.5t-63.5 18v81q64 0 106 -27.5t63 -76.5t21 -113v-138q0 -64 -21 -113t-63 -76.5t-106 -27.5z" />
    <glyph glyph-name="sinCa" unicode="&#xda0;" horiz-adv-x="596" 
d="M337 -2v80q42 0 75.5 15t53 51.5t19.5 100.5v263q0 90 -37 128.5t-111 38.5v80q74 0 125 -25t77.5 -77.5t26.5 -136.5v-271q0 -123 -56 -185t-173 -62zM281 -2q-68 0 -115 28t-71 72.5t-24 94.5q0 25 7.5 49.5t22.5 43.5h-71v65h246v5q0 23 -11 37.5t-28.5 22t-35.5 7.5
q-19 0 -38.5 -9.5t-26.5 -29.5l-63 16q9 34 30.5 53t48 27.5t50.5 8.5q28 0 54.5 -9.5t45.5 -27.5q19 -17 29 -40.5t10 -59.5v-66h-109q-25 0 -43 -13.5t-27.5 -34.5t-9.5 -45q0 -28 13.5 -54t42 -43.5t73.5 -17.5v-80zM146 544l-78 20q0 41 18.5 76t50 60.5t69 40
t75.5 14.5v-79q-34 0 -64.5 -16t-50.5 -45.5t-20 -70.5z" />
    <glyph glyph-name="sinCha" unicode="&#xda1;" horiz-adv-x="634" 
d="M284 -8q-133 0 -192 49t-59 156h80q0 -50 20 -78t57.5 -38.5t89.5 -10.5h66q53 0 90 11t57 39t20 77v56l-80 -1q-45 0 -81.5 21.5t-57.5 57.5t-21 78q0 44 22 80t58.5 57t79.5 21q37 0 68.5 -16t53.5 -43.5t28 -62.5l-71 -7q-8 24 -29.5 40t-49.5 16q-23 0 -42 -11.5
t-30.5 -30.5t-11.5 -42t11.5 -42.5t30.5 -31t42 -11.5h92q35 0 51.5 -17.5t16.5 -43.5v-67q0 -106 -60 -155.5t-190 -49.5h-59zM33 246q0 61 21 95t58 47.5t85 13.5h76q0 28 -10.5 49t-30.5 32.5t-47 11.5q-36 0 -56.5 -14t-27.5 -34l-71 23q19 53 62 75.5t95 22.5
q19 0 42 -5t44 -17.5t36.5 -34.5t20.5 -57l22 -124h-150q-39 0 -58 -11.5t-25 -31t-6 -41.5h-80zM309 505l235 307l59 -43l-213 -282z" />
    <glyph glyph-name="sinJa" unicode="&#xda2;" horiz-adv-x="633" 
d="M283 -8q-133 0 -192 49t-59 156h80q0 -50 19.5 -78t57.5 -38.5t90 -10.5h66q53 0 90 11t57 39t20 77h80q0 -106 -60 -155.5t-191 -49.5h-58zM32 246q0 61 21 95t58 47.5t85 13.5h225q54 0 92 -12.5t58.5 -46.5t20.5 -97h-80q0 25 -6 44.5t-25 29.5t-58 10h-222
q-39 0 -58.5 -11.5t-25 -31t-5.5 -41.5h-80zM274 379v29q0 25 -11 44.5t-31 31t-47 11.5q-35 0 -56 -14t-28 -34l-70 23q19 53 62 75.5t93 22.5q20 0 42.5 -5t44.5 -16.5t39 -33.5q16 22 38 33.5t45 16.5t42 5q50 0 93.5 -22.5t62.5 -75.5l-71 -23q-7 20 -28 34t-56 14
q-27 0 -47 -11.5t-31 -31t-11 -44.5v-29h-75zM308 508l231 304l59 -43l-213 -282z" />
    <glyph glyph-name="sinJha" unicode="&#xda3;" horiz-adv-x="1117" 
d="M30 182v69l296 249q51 39 109 58t114 19q54 0 102 -18.5t81 -58t43 -102.5h-83q-8 37 -30.5 59.5t-53 32.5t-64.5 10q-42 0 -85 -15.5t-80 -44.5l-276 -233zM102 425l-70 22q12 44 37.5 70t57.5 37.5t62 11.5q48 0 87 -23.5t51 -57.5l-56 -57q-6 31 -31 47t-53 16
q-27 0 -51 -16.5t-34 -49.5zM716 -3q-43 0 -78.5 18t-55.5 51t-20 78v145q0 37 12.5 74t43 64.5t84.5 34.5l34 8l39 -72h-20q-34 0 -56 -11t-34.5 -28.5t-17.5 -37t-5 -36.5v-135q0 -13 7 -30t23 -30t45 -13t45 13t22.5 30t6.5 30v46h65v-46q0 -13 7 -30t23 -30t44 -13
q29 0 45.5 13t23 30t6.5 30v76h82v-82q0 -67 -41.5 -107t-106.5 -40q-34 0 -64 12.5t-49 39.5q-19 -27 -47 -39.5t-63 -12.5zM667 612l-78 29q17 38 48.5 63.5t72 38t81.5 12.5v-79q-26 0 -51 -6.5t-44.5 -20.5t-28.5 -37zM1005 225v283q0 63 -17.5 99.5t-52 52t-87.5 15.5
v80q79 0 132 -23.5t80 -76t27 -139.5v-291h-82zM344 339l54 44q36 -8 62 -25t39.5 -47.5t13.5 -79.5v-108q0 -41 -18.5 -70t-48.5 -43.5t-63 -14.5q-27 0 -53.5 10.5t-47.5 30.5q-18 -21 -41.5 -31.5t-48.5 -10.5q-32 0 -61 14.5t-47.5 41t-18.5 61.5v25q0 16 -3 32t-18 16
q-3 0 -7 -0.5t-7 -1.5l47 68q25 -6 37.5 -19t17 -27t4.5 -24v-48q0 -27 19 -41.5t40 -14.5t38 13.5t17 42.5v64h64v-63q0 -30 18.5 -43.5t40.5 -13.5q24 0 44.5 14.5t20.5 42.5v92q0 32 -9 52.5t-29.5 32.5t-55.5 19v10z" />
    <glyph glyph-name="sinNya" unicode="&#xda4;" horiz-adv-x="1135" 
d="M853 0q-60 0 -112 20.5t-83.5 64.5t-31.5 114q0 68 29 112t80 66.5t117 22.5h99q0 39 -18.5 62t-46.5 34.5t-59 15t-56 3.5v77q42 0 88 -8t85 -30t63.5 -61t24.5 -101v-70h-186q-40 0 -71 -13.5t-49 -41t-18 -68.5q0 -37 17.5 -64.5t50 -42t77.5 -14.5h38q42 0 76 18.5
t53 60.5l73 -19q-13 -39 -36 -65.5t-51.5 -42.5t-58 -23t-56.5 -7h-38zM101 -31q-30 39 -45 73t-20.5 71t-5.5 82v114q0 74 23 120t60.5 67t78.5 21q13 0 28.5 -2.5t35.5 -11.5v-78q-23 8 -37 11t-26 3q-26 0 -45.5 -14.5t-29.5 -43.5t-10 -72v-114q0 -40 4 -71t19 -60.5
t47 -68.5zM346 -6q-31 0 -60.5 14.5t-48 41t-18.5 61.5v25q0 16 -2.5 32t-18.5 16q-3 0 -7 -0.5t-7 -1.5l47 68q25 -6 37.5 -19t17 -27t4.5 -24v-48q0 -27 19 -41.5t41 -14.5q20 0 37 13.5t17 42.5v64h64v-63q0 -30 18.5 -43.5t40.5 -13.5q24 0 44.5 14.5t20.5 42.5v92
q0 34 -9.5 54.5t-31 33t-60.5 19.5l62 51q35 -8 61 -25t40 -47.5t14 -79.5v-108q0 -41 -19 -70t-48.5 -43.5t-62.5 -14.5q-28 0 -54.5 10.5t-47.5 30.5q-17 -21 -41 -31.5t-49 -10.5zM256 425l-70 22q13 44 38.5 70t57 37.5t62.5 11.5q48 0 86.5 -23.5t50.5 -57.5l-55 -57
q-6 31 -31 47t-54 16q-27 0 -50.5 -16.5t-34.5 -49.5zM959 -204q-49 0 -88.5 18.5t-63 54.5t-23.5 86h79q0 -26 14 -45t36.5 -29.5t48.5 -10.5q31 0 59.5 17.5t36.5 53.5l77 -19q-10 -39 -34.5 -67t-61 -43.5t-80.5 -15.5zM184 182v69l295 247q40 32 79 53t78 31t80 10v-77
q-48 0 -93.5 -20t-88.5 -55l-276 -233z" />
    <glyph glyph-name="sinJnya" unicode="&#xda5;" horiz-adv-x="1064" 
d="M782 -3q-64 0 -113.5 23.5t-77.5 67.5t-28 105q0 59 26 101.5t74.5 64.5t114.5 22h102q0 39 -20 60.5t-50.5 31.5t-60.5 12.5t-49 2.5v82q27 0 62 -3t70 -13t64 -31t47 -57.5t18 -92.5v-70h-186q-67 0 -100 -30t-33 -81q0 -49 35 -83t105 -34h38q42 0 76 18.5t53 60.5
l73 -19q-13 -39 -36 -65.5t-51.5 -42.5t-58.5 -23t-56 -7h-38zM101 -22q-30 39 -45 73t-20.5 71t-5.5 82v83q0 62 8.5 113t32.5 87.5t71 56.5t123 20h117v-81h-150q-46 0 -71 -18t-36 -46.5t-14 -63.5t-3 -68v-83q0 -40 4 -71t19 -60.5t47 -68.5zM382 -8q-63 0 -105.5 27.5
t-63.5 76.5t-21 113v138q0 64 21 113t63.5 76.5t105.5 27.5v-81q-39 0 -63.5 -18t-35.5 -49.5t-11 -72.5v-134q0 -40 11.5 -70.5t36 -48t62.5 -17.5v-81zM438 -8v81q35 0 56.5 11t31.5 32t10 50q0 18 -4.5 39.5t-20.5 37.5t-53 16h-27v66h63q37 0 63 -19.5t39 -53t13 -76.5
v-23q0 -82 -45.5 -121.5t-125.5 -39.5zM888 -207q-49 0 -89 19t-63 54.5t-23 85.5h79q0 -26 14 -45t36.5 -29.5t47.5 -10.5q32 0 60 17.5t37 53.5l77 -19q-10 -39 -34.5 -67t-61 -43.5t-80.5 -15.5zM414 259v97q0 70 27 117.5t75.5 71.5t113.5 25h14v-81h-14
q-41 -1 -71.5 -16.5t-47 -45t-16.5 -70.5v-98h-81z" />
    <glyph glyph-name="sinNyja" unicode="&#xda6;" horiz-adv-x="790" 
d="M99 -21q-30 39 -45 72.5t-19.5 69.5t-4.5 81v140q0 27 5 55t16.5 53t31.5 45.5t50.5 32.5t71.5 12q14 0 29 -2.5t20 -10.5v-79q-19 8 -33 11t-26 3q-27 0 -47 -14.5t-31 -43.5t-11 -72v-128q0 -40 4 -70.5t19 -60.5t47 -69zM440 -8q-133 0 -192 49t-59 156h80
q0 -50 19.5 -78t57.5 -38.5t90 -10.5h66q53 0 90 11t57 39t20 77h80q0 -106 -60 -155.5t-191 -49.5h-58zM189 246q0 61 21 95t58 47.5t85 13.5h225q54 0 92 -12.5t58.5 -46.5t20.5 -97h-80q0 25 -6 44.5t-25 29.5t-58 10h-222q-39 0 -58.5 -11.5t-25 -31t-5.5 -41.5h-80z
M431 379v29q0 25 -11 44.5t-31 31t-47 11.5q-35 0 -56 -14t-28 -34l-70 23q19 53 62 75.5t93 22.5q20 0 42.5 -5t44.5 -16.5t39 -33.5q16 22 38 33.5t45 16.5t42 5q50 0 93.5 -22.5t62.5 -75.5l-71 -23q-7 20 -28 34t-56 14q-27 0 -47 -11.5t-31 -31t-11 -44.5v-29h-75z
M465 508l231 304l59 -43l-213 -282z" />
    <glyph glyph-name="sinTta" unicode="&#xda7;" horiz-adv-x="554" 
d="M296 -2v80q45 0 77.5 15t51 51t18.5 100v268q0 63 -18.5 98.5t-51 50t-77.5 14.5v80q119 0 173.5 -60t54.5 -179v-277q0 -50 -11.5 -93.5t-37.5 -77t-69.5 -52t-109.5 -18.5zM240 -2q-55 0 -94 19.5t-64 50.5t-36.5 67t-11.5 68v64q0 31 8 67t29.5 67t62.5 51t106 20v-80
q-41 0 -69.5 -15.5t-42.5 -43.5t-14 -66v-58q0 -34 14.5 -64t43 -48.5t68.5 -18.5v-80zM108 544l-78 20q0 41 18.5 76t49.5 60.5t68 40t74 14.5v-79q-32 0 -62.5 -16t-50 -45.5t-19.5 -70.5z" />
    <glyph glyph-name="sinTtha" unicode="&#xda8;" horiz-adv-x="593" 
d="M192 -3q-43 0 -78.5 18t-55.5 51t-20 78v142q0 29 8 60.5t28.5 59.5t57.5 46t94 18h29v-80h-29q-32 0 -53.5 -11t-33 -28t-16.5 -36t-5 -34v-128q0 -14 7 -32t23 -31t45 -13t45 13t22.5 30t6.5 30v46h65v-46q0 -13 7 -30t23 -30t44 -13q30 0 46 13t23 30t7 30v51h81v-57
q0 -67 -41.5 -107t-106.5 -40q-34 0 -64 12.5t-49 39.5q-19 -27 -47 -39.5t-63 -12.5zM333 755q66 0 118 -21.5t82 -73t30 -143.5v-318h-81v303q0 91 -31.5 135t-112.5 44h-5v-53q0 -37 13 -60.5t36 -34.5t52 -11v-67q-60 0 -99 23t-57 62t-18 85v130h73z" />
    <glyph glyph-name="sinDda" unicode="&#xda9;" horiz-adv-x="627" 
d="M227 -3q-44 0 -78.5 18t-55 51t-20.5 78v85q0 16 4 33t16 24h-63v65h271q0 36 -23.5 53.5t-51.5 17.5q-17 0 -37 -8.5t-28 -30.5l-63 17q10 34 31.5 53t48 27t50.5 8q28 0 54.5 -9t45.5 -27q18 -17 28.5 -41t10.5 -59v-66h-156q-16 0 -29.5 -5t-21.5 -17.5t-8 -34.5v-79
q0 -13 7 -30t23.5 -30t44.5 -13q29 0 45 13t22.5 30t6.5 30v46h66v-46q0 -13 6.5 -30t22.5 -30t45 -13q28 0 44.5 13t23.5 30t7 30v49h81v-55q0 -67 -41.5 -107t-106.5 -40q-33 0 -63 12.5t-50 39.5q-18 -27 -46 -39.5t-63 -12.5zM159 544l-79 20q0 43 20 78.5t53.5 60.5
t73.5 38.5t81 13.5v-79q-38 0 -72 -14.5t-55.5 -44t-21.5 -73.5zM516 199v309q0 62 -16.5 99t-50 52.5t-85.5 15.5v80q77 0 129 -24t78 -76.5t26 -138.5v-317h-81z" />
    <glyph glyph-name="sinDdha" unicode="&#xdaa;" horiz-adv-x="627" 
d="M227 -3q-44 0 -78.5 18t-55 51t-20.5 78v73q0 25 6 43.5t18 25.5h-67v65h271q0 36 -23.5 53.5t-51.5 17.5q-17 0 -37 -8.5t-28 -30.5l-63 17q10 34 31.5 53t48 27t50.5 8q28 0 54.5 -9t45.5 -27q18 -17 28.5 -41t10.5 -59v-65h-155q-17 0 -30.5 -5t-21.5 -18t-8 -35v-79
q0 -13 7 -30t23.5 -30t44.5 -13q29 0 45 13t22.5 30t6.5 30v46h66v-46q0 -13 6.5 -30t22.5 -30t45 -13t45 13t23 30t7 30v50h81v-56q0 -67 -41.5 -107t-106.5 -40q-33 0 -63 12.5t-50 39.5q-18 -27 -46 -39.5t-63 -12.5zM367 755q66 0 118 -21.5t82 -73t30 -143.5v-260h-81
v245q0 91 -31 135t-113 44h-5v-53q0 -37 13 -60.5t36.5 -34.5t52.5 -11v-67q-61 0 -99 23t-55.5 62t-17.5 85v130h70z" />
    <glyph glyph-name="sinNna" unicode="&#xdab;" horiz-adv-x="985" 
d="M83 -6l-77 19q15 35 38.5 57t51.5 33.5t56 11.5q33 0 60 -8.5t52.5 -17t52.5 -8.5q21 0 44 10t39.5 36.5t16.5 75.5v164q0 35 -8.5 65t-26 51.5t-44 33.5t-62.5 12q-45 0 -72.5 -15t-42 -37t-19.5 -43.5t-5 -34.5q0 -12 4 -33t16.5 -42t36.5 -35.5t65 -14.5h50v-77
l-71 -1q-48 0 -89 25t-66 70.5t-25 106.5q0 69 31 115t81.5 69.5t109.5 23.5q64 0 104.5 -19t63 -48.5t32.5 -62.5t12 -62.5t2 -46.5v-164q0 -53 -14.5 -92t-38.5 -63t-53 -36t-58 -12q-32 0 -60 9.5t-54 18.5t-54 9q-27 0 -48.5 -10.5t-30.5 -32.5zM745 -7q-56 0 -103 20.5
t-74 58.5t-27 90v35h80v-26q0 -34 18.5 -56.5t48 -33t60.5 -10.5t60 10t48 32t19 57v27h80v-29q0 -57 -29.5 -96.5t-77.5 -59t-103 -19.5zM664 276v123q0 44 -21 63.5t-48 19.5q-16 0 -28.5 -6.5t-21.5 -15.5l-27 73q11 12 33 21.5t52 9.5q33 0 59.5 -13.5t42.5 -36.5
q17 23 45 36.5t64 13.5q38 0 70 -15.5t51.5 -47.5t19.5 -80v-175h-80v162q0 33 -18 53t-48 20q-29 0 -48 -19t-19 -54v-132h-78zM395 514l-71 36l202 262l61 -43z" />
    <glyph glyph-name="sinNndda" unicode="&#xdac;" horiz-adv-x="752" 
d="M352 -3q-44 0 -78.5 18t-55 51t-20.5 78v77q0 16 4 33t16 24h-55v65h258q0 36 -25 55t-58 19q-19 0 -37 -9t-31 -30l-63 22q10 32 32 51.5t50 28t55 8.5q44 0 77 -18t52 -50.5t19 -75.5v-66h-155q-17 0 -30.5 -5t-21 -17.5t-7.5 -34.5v-71q0 -13 6.5 -30t23 -30t45.5 -13
q28 0 44 13t23 30t7 30v46h65v-46q0 -13 6.5 -30t23 -30t44.5 -13q29 0 45 13t23 30t7 30v100h81v-106q0 -67 -41.5 -107t-106.5 -40q-33 0 -63 12.5t-50 39.5q-18 -27 -46 -39.5t-63 -12.5zM91 -16q-26 35 -39.5 65.5t-17.5 63t-4 69.5v103q0 59 22.5 100t60 62.5
t83.5 21.5q39 0 78 -15l-10 -74q-21 7 -36 10t-29 3q-31 0 -52 -15t-31.5 -42.5t-10.5 -62.5v-94q0 -31 4.5 -57.5t17.5 -52.5t41 -59zM284 544l-78 20q0 43 19.5 78.5t53 60.5t74 38.5t80.5 13.5v-79q-37 0 -71.5 -14.5t-56 -44t-21.5 -73.5zM641 225v283q0 62 -16.5 99
t-50 52.5t-85.5 15.5v80q77 0 129 -24t78 -76.5t26 -138.5v-291h-81z" />
    <glyph glyph-name="sinTa" unicode="&#xdad;" horiz-adv-x="764" 
d="M550 -1v81q22 0 40.5 5t33 17.5t22.5 35.5t8 59v114q0 57 -22 95.5t-58 57.5t-77 19q-30 0 -61 -11t-57 -32l-276 -230l-73 -31v72l282 237q30 24 60 40.5t63 25.5t69 9q60 0 112.5 -26.5t85 -81t32.5 -138.5v-120q0 -61 -17 -105.5t-57 -68.5t-110 -24zM310 -6
q-51 0 -88 13.5t-63 37t-45 54.5q-12 20 -21 38.5t-20 31t-28 12.5q-4 0 -7.5 -0.5t-7.5 -1.5l30 61q6 2 11.5 2.5t9.5 0.5q22 0 36.5 -12.5t25 -32t22 -41t28.5 -41t44 -32t68 -12.5q40 0 67.5 16t42.5 43t15 61q0 31 -6.5 57t-28.5 46t-70 32l61 50q53 -15 78.5 -45.5
t33.5 -67.5t8 -74q0 -57 -23.5 -101t-67.5 -69.5t-105 -25.5zM124 425l-70 22q12 44 37.5 70t57.5 37.5t61 11.5q34 0 63 -11.5t49.5 -30t26.5 -37.5l-56 -59q-6 31 -31 47t-53 16q-27 0 -51 -16.5t-34 -49.5z" />
    <glyph glyph-name="sinTha" unicode="&#xdae;" horiz-adv-x="551" 
d="M239 -2q-56 0 -95 18.5t-64.5 48.5t-37.5 64.5t-12 66.5v68q0 34 8 68t27.5 63t56.5 47t94 18h20v-80h-18q-50 0 -79.5 -29.5t-28.5 -94.5v-50q0 -37 15.5 -65.5t44.5 -44.5t69 -16v-82zM294 -2v82q43 0 75.5 15t51.5 51t19 99h81q0 -123 -54.5 -185t-172.5 -62zM291 755
q65 0 117.5 -21.5t82.5 -73t30 -143.5v-272h-81v257q0 91 -31.5 135t-112.5 44h-5v-53q0 -37 13 -60.5t36 -34.5t52 -11v-67q-60 0 -99 23t-57 62t-18 85v130h73z" />
    <glyph glyph-name="sinDa" unicode="&#xdaf;" horiz-adv-x="540" 
d="M257 0q-60 0 -111.5 21t-83.5 65t-32 113q0 68 29 113t80.5 67.5t116.5 22.5h104q0 35 -16.5 58t-43 34.5t-57.5 11.5q-36 0 -67.5 -18.5t-40.5 -53.5l-71 23q11 40 37.5 67t63 41t75.5 14q50 0 94.5 -20.5t73 -61.5t28.5 -104v-71h-186q-40 0 -71 -13.5t-49 -41
t-18 -67.5q0 -38 17.5 -65t50 -42t77.5 -15h38q42 0 76 18.5t53 61.5l74 -20q-14 -39 -37 -65.5t-51.5 -42.5t-58 -23t-56.5 -7h-38zM364 -204q-49 0 -88.5 19t-63 54.5t-23.5 85.5h79q0 -26 14 -45t36.5 -29.5t48.5 -10.5q31 0 59.5 17.5t36.5 54.5l77 -20
q-10 -38 -34.5 -66.5t-61 -44t-80.5 -15.5z" />
    <glyph glyph-name="sinDha" unicode="&#xdb0;" horiz-adv-x="585" 
d="M185 -3q-44 0 -79.5 18t-55.5 51t-20 78v145q0 30 8 63t29 61.5t59 46.5t97 18h32v-80h-32q-34 0 -56 -11t-34.5 -28.5t-17.5 -37t-5 -36.5v-135q0 -13 7 -30t23.5 -30t44.5 -13q29 0 45 13t22.5 30t6.5 30v46h66v-46q0 -13 6.5 -30t22.5 -30t45 -13q28 0 44.5 13
t23.5 30t7 30v51h81v-57q0 -67 -41.5 -107t-106.5 -40q-33 0 -63 12.5t-50 39.5q-18 -27 -46 -39.5t-63 -12.5zM117 544l-79 20q0 43 20 78.5t53.5 60.5t73.5 38.5t81 13.5v-79q-38 0 -72 -14.5t-55.5 -44t-21.5 -73.5zM474 201v307q0 62 -16.5 99t-50 52.5t-85.5 15.5v80
q77 0 129 -24t78 -76.5t26 -138.5v-315h-81z" />
    <glyph glyph-name="sinNa" unicode="&#xdb1;" horiz-adv-x="740" 
d="M526 -4v81q22 0 40.5 5t33 17.5t22.5 35.5t8 59v134q0 51 -23.5 86.5t-60 54.5t-77.5 19q-35 0 -68.5 -16t-56.5 -47l-78 -103q-26 -34 -52.5 -63t-54 -47t-57.5 -18h-22v82l18 -1q17 0 36.5 15t38 35.5t31.5 38.5l86 119q30 42 79.5 63.5t104.5 21.5q44 0 86 -14
t76 -42.5t54 -72t20 -103.5v-142q0 -61 -17 -105t-57 -68.5t-110 -24.5zM275 -6q-48 0 -92 16.5t-78.5 49t-54.5 82t-20 114.5v88h72v-74q0 -40 11 -75.5t33 -63t54 -43t72 -15.5t72 16.5t51 46.5t19 70q0 22 -7 44t-25 41t-50 31l46 61q41 -15 67 -43.5t38.5 -63.5
t12.5 -72q0 -61 -28.5 -108.5t-78.5 -74.5t-114 -27zM103 425l-70 22q12 44 37.5 70t57 37.5t60.5 11.5q34 0 63.5 -12t49 -30t23.5 -38l-52 -58q-6 31 -31 47t-53 16t-51.5 -16.5t-33.5 -49.5z" />
    <glyph glyph-name="sinNda" unicode="&#xdb3;" horiz-adv-x="700" 
d="M418 0q-60 0 -111.5 21t-83.5 65t-32 113q0 68 29 112.5t80 66.5t117 22h104q0 38 -18.5 60.5t-45.5 33t-54 10.5q-21 0 -43.5 -7t-40 -22.5t-25.5 -40.5l-73 27q14 41 42 66.5t63.5 37.5t74.5 12q52 0 96.5 -20t72 -61.5t27.5 -108.5v-65h-186q-40 0 -71 -13.5t-49 -41
t-18 -67.5q0 -38 17.5 -65t50 -42t77.5 -15h38q42 0 76 18.5t53 61.5l73 -20q-13 -39 -36 -65.5t-51.5 -42.5t-58 -23t-56.5 -7h-38zM524 -204q-49 0 -88.5 19t-63 54.5t-23.5 85.5h79q0 -26 14 -45t36.5 -29.5t48.5 -10.5q31 0 59.5 17.5t36.5 54.5l77 -20
q-10 -38 -34.5 -66.5t-61 -44t-80.5 -15.5zM98 -16q-30 39 -44.5 73t-19 70.5t-4.5 81.5v87q0 77 27.5 128t71 76t92.5 25q33 0 67 -12v-77q-14 5 -28.5 8t-29.5 3q-36 0 -63.5 -19.5t-43 -53.5t-15.5 -78v-87q0 -40 3.5 -71t17.5 -60.5t46 -68.5z" />
    <glyph glyph-name="sinPa" unicode="&#xdb4;" horiz-adv-x="623" 
d="M283 -8q-133 0 -192 49t-59 156h80q0 -50 19.5 -78t57.5 -38.5t90 -10.5h66q53 0 90 11t57 39t20 77h80q0 -106 -60 -155.5t-191 -49.5h-58zM32 246q0 61 21 95t58 47.5t85 13.5h225q54 0 92 -12.5t58.5 -46.5t20.5 -97h-80q0 25 -6 44.5t-25 29.5t-58 10h-222
q-39 0 -58.5 -11.5t-25 -31t-5.5 -41.5h-80zM274 379v29q0 25 -11 44.5t-31 31t-47 11.5q-35 0 -56 -14t-28 -34l-70 23q19 53 62 75.5t93 22.5q20 0 42.5 -5t44.5 -16.5t39 -33.5q16 22 38 33.5t45 16.5t42 5q50 0 93.5 -22.5t62.5 -75.5l-71 -23q-7 20 -28 34t-56 14
q-27 0 -47 -11.5t-31 -31t-11 -44.5v-29h-75z" />
    <glyph glyph-name="sinPha" unicode="&#xdb5;" horiz-adv-x="556" 
d="M173 488q37 0 68.5 -14.5t51 -43t19.5 -70.5v-74h-63q-43 0 -74 -6.5t-48 -27.5t-17 -63q0 -27 15 -52t44.5 -41t71.5 -16v-82q-61 0 -108.5 26.5t-74.5 69t-27 91.5q0 25 3.5 47.5t13.5 42t29 36.5q29 28 70.5 37t99.5 9q0 32 -23 48.5t-52 16.5q-20 0 -38.5 -9
t-26.5 -30l-63 17q9 32 29 51t46.5 28t53.5 9zM297 -2v82q43 0 76 15t52.5 51t19.5 99h81q0 -123 -55.5 -185t-173.5 -62zM296 755q66 0 118 -21.5t82 -73t30 -143.5v-272h-81v257q0 91 -31.5 135t-112.5 44h-5v-53q0 -37 13 -60.5t36 -34.5t52 -11v-67q-60 0 -99 23t-57 62
t-18 85v130h73z" />
    <glyph glyph-name="sinBa" unicode="&#xdb6;" horiz-adv-x="595" 
d="M413 -6q-41 0 -75 18t-54 50.5t-20 77.5v159q0 39 -23 63t-57 24t-55.5 -23.5t-21.5 -63.5v-116q0 -56 24.5 -79.5t79.5 -23.5v-80q-93 0 -137 42.5t-44 138.5v124q0 51 21.5 87.5t57 56t78.5 19.5t78.5 -20t56 -57t20.5 -90v-147q0 -33 22 -53.5t53 -20.5
q32 0 52.5 20.5t20.5 53.5v90h81v-88q0 -50 -21.5 -86.5t-57.5 -56t-79 -19.5zM119 544l-78 20q0 54 30 97t80 68.5t108 25.5v-79q-40 0 -71.5 -15.5t-50 -45.5t-18.5 -71zM490 244v250q0 55 -16.5 95.5t-50.5 63t-86 22.5h-21v80h21q73 0 125 -27t80.5 -84.5t28.5 -147.5
v-252h-81z" />
    <glyph glyph-name="sinBha" unicode="&#xdb7;" horiz-adv-x="747" 
d="M260 -8q-63 0 -106 27t-64 73.5t-21 104.5v55q0 68 35 103h-74v71h243q0 36 -22 54.5t-53 18.5q-20 0 -38.5 -10t-26.5 -30l-63 17q14 44 51 66t79 22q35 0 66.5 -14.5t52 -42.5t20.5 -70l-6 -82h-73q-39 0 -63.5 -11.5t-35.5 -35.5t-11 -61v-50q0 -34 11.5 -62t36 -45
t62.5 -17v-81zM315 -8v81q35 0 56.5 11t31.5 32t10 50q0 18 -4.5 39.5t-20 37.5t-50.5 16h-46v97q0 59 17.5 106t57 74.5t104.5 27.5v-81q-40 0 -62 -19t-29.5 -47.5t-7.5 -59.5v-33q41 -1 66.5 -19.5t37 -49.5t11.5 -70v-32q0 -82 -46 -121.5t-126 -39.5zM527 -8v81
q38 0 62.5 17.5t36 48t11.5 70.5v136q0 41 -11 72t-35.5 48.5t-63.5 17.5v81q64 0 106 -27.5t63 -77t21 -114.5v-136q0 -64 -21 -113t-63 -76.5t-106 -27.5z" />
    <glyph glyph-name="sinMa" unicode="&#xdb8;" horiz-adv-x="582" 
d="M311 469h61v-147q0 -31 -13.5 -51.5t-34 -30.5t-43.5 -10q-33 0 -61 21.5t-28 62.5v45q0 20 -12 31.5t-28 11.5q-17 0 -32 -16t-15 -53v-81q0 -47 10.5 -78.5t27 -51t36 -28.5t38.5 -12.5t33 -3.5v-80q-69 0 -112.5 24t-66.5 62.5t-32 82.5t-9 85v69q0 53 18.5 87
t46.5 51t57 17q38 0 67.5 -26t29.5 -76v-46q0 -14 10 -22t21 -8q12 0 21.5 8t9.5 22v141zM32 564q0 42 19.5 76.5t51 60t70.5 40t77 14.5v-80q-35 0 -67 -15.5t-52.5 -45t-20.5 -71.5zM306 755q68 0 115 -18.5t75.5 -51.5t42 -78t13.5 -99v-263q0 -54 -13.5 -99t-42 -78.5
t-75.5 -51.5t-115 -18v80q48 0 85 15t58.5 51.5t21.5 100.5v263q0 65 -21.5 101.5t-58.5 51t-85 14.5v80z" />
    <glyph glyph-name="sinMba" unicode="&#xdb9;" horiz-adv-x="593" 
d="M187 -11q-47 0 -82.5 22.5t-55 61.5t-19.5 90v192q0 41 18 68t45.5 40.5t57.5 13.5q27 0 52 -12t41 -36t16 -61v-40q0 -14 9.5 -22t20.5 -8q12 0 22 8t10 22v141h61v-147q0 -31 -13.5 -51.5t-34.5 -30.5t-44 -10q-33 0 -61 21.5t-28 62.5v39q0 25 -14 37.5t-32 12.5
q-17 0 -32 -13t-15 -39v-184q0 -24 9.5 -46t28 -36t42.5 -14q18 0 26 9t8 28q0 9 -1.5 25t0.5 32t11.5 27.5t32.5 11.5h59q23 0 32.5 -11.5t11.5 -27.5t0.5 -32t-1.5 -25q0 -19 8 -28t26 -9q25 0 43 14t28 36t10 46v341q0 66 -22.5 102.5t-59.5 50.5t-82 14v80
q118 0 181 -59.5t63 -182.5v-350q0 -51 -20 -90t-55 -61.5t-84 -22.5q-33 0 -50.5 14t-21.5 36q-5 14 -4.5 34.5t0.5 36.5q0 21 -10.5 27t-22.5 6q-11 0 -21 -6t-10 -27v-36.5t-4 -34.5q-4 -22 -21.5 -36t-51.5 -14zM118 544l-79 20q0 43 19.5 78.5t52.5 60.5t72.5 38.5
t79.5 13.5v-79q-37 0 -70.5 -14.5t-54 -44t-20.5 -73.5z" />
    <glyph glyph-name="sinYa" unicode="&#xdba;" horiz-adv-x="640" 
d="M193 -3q-46 0 -83 19t-58.5 52.5t-21.5 79.5v48h80v-43q0 -38 25 -57.5t60 -19.5q36 0 61 19.5t25 58.5v42h76v-42q0 -39 25 -58.5t61 -19.5q35 0 60 19.5t25 57.5v43h80v-48q0 -47 -21.5 -81t-58 -52t-82.5 -18q-41 0 -74 14.5t-54 43.5q-20 -29 -52.5 -43.5
t-72.5 -14.5zM30 246v94q0 77 30.5 126t80 73t107.5 24h17v-76h-19q-67 0 -101.5 -42t-34.5 -114v-85h-80zM528 246v34q0 22 -7.5 32.5t-21 14t-31.5 3.5h-174v65q0 47 13 79t35.5 52t51 29.5t57.5 9.5q49 0 91 -20.5t64 -75.5l-67 -22q-9 22 -30.5 34t-54.5 12
q-46 0 -65 -23t-19 -68h109q55 0 83 -17t37 -43.5t9 -55.5v-40h-80z" />
    <glyph glyph-name="sinRa" unicode="&#xdbb;" horiz-adv-x="527" 
d="M238 -6q-38 0 -75 12.5t-67 40.5t-48 74.5t-18 115.5v171q0 35 5.5 65t23 63t51.5 75l161 202l63 -46l-155 -198q-27 -34 -41.5 -58.5t-21 -49.5t-6.5 -61v-165q0 -84 33.5 -121.5t94.5 -37.5v-82zM326 564q62 0 99.5 -24t54.5 -68t17 -104v-141q0 -92 -27 -142.5
t-73 -70t-103 -19.5v82q68 0 95.5 39t27.5 119v112q0 55 -13.5 85t-38.5 42.5t-62 12.5h-122v4l54 73h91z" />
    <glyph glyph-name="sinLa" unicode="&#xdbd;" horiz-adv-x="614" 
d="M275 -170q-40 0 -83 11t-79.5 37.5t-59.5 74.5t-23 122v253q0 75 22.5 123t59 74t79.5 36.5t84 10.5v-80q-45 0 -82.5 -16.5t-59.5 -52t-22 -95.5v-253q0 -59 22 -95.5t59.5 -53t82.5 -16.5v-80zM336 -171v80q60 0 100.5 25.5t59.5 80.5l77 -22q-14 -50 -39 -81.5
t-57 -49.5t-68.5 -25.5t-72.5 -7.5zM204 275v70h199v-70h-199zM417 79q-33 0 -58 8.5t-43 23.5t-29 34.5t-16.5 40.5t-5.5 41v82h77v-74q0 -34 21.5 -54.5t54.5 -20.5q25 0 44.5 12t30.5 33.5t11 48.5v80q0 63 -22.5 96.5t-60.5 47.5t-85 14v80q41 0 84.5 -8.5t81 -33
t60 -72t22.5 -124.5v-80q0 -58 -22 -97t-59.5 -58.5t-85.5 -19.5z" />
    <glyph glyph-name="sinVa" unicode="&#xdc0;" horiz-adv-x="558" 
d="M299 -2v80q42 0 75.5 15t53 51.5t19.5 100.5v263q0 90 -37 128.5t-111 38.5v80q75 0 125.5 -25t77 -77.5t26.5 -136.5v-271q0 -123 -55.5 -185t-173.5 -62zM243 -2q-61 0 -108.5 26.5t-74.5 69t-27 91.5q0 25 3.5 47.5t13 42t28.5 36.5q30 28 71.5 37t99.5 9
q0 32 -23 48.5t-52 16.5q-20 0 -39 -9t-26 -30l-63 17q9 32 29 51t46.5 28t53.5 9q37 0 68.5 -14.5t51 -43t19.5 -70.5v-74h-63q-43 0 -74 -6.5t-48 -27.5t-17 -63q0 -29 15.5 -54t44.5 -41t71 -16v-80zM108 544l-78 20q0 41 19 76t50 60.5t68.5 40t75.5 14.5v-79
q-33 0 -64.5 -16t-51 -45.5t-19.5 -70.5z" />
    <glyph glyph-name="sinSha" unicode="&#xdc1;" horiz-adv-x="709" 
d="M30 347q0 64 21 113t63.5 76.5t105.5 27.5v-81q-38 0 -62.5 -18t-36 -49.5t-11.5 -72.5v-134q0 -40 12 -70.5t36 -48t62 -17.5v-81q-63 0 -105.5 27.5t-63.5 76.5t-21 113v138zM253 356q0 59 17.5 106t57 74.5t104.5 27.5v-81q-40 0 -62.5 -17.5t-31.5 -45.5t-9 -59v-42
h10q40 0 64 -20t34.5 -51.5t10.5 -66.5v-24q0 -84 -45.5 -124.5t-126.5 -40.5v81q35 0 56.5 11t31.5 31.5t10 49.5q0 23 -5.5 44.5t-21.5 35.5t-48 14h-46v97zM598 209v134q0 41 -11 72.5t-35.5 49.5t-63.5 18v81q64 0 106 -27.5t63.5 -76.5t21.5 -113v-138
q0 -64 -21.5 -113t-63.5 -76.5t-106 -27.5v81q38 0 62.5 17.5t36 48t11.5 70.5zM390 142q0 18 3 39.5t12 42.5t26 38.5t44 27.5t68 10h20v-65h-26q-30 0 -48 -9t-27 -23t-12 -30.5t-3 -30.5h-57z" />
    <glyph glyph-name="sinSsa" unicode="&#xdc2;" horiz-adv-x="636" 
d="M281 -8q-133 0 -192 49t-59 156h80q0 -50 20 -78t57.5 -38.5t89.5 -10.5h82q53 0 90.5 11t57 39t19.5 77h80q0 -106 -60 -155.5t-190 -49.5h-75zM30 246q0 61 21 96t58 48.5t85 13.5h241q54 0 92 -13t58.5 -47.5t20.5 -97.5h-80q0 26 -6 45.5t-25 30t-58 10.5h-238
q-39 0 -58 -12t-25 -32t-6 -42h-80zM267 168q0 49 21 89t56.5 68.5t78.5 41.5h106q-35 -14 -68.5 -33t-59.5 -43t-41.5 -54t-15.5 -68zM281 379v29q0 25 -10.5 44.5t-30.5 31t-47 11.5q-36 0 -56.5 -14t-28.5 -34l-70 23q19 53 62 75.5t93 22.5q20 0 42.5 -5t45 -16.5
t38.5 -33.5q17 22 38.5 33.5t44.5 16.5t43 5q50 0 93 -22.5t62 -75.5l-71 -23q-7 20 -28 34t-56 14q-27 0 -47 -11.5t-31 -31t-11 -44.5v-29h-75z" />
    <glyph glyph-name="sinSa" unicode="&#xdc3;" horiz-adv-x="681" 
d="M236 -3q-46 0 -83 19t-58.5 52.5t-21.5 79.5v49h80v-44q0 -38 25 -57.5t60 -19.5q36 0 61 19.5t25 58.5v43h76v-43q0 -39 25 -58.5t61 -19.5q35 0 60 19.5t25 57.5v44h80v-49q0 -47 -21.5 -81t-58 -52t-82.5 -18q-41 0 -74 14.5t-54 43.5q-20 -29 -52.5 -43.5
t-72.5 -14.5zM73 246v31q0 19 4.5 33.5t15.5 19.5h-63v72h490q34 0 59 -7.5t40.5 -23t23.5 -37.5t8 -50v-38h-80v28q0 24 -8 36t-22 16t-29 4h-298q-16 0 -30 -4t-22.5 -16t-8.5 -36v-28h-80zM325 379v29q0 25 -11 44.5t-31 31t-47 11.5q-35 0 -56 -14t-28 -34l-70 23
q19 53 62 75.5t93 22.5q20 0 42.5 -5t44.5 -16.5t39 -33.5q16 22 38 33.5t45 16.5t42 5q50 0 93.5 -22.5t62.5 -75.5l-71 -23q-7 20 -28 34t-56 14q-27 0 -47 -11.5t-31 -31t-11 -44.5v-29h-75z" />
    <glyph glyph-name="sinHa" unicode="&#xdc4;" horiz-adv-x="708" 
d="M220 -8q-63 0 -105.5 27t-63.5 73.5t-21 104.5v48q0 57 19.5 97.5t59.5 62.5t100 22h29q0 34 -22 53t-53 19q-20 0 -38.5 -10t-26.5 -30l-63 17q13 44 50 66t80 22q34 0 66 -14.5t52 -42.5t20 -70v-88h-83q-40 0 -65.5 -12t-37 -35.5t-11.5 -60.5v-44q0 -34 12 -62
t37 -45t65 -17v-81zM276 -8v81q35 0 56.5 11t31.5 32t10 50q0 18 -4.5 39.5t-20 37.5t-51.5 16h-46v97q0 59 18 106t57 74.5t105 27.5v-81q-40 0 -62 -18.5t-29.5 -47.5t-7.5 -59v-34q41 -1 66 -19.5t36.5 -49.5t11.5 -70v-32q0 -82 -45.5 -121.5t-125.5 -39.5zM488 -8v81
q38 0 62 17.5t36 48t12 70.5v134q0 41 -11 72.5t-35.5 49.5t-63.5 18v81q64 0 106 -27.5t63 -76.5t21 -113v-138q0 -64 -21 -113t-63 -76.5t-106 -27.5z" />
    <glyph glyph-name="sinLla" unicode="&#xdc5;" horiz-adv-x="609" 
d="M283 -170q-113 0 -183 61t-70 186v117q0 64 29 107t72 65t84 22h325v-77h-310q-29 0 -56.5 -14.5t-45 -44.5t-17.5 -77v-99q0 -47 14 -79t38.5 -51t55.5 -27t64 -8v-81zM344 -170v80q38 0 72.5 9.5t59.5 34t35 68.5l78 -22q-11 -52 -36.5 -85t-60 -52t-73 -26t-75.5 -7z
M363 86h-44q-50 0 -87 17.5t-60.5 46.5t-34.5 63t-10 67l61 50q0 -21 4 -45t13.5 -46.5t25 -41t38.5 -29.5t54 -11h39q40 0 68.5 16.5t40.5 44.5l70 -18q-16 -39 -43 -64.5t-61.5 -37.5t-73.5 -12zM111 417v24q0 60 35 93.5t93 33.5q24 0 48 -9t40 -30q16 22 40.5 30.5
t44.5 8.5q61 0 94.5 -35t33.5 -96h-70q0 32 -16.5 47t-42.5 15q-23 0 -39.5 -16.5t-16.5 -46.5h-58q0 30 -15.5 46.5t-41.5 16.5q-28 0 -43.5 -17t-15.5 -53z" />
    <glyph glyph-name="sinFa" unicode="&#xdc6;" horiz-adv-x="638" 
d="M30 246v167q0 47 21.5 81t58 52t82.5 18q41 0 74.5 -14.5t53.5 -43.5q21 29 53 43.5t72 14.5q46 0 83 -18.5t58.5 -53t21.5 -79.5v-167h-80v162q0 38 -25 57t-60 19q-36 0 -61 -19.5t-25 -57.5v-161h-76v161q0 38 -25 57.5t-61 19.5q-35 0 -60 -19t-25 -57v-162h-80z
M225 0q-69 0 -112 27t-63 71.5t-20 97.5h80q0 -24 9 -50.5t34 -45.5t72 -19v-81zM413 0v81q47 0 72 19t34 45.5t9 50.5h80q0 -53 -20 -97.5t-62.5 -71.5t-112.5 -27z" />
    <glyph glyph-name="sinVirama" unicode="&#xdca;" horiz-adv-x="138" 
d="M30 619v200h78v-200h-78z" />
    <glyph glyph-name="sinMatraAa" unicode="&#xdcf;" horiz-adv-x="267" 
d="M30 0v81h20q20 0 38.5 5t34 17.5t24.5 36t9 61.5v162q0 39 -9 63t-24.5 37.5t-34 18.5t-38.5 5h-20v81h20q67 0 108 -24.5t60 -69t19 -107.5v-166q0 -62 -19 -107t-60 -69.5t-108 -24.5h-20z" />
    <glyph glyph-name="sinMatraAe" unicode="&#xdd0;" horiz-adv-x="269" 
d="M224 0q-56 0 -100 18.5t-69 58.5t-25 104v92q0 38 5 65t17 50.5t33.5 48.5t56.5 59h-110v78h207v-78q-45 -43 -71 -72.5t-38.5 -51.5t-16 -43t-3.5 -48v-90q0 -18 4.5 -37.5t16 -36t33 -26.5t55.5 -10h20v-81h-15z" />
    <glyph glyph-name="sinMatraAae" unicode="&#xdd1;" horiz-adv-x="265" 
d="M208 0q-50 0 -90.5 14.5t-64 47t-23.5 85.5v44q0 32 9 55.5t32.5 48t66.5 56.5h-108v68l115 87h-115v68h205v-68l-117 -87h117v-68q-45 -32 -70.5 -53.5t-37 -37t-14.5 -29t-3 -29.5v-35q0 -15 3.5 -30t14 -27.5t29.5 -20.5t50 -8h28v-81h-27z" />
    <glyph glyph-name="sinMatraI" unicode="&#xdd2;" horiz-adv-x="0" 
d="M-580 602v28q0 47 23.5 82.5t63.5 56t89 20.5h171q50 0 90 -20.5t63 -56t23 -82.5v-28h-76q0 20 -4.5 39.5t-17 35.5t-35 26t-59.5 10h-139q-36 0 -58.5 -10t-35 -26t-17.5 -35.5t-5 -39.5h-76z" />
    <glyph glyph-name="sinMatraIi" unicode="&#xdd3;" horiz-adv-x="0" 
d="M-512 665v-28h-82v29q0 74 45.5 119.5t127.5 45.5h53v-76h-42q-53 0 -77.5 -23.5t-24.5 -66.5zM-252 831q98 0 148 -39t50 -115q0 -60 -35.5 -98t-89.5 -39q-39 0 -69.5 16.5t-47.5 46.5t-17 66v36h70v-30q0 -28 17 -45.5t43 -17.5q25 0 41 17.5t16 45.5q0 41 -30 60.5
t-86 19.5h-71v76h61z" />
    <glyph glyph-name="sinMatraU" unicode="&#xdd4;" horiz-adv-x="0" 
d="M-128 -205v334h80v-334h-80zM-496 -205v80h182v-80h-182zM-258 -205v80h140v-80h-140z" />
    <glyph glyph-name="sinMatraUu" unicode="&#xdd6;" horiz-adv-x="0" 
d="M-129 -205v328h80v-328h-80zM-129 -205q-31 17 -56.5 24t-43.5 8.5t-27 1.5v81q7 0 25 -1t44.5 -7.5t57.5 -22.5v-84zM-431 -201q-16 0 -33.5 6.5t-39.5 24.5v81q22 -17 40 -24.5t34 -7.5q21 0 39.5 8t37.5 15.5t41 7.5v-81q-22 0 -41 -7.5l-38 -15t-40 -7.5z" />
    <glyph glyph-name="sinMatraR" unicode="&#xdd8;" horiz-adv-x="338" 
d="M163 0q-38 0 -71.5 18t-54 51t-20.5 77q0 38 17 70.5t49.5 52t76.5 19.5h27v-69h-27q-30 0 -51.5 -21t-21.5 -52q0 -32 22.5 -53.5t53.5 -21.5q30 0 51.5 21.5t21.5 54.5v245q0 30 -8 52t-24 35t-42 13h-90v76h96q45 0 76 -21.5t47.5 -59.5t16.5 -88v-254
q0 -43 -20.5 -76t-53.5 -51t-71 -18z" />
    <glyph glyph-name="sinMatraE" unicode="&#xdd9;" horiz-adv-x="457" 
d="M188 -5q-54 0 -86 23t-47.5 57t-20 67.5t-4.5 55.5v173q0 29 7.5 62.5t27 63t54.5 48.5t89 19h41v-76h-36q-38 0 -61.5 -16t-33.5 -42.5t-10 -58.5v-173q0 -37 8.5 -66t30.5 -45t62 -16v-76h-21zM257 -5v76q49 0 70.5 23.5t21.5 63.5v73q0 22 -9 32t-22 12.5t-27 2.5h-58
v76h87q30 0 54 -8t38.5 -29.5t14.5 -61.5v-98q0 -43 -16 -80t-48 -59.5t-81 -22.5h-25zM351 413q-1 8 -5.5 20.5t-15.5 25t-30.5 21t-50.5 8.5v76h21q49 0 81.5 -21.5t51 -52.5t21.5 -59z" />
    <glyph glyph-name="sinMatraEe" unicode="&#xdda;" horiz-adv-x="738" 
d="M630 619v200h78v-200h-78zM188 -5q-54 0 -86 23t-47.5 57t-20 67.5t-4.5 55.5v173q0 29 7.5 62.5t27 63t54.5 48.5t89 19h41v-76h-36q-38 0 -61.5 -16t-33.5 -42.5t-10 -58.5v-173q0 -37 8.5 -66t30.5 -45t62 -16v-76h-21zM257 -5v76q49 0 70.5 23.5t21.5 63.5v73
q0 22 -9 32t-22 12.5t-27 2.5h-58v76h87q30 0 54 -8t38.5 -29.5t14.5 -61.5v-98q0 -43 -16 -80t-48 -59.5t-81 -22.5h-25zM351 413q-1 8 -5.5 20.5t-15.5 25t-30.5 21t-50.5 8.5v76h21q49 0 81.5 -21.5t51 -52.5t21.5 -59z" />
    <glyph glyph-name="sinMatraAi" unicode="&#xddb;" horiz-adv-x="914" 
d="M188 -5q-54 0 -86 23t-47.5 57t-20 67.5t-4.5 55.5v173q0 29 7.5 62.5t27 63t54.5 48.5t89 19h41v-76h-36q-38 0 -61.5 -16t-33.5 -42.5t-10 -58.5v-173q0 -37 8.5 -66t30.5 -45t62 -16v-76h-21zM257 -5v76q49 0 70.5 23.5t21.5 63.5v73q0 22 -9 32t-22 12.5t-27 2.5h-58
v76h87q30 0 54 -8t38.5 -29.5t14.5 -61.5v-98q0 -43 -16 -80t-48 -59.5t-81 -22.5h-25zM351 413q-1 8 -5.5 20.5t-15.5 25t-30.5 21t-50.5 8.5v76h21q49 0 81.5 -21.5t51 -52.5t21.5 -59zM645 -5q-54 0 -86 23t-47.5 57t-20 67.5t-4.5 55.5v173q0 29 7.5 62.5t27 63
t54.5 48.5t89 19h41v-76h-36q-38 0 -61.5 -16t-33.5 -42.5t-10 -58.5v-173q0 -37 8.5 -66t30.5 -45t62 -16v-76h-21zM714 -5v76q49 0 70.5 23.5t21.5 63.5v73q0 22 -9 32t-22 12.5t-27 2.5h-58v76h87q30 0 54 -8t38.5 -29.5t14.5 -61.5v-98q0 -43 -16 -80t-48 -59.5
t-81 -22.5h-25zM808 413q-1 8 -5.5 20.5t-15.5 25t-30.5 21t-50.5 8.5v76h21q49 0 81.5 -21.5t51 -52.5t21.5 -59z" />
    <glyph glyph-name="sinMatraO" unicode="&#xddc;" horiz-adv-x="724" 
d="M487 0v81h20q20 0 38.5 5t34 17.5t24.5 36t9 61.5v162q0 39 -9 63t-24.5 37.5t-34 18.5t-38.5 5h-20v81h20q67 0 108 -24.5t60 -69t19 -107.5v-166q0 -62 -19 -107t-60 -69.5t-108 -24.5h-20zM188 -5q-54 0 -86 23t-47.5 57t-20 67.5t-4.5 55.5v173q0 29 7.5 62.5t27 63
t54.5 48.5t89 19h41v-76h-36q-38 0 -61.5 -16t-33.5 -42.5t-10 -58.5v-173q0 -37 8.5 -66t30.5 -45t62 -16v-76h-21zM257 -5v76q49 0 70.5 23.5t21.5 63.5v73q0 22 -9 32t-22 12.5t-27 2.5h-58v76h87q30 0 54 -8t38.5 -29.5t14.5 -61.5v-98q0 -43 -16 -80t-48 -59.5
t-81 -22.5h-25zM351 413q-1 8 -5.5 20.5t-15.5 25t-30.5 21t-50.5 8.5v76h21q49 0 81.5 -21.5t51 -52.5t21.5 -59z" />
    <glyph glyph-name="sinMatraOo" unicode="&#xddd;" horiz-adv-x="791" 
d="M553 619v200h78v-200h-78zM554 0v81h20q20 0 38.5 5t34 17.5t24.5 36t9 61.5v162q0 39 -9 63t-24.5 37.5t-34 18.5t-38.5 5h-20v81h20q67 0 108 -24.5t60 -69t19 -107.5v-166q0 -62 -19 -107t-60 -69.5t-108 -24.5h-20zM188 -5q-54 0 -86 23t-47.5 57t-20 67.5t-4.5 55.5
v173q0 29 7.5 62.5t27 63t54.5 48.5t89 19h41v-76h-36q-38 0 -61.5 -16t-33.5 -42.5t-10 -58.5v-173q0 -37 8.5 -66t30.5 -45t62 -16v-76h-21zM257 -5v76q49 0 70.5 23.5t21.5 63.5v73q0 22 -9 32t-22 12.5t-27 2.5h-58v76h87q30 0 54 -8t38.5 -29.5t14.5 -61.5v-98
q0 -43 -16 -80t-48 -59.5t-81 -22.5h-25zM351 413q-1 8 -5.5 20.5t-15.5 25t-30.5 21t-50.5 8.5v76h21q49 0 81.5 -21.5t51 -52.5t21.5 -59z" />
    <glyph glyph-name="sinMatraAu" unicode="&#xdde;" horiz-adv-x="867" 
d="M661 -8q-43 0 -83 18t-65.5 54.5t-25.5 91.5v46h75v-47q0 -28 15 -48t38 -30t49 -10q25 0 47.5 9.5t36.5 29.5t14 49v294q0 21 -12 31.5t-27 10.5t-27.5 -10.5t-12.5 -31.5v-51q0 -46 -29.5 -70.5t-65.5 -24.5q-25 0 -48 11.5t-38 35.5t-15 60v154h61v-139
q0 -20 12.5 -30.5t26.5 -10.5q15 0 27 10.5t12 30.5v39q0 35 15 58t38.5 34.5t49.5 11.5q41 0 74 -29t34 -85v-298q0 -54 -25.5 -90.5t-65.5 -55t-85 -18.5zM188 -5q-54 0 -86 23t-47.5 57t-20 67.5t-4.5 55.5v173q0 29 7.5 62.5t27 63t54.5 48.5t89 19h41v-76h-36
q-38 0 -61.5 -16t-33.5 -42.5t-10 -58.5v-173q0 -37 8.5 -66t30.5 -45t62 -16v-76h-21zM257 -5v76q49 0 70.5 23.5t21.5 63.5v73q0 22 -9 32t-22 12.5t-27 2.5h-58v76h87q30 0 54 -8t38.5 -29.5t14.5 -61.5v-98q0 -43 -16 -80t-48 -59.5t-81 -22.5h-25zM351 413
q-1 8 -5.5 20.5t-15.5 25t-30.5 21t-50.5 8.5v76h21q49 0 81.5 -21.5t51 -52.5t21.5 -59z" />
    <glyph glyph-name="sinMatraLs" unicode="&#xddf;" horiz-adv-x="398" 
d="M192 -8q-43 0 -83 18t-65.5 54.5t-25.5 91.5v46h75v-47q0 -28 15 -48t38 -30t49 -10q25 0 47.5 9.5t36.5 29.5t14 49v294q0 21 -12 31.5t-27 10.5t-27.5 -10.5t-12.5 -31.5v-51q0 -46 -29.5 -70.5t-65.5 -24.5q-25 0 -48 11.5t-38 35.5t-15 60v154h61v-139
q0 -20 12.5 -30.5t26.5 -10.5q15 0 27 10.5t12 30.5v39q0 35 15 58t38.5 34.5t49.5 11.5q41 0 74 -29t34 -85v-298q0 -54 -25.5 -90.5t-65.5 -55t-85 -18.5z" />
    <glyph glyph-name="sinOnelith" unicode="&#xde7;" horiz-adv-x="790" 
d="M268 295q0 23 19.5 39.5t45.5 16.5t45.5 -16.5t19.5 -39.5q0 -22 -19.5 -38.5t-45.5 -16.5t-45.5 16.5t-19.5 38.5zM36 241q0 -75 36.5 -131.5t100 -87.5t143.5 -31q85 0 143 26.5t88 72.5t30 104q0 63 -31 106t-82.5 65t-113.5 22q-51 0 -86.5 -26t-35.5 -69
q0 -26 15.5 -46t39.5 -31.5t51 -11.5q26 0 50 11t39 30.5t15 46.5q0 15 -5.5 29.5t-17.5 26.5q44 -9 73 -37t29 -69q0 -45 -28.5 -75t-74 -45t-98.5 -15q-63 0 -111.5 23.5t-76 62.5t-27.5 85q0 44 20.5 78.5t55.5 58.5t80 36t96 12q72 0 138 -24.5t118 -79t82.5 -144.5
t31.5 -221h36q-2 136 -34.5 232.5t-88.5 157.5t-129 89.5t-154 28.5q-67 0 -124.5 -18t-101 -52t-67.5 -82t-24 -108z" />
    <glyph glyph-name="sinTwolith" unicode="&#xde8;" horiz-adv-x="1136" 
d="M1066 189q0 -81 -37.5 -129t-99.5 -48q-22 0 -37.5 4t-24.5 10v-33q11 -7 28.5 -11t34.5 -4q61 0 100.5 33t58.5 86t19 114q0 33 -4.5 71t-16.5 75t-35 67t-59 48t-89 18q-43 0 -80.5 -18.5t-65 -53.5t-39 -86.5t-2.5 -116.5l8 -58l28 -72q-3 26 -5 50t-2 46
q0 62 14.5 107t49 69.5t94.5 24.5q52 0 88 -25.5t55 -69t19 -98.5zM268 295q0 23 19.5 39.5t45.5 16.5t45.5 -16.5t19.5 -39.5q0 -22 -19.5 -38.5t-45.5 -16.5t-45.5 16.5t-19.5 38.5zM36 241q0 -75 36.5 -131.5t100 -87.5t143.5 -31q85 0 143 26.5t88 72.5t30 104
q0 63 -31 106t-82.5 65t-113.5 22q-51 0 -86.5 -26t-35.5 -69q0 -26 15.5 -46t39.5 -31.5t51 -11.5q26 0 50 11t39 30.5t15 46.5q0 15 -5.5 29.5t-17.5 26.5q44 -9 73 -37t29 -69q0 -45 -28.5 -75t-74 -45t-98.5 -15q-63 0 -111.5 23.5t-76 62.5t-27.5 85q0 44 20.5 78.5
t55.5 58.5t80 36t96 12q72 0 138 -24.5t118 -79t82.5 -144.5t31.5 -221h36q-2 136 -34.5 232.5t-88.5 157.5t-129 89.5t-154 28.5q-67 0 -124.5 -18t-101 -52t-67.5 -82t-24 -108z" />
    <glyph glyph-name="sinThreelith" unicode="&#xde9;" horiz-adv-x="1523" 
d="M1165 119q0 -61 36 -95.5t95 -34.5q80 0 121 62.5t41 175.5t-41 176.5t-121 63.5q-35 0 -65 -16t-48 -45.5t-18 -70.5v-13.5t1 -12.5h32q-1 5 -1 9v8q0 29 10 47t25.5 27t30.5 9q26 0 45 -18.5t28.5 -58.5t9.5 -105q0 -64 -9.5 -104.5t-28.5 -58t-45 -18.5
q-18 0 -33.5 8.5t-24 27t-8.5 46.5v9.5t1 8.5h-32q-1 -7 -1 -13.5v-13.5zM268 295q0 23 19.5 39.5t45.5 16.5t45.5 -16.5t19.5 -39.5q0 -22 -19.5 -38.5t-45.5 -16.5t-45.5 16.5t-19.5 38.5zM36 241q0 -75 36.5 -131.5t100 -87.5t143.5 -31q85 0 143 26.5t88 72.5t30 104
q0 63 -31 106t-82.5 65t-113.5 22q-51 0 -86.5 -26t-35.5 -69q0 -26 15.5 -46t39.5 -31.5t51 -11.5q26 0 50 11t39 30.5t15 46.5q0 15 -5.5 29.5t-17.5 26.5q44 -9 73 -37t29 -69q0 -45 -28.5 -75t-74 -45t-98.5 -15q-63 0 -111.5 23.5t-76 62.5t-27.5 85q0 44 20.5 78.5
t55.5 58.5t80 36t96 12q72 0 138 -24.5t118 -79t82.5 -144.5t31.5 -221h36q-2 136 -34.5 232.5t-88.5 157.5t-129 89.5t-154 28.5q-67 0 -124.5 -18t-101 -52t-67.5 -82t-24 -108zM1066 189q0 -81 -37.5 -129t-99.5 -48q-22 0 -37.5 4t-24.5 10v-33q11 -7 28.5 -11t34.5 -4
q61 0 100.5 33t58.5 86t19 114q0 33 -4.5 71t-16.5 75t-35 67t-59 48t-89 18q-43 0 -80.5 -18.5t-65 -53.5t-39 -86.5t-2.5 -116.5l8 -58l28 -72q-3 26 -5 50t-2 46q0 62 14.5 107t49 69.5t94.5 24.5q52 0 88 -25.5t55 -69t19 -98.5z" />
    <glyph glyph-name="sinFourlith" unicode="&#xdea;" horiz-adv-x="691" 
d="M27 193q0 -56 25.5 -94.5t69.5 -62t100.5 -34t117.5 -10.5q56 0 109 10.5t95.5 34t67.5 61.5t25 92q0 51 -20 84t-53.5 52t-73.5 26.5t-81 7.5q-11 0 -19.5 -1t-16.5 -2q-3 17 -3 29q0 35 23 60.5t85 25.5q39 0 64 -15.5t25 -44.5q0 -23 -16.5 -37.5t-42.5 -14.5
q-28 0 -42.5 21t-14.5 50q0 41 12.5 73t29.5 54.5t32 35.5q24 21 47.5 34t43.5 22.5t32 19t12 22.5q0 10 -7.5 20t-26.5 10q-17 0 -44.5 -12.5t-56.5 -39.5q-26 -24 -51 -59.5t-41 -81t-16 -97.5q0 -24 9 -48t28.5 -40t51.5 -16q38 0 59 13t29.5 32t8.5 36q0 35 -20 56
t-47.5 30.5t-52.5 9.5q-40 0 -74 -11.5t-54.5 -38t-20.5 -72.5q0 -26 9 -55q13 1 29.5 3t35.5 2q68 0 106 -16t53 -40.5t15 -48.5q0 -33 -21 -56.5t-56.5 -37.5t-80 -20t-91.5 -6q-46 0 -90 6t-80.5 19.5t-58 36t-21.5 56.5q0 17 8 35.5t27.5 35t54 26.5t86.5 10
q8 0 18.5 -0.5t20.5 -1.5q3 11 4 23t1 22q0 60 -37 93t-96 33q-28 0 -54.5 -8.5t-44 -27t-17.5 -47.5q0 -22 13 -35t32 -13q22 0 33.5 12t21.5 33q6 14 20 25t33 11q22 0 35 -10.5t19 -26.5t6 -32q0 -7 -0.5 -12t-1.5 -11q-7 1 -10.5 1h-20.5q-66 0 -112 -22.5t-70.5 -60.5
t-24.5 -85z" />
    <glyph glyph-name="sinFivelith" unicode="&#xdeb;" horiz-adv-x="536" 
d="M282 -21q24 0 47.5 2t50.5 10q-41 -50 -64.5 -92t-23.5 -84q0 -34 14 -61.5t43 -43.5t73 -17q18 0 34.5 2t31.5 5v34q-37 11 -61 28.5t-35 42.5t-11 58t11 63.5t27.5 57t34.5 48t31 37.5l-28 21q-35 -40 -65.5 -55t-65.5 -15q-41 0 -77.5 20.5t-58.5 58t-22 86.5
q0 74 40 107.5t119 33.5h126q-16 85 -56.5 125.5t-116.5 40.5q-49 0 -81 -20t-32 -52q0 -19 12.5 -31.5t34.5 -12.5q15 0 28.5 7.5t22.5 26.5q8 17 21 26.5t30 9.5q35 0 59.5 -25t33.5 -66h-140q-106 0 -167 -40.5t-61 -134.5q0 -89 62.5 -145t178.5 -56z" />
    <glyph glyph-name="sinSixlith" unicode="&#xdec;" horiz-adv-x="828" 
d="M402 367q36 0 80.5 -4.5t88.5 -17t81 -34.5t59 -57.5t22 -85.5q0 -49 -15.5 -82t-40.5 -52t-52.5 -28t-51.5 -10v-24q34 0 70 11t66.5 36t49.5 65.5t19 100.5q0 73 -26.5 124.5t-69 85.5t-93 53t-100 26.5t-87.5 7.5q-39 0 -86.5 -9t-95.5 -29t-88.5 -54.5t-65 -86
t-24.5 -122.5q0 -57 18.5 -97t47.5 -64.5t63 -36t65 -11.5q68 0 104.5 35.5t36.5 94.5v14t-1 13h-32q1 -4 1 -8.5v-9.5q0 -50 -27.5 -78.5t-81.5 -28.5q-20 0 -45 8t-48 25.5t-37.5 47t-14.5 73.5q0 48 19 83.5t52 60t73.5 39t83.5 20.5t83 6zM573 -28q29 0 53.5 14.5
t39 38.5t14.5 53t-14.5 53.5t-39 39t-53.5 14.5t-53 -14.5t-38.5 -39t-14.5 -53.5q0 -43 31.5 -74.5t74.5 -31.5zM573 149q29 0 49.5 -21t20.5 -49q0 -29 -20.5 -49.5t-49.5 -20.5t-49.5 20.5t-20.5 49.5q0 28 20.5 49t49.5 21z" />
    <glyph glyph-name="sinSevenlith" unicode="&#xded;" horiz-adv-x="724" 
d="M284 487q-56 0 -92 -20t-36 -60q0 -18 13 -32t35 -14q23 0 35 11.5t19 22.5q12 20 28.5 29.5t38.5 9.5q29 0 51 -15t35.5 -39t14.5 -54h-114q-84 0 -145.5 -31.5t-95 -86t-33.5 -124.5q0 -68 28 -122.5t77 -94t112 -60.5t132 -21q67 0 124 20t99 56.5t65 86t23 108.5h-35
q0 -47 -18 -87t-50.5 -69.5t-75.5 -45.5t-91 -16q-75 0 -134.5 32.5t-94 91t-34.5 136.5q0 91 52.5 143.5t161.5 52.5h86v4v4q0 56 -22.5 97t-63 64t-95.5 23z" />
    <glyph glyph-name="sinEightlith" unicode="&#xdee;" horiz-adv-x="630" 
d="M47 189q0 -73 33.5 -129.5t92 -89t131.5 -32.5q81 0 143.5 36.5t98 97t35.5 132.5q0 50 -15 90.5t-47 75.5q-36 39 -80 59t-84 22q26 7 59 19.5t65 27t54 26.5q55 30 77.5 56t22.5 49q0 15 -11 22t-24 7q-17 0 -29.5 -9.5t-25 -25.5t-28.5 -34.5t-40 -35.5
q-45 -34 -90 -55t-87 -35.5t-81 -30.5q-46 -19 -85 -51.5t-62 -79.5t-23 -112zM94 226q0 44 20 80.5t53.5 62.5t74 40t79.5 14q55 0 96.5 -20t65.5 -57t24 -91q0 -61 -28.5 -106t-78 -70t-111.5 -25q-63 0 -106.5 23.5t-66 63t-22.5 85.5z" />
    <glyph glyph-name="sinNinelith" unicode="&#xdef;" horiz-adv-x="1172" 
d="M710 671q0 33 22.5 54.5t54.5 21.5t55.5 -22t23.5 -54q0 -28 -23 -50.5t-56 -22.5q-34 0 -55.5 22.5t-21.5 50.5zM299 663q0 -44 34 -81t98 -52l7 12q-59 20 -82.5 50t-23.5 53q0 48 38 77t98.5 42.5t128.5 13.5q34 0 66.5 -3.5t56.5 -8.5t31 -9l18 20q-31 0 -52 -16.5
t-32 -41t-11 -49.5q0 -30 16 -54t41.5 -38t55.5 -14q48 0 81.5 31.5t33.5 78.5q0 46 -28 81t-73.5 59t-99.5 36t-105 12q-79 0 -135.5 -19t-92.5 -49t-52.5 -64.5t-16.5 -66.5zM268 295q0 23 19.5 39.5t45.5 16.5t45.5 -16.5t19.5 -39.5q0 -22 -19.5 -38.5t-45.5 -16.5
t-45.5 16.5t-19.5 38.5zM36 241q0 -75 36.5 -131.5t100 -87.5t143.5 -31q85 0 143 26.5t88 72.5t30 104q0 63 -31 106t-82.5 65t-113.5 22q-51 0 -86.5 -26t-35.5 -69q0 -26 15.5 -46t39.5 -31.5t51 -11.5q26 0 50 11t39 30.5t15 46.5q0 14 -5.5 29t-17.5 27q44 -9 73 -37
t29 -69q0 -45 -28.5 -75t-74 -45t-98.5 -15q-63 0 -111.5 23.5t-76 62.5t-27.5 85q0 44 20.5 78.5t55.5 58.5t80 36t96 12q72 0 138 -24.5t118 -79t82.5 -144.5t31.5 -221h36q-2 136 -34.5 232.5t-88.5 157.5t-129 89.5t-154 28.5q-67 0 -124.5 -18t-101 -52t-67.5 -82
t-24 -108zM1066 189q0 -81 -37.5 -129t-99.5 -48q-22 0 -37.5 4t-24.5 10v-33q11 -7 28.5 -11t34.5 -4q61 0 100.5 33t58.5 86t19 114q0 33 -4.5 71t-16.5 75t-35 67t-59 48t-89 18q-43 0 -80.5 -18.5t-65 -53.5t-39 -86.5t-2.5 -116.5l8 -58l28 -72q-3 26 -5 50t-2 46
q0 62 14.5 107t49 69.5t94.5 24.5q52 0 88 -25.5t55 -69t19 -98.5z" />
    <glyph glyph-name="sinMatraRr" unicode="&#xdf2;" horiz-adv-x="677" 
d="M163 0q-38 0 -71.5 18t-54 51t-20.5 77q0 38 17 70.5t49.5 52t76.5 19.5h27v-69h-27q-30 0 -51.5 -21t-21.5 -52q0 -32 22.5 -53.5t53.5 -21.5q30 0 51.5 21.5t21.5 54.5v245q0 30 -8 52t-24 35t-42 13h-90v76h96q45 0 76 -21.5t47.5 -59.5t16.5 -88v-254
q0 -43 -20.5 -76t-53.5 -51t-71 -18zM501 0q-38 0 -71.5 18t-54 51t-20.5 77q0 38 17 70.5t49.5 52t76.5 19.5h27v-69h-27q-30 0 -51.5 -21t-21.5 -52q0 -32 22.5 -53.5t53.5 -21.5q30 0 51.5 21.5t21.5 54.5v245q0 30 -8 52t-24 35t-42 13h-90v76h96q45 0 76 -21.5
t47.5 -59.5t16.5 -88v-254q0 -43 -20.5 -76t-53.5 -51t-71 -18z" />
    <glyph glyph-name="sinMatraLl" unicode="&#xdf3;" horiz-adv-x="398" 
d="M192 -8q-43 0 -83 18t-65.5 54.5t-25.5 91.5v46h75v-47q0 -28 15 -48t38 -30t49 -10q25 0 47.5 9.5t36.5 29.5t14 49v294q0 21 -12 31.5t-27 10.5t-27.5 -10.5t-12.5 -31.5v-51q0 -46 -29.5 -70.5t-65.5 -24.5q-25 0 -48 11.5t-38 35.5t-15 60v154h61v-139
q0 -20 12.5 -30.5t26.5 -10.5q15 0 27 10.5t12 30.5v39q0 35 15 58t38.5 34.5t49.5 11.5q41 0 74 -29t34 -85v-298q0 -54 -25.5 -90.5t-65.5 -55t-85 -18.5z" />
    <glyph glyph-name="sinkundaliya" unicode="&#xdf4;" horiz-adv-x="1429" 
d="M46 0v69h178q54 0 92 7.5t68 28.5t59 62t64.5 108.5t85.5 167.5l61 -33q-53 -106 -92 -179t-72 -118.5t-68.5 -70t-82.5 -33.5t-115 -9h-178zM585 0l-62 34l216 425l61 -34zM725 0l-63 34l164 317l62 -33zM865 0l-62 35l112 216q51 -37 98.5 -69.5t92 -57.5t86.5 -40
t82 -15h109v-69h-110q-61 0 -116 19t-108 52t-107 73z" />
    <glyph glyph-name="uni200C" unicode="&#x200c;" horiz-adv-x="0" 
d="M-20 9v752h40v-752h-40z" />
    <glyph glyph-name="uni200D" unicode="&#x200d;" horiz-adv-x="0" 
d="M-145 489l-22 33l323 223l23 -33zM-20 9v620h40v-620h-40zM145 489l-323 223l23 33l323 -223z" />
    <glyph glyph-name="endash" unicode="&#x2013;" horiz-adv-x="532" 
d="M26 257v74h480v-74h-480z" />
    <glyph glyph-name="emdash" unicode="&#x2014;" horiz-adv-x="906" 
d="M26 256v74h854v-74h-854z" />
    <glyph glyph-name="quoteleft" unicode="&#x2018;" horiz-adv-x="147" 
d="M36 465v271h75v-271h-75z" />
    <glyph glyph-name="quoteright" unicode="&#x2019;" horiz-adv-x="147" 
d="M36 465v271h75v-271h-75z" />
    <glyph glyph-name="quotesinglbase" unicode="&#x201a;" horiz-adv-x="147" 
d="M36 465v271h75v-271h-75z" />
    <glyph glyph-name="quotedblleft" unicode="&#x201c;" horiz-adv-x="275" 
d="M164 465v271h75v-271h-75zM36 465v271h75v-271h-75z" />
    <glyph glyph-name="quotedblright" unicode="&#x201d;" horiz-adv-x="275" 
d="M164 465v271h75v-271h-75zM36 465v271h75v-271h-75z" />
    <glyph glyph-name="quotedblbase" unicode="&#x201e;" horiz-adv-x="280" 
d="M138 -23l37 152h75l-37 -152h-75zM18 -23l37 152h75l-37 -152h-75z" />
    <glyph glyph-name="dagger" unicode="&#x2020;" horiz-adv-x="453" 
d="M186 -56v532h-160v73h160v215h80v-215h161v-73h-161v-532h-80z" />
    <glyph glyph-name="daggerdbl" unicode="&#x2021;" horiz-adv-x="453" 
d="M187 -56v213h-161v73h161v248h-161v73h161v213h80v-213h160v-73h-160v-248h160v-73h-160v-213h-80z" />
    <glyph glyph-name="bullet" unicode="&#x2022;" horiz-adv-x="352" 
d="M176 249q-27 0 -48.5 12.5t-34.5 34t-13 49.5q0 27 13 48.5t34.5 34.5t48.5 13t48.5 -13t34.5 -34.5t13 -48.5t-13 -49t-34.5 -34.5t-48.5 -12.5z" />
    <glyph glyph-name="ellipsis" unicode="&#x2026;" horiz-adv-x="638" 
d="M550 -22q-18 0 -31.5 14t-13.5 32q0 19 13.5 32.5t31.5 13.5q20 0 33 -13.5t13 -32.5q0 -18 -13 -32t-33 -14zM88 -22q-19 0 -32.5 14t-13.5 32q0 19 13.5 32.5t32.5 13.5t32 -13.5t13 -32.5q0 -18 -13 -32t-32 -14zM319 -22q-18 0 -31.5 14t-13.5 32q0 19 13.5 32.5
t31.5 13.5q20 0 33 -13.5t13 -32.5q0 -18 -13 -32t-33 -14z" />
    <glyph glyph-name="perthousand" unicode="&#x2030;" horiz-adv-x="897" 
d="M79 0l432 700h52l-429 -700h-55zM121 352q-14 1 -31.5 7.5t-34 25t-27 53t-10.5 90.5q0 69 16.5 106.5t41 52t45.5 14.5v-48q-13 -1 -25.5 -13.5t-20 -36t-8.5 -59.5v-22q0 -45 9 -71t21 -37.5t24 -13.5v-48zM488 0q-14 1 -31.5 7.5t-34 25t-27 53t-10.5 90.5
q0 69 16.5 106.5t41 52t45.5 14.5v-48q-13 -1 -25.5 -13.5t-20 -36t-8.5 -59.5v-22q0 -46 9 -71.5t21 -37t24 -13.5v-48zM150 352v48q12 2 24.5 13.5t21 37.5t8.5 71v22q0 36 -8 59.5t-20 36t-26 13.5v48q22 0 46 -14.5t40.5 -52t16.5 -106.5q0 -56 -10.5 -90.5t-27 -53
t-34 -25t-31.5 -7.5zM517 0v48q12 2 24.5 13.5t21 37t8.5 71.5v22q0 36 -8 59.5t-20 36t-26 13.5v48q22 0 46 -14.5t40.5 -52t16.5 -106.5q0 -56 -10.5 -90.5t-27 -53t-34 -25t-31.5 -7.5zM746 0q-13 1 -30.5 7.5t-34 25t-27.5 53t-11 90.5q0 69 17 106.5t41 52t46 14.5v-48
q-13 -1 -25.5 -13.5t-20.5 -36t-8 -59.5v-22q0 -46 8.5 -71.5t21 -37t23.5 -13.5v-48zM776 0v48q12 2 24.5 13.5t21 37t8.5 71.5v22q0 36 -8 59.5t-20.5 36t-25.5 13.5v48q22 0 46 -14.5t40.5 -52t16.5 -106.5q0 -56 -11 -90.5t-27 -53t-34 -25t-31 -7.5z" />
    <glyph glyph-name="guilsinglleft" unicode="&#x2039;" horiz-adv-x="338" 
d="M187 79l-131 213l131 208h92l-131 -208l131 -213h-92z" />
    <glyph glyph-name="guilsinglright" unicode="&#x203a;" horiz-adv-x="338" 
d="M57 79l131 213l-131 208h92l131 -208l-131 -213h-92z" />
    <glyph glyph-name="fraction" unicode="&#x2044;" horiz-adv-x="505" 
d="M10 -1l432 702h52l-429 -702h-55z" />
    <glyph glyph-name="uni2074" unicode="&#x2074;" horiz-adv-x="271" 
d="M26 440v42l117 200v-83l-67 -117h67v-42h-117zM165 385v315h46v-218h24v-42h-24v-55h-46z" />
    <glyph glyph-name="Euro" unicode="&#x20ac;" horiz-adv-x="523" 
d="M445 489v23t-3 21q-9 32 -27 52t-38.5 29t-40.5 9v80q38 -1 71.5 -16t59.5 -41t40.5 -60t14.5 -71zM285 -2q-48 1 -83.5 19t-59.5 46.5t-36 60t-13 57.5v91h-42v45h42v60h-42v45h42v87q0 30 12.5 63.5t36.5 63t60 48t83 19.5v-80q-30 0 -51.5 -11t-35 -28t-20 -35.5
t-6.5 -34.5v-92h237v-45h-237v-60h237v-45h-237v-83q0 -18 7 -37.5t21 -37t35 -28t50 -10.5v-78zM336 -2v79q21 1 43 10t39 27.5t24 48.5q3 13 4 26t1 20l75 -25q0 -37 -15.5 -70t-42.5 -59t-60 -41.5t-68 -15.5z" />
    <glyph glyph-name="uni2113" unicode="&#x2113;" horiz-adv-x="189" 
d="M218 -6q-22 0 -50 9t-52.5 29.5t-41 56t-16.5 89.5v521h77v-521q0 -35 10 -56.5t24.5 -31.5t28 -13t20.5 -3v-80z" />
    <glyph glyph-name="trademark" unicode="&#x2122;" horiz-adv-x="439" 
d="M77 485v184h-51v30h135v-30h-51v-184h-33zM183 485v152h4l29 -67v-85h-33zM266 485l-82 198v16h27l65 -157l50 110h6v-63l-45 -104h-21zM345 485v214h32v-214h-32z" />
    <glyph glyph-name="uni2126" unicode="&#x2126;" horiz-adv-x="441" 
d="M24 -1v44h67q-26 23 -39 51t-13 48v235q0 19 10 43t30.5 46t51.5 36.5t72 14.5v-70q-31 0 -51.5 -13.5t-30.5 -32.5t-10 -37v-209q0 -17 11 -37t32 -34t49 -14v-71h-179zM250 -1v71q30 0 49.5 13.5t29.5 33t10 37.5v210q0 17 -10 36t-29.5 33t-49.5 14v70q41 0 71 -14.5
t50 -36.5t30 -46t10 -43v-235q0 -20 -13 -48t-39 -51h67v-44h-176z" />
    <glyph glyph-name="estimated" unicode="&#x212e;" horiz-adv-x="531" 
d="M224 -1q-57 0 -101 28.5t-68.5 75t-24.5 102.5v295q0 53 24.5 99.5t68.5 76t101 29.5v-79q-31 0 -56.5 -17t-41.5 -49t-16 -79v-118h282v118q0 70 -34 107t-79 38v79q57 0 100.5 -29.5t68 -76t24.5 -98.5v-216h-362v-61q0 -75 34.5 -110t79.5 -36v-79zM279 -1v80
q27 1 51.5 13t41.5 31t20 42l80 -22q-8 -40 -36 -73t-69 -52t-88 -19z" />
    <glyph glyph-name="partialdiff" unicode="&#x2202;" horiz-adv-x="420" 
d="M233 -1v70q30 0 49.5 14.5t29 34.5t9.5 36v211q0 19 -10.5 37.5t-30 31t-47.5 12.5v70q27 0 48 -7.5t36 -21.5q0 53 -20.5 88.5t-56 56.5t-79.5 29.5t-91 8.5v44q110 0 181.5 -26.5t106 -85t34.5 -155.5v-306q0 -18 -9.5 -42.5t-29.5 -47t-49.5 -37.5t-70.5 -15zM192 -1
q-42 0 -73 15t-51 38t-30 47t-10 42v235q0 18 10 42t30.5 46.5t51.5 37t72 14.5v-70q-31 0 -51.5 -14.5t-30.5 -34.5t-10 -38v-205q0 -17 11 -37t32 -34t49 -14v-70z" />
    <glyph glyph-name="uni2206" unicode="&#x2206;" horiz-adv-x="544" 
d="M50 0l160 599h8l30 -119l-107 -406h259l-166 630h71l189 -704h-444z" />
    <glyph glyph-name="product" unicode="&#x220f;" horiz-adv-x="488" 
d="M67 -140v761h-54v75h462v-75h-54v-761h-74v761h-206v-761h-74z" />
    <glyph glyph-name="summation" unicode="&#x2211;" horiz-adv-x="605" 
d="M30 -140v84l262 353l-262 344v61h56l308 -407l-263 -352l397 1v-84h-498zM208 622l-55 71v9h375v-80h-320z" />
    <glyph glyph-name="minus" unicode="&#x2212;" horiz-adv-x="416" 
d="M44 257v74h316v-74h-316z" />
    <glyph glyph-name="uni2215" unicode="&#x2215;" horiz-adv-x="505" 
d="M10 -1l432 702h52l-429 -702h-55z" />
    <glyph glyph-name="uni2219" unicode="&#x2219;" horiz-adv-x="250" 
d="M89 365q-22 0 -37.5 15.5t-15.5 37.5t15.5 38t37.5 16q23 0 38.5 -16t15.5 -38t-15.5 -37.5t-38.5 -15.5z" />
    <glyph glyph-name="radical" unicode="&#x221a;" horiz-adv-x="591" 
d="M334 -1l-199 489l-108 -38l-21 63l180 65l178 -441l137 682h80l-162 -820h-85z" />
    <glyph glyph-name="infinity" unicode="&#x221e;" horiz-adv-x="798" 
d="M235 -1v70q20 0 38 10t26 30l64 151l-63 147q-8 20 -26.5 29.5t-38.5 9.5v70q44 0 79 -22t49 -56l39 -93l38 93q15 33 50 55.5t78 22.5v-70q-20 0 -38 -9.5t-27 -29.5l-62 -147l63 -151q9 -19 26.5 -29t37.5 -10v-70q-43 0 -76 22t-50 56l-40 97l-41 -98
q-16 -33 -49.5 -55.5t-76.5 -22.5zM194 -1q-42 0 -73 15t-51 38t-30 47t-10 42v235q0 18 10 42t30.5 46.5t51.5 37t72 14.5v-70q-31 0 -51.5 -13.5t-30.5 -32.5t-10 -37v-209q0 -17 11 -36.5t32 -34t49 -14.5v-70zM609 -1v70q29 0 49 14.5t31 34.5t11 35v210q0 19 -10 37.5
t-30 32t-51 13.5v70q41 0 71.5 -14.5t50.5 -37t30 -46.5t10 -42v-235q0 -18 -10 -42.5t-30 -47t-50 -37.5t-72 -15z" />
    <glyph glyph-name="integral" unicode="&#x222b;" horiz-adv-x="307" 
d="M13 -185v43q11 -3 30 0t38 17t32.5 43.5t13.5 78.5v628q0 54 17.5 90.5t43.5 58t55 28.5t51 3v-43q-13 5 -31 1.5t-37 -18t-31.5 -43.5t-12.5 -77v-628q0 -54 -17 -91t-43.5 -58.5t-55.5 -29t-53 -3.5z" />
    <glyph glyph-name="approxequal" unicode="&#x2248;" horiz-adv-x="568" 
d="M381 365q-34 0 -62 11t-53.5 25.5t-51.5 25.5t-57 11q-22 0 -48.5 -8t-58.5 -28v75q34 20 62 27.5t51 7.5q33 0 59.5 -11t52 -25.5t52.5 -25.5t60 -11q26 0 58.5 10t72.5 35v-73q-42 -25 -75.5 -35.5t-61.5 -10.5zM381 185q-34 0 -62 11t-53.5 25.5t-51.5 25.5t-57 11
q-22 0 -48.5 -8t-58.5 -28v75q34 20 62 27.5t51 7.5q33 0 59.5 -11t52 -25.5t52.5 -25.5t60 -11q26 0 58.5 10t72.5 35v-73q-42 -25 -75.5 -35.5t-61.5 -10.5z" />
    <glyph glyph-name="notequal" unicode="&#x2260;" horiz-adv-x="418" 
d="M73 -72l175 739h74l-174 -739h-75zM50 325v75h318v-75h-318zM50 183v75h318v-75h-318z" />
    <glyph glyph-name="lessequal" unicode="&#x2264;" horiz-adv-x="438" 
d="M400 148l-378 190v42l378 186v-74l-272 -133l272 -136v-75zM28 31v66h380v-66h-380z" />
    <glyph glyph-name="greaterequal" unicode="&#x2265;" horiz-adv-x="438" 
d="M30 149v74l272 136l-272 133v75l378 -187v-42zM28 32v65h380v-65h-380z" />
    <glyph glyph-name="lozenge" unicode="&#x25ca;" horiz-adv-x="422" 
d="M183 -2l-186 354l189 354h45l187 -354l-190 -354h-45zM205 97l138 255l-135 255l-135 -255z" />
    <glyph glyph-name="uni25CC" unicode="&#x25cc;" horiz-adv-x="636" 
d="M442 442q-17 0 -29.5 12.5t-12.5 29.5q0 18 12.5 30t29.5 12q18 0 30 -12t12 -30q0 -17 -12 -29.5t-30 -12.5zM202 30q-17 0 -29.5 12.5t-12.5 29.5q0 18 12.5 30t29.5 12q18 0 30 -12t12 -30q0 -17 -12 -29.5t-30 -12.5zM116 116q-17 0 -29.5 12.5t-12.5 29.5
q0 18 12.5 30t29.5 12q18 0 30 -12t12 -30q0 -17 -12 -29.5t-30 -12.5zM322 -2q-17 0 -29.5 12.5t-12.5 29.5q0 18 12.5 30t29.5 12q18 0 30 -12t12 -30q0 -17 -12 -29.5t-30 -12.5zM84 236q-17 0 -29.5 12.5t-12.5 29.5q0 18 12.5 30t29.5 12q18 0 30 -12t12 -30
q0 -17 -12 -29.5t-30 -12.5zM116 356q-17 0 -29.5 12.5t-12.5 29.5q0 18 12.5 30t29.5 12q18 0 30 -12t12 -30q0 -17 -12 -29.5t-30 -12.5zM442 30q-17 0 -29.5 12.5t-12.5 29.5q0 18 12.5 30t29.5 12q18 0 30 -12t12 -30q0 -17 -12 -29.5t-30 -12.5zM202 442
q-17 0 -29.5 12.5t-12.5 29.5q0 18 12.5 30t29.5 12q18 0 30 -12t12 -30q0 -17 -12 -29.5t-30 -12.5zM528 116q-17 0 -29.5 12.5t-12.5 29.5q0 18 12.5 30t29.5 12q18 0 30 -12t12 -30q0 -17 -12 -29.5t-30 -12.5zM560 236q-17 0 -29.5 12.5t-12.5 29.5q0 18 12.5 30
t29.5 12q18 0 30 -12t12 -30q0 -17 -12 -29.5t-30 -12.5zM322 474q-17 0 -29.5 12.5t-12.5 29.5q0 18 12.5 30t29.5 12q18 0 30 -12t12 -30q0 -17 -12 -29.5t-30 -12.5zM528 356q-17 0 -29.5 12.5t-12.5 29.5q0 18 12.5 30t29.5 12q18 0 30 -12t12 -30q0 -17 -12 -29.5
t-30 -12.5z" />
    <glyph glyph-name="u111E1" unicode="&#x111e1;" horiz-adv-x="854" 
d="M724 478v-485h34v485h-34zM267 295q0 23 19.5 39.5t46.5 16.5q25 0 44.5 -16.5t19.5 -39.5q0 -22 -19.5 -38.5t-44.5 -16.5q-27 0 -46.5 16.5t-19.5 38.5zM35 241q0 -75 36.5 -131.5t100 -87.5t143.5 -31q85 0 143 26.5t88 72.5t30 104q0 63 -31 106t-82 65t-114 22
q-51 0 -86.5 -26t-35.5 -69q0 -26 15.5 -46t40 -31.5t50.5 -11.5t50 11t39 30.5t15 46.5q0 14 -5.5 29t-17.5 27q44 -9 73 -37t29 -69q0 -45 -28.5 -75t-74 -45t-98.5 -15q-63 0 -111.5 23.5t-76 62.5t-27.5 85q0 44 20.5 78.5t55.5 58.5t80 36t96 12q72 0 138 -24.5
t118 -79t82.5 -144.5t31.5 -221h36q-2 136 -34.5 232.5t-88.5 157.5t-129 89.5t-154 28.5q-67 0 -124.5 -18t-100.5 -52t-67.5 -82t-24.5 -108z" />
    <glyph glyph-name="u111E2" unicode="&#x111e2;" horiz-adv-x="1126" 
d="M350 323q26 0 45.5 -16t19.5 -39q0 -22 -19.5 -38.5t-45.5 -16.5t-45.5 16.5t-19.5 38.5q0 23 19.5 39t45.5 16zM53 215q0 -74 35.5 -130.5t98.5 -88.5t145 -32q80 0 138.5 25t90.5 70.5t32 107.5q0 58 -28.5 101.5t-79 67.5t-119.5 24q-52 0 -86.5 -26.5t-34.5 -67.5
q0 -37 31.5 -63.5t74.5 -26.5q44 0 74 25.5t30 62.5q0 16 -6 30.5t-17 25.5q46 -9 73.5 -38t27.5 -68q0 -41 -25 -71t-70.5 -47t-105.5 -17t-108.5 22.5t-77 61.5t-28.5 87q0 55 32 96.5t89 65.5t129 24q83 0 141.5 -26.5t101.5 -85t80 -156.5q37 -93 68.5 -152.5
t62.5 -91.5t64 -44.5t72 -12.5q61 0 105 41.5t67 110.5l-35 17q-24 -38 -59 -60.5t-79 -22.5q-51 0 -90.5 23t-73.5 73.5t-67 132.5q-41 104 -90 168.5t-114 94.5t-154 30q-92 0 -163.5 -33.5t-111.5 -92t-40 -134.5z" />
    <glyph glyph-name="u111E3" unicode="&#x111e3;" horiz-adv-x="1356" 
d="M727 187l13 -174l17 -20v151q0 34 7.5 57.5t23 36.5t37.5 13q35 0 54.5 -26t36.5 -71q31 -78 57.5 -128.5t53.5 -79.5t58 -40.5t69 -11.5q62 0 106 41.5t66 110.5l-35 17q-23 -38 -58.5 -60.5t-79.5 -22.5q-51 0 -89 23t-70 73.5t-64 132.5q-14 35 -29.5 60t-35.5 38.5
t-48 13.5q-46 0 -71 -36.5t-19 -97.5zM266 295q0 23 19.5 39.5t45.5 16.5t45.5 -16.5t19.5 -39.5q0 -22 -19.5 -38.5t-45.5 -16.5t-45.5 16.5t-19.5 38.5zM34 241q0 -75 36.5 -131.5t100 -87.5t143.5 -31q85 0 143 26.5t88 72.5t30 104q0 63 -31 106t-82.5 65t-113.5 22
q-51 0 -86.5 -26t-35.5 -69q0 -26 15.5 -46t39.5 -31.5t51 -11.5q26 0 50 11t39 30.5t15 46.5q0 15 -5.5 29.5t-17.5 26.5q44 -9 73 -37t29 -69q0 -45 -28.5 -75t-74 -45t-98.5 -15q-63 0 -111.5 23.5t-76 62.5t-27.5 85q0 44 20.5 78.5t55.5 58.5t80 36t96 12
q72 0 138 -24.5t118 -79t82.5 -144.5t31.5 -221h36q-2 136 -34.5 232.5t-88.5 157.5t-129 89.5t-154 28.5q-67 0 -124.5 -18t-101 -52t-67.5 -82t-24 -108z" />
    <glyph glyph-name="u111E4" unicode="&#x111e4;" horiz-adv-x="944" 
d="M204 485q-49 0 -86.5 -31t-58 -87t-20.5 -131q0 -78 24 -137t66.5 -91.5t98.5 -32.5q25 0 45 8v31q-10 -4 -19.5 -5.5t-19.5 -1.5q-45 0 -78 24.5t-51.5 70.5t-18.5 107q0 75 32.5 118t88.5 43q54 0 83 -38.5t29 -106.5v-59h38v59q0 71 28 108t80 37q53 0 80.5 -37
t27.5 -108v-59h38v59q0 68 29 106.5t81 38.5q60 0 88.5 -45.5t28.5 -143.5v-382h-61q-44 0 -73 23.5t-29 58.5q0 38 19 64.5t58 45.5q6 3 9 5t10.5 5t28 11.5t61.5 24.5l-12 29q-25 -10 -53 -20.5t-66 -27.5q-69 -30 -101.5 -66.5t-32.5 -84.5q0 -56 46.5 -88.5t124.5 -32.5
h112v498q0 120 -39.5 180.5t-116.5 60.5q-63 0 -100 -42.5t-37 -116.5h17q0 76 -36 117.5t-102 41.5q-65 0 -101.5 -41.5t-36.5 -117.5h17q0 75 -37.5 117t-102.5 42z" />
    <glyph glyph-name="u111E5" unicode="&#x111e5;" horiz-adv-x="1303" 
d="M847 323q-28 0 -56 -16t-46 -45.5t-16 -70.5l10 -177l19 -21v111q0 47 14.5 73.5t35.5 37t39 10.5q23 0 45.5 -10.5t37.5 -37t15 -73.5v-111h34v201q0 31 -16 60.5t-45.5 49t-70.5 19.5zM967 65l12 -36v40q0 45 17.5 70t48.5 25q35 0 53 -23.5t34 -69.5
q18 -54 53.5 -73.5t91.5 -3.5v30q-38 -10 -61 -5t-36 23.5t-24 49.5q-14 40 -24.5 75.5t-30 57.5t-58.5 22q-44 0 -68 -40.5t-12 -113.5zM266 295q0 23 19.5 39.5t45.5 16.5t45.5 -16.5t19.5 -39.5q0 -22 -19.5 -38.5t-45.5 -16.5t-45.5 16.5t-19.5 38.5zM34 241
q0 -75 36.5 -131.5t100 -87.5t143.5 -31q85 0 143 26.5t88 72.5t30 104q0 63 -31 106t-82.5 65t-113.5 22q-51 0 -86.5 -26t-35.5 -69q0 -26 15.5 -46t39.5 -31.5t51 -11.5q26 0 50 11t39 30.5t15 46.5q0 14 -5.5 29t-17.5 27q44 -9 73 -37t29 -69q0 -45 -28.5 -75t-74 -45
t-98.5 -15q-63 0 -111.5 23.5t-76 62.5t-27.5 85q0 44 20.5 78.5t55.5 58.5t80 36t96 12q72 0 138 -24.5t118 -79t82.5 -144.5t31.5 -221h36q-2 136 -34.5 232.5t-88.5 157.5t-129 89.5t-154 28.5q-67 0 -124.5 -18t-101 -52t-67.5 -82t-24 -108z" />
    <glyph glyph-name="u111E6" unicode="&#x111e6;" horiz-adv-x="833" 
d="M446 270v30h-86q-90 0 -143 -44.5t-53 -119.5q0 -53 23 -90t62.5 -60.5t89 -34t102.5 -10.5q109 0 182.5 41.5t111.5 115t38 167.5q0 75 -23.5 140t-66.5 113.5t-101.5 76t-129.5 27.5q-88 0 -151.5 -32t-107.5 -94h39q40 49 95 73t125 24q60 0 109 -22.5t85.5 -63
t56 -93t19.5 -111.5q0 -113 -71 -179.5t-206 -66.5q-37 0 -76 5t-73 17t-54.5 34.5t-20.5 56.5q0 31 19 53.5t52.5 34.5t76.5 12h77zM176 -59v37q-91 79 -91 221q0 60 20 110.5t65 81.5t119 31q26 1 52 0.5t52 -1.5v27q-23 1 -47 2t-47 1q-124 0 -187.5 -66t-63.5 -183
q0 -90 35 -161t93 -100zM233 361q0 -38 30.5 -64.5t96.5 -25.5l45 14v16h-35q-43 0 -71.5 13t-28.5 47q0 23 18 42t71 19v27q-48 0 -75.5 -13.5t-39 -33.5t-11.5 -41z" />
    <glyph glyph-name="u111E7" unicode="&#x111e7;" horiz-adv-x="839" 
d="M572 109v-332h-29q-44 0 -70.5 12t-39.5 29.5t-17 35t-4 28.5q0 21 9.5 45t32 41.5t61.5 17.5q17 0 32.5 -0.5t31.5 -5.5l20 -7q39 -12 70 -32.5t70 -61.5h23v609h-38v-573l25 -9q-27 29 -63 55.5t-87 42.5l-15 7q-33 6 -69 6q-60 0 -101 -20t-61.5 -51.5t-20.5 -67.5
q0 -31 19 -61.5t60.5 -50.5t108.5 -20h93v415q0 66 -15 124.5t-49 103.5t-88.5 70.5t-134.5 25.5q-79 0 -133.5 -26t-87 -68t-47 -90t-14.5 -92q0 -43 11 -85t32.5 -76t55 -54t78.5 -20q22 0 44 9v30q-18 -7 -38 -7q-42 0 -74 22t-50 61t-18 87q0 38 13 72.5t41 62t74.5 44
t112.5 16.5q89 0 143.5 -31t79 -89.5t23.5 -141.5z" />
    <glyph glyph-name="u111E8" unicode="&#x111e8;" horiz-adv-x="938" 
d="M212 485q-74 0 -119.5 -59.5t-45.5 -175.5q0 -69 24 -120t66.5 -79t98.5 -28q12 0 23 2t22 7v31q-20 -7 -39 -7q-68 0 -108 43.5t-40 122.5q0 78 32.5 113t88.5 35q54 0 83 -38.5t29 -106.5v-59h38v59q0 72 28 108.5t80 36.5q53 0 80.5 -36.5t27.5 -108.5v-59h38v59
q0 68 29 106.5t81 38.5q44 0 69.5 -25t36.5 -67t11 -92q0 -96 -30 -164.5t-78 -113.5t-103 -72t-106.5 -38t-86.5 -12q-56 0 -105 7.5t-79 26t-30 51.5q0 35 50.5 59t149.5 24q65 0 127.5 -17.5t121.5 -47.5t112 -67t98 -77v41q-39 37 -89.5 73.5t-110 66.5t-125 48.5
t-134.5 18.5q-50 0 -100.5 -5.5t-93 -18.5t-68 -37t-25.5 -61q0 -38 25.5 -62.5t68.5 -38t96.5 -19t110.5 -5.5q48 0 107.5 13.5t118.5 44.5t109 84.5t80 133.5t30 191q0 54 -9 102.5t-27 87t-48 60.5t-72 22q-63 0 -100 -42.5t-37 -116.5h17q0 76 -36 117.5t-102 41.5
q-65 0 -101.5 -41.5t-36.5 -117.5h17q0 75 -37.5 117t-102.5 42z" />
    <glyph glyph-name="u111E9" unicode="&#x111e9;" horiz-adv-x="1355" 
d="M368 466q-74 0 -119.5 -60.5t-45.5 -181.5q0 -66 24 -119t66.5 -83t98.5 -30q25 0 45 8v31q-10 -4 -19 -5.5t-20 -1.5q-45 0 -78 22.5t-51.5 61.5t-18.5 89q0 83 32.5 118.5t88.5 35.5q54 0 83 -38.5t29 -106.5v-60h39v60q0 71 27.5 108t79.5 37q53 0 80.5 -37t27.5 -108
v-60h39v60q0 68 28.5 106.5t80.5 38.5q44 0 69.5 -25t36.5 -67t11 -93q0 -75 -23.5 -136.5t-74 -105.5t-130.5 -68t-193 -24q-112 0 -203 26t-156.5 76t-101 121.5t-35.5 161.5q0 136 62 231.5t178 146.5t278 51q296 0 457 -192t203 -594h28v609h-37v-464l20 -118
q0 130 -25.5 249.5t-78 220t-132.5 175t-188.5 115.5t-246.5 41q-174 0 -299 -56.5t-192.5 -161.5t-67.5 -253q0 -113 38.5 -203.5t110 -154.5t172 -98t224.5 -34q149 0 250 58t152.5 163.5t51.5 245.5q0 54 -8.5 102.5t-27 87t-48.5 60.5t-72 22q-63 0 -100 -42.5
t-37 -116.5h17q0 75 -36 117t-102 42q-65 0 -101.5 -42t-36.5 -117h17q0 75 -37 117t-103 42z" />
    <glyph glyph-name="u111EA" unicode="&#x111ea;" horiz-adv-x="1097" 
d="M662 466q-45 0 -84 -23t-69.5 -62.5t-49.5 -90t-23 -106.5l28 -11q6 20 16.5 27.5t22.5 7.5q15 0 25 -11.5t10 -34.5q0 -31 -20.5 -51t-52 -29.5t-63.5 -9.5q-39 0 -74.5 11.5t-57.5 35.5t-22 61q0 49 39 77.5t109 28.5v28h-13q-85 0 -137.5 -48t-52.5 -127
q0 -54 25 -95.5t69.5 -65t103.5 -23.5q89 0 142 47.5t53 125.5q0 48 -21 78.5t-56 30.5q-19 0 -33 -8q17 66 60.5 101.5t104.5 35.5q58 0 101.5 -27.5t68 -76.5t24.5 -115v-160h-28q-48 0 -74.5 25t-26.5 66q0 43 25 68.5t65 25.5q15 0 26.5 -1t20.5 -3l19 -7
q32 -12 55.5 -33.5t44 -62t44.5 -109.5h25v510h-37v-474l25 -8q-22 64 -43 103.5t-47.5 63t-65.5 40.5l-15 6q-10 2 -28.5 4t-27.5 2q-75 0 -122 -34.5t-47 -90.5q0 -57 47.5 -89.5t131.5 -32.5h67v249q0 77 -26.5 135.5t-73 92t-107.5 33.5zM166 -44v37q-92 79 -92 221
q0 60 20.5 110.5t65.5 81.5t119 31h104v28q-23 0 -47 0.5t-47 0.5q-124 0 -187.5 -66t-63.5 -183q0 -90 35 -161t93 -100zM223 376q0 -38 30 -64.5t97 -25.5l45 13v17h-35q-43 0 -72 13t-29 47q0 23 18.5 42t71.5 19v27q-48 0 -75.5 -13.5t-39 -33.5t-11.5 -41z" />
    <glyph glyph-name="u111EB" unicode="&#x111eb;" horiz-adv-x="1004" 
d="M306 271h196v30h-364v-38q14 3 60 5.5t108 2.5zM192 118q0 -46 21.5 -88t61.5 -68.5t96 -26.5q60 0 97.5 26t56.5 72q17 -45 55 -70.5t95 -25.5q87 0 143 50.5t56 145.5q0 91 -58 134t-158 43q-21 0 -43 -2t-32 -5q5 50 31.5 74t72.5 24h53v32q-37 -1 -68 12.5t-49 38
t-18 55.5q0 39 27.5 68.5t79.5 29.5q41 0 73.5 -18t57 -46t42 -60.5t29 -62t17.5 -49.5h30v268h-37v-198l15 -19q-6 18 -18 45.5t-31 57t-46.5 55.5t-65 42.5t-88.5 16.5q-38 0 -76 -13t-63 -41.5t-25 -74.5q0 -36 18.5 -59t46.5 -36.5t58 -19t53 -5.5v13q-65 0 -109 -38
t-44 -115v-5.5v-5.5q32 7 58 9t56 2q71 0 112 -26.5t41 -84.5q0 -53 -39 -84.5t-102 -31.5q-37 0 -67.5 9t-47.5 28t-17 48v29h-32v-29q0 -27 -16 -46t-44 -29t-62 -10q-40 0 -71 14t-49 38.5t-18 55.5q0 37 20 61.5t51 36.5t65 12h115l-36 30h-16q-32 0 -74.5 -8.5
t-73.5 -19.5q-48 -15 -79 -54.5t-31 -100.5zM45 198q0 -60 15.5 -112.5t44.5 -91t68 -57.5v37q-92 79 -92 220q0 60 20.5 111t68.5 82t128 31h92v29h-95q-123 0 -186.5 -66t-63.5 -183zM254 359q0 -38 32 -60t92 -22l48 12v12h-49q-40 0 -64.5 15.5t-24.5 42.5
q0 24 16.5 41.5t54.5 17.5h21v22q-126 0 -126 -81z" />
    <glyph glyph-name="u111EC" unicode="&#x111ec;" horiz-adv-x="888" 
d="M284 416q63 0 104.5 -26t59.5 -81q55 -1 75 -23t20 -55t-20.5 -53.5t-52.5 -20.5q-19 0 -38 9t-31.5 28.5t-12.5 52.5q0 50 -27 74.5t-73 24.5q-51 0 -83.5 -43.5t-32.5 -111.5q0 -78 38.5 -136.5t107 -91t159.5 -32.5q153 0 237.5 85.5t84.5 242.5l-62 36
q0 -116 -70 -183t-193 -67q-118 0 -187.5 47t-69.5 129q0 41 20.5 67.5t52.5 26.5q34 0 50.5 -17.5t16.5 -55.5q0 -40 15 -66t41 -38.5t57 -12.5q45 0 75 29.5t30 76.5q0 50 -27 77.5t-78 30.5q-22 55 -71.5 83.5t-120.5 28.5q-67 0 -118 -33.5t-79.5 -94.5t-28.5 -143
q0 -85 35.5 -149.5t98.5 -98.5v37q-45 30 -72 88t-27 123q0 74 24 126.5t68 81t105 28.5zM425 648q83 0 153 -23t118.5 -62t64.5 -90h30v255h-37v-221l9 2q-15 45 -49 84t-81.5 69t-102 47t-109.5 17q-69 0 -121.5 -16.5t-82 -46t-29.5 -68.5q0 -34 21 -54t75.5 -30
t156.5 -16q60 -3 99.5 -7.5t65.5 -11.5t45 -18.5t37 -29.5q23 -23 36 -58.5t13 -77.5l62 -39q0 69 -27 127.5t-75 92.5q-22 16 -55 26.5t-82 17t-120 9.5q-82 4 -123.5 9t-56 16t-14.5 31q0 30 48 48t131 18z" />
    <glyph glyph-name="u111ED" unicode="&#x111ed;" horiz-adv-x="1282" 
d="M177 -44v37q-49 35 -70.5 79t-21.5 103q0 51 15.5 87.5t42 56t57.5 19.5q16 0 29 -3t30 -8l2 34q-15 5 -29 8.5t-32 3.5q-37 0 -72 -20.5t-57 -64.5t-22 -115q0 -38 12.5 -79t41 -77t74.5 -61zM430 377q0 44 -29 67t-69 23q-18 0 -39 -7.5t-35 -26.5t-14 -53
q0 -10 3 -23.5t12 -29.5l23 13q-4 10 -5.5 17.5t-1.5 16.5q0 32 18 45t42 13q32 0 48 -19t16 -45q0 -17 -8.5 -30t-16.5 -21q-33 -37 -67.5 -91.5t-60.5 -116.5t-34 -124l27 -19q8 40 20 61.5t33 21.5q18 0 30.5 -9.5t25.5 -24t33 -29t53 -24t86 -9.5q63 0 110 25.5t73 69.5
t26 99q0 61 -27 102.5t-74 62.5t-110 21q-58 0 -94 -16q32 40 88 60.5t116 20.5q36 0 73.5 -13.5t67.5 -40.5t45 -67h24l1 18q4 40 24.5 67t59.5 27q32 0 50.5 -15t27 -39.5t8.5 -53.5v-294h-27q-40 0 -63.5 13.5t-34 34.5t-10.5 43q0 39 25 66.5t69 27.5q7 0 21 -0.5
t28 -4.5l19 -6q34 -12 60.5 -35t49.5 -63.5t46 -106.5h25v510h-37v-474l25 -9q-21 63 -44.5 102t-53 63.5t-70.5 41.5l-15 5q-18 5 -37 6t-27 1q-56 0 -93.5 -17.5t-56 -46t-18.5 -60.5q0 -58 49.5 -90t136.5 -32h67v364q0 42 -12 75.5t-36.5 54t-64.5 20.5q-33 0 -55 -13.5
t-35.5 -36t-19.5 -47t-6 -46.5h21q0 21 -14.5 46t-41 47t-64 36t-82.5 14q-52 0 -100.5 -22t-103.5 -82q1 6 1 11zM372 263q28 20 66.5 30.5t81.5 10.5q41 0 73.5 -13.5t52.5 -38.5t20 -60q0 -44 -24 -70t-63.5 -37.5t-87.5 -11.5q-44 0 -74 9.5t-52.5 18.5t-44.5 9
q-10 0 -20.5 -1.5t-18.5 -8.5q19 48 41.5 88.5t49.5 74.5z" />
    <glyph glyph-name="u111EE" unicode="&#x111ee;" horiz-adv-x="888" 
d="M226 19q-10 -19 -16.5 -36t-26.5 -17q-25 0 -45 20.5t-33 52t-20 65.5t-7 60q0 127 42 186.5t118 59.5q44 0 83.5 -25.5t57.5 -57.5l20 23q-12 21 -33.5 42.5t-52.5 36.5t-74 15q-53 0 -98 -26.5t-71.5 -86.5t-26.5 -163q0 -40 9 -81.5t26.5 -77t43.5 -57t61 -21.5
q29 0 42.5 19.5t24.5 46.5zM314 -70q35 0 64.5 24.5t29.5 67.5q0 37 -28 63t-66 26q-37 0 -59.5 -20.5t-26.5 -51.5q-6 13 -9.5 34.5t-3.5 37.5q0 58 28 97t74 59.5t100 20.5q42 0 76.5 -9t55 -27t20.5 -45q0 -25 -11.5 -39t-29 -23.5t-35 -19.5t-29 -27.5t-11.5 -48.5
q0 -52 37 -86.5t97 -34.5q61 0 104.5 28.5t71.5 76.5t41 107.5t13 121.5l-61 39q0 -53 -15.5 -102.5t-44 -89t-67.5 -62t-86 -22.5q-22 0 -37 9t-15 29q0 21 14 31.5t34 19.5t41 21.5t34.5 37t13.5 66.5q0 52 -28 87.5t-74 54t-101 18.5q-72 0 -128.5 -30.5t-88.5 -86
t-32 -130.5q0 -56 14.5 -107t45 -83t78.5 -32zM314 78q23 0 40.5 -17.5t17.5 -40.5q0 -22 -17.5 -39.5t-40.5 -17.5q-22 0 -39.5 17.5t-17.5 39.5q0 23 17.5 40.5t39.5 17.5zM444 648q81 0 140.5 -17.5t100 -44.5t64 -57t31.5 -56h30v255h-38v-221l10 2q-7 22 -30.5 58.5
t-64.5 73t-102.5 61.5t-145.5 25q-42 0 -83.5 -8t-75 -24t-53.5 -41t-20 -59q0 -38 23.5 -57.5t61.5 -27.5t82.5 -10.5t85.5 -4.5q60 -3 104 -6.5t79 -16.5t66 -44q26 -26 36.5 -62.5t10.5 -72.5l61 -40q0 75 -27.5 132t-71.5 88q-33 24 -79 34.5t-94 14t-86 4.5
q-60 3 -103.5 6t-67 14t-23.5 36q0 20 17 33t44 20t58.5 10t59.5 3z" />
    <glyph glyph-name="u111EF" unicode="&#x111ef;" horiz-adv-x="1028" 
d="M550 311q0 -71 -17.5 -111t-44 -59t-54.5 -24t-48 -5h-89v33h96q31 0 56.5 11.5t41 39.5t15.5 77q0 26 -8.5 49t-27.5 36.5t-49 13.5q-39 0 -62 -32.5t-23 -91.5v-12h-39v12q0 59 -23 91.5t-71 32.5q-35 0 -58.5 -21t-35 -57t-11.5 -81q0 -100 40 -153.5t108 -53.5
q20 0 38 7v-30q-11 -4 -22 -6t-22 -2q-64 0 -106 37t-63 100.5t-21 141.5q0 44 9.5 85.5t29 74.5t48 52t65.5 19q58 0 89.5 -35t31.5 -103h-13q0 68 31.5 103t85.5 35q41 0 68 -23.5t41 -63t14 -87.5zM326 143q76 0 146 -23.5t125.5 -64.5t88 -94t32.5 -112q0 -41 -17 -72
t-44 -31q-41 0 -63.5 43.5t-22.5 152.5v51t2.5 86t9.5 105.5t20 108.5t35 96.5t54 69.5t76 26q42 0 71.5 -28.5t49.5 -75.5t31.5 -101.5t17.5 -107.5t8 -94.5t2 -60.5l-14 79v389h36v-509h-38q0 48 -5 101.5t-16 105.5t-30 94t-46.5 67t-66.5 25q-23 0 -46.5 -10t-45 -36.5
t-38.5 -74.5t-27 -123t-10 -183q0 -63 6.5 -97.5t19.5 -48t30 -13.5q11 0 17.5 11t9.5 26.5t3 28.5q0 57 -31.5 105t-83.5 83.5t-115.5 55t-128.5 19.5z" />
    <glyph glyph-name="u111F0" unicode="&#x111f0;" horiz-adv-x="1570" 
d="M414 485q-53 0 -84.5 -35t-31.5 -103h12q0 68 -31 103t-90 35q-37 0 -65 -19t-47 -52t-29 -74.5t-10 -85.5q0 -78 21 -141.5t63 -101t106 -37.5q22 0 44 9v30q-18 -7 -38 -7q-69 0 -108.5 53t-39.5 154q0 45 11.5 81t35 57t58.5 21q47 0 70.5 -33t23.5 -91v-12h39v12
q0 58 23 91t61 33q31 0 49.5 -13.5t27.5 -36.5t9 -49q0 -49 -15.5 -77t-41 -39.5t-56.5 -11.5h-96v-33h89q20 0 48 5t54.5 24t44 59t17.5 111q0 48 -14 87.5t-41.5 63t-68.5 23.5zM604 -58v155q0 63 5.5 120t21.5 103.5t44.5 77.5t74.5 40l52 43q-94 -10 -143 -57.5
t-67.5 -132.5t-18.5 -207v-142q0 -109 22.5 -152.5t63.5 -43.5q27 0 44.5 31t17.5 72q0 59 -34.5 111.5t-93 93.5t-131 65t-148.5 24l1 -31q65 0 131 -19.5t121 -55t88.5 -83.5t33.5 -105q0 -13 -3 -28.5t-9.5 -26.5t-17.5 -11q-17 0 -29.5 13.5t-19 48t-6.5 97.5zM706 396
q0 -38 29.5 -64.5t97.5 -25.5l45 13v16h-36q-43 0 -71.5 13.5t-28.5 47.5q0 23 18 42t72 19v27q-48 0 -75.5 -13.5t-39 -33.5t-11.5 -41zM1145 486q-45 0 -84 -23t-69.5 -62.5t-49.5 -90t-23 -106.5l27 -11q7 19 17 27t22 8q15 0 25 -11.5t10 -34.5q0 -31 -20.5 -51
t-52 -29.5t-63.5 -9.5q-39 0 -74.5 11.5t-57.5 35.5t-22 61q0 32 17.5 56t51 37t80.5 13v28h-14q-85 0 -137.5 -48t-52.5 -128q0 -54 25 -95.5t70 -65t104 -23.5q88 0 141.5 47.5t53.5 125.5q0 49 -21.5 79.5t-56.5 30.5q-19 0 -33 -8q18 66 61 101.5t105 35.5
q58 0 101.5 -27.5t68 -76.5t24.5 -115v-160h-29q-48 0 -74 25t-26 66q0 43 24.5 68.5t65.5 25.5q14 0 25.5 -1t20.5 -4l20 -6q32 -12 55 -34t44 -62.5t45 -108.5h24v510h-37v-474l26 -9q-22 65 -43.5 104t-47.5 62.5t-65 40.5l-16 6q-9 2 -27.5 4t-28.5 2q-75 0 -122 -34
t-47 -90q0 -57 48 -89.5t131 -32.5h68v249q0 76 -26.5 135t-73 92.5t-107.5 33.5z" />
    <glyph glyph-name="u111F1" unicode="&#x111f1;" horiz-adv-x="950" 
d="M53 198q0 -90 35 -161.5t93 -100.5v38q-46 40 -69 94.5t-23 125.5q0 60 20.5 111t68.5 82t127 31q23 0 46.5 -0.5t45.5 -4.5v27q-23 4 -46.5 5.5t-47.5 1.5q-123 0 -186.5 -66t-63.5 -183zM237 370q0 -26 20.5 -41t51 -21.5t61.5 -6.5v21q-94 5 -94 50q0 9 7 20.5t26 19
t55 4.5l3 21l-39 -8q-39 3 -65 -11.5t-26 -47.5zM488 53q-48 0 -96 7t-87 22.5t-62.5 41.5t-23.5 64q0 37 22 60t59 33.5t82 10.5q1 0 12 -0.5t26 -1.5t26 -2q2 7 2.5 14t0.5 13q-20 3 -44 5t-35 2q-95 0 -151.5 -43.5t-56.5 -124.5q0 -61 26 -103t71.5 -67t104 -36.5
t124.5 -11.5q62 0 119 13t101.5 39.5t70 68.5t25.5 100q0 66 -30 102.5t-76.5 50.5t-95.5 14q-14 0 -28.5 -1t-29.5 -3q-1 4 -1 7v6q0 41 26 54.5t73 13.5h38v32q-37 -1 -67.5 12.5t-49 38t-18.5 55.5q0 39 27.5 68.5t79.5 29.5q41 0 73.5 -18t57 -46.5t42 -60.5t29 -61.5
t18.5 -49.5h29v268h-36v-198l14 -19q-6 18 -17.5 45.5t-30.5 57t-47 55.5t-65.5 42.5t-88.5 16.5q-38 0 -76 -13t-63 -41.5t-25 -74.5q0 -36 18.5 -59t46 -36.5t57.5 -19.5t54 -6v14q-63 0 -100.5 -24t-37.5 -85q0 -9 1 -18t3 -20q20 4 41.5 6.5t41.5 2.5q45 0 80 -11
t55.5 -33t20.5 -57q0 -38 -23 -65t-61 -44t-84 -24.5t-91 -7.5z" />
    <glyph glyph-name="u111F2" unicode="&#x111f2;" horiz-adv-x="950" 
d="M42 198q0 -90 35 -161.5t93 -100.5v38q-46 40 -68.5 94.5t-22.5 125.5q0 60 20.5 111t68 82t127.5 31q23 0 46 -0.5t46 -4.5v27q-24 4 -47.5 5.5t-47.5 1.5q-123 0 -186.5 -66t-63.5 -183zM226 370q0 -26 20.5 -41t51 -21.5t61.5 -6.5v21q-93 5 -93 50q0 9 7 20.5
t25.5 19t54.5 4.5l3 13h-38q-39 3 -65.5 -11.5t-26.5 -47.5zM477 -64q63 0 119.5 13t101 39.5t70 68.5t25.5 100q0 96 -71 138q17 13 24 27.5t7 32.5q0 35 -30.5 64t-88.5 29q-64 0 -102.5 -31.5t-38.5 -92.5q0 -18 4 -37q20 4 42 6.5t41 2.5q43 0 79 -10.5t58.5 -34
t22.5 -63.5q0 -37 -23.5 -64t-62 -44.5t-85.5 -26t-93 -8.5q-49 0 -97 8t-86.5 25.5t-61.5 44.5t-23 65q0 39 23 62t60.5 33t79.5 10q1 0 12 -0.5t26 -1.5t26 -2q4 12 4 26q-21 3 -44.5 5t-35.5 2q-95 0 -151.5 -43.5t-56.5 -124.5q0 -61 26 -103t71.5 -67t104 -36.5
t124.5 -11.5zM625 416q42 0 64 -19.5t22 -44.5t-18 -43q-22 8 -47.5 11.5t-54.5 3.5q-14 0 -28 -1t-30 -3q-1 4 -1 7v6q0 41 27.5 62t65.5 21zM406 107q70 -15 119 -8t74 29.5t25 50.5q0 19 -13 33t-39 20l-3 -4q37 6 77 20.5t60 34.5l-38 8q-7 -8 -33 -19.5t-61 -16.5
q-27 -5 -59 -6.5t-54 -1.5v-26q66 0 97.5 -10t31.5 -32q0 -15 -19 -30.5t-59.5 -20.5t-105.5 9v-30zM632 420h52v13q-52 -1 -84 12.5t-47 36.5t-15 53q0 42 28 71.5t79 30.5q42 1 73.5 -16.5t56 -46.5t41 -61t27.5 -62t18 -50h35v268h-42v-198l15 -15q-6 18 -17.5 45
t-28.5 56t-43 54.5t-61.5 41.5t-83.5 16q-41 0 -81.5 -13.5t-67.5 -43t-27 -77.5q0 -33 17 -55.5t43 -35.5t56 -18.5t57 -5.5z" />
    <glyph glyph-name="u111F3" unicode="&#x111f3;" horiz-adv-x="1368" 
d="M840 186q0 -82 -25.5 -153.5t-76.5 -126.5t-128.5 -87t-180.5 -34q-52 -1 -97.5 9.5t-73 30t-27.5 45.5q0 43 59 58.5t179 15.5v32q-114 0 -193 -8t-119 -30.5t-40 -67.5q0 -39 41 -67t109 -42.5t150 -14.5q147 0 251 58.5t158.5 163.5t54.5 245q0 54 -8.5 102.5t-27 87
t-48 60.5t-71.5 22q-63 0 -100.5 -42.5t-37.5 -116.5h18q0 76 -36.5 117.5t-102.5 41.5q-64 0 -100.5 -41.5t-36.5 -117.5h16q0 75 -37 117t-103 42q-73 0 -118.5 -59.5t-45.5 -175.5q0 -70 23.5 -120.5t66.5 -78.5t98 -28q12 0 23.5 2t21.5 6v32q-10 -4 -19 -6t-20 -2
q-67 0 -107 43.5t-40 123.5q0 78 32.5 113t88.5 35q53 0 82 -38.5t29 -106.5v-59h39v59q0 71 27.5 108t79.5 37q53 0 80.5 -37t27.5 -108v-59h39v59q0 68 29 106.5t81 38.5q44 0 69.5 -25t36 -67t10.5 -92zM918 29q0 -138 36.5 -210.5t91.5 -72.5q22 0 38.5 15.5t16.5 46.5
q0 49 -60 87t-185 59.5t-320 21.5h-67v-32h67q192 0 309.5 -19t170.5 -49.5t53 -64.5q0 -28 -28 -28q-36 0 -64 63.5t-28 182.5q0 97 13 162t35.5 104t50.5 56.5t57 17.5q40 0 69 -25t48.5 -67t31 -94t16.5 -105.5t5 -101.5h37v509h-36v-389l14 -79q0 19 -2 60.5t-8 94.5
t-18 107.5t-32 101.5t-51 75.5t-74 28.5q-53 0 -87 -29.5t-55 -76.5t-30.5 -102t-12.5 -106.5t-2.5 -90t0.5 -51.5z" />
    <glyph glyph-name="u111F4" unicode="&#x111f4;" horiz-adv-x="1092" 
d="M211 490q-49 0 -86 -31t-57.5 -86.5t-20.5 -131.5q0 -78 23.5 -137t66 -91.5t98.5 -32.5q12 0 23.5 2t21.5 6v32q-10 -4 -19 -6t-20 -2q-45 0 -78 25t-51.5 70.5t-18.5 106.5q0 75 32.5 118t88.5 43q53 0 82.5 -38.5t29.5 -106.5v-59h39v59q0 72 27.5 108.5t80.5 36.5
q52 0 79.5 -36.5t27.5 -108.5v-59h39v59q0 68 28.5 106.5t80.5 38.5q60 0 88.5 -45.5t28.5 -143.5v-382l41 -53v498q0 120 -39 180.5t-116 60.5q-64 0 -100.5 -42.5t-36.5 -116.5h16q0 76 -36 117.5t-101 41.5q-66 0 -102.5 -41.5t-36.5 -117.5h18q0 76 -37.5 117.5
t-103.5 41.5zM722 110q-62 0 -109 -18t-84 -58l28 -18q30 36 73 50t93 14t100.5 -18.5t97.5 -61t88 -116.5h24v608h-37v-572l26 -8q-55 105 -135 151.5t-165 46.5zM587 -47q0 -13 -7.5 -25.5t-22.5 -12.5t-25.5 10t-10.5 28q0 14 8.5 31t25.5 30l-21 15q-23 -13 -33.5 -34.5
t-10.5 -41.5q0 -34 20.5 -51.5t46.5 -17.5q21 0 41.5 16t20.5 53q0 38 -32 64t-100 26q-44 0 -86.5 -22t-70 -62t-27.5 -96t26 -94.5t67 -59t86 -20.5q31 0 54 11t41 27.5t36.5 33t41 27.5t54.5 11q40 0 69.5 -16.5t49.5 -40.5t29 -45h29v522l-41 -70v-379q-23 29 -62.5 45
t-77.5 16q-42 0 -70.5 -10.5t-50.5 -24t-45 -24t-54 -10.5q-27 0 -55.5 14t-48 41t-19.5 65q0 40 17.5 69t48 44.5t65.5 15.5q55 0 74.5 -19t19.5 -39z" />
    <glyph glyph-name="sinKSsa" horiz-adv-x="1175" 
d="M189 566q48 0 87 -23.5t51 -57.5l-56 -57q-6 31 -31 47t-53 16q-27 0 -51 -16.5t-34 -49.5l-70 22q12 44 37.5 70t57.5 37.5t62 11.5zM30 182v69l262 220q69 58 154 85.5t167 27.5q67 0 124.5 -18t96.5 -53.5t49 -87.5l-63 -36q-7 35 -36 61t-73.5 40.5t-98.5 14.5
q-67 0 -141 -25t-143 -84l-225 -189zM192 -6q-32 0 -61 14.5t-47.5 41t-18.5 61.5v25q0 16 -3 32t-18 16q-3 0 -7 -0.5t-7 -1.5l47 68q25 -6 37.5 -19t17 -27t4.5 -24v-48q0 -27 19 -41.5t40 -14.5t38 13.5t17 42.5v64h64v-63q0 -30 18.5 -43.5t40.5 -13.5q24 0 44.5 14.5
t20.5 42.5v92q0 34 -9.5 54.5t-31.5 33t-60 19.5l61 51q36 -8 62 -25t39.5 -47.5t13.5 -79.5v-108q0 -41 -18.5 -70t-48.5 -43.5t-63 -14.5q-27 0 -53.5 10.5t-47.5 30.5q-18 -21 -41.5 -31.5t-48.5 -10.5zM733 404h241q54 0 92 -13t58.5 -47.5t20.5 -97.5h-80q0 26 -6 45.5
t-25 30t-58 10.5h-238q-39 0 -58.5 -12t-25 -32t-5.5 -42h-80q0 61 21 96t58 48.5t85 13.5zM820 -8q-133 0 -192 49t-59 156h80q0 -50 19.5 -78t57.5 -38.5t90 -10.5h82q53 0 90 11t57 39t20 77h80q0 -106 -60 -155.5t-191 -49.5h-74zM981 568q54 0 96.5 -23t60.5 -75
l-70 -23q-7 20 -28 34t-56 14q-27 0 -47 -11.5t-31 -31t-11 -44.5v-29h-75v29q0 42 12 71t31.5 47t41.5 27t42.5 12t33.5 3zM805 168q0 49 21 89t56.5 68.5t79.5 41.5h106q-35 -14 -68.5 -33t-60 -43t-41.5 -54t-15 -68z" />
    <glyph glyph-name="sinKVa" horiz-adv-x="1098" 
d="M189 566q48 0 87 -23.5t51 -57.5l-56 -57q-6 31 -31 47t-53 16q-27 0 -51 -16.5t-34 -49.5l-70 22q12 44 37.5 70t57.5 37.5t62 11.5zM192 -6q-32 0 -61 14.5t-47.5 41t-18.5 61.5v25q0 16 -3 32t-18 16q-3 0 -7 -0.5t-7 -1.5l47 68q25 -6 37.5 -19t17 -27t4.5 -24v-48
q0 -27 19 -41.5t40 -14.5t38 13.5t17 42.5v64h64v-63q0 -30 18.5 -43.5t40.5 -13.5q24 0 44.5 14.5t20.5 42.5v92q0 34 -9.5 54.5t-31.5 33t-60 19.5l61 51q36 -8 62 -25t39.5 -47.5t13.5 -79.5v-108q0 -41 -18.5 -70t-48.5 -43.5t-63 -14.5q-27 0 -53.5 10.5t-47.5 30.5
q-18 -21 -41.5 -31.5t-48.5 -10.5zM573 187q0 34 8.5 62.5t26.5 50.5q26 31 66.5 43t99.5 14q-3 40 -34 71t-79.5 49t-104.5 18q-50 0 -100.5 -16.5t-91.5 -52.5l-261 -219l-73 -25v69l280 235q56 47 122.5 68.5t132.5 21.5q75 0 140 -26t106 -74.5t43 -117.5v-72h-63
q-43 0 -74 -6.5t-48 -27.5t-17 -63q0 -29 15.5 -54t44.5 -41t71 -16v-80q-61 0 -108.5 26t-74.5 69.5t-27 93.5zM987 508q0 90 -37 128.5t-111 38.5v80q75 0 125.5 -25t77 -77.5t26.5 -136.5v-271q0 -123 -55.5 -185t-173.5 -62v80q42 0 75.5 15t53 51.5t19.5 100.5v263z
M783 755v-79q-31 0 -61 -15.5t-48 -41.5l-81 27q19 34 49.5 58t67.5 37.5t73 13.5z" />
    <glyph glyph-name="sinTVa" horiz-adv-x="1075" 
d="M760 -2q-61 0 -108.5 25.5t-74.5 69t-27 94.5q0 31 7.5 59.5t24.5 51.5q26 31 67.5 43.5t100.5 15.5q-3 33 -21.5 58t-47 42.5t-63.5 26t-71 8.5q-49 0 -96.5 -16t-84.5 -47l-263 -219l-73 -31v72l292 245q45 38 103 55t117 17q55 0 106.5 -14.5t93 -42.5t65.5 -69
t24 -94v-62h-63q-43 0 -74 -6.5t-48 -27.5t-17 -63q0 -29 15.5 -54t44.5 -41t71 -16v-80zM310 -6q-52 0 -87 14t-58.5 35.5t-40 47.5t-30.5 50q-10 16 -20.5 28t-28.5 12q-4 0 -7.5 -0.5t-7.5 -1.5l30 61q6 2 11.5 2.5t9.5 0.5q22 0 36.5 -12.5t25 -32t22 -41t28.5 -41
t44 -32t68 -12.5q40 0 67.5 16t42.5 43t15 61q0 31 -6.5 57t-28.5 46t-70 32l61 50q53 -15 78.5 -45.5t33.5 -67.5t8 -74q0 -57 -23.5 -101t-67.5 -69.5t-105 -25.5zM124 425l-70 22q12 44 37.5 70t57.5 37.5t61 11.5q33 0 62.5 -12t49 -30t24.5 -38l-53 -58q-6 31 -31 47
t-53 16q-27 0 -51 -16.5t-34 -49.5zM816 -2v80q42 0 75.5 15t53 51.5t19.5 100.5v263q0 90 -37 128.5t-111 38.5v80q75 0 125.5 -25t77 -77.5t26.5 -136.5v-271q0 -123 -55.5 -185t-173.5 -62zM651 619l-81 27q19 34 49.5 58t67.5 37.5t73 13.5v-79q-31 0 -61 -15.5
t-48 -41.5z" />
    <glyph glyph-name="sinTTha" horiz-adv-x="1069" 
d="M124 425l-70 22q12 44 37.5 70t57.5 37.5t61 11.5q34 0 63 -11.5t49.5 -30t26.5 -37.5l-56 -59q-6 31 -31 47t-53 16q-27 0 -51 -16.5t-34 -49.5zM310 -6q-45 0 -76.5 10t-53.5 27t-38 37.5t-28.5 41.5t-25.5 39q-9 13 -18.5 22.5t-24.5 9.5q-4 0 -7.5 -0.5t-7.5 -1.5
l30 61q6 2 11.5 2.5t9.5 0.5q22 0 36.5 -12.5t25 -32t22 -41t28.5 -41t44 -32t68 -12.5q40 0 67.5 16t42.5 43t15 61q0 31 -6.5 57t-28.5 46t-70 32l61 50q53 -15 78.5 -45.5t33.5 -67.5t8 -74q0 -57 -23.5 -101t-67.5 -69.5t-105 -25.5zM30 179v72l282 237q33 27 67 45.5
t70 28t75 9.5q42 0 80 -11t69.5 -34t52.5 -59.5t28 -85.5l-80 5q-8 38 -32.5 60.5t-56.5 33t-64 10.5q-38 0 -77.5 -15t-77.5 -46l-263 -219zM756 -2q-55 0 -94 18.5t-64.5 48.5t-37.5 64.5t-12 66.5v68q0 28 8.5 57.5t28.5 55t53 42.5t82 20l34 -59h-12q-38 0 -63.5 -15.5
t-38 -44t-12.5 -64.5v-50q0 -37 15.5 -65.5t44.5 -44.5t68 -16v-82zM812 -2v82q43 0 75.5 15t51 51t18.5 99h82q0 -123 -54.5 -185t-172.5 -62zM808 755q66 0 118 -21.5t82.5 -73t30.5 -143.5v-276h-82v261q0 91 -30.5 135t-112.5 44h-6v-53q0 -37 13.5 -60.5t36.5 -34.5
t52 -11v-67q-60 0 -99 23t-57 62t-18 85v130h72z" />
    <glyph glyph-name="sinNDa" horiz-adv-x="966" 
d="M683 0q-60 0 -112 21t-83.5 65t-31.5 113q0 68 29 112.5t80.5 66.5t116.5 22h99q0 40 -21.5 65t-62 37.5t-100.5 12.5v77q62 0 111 -11.5t83.5 -36t52.5 -62t18 -90.5v-70h-186q-40 0 -70.5 -13.5t-49 -41t-18.5 -67.5q0 -38 17.5 -65t50 -42t77.5 -15h38q42 0 76 18.5
t53 61.5l74 -20q-14 -39 -37 -65.5t-51.5 -42.5t-58 -23t-56.5 -7h-38zM790 -204q-49 0 -88.5 19t-63 54.5t-23.5 85.5h79q0 -26 14 -45t36.5 -29.5t48.5 -10.5q31 0 59.5 17.5t36.5 54.5l77 -20q-10 -38 -34.5 -66.5t-61 -44t-80.5 -15.5zM188 566q34 0 63.5 -12t49 -30
t23.5 -38l-52 -58q-6 31 -31 47t-53 16t-51.5 -16.5t-33.5 -49.5l-70 22q12 44 37.5 70t57 37.5t60.5 11.5zM275 -6q-48 0 -92 16.5t-78.5 49t-54.5 82t-20 114.5v88h72v-74q0 -40 11 -75.5t33 -63t54 -43t72 -15.5t72 16.5t51 46.5t19 70q0 22 -7 44t-25 41t-50 31l46 61
q41 -15 67 -43.5t38.5 -63.5t12.5 -72q0 -61 -28.5 -108.5t-78.5 -74.5t-114 -27zM80 193v82h18q17 0 35.5 14t37 34.5t33.5 40.5l86 115q44 59 108 86t144 27v-77q-40 0 -75 -8t-65.5 -27.5t-57.5 -54.5l-78 -103q-26 -34 -52.5 -63t-54 -47t-57.5 -18z" />
    <glyph glyph-name="sinNDha" horiz-adv-x="1102" 
d="M188 566q34 0 63.5 -12t49 -30t23.5 -38l-52 -58q-6 31 -31 47t-53 16t-51.5 -16.5t-33.5 -49.5l-70 22q12 44 37.5 70t57 37.5t60.5 11.5zM275 -6q-48 0 -92 16.5t-78.5 49t-54.5 82t-20 114.5v88h72v-74q0 -40 11 -75.5t33 -63t54 -43t72 -15.5t72 16.5t51 46.5t19 70
q0 22 -7 44t-25 41t-50 31l46 61q41 -15 67 -43.5t38.5 -63.5t12.5 -72q0 -61 -28.5 -108.5t-78.5 -74.5t-114 -27zM520 591q62 0 117 -21t92 -63.5t43 -108.5h-73q-5 29 -22.5 50.5t-44 36.5t-56.5 22.5t-59 7.5q-48 0 -93.5 -22.5t-79.5 -67.5l-78 -103q-26 -34 -52.5 -63
t-54 -47.5t-57.5 -17.5h-22v81h18q17 0 35.5 14t37 34.5t33.5 40.5l86 115q27 36 62 61t77 38t91 13zM702 -3q-44 0 -79.5 18t-55.5 51t-20 78v145q0 37 12.5 74t44.5 64.5t89 34.5l42 8l37 -72h-32q-34 0 -56 -11t-34.5 -28.5t-17.5 -37t-5 -36.5v-135q0 -13 7 -30
t23.5 -30t44.5 -13q29 0 45 13t22.5 30t6.5 30v46h66v-46q0 -13 6.5 -30t22.5 -30t45 -13q28 0 44.5 13t23.5 30t7 30v76h81v-82q0 -67 -41.5 -107t-106.5 -40q-33 0 -63 12.5t-50 39.5q-18 -27 -46 -39.5t-63 -12.5zM991 508q0 60 -16.5 96.5t-50 53.5t-85.5 17v80
q78 0 129.5 -25.5t77.5 -78t26 -135.5v-291h-81v283zM656 613l-78 28q28 53 84 83.5t121 30.5v-79q-41 0 -74 -16.5t-53 -46.5z" />
    <glyph glyph-name="sinNVa" horiz-adv-x="1072" 
d="M103 425l-70 22q12 44 37.5 70t57.5 37.5t61 11.5q33 0 62 -12t49 -30t24 -38l-52 -58q-6 31 -31 47t-52 16q-29 0 -52.5 -16.5t-33.5 -49.5zM275 -6q-48 0 -92 16.5t-78.5 49t-54.5 82t-20 114.5v88h72v-74q0 -71 25.5 -115t65.5 -63t83 -19q37 0 68.5 16.5t50.5 46.5
t19 70q0 23 -7 44.5t-25 40.5t-50 31l46 61q41 -15 67 -43.5t38.5 -63.5t12.5 -72q0 -61 -28.5 -108.5t-78.5 -74.5t-114 -27zM757 -2q-61 0 -108.5 26t-74.5 68.5t-27 91.5q0 63 22.5 99.5t67 53.5t108.5 21q-6 52 -39.5 85t-81 48t-96.5 15q-55 0 -105 -21t-79 -60
l-78 -103q-26 -34 -52.5 -63t-54 -47t-57.5 -18l-22 -1v82h18q18 0 37.5 15t37.5 35.5t31 38.5q23 32 44.5 62.5t41.5 56.5q36 50 102.5 76t139.5 26q55 0 107.5 -14.5t95.5 -44.5t68 -75t25 -105v-60h-63q-47 0 -78 -7.5t-46 -29t-15 -62.5q0 -26 15 -51.5t44.5 -41.5
t71.5 -16v-80zM813 -2v80q42 0 75.5 15t53 51.5t19.5 100.5v263q0 90 -37 128.5t-111 38.5v80q75 0 125.5 -25t77 -77.5t26.5 -136.5v-271q0 -123 -55.5 -185t-173.5 -62zM648 619l-81 27q19 34 49.5 58t67.5 37.5t73 13.5v-79q-31 0 -61 -15.5t-48 -41.5z" />
    <glyph glyph-name="sinNTha" horiz-adv-x="1068" 
d="M80 193v82h18q17 0 36.5 15t38 35.5t31.5 38.5l86 119q38 53 98.5 78t122.5 25q63 0 118.5 -24t93 -70t44.5 -112l-78 -8q-7 43 -32.5 73t-63.5 45.5t-83 15.5q-48 0 -90.5 -18.5t-75.5 -62.5l-78 -103q-26 -34 -52.5 -63t-54 -47t-57.5 -18zM275 -6q-48 0 -92 16.5
t-78.5 49t-54.5 82t-20 114.5v88h72v-74q0 -40 11 -75.5t33 -63t54 -43t72 -15.5t72 16.5t51 46.5t19 70q0 22 -7 44t-25 41t-50 31l46 61q41 -15 67 -43.5t38.5 -63.5t12.5 -72q0 -61 -28.5 -108.5t-78.5 -74.5t-114 -27zM103 425l-70 22q12 44 37.5 70t57 37.5t60.5 11.5
q34 0 63.5 -12t49 -30t23.5 -38l-52 -58q-6 31 -31 47t-53 16t-51.5 -16.5t-33.5 -49.5zM760 -2q-56 0 -95 18.5t-64.5 48.5t-37.5 64.5t-12 66.5v68q0 30 9.5 60.5t31 56.5t58.5 42.5t92 16.5l15 -60h1q-44 1 -72 -15t-41.5 -44t-13.5 -65v-50q0 -37 15.5 -65.5t44.5 -44.5
t69 -16v-82zM815 -2v82q43 0 75.5 15t51.5 51t19 99h81q0 -123 -54.5 -185t-172.5 -62zM812 755q65 0 117.5 -21.5t82.5 -73t30 -143.5v-276h-81v261q0 90 -31 134.5t-112 44.5h-6v-53q0 -37 13 -60.5t36 -34.5t52 -11v-67q-60 0 -99 23t-57 62t-18 85v130h73z" />
    <glyph glyph-name="sinDVa" horiz-adv-x="715" 
d="M94 -16q-28 37 -41.5 67t-18 63.5t-4.5 78.5v67q0 70 21.5 115t57.5 67.5t79 22.5q17 0 35 -3.5t36 -10.5v-66q-24 8 -37 10t-23 2q-32 0 -52.5 -18t-29.5 -49t-9 -70v-67q0 -40 4 -68.5t17.5 -54.5t41.5 -60zM456 -2v80q43 0 76.5 15t53 51.5t19.5 100.5v263
q0 90 -37 128.5t-112 38.5v80q75 0 126 -25t77 -77.5t26 -136.5v-271q0 -123 -55.5 -185t-173.5 -62zM400 -2q-60 0 -107.5 26.5t-74.5 69t-27 91.5q0 25 3 47.5t13 42t29 36.5q29 28 70.5 37t99.5 9q0 32 -22.5 48.5t-51.5 16.5q-20 0 -39 -9t-27 -30l-63 17q10 32 30 51
t46 28t53 9q37 0 68.5 -14.5t51.5 -43t20 -70.5v-74h-63q-44 0 -75 -6.5t-47.5 -27.5t-16.5 -63q0 -29 15 -54t44.5 -41t70.5 -16v-80zM266 544l-78 20q0 41 18.5 76t50 60.5t69 40t74.5 14.5v-79q-33 0 -64 -16t-50.5 -45.5t-19.5 -70.5z" />
    <glyph glyph-name="sinDDha" horiz-adv-x="747" 
d="M88 -16q-27 39 -39.5 72t-15.5 68.5t-3 80.5v69q0 54 15.5 92.5t44 63t69 36.5t89.5 12h163v-80h-179q-46 0 -73 -15t-39 -42t-12 -65v-83q0 -34 3 -62.5t15 -57t39 -63.5zM346 -3q-44 0 -79 18t-55.5 51t-20.5 78v145q0 30 8.5 63t29 61.5t58.5 46.5t97 18h33v-80h-33
q-34 0 -56 -11t-34 -28.5t-17 -37t-5 -36.5v-135q0 -13 6.5 -30t23 -30t45.5 -13t45 13t22.5 30t6.5 30v46h65v-46q0 -13 7 -30t23 -30t44 -13q29 0 45 13t23 30t7 30v51h82v-57q0 -67 -42 -107t-107 -40q-33 0 -63 12.5t-50 39.5q-18 -27 -46 -39.5t-63 -12.5zM278 544
l-78 20q0 43 20 78.5t53 60.5t73.5 38.5t80.5 13.5v-79q-37 0 -71.5 -14.5t-56 -44t-21.5 -73.5zM635 201v307q0 62 -16 99t-50 52.5t-86 15.5v80q78 0 129.5 -24t78 -76.5t26.5 -138.5v-315h-82z" />
    <glyph glyph-name="sinTtTtha" horiz-adv-x="747" 
d="M88 -16q-27 39 -39.5 72t-15.5 68.5t-3 80.5v69q0 54 15.5 92.5t44 63t69 36.5t89.5 12h163v-80h-179q-46 0 -73 -15t-39 -42t-12 -65v-83q0 -34 3 -62.5t15 -57t39 -63.5zM346 -3q-43 0 -78.5 18t-55.5 51t-20 78v142q0 29 8 60.5t28.5 59.5t57.5 46t94 18h29v-80h-29
q-32 0 -53.5 -11t-33 -28t-16.5 -36t-5 -34v-128q0 -14 7 -32t23 -31t45 -13t45 13t22.5 30t6.5 30v46h65v-46q0 -13 7 -30t23 -30t44 -13q30 0 46 13t23 30t7 30v51h81v-57q0 -67 -41.5 -107t-106.5 -40q-34 0 -64 12.5t-49 39.5q-19 -27 -47 -39.5t-63 -12.5zM487 755
q66 0 118 -21.5t82 -73t30 -143.5v-318h-81v303q0 91 -31.5 135t-112.5 44h-5v-53q0 -37 13 -60.5t36 -34.5t52 -11v-67q-60 0 -99 23t-57 62t-18 85v130h73z" />
    <glyph glyph-name="sinMatraU.sub" horiz-adv-x="179" 
d="M157 -279q-39 0 -70 13t-49.5 41t-18.5 73v65q0 36 7 58.5t24.5 44t49.5 52.5h-77v55h144v-55q-32 -30 -50.5 -51t-27 -36.5t-10.5 -30t-2 -32.5v-65q0 -16 6.5 -33.5t23.5 -28.5t47 -11h13v-59h-10z" />
    <glyph glyph-name="sinMatraUu.sub" horiz-adv-x="195" 
d="M145 -284q-35 0 -63.5 10t-46.5 33.5t-18 63.5v31q0 19 7 36t24.5 35t50.5 40h-77v44l82 65h-82v46h142v-46l-80 -63h80v-49q-43 -28 -62 -46t-23 -31t-4 -27v-27q0 -12 5 -25.5t20 -23.5t44 -10h20v-56h-19z" />
    <glyph glyph-name="sinRakar" horiz-adv-x="0" 
d="M-279 -229v77q47 0 80.5 14t51.5 38.5t18 53.5t-18.5 46t-52.5 27l16 66q70 -12 102 -50t32 -91q0 -57 -29.5 -97.5t-81 -62t-118.5 -21.5zM-335 -229q-51 0 -99 20t-78.5 56.5t-30.5 85.5v19h76q0 -30 14.5 -50t36 -31.5t44 -16.5t37.5 -5v-78z" />
    <glyph glyph-name="sinReph" horiz-adv-x="414" 
d="M144 616q-37 0 -64 17t-42.5 44.5t-15.5 60.5q0 35 17 65t50 48t80 18h71q72 0 112 -36t40 -95v-92h-70v83q0 31 -13.5 47t-33.5 22t-39 6h-65q-42 0 -62 -21t-20 -46q0 -23 14.5 -39.5t40.5 -16.5q22 0 33 10t14 23t3 20h61q0 -31 -11.5 -58t-35.5 -43.5t-64 -16.5z" />
    <glyph glyph-name="sinYansaya" horiz-adv-x="506" 
d="M30 0l78 313q7 32 12 56.5t5 45.5q0 35 -19.5 54t-71.5 19v76q57 0 94.5 -19.5t56 -54t18.5 -79.5q0 -17 -2 -34t-7 -34l-84 -343h-80zM167 0l19 78h126q38 0 61 23.5t23 63.5v91q0 25 -10 39t-25 20.5t-30 7.5t-25 1h-121v79h121q31 0 61 -4t54.5 -19t39.5 -48t15 -92
v-80q0 -42 -14.5 -78.5t-43.5 -59t-74 -22.5h-177zM293 566q43 0 85 -20t70 -79l-67 -23q-5 10 -15 22t-26.5 20t-44.5 8q-27 0 -44 -12t-26 -29.5t-13.5 -35.5t-6.5 -31l-74 -2q9 90 48.5 136t113.5 46z" />
    <glyph glyph-name="sinMatraAa.virama" horiz-adv-x="268" 
d="M31 619v200h78v-200h-78zM31 0v81h20q20 0 38.5 5t34 17.5t24.5 36t9 61.5v162q0 39 -9 63t-24.5 37.5t-34 18.5t-38.5 5h-20v81h20q67 0 108 -24.5t60 -69t19 -107.5v-166q0 -62 -19 -107t-60 -69.5t-108 -24.5h-20z" />
    <glyph glyph-name="sinK" horiz-adv-x="776" 
d="M560 619v200h78v-200h-78zM189 566q48 0 87 -23.5t51 -57.5l-56 -57q-6 31 -31 47t-53 16q-27 0 -51 -16.5t-34 -49.5l-70 22q12 44 37.5 70t57.5 37.5t62 11.5zM515 566q60 0 112.5 -27t85.5 -81.5t33 -140.5v-120q0 -61 -17 -105.5t-57 -68.5t-110 -24v81q22 0 40.5 5
t33 17.5t22.5 35.5t8 59v114q0 57 -23 96t-60 59t-80 20q-32 0 -64 -11.5t-60 -34.5l-276 -233l-73 -25v61l282 245q43 38 96 58t107 20zM192 -6q-32 0 -61 14.5t-47.5 41t-18.5 61.5v25q0 16 -5 32t-16 16q-3 0 -7 -0.5t-7 -1.5l47 63q25 -6 37.5 -17.5t17 -24.5t4.5 -23
v-48q0 -27 19 -41.5t40 -14.5t38 13.5t17 42.5v64h64v-63q0 -30 18.5 -43.5t40.5 -13.5q24 0 44.5 14.5t20.5 42.5v92q0 34 -9.5 54.5t-31.5 33t-60 19.5l61 51q36 -8 62 -25t39.5 -47.5t13.5 -79.5v-108q0 -41 -18.5 -70t-48.5 -43.5t-63 -14.5q-27 0 -53.5 10.5
t-47.5 30.5q-18 -21 -41.5 -31.5t-48.5 -10.5z" />
    </font>
</defs>
</svg>
