<?xml version="1.0" standalone="no"?>
<!DOCTYPE svg PUBLIC "-//W3C//DTD SVG 1.1//EN" "http://www.w3.org/Graphics/SVG/1.1/DTD/svg11.dtd" >
<svg xmlns="http://www.w3.org/2000/svg" xmlns:xlink="http://www.w3.org/1999/xlink" version="1.1">
<metadata>
Created by FontForge 20201107 at Mon Jun 28 18:07:17 2021
 By 
Copyright 2021 The Stick No Bills Project Authors (https://github.com/mooniak/stick-no-bills-font)
</metadata>
<defs>
<font id="StickNoBills-Bold" horiz-adv-x="714" >
  <font-face 
    font-family="Stick No Bills"
    font-weight="700"
    font-stretch="normal"
    units-per-em="1000"
    panose-1="0 0 0 0 0 0 0 0 0 0"
    ascent="800"
    descent="-200"
    x-height="559"
    cap-height="700"
    bbox="-616 -311 1516 971"
    underline-thickness="50"
    underline-position="-125"
    unicode-range="U+000D-111F4"
  />
<missing-glyph horiz-adv-x="631" 
d="M50 -93v847h531v-847h-531zM299 99q-15 0 -26 11.5t-11 26.5q0 16 11 27t26 11t26 -11t11 -27q0 -15 -11 -26.5t-26 -11.5zM144 3h343v646h-343v-646zM268 197v131q49 0 73.5 13t24.5 49q0 30 -17 45.5t-43 15.5q-15 0 -26.5 -4.5t-20 -12t-14.5 -15.5l-40 41q8 12 21 24
t33.5 21t50.5 9q56 0 86.5 -33t31.5 -86q1 -41 -14 -67t-38 -39.5t-45 -16.5v-75h-63z" />
    <glyph glyph-name="fi" unicode="fi" horiz-adv-x="479" 
d="M97 0v407h-63v102h63v43q0 17 8.5 41t26.5 47.5t45.5 39.5t66.5 16h51l-23 -102h-29q-17 -1 -25.5 -9t-11.5 -17.5t-3 -15.5v-44h227v-508h-106v407h-121v-407h-106zM376 558q-26 0 -45 18.5t-19 44.5t19 45t45 19t45 -19t19 -45t-19 -44.5t-45 -18.5z" />
    <glyph glyph-name="fl" unicode="fl" horiz-adv-x="482" 
d="M97 0v407h-63v102h63v43q0 17 8.5 41t26.5 47.5t45.5 39.5t66.5 16h189v-696h-109v594h-80q-16 0 -25 -8t-12.5 -18t-3.5 -16v-44l65 1v-102h-65v-407h-106z" />
    <glyph glyph-name=".notdef" horiz-adv-x="631" 
d="M50 -93v847h531v-847h-531zM299 99q-15 0 -26 11.5t-11 26.5q0 16 11 27t26 11t26 -11t11 -27q0 -15 -11 -26.5t-26 -11.5zM144 3h343v646h-343v-646zM268 197v131q49 0 73.5 13t24.5 49q0 30 -17 45.5t-43 15.5q-15 0 -26.5 -4.5t-20 -12t-14.5 -15.5l-40 41q8 12 21 24
t33.5 21t50.5 9q56 0 86.5 -33t31.5 -86q1 -41 -14 -67t-38 -39.5t-45 -16.5v-75h-63z" />
    <glyph glyph-name=".null" horiz-adv-x="0" 
 />
    <glyph glyph-name="nonmarkingreturn" horiz-adv-x="333" 
 />
    <glyph glyph-name="CR" unicode="&#xd;" horiz-adv-x="682" 
 />
    <glyph glyph-name="space" unicode=" " horiz-adv-x="232" 
 />
    <glyph glyph-name="exclam" unicode="!" horiz-adv-x="223" 
d="M57 166v534h112v-534h-112zM111 -18q-27 0 -46 19t-19 46q0 28 19 47.5t46 19.5q28 0 47 -19.5t19 -47.5q0 -27 -19 -46t-47 -19z" />
    <glyph glyph-name="quotedbl" unicode="&#x22;" horiz-adv-x="358" 
d="M206 465v271h110v-271h-110zM42 465v271h111v-271h-111z" />
    <glyph glyph-name="numbersign" unicode="#" horiz-adv-x="752" 
d="M149 22l29 162h-148l22 105h145l21 123h-154l19 105h154l28 165h106l-30 -166h122l28 166h106l-29 -166h145l-16 -105l-148 1l-21 -124h150l-15 -105l-154 1l-28 -162h-105l28 162h-121l-28 -162h-106zM423 288l21 124h-121l-21 -123z" />
    <glyph glyph-name="dollar" unicode="$" horiz-adv-x="489" 
d="M261 -47v157q11 0 25 6.5t27 18t21.5 28.5t8.5 40q0 25 -11.5 42t-30 28t-40.5 18v128q20 -7 38.5 -14t37.5 -17q36 -17 65 -41.5t46 -58t17 -79.5q0 -44 -18.5 -84.5t-50 -70.5t-72.5 -44v-57h-63zM145 -47v57q-37 15 -64 41.5t-41.5 55.5t-15.5 51l110 39
q2 -25 14.5 -43.5t29 -29t30.5 -14.5v-157h-63zM208 311q-15 4 -28.5 9t-24.5 10q-35 16 -63 38.5t-44 55.5t-16 82q0 50 17 84.5t43 57t53 34.5v68h63v-164q-8 -2 -18.5 -8t-20 -15.5t-15.5 -22t-6 -29.5t8.5 -30.5t22.5 -22.5t29 -16v-131zM324 516q-3 22 -14 36.5t-24 23
t-25 10.5v164h63v-65q35 -15 59 -40.5t38 -51t16 -40.5z" />
    <glyph glyph-name="percent" unicode="%" horiz-adv-x="566" 
d="M137 -21l175 739h110l-174 -739h-111zM441 26q-38 0 -65 27t-27 66q0 38 27 65t65 27q39 0 66 -27t27 -65q0 -39 -27 -66t-66 -27zM124 485q-38 0 -65 27t-27 65q0 39 27 66t65 27t65 -27t27 -66q0 -38 -27 -65t-65 -27z" />
    <glyph glyph-name="ampersand" unicode="&#x26;" horiz-adv-x="654" 
d="M499 3l-339 392q-31 38 -43.5 68.5t-12.5 64.5q0 47 20 85t55.5 62.5t81.5 30.5v-114q-11 -1 -21.5 -9t-17 -20.5t-6.5 -30.5q0 -12 4 -22.5t11.5 -20.5t15.5 -21l177 -204q7 9 14.5 21.5t12.5 28t6 31.5h123q-3 -38 -13 -69.5t-24.5 -58t-33.5 -51.5l113 -131zM247 0
q-58 0 -107 28t-78.5 76.5t-29.5 108.5q0 47 20 88.5t56 71.5l80 -94q-9 -8 -17 -19t-12.5 -23.5t-4.5 -26.5q0 -26 12.5 -46.5t34 -32.5t45.5 -12q16 0 32 5.5t30 18.5l79 -92q-30 -25 -65.5 -38t-74.5 -13zM361 530q0 11 -4.5 23.5t-14.5 23.5t-26 15v114q59 -7 101 -48
t53 -99z" />
    <glyph glyph-name="quotesingle" unicode="'" horiz-adv-x="195" 
d="M42 465v271h111v-271h-111z" />
    <glyph glyph-name="parenleft" unicode="(" horiz-adv-x="221" 
d="M197 -31q-68 30 -101.5 62.5t-44.5 71.5t-11 86v321q0 53 11.5 89t32 60t49.5 40t63 30l1 -75q-19 -11 -34 -26.5t-23 -40.5t-8 -66v-322q0 -50 9 -80t24 -46.5t32 -27.5v-76z" />
    <glyph glyph-name="parenright" unicode=")" horiz-adv-x="222" 
d="M24 -32v76q13 8 25 19.5t21.5 29t15 44t5.5 66.5v318q0 40 -8.5 65.5t-23.5 41.5t-35 27l1 75q50 -19 85 -45t53.5 -67.5t18.5 -107.5v-320q0 -31 -5 -61t-21 -59t-48 -54.5t-84 -47.5z" />
    <glyph glyph-name="asterisk" unicode="*" horiz-adv-x="330" 
d="M131 478v92l-73 -50l-37 52l91 61l-92 61l39 52l72 -47v86h65v-88l76 49l38 -52l-92 -62l91 -62l-37 -53l-76 54v-93h-65z" />
    <glyph glyph-name="plus" unicode="+" horiz-adv-x="415" 
d="M151 87v152h-131v110h131v149h110v-149h134v-110h-134v-152h-110z" />
    <glyph glyph-name="comma" unicode="," horiz-adv-x="244" 
d="M49 -23l37 152h110l-37 -152h-110z" />
    <glyph glyph-name="hyphen" unicode="-" horiz-adv-x="412" 
d="M48 239v110h316v-110h-316z" />
    <glyph glyph-name="period" unicode="." horiz-adv-x="200" 
d="M100 -5q-28 0 -48 20t-20 48q0 29 20 49t48 20q29 0 48.5 -20t19.5 -49q0 -28 -19.5 -48t-48.5 -20z" />
    <glyph glyph-name="slash" unicode="/" horiz-adv-x="381" 
d="M48 -21l175 739h110l-174 -739h-111z" />
    <glyph glyph-name="zero" unicode="0" horiz-adv-x="500" 
d="M278 0v116q21 4 35 22.5t22.5 48t12 68.5t3.5 84v29q0 40 -3.5 77.5t-12 67t-22.5 48.5t-35 23v116q32 -1 66 -16t62 -52.5t45 -106t17 -174.5q0 -110 -17.5 -179t-46 -106.5t-62 -51.5t-64.5 -14zM222 0q-31 0 -64.5 14t-62 51.5t-46 106.5t-17.5 179q0 106 17 174.5
t45.5 106t62 52.5t65.5 16v-116q-20 -4 -34 -22.5t-22.5 -48t-12.5 -67t-4 -78.5v-29q0 -45 4.5 -84t13 -69t22 -48t33.5 -22v-116z" />
    <glyph glyph-name="one" unicode="1" horiz-adv-x="255" 
d="M101 0v535h-69v110l69 55h122v-700h-122z" />
    <glyph glyph-name="two" unicode="2" horiz-adv-x="498" 
d="M53 169q0 31 13 57.5t33.5 47.5t45 39t47.5 32.5t40 27.5q33 23 60.5 42t44 40t16.5 50q0 24 -10 42.5t-29.5 29t-46.5 10.5v113q71 0 115 -28.5t64 -73.5t20 -98q0 -59 -29 -100t-92 -84q-20 -14 -42.5 -27t-43 -26t-36 -27.5t-25.5 -30.5t-10 -36h-135zM53 0v119h404
v-119h-404zM137 501l-105 20q1 45 26 85.5t65.5 66.5t90.5 27v-113q-11 0 -29 -7.5t-32 -26.5t-16 -52z" />
    <glyph glyph-name="three" unicode="3" horiz-adv-x="503" 
d="M269 -1v113q22 1 42.5 10t34 28t13.5 51q0 18 -6 34.5t-20.5 29.5t-40.5 21t-69 8v112q43 0 69 7.5t40.5 21t20.5 30t6 33.5q0 49 -28 68t-62 21v113q33 0 69 -11.5t66 -35t48.5 -60.5t18.5 -90q0 -61 -21.5 -98.5t-47.5 -54.5q26 -18 47.5 -55t21.5 -99
q0 -52 -18.5 -89.5t-48.5 -61t-66 -35t-69 -11.5zM214 -1q-50 1 -90.5 27.5t-65.5 67t-26 84.5l105 21q2 -33 16 -52.5t32 -27t29 -7.5v-113zM137 501l-105 20q1 45 26 85.5t65.5 66.5t90.5 27v-113q-11 0 -29 -8t-32 -26.5t-16 -51.5z" />
    <glyph glyph-name="four" unicode="4" horiz-adv-x="493" 
d="M286 0v701h121v-446h54v-112h-54v-143h-121zM22 143v112l209 358v-217l-84 -141h84v-112h-209z" />
    <glyph glyph-name="five" unicode="5" horiz-adv-x="520" 
d="M145 294l-101 60l29 346h358v-113h-253l-14 -153q12 4 27.5 8.5t35.5 4.5v-107q-28 -1 -49.5 -14t-32.5 -32zM224 -1q-47 0 -90 23.5t-71 61t-31 79.5l105 23q4 -25 19.5 -41t35 -24.5t32.5 -8.5v-113zM279 0v109q19 3 37 12t31.5 24t21.5 34.5t8 44.5q0 27 -9 48
t-23.5 35.5t-32 23t-33.5 9.5v107q73 -1 119 -34t68 -84t22 -106q0 -70 -30 -119.5t-78 -76t-101 -27.5z" />
    <glyph glyph-name="six" unicode="6" horiz-adv-x="511" 
d="M235 -1q-65 1 -105.5 32t-61.5 82t-28.5 112.5t-7.5 123.5q0 37 3.5 83t15 93t33.5 86t59 63t92 25v-112q-31 -5 -48.5 -26.5t-25.5 -50.5t-10 -59.5t-2 -55.5q16 16 40.5 23t45.5 7v-113q-25 -4 -41.5 -19t-25 -36.5t-8.5 -44.5q0 -15 4 -31t13 -31t23.5 -25t34.5 -13
v-113zM289 -1v113q25 4 41.5 19t25 37t8.5 44q0 26 -9.5 47.5t-26.5 35.5t-39 18v112q62 0 104 -29t64 -77t22 -105q0 -64 -26.5 -113t-69.5 -75.5t-94 -26.5zM362 532q-6 18 -18.5 30t-27 18.5t-27.5 6.5v113q54 0 98.5 -30.5t66.5 -75.5z" />
    <glyph glyph-name="seven" unicode="7" horiz-adv-x="447" 
d="M158 0q1 71 12 143.5t30.5 142t44.5 132t53 116.5h124q-33 -63 -59 -130t-44.5 -136t-28.5 -136.5t-11 -131.5h-121zM32 587v113h399v-113h-399z" />
    <glyph glyph-name="eight" unicode="8" horiz-adv-x="497" 
d="M277 -2v112q24 3 40.5 16t26 33.5t9.5 45.5q0 19 -5.5 34t-15.5 26.5t-24 18.5t-30 10v110q25 4 41.5 17t24.5 32.5t8 40.5q0 22 -8 42t-24.5 34.5t-42.5 17.5v112q33 0 66.5 -15t61 -42.5t43.5 -65t16 -83.5q0 -53 -21.5 -91t-45.5 -54q26 -16 47 -54t21 -92
q0 -46 -16 -83.5t-43.5 -64.5t-61 -42t-67.5 -15zM220 -2q-34 0 -67.5 15t-61 42t-43.5 64.5t-16 83.5q0 54 21 92t47 54q-24 16 -45.5 54t-21.5 91q0 46 16 83.5t43.5 65t61 42.5t66.5 15v-112q-25 -3 -41.5 -17.5t-25 -34.5t-8.5 -42q0 -21 8 -40.5t24.5 -32.5t41.5 -17
v-110q-15 -3 -29.5 -10t-24.5 -18.5t-15.5 -26.5t-5.5 -34q0 -25 9.5 -45.5t26.5 -33.5t40 -16v-112z" />
    <glyph glyph-name="nine" unicode="9" horiz-adv-x="510" 
d="M275 0v112q26 2 43 19t26.5 44t13 60t3.5 67q-6 -4 -14.5 -8.5t-19.5 -9t-24 -7.5t-28 -3v113q37 6 56 34.5t19 66.5q0 15 -4.5 31t-14 30.5t-23.5 24.5t-33 13v113q66 0 106 -31t61 -83.5t28.5 -118t7.5 -134.5q0 -32 -3 -75t-14 -88.5t-33 -84t-59 -62.5t-94 -23z
M222 -1q-60 0 -102 31t-65 77l92 62q10 -25 32 -40.5t43 -16.5v-113zM222 274q-62 0 -104.5 28.5t-64 76.5t-21.5 105q0 66 26.5 114t70 75t93.5 27v-113q-19 -3 -33.5 -13t-24 -24.5t-14 -30.5t-4.5 -32q0 -37 20 -65.5t56 -34.5v-113z" />
    <glyph glyph-name="colon" unicode=":" horiz-adv-x="232" 
d="M116 342q-27 0 -46.5 19t-19.5 46q0 29 19.5 48t46.5 19q28 0 47 -19t19 -48q0 -27 -19 -46t-47 -19zM116 52q-27 0 -46.5 19t-19.5 46q0 29 19.5 48t46.5 19t46 -19t19 -48q0 -27 -19 -46t-46 -19z" />
    <glyph glyph-name="semicolon" unicode=";" horiz-adv-x="274" 
d="M50 -23l37 152h110l-37 -152h-110zM158 285q-27 0 -46.5 19.5t-19.5 46.5q0 28 19.5 47t46.5 19q28 0 47 -19t19 -47q0 -27 -19 -46.5t-47 -19.5z" />
    <glyph glyph-name="less" unicode="&#x3c;" horiz-adv-x="418" 
d="M386 79l-354 182v58l354 181v-113l-201 -95l201 -103v-110z" />
    <glyph glyph-name="equal" unicode="=" horiz-adv-x="418" 
d="M50 325v110h318v-110h-318zM50 148v110h318v-110h-318z" />
    <glyph glyph-name="greater" unicode="&#x3e;" horiz-adv-x="418" 
d="M32 79v110l201 103l-201 95v113l354 -181v-58z" />
    <glyph glyph-name="question" unicode="?" horiz-adv-x="464" 
d="M144 148v225q52 1 91.5 9t62.5 32t23 70q0 37 -15 60.5t-39 35.5t-54 12q-25 0 -46 -8t-37 -20.5t-27 -26.5l-71 74q15 19 38 40.5t59 36.5t89 15q99 0 155 -57.5t58 -154.5q1 -53 -15 -92t-43 -65t-58 -40.5t-59 -17.5v-128h-112zM199 -22q-27 0 -46.5 19.5t-19.5 46.5
q0 28 19.5 47t46.5 19q28 0 47 -19t19 -47q0 -27 -19 -46.5t-47 -19.5z" />
    <glyph glyph-name="at" unicode="@" horiz-adv-x="797" 
d="M416 -80q-84 0 -156.5 26.5t-126 76t-83 119.5t-29.5 157q0 92 32.5 167t90 129.5t133 83.5t160.5 29q62 0 122 -17.5t109 -55t78 -95t29 -137.5q0 -59 -15 -104.5t-40 -79t-56 -54t-63.5 -30.5t-62.5 -10q-23 0 -40 6t-28.5 17.5t-17.5 23.5q-7 -13 -33.5 -29.5
t-66.5 -16.5q-41 0 -73 22.5t-49 61t-17 86.5q0 67 30.5 115.5t76.5 74.5t92 26q30 0 48.5 -8t29 -17.5t15.5 -14.5l7 26h76l-48 -190q-2 -8 -5 -19.5t-3 -22.5q0 -8 2 -16t8.5 -13t16.5 -5q16 0 35 10.5t37 31.5t29 53t11 75q0 53 -20.5 92t-54 64.5t-74.5 38t-82 12.5
q-55 0 -110.5 -19.5t-101.5 -58.5t-74.5 -96t-28.5 -132q0 -84 36.5 -149t102 -102t152.5 -37q64 0 127.5 20.5t123.5 62.5l44 -80q-32 -29 -78.5 -51t-101.5 -34.5t-115 -12.5z" />
    <glyph glyph-name="A" unicode="A" horiz-adv-x="509" 
d="M367 0l-21 95h-120l26 118h61l-108 487h121l162 -700h-121zM32 0l130 585h16l50 -235l-77 -350h-119z" />
    <glyph glyph-name="B" unicode="B" horiz-adv-x="493" 
d="M206 0v107h22q30 0 50.5 8.5t34 23t20 32.5t6.5 35q0 36 -23.5 63.5t-72.5 27.5h-37v106h37q33 0 54 13t31 34t10 45q0 23 -11 46t-34 37.5t-58 14.5h-29v107h44q56 0 95.5 -17.5t64.5 -46t37 -63.5t12 -70q0 -47 -18 -88t-50 -65q21 -15 36.5 -39t24 -52.5t8.5 -60.5
q0 -51 -23 -96t-69 -73.5t-117 -28.5h-45zM32 0v700h121v-700h-121z" />
    <glyph glyph-name="C" unicode="C" horiz-adv-x="498" 
d="M236 -5q-54 0 -91.5 20t-61 50.5t-34.5 62t-11 53.5v337q0 23 11 54.5t34.5 61.5t61 50.5t91.5 20.5v-121q-22 0 -36.5 -8.5t-23 -20t-12.5 -22t-4 -15.5v-337q0 -5 4 -15.5t12.5 -22t23 -19.5t36.5 -8v-121zM288 -5v121q11 2 23.5 7t23.5 14.5t15 23.5q4 8 5 17.5
t1 18.5v7.5v5.5l118 -28q0 -53 -27 -95.5t-69.5 -67t-89.5 -24.5zM356 485v8v8q-1 8 -1.5 17.5t-4.5 16.5q-5 14 -13 23t-17.5 14t-18 8t-13.5 4v121q36 0 68.5 -16t59.5 -42.5t42.5 -60.5t15.5 -70z" />
    <glyph glyph-name="D" unicode="D" horiz-adv-x="472" 
d="M216 0v121q12 0 28 2.5t31.5 10t26 22.5t10.5 41v306q0 13 -6 26.5t-18 24.5t-30 18t-42 7v121q54 0 95 -18t68 -47t41 -63.5t14 -68.5v-306q0 -59 -23 -97.5t-57 -60t-71 -30.5t-67 -9zM42 0v700h121v-700h-121z" />
    <glyph glyph-name="E" unicode="E" horiz-adv-x="444" 
d="M42 0v700h364v-121h-243v-171h149v-121h-149v-166h243v-121h-364z" />
    <glyph glyph-name="F" unicode="F" horiz-adv-x="434" 
d="M42 1v699h364v-121h-243v-171h149v-121h-149v-286h-121z" />
    <glyph glyph-name="G" unicode="G" horiz-adv-x="509" 
d="M235 -5q-22 0 -55.5 10.5t-66 34t-54 61t-21.5 91.5v332q3 24 15.5 55t36 60t60 47.5t85.5 18.5v-121q-26 0 -43 -13t-24 -30.5t-7 -32.5v-316q0 -22 9.5 -36.5t23 -23t25.5 -12.5t16 -4v-121zM287 -5v121q6 0 16.5 5.5t21.5 15t18.5 23t7.5 30.5v50h-64v113h186v-177
q0 -30 -17 -62t-44.5 -58.5t-60 -43.5t-64.5 -17zM354 472v35q-1 20 -7.5 34.5t-17 23.5t-21.5 14t-21 5v121q48 0 90 -27t69 -70.5t27 -91.5z" />
    <glyph glyph-name="H" unicode="H" horiz-adv-x="515" 
d="M354 0v297h-70v110h70v293h121v-700h-121zM40 0v700h122v-293h69v-110h-69v-297h-122z" />
    <glyph glyph-name="I" unicode="I" horiz-adv-x="206" 
d="M42 0v700h122v-700h-122z" />
    <glyph glyph-name="J" unicode="J" horiz-adv-x="486" 
d="M256 -5v122q5 0 17 4t25.5 12.5t23.5 23t10 36.5v507h121v-507q0 -54 -21.5 -92t-54.5 -61t-65.5 -34t-55.5 -11zM204 -5q-22 0 -54 11.5t-62.5 35.5t-51 61.5t-20.5 89.5v49h123v-48q0 -22 7.5 -36.5t19 -23.5t22 -13t16.5 -4v-122z" />
    <glyph glyph-name="K" unicode="K" horiz-adv-x="489" 
d="M351 0l-147 341l143 359h122l-142 -359l146 -341h-122zM42 0v700h121v-700h-121z" />
    <glyph glyph-name="L" unicode="L" horiz-adv-x="434" 
d="M42 0v700h121v-579h255v-121h-376z" />
    <glyph glyph-name="M" unicode="M" horiz-adv-x="696" 
d="M301 0l-259 621v79h96l205 -497l127 286h10v-278l-94 -211h-85zM42 0v464h9l113 -271v-193h-122zM532 0v700h122v-700h-122z" />
    <glyph glyph-name="N" unicode="N" horiz-adv-x="529" 
d="M429 0l-387 621v79h101l344 -554v-146h-58zM42 0v512h8l114 -183v-329h-122zM479 256l-114 183v261h122v-444h-8z" />
    <glyph glyph-name="O" unicode="O" horiz-adv-x="545" 
d="M300 -5v122q14 0 28.5 6.5t27 18.5t20 28t7.5 36v286q0 18 -6 34t-16.5 29.5t-26 20.5t-34.5 7v122q43 0 80.5 -16.5t65.5 -44.5t43.5 -63.5t15.5 -72.5v-306q0 -46 -16 -84t-44 -65.5t-65.5 -42.5t-79.5 -15zM244 -5q-38 0 -74.5 15.5t-65.5 43.5t-46.5 66t-17.5 82v306
q0 37 15.5 72.5t43.5 63.5t65.5 44.5t80.5 16.5v-122q-19 0 -34.5 -7.5t-26 -20.5t-16.5 -29t-6 -34v-286q0 -20 7.5 -36.5t19.5 -28t26.5 -18t28.5 -6.5v-122z" />
    <glyph glyph-name="P" unicode="P" horiz-adv-x="480" 
d="M42 0v700h122v-700h-122zM216 317v119h55q17 0 32.5 4.5t26 20.5t10.5 48q0 31 -10.5 46.5t-26 20.5t-32.5 5h-55v119h63q68 0 108.5 -23.5t58.5 -67t18 -104.5q0 -65 -19.5 -106.5t-60 -61.5t-105.5 -20h-63z" />
    <glyph glyph-name="Q" unicode="Q" horiz-adv-x="526" 
d="M360 -107l-71 102v122q3 0 14.5 3.5t25.5 12.5t24.5 24t10.5 38v313q0 9 -7 27t-23.5 33.5t-44.5 15.5v121q49 0 86 -19.5t61.5 -49t37 -60t12.5 -52.5v-329q0 -39 -12 -68.5t-31 -51t-41 -37.5l55 -80zM235 -5q-22 0 -55.5 11t-66 35t-54 62t-21.5 92v329
q0 23 12.5 53.5t37 59.5t62 48.5t86.5 19.5v-121q-28 0 -44.5 -15.5t-24 -33.5t-7.5 -27v-313q0 -23 10 -38.5t24.5 -24t26 -12t14.5 -3.5v-122z" />
    <glyph glyph-name="R" unicode="R" horiz-adv-x="506" 
d="M369 0l-15 178q-3 40 -12.5 65t-29.5 37t-54 12h-42v109h41q49 0 71.5 26.5t22.5 65.5q0 45 -26.5 69t-72.5 24h-36v114h48q62 0 107 -23.5t69.5 -66.5t24.5 -104q0 -55 -18.5 -94t-49.5 -63q31 -18 48 -55.5t20 -76.5l17 -217h-113zM42 0v700h122v-700h-122z" />
    <glyph glyph-name="S" unicode="S" horiz-adv-x="485" 
d="M259 -3v113q13 0 27 7t26.5 19t20.5 27.5t8 34.5q0 29 -16 49.5t-41.5 35t-52 23.5t-48.5 15t-30 9q-31 10 -59 33t-46 59.5t-18 85.5q0 53 19.5 89.5t48.5 58.5t59 33t49 11v-114q-9 -3 -19.5 -8.5t-19.5 -15.5t-15 -22.5t-6 -29.5q0 -21 11.5 -36t31 -25.5t44 -20
t51 -18.5t51.5 -22q32 -15 61 -38.5t48 -57.5t19 -83q0 -56 -28 -104.5t-74.5 -78t-101.5 -29.5zM206 -3q-42 0 -75.5 17t-58 43t-37.5 53t-13 48l110 39q2 -25 14 -43.5t28.5 -29t31.5 -14.5v-113zM322 516q-2 22 -12.5 36.5t-24 23t-26.5 10.5v114q40 0 72 -15.5t55 -40
t35.5 -49t13.5 -42.5z" />
    <glyph glyph-name="T" unicode="T" horiz-adv-x="465" 
d="M171 0v581h-155v119h433v-119h-156v-581h-122z" />
    <glyph glyph-name="U" unicode="U" horiz-adv-x="515" 
d="M231 -5q-22 0 -55.5 11t-65.5 34t-54 61t-22 92v507h122v-507q0 -22 10 -36.5t23.5 -23t25.5 -12.5t16 -4v-122zM284 -5v122q4 0 16 4t26 12.5t24 23t10 36.5v507h121v-507q0 -54 -22 -92t-54 -61.5t-65 -34t-56 -10.5z" />
    <glyph glyph-name="V" unicode="V" horiz-adv-x="473" 
d="M211 0l-203 700h124l166 -566l-45 -134h-42zM317 257l-56 191l79 252h124l-137 -443h-10z" />
    <glyph glyph-name="W" unicode="W" horiz-adv-x="792" 
d="M213 0l-203 700h124l165 -564l-45 -136h-41zM531 0l-199 700h124l161 -565l-45 -135h-41zM317 260l-56 191l71 249h124l-129 -440h-10zM641 260l-57 191l74 249h124l-131 -440h-10z" />
    <glyph glyph-name="X" unicode="X" horiz-adv-x="448" 
d="M18 0l146 361l-134 339h118l76 -181l75 181h119l-134 -339l146 -361h-125l-81 197l-81 -197h-125z" />
    <glyph glyph-name="Y" unicode="Y" horiz-adv-x="458" 
d="M156 0v252l-141 448h127l140 -447v-253h-126zM312 327l-57 198l62 175h125l-122 -373h-8z" />
    <glyph glyph-name="Z" unicode="Z" horiz-adv-x="430" 
d="M32 0v121l231 458h-231v121h366v-118l-232 -458h232v-124h-366z" />
    <glyph glyph-name="bracketleft" unicode="[" horiz-adv-x="243" 
d="M50 -36v775h172v-96h-56l-3 -583h59v-96h-172z" />
    <glyph glyph-name="backslash" unicode="\" horiz-adv-x="368" 
d="M216 -23l-174 739h109l175 -739h-110z" />
    <glyph glyph-name="bracketright" unicode="]" horiz-adv-x="238" 
d="M21 -36v96h60l-3 583h-57v96h172v-775h-172z" />
    <glyph glyph-name="asciicircum" unicode="^" horiz-adv-x="491" 
d="M58 460l149 296h77l149 -296h-108l-81 162l-79 -162h-107z" />
    <glyph glyph-name="underscore" unicode="_" horiz-adv-x="514" 
d="M32 -205v94h450v-94h-450z" />
    <glyph glyph-name="grave" unicode="`" horiz-adv-x="310" 
d="M110 605l-68 152h110l37 -152h-79z" />
    <glyph glyph-name="a" unicode="a" horiz-adv-x="470" 
d="M194 0q-52 0 -89.5 19.5t-57 49.5t-19.5 61v50q0 11 2.5 28.5t13.5 36.5t37 32q16 9 43.5 18t58 18t58 19.5t45.5 21.5t18 24v21q0 17 -7.5 29t-20 19t-30.5 7v106q57 0 94.5 -25t56 -61.5t18.5 -67.5v-266q0 -6 4.5 -19t23.5 -13v-108q-32 0 -54.5 9t-37.5 24
q-19 -16 -46 -24.5t-58 -8.5v107q19 0 31.5 7t19 19.5t6.5 26.5v94q-18 -10 -42.5 -18t-50 -14.5t-45.5 -12t-28 -10.5q-12 -7 -12 -26v-19q0 -16 6.5 -26.5t22 -15.5t39.5 -5v-107zM136 381l-101 39q0 40 24 71.5t61 50t75 18.5v-107q-17 0 -30.5 -8t-21 -24t-7.5 -40z" />
    <glyph glyph-name="b" unicode="b" horiz-adv-x="459" 
d="M212 0v113h52q18 0 29 8t17 18t6 15v251q0 6 -5.5 16t-17 18t-28.5 8h-53v113h52q40 0 71 -16t51.5 -40t31.5 -49t11 -46v-257q0 -18 -10 -43.5t-30.5 -50.5t-52 -41.5t-72.5 -16.5h-52zM42 0v713h119v-713h-119z" />
    <glyph glyph-name="c" unicode="c" horiz-adv-x="451" 
d="M213 0q-48 0 -81.5 16t-53.5 41t-29.5 51t-9.5 44v256q0 21 10 46.5t31.5 49.5t54 40t77.5 16v-111q-20 0 -34 -7t-20 -17t-6 -19v-254q0 -12 7 -21.5t20.5 -14.5t33.5 -6v-110zM258 -1v112q19 0 33.5 5.5t23 18t8.5 32.5v29l107 -41q0 -42 -25 -78t-64.5 -57.5
t-82.5 -20.5zM312 364l-1 29q0 21 -7.5 32.5t-19.5 17t-26 5.5v112q44 0 80 -21.5t58 -56.5t22 -78z" />
    <glyph glyph-name="d" unicode="d" horiz-adv-x="455" 
d="M195 0q-42 0 -73 16.5t-51 41.5t-30 50.5t-10 43.5v256q0 19 10.5 45t31 49.5t50.5 39t70 15.5h49v-111h-49q-17 0 -28 -8.5t-16.5 -18.5t-5.5 -16v-249q0 -6 6 -15.5t17.5 -17.5t28.5 -8h47v-113h-47zM294 0v713h120l-1 -713h-119z" />
    <glyph glyph-name="e" unicode="e" horiz-adv-x="479" 
d="M214 0q-44 0 -76.5 16t-54.5 40.5t-33 50.5t-11 45v257q0 20 11 45.5t33 49.5t54.5 40t75.5 16v-110q-18 0 -30.5 -8t-20 -19.5t-7.5 -21.5v-57h176v56q0 18 -10 29.5t-25 16.5t-31 5v109q40 0 80 -19t67 -52.5t27 -78.5v-178h-284v-80q0 -9 6 -19.5t19.5 -18t33.5 -7.5
v-107zM265 0v107q24 0 40 8.5t26 22t14 28.5l95 -36q-7 -32 -30.5 -62t-60.5 -49t-84 -19z" />
    <glyph glyph-name="f" unicode="f" horiz-adv-x="306" 
d="M87 0v399h-69v112h69v46q0 18 8.5 43.5t28 51t50 43t72.5 18.5h56l-26 -112h-30q-18 0 -27.5 -8.5t-12.5 -19t-3 -16.5v-46h70v-112h-70v-399h-116z" />
    <glyph glyph-name="g" unicode="g" horiz-adv-x="452" 
d="M22 -188l27 107h195q21 0 34 9t19 20t6 16v56q-7 -2 -16 -5.5t-19.5 -6t-23.5 -2.5v107q20 0 32.5 7t19.5 18.5t7 21.5v251q0 10 -7 20.5t-20 18t-32 7.5v108q12 0 22.5 -2t20 -5.5t16.5 -6.5v14h111v-601q0 -18 -10.5 -43.5t-31 -50.5t-51.5 -41.5t-72 -16.5h-227z
M201 6q-43 0 -75 17t-52.5 41.5t-30.5 50t-10 43.5v258q0 19 10 44t30.5 49t52.5 40t75 16v-108q-21 0 -34 -8.5t-19.5 -19t-6.5 -16.5v-254q0 -9 6.5 -19.5t19.5 -18t34 -7.5v-108z" />
    <glyph glyph-name="h" unicode="h" horiz-adv-x="468" 
d="M42 -6v719h108v-184q12 6 30 11t38 5v-107q-21 0 -36 -9.5t-23 -21.5t-8 -20v-393h-109zM327 -6v393q0 7 -5.5 19t-18.5 22t-37 10v107q54 0 92 -21.5t58 -55.5t20 -71v-403h-109z" />
    <glyph glyph-name="i" unicode="i" horiz-adv-x="225" 
d="M56 0v553h116v-553h-116zM113 601q-26 0 -45.5 18.5t-19.5 44.5t19.5 44.5t45.5 18.5t44.5 -18.5t18.5 -44.5t-18.5 -44.5t-44.5 -18.5z" />
    <glyph glyph-name="j" unicode="j" horiz-adv-x="229" 
d="M-42 -196l26 111h26q18 1 28.5 9.5t16 19t5.5 15.5v576h116v-576q0 -18 -10 -45t-30.5 -51.5t-51 -41.5t-72.5 -17h-54zM117 575q-26 0 -45 18.5t-19 44.5t19 45t45 19t45 -19t19 -45t-19 -44.5t-45 -18.5z" />
    <glyph glyph-name="k" unicode="k" horiz-adv-x="492" 
d="M343 0l-154 281l152 278h129l-154 -278l156 -281h-129zM42 0v713h119v-713h-119z" />
    <glyph glyph-name="l" unicode="l" horiz-adv-x="208" 
d="M42 0v713h124v-713h-124z" />
    <glyph glyph-name="m" unicode="m" horiz-adv-x="750" 
d="M316 0v393q0 22 -14 37.5t-45 15.5v115q41 0 69 -11.5t49 -31.5q21 20 49 31.5t68 11.5v-115q-31 0 -44.5 -16t-13.5 -37v-393h-118zM38 0v408q0 21 10.5 47t32 50.5t54 40t77.5 15.5v-115q-30 0 -43 -17t-13 -36v-393h-118zM594 0v393q0 23 -13.5 38t-43.5 15v115
q44 0 77 -16t55 -40.5t32.5 -51t10.5 -45.5v-408h-118z" />
    <glyph glyph-name="n" unicode="n" horiz-adv-x="480" 
d="M38 379q0 37 12.5 70t36 58t56 39t72.5 14v-113q-18 0 -32 -9t-22 -26t-8 -39v-373h-115v379zM327 373q0 20 -7.5 37t-21.5 27t-34 10v113q40 0 72.5 -14t56 -39t36 -58t12.5 -70v-379h-114v373z" />
    <glyph glyph-name="o" unicode="o" horiz-adv-x="469" 
d="M215 -1q-37 0 -69.5 13.5t-56.5 37t-37.5 56t-13.5 69.5v203q0 38 12.5 71t36 58t56 39t72.5 14v-113q-20 0 -33.5 -10t-21 -27t-7.5 -39v-189q0 -18 7.5 -34.5t22 -26t32.5 -9.5v-113zM263 -1v113q19 0 33 9.5t21.5 25.5t7.5 34v190q0 21 -7 38.5t-21 27.5t-34 10v113
q40 0 72.5 -14t56 -39t35.5 -58t12 -71v-203q0 -37 -13.5 -69.5t-37.5 -56t-56 -37t-69 -13.5z" />
    <glyph glyph-name="p" unicode="p" horiz-adv-x="474" 
d="M212 0v113h48q22 0 34.5 8t17 18t4.5 15v251q0 5 -5 15t-17.5 18.5t-35.5 8.5h-48v113h48q44 0 76.5 -16.5t54 -41t32 -50.5t10.5 -45v-255q0 -18 -10.5 -44t-31.5 -50.5t-53 -41t-76 -16.5h-48zM40 -196v756h121v-756h-121z" />
    <glyph glyph-name="q" unicode="q" horiz-adv-x="469" 
d="M210 0q-43 0 -75.5 16.5t-53.5 41t-31 50.5t-10 44v255q0 19 10 45t31 50.5t53 41t76 16.5h48v-113h-48q-22 0 -34.5 -8.5t-17.5 -18.5t-5 -15v-251q0 -5 5.5 -15t18 -18t33.5 -8h47v-113h-47zM307 -196v756h122v-756h-122z" />
    <glyph glyph-name="r" unicode="r" horiz-adv-x="337" 
d="M42 0v560h118v-67q11 15 30.5 31t46.5 28t57 12h15h16l-27 -116q-35 0 -66.5 -21.5t-51.5 -54t-20 -66.5v-306h-118z" />
    <glyph glyph-name="s" unicode="s" horiz-adv-x="447" 
d="M241 -5v109q15 0 32 6.5t29.5 20t12.5 33.5q0 21 -20 34t-50 22t-63.5 17.5t-60.5 18.5q-21 9 -43 26.5t-37 45.5t-15 70q0 48 17.5 80t45 51t56 27t50.5 8v-108q-23 0 -37 -8t-19.5 -19.5t-5.5 -22.5q0 -20 19 -35.5t59.5 -28.5t103.5 -27q19 -4 38 -14.5t36 -27.5
t27.5 -42t10.5 -60q0 -55 -25 -95t-67.5 -60.5t-93.5 -20.5zM197 -5q-61 0 -100 23.5t-58 58.5t-19 70l108 20q0 -18 10.5 -32t26.5 -22t32 -9v-109zM310 391q0 28 -14.5 41.5t-31.5 18.5t-25 5l1 108q53 0 92.5 -23.5t62 -59t22.5 -71.5z" />
    <glyph glyph-name="t" unicode="t" horiz-adv-x="310" 
d="M251 0q-66 0 -102.5 22.5t-50.5 63.5t-14 96v264h-69v111h69v156h116v-156h65v-112h-65v-273q0 -20 10.5 -36.5t42.5 -16.5h23l26 -119h-51z" />
    <glyph glyph-name="u" unicode="u" horiz-adv-x="480" 
d="M262 -5v115q22 0 35.5 8.5t20 20t6.5 23.5v397h118v-410q0 -20 -11 -46t-34 -51t-56.5 -41t-78.5 -16zM217 -5q-44 0 -78 16t-56.5 40t-33.5 50.5t-11 46.5v411h118v-397q0 -11 6.5 -23t20 -20.5t34.5 -8.5v-115z" />
    <glyph glyph-name="v" unicode="v" horiz-adv-x="436" 
d="M182 0l-174 560h129l150 -442l-39 -118h-66zM300 203l-61 174l60 183h129l-115 -357h-13z" />
    <glyph glyph-name="w" unicode="w" horiz-adv-x="723" 
d="M472 0l-175 560h129l150 -442l-39 -118h-65zM183 0l-175 560h129l150 -442l-39 -118h-65zM300 203l-61 175l58 182h129l-113 -357h-13zM589 203l-60 175l57 182h129l-113 -357h-13z" />
    <glyph glyph-name="x" unicode="x" horiz-adv-x="409" 
d="M8 0l131 283l-128 277h119l75 -149l73 149h120l-127 -277l130 -283h-118l-78 157l-79 -157h-118z" />
    <glyph glyph-name="y" unicode="y" horiz-adv-x="422" 
d="M44 -197l100 322l-138 435h124l140 -437l-106 -320h-120zM288 218l-52 173l59 169h124l-120 -342h-11z" />
    <glyph glyph-name="z" unicode="z" horiz-adv-x="380" 
d="M30 0v113l188 334h-188v112h320v-111l-184 -335h184v-113h-320z" />
    <glyph glyph-name="braceleft" unicode="{" horiz-adv-x="278" 
d="M258 -38q-37 0 -70 5t-58 25t-39 65t-14 125v108q0 24 -17.5 34t-44.5 24q27 11 44.5 21.5t17.5 38.5v106q0 75 13.5 119t38 66t57.5 29t72 7v-87q-25 0 -39.5 -9t-21 -29t-8 -54t-1.5 -87v-86q-1 -13 -12.5 -21.5t-29.5 -13.5q19 -6 30 -17t11 -27v-97q0 -51 4 -82.5
t12 -48t22 -22t33 -5.5v-87z" />
    <glyph glyph-name="bar" unicode="|" horiz-adv-x="192" 
d="M50 -134v888h92v-888h-92z" />
    <glyph glyph-name="braceright" unicode="}" horiz-adv-x="278" 
d="M20 -38v87q19 0 33 5.5t22 22.5t12 48.5t4 82.5v96q0 16 11 27t30 17q-19 5 -30 14t-11 22v85q0 53 -1.5 87t-8.5 54t-21 29t-40 9v87q39 0 72 -7t58 -29t38.5 -66t13.5 -119v-106q0 -28 17 -38.5t44 -21.5q-27 -14 -44.5 -24t-17.5 -34v-108q0 -78 -14 -122t-39 -65
t-58 -27t-70 -6z" />
    <glyph glyph-name="asciitilde" unicode="~" horiz-adv-x="628" 
d="M411 244q-34 0 -62 11t-53.5 25.5t-51.5 25.5t-57 11q-22 0 -48.5 -8t-58.5 -28v115q34 20 62 27.5t51 7.5q33 0 59.5 -11t52 -25.5t52.5 -25.5t60 -11q26 0 58.5 10t72.5 35v-113q-42 -25 -75.5 -35.5t-61.5 -10.5z" />
    <glyph glyph-name="uni00A0" unicode="&#xa0;" horiz-adv-x="232" 
 />
    <glyph glyph-name="exclamdown" unicode="&#xa1;" horiz-adv-x="225" 
d="M34 -178v557h117v-557h-117zM92 424q-29 0 -50 21t-21 49q0 29 21 49.5t50 20.5t49.5 -20.5t20.5 -49.5q0 -28 -21 -49t-49 -21z" />
    <glyph glyph-name="cent" unicode="&#xa2;" horiz-adv-x="449" 
d="M311 362v31q0 20 -8.5 31t-21 16.5t-24.5 5.5v112q44 0 80 -21t58 -56.5t22 -78.5zM212 0q-48 0 -81.5 16t-53.5 41t-29 51t-9 44v255q0 20 10.5 45.5t32 50t54 40t76.5 15.5v-111q-21 0 -34.5 -8t-19.5 -20t-6 -25v-234q0 -9 6.5 -20.5t20 -19.5t33.5 -8v-112zM257 -1
v113q24 0 44 11.5t22 42.5v15.5v14.5l106 -41q0 -42 -25 -78t-64 -57t-83 -21zM165 528v118h47v-118h-47zM165 -88v118h47v-118h-47zM257 528v118h48v-118h-48zM257 -88v118h48v-118h-48z" />
    <glyph glyph-name="sterling" unicode="&#xa3;" horiz-adv-x="443" 
d="M77 0v294h-57v94h57v133q0 50 18.5 91.5t57.5 67t100 25.5h2q21 0 38 -3.5t33 -10.5q40 -15 64.5 -46t32.5 -64l-87 -44q-8 23 -26 42.5t-51 19.5q-27 0 -47 -17t-20 -58v-134h141v-94h-141v-201h225v-95h-340z" />
    <glyph glyph-name="currency" unicode="&#xa4;" horiz-adv-x="637" 
d="M295 133q-39 0 -68 13t-49 34l-75 -66l-62 71l92 83q-1 6 -1.5 12t-0.5 12v147q0 6 0.5 12t1.5 12l-93 82l63 72l76 -67q20 21 48.5 33t67.5 12v-103q-21 0 -34.5 -8t-19 -19.5t-5.5 -22.5v-157q0 -11 6.5 -22.5t19.5 -19t33 -7.5v-103zM336 133v102q21 0 33.5 8t18 19.5
t5.5 22.5v156q0 13 -6 24.5t-18.5 19t-32.5 7.5v103q38 0 65.5 -12t47.5 -33l75 67l63 -72l-93 -83q0 -6 0.5 -12t0.5 -12v-149q0 -4 -0.5 -9.5t-0.5 -11.5l92 -83l-62 -71l-74 65q-20 -20 -48 -33t-66 -13z" />
    <glyph glyph-name="yen" unicode="&#xa5;" horiz-adv-x="450" 
d="M173 0v248l-134 450h119l75 -240l73 240h119l-133 -452v-246h-119zM17 223v55h423v-55h-423zM17 329v55h423v-55h-423z" />
    <glyph glyph-name="brokenbar" unicode="&#xa6;" horiz-adv-x="198" 
d="M42 405v357h106v-357h-106zM42 -139v357h106v-357h-106z" />
    <glyph glyph-name="section" unicode="&#xa7;" horiz-adv-x="603" 
d="M275 136q-5 2 -21 7t-36 13t-37 17q-39 21 -68 46t-44 57t-15 74q0 49 20 87.5t53 62.5q-6 15 -8.5 33t-2.5 37q0 54 18 90t46 58t59 31.5t56 9.5h110v-114h-98q-37 0 -57 -19t-20 -50q0 -14 6 -26t16 -20t23 -16v-134q-3 1 -15.5 5t-20.5 8q-11 5 -20.5 9.5t-17.5 10.5
q-10 -8 -17.5 -21.5t-7.5 -34.5q0 -27 14 -44.5t37 -29.5t48 -20v-127zM198 -136v114h96q36 0 57.5 19t21.5 51q0 16 -6 27.5t-16 20.5t-24 15v134q13 -4 21 -7t15 -7q11 -4 21 -9t19 -12q11 9 17.5 22t6.5 33q0 21 -8 36.5t-22 26.5t-32 19t-38 14v127q24 -9 48.5 -17.5
t45.5 -19.5q34 -16 63 -40t47 -58t18 -82q0 -46 -19.5 -84.5t-52.5 -64.5q5 -15 7.5 -33t2.5 -36q0 -50 -16.5 -85.5t-44 -58.5t-58.5 -34t-61 -11h-109z" />
    <glyph glyph-name="dieresis" unicode="&#xa8;" horiz-adv-x="399" 
d="M278 612q-27 0 -46.5 19.5t-19.5 46.5q0 28 19.5 47.5t46.5 19.5q28 0 47 -19.5t19 -47.5q0 -27 -19 -46.5t-47 -19.5zM121 612q-27 0 -46.5 19.5t-19.5 46.5q0 28 19.5 47.5t46.5 19.5q28 0 47 -19.5t19 -47.5q0 -27 -19 -46.5t-47 -19.5z" />
    <glyph glyph-name="copyright" unicode="&#xa9;" horiz-adv-x="813" 
d="M392 -43q-66 2 -129.5 30t-115 78.5t-82 119.5t-30.5 154q0 74 23 134.5t61 106.5t85 77t96 47t92 16v-79q-48 0 -97 -21t-90.5 -60.5t-66.5 -94.5t-25 -124q0 -60 21.5 -114t60 -95.5t89 -66t108.5 -26.5v-82zM427 -43v82q57 2 107.5 26.5t88.5 65.5t60 94t22 113
q0 67 -24.5 122t-65 95.5t-89.5 63t-99 22.5v79q45 0 95 -17t96.5 -49.5t84.5 -80t59 -108.5t20 -136q-2 -81 -32.5 -148.5t-81 -116.5t-113 -76.5t-128.5 -30.5zM467 417v17q0 17 -6 29t-15.5 18t-18.5 6v79q30 0 57 -17.5t43.5 -44.5t16.5 -58zM392 112q-35 0 -59 13.5
t-38.5 33t-21.5 40t-7 35.5v210q0 20 13 49t40.5 51t72.5 22v-79q-18 0 -28.5 -8.5t-14.5 -19t-4 -16.5v-209q0 -6 4.5 -16t15 -18.5t27.5 -8.5v-79zM427 112v78q17 0 28.5 14t12.5 36v20l76 -28q0 -30 -16.5 -57.5t-43.5 -45t-57 -17.5z" />
    <glyph glyph-name="ordfeminine" unicode="&#xaa;" horiz-adv-x="245" 
d="M19 338v58h203v-58h-203zM100 424q-27 0 -45.5 10t-28 24.5t-9.5 30.5v26q0 4 1 13t6.5 18.5t18.5 16.5q8 5 21.5 9t29 8.5t29.5 10t23 11t9 12.5v10q0 8 -4 14t-10 9.5t-15 4.5v52q27 0 46 -12.5t28.5 -30.5t9.5 -33v-134q0 -3 2 -9.5t12 -6.5v-54q-17 0 -27.5 5
t-18.5 12q-10 -8 -23 -12.5t-29 -4.5v54q10 0 16 3.5t9.5 9.5t3.5 14v47q-9 -6 -21.5 -10t-25 -7t-23 -6t-13.5 -6q-7 -3 -7 -12v-10q0 -8 4 -13t11 -7.5t20 -2.5v-54zM70 615l-50 20q0 19 12 35t30.5 25t37.5 9v-53q-9 0 -15.5 -4.5t-10.5 -12.5t-4 -19z" />
    <glyph glyph-name="guillemotleft" unicode="&#xab;" horiz-adv-x="460" 
d="M443 106l-211 157v54l211 156v-111l-101 -70l101 -78v-108zM232 106l-211 157v54l211 156v-111l-101 -70l101 -78v-108z" />
    <glyph glyph-name="logicalnot" unicode="&#xac;" horiz-adv-x="533" 
d="M379 208v127h-339v100h443v-227h-104z" />
    <glyph glyph-name="uni00AD" unicode="&#xad;" horiz-adv-x="376" 
d="M28 239v110h316v-110h-316z" />
    <glyph glyph-name="registered" unicode="&#xae;" horiz-adv-x="400" 
d="M190 357q-42 2 -78.5 25t-58.5 62t-22 86q0 41 15 72t39.5 53t53 33.5t54.5 11.5v-38q-30 0 -59 -17.5t-47.5 -47t-18.5 -68.5q0 -36 16.5 -65.5t44 -48t61.5 -20.5v-38zM209 357v38q34 2 62 20.5t45 48t17 65.5q0 38 -18.5 68t-46.5 47.5t-59 17.5v38q26 0 54 -12
t52 -34.5t39.5 -54t15.5 -71.5q0 -49 -23.5 -87.5t-60.5 -60t-77 -23.5zM141 430v197h36v-197h-36zM231 431l-3 50q-1 19 -10 25t-26 6v33h7q15 0 21.5 7t6.5 16q0 13 -8 19.5t-22 6.5h-5v34q20 0 35.5 -6.5t24 -19.5t8.5 -32q0 -29 -19 -40q8 -6 13 -14.5t6 -23.5l3 -61
h-32z" />
    <glyph glyph-name="macron" unicode="&#xaf;" horiz-adv-x="510" 
d="M32 712v94h450v-94h-450z" />
    <glyph glyph-name="degree" unicode="&#xb0;" horiz-adv-x="284" 
d="M142 477q-29 0 -53.5 14t-39 38.5t-14.5 53.5q0 30 14.5 54t39 38t53.5 14t53.5 -14t39 -38.5t14.5 -53.5t-14.5 -53.5t-39 -38.5t-53.5 -14zM141 545q17 0 28 11t11 27q0 17 -11 28t-28 11q-16 0 -27 -11t-11 -28q0 -16 11 -27t27 -11z" />
    <glyph glyph-name="plusminus" unicode="&#xb1;" horiz-adv-x="429" 
d="M27 57v110h376v-110h-376zM162 248v152h-131v110h131v149h110v-149h134v-110h-134v-152h-110z" />
    <glyph glyph-name="uni00B2" unicode="&#xb2;" horiz-adv-x="225" 
d="M19 467q0 18 8.5 31.5t22 24.5t27 19.5t22.5 15.5q19 14 36.5 27t17.5 33q0 9 -5 16.5t-13 12t-19 4.5v53q47 0 68 -27t21 -62q0 -28 -14 -47t-42 -39q-16 -10 -31.5 -19t-25 -19.5t-9.5 -23.5h-64zM19 389v56h181v-56h-181zM59 615l-49 9q1 30 25 54.5t57 25.5v-53
q-7 0 -19.5 -7.5t-13.5 -28.5z" />
    <glyph glyph-name="uni00B3" unicode="&#xb3;" horiz-adv-x="231" 
d="M121 387v52q13 2 25.5 10t12.5 29q0 15 -11.5 27.5t-47.5 12.5v52q36 0 47.5 12.5t11.5 27.5q0 22 -12.5 30t-25.5 9v53q20 0 41 -9.5t35.5 -29t14.5 -50.5q0 -27 -9.5 -44t-21.5 -25q12 -8 21.5 -24.5t9.5 -44.5q0 -30 -14.5 -49.5t-35.5 -29t-41 -9.5zM96 387
q-33 1 -56 25t-24 54l48 10q1 -21 13 -29t19 -8v-52zM64 613l-48 9q1 30 24 54.5t56 25.5v-53q-7 -1 -19 -8.5t-13 -27.5z" />
    <glyph glyph-name="acute" unicode="&#xb4;" horiz-adv-x="378" 
d="M115 605l37 152h110l-68 -152h-79z" />
    <glyph glyph-name="uni00B5" unicode="&#xb5;" horiz-adv-x="501" 
d="M46 0v698h108v-374q0 -8 6 -15t19 -12t33 -5v-105q-19 0 -33.5 3.5t-24.5 6.5v-197h-108zM254 187v105q19 0 32 5t19 12t6 15v376h109v-374q0 -11 7 -21.5t35 -10.5v-105q-32 0 -56 8.5t-42 23.5q-21 -16 -48.5 -25t-61.5 -9z" />
    <glyph glyph-name="paragraph" unicode="&#xb6;" horiz-adv-x="459" 
d="M204 -5v334q-78 0 -123.5 51.5t-45.5 131.5q0 53 21 97t59 70t89 26h73v-710h-73zM332 -5v710h73v-710h-73z" />
    <glyph glyph-name="periodcentered" unicode="&#xb7;" horiz-adv-x="231" 
d="M125 287q-28 0 -48 20t-20 48q0 29 20 49t48 20q29 0 48.5 -20t19.5 -49q0 -28 -19.5 -48t-48.5 -20z" />
    <glyph glyph-name="cedilla" unicode="&#xb8;" horiz-adv-x="421" 
d="M123 -31v81q30 0 55.5 16t25.5 57h82q0 -36 -15.5 -71.5t-50.5 -59t-97 -23.5z" />
    <glyph glyph-name="uni00B9" unicode="&#xb9;" horiz-adv-x="143" 
d="M42 384v241h-31v49l31 25h56v-315h-56z" />
    <glyph glyph-name="ordmasculine" unicode="&#xba;" horiz-adv-x="230" 
d="M26 371v61h178v-61h-178zM105 455q-17 0 -31.5 5.5t-25.5 16.5t-17 25t-6 31v92q0 17 5.5 31.5t16 25.5t25 17.5t33.5 6.5v-51q-10 0 -16 -4t-9 -12t-3 -18v-84q0 -9 3.5 -16t9.5 -11.5t15 -4.5v-50zM127 455v50q7 0 13.5 4.5t10 11.5t3.5 15v85q0 10 -3.5 18t-10 12
t-13.5 4v51q18 0 32 -6.5t24.5 -17.5t16 -25.5t5.5 -31.5v-92q0 -17 -6 -31t-17 -25t-25 -16.5t-30 -5.5z" />
    <glyph glyph-name="guillemotright" unicode="&#xbb;" horiz-adv-x="457" 
d="M226 110v106l106 76l-106 68v109l211 -150v-58zM15 110v106l106 76l-106 68v109l211 -150v-58z" />
    <glyph glyph-name="onequarter" unicode="&#xbc;" horiz-adv-x="506" 
d="M0 0l432 700h68l-426 -700h-74zM235 61v62l115 200v-128l-39 -72h39v-62h-115zM377 0v351h71v-228h27v-62h-27v-61h-71zM86 350v267h-34v56l34 27h72v-350h-72z" />
    <glyph glyph-name="onehalf" unicode="&#xbd;" horiz-adv-x="577" 
d="M86 350v267h-34v56l34 27h72v-350h-72zM0 0l432 700h68l-426 -700h-74zM368 239l-63 11q0 30 15 52t38.5 35t47.5 13v-68q-9 -1 -23 -10t-15 -33zM307 91q0 19 8.5 33t22.5 24t30 17.5t29 14.5q32 15 54.5 26.5t22.5 35.5q0 18 -10.5 28.5t-30.5 11.5v68q36 0 60.5 -14
t38 -38t13.5 -54q0 -41 -22 -62t-49 -35q-14 -7 -28.5 -13t-27 -12t-20 -13.5t-7.5 -17.5h-84zM307 0v66h229v-66h-229z" />
    <glyph glyph-name="threequarters" unicode="&#xbe;" horiz-adv-x="584" 
d="M96 588l-63 12q0 29 15 51t38.5 35.5t47.5 13.5v-68q-9 -1 -23 -10t-15 -34zM162 350v68q17 0 26 11.5t9 24.5q0 8 -4 17t-13 16t-26 7h-17v62h17q17 0 26 7t13 16t4 17q0 14 -9 25t-26 11v68q23 0 46.5 -11.5t39.5 -34t16 -55.5q0 -28 -11 -46.5t-24 -27.5
q12 -7 23.5 -26t11.5 -48q0 -33 -16.5 -55.5t-39.5 -34t-46 -11.5zM134 349q-24 1 -47.5 14t-38.5 35t-15 51l63 12q1 -24 15 -33.5t23 -10.5v-68zM78 0l432 700h69l-427 -700h-74zM313 61v62l115 200v-128l-39 -72h39v-62h-115zM455 0v351h71v-228h27v-62h-27v-61h-71z" />
    <glyph glyph-name="questiondown" unicode="&#xbf;" horiz-adv-x="445" 
d="M310 543v-224q-51 -1 -91 -9.5t-63 -32.5t-23 -69q0 -37 15 -61t39.5 -35.5t53.5 -11.5q26 0 46.5 7.5t37 20t26.5 26.5l71 -74q-15 -19 -38 -40.5t-59 -36.5t-89 -15q-99 0 -155 57.5t-58 154.5q-1 53 15 92.5t43 65.5t58 40t59 17v128h112zM255 713q28 0 47 -18.5
t19 -46.5q0 -27 -19 -47t-47 -20q-27 0 -46.5 20t-19.5 47q0 28 19.5 46.5t46.5 18.5z" />
    <glyph glyph-name="Agrave" unicode="&#xc0;" horiz-adv-x="509" 
d="M221 766l-68 152h110l37 -152h-79zM367 0l-21 95h-120l26 118h61l-108 487h121l162 -700h-121zM32 0l130 585h16l50 -235l-77 -350h-119z" />
    <glyph glyph-name="Aacute" unicode="&#xc1;" horiz-adv-x="509" 
d="M227 766l37 152h110l-68 -152h-79zM367 0l-21 95h-120l26 118h61l-108 487h121l162 -700h-121zM32 0l130 585h16l50 -235l-77 -350h-119z" />
    <glyph glyph-name="Acircumflex" unicode="&#xc2;" horiz-adv-x="509" 
d="M161 766l75 152h60l77 -152h-74l-33 68l-32 -68h-73zM367 0l-21 95h-120l26 118h61l-108 487h121l162 -700h-121zM32 0l130 585h16l50 -235l-77 -350h-119z" />
    <glyph glyph-name="Atilde" unicode="&#xc3;" horiz-adv-x="509" 
d="M322 751q-26 0 -47 10t-40.5 20t-43.5 10q-13 0 -29.5 -5t-36.5 -17v90q21 12 38.5 17t31.5 5q26 0 46 -10t40 -20.5t45 -10.5q17 0 36 6.5t44 21.5v-89q-25 -16 -46 -22t-38 -6zM367 0l-21 95h-120l26 118h61l-108 487h121l162 -700h-121zM32 0l130 585h16l50 -235
l-77 -350h-119z" />
    <glyph glyph-name="Adieresis" unicode="&#xc4;" horiz-adv-x="509" 
d="M346 766q-27 0 -46.5 19.5t-19.5 46.5q0 28 19.5 47.5t46.5 19.5q28 0 47 -19.5t19 -47.5q0 -27 -19 -46.5t-47 -19.5zM189 766q-27 0 -46.5 19.5t-19.5 46.5q0 28 19.5 47.5t46.5 19.5q28 0 47 -19.5t19 -47.5q0 -27 -19 -46.5t-47 -19.5zM367 0l-21 95h-120l26 118h61
l-108 487h121l162 -700h-121zM32 0l130 585h16l50 -235l-77 -350h-119z" />
    <glyph glyph-name="Aring" unicode="&#xc5;" horiz-adv-x="516" 
d="M363 0l-22 95h-112l26 118h62l-107 484q-15 12 -24 30t-9 38q0 38 27 64.5t65 26.5t64.5 -26.5t26.5 -64.5q0 -20 -7.5 -37.5t-22.5 -29.5l151 -698h-118zM35 0l131 585h15l51 -235l-78 -350h-119zM269 732q14 0 23.5 9.5t9.5 23.5q0 15 -9.5 24t-23.5 9t-23.5 -9
t-9.5 -24q0 -14 9.5 -23.5t23.5 -9.5z" />
    <glyph glyph-name="AE" unicode="&#xc6;" horiz-adv-x="727" 
d="M36 0l180 700h485v-121h-233v-171h139v-121h-139v-166h233v-121h-354v156h-85l25 104h60v319h-32l-144 -579h-135z" />
    <glyph glyph-name="Ccedilla" unicode="&#xc7;" horiz-adv-x="498" 
d="M140 -194v81q30 0 55.5 16t25.5 57h82q0 -36 -15.5 -71.5t-50.5 -59t-97 -23.5zM236 -5q-54 0 -91.5 20t-61 50.5t-34.5 62t-11 53.5v337q0 23 11 54.5t34.5 61.5t61 50.5t91.5 20.5v-121q-22 0 -36.5 -8.5t-23 -20t-12.5 -22t-4 -15.5v-337q0 -5 4 -15.5t12.5 -22
t23 -19.5t36.5 -8v-121zM288 -5v121q11 2 23.5 7t23.5 14.5t15 23.5q4 8 5 17.5t1 18.5v7.5v5.5l118 -28q0 -53 -27 -95.5t-69.5 -67t-89.5 -24.5zM356 485v8v8q-1 8 -1.5 17.5t-4.5 16.5q-5 14 -13 23t-17.5 14t-18 8t-13.5 4v121q36 0 68.5 -16t59.5 -42.5t42.5 -60.5
t15.5 -70z" />
    <glyph glyph-name="Egrave" unicode="&#xc8;" horiz-adv-x="444" 
d="M178 766l-68 152h110l37 -152h-79zM42 0v700h364v-121h-243v-171h149v-121h-149v-166h243v-121h-364z" />
    <glyph glyph-name="Eacute" unicode="&#xc9;" horiz-adv-x="444" 
d="M242 766l37 152h110l-68 -152h-79zM42 0v700h364v-121h-243v-171h149v-121h-149v-166h243v-121h-364z" />
    <glyph glyph-name="Ecircumflex" unicode="&#xca;" horiz-adv-x="444" 
d="M118 766l75 152h60l77 -152h-74l-33 68l-32 -68h-73zM42 0v700h364v-121h-243v-171h149v-121h-149v-166h243v-121h-364z" />
    <glyph glyph-name="Edieresis" unicode="&#xcb;" horiz-adv-x="444" 
d="M303 766q-27 0 -46.5 19.5t-19.5 46.5q0 28 19.5 47.5t46.5 19.5q28 0 47 -19.5t19 -47.5q0 -27 -19 -46.5t-47 -19.5zM146 766q-27 0 -46.5 19.5t-19.5 46.5q0 28 19.5 47.5t46.5 19.5q28 0 47 -19.5t19 -47.5q0 -27 -19 -46.5t-47 -19.5zM42 0v700h364v-121h-243v-171
h149v-121h-149v-166h243v-121h-364z" />
    <glyph glyph-name="Igrave" unicode="&#xcc;" horiz-adv-x="206" 
d="M63 766l-68 152h110l37 -152h-79zM42 0v700h122v-700h-122z" />
    <glyph glyph-name="Iacute" unicode="&#xcd;" horiz-adv-x="206" 
d="M63 766l37 152h110l-68 -152h-79zM42 0v700h122v-700h-122z" />
    <glyph glyph-name="Icircumflex" unicode="&#xce;" horiz-adv-x="206" 
d="M-3 766l75 152h60l77 -152h-74l-33 68l-32 -68h-73zM42 0v700h122v-700h-122z" />
    <glyph glyph-name="Idieresis" unicode="&#xcf;" horiz-adv-x="206" 
d="M181 766q-27 0 -46.5 19.5t-19.5 46.5q0 28 19.5 47.5t46.5 19.5q28 0 47 -19.5t19 -47.5q0 -27 -19 -46.5t-47 -19.5zM24 766q-27 0 -46.5 19.5t-19.5 46.5q0 28 19.5 47.5t46.5 19.5q28 0 47 -19.5t19 -47.5q0 -27 -19 -46.5t-47 -19.5zM42 0v700h122v-700h-122z" />
    <glyph glyph-name="Eth" unicode="&#xd0;" horiz-adv-x="502" 
d="M83 0v300h-57v111h57v289h122v-289h56v-111h-56v-300h-122zM257 0v121q12 0 28.5 2.5t32 10t25.5 22.5t10 41v306q0 13 -6 26.5t-18 24.5t-30 18t-42 7v121q55 0 95.5 -18t67.5 -47t41 -63.5t14 -68.5v-306q0 -59 -22.5 -97.5t-57 -60t-71.5 -30.5t-67 -9z" />
    <glyph glyph-name="Ntilde" unicode="&#xd1;" horiz-adv-x="529" 
d="M321 766q-26 0 -47 10t-40.5 20t-43.5 10q-13 0 -29.5 -5t-36.5 -17v90q21 12 38.5 17t31.5 5q26 0 46 -10t40 -20.5t45 -10.5q17 0 36 6.5t44 21.5v-89q-25 -16 -46 -22t-38 -6zM429 0l-387 621v79h101l344 -554v-146h-58zM42 0v512h8l114 -183v-329h-122zM479 256
l-114 183v261h122v-444h-8z" />
    <glyph glyph-name="Ograve" unicode="&#xd2;" horiz-adv-x="525" 
d="M216 766l-68 152h110l37 -152h-79zM300 -5v122q14 0 28.5 6.5t27 18.5t20 28t7.5 36v286q0 18 -6 34t-16.5 29.5t-26 20.5t-34.5 7v122q43 0 80.5 -16.5t65.5 -44.5t43.5 -63.5t15.5 -72.5v-306q0 -46 -16 -84t-44 -65.5t-65.5 -42.5t-79.5 -15zM244 -5q-38 0 -74.5 15.5
t-65.5 43.5t-46.5 66t-17.5 82v306q0 37 15.5 72.5t43.5 63.5t65.5 44.5t80.5 16.5v-122q-19 0 -34.5 -7.5t-26 -20.5t-16.5 -29t-6 -34v-286q0 -20 7.5 -36.5t19.5 -28t26.5 -18t28.5 -6.5v-122z" />
    <glyph glyph-name="Oacute" unicode="&#xd3;" horiz-adv-x="525" 
d="M223 766l37 152h110l-68 -152h-79zM300 -5v122q14 0 28.5 6.5t27 18.5t20 28t7.5 36v286q0 18 -6 34t-16.5 29.5t-26 20.5t-34.5 7v122q43 0 80.5 -16.5t65.5 -44.5t43.5 -63.5t15.5 -72.5v-306q0 -46 -16 -84t-44 -65.5t-65.5 -42.5t-79.5 -15zM244 -5q-38 0 -74.5 15.5
t-65.5 43.5t-46.5 66t-17.5 82v306q0 37 15.5 72.5t43.5 63.5t65.5 44.5t80.5 16.5v-122q-19 0 -34.5 -7.5t-26 -20.5t-16.5 -29t-6 -34v-286q0 -20 7.5 -36.5t19.5 -28t26.5 -18t28.5 -6.5v-122z" />
    <glyph glyph-name="Ocircumflex" unicode="&#xd4;" horiz-adv-x="525" 
d="M156 766l75 152h60l77 -152h-74l-33 68l-32 -68h-73zM300 -5v122q14 0 28.5 6.5t27 18.5t20 28t7.5 36v286q0 18 -6 34t-16.5 29.5t-26 20.5t-34.5 7v122q43 0 80.5 -16.5t65.5 -44.5t43.5 -63.5t15.5 -72.5v-306q0 -46 -16 -84t-44 -65.5t-65.5 -42.5t-79.5 -15zM244 -5
q-38 0 -74.5 15.5t-65.5 43.5t-46.5 66t-17.5 82v306q0 37 15.5 72.5t43.5 63.5t65.5 44.5t80.5 16.5v-122q-19 0 -34.5 -7.5t-26 -20.5t-16.5 -29t-6 -34v-286q0 -20 7.5 -36.5t19.5 -28t26.5 -18t28.5 -6.5v-122z" />
    <glyph glyph-name="Otilde" unicode="&#xd5;" horiz-adv-x="525" 
d="M318 754q-26 0 -47 10t-40.5 20t-43.5 10q-13 0 -29.5 -5t-36.5 -17v90q21 12 38.5 17t31.5 5q26 0 46 -10t40 -20.5t45 -10.5q17 0 36 6.5t44 21.5v-89q-25 -16 -46 -22t-38 -6zM300 -5v122q14 0 28.5 6.5t27 18.5t20 28t7.5 36v286q0 18 -6 34t-16.5 29.5t-26 20.5
t-34.5 7v122q43 0 80.5 -16.5t65.5 -44.5t43.5 -63.5t15.5 -72.5v-306q0 -46 -16 -84t-44 -65.5t-65.5 -42.5t-79.5 -15zM244 -5q-38 0 -74.5 15.5t-65.5 43.5t-46.5 66t-17.5 82v306q0 37 15.5 72.5t43.5 63.5t65.5 44.5t80.5 16.5v-122q-19 0 -34.5 -7.5t-26 -20.5
t-16.5 -29t-6 -34v-286q0 -20 7.5 -36.5t19.5 -28t26.5 -18t28.5 -6.5v-122z" />
    <glyph glyph-name="Odieresis" unicode="&#xd6;" horiz-adv-x="525" 
d="M341 766q-27 0 -46.5 19.5t-19.5 46.5q0 28 19.5 47.5t46.5 19.5q28 0 47 -19.5t19 -47.5q0 -27 -19 -46.5t-47 -19.5zM184 766q-27 0 -46.5 19.5t-19.5 46.5q0 28 19.5 47.5t46.5 19.5q28 0 47 -19.5t19 -47.5q0 -27 -19 -46.5t-47 -19.5zM300 -5v122q14 0 28.5 6.5
t27 18.5t20 28t7.5 36v286q0 18 -6 34t-16.5 29.5t-26 20.5t-34.5 7v122q43 0 80.5 -16.5t65.5 -44.5t43.5 -63.5t15.5 -72.5v-306q0 -46 -16 -84t-44 -65.5t-65.5 -42.5t-79.5 -15zM244 -5q-38 0 -74.5 15.5t-65.5 43.5t-46.5 66t-17.5 82v306q0 37 15.5 72.5t43.5 63.5
t65.5 44.5t80.5 16.5v-122q-19 0 -34.5 -7.5t-26 -20.5t-16.5 -29t-6 -34v-286q0 -20 7.5 -36.5t19.5 -28t26.5 -18t28.5 -6.5v-122z" />
    <glyph glyph-name="multiply" unicode="&#xd7;" horiz-adv-x="658" 
d="M253 174l-108 108l92 94l-135 136l108 107l94 -93l134 134l108 -108l-92 -93l134 -134l-109 -108l-92 92z" />
    <glyph glyph-name="Oslash" unicode="&#xd8;" horiz-adv-x="664" 
d="M304 -5q-22 0 -55 11t-65 34.5t-52 61.5l-59 -53l-68 76l103 93v306q0 23 12 53.5t37 59.5t62 48.5t86 19.5v-122q-21 0 -35.5 -8.5t-23 -22t-12.5 -26.5t-4 -23v-174l203 182q-1 13 -8 30t-23 29.5t-43 12.5v122q43 0 76.5 -15.5t57.5 -39t38 -50.5l58 52l68 -76
l-101 -92v-289q0 -54 -22 -92t-54 -62t-65 -35t-56 -11v122q6 0 18 4t25 13.5t22.5 24.5t9.5 36v180l-204 -184q2 -27 17.5 -43.5t32.5 -23.5t24 -7v-122z" />
    <glyph glyph-name="Ugrave" unicode="&#xd9;" horiz-adv-x="515" 
d="M210 766l-68 152h110l37 -152h-79zM231 -5q-22 0 -55.5 11t-65.5 34t-54 61t-22 92v507h122v-507q0 -22 10 -36.5t23.5 -23t25.5 -12.5t16 -4v-122zM284 -5v122q4 0 16 4t26 12.5t24 23t10 36.5v507h121v-507q0 -54 -22 -92t-54 -61.5t-65 -34t-56 -10.5z" />
    <glyph glyph-name="Uacute" unicode="&#xda;" horiz-adv-x="515" 
d="M216 766l37 152h110l-68 -152h-79zM231 -5q-22 0 -55.5 11t-65.5 34t-54 61t-22 92v507h122v-507q0 -22 10 -36.5t23.5 -23t25.5 -12.5t16 -4v-122zM284 -5v122q4 0 16 4t26 12.5t24 23t10 36.5v507h121v-507q0 -54 -22 -92t-54 -61.5t-65 -34t-56 -10.5z" />
    <glyph glyph-name="Ucircumflex" unicode="&#xdb;" horiz-adv-x="515" 
d="M150 766l75 152h60l77 -152h-74l-33 68l-32 -68h-73zM231 -5q-22 0 -55.5 11t-65.5 34t-54 61t-22 92v507h122v-507q0 -22 10 -36.5t23.5 -23t25.5 -12.5t16 -4v-122zM284 -5v122q4 0 16 4t26 12.5t24 23t10 36.5v507h121v-507q0 -54 -22 -92t-54 -61.5t-65 -34
t-56 -10.5z" />
    <glyph glyph-name="Udieresis" unicode="&#xdc;" horiz-adv-x="515" 
d="M335 766q-27 0 -46.5 19.5t-19.5 46.5q0 28 19.5 47.5t46.5 19.5q28 0 47 -19.5t19 -47.5q0 -27 -19 -46.5t-47 -19.5zM178 766q-27 0 -46.5 19.5t-19.5 46.5q0 28 19.5 47.5t46.5 19.5q28 0 47 -19.5t19 -47.5q0 -27 -19 -46.5t-47 -19.5zM231 -5q-22 0 -55.5 11
t-65.5 34t-54 61t-22 92v507h122v-507q0 -22 10 -36.5t23.5 -23t25.5 -12.5t16 -4v-122zM284 -5v122q4 0 16 4t26 12.5t24 23t10 36.5v507h121v-507q0 -54 -22 -92t-54 -61.5t-65 -34t-56 -10.5z" />
    <glyph glyph-name="Yacute" unicode="&#xdd;" horiz-adv-x="458" 
d="M186 766l37 152h110l-68 -152h-79zM156 0v252l-141 448h127l140 -447v-253h-126zM312 327l-57 198l62 175h125l-122 -373h-8z" />
    <glyph glyph-name="Thorn" unicode="&#xde;" horiz-adv-x="474" 
d="M36 0v700h121v-700h-121zM211 208v120h35q9 0 22 1.5t26 8.5t22 21.5t9 39.5q0 26 -9 40t-22 20.5t-26.5 8.5t-22.5 2h-34v120q93 1 144.5 -21t72 -64.5t20.5 -103.5q0 -72 -25.5 -115t-78 -61t-133.5 -17z" />
    <glyph glyph-name="germandbls" unicode="&#xdf;" horiz-adv-x="522" 
d="M27 0v457q0 19 0.5 49.5t8 64.5t27.5 64.5t58.5 50t101.5 19.5q54 0 88.5 -14.5t54 -38t28.5 -49.5t10.5 -48.5t1.5 -36.5v-113l-62 1q-16 -2 -25 -11t-11.5 -18t-2.5 -14q0 -7 4.5 -17t23 -21.5t58.5 -25.5q25 -8 49 -25t40 -44.5t16 -71.5q0 -49 -23 -85t-61 -54.5
t-85 -18.5h-128v96h123q14 0 30.5 5t29 18t12.5 36t-13 35t-34.5 21t-49.5 23q-24 12 -45 28.5t-34 41t-13 61.5q0 39 14.5 65t38 41t50.5 24v12q0 23 -5 40.5t-15 29.5t-25.5 18t-37.5 6q-26 0 -43 -8t-26.5 -22t-13.5 -33t-4 -40v-498h-111z" />
    <glyph glyph-name="agrave" unicode="&#xe0;" horiz-adv-x="470" 
d="M177 622l-68 152h110l37 -152h-79zM194 0q-52 0 -89.5 19.5t-57 49.5t-19.5 61v50q0 11 2.5 28.5t13.5 36.5t37 32q16 9 43.5 18t58 18t58 19.5t45.5 21.5t18 24v21q0 17 -7.5 29t-20 19t-30.5 7v106q57 0 94.5 -25t56 -61.5t18.5 -67.5v-266q0 -6 4.5 -19t23.5 -13v-108
q-32 0 -54.5 9t-37.5 24q-19 -16 -46 -24.5t-58 -8.5v107q19 0 31.5 7t19 19.5t6.5 26.5v94q-18 -10 -42.5 -18t-50 -14.5t-45.5 -12t-28 -10.5q-12 -7 -12 -26v-19q0 -16 6.5 -26.5t22 -15.5t39.5 -5v-107zM136 381l-101 39q0 40 24 71.5t61 50t75 18.5v-107
q-17 0 -30.5 -8t-21 -24t-7.5 -40z" />
    <glyph glyph-name="aacute" unicode="&#xe1;" horiz-adv-x="470" 
d="M178 622l37 152h110l-68 -152h-79zM194 0q-52 0 -89.5 19.5t-57 49.5t-19.5 61v50q0 11 2.5 28.5t13.5 36.5t37 32q16 9 43.5 18t58 18t58 19.5t45.5 21.5t18 24v21q0 17 -7.5 29t-20 19t-30.5 7v106q57 0 94.5 -25t56 -61.5t18.5 -67.5v-266q0 -6 4.5 -19t23.5 -13v-108
q-32 0 -54.5 9t-37.5 24q-19 -16 -46 -24.5t-58 -8.5v107q19 0 31.5 7t19 19.5t6.5 26.5v94q-18 -10 -42.5 -18t-50 -14.5t-45.5 -12t-28 -10.5q-12 -7 -12 -26v-19q0 -16 6.5 -26.5t22 -15.5t39.5 -5v-107zM136 381l-101 39q0 40 24 71.5t61 50t75 18.5v-107
q-17 0 -30.5 -8t-21 -24t-7.5 -40z" />
    <glyph glyph-name="acircumflex" unicode="&#xe2;" horiz-adv-x="470" 
d="M112 622l75 152h60l77 -152h-74l-33 68l-32 -68h-73zM194 0q-52 0 -89.5 19.5t-57 49.5t-19.5 61v50q0 11 2.5 28.5t13.5 36.5t37 32q16 9 43.5 18t58 18t58 19.5t45.5 21.5t18 24v21q0 17 -7.5 29t-20 19t-30.5 7v106q57 0 94.5 -25t56 -61.5t18.5 -67.5v-266
q0 -6 4.5 -19t23.5 -13v-108q-32 0 -54.5 9t-37.5 24q-19 -16 -46 -24.5t-58 -8.5v107q19 0 31.5 7t19 19.5t6.5 26.5v94q-18 -10 -42.5 -18t-50 -14.5t-45.5 -12t-28 -10.5q-12 -7 -12 -26v-19q0 -16 6.5 -26.5t22 -15.5t39.5 -5v-107zM136 381l-101 39q0 40 24 71.5t61 50
t75 18.5v-107q-17 0 -30.5 -8t-21 -24t-7.5 -40z" />
    <glyph glyph-name="atilde" unicode="&#xe3;" horiz-adv-x="470" 
d="M276 622q-26 0 -47 10t-40.5 20t-43.5 10q-13 0 -29.5 -5t-36.5 -17v90q21 12 38.5 17t31.5 5q26 0 46 -10t40 -20.5t45 -10.5q17 0 36 6.5t44 21.5v-89q-25 -16 -46 -22t-38 -6zM194 0q-52 0 -89.5 19.5t-57 49.5t-19.5 61v50q0 11 2.5 28.5t13.5 36.5t37 32
q16 9 43.5 18t58 18t58 19.5t45.5 21.5t18 24v21q0 17 -7.5 29t-20 19t-30.5 7v106q57 0 94.5 -25t56 -61.5t18.5 -67.5v-266q0 -6 4.5 -19t23.5 -13v-108q-32 0 -54.5 9t-37.5 24q-19 -16 -46 -24.5t-58 -8.5v107q19 0 31.5 7t19 19.5t6.5 26.5v94q-18 -10 -42.5 -18
t-50 -14.5t-45.5 -12t-28 -10.5q-12 -7 -12 -26v-19q0 -16 6.5 -26.5t22 -15.5t39.5 -5v-107zM136 381l-101 39q0 40 24 71.5t61 50t75 18.5v-107q-17 0 -30.5 -8t-21 -24t-7.5 -40z" />
    <glyph glyph-name="adieresis" unicode="&#xe4;" horiz-adv-x="470" 
d="M296 622q-27 0 -46.5 19.5t-19.5 46.5q0 28 19.5 47.5t46.5 19.5q28 0 47 -19.5t19 -47.5q0 -27 -19 -46.5t-47 -19.5zM139 622q-27 0 -46.5 19.5t-19.5 46.5q0 28 19.5 47.5t46.5 19.5q28 0 47 -19.5t19 -47.5q0 -27 -19 -46.5t-47 -19.5zM194 0q-52 0 -89.5 19.5
t-57 49.5t-19.5 61v50q0 11 2.5 28.5t13.5 36.5t37 32q16 9 43.5 18t58 18t58 19.5t45.5 21.5t18 24v21q0 17 -7.5 29t-20 19t-30.5 7v106q57 0 94.5 -25t56 -61.5t18.5 -67.5v-266q0 -6 4.5 -19t23.5 -13v-108q-32 0 -54.5 9t-37.5 24q-19 -16 -46 -24.5t-58 -8.5v107
q19 0 31.5 7t19 19.5t6.5 26.5v94q-18 -10 -42.5 -18t-50 -14.5t-45.5 -12t-28 -10.5q-12 -7 -12 -26v-19q0 -16 6.5 -26.5t22 -15.5t39.5 -5v-107zM136 381l-101 39q0 40 24 71.5t61 50t75 18.5v-107q-17 0 -30.5 -8t-21 -24t-7.5 -40z" />
    <glyph glyph-name="aring" unicode="&#xe5;" horiz-adv-x="470" 
d="M220 628q-38 0 -64 26t-26 64t26 64t64 26t64 -26t26 -64t-26 -64t-64 -26zM220 686q14 0 23 9.5t9 22.5q0 14 -9 23t-23 9q-13 0 -22.5 -9t-9.5 -23q0 -13 9.5 -22.5t22.5 -9.5zM194 0q-52 0 -89.5 19.5t-57 49.5t-19.5 61v50q0 11 2.5 28.5t13.5 36.5t37 32
q16 9 43.5 18t58 18t58 19.5t45.5 21.5t18 24v21q0 17 -7.5 29t-20 19t-30.5 7v106q57 0 94.5 -25t56 -61.5t18.5 -67.5v-266q0 -6 4.5 -19t23.5 -13v-108q-32 0 -54.5 9t-37.5 24q-19 -16 -46 -24.5t-58 -8.5v107q19 0 31.5 7t19 19.5t6.5 26.5v94q-18 -10 -42.5 -18
t-50 -14.5t-45.5 -12t-28 -10.5q-12 -7 -12 -26v-19q0 -16 6.5 -26.5t22 -15.5t39.5 -5v-107zM136 381l-101 39q0 40 24 71.5t61 50t75 18.5v-107q-17 0 -30.5 -8t-21 -24t-7.5 -40z" />
    <glyph glyph-name="ae" unicode="&#xe6;" horiz-adv-x="622" 
d="M466 0q-43 0 -78 12t-57 34q-16 -23 -43 -34t-59 -11v98q18 0 30 8t17.5 19.5t5.5 22.5v93q-13 -9 -34 -15t-44 -12t-43 -12.5t-32.5 -16t-12.5 -24.5v-14q0 -19 8 -29.5t22.5 -15t33.5 -4.5v-98q-48 0 -82.5 16t-53 41.5t-18.5 53.5v64q0 29 18.5 49.5t47.5 34t62 23.5
t62 19.5t47.5 21.5t18.5 29v22q0 14 -10 25t-26.5 18t-36.5 7t-39.5 -7.5t-32 -23t-12.5 -40.5l-84 24q0 41 22.5 72.5t62 50t86.5 18.5q37 0 69 -11.5t55 -33.5q20 18 46.5 30t61.5 12v-100q-18 0 -31.5 -8t-21 -20.5t-7.5 -25.5v-45h170v44q0 17 -9.5 29.5t-23.5 19
t-29 6.5v100q37 0 74 -19t62 -50t25 -69v-163h-269v-59q0 -19 11 -33t31.5 -21.5t47.5 -7.5q32 0 59 13t34 45l87 -32q-15 -59 -65 -89.5t-123 -30.5z" />
    <glyph glyph-name="ccedilla" unicode="&#xe7;" horiz-adv-x="451" 
d="M115 -194v81q30 0 55.5 16t25.5 57h82q0 -36 -15.5 -71.5t-50.5 -59t-97 -23.5zM213 0q-48 0 -81.5 16t-53.5 41t-29.5 51t-9.5 44v256q0 21 10 46.5t31.5 49.5t54 40t77.5 16v-111q-20 0 -34 -7t-20 -17t-6 -19v-254q0 -12 7 -21.5t20.5 -14.5t33.5 -6v-110zM258 -1v112
q19 0 33.5 5.5t23 18t8.5 32.5v29l107 -41q0 -42 -25 -78t-64.5 -57.5t-82.5 -20.5zM312 364l-1 29q0 21 -7.5 32.5t-19.5 17t-26 5.5v112q44 0 80 -21.5t58 -56.5t22 -78z" />
    <glyph glyph-name="egrave" unicode="&#xe8;" horiz-adv-x="479" 
d="M199 619l-68 152h110l37 -152h-79zM214 0q-44 0 -76.5 16t-54.5 40.5t-33 50.5t-11 45v257q0 20 11 45.5t33 49.5t54.5 40t75.5 16v-110q-18 0 -30.5 -8t-20 -19.5t-7.5 -21.5v-57h176v56q0 18 -10 29.5t-25 16.5t-31 5v109q40 0 80 -19t67 -52.5t27 -78.5v-178h-284v-80
q0 -9 6 -19.5t19.5 -18t33.5 -7.5v-107zM265 0v107q24 0 40 8.5t26 22t14 28.5l95 -36q-7 -32 -30.5 -62t-60.5 -49t-84 -19z" />
    <glyph glyph-name="eacute" unicode="&#xe9;" horiz-adv-x="479" 
d="M199 619l37 152h110l-68 -152h-79zM214 0q-44 0 -76.5 16t-54.5 40.5t-33 50.5t-11 45v257q0 20 11 45.5t33 49.5t54.5 40t75.5 16v-110q-18 0 -30.5 -8t-20 -19.5t-7.5 -21.5v-57h176v56q0 18 -10 29.5t-25 16.5t-31 5v109q40 0 80 -19t67 -52.5t27 -78.5v-178h-284v-80
q0 -9 6 -19.5t19.5 -18t33.5 -7.5v-107zM265 0v107q24 0 40 8.5t26 22t14 28.5l95 -36q-7 -32 -30.5 -62t-60.5 -49t-84 -19z" />
    <glyph glyph-name="ecircumflex" unicode="&#xea;" horiz-adv-x="479" 
d="M133 619l75 152h60l77 -152h-74l-33 68l-32 -68h-73zM214 0q-44 0 -76.5 16t-54.5 40.5t-33 50.5t-11 45v257q0 20 11 45.5t33 49.5t54.5 40t75.5 16v-110q-18 0 -30.5 -8t-20 -19.5t-7.5 -21.5v-57h176v56q0 18 -10 29.5t-25 16.5t-31 5v109q40 0 80 -19t67 -52.5
t27 -78.5v-178h-284v-80q0 -9 6 -19.5t19.5 -18t33.5 -7.5v-107zM265 0v107q24 0 40 8.5t26 22t14 28.5l95 -36q-7 -32 -30.5 -62t-60.5 -49t-84 -19z" />
    <glyph glyph-name="edieresis" unicode="&#xeb;" horiz-adv-x="479" 
d="M317 619q-27 0 -46.5 19.5t-19.5 46.5q0 28 19.5 47.5t46.5 19.5q28 0 47 -19.5t19 -47.5q0 -27 -19 -46.5t-47 -19.5zM160 619q-27 0 -46.5 19.5t-19.5 46.5q0 28 19.5 47.5t46.5 19.5q28 0 47 -19.5t19 -47.5q0 -27 -19 -46.5t-47 -19.5zM214 0q-44 0 -76.5 16
t-54.5 40.5t-33 50.5t-11 45v257q0 20 11 45.5t33 49.5t54.5 40t75.5 16v-110q-18 0 -30.5 -8t-20 -19.5t-7.5 -21.5v-57h176v56q0 18 -10 29.5t-25 16.5t-31 5v109q40 0 80 -19t67 -52.5t27 -78.5v-178h-284v-80q0 -9 6 -19.5t19.5 -18t33.5 -7.5v-107zM265 0v107
q24 0 40 8.5t26 22t14 28.5l95 -36q-7 -32 -30.5 -62t-60.5 -49t-84 -19z" />
    <glyph glyph-name="igrave" unicode="&#xec;" horiz-adv-x="174" 
d="M47 619l-68 152h110l37 -152h-79zM34 0v516h106v-516h-106z" />
    <glyph glyph-name="iacute" unicode="&#xed;" horiz-adv-x="174" 
d="M47 619l37 152h110l-68 -152h-79zM34 0v516h106v-516h-106z" />
    <glyph glyph-name="icircumflex" unicode="&#xee;" horiz-adv-x="174" 
d="M-19 619l75 152h60l77 -152h-74l-33 68l-32 -68h-73zM34 0v516h106v-516h-106z" />
    <glyph glyph-name="idieresis" unicode="&#xef;" horiz-adv-x="174" 
d="M166 619q-27 0 -46.5 19.5t-19.5 46.5q0 28 19.5 47.5t46.5 19.5q28 0 47 -19.5t19 -47.5q0 -27 -19 -46.5t-47 -19.5zM9 619q-27 0 -46.5 19.5t-19.5 46.5q0 28 19.5 47.5t46.5 19.5q28 0 47 -19.5t19 -47.5q0 -27 -19 -46.5t-47 -19.5zM34 0v516h106v-516h-106z" />
    <glyph glyph-name="eth" unicode="&#xf0;" horiz-adv-x="420" 
d="M233 -1v103q21 0 33.5 8.5t18 20t5.5 21.5l-1 213q0 13 -5.5 23.5t-18 17.5t-32.5 7v103q16 0 29 -3t25 -9q-1 19 -3.5 33t-6.5 27l-58 -18l-17 53l51 16q-12 14 -27.5 23t-33.5 16v60q43 -8 78.5 -26t61.5 -49l51 16l17 -53l-37 -12q14 -30 21.5 -66.5t7.5 -82.5v-300
q0 -18 -9.5 -42.5t-29.5 -47t-49.5 -37.5t-70.5 -15zM192 -1q-42 0 -73 15t-51 38t-30 47t-10 42v235q0 18 10 42t30.5 46.5t51.5 37t72 14.5v-103q-22 0 -35 -8.5t-18.5 -20t-5.5 -21.5v-209q0 -13 6 -25t19.5 -19.5t33.5 -7.5v-103z" />
    <glyph glyph-name="ntilde" unicode="&#xf1;" horiz-adv-x="480" 
d="M297 622q-26 0 -47 10t-40.5 20t-43.5 10q-13 0 -29.5 -5t-36.5 -17v90q21 12 38.5 17t31.5 5q26 0 46 -10t40 -20.5t45 -10.5q17 0 36 6.5t44 21.5v-89q-25 -16 -46 -22t-38 -6zM38 379q0 37 12.5 70t36 58t56 39t72.5 14v-113q-18 0 -32 -9t-22 -26t-8 -39v-373h-115
v379zM327 373q0 20 -7.5 37t-21.5 27t-34 10v113q40 0 72.5 -14t56 -39t36 -58t12.5 -70v-379h-114v373z" />
    <glyph glyph-name="ograve" unicode="&#xf2;" horiz-adv-x="469" 
d="M197 619l-68 152h110l37 -152h-79zM215 -1q-37 0 -69.5 13.5t-56.5 37t-37.5 56t-13.5 69.5v203q0 38 12.5 71t36 58t56 39t72.5 14v-113q-20 0 -33.5 -10t-21 -27t-7.5 -39v-189q0 -18 7.5 -34.5t22 -26t32.5 -9.5v-113zM263 -1v113q19 0 33 9.5t21.5 25.5t7.5 34v190
q0 21 -7 38.5t-21 27.5t-34 10v113q40 0 72.5 -14t56 -39t35.5 -58t12 -71v-203q0 -37 -13.5 -69.5t-37.5 -56t-56 -37t-69 -13.5z" />
    <glyph glyph-name="oacute" unicode="&#xf3;" horiz-adv-x="469" 
d="M198 619l37 152h110l-68 -152h-79zM215 -1q-37 0 -69.5 13.5t-56.5 37t-37.5 56t-13.5 69.5v203q0 38 12.5 71t36 58t56 39t72.5 14v-113q-20 0 -33.5 -10t-21 -27t-7.5 -39v-189q0 -18 7.5 -34.5t22 -26t32.5 -9.5v-113zM263 -1v113q19 0 33 9.5t21.5 25.5t7.5 34v190
q0 21 -7 38.5t-21 27.5t-34 10v113q40 0 72.5 -14t56 -39t35.5 -58t12 -71v-203q0 -37 -13.5 -69.5t-37.5 -56t-56 -37t-69 -13.5z" />
    <glyph glyph-name="ocircumflex" unicode="&#xf4;" horiz-adv-x="469" 
d="M132 619l75 152h60l77 -152h-74l-33 68l-32 -68h-73zM215 -1q-37 0 -69.5 13.5t-56.5 37t-37.5 56t-13.5 69.5v203q0 38 12.5 71t36 58t56 39t72.5 14v-113q-20 0 -33.5 -10t-21 -27t-7.5 -39v-189q0 -18 7.5 -34.5t22 -26t32.5 -9.5v-113zM263 -1v113q19 0 33 9.5
t21.5 25.5t7.5 34v190q0 21 -7 38.5t-21 27.5t-34 10v113q40 0 72.5 -14t56 -39t35.5 -58t12 -71v-203q0 -37 -13.5 -69.5t-37.5 -56t-56 -37t-69 -13.5z" />
    <glyph glyph-name="otilde" unicode="&#xf5;" horiz-adv-x="469" 
d="M294 619q-26 0 -47 10t-40.5 20t-43.5 10q-13 0 -29.5 -5t-36.5 -17v90q21 12 38.5 17t31.5 5q26 0 46 -10t40 -20.5t45 -10.5q17 0 36 6.5t44 21.5v-89q-25 -16 -46 -22t-38 -6zM215 -1q-37 0 -69.5 13.5t-56.5 37t-37.5 56t-13.5 69.5v203q0 38 12.5 71t36 58t56 39
t72.5 14v-113q-20 0 -33.5 -10t-21 -27t-7.5 -39v-189q0 -18 7.5 -34.5t22 -26t32.5 -9.5v-113zM263 -1v113q19 0 33 9.5t21.5 25.5t7.5 34v190q0 21 -7 38.5t-21 27.5t-34 10v113q40 0 72.5 -14t56 -39t35.5 -58t12 -71v-203q0 -37 -13.5 -69.5t-37.5 -56t-56 -37
t-69 -13.5z" />
    <glyph glyph-name="odieresis" unicode="&#xf6;" horiz-adv-x="469" 
d="M316 619q-27 0 -46.5 19.5t-19.5 46.5q0 28 19.5 47.5t46.5 19.5q28 0 47 -19.5t19 -47.5q0 -27 -19 -46.5t-47 -19.5zM159 619q-27 0 -46.5 19.5t-19.5 46.5q0 28 19.5 47.5t46.5 19.5q28 0 47 -19.5t19 -47.5q0 -27 -19 -46.5t-47 -19.5zM215 -1q-37 0 -69.5 13.5
t-56.5 37t-37.5 56t-13.5 69.5v203q0 38 12.5 71t36 58t56 39t72.5 14v-113q-20 0 -33.5 -10t-21 -27t-7.5 -39v-189q0 -18 7.5 -34.5t22 -26t32.5 -9.5v-113zM263 -1v113q19 0 33 9.5t21.5 25.5t7.5 34v190q0 21 -7 38.5t-21 27.5t-34 10v113q40 0 72.5 -14t56 -39
t35.5 -58t12 -71v-203q0 -37 -13.5 -69.5t-37.5 -56t-56 -37t-69 -13.5z" />
    <glyph glyph-name="divide" unicode="&#xf7;" horiz-adv-x="650" 
d="M74 237v110h450v-110h-450zM308 403q-29 0 -49 20t-20 48q0 29 20 49t48 20q29 0 48.5 -20t19.5 -49q0 -28 -19.5 -48t-47.5 -20zM308 72q-29 0 -49 20t-20 48q0 29 20 49t48 20q29 0 48.5 -20t19.5 -49q0 -28 -19.5 -48t-47.5 -20z" />
    <glyph glyph-name="oslash" unicode="&#xf8;" horiz-adv-x="501" 
d="M231 -1q-49 0 -82.5 19.5t-52.5 47.5l-45 -41l-48 54l64 59v10v9v219q0 18 10 42t30.5 46.5t51.5 37t72 14.5v-103q-22 0 -35 -8.5t-18.5 -20t-5.5 -21.5v-129l155 142q-4 16 -17 26.5t-38 10.5v103q48 0 80.5 -19.5t51.5 -48.5l44 39l48 -54l-66 -59q1 -4 1 -8.5v-9.5
v-215q0 -18 -9.5 -42.5t-29.5 -47t-49.5 -37.5t-70.5 -15v103q21 0 33 8.5t17.5 20t5.5 21.5v127l-153 -141q4 -16 18 -26t38 -10v-103z" />
    <glyph glyph-name="ugrave" unicode="&#xf9;" horiz-adv-x="480" 
d="M200 619l-68 152h110l37 -152h-79zM262 -5v115q22 0 35.5 8.5t20 20t6.5 23.5v397h118v-410q0 -20 -11 -46t-34 -51t-56.5 -41t-78.5 -16zM217 -5q-44 0 -78 16t-56.5 40t-33.5 50.5t-11 46.5v411h118v-397q0 -11 6.5 -23t20 -20.5t34.5 -8.5v-115z" />
    <glyph glyph-name="uacute" unicode="&#xfa;" horiz-adv-x="480" 
d="M253 619l37 152h110l-68 -152h-79zM262 -5v115q22 0 35.5 8.5t20 20t6.5 23.5v397h118v-410q0 -20 -11 -46t-34 -51t-56.5 -41t-78.5 -16zM217 -5q-44 0 -78 16t-56.5 40t-33.5 50.5t-11 46.5v411h118v-397q0 -11 6.5 -23t20 -20.5t34.5 -8.5v-115z" />
    <glyph glyph-name="ucircumflex" unicode="&#xfb;" horiz-adv-x="480" 
d="M134 619l75 152h60l77 -152h-74l-33 68l-32 -68h-73zM262 -5v115q22 0 35.5 8.5t20 20t6.5 23.5v397h118v-410q0 -20 -11 -46t-34 -51t-56.5 -41t-78.5 -16zM217 -5q-44 0 -78 16t-56.5 40t-33.5 50.5t-11 46.5v411h118v-397q0 -11 6.5 -23t20 -20.5t34.5 -8.5v-115z" />
    <glyph glyph-name="udieresis" unicode="&#xfc;" horiz-adv-x="480" 
d="M318 619q-27 0 -46.5 19.5t-19.5 46.5q0 28 19.5 47.5t46.5 19.5q28 0 47 -19.5t19 -47.5q0 -27 -19 -46.5t-47 -19.5zM161 619q-27 0 -46.5 19.5t-19.5 46.5q0 28 19.5 47.5t46.5 19.5q28 0 47 -19.5t19 -47.5q0 -27 -19 -46.5t-47 -19.5zM262 -5v115q22 0 35.5 8.5
t20 20t6.5 23.5v397h118v-410q0 -20 -11 -46t-34 -51t-56.5 -41t-78.5 -16zM217 -5q-44 0 -78 16t-56.5 40t-33.5 50.5t-11 46.5v411h118v-397q0 -11 6.5 -23t20 -20.5t34.5 -8.5v-115z" />
    <glyph glyph-name="yacute" unicode="&#xfd;" horiz-adv-x="422" 
d="M224 626l37 152h110l-68 -152h-79zM44 -197l100 322l-138 435h124l140 -437l-106 -320h-120zM288 218l-52 173l59 169h124l-120 -342h-11z" />
    <glyph glyph-name="thorn" unicode="&#xfe;" horiz-adv-x="422" 
d="M30 -182v882h109v-882h-109zM188 0v104h46q21 0 33.5 5.5t18 15.5t5.5 21v227q0 18 -17 30.5t-46 12.5h-47v102h47q54 0 91.5 -23.5t57 -56.5t19.5 -61v-238q0 -26 -17.5 -59t-53.5 -56.5t-93 -23.5h-44z" />
    <glyph glyph-name="ydieresis" unicode="&#xff;" horiz-adv-x="422" 
d="M290 625q-27 0 -46.5 19.5t-19.5 46.5q0 28 19.5 47.5t46.5 19.5q28 0 47 -19.5t19 -47.5q0 -27 -19 -46.5t-47 -19.5zM133 625q-27 0 -46.5 19.5t-19.5 46.5q0 28 19.5 47.5t46.5 19.5q28 0 47 -19.5t19 -47.5q0 -27 -19 -46.5t-47 -19.5zM44 -197l100 322l-138 435h124
l140 -437l-106 -320h-120zM288 218l-52 173l59 169h124l-120 -342h-11z" />
    <glyph glyph-name="Amacron" unicode="&#x100;" horiz-adv-x="509" 
d="M109 766v72h316v-72h-316zM367 0l-21 95h-120l26 118h61l-108 487h121l162 -700h-121zM32 0l130 585h16l50 -235l-77 -350h-119z" />
    <glyph glyph-name="amacron" unicode="&#x101;" horiz-adv-x="470" 
d="M64 622v72h316v-72h-316zM194 0q-52 0 -89.5 19.5t-57 49.5t-19.5 61v50q0 11 2.5 28.5t13.5 36.5t37 32q16 9 43.5 18t58 18t58 19.5t45.5 21.5t18 24v21q0 17 -7.5 29t-20 19t-30.5 7v106q57 0 94.5 -25t56 -61.5t18.5 -67.5v-266q0 -6 4.5 -19t23.5 -13v-108
q-32 0 -54.5 9t-37.5 24q-19 -16 -46 -24.5t-58 -8.5v107q19 0 31.5 7t19 19.5t6.5 26.5v94q-18 -10 -42.5 -18t-50 -14.5t-45.5 -12t-28 -10.5q-12 -7 -12 -26v-19q0 -16 6.5 -26.5t22 -15.5t39.5 -5v-107zM136 381l-101 39q0 40 24 71.5t61 50t75 18.5v-107
q-17 0 -30.5 -8t-21 -24t-7.5 -40z" />
    <glyph glyph-name="Abreve" unicode="&#x102;" horiz-adv-x="509" 
d="M267 766q-25 0 -45.5 13t-32.5 33.5t-12 43.5h58q0 -13 9.5 -22.5t22.5 -9.5q14 0 23 9.5t9 22.5h58q0 -23 -12 -43.5t-32 -33.5t-46 -13zM367 0l-21 95h-120l26 118h61l-108 487h121l162 -700h-121zM32 0l130 585h16l50 -235l-77 -350h-119z" />
    <glyph glyph-name="abreve" unicode="&#x103;" horiz-adv-x="470" 
d="M218 622q-25 0 -45.5 13t-32.5 33.5t-12 43.5h58q0 -13 9.5 -22.5t22.5 -9.5q14 0 23 9.5t9 22.5h58q0 -23 -12 -43.5t-32 -33.5t-46 -13zM194 0q-52 0 -89.5 19.5t-57 49.5t-19.5 61v50q0 11 2.5 28.5t13.5 36.5t37 32q16 9 43.5 18t58 18t58 19.5t45.5 21.5t18 24v21
q0 17 -7.5 29t-20 19t-30.5 7v106q57 0 94.5 -25t56 -61.5t18.5 -67.5v-266q0 -6 4.5 -19t23.5 -13v-108q-32 0 -54.5 9t-37.5 24q-19 -16 -46 -24.5t-58 -8.5v107q19 0 31.5 7t19 19.5t6.5 26.5v94q-18 -10 -42.5 -18t-50 -14.5t-45.5 -12t-28 -10.5q-12 -7 -12 -26v-19
q0 -16 6.5 -26.5t22 -15.5t39.5 -5v-107zM136 381l-101 39q0 40 24 71.5t61 50t75 18.5v-107q-17 0 -30.5 -8t-21 -24t-7.5 -40z" />
    <glyph glyph-name="Aogonek" unicode="&#x104;" horiz-adv-x="509" 
d="M552 -194q-61 0 -96.5 23.5t-51 59t-15.5 71.5h82q0 -41 25.5 -57t55.5 -16v-81zM367 0l-21 95h-120l26 118h61l-108 487h121l162 -700h-121zM32 0l130 585h16l50 -235l-77 -350h-119z" />
    <glyph glyph-name="aogonek" unicode="&#x105;" horiz-adv-x="470" 
d="M478 -195q-61 0 -96.5 23.5t-51 59t-15.5 71.5h82q0 -41 25.5 -57t55.5 -16v-81zM194 0q-52 0 -89.5 19.5t-57 49.5t-19.5 61v50q0 11 2.5 28.5t13.5 36.5t37 32q16 9 43.5 18t58 18t58 19.5t45.5 21.5t18 24v21q0 17 -7.5 29t-20 19t-30.5 7v106q57 0 94.5 -25t56 -61.5
t18.5 -67.5v-266q0 -6 4.5 -19t23.5 -13v-108q-32 0 -54.5 9t-37.5 24q-19 -16 -46 -24.5t-58 -8.5v107q19 0 31.5 7t19 19.5t6.5 26.5v94q-18 -10 -42.5 -18t-50 -14.5t-45.5 -12t-28 -10.5q-12 -7 -12 -26v-19q0 -16 6.5 -26.5t22 -15.5t39.5 -5v-107zM136 381l-101 39
q0 40 24 71.5t61 50t75 18.5v-107q-17 0 -30.5 -8t-21 -24t-7.5 -40z" />
    <glyph glyph-name="Cacute" unicode="&#x106;" horiz-adv-x="498" 
d="M228 766l37 152h110l-68 -152h-79zM236 -5q-54 0 -91.5 20t-61 50.5t-34.5 62t-11 53.5v337q0 23 11 54.5t34.5 61.5t61 50.5t91.5 20.5v-121q-22 0 -36.5 -8.5t-23 -20t-12.5 -22t-4 -15.5v-337q0 -5 4 -15.5t12.5 -22t23 -19.5t36.5 -8v-121zM288 -5v121q11 2 23.5 7
t23.5 14.5t15 23.5q4 8 5 17.5t1 18.5v7.5v5.5l118 -28q0 -53 -27 -95.5t-69.5 -67t-89.5 -24.5zM356 485v8v8q-1 8 -1.5 17.5t-4.5 16.5q-5 14 -13 23t-17.5 14t-18 8t-13.5 4v121q36 0 68.5 -16t59.5 -42.5t42.5 -60.5t15.5 -70z" />
    <glyph glyph-name="cacute" unicode="&#x107;" horiz-adv-x="451" 
d="M195 619l37 152h110l-68 -152h-79zM213 0q-48 0 -81.5 16t-53.5 41t-29.5 51t-9.5 44v256q0 21 10 46.5t31.5 49.5t54 40t77.5 16v-111q-20 0 -34 -7t-20 -17t-6 -19v-254q0 -12 7 -21.5t20.5 -14.5t33.5 -6v-110zM258 -1v112q19 0 33.5 5.5t23 18t8.5 32.5v29l107 -41
q0 -42 -25 -78t-64.5 -57.5t-82.5 -20.5zM312 364l-1 29q0 21 -7.5 32.5t-19.5 17t-26 5.5v112q44 0 80 -21.5t58 -56.5t22 -78z" />
    <glyph glyph-name="Ccaron" unicode="&#x10c;" horiz-adv-x="498" 
d="M231 766l-75 152h73l32 -68l33 68h74l-77 -152h-60zM236 -5q-54 0 -91.5 20t-61 50.5t-34.5 62t-11 53.5v337q0 23 11 54.5t34.5 61.5t61 50.5t91.5 20.5v-121q-22 0 -36.5 -8.5t-23 -20t-12.5 -22t-4 -15.5v-337q0 -5 4 -15.5t12.5 -22t23 -19.5t36.5 -8v-121zM288 -5
v121q11 2 23.5 7t23.5 14.5t15 23.5q4 8 5 17.5t1 18.5v7.5v5.5l118 -28q0 -53 -27 -95.5t-69.5 -67t-89.5 -24.5zM356 485v8v8q-1 8 -1.5 17.5t-4.5 16.5q-5 14 -13 23t-17.5 14t-18 8t-13.5 4v121q36 0 68.5 -16t59.5 -42.5t42.5 -60.5t15.5 -70z" />
    <glyph glyph-name="ccaron" unicode="&#x10d;" horiz-adv-x="451" 
d="M204 619l-75 152h73l32 -68l33 68h74l-77 -152h-60zM213 0q-48 0 -81.5 16t-53.5 41t-29.5 51t-9.5 44v256q0 21 10 46.5t31.5 49.5t54 40t77.5 16v-111q-20 0 -34 -7t-20 -17t-6 -19v-254q0 -12 7 -21.5t20.5 -14.5t33.5 -6v-110zM258 -1v112q19 0 33.5 5.5t23 18
t8.5 32.5v29l107 -41q0 -42 -25 -78t-64.5 -57.5t-82.5 -20.5zM312 364l-1 29q0 21 -7.5 32.5t-19.5 17t-26 5.5v112q44 0 80 -21.5t58 -56.5t22 -78z" />
    <glyph glyph-name="Dcaron" unicode="&#x10e;" horiz-adv-x="472" 
d="M207 766l-75 152h73l32 -68l33 68h74l-77 -152h-60zM216 0v121q12 0 28 2.5t31.5 10t26 22.5t10.5 41v306q0 13 -6 26.5t-18 24.5t-30 18t-42 7v121q54 0 95 -18t68 -47t41 -63.5t14 -68.5v-306q0 -59 -23 -97.5t-57 -60t-71 -30.5t-67 -9zM42 0v700h121v-700h-121z" />
    <glyph glyph-name="dcaron" unicode="&#x10f;" horiz-adv-x="455" 
d="M502 596l37 152h110l-37 -152h-110zM195 0q-42 0 -73 16.5t-51 41.5t-30 50.5t-10 43.5v256q0 19 10.5 45t31 49.5t50.5 39t70 15.5h49v-111h-49q-17 0 -28 -8.5t-16.5 -18.5t-5.5 -16v-249q0 -6 6 -15.5t17.5 -17.5t28.5 -8h47v-113h-47zM294 0v713h120l-1 -713h-119z
" />
    <glyph glyph-name="Dcroat" unicode="&#x110;" horiz-adv-x="502" 
d="M83 0v300h-57v111h57v289h122v-289h56v-111h-56v-300h-122zM257 0v121q12 0 28.5 2.5t32 10t25.5 22.5t10 41v306q0 13 -6 26.5t-18 24.5t-30 18t-42 7v121q55 0 95.5 -18t67.5 -47t41 -63.5t14 -68.5v-306q0 -59 -22.5 -97.5t-57 -60t-71.5 -30.5t-67 -9z" />
    <glyph glyph-name="dcroat" unicode="&#x111;" horiz-adv-x="414" 
d="M274 0v573h-80v85h80v55h110v-55h64v-85h-64v-573h-110zM182 0q-39 0 -67.5 15.5t-47.5 38.5t-28 47t-9 40v236q0 19 9.5 42.5t29 45.5t47 36.5t64.5 14.5h47v-103h-47q-15 0 -26 -7.5t-16.5 -17t-5.5 -15.5v-230q0 -6 6 -15.5t17 -17t27 -7.5h45v-103h-45z" />
    <glyph glyph-name="Emacron" unicode="&#x112;" horiz-adv-x="444" 
d="M66 766v72h316v-72h-316zM42 0v700h364v-121h-243v-171h149v-121h-149v-166h243v-121h-364z" />
    <glyph glyph-name="emacron" unicode="&#x113;" horiz-adv-x="479" 
d="M81 619v72h316v-72h-316zM214 0q-44 0 -76.5 16t-54.5 40.5t-33 50.5t-11 45v257q0 20 11 45.5t33 49.5t54.5 40t75.5 16v-110q-18 0 -30.5 -8t-20 -19.5t-7.5 -21.5v-57h176v56q0 18 -10 29.5t-25 16.5t-31 5v109q40 0 80 -19t67 -52.5t27 -78.5v-178h-284v-80
q0 -9 6 -19.5t19.5 -18t33.5 -7.5v-107zM265 0v107q24 0 40 8.5t26 22t14 28.5l95 -36q-7 -32 -30.5 -62t-60.5 -49t-84 -19z" />
    <glyph glyph-name="Edotaccent" unicode="&#x116;" horiz-adv-x="444" 
d="M224 766q-28 0 -47 19t-19 47t19 47.5t47 19.5t47 -19.5t19 -47.5t-18.5 -47t-47.5 -19zM42 0v700h364v-121h-243v-171h149v-121h-149v-166h243v-121h-364z" />
    <glyph glyph-name="edotaccent" unicode="&#x117;" horiz-adv-x="479" 
d="M239 620q-28 0 -47 19t-19 47t19 47.5t47 19.5t47 -19.5t19 -47.5t-18.5 -47t-47.5 -19zM214 0q-44 0 -76.5 16t-54.5 40.5t-33 50.5t-11 45v257q0 20 11 45.5t33 49.5t54.5 40t75.5 16v-110q-18 0 -30.5 -8t-20 -19.5t-7.5 -21.5v-57h176v56q0 18 -10 29.5t-25 16.5
t-31 5v109q40 0 80 -19t67 -52.5t27 -78.5v-178h-284v-80q0 -9 6 -19.5t19.5 -18t33.5 -7.5v-107zM265 0v107q24 0 40 8.5t26 22t14 28.5l95 -36q-7 -32 -30.5 -62t-60.5 -49t-84 -19z" />
    <glyph glyph-name="Eogonek" unicode="&#x118;" horiz-adv-x="444" 
d="M423 -194q-61 0 -96.5 23.5t-51 59t-15.5 71.5h82q0 -41 25.5 -57t55.5 -16v-81zM42 0v700h364v-121h-243v-171h149v-121h-149v-166h243v-121h-364z" />
    <glyph glyph-name="eogonek" unicode="&#x119;" horiz-adv-x="479" 
d="M364 -194q-60 0 -96 23.5t-51.5 59t-15.5 71.5h82q0 -41 25.5 -57t55.5 -16v-81zM214 0q-44 0 -76.5 16t-54.5 40.5t-33 50.5t-11 45v257q0 20 11 45.5t33 49.5t54.5 40t75.5 16v-110q-18 0 -30.5 -8t-20 -19.5t-7.5 -21.5v-57h176v56q0 18 -10 29.5t-25 16.5t-31 5v109
q40 0 80 -19t67 -52.5t27 -78.5v-178h-284v-80q0 -9 6 -19.5t19.5 -18t33.5 -7.5v-107zM265 0v107q24 0 40 8.5t26 22t14 28.5l95 -36q-7 -32 -30.5 -62t-60.5 -49t-84 -19z" />
    <glyph glyph-name="Ecaron" unicode="&#x11a;" horiz-adv-x="444" 
d="M193 766l-75 152h73l32 -68l33 68h74l-77 -152h-60zM42 0v700h364v-121h-243v-171h149v-121h-149v-166h243v-121h-364z" />
    <glyph glyph-name="ecaron" unicode="&#x11b;" horiz-adv-x="479" 
d="M208 619l-75 152h73l32 -68l33 68h74l-77 -152h-60zM214 0q-44 0 -76.5 16t-54.5 40.5t-33 50.5t-11 45v257q0 20 11 45.5t33 49.5t54.5 40t75.5 16v-110q-18 0 -30.5 -8t-20 -19.5t-7.5 -21.5v-57h176v56q0 18 -10 29.5t-25 16.5t-31 5v109q40 0 80 -19t67 -52.5
t27 -78.5v-178h-284v-80q0 -9 6 -19.5t19.5 -18t33.5 -7.5v-107zM265 0v107q24 0 40 8.5t26 22t14 28.5l95 -36q-7 -32 -30.5 -62t-60.5 -49t-84 -19z" />
    <glyph glyph-name="Gbreve" unicode="&#x11e;" horiz-adv-x="509" 
d="M261 766q-25 0 -45.5 13t-32.5 33.5t-12 43.5h58q0 -13 9.5 -22.5t22.5 -9.5q14 0 23 9.5t9 22.5h58q0 -23 -12 -43.5t-32 -33.5t-46 -13zM235 -5q-22 0 -55.5 10.5t-66 34t-54 61t-21.5 91.5v332q3 24 15.5 55t36 60t60 47.5t85.5 18.5v-121q-26 0 -43 -13t-24 -30.5
t-7 -32.5v-316q0 -22 9.5 -36.5t23 -23t25.5 -12.5t16 -4v-121zM287 -5v121q6 0 16.5 5.5t21.5 15t18.5 23t7.5 30.5v50h-64v113h186v-177q0 -30 -17 -62t-44.5 -58.5t-60 -43.5t-64.5 -17zM354 472v35q-1 20 -7.5 34.5t-17 23.5t-21.5 14t-21 5v121q48 0 90 -27t69 -70.5
t27 -91.5z" />
    <glyph glyph-name="gbreve" unicode="&#x11f;" horiz-adv-x="452" 
d="M219 626q-25 0 -45.5 13t-32.5 33.5t-12 43.5h58q0 -13 9.5 -22.5t22.5 -9.5q14 0 23 9.5t9 22.5h58q0 -23 -12 -43.5t-32 -33.5t-46 -13zM22 -188l27 107h195q21 0 34 9t19 20t6 16v56q-7 -2 -16 -5.5t-19.5 -6t-23.5 -2.5v107q20 0 32.5 7t19.5 18.5t7 21.5v251
q0 10 -7 20.5t-20 18t-32 7.5v108q12 0 22.5 -2t20 -5.5t16.5 -6.5v14h111v-601q0 -18 -10.5 -43.5t-31 -50.5t-51.5 -41.5t-72 -16.5h-227zM201 6q-43 0 -75 17t-52.5 41.5t-30.5 50t-10 43.5v258q0 19 10 44t30.5 49t52.5 40t75 16v-108q-21 0 -34 -8.5t-19.5 -19
t-6.5 -16.5v-254q0 -9 6.5 -19.5t19.5 -18t34 -7.5v-108z" />
    <glyph glyph-name="uni0122" unicode="&#x122;" horiz-adv-x="509" 
d="M183 -218l37 152h110l-37 -152h-110zM235 -5q-22 0 -55.5 10.5t-66 34t-54 61t-21.5 91.5v332q3 24 15.5 55t36 60t60 47.5t85.5 18.5v-121q-26 0 -43 -13t-24 -30.5t-7 -32.5v-316q0 -22 9.5 -36.5t23 -23t25.5 -12.5t16 -4v-121zM287 -5v121q6 0 16.5 5.5t21.5 15
t18.5 23t7.5 30.5v50h-64v113h186v-177q0 -30 -17 -62t-44.5 -58.5t-60 -43.5t-64.5 -17zM354 472v35q-1 20 -7.5 34.5t-17 23.5t-21.5 14t-21 5v121q48 0 90 -27t69 -70.5t27 -91.5z" />
    <glyph glyph-name="uni0123" unicode="&#x123;" horiz-adv-x="452" 
d="M234 626l37 152h110l-68 -152h-79zM22 -188l27 107h195q21 0 34 9t19 20t6 16v56q-7 -2 -16 -5.5t-19.5 -6t-23.5 -2.5v107q20 0 32.5 7t19.5 18.5t7 21.5v251q0 10 -7 20.5t-20 18t-32 7.5v108q12 0 22.5 -2t20 -5.5t16.5 -6.5v14h111v-601q0 -18 -10.5 -43.5t-31 -50.5
t-51.5 -41.5t-72 -16.5h-227zM201 6q-43 0 -75 17t-52.5 41.5t-30.5 50t-10 43.5v258q0 19 10 44t30.5 49t52.5 40t75 16v-108q-21 0 -34 -8.5t-19.5 -19t-6.5 -16.5v-254q0 -9 6.5 -19.5t19.5 -18t34 -7.5v-108z" />
    <glyph glyph-name="Imacron" unicode="&#x12a;" horiz-adv-x="206" 
d="M-56 766v72h316v-72h-316zM42 0v700h122v-700h-122z" />
    <glyph glyph-name="imacron" unicode="&#x12b;" horiz-adv-x="174" 
d="M-71 619v72h316v-72h-316zM34 0v516h106v-516h-106z" />
    <glyph glyph-name="Iogonek" unicode="&#x12e;" horiz-adv-x="206" 
d="M225 -192q-61 0 -96.5 23.5t-51 59t-15.5 71.5h82q0 -41 25.5 -57t55.5 -16v-81zM42 0v700h122v-700h-122z" />
    <glyph glyph-name="iogonek" unicode="&#x12f;" horiz-adv-x="225" 
d="M236 -193q-61 0 -96.5 23.5t-51 59t-15.5 71.5h82q0 -41 25.5 -57t55.5 -16v-81zM56 0v553h116v-553h-116zM113 601q-26 0 -45.5 18.5t-19.5 44.5t19.5 44.5t45.5 18.5t44.5 -18.5t18.5 -44.5t-18.5 -44.5t-44.5 -18.5z" />
    <glyph glyph-name="Idotaccent" unicode="&#x130;" horiz-adv-x="206" 
d="M103 766q-28 0 -47 19t-19 47t19 47.5t47 19.5t47 -19.5t19 -47.5t-18.5 -47t-47.5 -19zM42 0v700h122v-700h-122z" />
    <glyph glyph-name="dotlessi" unicode="&#x131;" horiz-adv-x="174" 
d="M34 0v516h106v-516h-106z" />
    <glyph glyph-name="uni0136" unicode="&#x136;" horiz-adv-x="489" 
d="M174 -213l37 152h110l-37 -152h-110zM351 0l-147 341l143 359h122l-142 -359l146 -341h-122zM42 0v700h121v-700h-121z" />
    <glyph glyph-name="uni0137" unicode="&#x137;" horiz-adv-x="492" 
d="M173 -213l37 152h110l-37 -152h-110zM343 0l-154 281l152 278h129l-154 -278l156 -281h-129zM42 0v713h119v-713h-119z" />
    <glyph glyph-name="Lacute" unicode="&#x139;" horiz-adv-x="434" 
d="M63 766l37 152h110l-68 -152h-79zM42 0v700h121v-579h255v-121h-376z" />
    <glyph glyph-name="lacute" unicode="&#x13a;" horiz-adv-x="208" 
d="M63 808l37 152h110l-68 -152h-79zM42 0v713h124v-713h-124z" />
    <glyph glyph-name="uni013B" unicode="&#x13b;" horiz-adv-x="434" 
d="M154 -213l37 152h110l-37 -152h-110zM42 0v700h121v-579h255v-121h-376z" />
    <glyph glyph-name="uni013C" unicode="&#x13c;" horiz-adv-x="208" 
d="M24 -220l37 152h110l-37 -152h-110zM54 0v713h124v-713h-124z" />
    <glyph glyph-name="Lcaron" unicode="&#x13d;" horiz-adv-x="434" 
d="M249 553l37 152h110l-37 -152h-110zM42 0v700h121v-579h255v-121h-376z" />
    <glyph glyph-name="lcaron" unicode="&#x13e;" horiz-adv-x="353" 
d="M199 595l37 152h110l-37 -152h-110zM33 0v713h124v-713h-124z" />
    <glyph glyph-name="Lslash" unicode="&#x141;" horiz-adv-x="511" 
d="M129 0v242l-35 -27l-63 81l98 76v328h122v-233l76 60l63 -82l-139 -108v-217h254v-120h-376z" />
    <glyph glyph-name="lslash" unicode="&#x142;" horiz-adv-x="424" 
d="M116 223l-63 82l278 217l63 -82zM165 -7v712h124v-712h-124z" />
    <glyph glyph-name="Nacute" unicode="&#x143;" horiz-adv-x="529" 
d="M225 766l37 152h110l-68 -152h-79zM429 0l-387 621v79h101l344 -554v-146h-58zM42 0v512h8l114 -183v-329h-122zM479 256l-114 183v261h122v-444h-8z" />
    <glyph glyph-name="nacute" unicode="&#x144;" horiz-adv-x="480" 
d="M200 622l37 152h110l-68 -152h-79zM38 379q0 37 12.5 70t36 58t56 39t72.5 14v-113q-18 0 -32 -9t-22 -26t-8 -39v-373h-115v379zM327 373q0 20 -7.5 37t-21.5 27t-34 10v113q40 0 72.5 -14t56 -39t36 -58t12.5 -70v-379h-114v373z" />
    <glyph glyph-name="uni0145" unicode="&#x145;" horiz-adv-x="529" 
d="M189 -213l37 152h110l-37 -152h-110zM429 0l-387 621v79h101l344 -554v-146h-58zM42 0v512h8l114 -183v-329h-122zM479 256l-114 183v261h122v-444h-8z" />
    <glyph glyph-name="uni0146" unicode="&#x146;" horiz-adv-x="480" 
d="M164 -213l37 152h110l-37 -152h-110zM38 379q0 37 12.5 70t36 58t56 39t72.5 14v-113q-18 0 -32 -9t-22 -26t-8 -39v-373h-115v379zM327 373q0 20 -7.5 37t-21.5 27t-34 10v113q40 0 72.5 -14t56 -39t36 -58t12.5 -70v-379h-114v373z" />
    <glyph glyph-name="Ncaron" unicode="&#x147;" horiz-adv-x="529" 
d="M234 766l-75 152h73l32 -68l33 68h74l-77 -152h-60zM429 0l-387 621v79h101l344 -554v-146h-58zM42 0v512h8l114 -183v-329h-122zM479 256l-114 183v261h122v-444h-8z" />
    <glyph glyph-name="ncaron" unicode="&#x148;" horiz-adv-x="480" 
d="M209 622l-75 152h73l32 -68l33 68h74l-77 -152h-60zM38 379q0 37 12.5 70t36 58t56 39t72.5 14v-113q-18 0 -32 -9t-22 -26t-8 -39v-373h-115v379zM327 373q0 20 -7.5 37t-21.5 27t-34 10v113q40 0 72.5 -14t56 -39t36 -58t12.5 -70v-379h-114v373z" />
    <glyph glyph-name="Omacron" unicode="&#x14c;" horiz-adv-x="525" 
d="M104 766v72h316v-72h-316zM300 -5v122q14 0 28.5 6.5t27 18.5t20 28t7.5 36v286q0 18 -6 34t-16.5 29.5t-26 20.5t-34.5 7v122q43 0 80.5 -16.5t65.5 -44.5t43.5 -63.5t15.5 -72.5v-306q0 -46 -16 -84t-44 -65.5t-65.5 -42.5t-79.5 -15zM244 -5q-38 0 -74.5 15.5
t-65.5 43.5t-46.5 66t-17.5 82v306q0 37 15.5 72.5t43.5 63.5t65.5 44.5t80.5 16.5v-122q-19 0 -34.5 -7.5t-26 -20.5t-16.5 -29t-6 -34v-286q0 -20 7.5 -36.5t19.5 -28t26.5 -18t28.5 -6.5v-122z" />
    <glyph glyph-name="omacron" unicode="&#x14d;" horiz-adv-x="469" 
d="M80 619v72h316v-72h-316zM215 -1q-37 0 -69.5 13.5t-56.5 37t-37.5 56t-13.5 69.5v203q0 38 12.5 71t36 58t56 39t72.5 14v-113q-20 0 -33.5 -10t-21 -27t-7.5 -39v-189q0 -18 7.5 -34.5t22 -26t32.5 -9.5v-113zM263 -1v113q19 0 33 9.5t21.5 25.5t7.5 34v190
q0 21 -7 38.5t-21 27.5t-34 10v113q40 0 72.5 -14t56 -39t35.5 -58t12 -71v-203q0 -37 -13.5 -69.5t-37.5 -56t-56 -37t-69 -13.5z" />
    <glyph glyph-name="Ohungarumlaut" unicode="&#x150;" horiz-adv-x="525" 
d="M305 766l37 152h110l-68 -152h-79zM159 766l37 152h110l-68 -152h-79zM300 -5v122q14 0 28.5 6.5t27 18.5t20 28t7.5 36v286q0 18 -6 34t-16.5 29.5t-26 20.5t-34.5 7v122q43 0 80.5 -16.5t65.5 -44.5t43.5 -63.5t15.5 -72.5v-306q0 -46 -16 -84t-44 -65.5t-65.5 -42.5
t-79.5 -15zM244 -5q-38 0 -74.5 15.5t-65.5 43.5t-46.5 66t-17.5 82v306q0 37 15.5 72.5t43.5 63.5t65.5 44.5t80.5 16.5v-122q-19 0 -34.5 -7.5t-26 -20.5t-16.5 -29t-6 -34v-286q0 -20 7.5 -36.5t19.5 -28t26.5 -18t28.5 -6.5v-122z" />
    <glyph glyph-name="ohungarumlaut" unicode="&#x151;" horiz-adv-x="469" 
d="M281 619l37 152h110l-68 -152h-79zM134 619l37 152h110l-68 -152h-79zM215 -1q-37 0 -69.5 13.5t-56.5 37t-37.5 56t-13.5 69.5v203q0 38 12.5 71t36 58t56 39t72.5 14v-113q-20 0 -33.5 -10t-21 -27t-7.5 -39v-189q0 -18 7.5 -34.5t22 -26t32.5 -9.5v-113zM263 -1v113
q19 0 33 9.5t21.5 25.5t7.5 34v190q0 21 -7 38.5t-21 27.5t-34 10v113q40 0 72.5 -14t56 -39t35.5 -58t12 -71v-203q0 -37 -13.5 -69.5t-37.5 -56t-56 -37t-69 -13.5z" />
    <glyph glyph-name="OE" unicode="&#x152;" horiz-adv-x="667" 
d="M282 0v122h52v457h-52v121h416v-121h-242v-171h148v-121h-148v-166h242v-121h-416zM229 0q-29 0 -66 9.5t-70.5 32.5t-55 61.5t-21.5 95.5v317q0 33 14 65.5t41.5 59t67.5 43t91 16.5v-121q-24 0 -41.5 -7t-28.5 -18t-16.5 -24.5t-5.5 -26.5v-304q0 -24 9.5 -40t24 -23.5
t30 -10.5t27.5 -3v-122z" />
    <glyph glyph-name="oe" unicode="&#x153;" horiz-adv-x="687" 
d="M232 -1v100q21 0 33.5 7.5t18.5 19.5t6 24v212q0 15 -6.5 26t-19 18t-32.5 7v103q40 0 64.5 -11.5t43.5 -30.5q20 18 46.5 30t61.5 12v-100q-18 0 -31.5 -8t-20.5 -20.5t-7 -25.5v-45h169v44q0 17 -9 29.5t-23.5 19t-28.5 6.5v100q37 0 74 -19t62 -50t25 -69v-163h-269
v-59q0 -19 11 -33t31 -21.5t48 -7.5q32 0 58.5 13t34.5 45l87 -32q-15 -59 -65.5 -89.5t-120.5 -30.5q-46 0 -77.5 12.5t-53.5 30.5q-19 -19 -44 -31.5t-66 -12.5zM191 -1q-43 0 -74 15.5t-51 39t-29.5 47.5t-9.5 40v235q0 17 10 40.5t30 46.5t51 38t73 15v-103
q-22 0 -35 -7t-18.5 -18.5t-5.5 -24.5v-211q0 -13 6.5 -25.5t19.5 -20t33 -7.5v-100z" />
    <glyph glyph-name="Racute" unicode="&#x154;" horiz-adv-x="506" 
d="M188 766l37 152h110l-68 -152h-79zM369 0l-15 178q-3 40 -12.5 65t-29.5 37t-54 12h-42v109h41q49 0 71.5 26.5t22.5 65.5q0 45 -26.5 69t-72.5 24h-36v114h48q62 0 107 -23.5t69.5 -66.5t24.5 -104q0 -55 -18.5 -94t-49.5 -63q31 -18 48 -55.5t20 -76.5l17 -217h-113z
M42 0v700h122v-700h-122z" />
    <glyph glyph-name="racute" unicode="&#x155;" horiz-adv-x="337" 
d="M164 619l37 152h110l-68 -152h-79zM42 0v560h118v-67q11 15 30.5 31t46.5 28t57 12h15h16l-27 -116q-35 0 -66.5 -21.5t-51.5 -54t-20 -66.5v-306h-118z" />
    <glyph glyph-name="uni0156" unicode="&#x156;" horiz-adv-x="506" 
d="M185 -213l37 152h110l-37 -152h-110zM369 0l-15 178q-3 40 -12.5 65t-29.5 37t-54 12h-42v109h41q49 0 71.5 26.5t22.5 65.5q0 45 -26.5 69t-72.5 24h-36v114h48q62 0 107 -23.5t69.5 -66.5t24.5 -104q0 -55 -18.5 -94t-49.5 -63q31 -18 48 -55.5t20 -76.5l17 -217h-113z
M42 0v700h122v-700h-122z" />
    <glyph glyph-name="uni0157" unicode="&#x157;" horiz-adv-x="337" 
d="M9 -213l37 152h110l-37 -152h-110zM42 0v560h118v-67q11 15 30.5 31t46.5 28t57 12h15h16l-27 -116q-35 0 -66.5 -21.5t-51.5 -54t-20 -66.5v-306h-118z" />
    <glyph glyph-name="Rcaron" unicode="&#x158;" horiz-adv-x="506" 
d="M183 766l-75 152h73l32 -68l33 68h74l-77 -152h-60zM369 0l-15 178q-3 40 -12.5 65t-29.5 37t-54 12h-42v109h41q49 0 71.5 26.5t22.5 65.5q0 45 -26.5 69t-72.5 24h-36v114h48q62 0 107 -23.5t69.5 -66.5t24.5 -104q0 -55 -18.5 -94t-49.5 -63q31 -18 48 -55.5t20 -76.5
l17 -217h-113zM42 0v700h122v-700h-122z" />
    <glyph glyph-name="rcaron" unicode="&#x159;" horiz-adv-x="337" 
d="M152 619l-75 152h73l32 -68l33 68h74l-77 -152h-60zM42 0v560h118v-67q11 15 30.5 31t46.5 28t57 12h15h16l-27 -116q-35 0 -66.5 -21.5t-51.5 -54t-20 -66.5v-306h-118z" />
    <glyph glyph-name="Sacute" unicode="&#x15a;" horiz-adv-x="485" 
d="M191 766l37 152h110l-68 -152h-79zM259 -3v113q13 0 27 7t26.5 19t20.5 27.5t8 34.5q0 29 -16 49.5t-41.5 35t-52 23.5t-48.5 15t-30 9q-31 10 -59 33t-46 59.5t-18 85.5q0 53 19.5 89.5t48.5 58.5t59 33t49 11v-114q-9 -3 -19.5 -8.5t-19.5 -15.5t-15 -22.5t-6 -29.5
q0 -21 11.5 -36t31 -25.5t44 -20t51 -18.5t51.5 -22q32 -15 61 -38.5t48 -57.5t19 -83q0 -56 -28 -104.5t-74.5 -78t-101.5 -29.5zM206 -3q-42 0 -75.5 17t-58 43t-37.5 53t-13 48l110 39q2 -25 14 -43.5t28.5 -29t31.5 -14.5v-113zM322 516q-2 22 -12.5 36.5t-24 23
t-26.5 10.5v114q40 0 72 -15.5t55 -40t35.5 -49t13.5 -42.5z" />
    <glyph glyph-name="sacute" unicode="&#x15b;" horiz-adv-x="447" 
d="M177 620l37 152h110l-68 -152h-79zM241 -5v109q15 0 32 6.5t29.5 20t12.5 33.5q0 21 -20 34t-50 22t-63.5 17.5t-60.5 18.5q-21 9 -43 26.5t-37 45.5t-15 70q0 48 17.5 80t45 51t56 27t50.5 8v-108q-23 0 -37 -8t-19.5 -19.5t-5.5 -22.5q0 -20 19 -35.5t59.5 -28.5
t103.5 -27q19 -4 38 -14.5t36 -27.5t27.5 -42t10.5 -60q0 -55 -25 -95t-67.5 -60.5t-93.5 -20.5zM197 -5q-61 0 -100 23.5t-58 58.5t-19 70l108 20q0 -18 10.5 -32t26.5 -22t32 -9v-109zM310 391q0 28 -14.5 41.5t-31.5 18.5t-25 5l1 108q53 0 92.5 -23.5t62 -59t22.5 -71.5
z" />
    <glyph glyph-name="uni015E" unicode="&#x15e;" horiz-adv-x="485" 
d="M112 -194v81q30 0 55.5 16t25.5 57h82q0 -36 -15.5 -71.5t-50.5 -59t-97 -23.5zM259 -3v113q13 0 27 7t26.5 19t20.5 27.5t8 34.5q0 29 -16 49.5t-41.5 35t-52 23.5t-48.5 15t-30 9q-31 10 -59 33t-46 59.5t-18 85.5q0 53 19.5 89.5t48.5 58.5t59 33t49 11v-114
q-9 -3 -19.5 -8.5t-19.5 -15.5t-15 -22.5t-6 -29.5q0 -21 11.5 -36t31 -25.5t44 -20t51 -18.5t51.5 -22q32 -15 61 -38.5t48 -57.5t19 -83q0 -56 -28 -104.5t-74.5 -78t-101.5 -29.5zM206 -3q-42 0 -75.5 17t-58 43t-37.5 53t-13 48l110 39q2 -25 14 -43.5t28.5 -29
t31.5 -14.5v-113zM322 516q-2 22 -12.5 36.5t-24 23t-26.5 10.5v114q40 0 72 -15.5t55 -40t35.5 -49t13.5 -42.5z" />
    <glyph glyph-name="uni015F" unicode="&#x15f;" horiz-adv-x="447" 
d="M117 -194v81q30 0 55.5 16t25.5 57h82q0 -36 -15.5 -71.5t-50.5 -59t-97 -23.5zM241 -5v109q15 0 32 6.5t29.5 20t12.5 33.5q0 21 -20 34t-50 22t-63.5 17.5t-60.5 18.5q-21 9 -43 26.5t-37 45.5t-15 70q0 48 17.5 80t45 51t56 27t50.5 8v-108q-23 0 -37 -8t-19.5 -19.5
t-5.5 -22.5q0 -20 19 -35.5t59.5 -28.5t103.5 -27q19 -4 38 -14.5t36 -27.5t27.5 -42t10.5 -60q0 -55 -25 -95t-67.5 -60.5t-93.5 -20.5zM197 -5q-61 0 -100 23.5t-58 58.5t-19 70l108 20q0 -18 10.5 -32t26.5 -22t32 -9v-109zM310 391q0 28 -14.5 41.5t-31.5 18.5t-25 5
l1 108q53 0 92.5 -23.5t62 -59t22.5 -71.5z" />
    <glyph glyph-name="Scaron" unicode="&#x160;" horiz-adv-x="485" 
d="M191 766l-75 152h73l32 -68l33 68h74l-77 -152h-60zM252 -3v113q13 0 27 7t26.5 19t20.5 27.5t8 34.5q0 29 -16 49.5t-41.5 35t-52 23.5t-48.5 15t-30 9q-31 10 -59 33t-46 59.5t-18 85.5q0 53 19.5 89.5t48.5 58.5t59 33t49 11v-114q-9 -3 -19.5 -8.5t-19.5 -15.5
t-15 -22.5t-6 -29.5q0 -21 11.5 -36t31 -25.5t44 -20t51 -18.5t51.5 -22q32 -15 61 -38.5t48 -57.5t19 -83q0 -56 -28 -104.5t-74.5 -78t-101.5 -29.5zM199 -3q-42 0 -75.5 17t-58 43t-37.5 53t-13 48l110 39q2 -25 14 -43.5t28.5 -29t31.5 -14.5v-113zM315 516
q-2 22 -12.5 36.5t-24 23t-26.5 10.5v114q40 0 72 -15.5t55 -40t35.5 -49t13.5 -42.5z" />
    <glyph glyph-name="scaron" unicode="&#x161;" horiz-adv-x="447" 
d="M187 620l-75 152h73l32 -68l33 68h74l-77 -152h-60zM242 -5v109q15 0 32 6.5t29.5 20t12.5 33.5q0 21 -20 34t-50 22t-63.5 17.5t-60.5 18.5q-21 9 -43 26.5t-37 45.5t-15 70q0 48 17.5 80t45 51t56 27t50.5 8v-108q-23 0 -37 -8t-19.5 -19.5t-5.5 -22.5q0 -20 19 -35.5
t59.5 -28.5t103.5 -27q19 -4 38 -14.5t36 -27.5t27.5 -42t10.5 -60q0 -55 -25 -95t-67.5 -60.5t-93.5 -20.5zM198 -5q-61 0 -100 23.5t-58 58.5t-19 70l108 20q0 -18 10.5 -32t26.5 -22t32 -9v-109zM311 391q0 28 -14.5 41.5t-31.5 18.5t-25 5l1 108q53 0 92.5 -23.5t62 -59
t22.5 -71.5z" />
    <glyph glyph-name="uni0162" unicode="&#x162;" horiz-adv-x="465" 
d="M110 -194v81q30 0 55.5 16t25.5 57h82q0 -36 -15.5 -71.5t-50.5 -59t-97 -23.5zM171 0v581h-155v119h433v-119h-156v-581h-122z" />
    <glyph glyph-name="uni0163" unicode="&#x163;" horiz-adv-x="310" 
d="M139 -193v81q30 0 55.5 16t25.5 57h82q0 -36 -15.5 -71.5t-50.5 -59t-97 -23.5zM251 0q-66 0 -102.5 22.5t-50.5 63.5t-14 96v264h-69v111h69v156h116v-156h65v-112h-65v-273q0 -20 10.5 -36.5t42.5 -16.5h23l26 -119h-51z" />
    <glyph glyph-name="Tcaron" unicode="&#x164;" horiz-adv-x="465" 
d="M201 766l-75 152h73l32 -68l33 68h74l-77 -152h-60zM171 0v581h-155v119h433v-119h-156v-581h-122z" />
    <glyph glyph-name="tcaron" unicode="&#x165;" horiz-adv-x="487" 
d="M243 597l37 152h110l-37 -152h-110zM251 0q-66 0 -102.5 22.5t-50.5 63.5t-14 96v264h-69v111h69v156h116v-156h65v-112h-65v-273q0 -20 10.5 -36.5t42.5 -16.5h23l26 -119h-51z" />
    <glyph glyph-name="Umacron" unicode="&#x16a;" horiz-adv-x="515" 
d="M98 766v72h316v-72h-316zM231 -5q-22 0 -55.5 11t-65.5 34t-54 61t-22 92v507h122v-507q0 -22 10 -36.5t23.5 -23t25.5 -12.5t16 -4v-122zM284 -5v122q4 0 16 4t26 12.5t24 23t10 36.5v507h121v-507q0 -54 -22 -92t-54 -61.5t-65 -34t-56 -10.5z" />
    <glyph glyph-name="umacron" unicode="&#x16b;" horiz-adv-x="480" 
d="M82 619v72h316v-72h-316zM262 -5v115q22 0 35.5 8.5t20 20t6.5 23.5v397h118v-410q0 -20 -11 -46t-34 -51t-56.5 -41t-78.5 -16zM217 -5q-44 0 -78 16t-56.5 40t-33.5 50.5t-11 46.5v411h118v-397q0 -11 6.5 -23t20 -20.5t34.5 -8.5v-115z" />
    <glyph glyph-name="Uring" unicode="&#x16e;" horiz-adv-x="515" 
d="M256 772q-38 0 -64 26t-26 64t26 64t64 26t64 -26t26 -64t-26 -64t-64 -26zM256 830q14 0 23 9.5t9 22.5q0 14 -9 23t-23 9q-13 0 -22.5 -9t-9.5 -23q0 -13 9.5 -22.5t22.5 -9.5zM231 -5q-22 0 -55.5 11t-65.5 34t-54 61t-22 92v507h122v-507q0 -22 10 -36.5t23.5 -23
t25.5 -12.5t16 -4v-122zM284 -5v122q4 0 16 4t26 12.5t24 23t10 36.5v507h121v-507q0 -54 -22 -92t-54 -61.5t-65 -34t-56 -10.5z" />
    <glyph glyph-name="uring" unicode="&#x16f;" horiz-adv-x="480" 
d="M240 625q-38 0 -64 26t-26 64t26 64t64 26t64 -26t26 -64t-26 -64t-64 -26zM240 683q14 0 23 9.5t9 22.5q0 14 -9 23t-23 9q-13 0 -22.5 -9t-9.5 -23q0 -13 9.5 -22.5t22.5 -9.5zM262 -5v115q22 0 35.5 8.5t20 20t6.5 23.5v397h118v-410q0 -20 -11 -46t-34 -51t-56.5 -41
t-78.5 -16zM217 -5q-44 0 -78 16t-56.5 40t-33.5 50.5t-11 46.5v411h118v-397q0 -11 6.5 -23t20 -20.5t34.5 -8.5v-115z" />
    <glyph glyph-name="Uhungarumlaut" unicode="&#x170;" horiz-adv-x="515" 
d="M304 766l37 152h110l-68 -152h-79zM158 766l37 152h110l-68 -152h-79zM231 -5q-22 0 -55.5 11t-65.5 34t-54 61t-22 92v507h122v-507q0 -22 10 -36.5t23.5 -23t25.5 -12.5t16 -4v-122zM284 -5v122q4 0 16 4t26 12.5t24 23t10 36.5v507h121v-507q0 -54 -22 -92t-54 -61.5
t-65 -34t-56 -10.5z" />
    <glyph glyph-name="uhungarumlaut" unicode="&#x171;" horiz-adv-x="480" 
d="M281 619l37 152h110l-68 -152h-79zM134 619l37 152h110l-68 -152h-79zM262 -5v115q22 0 35.5 8.5t20 20t6.5 23.5v397h118v-410q0 -20 -11 -46t-34 -51t-56.5 -41t-78.5 -16zM217 -5q-44 0 -78 16t-56.5 40t-33.5 50.5t-11 46.5v411h118v-397q0 -11 6.5 -23t20 -20.5
t34.5 -8.5v-115z" />
    <glyph glyph-name="Uogonek" unicode="&#x172;" horiz-adv-x="515" 
d="M378 -194q-61 0 -96.5 23.5t-51 59t-15.5 71.5h82q0 -41 25.5 -57t55.5 -16v-81zM231 -5q-22 0 -55.5 11t-65.5 34t-54 61t-22 92v507h122v-507q0 -22 10 -36.5t23.5 -23t25.5 -12.5t16 -4v-122zM284 -5v122q4 0 16 4t26 12.5t24 23t10 36.5v507h121v-507q0 -54 -22 -92
t-54 -61.5t-65 -34t-56 -10.5z" />
    <glyph glyph-name="uogonek" unicode="&#x173;" horiz-adv-x="480" 
d="M363 -194q-61 0 -96.5 23.5t-51 59t-15.5 71.5h82q0 -41 25.5 -57t55.5 -16v-81zM262 -5v115q22 0 35.5 8.5t20 20t6.5 23.5v397h118v-410q0 -20 -11 -46t-34 -51t-56.5 -41t-78.5 -16zM217 -5q-44 0 -78 16t-56.5 40t-33.5 50.5t-11 46.5v411h118v-397q0 -11 6.5 -23
t20 -20.5t34.5 -8.5v-115z" />
    <glyph glyph-name="Ydieresis" unicode="&#x178;" horiz-adv-x="458" 
d="M305 766q-27 0 -46.5 19.5t-19.5 46.5q0 28 19.5 47.5t46.5 19.5q28 0 47 -19.5t19 -47.5q0 -27 -19 -46.5t-47 -19.5zM148 766q-27 0 -46.5 19.5t-19.5 46.5q0 28 19.5 47.5t46.5 19.5q28 0 47 -19.5t19 -47.5q0 -27 -19 -46.5t-47 -19.5zM156 0v252l-141 448h127
l140 -447v-253h-126zM312 327l-57 198l62 175h125l-122 -373h-8z" />
    <glyph glyph-name="Zacute" unicode="&#x179;" horiz-adv-x="430" 
d="M174 766l37 152h110l-68 -152h-79zM32 0v121l231 458h-231v121h366v-118l-232 -458h232v-124h-366z" />
    <glyph glyph-name="zacute" unicode="&#x17a;" horiz-adv-x="380" 
d="M151 619l37 152h110l-68 -152h-79zM30 0v113l188 334h-188v112h320v-111l-184 -335h184v-113h-320z" />
    <glyph glyph-name="Zdotaccent" unicode="&#x17b;" horiz-adv-x="430" 
d="M213 766q-28 0 -47 19t-19 47t19 47.5t47 19.5t47 -19.5t19 -47.5t-18.5 -47t-47.5 -19zM32 0v121l231 458h-231v121h366v-118l-232 -458h232v-124h-366z" />
    <glyph glyph-name="zdotaccent" unicode="&#x17c;" horiz-adv-x="380" 
d="M190 620q-28 0 -47 19t-19 47t19 47.5t47 19.5t47 -19.5t19 -47.5t-18.5 -47t-47.5 -19zM30 0v113l188 334h-188v112h320v-111l-184 -335h184v-113h-320z" />
    <glyph glyph-name="Zcaron" unicode="&#x17d;" horiz-adv-x="430" 
d="M182 766l-75 152h73l32 -68l33 68h74l-77 -152h-60zM32 0v121l231 458h-231v121h366v-118l-232 -458h232v-124h-366z" />
    <glyph glyph-name="zcaron" unicode="&#x17e;" horiz-adv-x="380" 
d="M160 619l-75 152h73l32 -68l33 68h74l-77 -152h-60zM30 0v113l188 334h-188v112h320v-111l-184 -335h184v-113h-320z" />
    <glyph glyph-name="florin" unicode="&#x192;" horiz-adv-x="382" 
d="M26 -168l24 92h50q17 0 25.5 7.5t12 17t3.5 14.5v444h-63v101h63v41q0 19 9.5 43.5t29 48t48 39.5t67.5 16h61l-24 -102h-31q-32 0 -43 -17t-11 -30v-40l66 1v-101h-66v-437q0 -31 -13.5 -63t-46 -53.5t-88.5 -21.5h-73z" />
    <glyph glyph-name="uni0218" unicode="&#x218;" horiz-adv-x="485" 
d="M156 -216l37 152h110l-37 -152h-110zM259 -3v113q13 0 27 7t26.5 19t20.5 27.5t8 34.5q0 29 -16 49.5t-41.5 35t-52 23.5t-48.5 15t-30 9q-31 10 -59 33t-46 59.5t-18 85.5q0 53 19.5 89.5t48.5 58.5t59 33t49 11v-114q-9 -3 -19.5 -8.5t-19.5 -15.5t-15 -22.5t-6 -29.5
q0 -21 11.5 -36t31 -25.5t44 -20t51 -18.5t51.5 -22q32 -15 61 -38.5t48 -57.5t19 -83q0 -56 -28 -104.5t-74.5 -78t-101.5 -29.5zM206 -3q-42 0 -75.5 17t-58 43t-37.5 53t-13 48l110 39q2 -25 14 -43.5t28.5 -29t31.5 -14.5v-113zM322 516q-2 22 -12.5 36.5t-24 23
t-26.5 10.5v114q40 0 72 -15.5t55 -40t35.5 -49t13.5 -42.5z" />
    <glyph glyph-name="uni0219" unicode="&#x219;" horiz-adv-x="447" 
d="M141 -218l37 152h110l-37 -152h-110zM241 -5v109q15 0 32 6.5t29.5 20t12.5 33.5q0 21 -20 34t-50 22t-63.5 17.5t-60.5 18.5q-21 9 -43 26.5t-37 45.5t-15 70q0 48 17.5 80t45 51t56 27t50.5 8v-108q-23 0 -37 -8t-19.5 -19.5t-5.5 -22.5q0 -20 19 -35.5t59.5 -28.5
t103.5 -27q19 -4 38 -14.5t36 -27.5t27.5 -42t10.5 -60q0 -55 -25 -95t-67.5 -60.5t-93.5 -20.5zM197 -5q-61 0 -100 23.5t-58 58.5t-19 70l108 20q0 -18 10.5 -32t26.5 -22t32 -9v-109zM310 391q0 28 -14.5 41.5t-31.5 18.5t-25 5l1 108q53 0 92.5 -23.5t62 -59t22.5 -71.5
z" />
    <glyph glyph-name="uni021A" unicode="&#x21a;" horiz-adv-x="465" 
d="M142 -213l37 152h110l-37 -152h-110zM171 0v581h-155v119h433v-119h-156v-581h-122z" />
    <glyph glyph-name="uni021B" unicode="&#x21b;" horiz-adv-x="310" 
d="M179 -213l37 152h110l-37 -152h-110zM251 0q-66 0 -102.5 22.5t-50.5 63.5t-14 96v264h-69v111h69v156h116v-156h65v-112h-65v-273q0 -20 10.5 -36.5t42.5 -16.5h23l26 -119h-51z" />
    <glyph glyph-name="circumflex" unicode="&#x2c6;" horiz-adv-x="270" 
d="M29 514l75 152h60l77 -152h-74l-33 68l-32 -68h-73z" />
    <glyph glyph-name="caron" unicode="&#x2c7;" horiz-adv-x="270" 
d="M104 514l-75 152h73l32 -68l33 68h74l-77 -152h-60z" />
    <glyph glyph-name="uni02C9" unicode="&#x2c9;" horiz-adv-x="416" 
d="M50 519v72h316v-72h-316z" />
    <glyph glyph-name="breve" unicode="&#x2d8;" horiz-adv-x="244" 
d="M122 436q-25 0 -45.5 13t-32.5 33.5t-12 43.5h58q0 -13 9.5 -22.5t22.5 -9.5q14 0 23 9.5t9 22.5h58q0 -23 -12 -43.5t-32 -33.5t-46 -13z" />
    <glyph glyph-name="dotaccent" unicode="&#x2d9;" horiz-adv-x="202" 
d="M101 612q-28 0 -47 19t-19 47t19 47.5t47 19.5t47 -19.5t19 -47.5t-18.5 -47t-47.5 -19z" />
    <glyph glyph-name="ring" unicode="&#x2da;" horiz-adv-x="244" 
d="M122 436q-38 0 -64 26t-26 64t26 64t64 26t64 -26t26 -64t-26 -64t-64 -26zM122 494q14 0 23 9.5t9 22.5q0 14 -9 23t-23 9q-13 0 -22.5 -9t-9.5 -23q0 -13 9.5 -22.5t22.5 -9.5z" />
    <glyph glyph-name="ogonek" unicode="&#x2db;" horiz-adv-x="219" 
d="M106 -194q-61 0 -96.5 23.5t-51 59t-15.5 71.5h82q0 -41 25.5 -57t55.5 -16v-81z" />
    <glyph glyph-name="tilde" unicode="&#x2dc;" horiz-adv-x="333" 
d="M223 92q-26 0 -47 10t-40.5 20t-43.5 10q-13 0 -29.5 -5t-36.5 -17v90q21 12 38.5 17t31.5 5q26 0 46 -10t40 -20.5t45 -10.5q17 0 36 6.5t44 21.5v-89q-25 -16 -46 -22t-38 -6z" />
    <glyph glyph-name="hungarumlaut" unicode="&#x2dd;" horiz-adv-x="338" 
d="M187 605l37 152h110l-68 -152h-79zM41 605l37 152h110l-68 -152h-79z" />
    <glyph glyph-name="pi" unicode="&#x3c0;" horiz-adv-x="512" 
d="M83 -1v407h-64v112h474v-112h-64v-264q0 -16 5.5 -26.5t16.5 -16t28 -5.5v-98q-49 0 -83.5 18.5t-52.5 49.5t-18 69v273h-135v-407h-107z" />
    <glyph glyph-name="sinAnusvara" unicode="&#xd82;" horiz-adv-x="350" 
d="M153 91q-35 0 -63.5 16t-45.5 44.5t-17 66.5v139q0 39 16 68t44.5 46.5t65.5 17.5v-88q-12 0 -20 -6t-12 -17t-4 -26v-130q0 -12 4.5 -22t13 -15t18.5 -5v-89zM188 91v89q10 0 18 5t12.5 14.5t4.5 22.5v130q0 15 -4 26t-12 17t-19 6v88q37 0 65 -17.5t44 -46.5t16 -68
v-139q0 -38 -17 -66.5t-46 -44.5t-62 -16z" />
    <glyph glyph-name="sinVisarga" unicode="&#xd83;" horiz-adv-x="387" 
d="M219 298v94q21 0 31.5 13.5t10.5 29.5q0 17 -10.5 30.5t-31.5 13.5v89h14q41 0 69 -19.5t41.5 -50t13.5 -63.5q0 -35 -14 -66t-41.5 -51t-68.5 -20h-14zM154 -7q-40 0 -68 20t-42 51.5t-14 65.5t14 64t41.5 49.5t69.5 19.5h14v-89q-21 0 -32 -13.5t-11 -29.5
q0 -17 11 -30.5t32 -13.5v-94h-15zM219 -7v94q21 0 31.5 13.5t10.5 29.5q0 17 -10.5 30.5t-31.5 13.5v89h14q41 0 69 -19.5t41.5 -50t13.5 -63.5q0 -35 -14 -66t-41.5 -51t-68.5 -20h-14zM154 298q-40 0 -68 20t-42 51.5t-14 65.5t14 64t41.5 49.5t69.5 19.5h14v-89
q-21 0 -32 -13.5t-11 -29.5q0 -17 11 -30.5t32 -13.5v-94h-15z" />
    <glyph glyph-name="sinA" unicode="&#xd85;" horiz-adv-x="543" 
d="M272 0h-30q-56 0 -105 22t-78 66t-29 113q0 68 29 112.5t80.5 66.5t116.5 22h72q0 24 -12 39.5t-31.5 23t-41.5 7.5q-27 0 -49.5 -12t-30.5 -36l-103 34q11 40 38 67t64 40t77 13q49 0 95.5 -20t76 -59.5t29.5 -98.5v-118h-186q-21 0 -44.5 -6t-39.5 -23.5t-16 -51.5
q0 -43 26 -63t64 -20h28v-118zM327 -169v559q0 43 13.5 78t48 62.5t99.5 49.5l25 -125q-33 -8 -48.5 -20.5t-20 -27t-4.5 -32.5v-254h54v-121h-54v-169h-113z" />
    <glyph glyph-name="sinAa" unicode="&#xd86;" horiz-adv-x="817" 
d="M569 0v122h20q20 0 33.5 5.5t22 16t12.5 25t4 31.5v154q0 18 -4 34t-12.5 28t-22 18.5t-33.5 6.5h-20v121h20q69 0 111.5 -26t62.5 -71t20 -103v-162q0 -58 -20 -103t-62.5 -71t-111.5 -26h-20zM272 0h-30q-56 0 -105 22t-78 66t-29 113q0 68 29 112.5t80.5 66.5
t116.5 22h72q0 24 -12 39.5t-31.5 23t-41.5 7.5q-27 0 -49.5 -12t-30.5 -36l-103 34q11 40 38 67t64 40t77 13q49 0 95.5 -20t76 -59.5t29.5 -98.5v-118h-186q-21 0 -44.5 -6t-39.5 -23.5t-16 -51.5q0 -43 26 -63t64 -20h28v-118zM327 -169v559q0 43 13.5 78t48 62.5
t99.5 49.5l25 -125q-33 -8 -48.5 -20.5t-20 -27t-4.5 -32.5v-254h54v-121h-54v-169h-113z" />
    <glyph glyph-name="sinAe" unicode="&#xd87;" horiz-adv-x="817" 
d="M774 0q-54 0 -100 18t-73.5 57t-27.5 104v78q0 35 4.5 59.5t14.5 45.5t26.5 43t41.5 51h-83v118h217v-118q-32 -38 -51.5 -64.5t-30 -45.5t-14.5 -36t-4 -38v-74q0 -18 6 -32t15.5 -23.5t23 -14.5t28.5 -5h27v-123h-20zM272 0h-30q-56 0 -105 22t-78 66t-29 113
q0 68 29 112.5t80.5 66.5t116.5 22h72q0 24 -12 39.5t-31.5 23t-41.5 7.5q-27 0 -49.5 -12t-30.5 -36l-103 34q11 40 38 67t64 40t77 13q49 0 95.5 -20t76 -59.5t29.5 -98.5v-118h-186q-21 0 -44.5 -6t-39.5 -23.5t-16 -51.5q0 -43 26 -63t64 -20h28v-118zM327 -169v559
q0 43 13.5 78t48 62.5t99.5 49.5l25 -125q-33 -8 -48.5 -20.5t-20 -27t-4.5 -32.5v-254h54v-121h-54v-169h-113z" />
    <glyph glyph-name="sinAae" unicode="&#xd88;" horiz-adv-x="820" 
d="M762 0q-52 0 -95 16t-68.5 48t-25.5 80v41q0 27 9.5 47.5t29 41t48.5 43.5h-87v97l96 63h-96v97h213v-97l-98 -63h98v-97q-31 -23 -50 -39.5t-27.5 -29.5t-11 -24.5t-2.5 -25.5v-14q0 -15 4.5 -26t13.5 -19t21.5 -12t28.5 -4h23v-123h-24zM276 0h-30q-56 0 -105 22
t-78 66t-29 113q0 68 29 112.5t80.5 66.5t116.5 22h72q0 24 -12 39.5t-31.5 23t-41.5 7.5q-27 0 -49.5 -12t-30.5 -36l-103 34q11 40 38 67t64 40t77 13q49 0 95.5 -20t76 -59.5t29.5 -98.5v-118h-186q-21 0 -44.5 -6t-39.5 -23.5t-16 -51.5q0 -43 26 -63t64 -20h28v-118z
M331 -169v559q0 43 13.5 78t48 62.5t99.5 49.5l25 -125q-33 -8 -48.5 -20.5t-20 -27t-4.5 -32.5v-254h54v-121h-54v-169h-113z" />
    <glyph glyph-name="sinI" unicode="&#xd89;" horiz-adv-x="566" 
d="M195 0v111h41q39 0 71.5 9t57.5 28t39 49.5t14 74.5v79q0 31 -9 51.5t-24.5 31.5t-34.5 15.5t-39 4.5v122h16q52 0 100 -22.5t78.5 -65t30.5 -101.5v-138q0 -60 -20 -106.5t-55 -78t-80 -48t-95 -16.5h-91zM249 -204q-50 0 -87 16.5t-61 44.5t-35 63l115 29
q4 -14 14.5 -24t25 -14.5t27.5 -4.5q18 0 33.5 6.5t24.5 17.5t9 25h118q0 -47 -22.5 -82.5t-63.5 -56t-98 -20.5zM199 176q-62 0 -99.5 20t-54.5 52t-17 69v72q0 58 31.5 100t80 64.5t100.5 22.5h16v-122h-16q-16 0 -32 -4t-29.5 -14t-22 -25t-8.5 -36v-35q0 -12 4 -21.5
t13.5 -15.5t24.5 -6q23 0 32 12t9 28v28h113v-85q0 -11 -4.5 -28.5t-18.5 -34.5t-43 -29t-79 -12z" />
    <glyph glyph-name="sinIi" unicode="&#xd8a;" horiz-adv-x="593" 
d="M515 589q-30 0 -51.5 21.5t-21.5 50.5q0 30 21.5 51.5t51.5 21.5t51.5 -21.5t21.5 -51.5q0 -29 -21.5 -50.5t-51.5 -21.5zM123 697q-30 0 -51.5 21.5t-21.5 50.5q0 30 21.5 51.5t51.5 21.5t51.5 -21.5t21.5 -51.5q0 -29 -21.5 -50.5t-51.5 -21.5zM242 -5
q-38 0 -75.5 12.5t-68.5 41t-49.5 75.5t-18.5 116v159q0 36 5 65t19.5 58.5t42.5 64.5l188 243l97 -69l-173 -228q-23 -30 -35.5 -50t-17.5 -40t-5 -53v-155q0 -61 22 -88.5t69 -27.5v-124zM348 564q57 0 92.5 -23.5t52 -65.5t16.5 -100v-157q0 -88 -29 -136.5t-77 -67
t-105 -19.5v124q53 0 71.5 28t18.5 88v98q0 43 -6 68t-24.5 36.5t-55.5 11.5h-91v4l79 111h58z" />
    <glyph glyph-name="sinU" unicode="&#xd8b;" horiz-adv-x="564" 
d="M268 -169q-39 0 -80.5 16t-77.5 48t-58 79.5t-22 110.5v48q0 43 8.5 89t32.5 86t70.5 65t123.5 25h136q-1 29 -17.5 44t-36.5 21t-34 6q-12 0 -30 -3t-33 -12.5t-22 -27.5l-100 38q11 37 39.5 61.5t67.5 37t80 12.5q51 0 96 -19.5t73 -60.5t29 -108v-111h-245
q-30 0 -52 -8t-36 -25.5t-21 -44.5t-7 -65v-48q0 -35 9.5 -58.5t24.5 -38t31 -22t30 -10t21 -3.5v-122zM324 -168v121q20 0 40.5 4t38 13.5t30.5 25.5t19 41l117 -33q-11 -52 -36.5 -85.5t-60 -52.5t-73 -26.5t-75.5 -7.5z" />
    <glyph glyph-name="sinUu" unicode="&#xd8c;" horiz-adv-x="971" 
d="M759 -8q-44 0 -84.5 18.5t-66.5 57t-26 95.5v39h111v-39q0 -22 10.5 -36.5t26.5 -22t34 -7.5q17 0 32.5 7t25 22t9.5 37v268q0 14 -7 20.5t-16 6.5q-8 0 -15.5 -6.5t-7.5 -20.5v-49q0 -43 -29.5 -66t-66.5 -23q-26 0 -50.5 12t-40.5 37.5t-16 64.5v157h82v-127
q0 -12 7.5 -18t15.5 -6q9 0 16 6t7 18v26q0 36 16 59.5t41.5 35.5t53.5 12q47 0 83.5 -33t37.5 -95v-279q0 -56 -26.5 -94t-68.5 -57.5t-88 -19.5zM268 -169q-39 0 -80.5 16t-77.5 48t-58 79.5t-22 110.5v48q0 43 8.5 89t32.5 86t70.5 65t123.5 25h136q-1 29 -17.5 44
t-36.5 21t-34 6q-12 0 -30 -3t-33 -12.5t-22 -27.5l-100 38q11 37 39.5 61.5t67.5 37t80 12.5q51 0 96 -19.5t73 -60.5t29 -108v-111h-245q-30 0 -52 -8t-36 -25.5t-21 -44.5t-7 -65v-48q0 -35 9.5 -58.5t24.5 -38t31 -22t30 -10t21 -3.5v-122zM324 -168v121q20 0 40.5 4
t38 13.5t30.5 25.5t19 41l117 -33q-11 -52 -36.5 -85.5t-60 -52.5t-73 -26.5t-75.5 -7.5z" />
    <glyph glyph-name="sinRVocalic" unicode="&#xd8d;" horiz-adv-x="1005" 
d="M205 -6q-50 0 -90 20t-62.5 56.5t-22.5 85.5v44h120v-35q0 -25 18 -38t41 -13t40.5 13t17.5 40v33h112v-33q0 -27 18 -40t40 -13q23 0 41 13t18 38v35h120v-44q0 -52 -22 -88.5t-61 -55t-90 -18.5q-37 0 -68.5 11.5t-53.5 36.5q-22 -25 -51.5 -36.5t-64.5 -11.5zM30 249
v32q0 37 12.5 61t33.5 37t47.5 18t53.5 5h292q27 0 53.5 -5t47.5 -18t33.5 -37t12.5 -61v-32h-120v15q0 12 -5.5 19.5t-15.5 11t-23 3.5h-258q-13 0 -23 -3.5t-15.5 -11t-5.5 -19.5v-15h-120zM267 378v22q0 24 -10.5 38t-26.5 20.5t-30 6.5q-24 0 -38.5 -11t-18.5 -25
l-103 34q18 57 63.5 83.5t97.5 26.5q20 0 41.5 -4.5t42.5 -14.5t38 -25q18 15 38.5 25t42 14.5t42.5 4.5q52 0 97 -26.5t63 -83.5l-103 -34q-4 14 -18.5 25t-38.5 11q-14 0 -29.5 -6.5t-26.5 -20.5t-11 -38v-22h-112zM822 0q-39 0 -74.5 17.5t-58.5 52.5t-23 85
q0 39 16 72.5t49.5 54.5t85.5 21h13v-100h-13q-21 0 -34.5 -13.5t-13.5 -33.5q0 -24 16.5 -38.5t36.5 -14.5t34.5 14.5t14.5 39.5v228q0 19 -5 35.5t-18.5 27.5t-39.5 11h-90v113h104q45 0 79.5 -22.5t54 -62t19.5 -89.5v-245q0 -50 -22 -84t-57 -51.5t-74 -17.5z" />
    <glyph glyph-name="sinLVocalic" unicode="&#xd8f;" horiz-adv-x="960" 
d="M137 -6q-37 0 -63.5 26.5t-26.5 63.5q0 38 26.5 64.5t63.5 26.5q38 0 64 -26.5t26 -64.5q0 -37 -26 -63.5t-64 -26.5zM55 47q-14 32 -19.5 70t-5.5 85h114q0 -35 5.5 -64.5t12.5 -54.5zM30 251v88q0 64 25 114t68.5 79.5t97.5 29.5q38 0 77 -15v-117l-23 8q-18 7 -42 7
q-20 0 -40.5 -10t-34.5 -37t-14 -78v-69h-114zM816 251v69q0 51 -13.5 78t-34 37t-41.5 10q-23 0 -42 -7l-23 -8v117q39 15 77 15q55 0 98 -29.5t68 -79.5t25 -114v-88h-114zM905 47l-107 36q8 25 13 54.5t5 64.5h114q0 -47 -5 -85t-20 -70zM823 -6q-37 0 -63.5 26.5
t-26.5 63.5q0 38 26.5 64.5t63.5 26.5q38 0 64 -26.5t26 -64.5q0 -37 -26 -63.5t-64 -26.5zM454 -11q-133 0 -193.5 52t-60.5 159h121q0 -33 15 -54.5t43 -30.5t66 -9h70q40 0 67.5 9.5t42 31t14.5 53.5h121q0 -103 -61.5 -157t-189.5 -54h-55zM201 249q0 61 20.5 94
t57.5 46t85 13h225q54 0 92 -12t58.5 -45t20.5 -96h-120q0 13 -2.5 24t-13 18t-32.5 7h-219q-23 0 -34 -7.5t-14.5 -19t-3.5 -22.5h-120zM424 378v22q0 24 -10.5 38t-26.5 20.5t-30 6.5q-24 0 -38.5 -11t-18.5 -25l-103 34q18 57 63 83.5t98 26.5q20 0 41.5 -4.5t42.5 -14.5
t38 -25q18 15 38.5 25t42 14.5t42.5 4.5q52 0 97 -26.5t63 -83.5l-103 -34q-4 14 -18.5 25t-38.5 11q-14 0 -29.5 -6.5t-26.5 -20.5t-11 -38v-22h-112z" />
    <glyph glyph-name="sinLlVocalic" unicode="&#xd90;" horiz-adv-x="1380" 
d="M1167 -8q-44 0 -84.5 18.5t-66.5 57t-26 95.5v39h111v-39q0 -22 10.5 -36.5t26.5 -22t34 -7.5q17 0 32.5 7t25 22t9.5 37v268q0 14 -7 20.5t-16 6.5q-8 0 -15.5 -6.5t-7.5 -20.5v-49q0 -43 -29.5 -66t-66.5 -23q-26 0 -50.5 12t-40.5 37.5t-16 64.5v157h82v-127
q0 -12 7.5 -18t15.5 -6q9 0 16 6t7 18v26q0 36 16 59.5t41.5 35.5t53.5 12q47 0 83.5 -33t37.5 -95v-279q0 -56 -26.5 -94t-68.5 -57.5t-88 -19.5zM137 -6q-37 0 -63.5 26.5t-26.5 63.5q0 38 26.5 64.5t63.5 26.5q38 0 64 -26.5t26 -64.5q0 -37 -26 -63.5t-64 -26.5zM55 47
q-14 32 -19.5 70t-5.5 85h114q0 -35 5.5 -64.5t12.5 -54.5zM30 251v88q0 64 25 114t68.5 79.5t97.5 29.5q38 0 77 -15v-117l-23 8q-18 7 -42 7q-20 0 -40.5 -10t-34.5 -37t-14 -78v-69h-114zM816 251v69q0 51 -13.5 78t-34 37t-41.5 10q-23 0 -42 -7l-23 -8v117q39 15 77 15
q55 0 98 -29.5t68 -79.5t25 -114v-88h-114zM905 47l-107 36q8 25 13 54.5t5 64.5h114q0 -47 -5 -85t-20 -70zM823 -6q-37 0 -63.5 26.5t-26.5 63.5q0 38 26.5 64.5t63.5 26.5q38 0 64 -26.5t26 -64.5q0 -37 -26 -63.5t-64 -26.5zM454 -11q-133 0 -193.5 52t-60.5 159h121
q0 -33 15 -54.5t43 -30.5t66 -9h70q40 0 67.5 9.5t42 31t14.5 53.5h121q0 -103 -61.5 -157t-189.5 -54h-55zM201 249q0 61 20.5 94t57.5 46t85 13h225q54 0 92 -12t58.5 -45t20.5 -96h-120q0 13 -2.5 24t-13 18t-32.5 7h-219q-23 0 -34 -7.5t-14.5 -19t-3.5 -22.5h-120z
M424 378v22q0 24 -10.5 38t-26.5 20.5t-30 6.5q-24 0 -38.5 -11t-18.5 -25l-103 34q18 57 63 83.5t98 26.5q20 0 41.5 -4.5t42.5 -14.5t38 -25q18 15 38.5 25t42 14.5t42.5 4.5q52 0 97 -26.5t63 -83.5l-103 -34q-4 14 -18.5 25t-38.5 11q-14 0 -29.5 -6.5t-26.5 -20.5
t-11 -38v-22h-112z" />
    <glyph glyph-name="sinE" unicode="&#xd91;" horiz-adv-x="601" 
d="M282 -4q-64 0 -112 27.5t-74 73.5t-26 100q0 14 3.5 32t13.5 34h-57v90h226v6q0 17 -7.5 27.5t-19.5 15.5t-25 5t-28.5 -6t-19.5 -23l-88 23q12 41 36.5 62t52.5 28t48 7q32 0 60 -11t47 -30q18 -19 26.5 -43.5t8.5 -62.5v-88h-92q-9 0 -24.5 -5t-28 -18.5t-12.5 -40.5
q0 -21 9.5 -38.5t30 -28.5t52.5 -11v-125zM338 -4v125q28 0 53.5 10t42 37.5t16.5 79.5h121q0 -127 -58 -189.5t-175 -62.5zM338 755q66 0 119 -21.5t83.5 -73t30.5 -143.5v-269h-121v258q0 73 -21.5 106t-81.5 33h-9v-27q0 -22 6.5 -40t22.5 -28t43 -10v-95
q-63 0 -102.5 23t-57.5 61.5t-18 82.5v143h106z" />
    <glyph glyph-name="sinEe" unicode="&#xd92;" horiz-adv-x="601" 
d="M452 518v301h118v-301h-118zM282 -4q-64 0 -112 27.5t-74 73.5t-26 100q0 14 3.5 32t13.5 34h-57v90h226v6q0 17 -7.5 27.5t-19.5 15.5t-25 5t-28.5 -6t-19.5 -23l-88 23q12 41 36.5 62t52.5 28t48 7q32 0 60 -11t47 -30q18 -19 26.5 -43.5t8.5 -62.5v-88h-92
q-9 0 -24.5 -5t-28 -18.5t-12.5 -40.5q0 -21 9.5 -38.5t30 -28.5t52.5 -11v-125zM338 -4v125q28 0 53.5 10t42 37.5t16.5 79.5h121q0 -127 -58 -189.5t-175 -62.5zM338 755q66 0 119 -21.5t83.5 -73t30.5 -143.5v-269h-121v258q0 73 -21.5 106t-81.5 33h-9v-27
q0 -22 6.5 -40t22.5 -28t43 -10v-95q-63 0 -102.5 23t-57.5 61.5t-18 82.5v143h106z" />
    <glyph glyph-name="sinAi" unicode="&#xd93;" horiz-adv-x="1058" 
d="M739 -4q-64 0 -112 27.5t-74 73.5t-26 100q0 14 3.5 32t13.5 34h-57v90h226v6q0 17 -7.5 27.5t-19.5 15.5t-25 5t-28.5 -6t-19.5 -23l-88 23q12 41 36.5 62t52.5 28t48 7q32 0 60 -11t47 -30q18 -19 26.5 -43.5t8.5 -62.5v-88h-92q-9 0 -24.5 -5t-28 -18.5t-12.5 -40.5
q0 -21 9.5 -38.5t30 -28.5t52.5 -11v-125zM795 -4v125q28 0 53.5 10t42 37.5t16.5 79.5h121q0 -127 -58 -189.5t-175 -62.5zM795 755q66 0 119 -21.5t83.5 -73t30.5 -143.5v-269h-121v258q0 73 -21.5 106t-81.5 33h-9v-27q0 -22 6.5 -40t22.5 -28t43 -10v-95
q-63 0 -102.5 23t-57.5 61.5t-18 82.5v143h106zM188 -5q-54 0 -86 23t-47.5 57t-20 67.5t-4.5 55.5v173q0 29 7.5 62.5t27 63t54.5 48.5t89 19h41v-113h-32q-22 0 -37.5 -10t-24 -28t-8.5 -42v-173q0 -25 5 -45.5t18 -32.5t39 -12v-113h-21zM257 -5v113q28 0 40.5 14.5
t12.5 39.5v46q0 16 -6.5 23t-17 8.5t-24.5 1.5h-29v113h87q30 0 54 -8t38.5 -29.5t14.5 -61.5v-98q0 -43 -16.5 -80t-48 -59.5t-76.5 -22.5h-29zM317 404q-1 8 -5.5 16.5t-12.5 15.5t-20.5 11t-29.5 4v113h21q49 0 81.5 -21.5t51 -52.5t21.5 -59z" />
    <glyph glyph-name="sinO" unicode="&#xd94;" horiz-adv-x="601" 
d="M191 -6q-46 0 -82.5 20t-57.5 56t-21 85v192q0 42 19.5 70t49.5 42.5t61 14.5q29 0 55.5 -12t42.5 -36t16 -61v-23q0 -10 6.5 -15.5t13.5 -5.5q8 0 14.5 5.5t6.5 15.5v127h82v-135q0 -35 -15 -58.5t-39 -35t-50 -11.5q-35 0 -64 22.5t-29 66.5v18q0 15 -8 22t-18 7
q-9 0 -17 -7.5t-8 -22.5v-172q0 -13 7 -25t19 -19.5t28 -7.5q17 0 28.5 7t18 19t6.5 26v37h89v-37q0 -13 6.5 -25t19 -19t27.5 -7q16 0 28 7t19 19t7 25v39h119v-47q0 -49 -21 -85t-57.5 -56t-83.5 -20q-70 0 -108 45q-22 -24 -50.5 -34.5t-59.5 -10.5zM153 534l-118 31
q0 43 19.5 77.5t52 60t73 39t81.5 13.5v-119q-28 0 -52.5 -9.5t-40 -31.5t-15.5 -61zM452 202v307q0 59 -16.5 85.5t-46.5 33.5t-71 7v120q87 0 143 -23t83 -74.5t27 -138.5v-317h-119z" />
    <glyph glyph-name="sinOo" unicode="&#xd95;" horiz-adv-x="601" 
d="M191 -6q-46 0 -82.5 20t-57.5 56t-21 85v192q0 42 19.5 70t49.5 42.5t61 14.5q29 0 55.5 -12t42.5 -36t16 -61v-23q0 -10 6.5 -15.5t13.5 -5.5q8 0 14.5 5.5t6.5 15.5v127h82v-135q0 -35 -14.5 -59t-37.5 -35t-48 -11q-37 0 -67 23.5t-30 65.5v18q0 15 -8 22t-18 7
q-9 0 -17 -7.5t-8 -22.5v-172q0 -13 7 -25t19 -19.5t28 -7.5q17 0 28.5 7t18 19t6.5 26v37h89v-37q0 -13 6.5 -25t19 -19t27.5 -7q16 0 28 7t19 19t7 25v39h119v-47q0 -49 -21 -85t-57.5 -56t-83.5 -20q-70 0 -108 45q-22 -24 -50.5 -34.5t-59.5 -10.5zM452 202v255
q0 36 -13 53t-36.5 23t-54.5 6v113q80 0 129.5 -20.5t71.5 -60t22 -97.5v-272h-119zM66 539v113h35q-15 13 -21.5 28.5t-6.5 31.5q0 27 16 51.5t43.5 40t58.5 15.5h90v-102h-53q-25 0 -33.5 -10.5t-8.5 -21.5q0 -15 11 -24t31 -9h120v-113h-282zM445 673q0 21 -9.5 30
t-27 11.5t-41.5 2.5h-29v102h55q56 0 89.5 -11.5t50.5 -31.5t23 -46.5t6 -56.5h-117z" />
    <glyph glyph-name="sinAu" unicode="&#xd96;" horiz-adv-x="1020" 
d="M808 -8q-44 0 -84.5 18.5t-66.5 57t-26 95.5v39h111v-39q0 -22 10.5 -36.5t26.5 -22t34 -7.5q17 0 32.5 7t25 22t9.5 37v268q0 14 -7 20.5t-16 6.5q-8 0 -15.5 -6.5t-7.5 -20.5v-49q0 -43 -29.5 -66t-66.5 -23q-26 0 -50.5 12t-40.5 37.5t-16 64.5v157h82v-127
q0 -12 7.5 -18t15.5 -6q9 0 16 6t7 18v26q0 36 16 59.5t41.5 35.5t53.5 12q47 0 83.5 -33t37.5 -95v-279q0 -56 -26.5 -94t-68.5 -57.5t-88 -19.5zM191 -6q-46 0 -82.5 20t-57.5 56t-21 85v192q0 42 19.5 70t49.5 42.5t61 14.5q29 0 55.5 -12t42.5 -36t16 -61v-23
q0 -10 6.5 -15.5t13.5 -5.5q8 0 14.5 5.5t6.5 15.5v127h82v-135q0 -35 -15 -58.5t-39 -35t-50 -11.5q-35 0 -64 22.5t-29 66.5v18q0 15 -8 22t-18 7q-9 0 -17 -7.5t-8 -22.5v-172q0 -13 7 -25t19 -19.5t28 -7.5q17 0 28.5 7t18 19t6.5 26v37h89v-37q0 -13 6.5 -25t19 -19
t27.5 -7q16 0 28 7t19 19t7 25v39h119v-47q0 -49 -21 -85t-57.5 -56t-83.5 -20q-70 0 -108 45q-22 -24 -50.5 -34.5t-59.5 -10.5zM153 534l-118 31q0 43 19.5 77.5t52 60t73 39t81.5 13.5v-119q-28 0 -52.5 -9.5t-40 -31.5t-15.5 -61zM452 202v307q0 59 -16.5 85.5
t-46.5 33.5t-71 7v120q87 0 143 -23t83 -74.5t27 -138.5v-317h-119z" />
    <glyph glyph-name="sinKa" unicode="&#xd9a;" horiz-adv-x="792" 
d="M197 567q49 0 86.5 -21t50.5 -50l-81 -86q-2 28 -21.5 39t-38.5 11q-24 0 -40.5 -14.5t-19.5 -36.5l-102 32q8 48 35.5 75.5t63 39t67.5 11.5zM522 571q63 0 117.5 -27t88.5 -82.5t34 -141.5v-117q0 -59 -19 -105t-61 -72.5t-112 -26.5v123q21 0 34.5 6t21.5 16.5
t11.5 25.5t3.5 33v105q0 44 -18.5 76t-49 49.5t-66.5 17.5q-24 0 -49 -9.5t-47 -28.5l-272 -224l-109 -22v81l275 235q44 44 101.5 66t115.5 22zM199 -7q-32 0 -63 15t-51 41t-20 59v19q0 13 -3.5 27.5t-18.5 14.5q-3 0 -6.5 -0.5t-6.5 -1.5l95 85q15 -7 24 -17t13.5 -20
t4.5 -20v-44q0 -18 12.5 -27.5t26.5 -9.5t25.5 9t11.5 28v49h89v-47q0 -20 12 -29.5t27 -9.5t28 10t13 29v56q0 22 -5.5 37.5t-19 27.5t-41.5 20l86 69q33 -11 53.5 -30t29.5 -46.5t9 -64.5v-90q0 -43 -20.5 -74.5t-52.5 -47.5t-67 -16q-27 0 -52.5 10.5t-44.5 31.5
q-15 -22 -38.5 -32.5t-49.5 -10.5z" />
    <glyph glyph-name="sinKha" unicode="&#xd9b;" horiz-adv-x="618" 
d="M435 -6q-43 0 -83 18.5t-65 51t-25 72.5v80h117v-46q0 -23 13.5 -34t30.5 -11q16 0 29.5 11t13.5 34v333q0 69 -24 100.5t-88 31.5h-27v120h27q70 0 122.5 -23.5t82 -78t29.5 -150.5v-315q0 -71 -22.5 -113.5t-57 -61.5t-73.5 -19zM262 -65v330q0 32 -18 48t-39 16
q-22 0 -40 -16t-18 -48v-68q0 -25 5.5 -42t20 -25.5t40.5 -8.5v-121q-73 0 -112.5 25t-55 67.5t-15.5 94.5v88q0 60 26 98.5t67.5 57.5t85.5 19q43 0 82 -17.5t63.5 -51t24.5 -84.5v-362h-117zM164 534l-119 31q0 43 19.5 77.5t52 60t73 39t81.5 13.5v-120q-28 0 -52.5 -9
t-39.5 -31t-15 -61z" />
    <glyph glyph-name="sinGa" unicode="&#xd9c;" 
d="M489 -8v123q30 0 46 13t22 32.5t6 40.5v145q0 23 -6 44.5t-21.5 36t-46.5 14.5v123q69 0 111.5 -27.5t63 -75t20.5 -106.5v-154q0 -59 -20.5 -106.5t-63 -75t-111.5 -27.5zM225 -8q-67 0 -110.5 27.5t-64 75t-20.5 106.5v154q0 59 20.5 106.5t64 75t110.5 27.5v-123
q-30 0 -46 -14.5t-21.5 -36t-5.5 -44.5v-145q0 -21 5.5 -40.5t21.5 -32.5t46 -13v-123zM281 -8v123q29 0 43.5 10t19.5 26t5 30q0 12 -3 27.5t-16 27t-43 11.5h-16v93h88q24 0 46.5 -12.5t37 -41.5t14.5 -80v-44q0 -88 -45.5 -129t-130.5 -41zM254 247v105q0 59 15.5 107
t55 76.5t108.5 28.5v-123q-28 0 -41 -15t-15.5 -35.5t-2.5 -38.5v-105h-120z" />
    <glyph glyph-name="sinGha" unicode="&#xd9d;" horiz-adv-x="685" 
d="M228 -9q-47 0 -83 20t-56 56.5t-20 86.5v44h120v-37q0 -20 12 -33.5t36 -13.5q28 0 38 14.5t10 32.5q0 15 8.5 29t32.5 14h74q23 0 31 -14t8 -29q0 -18 10.5 -32.5t37.5 -14.5q25 0 36.5 15t11.5 32v37h120v-44q0 -50 -20 -86.5t-55.5 -56.5t-83.5 -20q-54 0 -81 24.5
t-27 66.5q0 16 -7.5 24t-18.5 8q-12 0 -19 -8t-7 -24q0 -42 -26.5 -66.5t-81.5 -24.5zM69 249v16q0 13 2 21t6 12h-47v104h478q27 0 53.5 -5t47.5 -18t33.5 -37t12.5 -61v-32h-120v14q0 11 -6 19t-15.5 12t-22.5 4h-255q-15 0 -25.5 -4t-16 -12t-5.5 -19v-14h-120zM307 378
v22q0 24 -11 38t-26.5 20.5t-30.5 6.5q-24 0 -38.5 -11t-18.5 -25l-103 34q19 57 64 83.5t97 26.5q20 0 41.5 -4.5t42.5 -14.5t38 -25q18 15 38.5 25t42 14.5t42.5 4.5q52 0 97 -26.5t63 -83.5l-103 -34q-4 14 -18.5 25t-37.5 11q-15 0 -30.5 -6.5t-26.5 -20.5t-11 -38v-22
h-111z" />
    <glyph glyph-name="sinNga" unicode="&#xd9e;" horiz-adv-x="591" 
d="M199 -6q-47 0 -85.5 20t-61 56t-22.5 85v48q0 31 4 57.5t16.5 47t40.5 32t76 11.5h54v-89h-18q-19 0 -31 -4.5t-17 -13.5t-5 -25v-58q0 -8 4.5 -19t15.5 -19t30 -8q20 0 30 8t15 19t5 19v39h89v-39q0 -8 4.5 -19t15 -19t29.5 -8t30 8t15.5 19t4.5 19v47h123v-53
q0 -73 -44 -117t-112 -44q-28 0 -57 10.5t-50 34.5q-19 -25 -44 -35t-55 -10zM214 262v89h21q14 0 21.5 9.5t7.5 19.5q0 11 -7 19.5t-22 8.5h-61q-14 0 -21 -5t-10 -11t-3 -12h-87q0 31 13.5 57.5t40 43t66.5 16.5h69q38 0 64 -17t38.5 -44t12.5 -56q0 -30 -13 -56.5
t-38.5 -44t-63.5 -17.5h-28zM154 533l-118 31q0 42 20 77t54 60t75.5 38.5t82.5 13.5v-119q-28 0 -54 -9t-43 -31.5t-17 -60.5zM438 208v291q0 50 -9.5 79t-34 42t-69.5 13v120q73 0 126 -21t81.5 -72.5t28.5 -142.5v-309h-123z" />
    <glyph glyph-name="sinNnga" unicode="&#xd9f;" horiz-adv-x="898" 
d="M101 -25q-30 39 -45.5 75t-20.5 75t-5 84v78q0 62 8.5 113t32.5 87.5t71 56.5t123 20h144v-123h-182q-28 0 -44 -11.5t-23.5 -32t-9.5 -49t-2 -61.5v-78q0 -40 3.5 -70.5t17.5 -60t46 -68.5zM409 -8q-67 0 -110.5 27.5t-64 75t-20.5 106.5v154q0 59 20.5 106.5t64 75
t110.5 27.5v-123q-30 0 -46 -14.5t-21.5 -36t-5.5 -44.5v-145q0 -21 5.5 -40.5t21.5 -32.5t46 -13v-123zM465 -8v123q29 0 43.5 10t19.5 26t5 30q0 12 -3.5 27.5t-16 27t-42.5 11.5h-17v93h88q25 0 47.5 -12.5t37 -41.5t14.5 -80v-44q0 -88 -45.5 -129t-130.5 -41zM437 247
v105q0 59 16 107t55 76.5t109 28.5v-123q-29 0 -41.5 -15t-15 -35.5t-2.5 -38.5v-105h-121zM673 -8v123q30 0 46 13t21.5 32.5t5.5 40.5v145q0 23 -5.5 44.5t-21.5 36t-46 14.5v123q68 0 111 -27.5t63.5 -75t20.5 -106.5v-154q0 -59 -20.5 -106.5t-63.5 -75t-111 -27.5z" />
    <glyph glyph-name="sinCa" unicode="&#xda0;" horiz-adv-x="601" 
d="M338 -4v121q28 0 53.5 10t42 38.5t16.5 82.5v253q0 69 -24 101.5t-88 32.5v120q70 0 122 -22t81.5 -74t29.5 -140v-271q0 -127 -58 -189.5t-175 -62.5zM282 -4q-64 0 -112 27.5t-74 73t-26 97.5q0 16 3.5 34.5t13.5 34.5h-57v90h226v6q0 17 -7.5 27.5t-19.5 15.5t-25 5
t-28.5 -6t-19.5 -23l-88 23q12 41 36.5 62t52.5 28t48 7q32 0 60 -11t47 -30q18 -19 26.5 -43.5t8.5 -62.5v-88h-92q-20 0 -34.5 -10t-22.5 -25.5t-8 -32.5q0 -19 10 -37t30 -29.5t52 -11.5v-121zM185 534l-118 31q0 41 18.5 75t50 60t69.5 40.5t77 14.5v-119
q-24 0 -46.5 -11t-36.5 -33t-14 -58z" />
    <glyph glyph-name="sinCha" unicode="&#xda1;" horiz-adv-x="648" 
d="M287 -11q-133 0 -193 52t-60 159h121q0 -33 15 -54.5t43 -30.5t66 -9h70q39 0 66.5 9.5t42.5 31t15 53.5v41h-51q-49 -1 -86 21t-58 59.5t-21 81.5q0 47 22.5 84t60 59t82.5 22q44 0 80 -20t58 -55t24 -77l-107 -3q-2 20 -17.5 33.5t-35.5 13.5q-15 0 -28 -7.5t-20.5 -20
t-7.5 -28.5q0 -14 7.5 -27t20.5 -20.5t28 -7.5h74q46 0 71 -25t25 -61v-63q0 -103 -62 -157t-190 -54h-55zM34 249q0 61 21 94t58 46t85 13h59q0 23 -10.5 36.5t-26 20t-30.5 6.5q-24 0 -38.5 -11t-18.5 -25l-103 34q18 57 63 83.5t101 26.5q20 0 39.5 -4t38.5 -13t34 -24.5
t25 -37.5l44 -196h-168q-24 0 -35 -7.5t-14 -19t-3 -22.5h-121zM306 517l240 312l89 -66l-217 -288z" />
    <glyph glyph-name="sinJa" unicode="&#xda2;" horiz-adv-x="647" 
d="M287 -11q-133 0 -193.5 52t-60.5 159h121q0 -33 15.5 -54.5t43.5 -30.5t65 -9h70q40 0 67.5 9.5t42 31t14.5 53.5h121q0 -103 -61.5 -157t-189.5 -54h-55zM34 249q0 61 20.5 94t57.5 46t85 13h225q54 0 92 -12t58.5 -45t20.5 -96h-120q0 13 -2.5 24t-12.5 18t-33 7h-219
q-23 0 -34 -7.5t-14.5 -19t-3.5 -22.5h-120zM258 378v22q0 24 -11 38t-26.5 20.5t-30.5 6.5q-24 0 -38 -11t-19 -25l-103 34q19 57 64 83.5t97 26.5q20 0 41.5 -4.5t42.5 -14.5t38 -25q18 15 38.5 25t42 14.5t42.5 4.5q52 0 97 -26.5t63 -83.5l-103 -34q-4 14 -18.5 25
t-37.5 11q-15 0 -30.5 -6.5t-26.5 -20.5t-11 -38v-22h-111zM305 517l239 312l89 -66l-216 -288z" />
    <glyph glyph-name="sinJha" unicode="&#xda3;" horiz-adv-x="1131" 
d="M30 167v90l302 249q48 36 105.5 54t112.5 18q64 0 119 -22.5t90 -71.5t39 -128h-120q-3 40 -22.5 63t-48 32.5t-59.5 9.5q-37 0 -73 -12.5t-64 -35.5l-272 -224zM133 409l-102 32q8 48 35.5 75.5t63 39t67.5 11.5q49 0 86.5 -21t50.5 -50l-81 -86q-2 28 -21.5 39
t-38.5 11q-24 0 -40.5 -14.5t-19.5 -36.5zM739 -6q-46 0 -84.5 20t-61 56t-22.5 85v116q0 32 7.5 66.5t31 63t69.5 43.5l64 15l55 -103h-22q-21 0 -37 -5.5t-27 -17t-16 -27t-5 -37.5v-108q0 -8 4.5 -19t15.5 -19t30 -8t30 8t15 19t4 19v39h89v-39q0 -8 4.5 -19t15.5 -19
t30 -8t30 8t15.5 19t4.5 19v49h122v-55q0 -73 -44 -117t-111 -44q-28 0 -57 10.5t-50 34.5q-19 -25 -44 -35t-56 -10zM713 596l-118 42q18 38 50 64t73.5 39.5t84.5 13.5v-119q-20 0 -37 -4t-30.5 -12.5t-22.5 -23.5zM979 209v292q0 50 -11.5 79t-37.5 42t-71 13v120
q73 0 127.5 -21t84.5 -72.5t30 -142.5v-310h-122zM358 303l74 60q33 -11 53.5 -30t29.5 -46.5t9 -64.5v-90q0 -43 -20.5 -74.5t-52.5 -47.5t-67 -16q-27 0 -52.5 10.5t-44.5 31.5q-15 -22 -38.5 -32.5t-49.5 -10.5q-32 0 -63 15t-51 41t-20 59v19q0 13 -2.5 27.5t-19.5 14.5
q-3 0 -6.5 -0.5t-6.5 -1.5l95 86q15 -7 24 -17t13.5 -20.5t4.5 -20.5v-44q0 -18 12.5 -27.5t26.5 -9.5t25.5 9t11.5 28v49h89v-47q0 -20 12 -29.5t27 -9.5t28 10t13 29v56q0 20 -4.5 35t-16 25.5t-33.5 18.5v15z" />
    <glyph glyph-name="sinNya" unicode="&#xda4;" horiz-adv-x="1158" 
d="M868 -1q-60 0 -112 20.5t-83.5 64.5t-31.5 115q0 67 29 111t80 66t117 22h61q0 28 -14 44.5t-35.5 24t-45.5 10t-45 2.5v113q48 0 95 -8.5t85 -30.5t61 -60t23 -98v-114h-187q-21 0 -44 -6t-39.5 -23.5t-16.5 -51.5q0 -31 14.5 -49t38 -26t50.5 -8h37q31 0 55.5 10
t36.5 40l111 -30q-10 -34 -31 -60t-48.5 -43t-59 -26t-64.5 -9h-37zM108 -38q-30 39 -47 75t-24 75t-7 84v98q0 85 28.5 140t74.5 81.5t97 26.5q12 0 29 -2.5t45 -16.5v-114q-31 10 -46 13.5t-26 3.5q-21 0 -40.5 -12t-31.5 -40.5t-12 -79.5v-98q0 -40 5 -70.5t20.5 -59.5
t47.5 -68zM371 -7q-33 0 -64 15t-51 41t-20 59v19q0 13 -2.5 27.5t-19.5 14.5q-3 0 -6.5 -0.5t-6.5 -1.5l95 86q15 -7 24 -17t13.5 -20.5t4.5 -20.5v-44q0 -18 12.5 -27.5t26.5 -9.5t25.5 9t11.5 28v49h89v-47q0 -20 12.5 -29.5t26.5 -9.5q15 0 28 10t13 29v56
q0 22 -5.5 37.5t-19 27.5t-40.5 20l85 69q34 -11 54 -30t29 -46.5t9 -64.5v-90q0 -43 -20.5 -74.5t-52.5 -47.5t-66 -16q-28 0 -53.5 10.5t-43.5 31.5q-16 -22 -39.5 -32.5t-48.5 -10.5zM304 409l-102 32q8 48 36 75.5t63 39t67 11.5q49 0 86.5 -21t50.5 -50l-80 -86
q-2 28 -21.5 39t-39.5 11q-23 0 -40 -14.5t-20 -36.5zM977 -205q-56 0 -97.5 20.5t-63.5 56.5t-22 82h119q0 -14 8.5 -25t23.5 -17.5t33 -6.5q21 0 40 11t24 33l116 -30q-11 -35 -34 -63t-60 -44.5t-87 -16.5zM201 167v90l299 245q36 29 71 49t74.5 31t87.5 11v-114
q-47 0 -82.5 -19.5t-68.5 -46.5l-272 -224z" />
    <glyph glyph-name="sinJnya" unicode="&#xda5;" horiz-adv-x="1077" 
d="M787 -6q-67 0 -114 26.5t-71.5 70.5t-24.5 95t23 93.5t69 68t112 25.5h67q0 29 -17.5 44t-43 19.5t-48 4.5h-32.5v125q27 0 61.5 -2.5t70 -11.5t65.5 -29.5t48.5 -57.5t18.5 -95v-114h-187q-45 0 -67 -20.5t-22 -50.5q0 -29 23 -51.5t69 -22.5h38q30 0 54.5 10t37.5 40
l111 -29q-11 -35 -32 -60.5t-48.5 -43t-59 -26t-63.5 -8.5h-38zM108 -35q-30 39 -47 75t-24 75t-7 84v88q0 62 8.5 113t32.5 87.5t71 56.5t123 20h144v-123h-182q-28 0 -44 -11.5t-23.5 -32t-9.5 -49t-2 -61.5v-88q0 -40 5 -70.5t20.5 -59.5t47.5 -68zM409 -8
q-67 0 -110.5 27.5t-64 75t-20.5 106.5v154q0 59 20.5 106.5t64 75t110.5 27.5v-123q-30 0 -46 -14.5t-21.5 -36t-5.5 -44.5v-145q0 -21 5.5 -40.5t21.5 -32.5t46 -13v-123zM465 -8v123q29 0 43.5 10t19.5 26t5 30q0 12 -3.5 27.5t-16 27t-42.5 11.5h-17v93h88
q25 0 47.5 -17t37 -50t14.5 -84v-27q0 -88 -45.5 -129t-130.5 -41zM896 -210q-56 0 -97 20t-63 56t-22 83h118q0 -14 8.5 -25t23.5 -18t33 -7q21 0 40 11t25 33l115 -30q-11 -34 -34 -62t-60 -44.5t-87 -16.5zM437 247v105q0 63 19 111t61 75.5t112 27.5h23v-124h-23
q-29 0 -44.5 -13.5t-21 -34t-5.5 -42.5v-105h-121z" />
    <glyph glyph-name="sinNyja" unicode="&#xda6;" horiz-adv-x="816" 
d="M104 -35q-30 39 -46 74.5t-22 73t-6 82.5v140q0 16 3.5 43t15 58.5t35.5 60t66 47t106 18.5q13 0 29 -2.5t15 -14.5v-115q-23 9 -37.5 12t-27.5 3q-23 0 -44 -11.5t-34 -39.5t-13 -79v-116q0 -40 5 -70.5t20.5 -59.5t47.5 -68zM456 -11q-133 0 -193 52t-60 159h121
q0 -33 15 -54.5t43 -30.5t65 -9h71q39 0 66.5 9.5t42.5 31t15 53.5h121q0 -103 -62 -157t-190 -54h-55zM203 249q0 61 21 94t58 46t85 13h225q54 0 92 -12t58.5 -45t20.5 -96h-121q0 13 -2.5 24t-12.5 18t-33 7h-218q-24 0 -35 -7.5t-14 -19t-3 -22.5h-121zM427 378v22
q0 24 -10.5 38t-26.5 20.5t-31 6.5q-23 0 -37.5 -11t-19.5 -25l-103 34q19 57 64 83.5t97 26.5q21 0 42.5 -4.5t42 -14.5t38.5 -25q17 15 37.5 25t42.5 14.5t42 4.5q52 0 97 -26.5t64 -83.5l-103 -34q-5 14 -19.5 25t-37.5 11q-15 0 -30.5 -6.5t-26.5 -20.5t-11 -38v-22
h-111zM474 517l240 312l89 -66l-217 -288z" />
    <glyph glyph-name="sinTta" unicode="&#xda7;" horiz-adv-x="557" 
d="M297 -4v121q31 0 55.5 10t38.5 38t14 82v262q0 53 -14 80t-38.5 36.5t-55.5 9.5v120q119 0 174.5 -58.5t55.5 -177.5v-281q0 -41 -10 -84t-34.5 -78.5t-69.5 -57.5t-116 -22zM241 -4q-55 0 -94 20t-65 52t-38.5 68.5t-12.5 69.5v58q0 31 7 67t27.5 68.5t62.5 53t113 20.5
v-119q-27 0 -47 -9t-31.5 -29t-11.5 -52v-46q0 -24 9.5 -47.5t29.5 -38.5t51 -15v-121zM148 534l-118 31q0 41 18 75t49 60t68 40.5t76 14.5v-119q-24 0 -45 -11t-34.5 -33t-13.5 -58z" />
    <glyph glyph-name="sinTtha" unicode="&#xda8;" horiz-adv-x="593" 
d="M201 -6q-47 0 -85.5 20t-61 56t-22.5 85v110q0 27 6.5 60t26.5 63.5t59 50.5t105 20h18v-119h-18q-18 0 -32 -6t-24 -16.5t-15.5 -25t-5.5 -31.5v-94q0 -11 4.5 -23t15.5 -20.5t31 -8.5q19 0 29.5 8t15 19t4.5 19v39h89v-39q0 -8 4.5 -19t15 -19t29.5 -8q21 0 32 8
t15.5 19t4.5 19v41h121v-47q0 -73 -44 -117t-112 -44q-27 0 -56 10.5t-50 34.5q-19 -25 -44 -35t-56 -10zM330 755q66 0 119 -21.5t83.5 -73t30.5 -143.5v-317h-121v306q0 73 -21.5 106t-81.5 33h-9v-27q0 -22 6.5 -40t22.5 -28t43 -10v-95q-63 0 -102.5 23t-57.5 61.5
t-18 82.5v143h106z" />
    <glyph glyph-name="sinDda" unicode="&#xda9;" horiz-adv-x="630" 
d="M239 -6q-46 0 -84 20t-60.5 56t-22.5 85v67q0 9 2 22t10 18h-54v90h257q0 30 -16 42t-36 12q-10 0 -26.5 -5.5t-21.5 -22.5l-88 23q12 40 36.5 61t52.5 28.5t49 7.5q31 0 59.5 -11.5t47.5 -30.5q17 -18 25.5 -43t8.5 -63v-88h-146q-15 0 -24.5 -5.5t-13.5 -14.5t-4 -20
v-61q0 -8 4.5 -19t15.5 -19t30 -8t29.5 8t15.5 19t5 19v39h88v-39q0 -8 5 -19t15.5 -19t29.5 -8t30 8t15.5 19t4.5 19v40h122v-46q0 -73 -43.5 -117t-111.5 -44q-28 0 -57 10.5t-50 34.5q-19 -25 -44 -35t-55 -10zM195 534l-118 31q0 43 20 77.5t54 60t75.5 39t82.5 13.5
v-119q-28 0 -54 -9.5t-43 -31.5t-17 -61zM478 201v300q0 49 -9.5 78t-34 42.5t-69.5 13.5v120q73 0 126 -21t81 -72.5t28 -142.5v-318h-122z" />
    <glyph glyph-name="sinDdha" unicode="&#xdaa;" horiz-adv-x="630" 
d="M239 -6q-46 0 -84 20t-60.5 56t-22.5 85v43q0 27 6 42.5t14 21.5h-62v90h257q0 30 -16 42t-36 12q-10 0 -26.5 -5.5t-21.5 -22.5l-88 23q12 40 36.5 61t52.5 28.5t49 7.5q31 0 59.5 -11.5t47.5 -30.5q17 -18 25.5 -43t8.5 -63v-85h-144q-16 0 -26 -6t-14 -16t-4 -21v-61
q0 -8 4.5 -19t15.5 -19t30 -8t29.5 8t15.5 19t5 19v39h88v-39q0 -8 5 -19t15.5 -19t29.5 -8q20 0 31 8t15.5 19t4.5 19v40h121v-46q0 -73 -43.5 -117t-111.5 -44q-28 0 -57 10.5t-50 34.5q-19 -25 -44 -35t-55 -10zM367 755q67 0 119.5 -21.5t83 -73t30.5 -143.5v-261h-121
v250q0 73 -21 106t-82 33h-9v-27q0 -22 6.5 -40t23 -28t42.5 -10v-95q-62 0 -100.5 23t-55.5 61.5t-17 82.5v143h101z" />
    <glyph glyph-name="sinNna" unicode="&#xdab;" horiz-adv-x="1007" 
d="M118 -7l-116 29q12 29 33.5 57.5t53.5 47t74 18.5q28 0 53.5 -6l51 -12t49.5 -6q20 0 38 8t28.5 32t10.5 69v121q0 22 -4 46.5t-15 46t-33.5 34.5t-58.5 13q-31 0 -51.5 -9.5t-32 -24t-16 -30t-4.5 -27.5t4 -26.5t13 -27.5t25 -21.5t40 -8.5h54v-116h-75q-48 0 -89 24
t-66 68.5t-25 105.5q0 69 31.5 115t84.5 69.5t117 23.5q65 0 105.5 -19.5t63 -50.5t32.5 -66t12 -67t2 -52v-121q0 -55 -12 -98t-34 -72t-52.5 -44.5t-66.5 -15.5q-29 0 -57 8t-53 15t-49 7q-27 0 -43.5 -11.5t-22.5 -25.5zM757 -6q-65 0 -112 21.5t-72.5 60.5t-25.5 87v37
h121v-18q0 -26 14 -42t36 -23.5t45 -7.5q21 0 42.5 6t36.5 22t15 43v20h120v-23q0 -61 -30 -102t-80 -61t-110 -20zM648 279v87q0 42 -15 58t-36 16q-15 0 -23.5 -5.5t-12.5 -10.5l-36 108q6 7 28.5 19t58.5 12q35 0 59.5 -12.5t39.5 -31.5q16 19 43 31.5t68 12.5
q44 0 79 -16.5t55.5 -50.5t20.5 -86v-161h-120v134q0 20 -9 38t-36 18q-25 0 -36 -16t-11 -40v-104h-117zM392 484l-112 47l230 298l93 -66z" />
    <glyph glyph-name="sinNndda" unicode="&#xdac;" horiz-adv-x="777" 
d="M386 -6q-46 0 -84 20t-60.5 56t-22.5 85v51q0 8 2 21.5t10 18.5h-38v90h229q0 29 -18.5 44t-49.5 15q-13 0 -26 -5.5t-26 -23.5l-88 35q12 38 37.5 58.5t56 29.5t58.5 9q54 0 89 -23t52.5 -60.5t17.5 -80.5v-88h-146q-15 0 -24.5 -5.5t-13.5 -14.5t-4 -20v-45
q0 -8 4.5 -19t15.5 -19t30 -8t29.5 8t15 19t4.5 19v39h89v-39q0 -8 4.5 -19t15.5 -19t30 -8t30 8t15.5 19t4.5 19v56h122v-62q0 -73 -44 -117t-111 -44q-28 0 -57 10.5t-50 34.5q-19 -25 -44 -35t-55 -10zM99 -24q-29 37 -44 72t-20 73t-5 80v78q0 66 27 114.5t72 74.5
t98 26q39 0 76 -14l-4 -113q-23 10 -38 13.5t-28 3.5q-25 0 -46 -12.5t-33.5 -40.5t-12.5 -76v-55q0 -37 5.5 -66t20.5 -57t45 -66zM342 534l-118 31q0 43 20 77.5t54 60t75.5 39t82.5 13.5v-119q-28 0 -54 -9.5t-43 -31.5t-17 -61zM625 209v292q0 49 -9.5 78t-34 42.5
t-69.5 13.5v120q73 0 125.5 -21t81 -72.5t28.5 -142.5v-310h-122z" />
    <glyph glyph-name="sinTa" unicode="&#xdad;" horiz-adv-x="769" 
d="M546 -1v123q20 0 33.5 6t22 16.5t12 25.5t3.5 33v105q0 44 -17 74.5t-45 45.5t-60 15q-21 0 -43 -7t-41 -23l-272 -218l-109 -33v95l275 226q30 24 59.5 43t62.5 29.5t74 10.5q62 0 116 -27t87.5 -82t33.5 -137v-117q0 -59 -19 -105t-61 -72.5t-112 -26.5zM305 -7
q-40 0 -75 12t-64.5 36t-53.5 59q-10 16 -18.5 30.5t-19.5 24t-28 9.5q-4 0 -7.5 -0.5t-8.5 -1.5l39 84q10 3 18 4t14 1q23 0 38.5 -10t27 -26.5t23 -34t25 -34t33 -26.5t48.5 -10q27 0 48.5 10.5t34 30t12.5 44.5q0 18 -5 34.5t-19.5 30t-42.5 21.5l86 69q41 -15 61 -42
t27 -58t7 -59q0 -59 -26.5 -104t-71.5 -69.5t-102 -24.5zM144 409l-102 32q9 48 36.5 75.5t63 39t65.5 11.5q34 0 64 -11.5t50.5 -27t24.5 -27.5l-81 -91q-2 28 -21.5 39t-38.5 11q-24 0 -40.5 -14.5t-20.5 -36.5z" />
    <glyph glyph-name="sinTha" unicode="&#xdae;" horiz-adv-x="558" 
d="M244 -4q-54 0 -94 18t-67 47t-40 63.5t-13 68.5v65q0 28 6.5 61t26 62.5t57.5 48.5t100 19h19v-119h-14q-33 0 -54.5 -19.5t-20.5 -68.5v-31q0 -28 11.5 -48.5t32.5 -31t50 -10.5v-125zM300 -4v125q27 0 51.5 10t39.5 37.5t15 79.5h122q0 -127 -56 -189.5t-172 -62.5z
M294 755q67 0 119.5 -21.5t83.5 -73t31 -143.5v-269h-122v258q0 73 -21 106t-82 33h-9v-27q0 -22 6.5 -40t23 -28t43.5 -10v-95q-63 0 -102.5 23t-57.5 61.5t-18 82.5v143h105z" />
    <glyph glyph-name="sinDa" unicode="&#xdaf;" horiz-adv-x="548" 
d="M257 0q-60 0 -111.5 20.5t-83.5 64.5t-32 115q0 67 29 111.5t80 67.5t117 23h72q0 24 -12 39.5t-31 23t-41 7.5q-27 0 -51 -12t-30 -36l-103 34q11 40 38 67t64.5 40t76.5 13q50 0 96 -20t75.5 -60t29.5 -101v-115h-186q-21 0 -44.5 -6t-39.5 -23.5t-16 -51.5
q0 -31 14.5 -49t38 -26t50.5 -8h37q31 0 55.5 10t36.5 39l111 -29q-10 -34 -31 -60t-48.5 -43.5t-59 -26t-64.5 -8.5h-37zM367 -204q-56 0 -97 20.5t-63 56t-22 82.5h118q0 -14 9 -25t24 -17.5t32 -6.5q21 0 40.5 11t24.5 32l115 -29q-10 -35 -34 -63t-60 -44.5t-87 -16.5z
" />
    <glyph glyph-name="sinDha" unicode="&#xdb0;" horiz-adv-x="591" 
d="M199 -6q-47 0 -85.5 20t-61 56t-22.5 85v116q0 30 6.5 65.5t27 67t62 51.5t109.5 20h26v-119h-26q-21 0 -36.5 -5.5t-27 -17t-16.5 -27t-5 -37.5v-108q0 -8 4.5 -19t15.5 -19t30 -8q20 0 30 8t15 19t5 19v39h89v-39q0 -8 4.5 -19t15 -19t29.5 -8t30 8t15.5 19t4.5 19v41
h123v-47q0 -73 -44 -117t-112 -44q-28 0 -57 10.5t-50 34.5q-19 -25 -44 -35t-55 -10zM155 534l-118 31q0 43 20 77.5t54 60t75.5 39t82.5 13.5v-119q-28 0 -54 -9.5t-43 -31.5t-17 -61zM438 202v299q0 49 -9.5 78t-33.5 42.5t-70 13.5v120q73 0 126 -21t81.5 -72.5
t28.5 -142.5v-317h-123z" />
    <glyph glyph-name="sinNa" unicode="&#xdb1;" horiz-adv-x="752" 
d="M530 -7v124q21 0 34.5 6t21.5 16.5t11.5 25t3.5 32.5v124q0 41 -19 70t-48.5 45t-63.5 16q-30 0 -58 -14t-48 -41l-78 -103q-27 -35 -51.5 -62t-47.5 -42.5t-50 -15.5h-26v121h23q9 0 21.5 10.5t27 28t28.5 37.5l74 109q32 46 82.5 69t107.5 23q46 0 90 -14.5t79.5 -44
t56.5 -74t21 -102.5v-140q0 -59 -19 -105t-61 -72.5t-112 -26.5zM277 -7q-51 0 -96 16.5t-79 50t-53 83t-19 113.5v88h103v-74q0 -20 5 -47t19 -53t41 -43t71 -17q36 0 60.5 13t36.5 34.5t12 45.5q0 14 -4 27t-13.5 24.5t-25.5 19.5l66 89q34 -15 56 -41t32.5 -57.5
t10.5 -64.5q0 -54 -26 -101.5t-75.5 -76.5t-121.5 -29zM134 409l-102 32q9 48 36.5 75.5t62.5 39t64 11.5q35 0 65 -12t49 -28t20 -27l-74 -90q-2 28 -21.5 39t-38.5 11q-24 0 -40.5 -14.5t-20.5 -36.5z" />
    <glyph glyph-name="sinNda" unicode="&#xdb3;" horiz-adv-x="729" 
d="M439 0q-60 0 -111.5 20.5t-83.5 64.5t-32 115q0 67 29 111t80 66t117 22h72q0 28 -15.5 43.5t-36 21.5t-35.5 6q-11 0 -28 -3.5t-32 -13t-21 -29.5l-107 42q16 41 46 65t66 34.5t74 10.5q55 0 101 -20t73.5 -61.5t27.5 -108.5v-104h-187q-21 0 -44.5 -6t-39.5 -23.5
t-16 -51.5q0 -31 14.5 -49t38 -26t50.5 -8h37q31 0 55.5 10t37.5 39l110 -29q-10 -34 -31 -60t-48.5 -43.5t-59 -26t-64.5 -8.5h-37zM548 -204q-57 0 -97.5 20.5t-63 56t-22.5 82.5h119q0 -14 8.5 -25t23.5 -17.5t33 -6.5q21 0 40 11t25 32l115 -29q-11 -35 -34.5 -63
t-60 -44.5t-86.5 -16.5zM101 -25q-30 39 -45.5 75t-20.5 75t-5 84v86q0 86 31 143.5t82.5 86.5t109.5 29q43 0 87 -16v-113q-15 6 -32 9.5t-36 3.5q-32 0 -60.5 -14.5t-46 -46t-17.5 -82.5v-86q0 -40 3.5 -70.5t17.5 -60t46 -68.5z" />
    <glyph glyph-name="sinPa" unicode="&#xdb4;" horiz-adv-x="626" 
d="M287 -11q-133 0 -193.5 52t-60.5 159h121q0 -33 15.5 -54.5t43.5 -30.5t65 -9h70q40 0 67.5 9.5t42 31t14.5 53.5h121q0 -103 -61.5 -157t-189.5 -54h-55zM34 249q0 61 20.5 94t57.5 46t85 13h225q54 0 92 -12t58.5 -45t20.5 -96h-120q0 13 -2.5 24t-12.5 18t-33 7h-219
q-23 0 -34 -7.5t-14.5 -19t-3.5 -22.5h-120zM258 378v22q0 24 -11 38t-26.5 20.5t-30.5 6.5q-24 0 -38 -11t-19 -25l-103 34q19 57 64 83.5t97 26.5q20 0 41.5 -4.5t42.5 -14.5t38 -25q18 15 38.5 25t42 14.5t42.5 4.5q52 0 97 -26.5t63 -83.5l-103 -34q-4 14 -18.5 25
t-37.5 11q-15 0 -30.5 -6.5t-26.5 -20.5t-11 -38v-22h-111z" />
    <glyph glyph-name="sinPha" unicode="&#xdb5;" horiz-adv-x="564" 
d="M171 498q40 0 72 -16t51 -45.5t19 -70.5v-103h-77q-16 0 -36 -3.5t-34 -17.5t-14 -45q0 -20 10 -37.5t31 -28t52 -10.5v-125q-62 0 -110.5 27t-75.5 71.5t-27 95.5q0 25 3 48.5t14.5 45.5t36.5 42q27 21 59 30t77 9q0 20 -15 30.5t-36 10.5q-16 0 -30.5 -6t-18.5 -22
l-88 23q12 37 34 58t49 30t54 9zM301 -4v125q28 0 53.5 10t42 37.5t16.5 79.5h121q0 -127 -58 -189.5t-175 -62.5zM301 755q66 0 119 -21.5t83.5 -73t30.5 -143.5v-269h-121v258q0 73 -21 106t-82 33h-9v-27q0 -22 6.5 -40t22.5 -28t43 -10v-95q-63 0 -102.5 23t-57.5 61.5
t-18 82.5v143h106z" />
    <glyph glyph-name="sinBa" unicode="&#xdb6;" horiz-adv-x="605" 
d="M405 -7q-40 0 -75 17t-56.5 49.5t-21.5 79.5v138q0 28 -16 43.5t-38 15.5t-37.5 -15t-15.5 -44v-87q0 -39 16.5 -54t49.5 -15v-121q-91 0 -136 43.5t-45 141.5v105q0 53 25 90.5t65 57t84 19.5q43 0 81 -19t61 -58.5t23 -98.5v-113q0 -23 13 -35.5t30 -12.5
q18 0 30.5 12.5t12.5 35.5v56h122v-56q0 -57 -25 -96.5t-64 -59t-83 -19.5zM159 534l-118 31q0 56 32 98.5t83.5 67t108.5 24.5v-119q-29 0 -53 -9.5t-38.5 -32t-14.5 -60.5zM455 224v259q0 44 -10.5 78.5t-34.5 54t-68 19.5h-21v120h21q69 0 122 -26.5t83 -83t30 -146.5
v-275h-122z" />
    <glyph glyph-name="sinBha" unicode="&#xdb7;" horiz-adv-x="752" 
d="M263 -8q-67 0 -110 27.5t-64 74t-21 104.5v55q0 37 16 62h-54v104h221q0 27 -14 41t-39 14q-15 0 -29 -7.5t-18 -22.5l-88 23q16 50 55 73.5t83 23.5q35 0 67.5 -15t53 -44t20.5 -71l-2 -119h-77q-30 0 -46 -9.5t-21.5 -25.5t-5.5 -36v-46q0 -19 6 -38t21.5 -32t45.5 -13
v-123zM318 -8v123q30 0 44.5 10t19 26t4.5 30q0 12 -3 27t-14.5 26.5t-39.5 12.5h-38v105q0 59 16 107t55 76.5t109 28.5v-123q-27 0 -39.5 -14t-16 -34t-3.5 -40v-15q24 -2 42.5 -17t29 -43.5t10.5 -71.5v-44q0 -88 -45 -129t-131 -41zM527 -8v123q30 0 46 13t21.5 32.5
t5.5 40.5v150q0 22 -5.5 43t-21.5 34t-46 13v123q68 0 111 -27.5t63.5 -75.5t20.5 -110v-150q0 -59 -20.5 -106.5t-63.5 -75t-111 -27.5z" />
    <glyph glyph-name="sinMa" unicode="&#xdb8;" horiz-adv-x="594" 
d="M306 469h82v-135q0 -35 -15 -59t-38 -35t-48 -11q-36 0 -66.5 23.5t-30.5 65.5v20q0 13 -7.5 20t-16.5 7q-8 0 -16.5 -8.5t-8.5 -26.5v-78q0 -35 7 -59t18 -39t26.5 -23t32 -11t33.5 -3v-121q-72 0 -117.5 24.5t-69 63t-32.5 83t-9 85.5v54q0 57 20 94t51 55t62 18
q40 0 71 -27t31 -79v-25q0 -10 6.5 -15.5t13.5 -5.5q8 0 14.5 5.5t6.5 15.5v127zM33 565q0 42 19.5 76.5t52 60t72.5 39t81 13.5v-119q-28 0 -52 -9.5t-39 -32t-15 -59.5zM314 754q75 0 124 -20.5t76.5 -57t38.5 -81.5t11 -94v-251q0 -49 -11 -94.5t-38.5 -82t-76.5 -57
t-124 -20.5v121q38 0 67 10t45.5 38.5t16.5 84.5v251q0 57 -16.5 85t-45.5 38t-67 10v120z" />
    <glyph glyph-name="sinMba" unicode="&#xdb9;" horiz-adv-x="602" 
d="M189 -11q-47 0 -83 21.5t-56 59.5t-20 89v185q0 44 19.5 72.5t49.5 43t61 14.5q29 0 55 -12t42.5 -36t16.5 -61v-23q0 -10 6.5 -15.5t12.5 -5.5q8 0 14.5 5.5t6.5 15.5v127h83v-135q0 -35 -15 -59t-38 -35t-48 -11q-37 0 -67 23.5t-30 65.5v18q0 15 -8 22t-18 7
q-9 0 -17 -7.5t-8 -22.5v-169q0 -14 6 -25.5t16.5 -18.5t22.5 -7q13 0 21.5 8t8.5 25q0 7 0.5 16.5t4 18.5t11 15t21.5 6h79q14 0 21.5 -6t11 -15t4 -18.5t0.5 -16.5q0 -17 9 -25t21 -8q13 0 23.5 7t16 18.5t5.5 26.5v336q0 57 -18 85.5t-46.5 37.5t-59.5 9v120
q117 0 181 -57t64 -186v-353q0 -51 -20 -89t-56 -59.5t-85 -21.5q-26 0 -42.5 8.5t-25.5 22.5q-9 12 -12.5 28t-3.5 32q0 19 -8.5 26t-18.5 7q-11 0 -19 -7t-8 -26q0 -16 -3.5 -32t-12.5 -28q-8 -14 -25 -22.5t-43 -8.5zM162 534l-118 31q0 43 19.5 77.5t52 60t73 39
t81.5 13.5v-119q-28 0 -52.5 -9.5t-40 -31.5t-15.5 -61z" />
    <glyph glyph-name="sinYa" unicode="&#xdba;" horiz-adv-x="650" 
d="M205 -6q-50 0 -90 20t-62.5 56.5t-22.5 85.5v44h120v-35q0 -25 18 -38t41 -13t40.5 13t17.5 40v33h112v-33q0 -27 18 -40t40 -13q23 0 41 13t18 38v35h120v-44q0 -52 -22 -88.5t-61 -55t-90 -18.5q-37 0 -68.5 11.5t-53.5 36.5q-22 -25 -51.5 -36.5t-64.5 -11.5zM30 249
v91q0 77 30.5 126t80 73t107.5 24h17v-113h-20q-48 0 -71.5 -34t-23.5 -94v-73h-120zM495 249v13q0 12 -3.5 20t-14 12t-30.5 4h-154v77q0 46 11 81.5t31.5 60t52 37t71.5 12.5q48 0 91 -21.5t69 -82.5l-96 -33q-9 17 -24.5 24.5t-34.5 7.5q-28 0 -43 -14.5t-15 -44.5h73
q54 0 84 -18t41.5 -47t11.5 -62v-26h-121z" />
    <glyph glyph-name="sinRa" unicode="&#xdbb;" horiz-adv-x="539" 
d="M242 -5q-38 0 -75.5 12.5t-68.5 41t-49.5 75.5t-18.5 116v159q0 36 5 65t19.5 58.5t42.5 64.5l188 243l97 -69l-173 -228q-23 -30 -35.5 -50t-17.5 -40t-5 -53v-155q0 -61 22 -88.5t69 -27.5v-124zM348 564q57 0 92.5 -23.5t52 -65.5t16.5 -100v-157q0 -88 -29 -136.5
t-77 -67t-105 -19.5v124q53 0 71.5 28t18.5 88v98q0 43 -6 68t-24.5 36.5t-55.5 11.5h-91v4l79 111h58z" />
    <glyph glyph-name="sinLa" unicode="&#xdbd;" horiz-adv-x="622" 
d="M281 -171q-41 0 -85 11t-81.5 38t-60.5 74.5t-23 121.5v256q0 75 22.5 123t59.5 74t81 36.5t87 10.5v-121q-37 0 -66.5 -12.5t-46.5 -39t-17 -71.5v-256q0 -44 17 -71.5t46.5 -40t66.5 -12.5v-121zM341 -172v121q48 0 80.5 19t45.5 62l117 -33q-12 -51 -37.5 -84
t-59 -51.5t-71.5 -26t-75 -7.5zM205 259v100h208v-100h-208zM414 62q-44 0 -73.5 12t-47 30.5t-26 40.5t-11.5 41.5t-3 32.5v100h112v-84q0 -20 12 -36t40 -16q22 0 34.5 10.5t16.5 24.5t4 26v88q0 46 -17 72t-46.5 37.5t-67.5 11.5v121q43 0 87 -10t81 -35.5t60 -73
t23 -123.5v-88q0 -58 -21.5 -99t-61 -62t-95.5 -21z" />
    <glyph glyph-name="sinVa" unicode="&#xdc0;" horiz-adv-x="565" 
d="M302 -4v121q28 0 53.5 10t42 38.5t16.5 82.5v253q0 69 -24 101.5t-88 32.5v120q69 0 121.5 -22t82 -74t29.5 -140v-271q0 -127 -58.5 -189.5t-174.5 -62.5zM246 -4q-63 0 -111 27t-75 71.5t-27 95.5q0 25 3 48.5t14.5 45.5t36.5 42q26 21 58.5 30t77.5 9q0 20 -15 30.5
t-37 10.5q-15 0 -29.5 -6t-18.5 -22l-88 23q12 37 33.5 58t49 30t54.5 9q39 0 71.5 -16t51.5 -45.5t19 -70.5v-103h-77q-18 0 -37.5 -3.5t-33.5 -17.5t-14 -46q0 -22 11 -40t32 -28.5t51 -10.5v-121zM148 534l-118 31q0 41 18.5 75t50 60t69.5 40.5t78 14.5v-119
q-25 0 -47 -11t-36.5 -33t-14.5 -58z" />
    <glyph glyph-name="sinSha" unicode="&#xdc1;" 
d="M30 355q0 59 20.5 106.5t64 75t110.5 27.5v-123q-30 0 -46 -14.5t-21.5 -36t-5.5 -44.5v-145q0 -21 5.5 -40.5t21.5 -32.5t46 -13v-123q-67 0 -110.5 27.5t-64 75t-20.5 106.5v154zM254 352q0 59 15.5 107t55 76.5t108.5 28.5v-123q-27 0 -41.5 -11t-19.5 -29.5t-5 -40.5
v-33h6q29 0 47.5 -17.5t27.5 -47t9 -64.5v-28q0 -92 -45.5 -135t-130.5 -43v123q29 0 43.5 10t19.5 24.5t5 28.5q0 23 -6 38.5t-18.5 23t-33.5 7.5h-37v105zM563 201v145q0 23 -6 44.5t-21.5 36t-46.5 14.5v123q69 0 111.5 -27.5t63 -75t20.5 -106.5v-154
q0 -59 -20.5 -106.5t-63 -75t-111.5 -27.5v123q30 0 46 13t22 32.5t6 40.5zM378 160q0 34 6.5 60.5t19 46.5t31 33t42.5 19.5t54 6.5h20v-91h-22q-23 0 -37 -5.5t-21.5 -15.5t-10.5 -24t-3 -30h-79z" />
    <glyph glyph-name="sinSsa" unicode="&#xdc2;" horiz-adv-x="652" 
d="M284 -11q-133 0 -193.5 52t-60.5 159h121q0 -33 15 -54.5t43 -30.5t66 -9h102q40 0 67.5 9.5t42 31t14.5 53.5h121q0 -103 -61.5 -157t-189.5 -54h-87zM31 249q0 63 20.5 97t57.5 47t85 13h257q54 0 92 -12.5t58.5 -46t20.5 -98.5h-120q0 13 -2.5 25t-12.5 20t-33 8h-251
q-23 0 -34.5 -8.5t-14.5 -20.5t-3 -24h-120zM251 168q0 53 23 93.5t58 67t70 38.5h147q-30 -11 -62.5 -30t-59.5 -45t-43.5 -56.5t-16.5 -65.5zM272 378v22q0 24 -10.5 38t-26.5 20.5t-31 6.5q-23 0 -37.5 -11t-18.5 -25l-103 34q18 57 63 83.5t97 26.5q21 0 42.5 -4.5
t42 -14.5t38.5 -25q17 15 38 25t42.5 14.5t41.5 4.5q52 0 97.5 -26.5t63.5 -83.5l-103 -34q-4 14 -18.5 25t-38.5 11q-15 0 -30.5 -6.5t-26.5 -20.5t-11 -38v-22h-111z" />
    <glyph glyph-name="sinSa" unicode="&#xdc3;" horiz-adv-x="685" 
d="M244 -6q-51 0 -90.5 20t-62 56.5t-22.5 85.5v44h120v-35q0 -25 18 -38t41 -13t40.5 13t17.5 40v33h112v-33q0 -27 17.5 -40t40.5 -13t41 13t18 38v35h120v-44q0 -52 -22 -88.5t-61 -55t-90 -18.5q-37 0 -68.5 11.5t-53.5 36.5q-22 -25 -51.5 -36.5t-64.5 -11.5zM69 249
v17q0 13 3 21.5t9 10.5h-51v104h478q27 0 53.5 -5t47.5 -18t33.5 -37t12.5 -61v-32h-120v10q0 15 -6 23.5t-16 12t-22 3.5h-255q-13 0 -23.5 -3.5t-17 -12.5t-6.5 -23v-10h-120zM307 378v22q0 24 -11 38t-26.5 20.5t-30.5 6.5q-24 0 -38.5 -11t-18.5 -25l-103 34
q19 57 64 83.5t97 26.5q20 0 41.5 -4.5t42.5 -14.5t38 -25q18 15 38.5 25t42 14.5t42.5 4.5q52 0 97 -26.5t63 -83.5l-103 -34q-4 14 -18.5 25t-37.5 11q-15 0 -30.5 -6.5t-26.5 -20.5t-11 -38v-22h-111z" />
    <glyph glyph-name="sinHa" unicode="&#xdc4;" 
d="M225 -8q-67 0 -110.5 27.5t-64 74t-20.5 104.5v42q0 51 20 91.5t59 64.5t93 24h19q0 24 -14 39t-39 15q-16 0 -29.5 -7.5t-17.5 -22.5l-88 23q16 50 55 73.5t82 23.5q36 0 68.5 -15t53 -44t20.5 -71v-132h-87q-34 0 -52 -9.5t-24 -25.5t-6 -35v-34q0 -19 6 -38t24 -32
t52 -13v-123zM280 -8v123q30 0 44 10t19 26t5 30q0 12 -3 27t-15 26.5t-39 12.5h-38v105q0 59 16 107t55 76.5t109 28.5v-123q-27 0 -40 -13.5t-16.5 -33.5t-3.5 -39v-17q25 -2 43.5 -17t29 -43.5t10.5 -71.5v-44q0 -88 -45 -129t-131 -41zM489 -8v123q29 0 45 13t22 32.5
t6 40.5v145q0 23 -5.5 44.5t-21.5 36t-46 14.5v123q68 0 110.5 -27.5t63.5 -75t21 -106.5v-154q0 -59 -21 -106.5t-63.5 -75t-110.5 -27.5z" />
    <glyph glyph-name="sinLla" unicode="&#xdc5;" horiz-adv-x="609" 
d="M283 -170q-113 0 -183 61t-70 186v117q0 64 29 107t72.5 65t84.5 22h325v-115h-299q-24 0 -45 -11.5t-33.5 -37.5t-12.5 -69v-80q0 -33 9.5 -57t27 -38.5t42 -21.5t53.5 -7v-121zM344 -170v121q31 0 57 8t45 26t26 49l117 -33q-11 -52 -36.5 -85t-60 -52t-73 -26.5
t-75.5 -7.5zM360 73h-37q-43 0 -77.5 14t-58.5 38t-36.5 53t-12.5 58l82 74q0 -28 6.5 -50t18 -37.5t25.5 -26t30 -15.5t30 -5h26q32 0 55 12.5t31 32.5l100 -26q-20 -50 -52 -76.5t-66.5 -36t-63.5 -9.5zM114 420v24q0 60 36.5 94.5t96.5 34.5q26 0 46.5 -8t35.5 -23
q15 19 36.5 25t41.5 6q63 0 98 -38t35 -98h-102q0 19 -10 28.5t-26 9.5q-17 0 -26.5 -11t-9.5 -27h-76q-1 17 -9 28t-28 11t-29 -12t-9 -31z" />
    <glyph glyph-name="sinFa" unicode="&#xdc6;" horiz-adv-x="646" 
d="M30 249v152q0 53 22 89.5t61.5 55t89.5 18.5q37 0 69 -11.5t54 -36.5q21 25 50.5 36.5t65.5 11.5q50 0 89.5 -20t62 -56.5t22.5 -86.5v-152h-120v143q0 26 -18 39t-41 13q-22 0 -40 -13.5t-18 -39.5v-142h-112v142q0 26 -17.5 39.5t-40.5 13.5t-41 -13t-18 -39v-143h-120
zM225 0q-69 0 -112 26.5t-63 72t-20 101.5h120q0 -16 5 -33.5t21 -30.5t49 -13v-123zM421 0v123q33 0 49 13t21 30.5t5 33.5h120q0 -56 -20 -101.5t-62.5 -72t-112.5 -26.5z" />
    <glyph glyph-name="sinVirama" unicode="&#xdca;" horiz-adv-x="178" 
d="M30 619v200h118v-200h-118z" />
    <glyph glyph-name="sinMatraAa" unicode="&#xdcf;" horiz-adv-x="274" 
d="M30 0v123h20q20 0 33.5 6t22 16.5t12.5 25.5t4 33v156q0 19 -4 35.5t-12.5 28t-22 18.5t-33.5 7h-20v123h20q69 0 111.5 -26.5t62.5 -72.5t20 -105v-164q0 -59 -20 -105t-62.5 -72.5t-111.5 -26.5h-20z" />
    <glyph glyph-name="sinMatraAe" unicode="&#xdd0;" horiz-adv-x="281" 
d="M231 0q-54 0 -100 18t-73.5 57t-27.5 104v78q0 35 4.5 59.5t14.5 45.5t26.5 43t41.5 51h-83v118h217v-118q-32 -38 -51.5 -64.5t-30 -45.5t-14.5 -36t-4 -38v-74q0 -18 6 -32t15.5 -23.5t23 -14.5t28.5 -5h27v-123h-20z" />
    <glyph glyph-name="sinMatraAae" unicode="&#xdd1;" horiz-adv-x="273" 
d="M219 0q-52 0 -95 16t-68.5 48t-25.5 80v41q0 27 9.5 47.5t29 41t48.5 43.5h-87v97l96 63h-96v97h213v-97l-98 -63h98v-97q-31 -23 -50 -39.5t-27.5 -29.5t-11 -24.5t-2.5 -25.5v-14q0 -15 4.5 -26t13.5 -19t21.5 -12t28.5 -4h23v-123h-24z" />
    <glyph glyph-name="sinMatraI" unicode="&#xdd2;" horiz-adv-x="0" 
d="M-575 602v28q0 47 23.5 82.5t63.5 56t89 20.5h171q50 0 89.5 -20.5t63 -56t23.5 -82.5v-28h-113q0 20 -5.5 33.5t-15.5 23t-25 13.5t-33 4h-139q-18 0 -33 -4t-25 -13.5t-15.5 -23t-5.5 -33.5h-113z" />
    <glyph glyph-name="sinMatraIi" unicode="&#xdd3;" horiz-adv-x="0" 
d="M-494 660v-23h-122v23q0 84 51.5 134t140.5 50h22v-113h-19q-38 0 -55.5 -20.5t-17.5 -50.5zM-266 844q102 0 159.5 -44t57.5 -129q0 -71 -42 -114t-105 -44q-44 0 -78 19t-53.5 51t-19.5 70v31h105v-19q0 -20 12 -33t31 -13q18 0 29.5 13t11.5 35q0 34 -26 49t-78 15
h-85v113h81z" />
    <glyph glyph-name="sinMatraU" unicode="&#xdd4;" horiz-adv-x="0" 
d="M-157 -205v330h121v-330h-121zM-484 -205v121h182v-121h-182zM-246 -205v121h99v-121h-99z" />
    <glyph glyph-name="sinMatraUu" unicode="&#xdd6;" horiz-adv-x="0" 
d="M-158 -205v328h121v-328h-121zM-158 -205q-19 12 -35.5 17.5t-29.5 7t-23 1.5v122q8 0 22 -1.5t31 -6t35 -15.5v-125zM-420 -204q-16 0 -33.5 6.5t-38.5 21.5v121q21 -15 38.5 -21.5t33.5 -6.5q21 0 40 6.5t38.5 13t39.5 6.5v-122q-20 0 -39 -6t-38.5 -12.5t-40.5 -6.5z
" />
    <glyph glyph-name="sinMatraR" unicode="&#xdd8;" horiz-adv-x="363" 
d="M180 0q-39 0 -75 17.5t-58.5 52.5t-22.5 85q0 39 16 72.5t49.5 54.5t85.5 21h13v-100h-13q-21 0 -34.5 -13.5t-13.5 -33.5q0 -24 16 -38.5t37 -14.5q20 0 34 14.5t14 39.5v228q0 19 -4.5 35.5t-18 27.5t-39.5 11h-90v113h104q45 0 79.5 -22.5t54 -62t19.5 -89.5v-245
q0 -50 -22 -84t-57 -51.5t-74 -17.5z" />
    <glyph glyph-name="sinMatraE" unicode="&#xdd9;" horiz-adv-x="457" 
d="M188 -5q-54 0 -86 23t-47.5 57t-20 67.5t-4.5 55.5v173q0 29 7.5 62.5t27 63t54.5 48.5t89 19h41v-113h-32q-22 0 -37.5 -10t-24 -28t-8.5 -42v-173q0 -25 5 -45.5t18 -32.5t39 -12v-113h-21zM257 -5v113q28 0 40.5 14.5t12.5 39.5v46q0 16 -6.5 23t-17 8.5t-24.5 1.5
h-29v113h87q30 0 54 -8t38.5 -29.5t14.5 -61.5v-98q0 -43 -16.5 -80t-48 -59.5t-76.5 -22.5h-29zM317 404q-1 8 -5.5 16.5t-12.5 15.5t-20.5 11t-29.5 4v113h21q49 0 81.5 -21.5t51 -52.5t21.5 -59z" />
    <glyph glyph-name="sinMatraEe" unicode="&#xdda;" horiz-adv-x="778" 
d="M630 619v200h118v-200h-118zM188 -5q-54 0 -86 23t-47.5 57t-20 67.5t-4.5 55.5v173q0 29 7.5 62.5t27 63t54.5 48.5t89 19h41v-113h-32q-22 0 -37.5 -10t-24 -28t-8.5 -42v-173q0 -25 5 -45.5t18 -32.5t39 -12v-113h-21zM257 -5v113q28 0 40.5 14.5t12.5 39.5v46
q0 16 -6.5 23t-17 8.5t-24.5 1.5h-29v113h87q30 0 54 -8t38.5 -29.5t14.5 -61.5v-98q0 -43 -16.5 -80t-48 -59.5t-76.5 -22.5h-29zM317 404q-1 8 -5.5 16.5t-12.5 15.5t-20.5 11t-29.5 4v113h21q49 0 81.5 -21.5t51 -52.5t21.5 -59z" />
    <glyph glyph-name="sinMatraAi" unicode="&#xddb;" horiz-adv-x="914" 
d="M188 -5q-54 0 -86 23t-47.5 57t-20 67.5t-4.5 55.5v173q0 29 7.5 62.5t27 63t54.5 48.5t89 19h41v-113h-32q-22 0 -37.5 -10t-24 -28t-8.5 -42v-173q0 -25 5 -45.5t18 -32.5t39 -12v-113h-21zM257 -5v113q28 0 40.5 14.5t12.5 39.5v46q0 16 -6.5 23t-17 8.5t-24.5 1.5
h-29v113h87q30 0 54 -8t38.5 -29.5t14.5 -61.5v-98q0 -43 -16.5 -80t-48 -59.5t-76.5 -22.5h-29zM317 404q-1 8 -5.5 16.5t-12.5 15.5t-20.5 11t-29.5 4v113h21q49 0 81.5 -21.5t51 -52.5t21.5 -59zM645 -5q-54 0 -86 23t-47.5 57t-20 67.5t-4.5 55.5v173q0 29 7.5 62.5
t27 63t54.5 48.5t89 19h41v-113h-32q-22 0 -37.5 -10t-24 -28t-8.5 -42v-173q0 -25 5 -45.5t18 -32.5t39 -12v-113h-21zM714 -5v113q28 0 40.5 14.5t12.5 39.5v46q0 16 -6.5 23t-17 8.5t-24.5 1.5h-29v113h87q30 0 54 -8t38.5 -29.5t14.5 -61.5v-98q0 -43 -16.5 -80
t-48 -59.5t-76.5 -22.5h-29zM774 404q-1 8 -5.5 16.5t-12.5 15.5t-20.5 11t-29.5 4v113h21q49 0 81.5 -21.5t51 -52.5t21.5 -59z" />
    <glyph glyph-name="sinMatraO" unicode="&#xddc;" horiz-adv-x="731" 
d="M487 0v123h20q20 0 33.5 6t22 16.5t12.5 25.5t4 33v156q0 19 -4 35.5t-12.5 28t-22 18.5t-33.5 7h-20v123h20q69 0 111.5 -26.5t62.5 -72.5t20 -105v-164q0 -59 -20 -105t-62.5 -72.5t-111.5 -26.5h-20zM188 -5q-54 0 -86 23t-47.5 57t-20 67.5t-4.5 55.5v173
q0 29 7.5 62.5t27 63t54.5 48.5t89 19h41v-113h-32q-22 0 -37.5 -10t-24 -28t-8.5 -42v-173q0 -25 5 -45.5t18 -32.5t39 -12v-113h-21zM257 -5v113q28 0 40.5 14.5t12.5 39.5v46q0 16 -6.5 23t-17 8.5t-24.5 1.5h-29v113h87q30 0 54 -8t38.5 -29.5t14.5 -61.5v-98
q0 -43 -16.5 -80t-48 -59.5t-76.5 -22.5h-29zM317 404q-1 8 -5.5 16.5t-12.5 15.5t-20.5 11t-29.5 4v113h21q49 0 81.5 -21.5t51 -52.5t21.5 -59z" />
    <glyph glyph-name="sinMatraOo" unicode="&#xddd;" horiz-adv-x="798" 
d="M553 619v200h118v-200h-118zM554 0v123h20q20 0 33.5 6t22 16.5t12.5 25.5t4 33v156q0 19 -4 35.5t-12.5 28t-22 18.5t-33.5 7h-20v123h20q69 0 111.5 -26.5t62.5 -72.5t20 -105v-164q0 -59 -20 -105t-62.5 -72.5t-111.5 -26.5h-20zM188 -5q-54 0 -86 23t-47.5 57
t-20 67.5t-4.5 55.5v173q0 29 7.5 62.5t27 63t54.5 48.5t89 19h41v-113h-32q-22 0 -37.5 -10t-24 -28t-8.5 -42v-173q0 -25 5 -45.5t18 -32.5t39 -12v-113h-21zM257 -5v113q28 0 40.5 14.5t12.5 39.5v46q0 16 -6.5 23t-17 8.5t-24.5 1.5h-29v113h87q30 0 54 -8t38.5 -29.5
t14.5 -61.5v-98q0 -43 -16.5 -80t-48 -59.5t-76.5 -22.5h-29zM317 404q-1 8 -5.5 16.5t-12.5 15.5t-20.5 11t-29.5 4v113h21q49 0 81.5 -21.5t51 -52.5t21.5 -59z" />
    <glyph glyph-name="sinMatraAu" unicode="&#xdde;" horiz-adv-x="876" 
d="M664 -8q-44 0 -84.5 18.5t-66.5 57t-26 95.5v39h111v-39q0 -22 10.5 -36.5t26.5 -22t34 -7.5q17 0 32.5 7t25 22t9.5 37v268q0 14 -7 20.5t-16 6.5q-8 0 -15.5 -6.5t-7.5 -20.5v-49q0 -43 -29.5 -66t-66.5 -23q-26 0 -50.5 12t-40.5 37.5t-16 64.5v157h82v-127
q0 -12 7.5 -18t15.5 -6q9 0 16 6t7 18v26q0 36 16 59.5t41.5 35.5t53.5 12q47 0 83.5 -33t37.5 -95v-279q0 -56 -26.5 -94t-68.5 -57.5t-88 -19.5zM188 -5q-54 0 -86 23t-47.5 57t-20 67.5t-4.5 55.5v173q0 29 7.5 62.5t27 63t54.5 48.5t89 19h41v-113h-32q-22 0 -37.5 -10
t-24 -28t-8.5 -42v-173q0 -25 5 -45.5t18 -32.5t39 -12v-113h-21zM257 -5v113q28 0 40.5 14.5t12.5 39.5v46q0 16 -6.5 23t-17 8.5t-24.5 1.5h-29v113h87q30 0 54 -8t38.5 -29.5t14.5 -61.5v-98q0 -43 -16.5 -80t-48 -59.5t-76.5 -22.5h-29zM317 404q-1 8 -5.5 16.5
t-12.5 15.5t-20.5 11t-29.5 4v113h21q49 0 81.5 -21.5t51 -52.5t21.5 -59z" />
    <glyph glyph-name="sinMatraLs" unicode="&#xddf;" horiz-adv-x="416" 
d="M203 -8q-44 0 -84.5 18.5t-66.5 57t-26 95.5v39h111v-39q0 -22 10.5 -36.5t26.5 -22t34 -7.5q17 0 32.5 7t25 22t9.5 37v268q0 14 -7 20.5t-16 6.5q-8 0 -15.5 -6.5t-7.5 -20.5v-49q0 -43 -29.5 -66t-66.5 -23q-26 0 -50.5 12t-40.5 37.5t-16 64.5v157h82v-127
q0 -12 7.5 -18t15.5 -6q9 0 16 6t7 18v26q0 36 16 59.5t41.5 35.5t53.5 12q47 0 83.5 -33t37.5 -95v-279q0 -56 -26.5 -94t-68.5 -57.5t-88 -19.5z" />
    <glyph glyph-name="sinOnelith" unicode="&#xde7;" horiz-adv-x="783" 
d="M256 307q0 23 20 39t46 16t45 -16t19 -39q0 -22 -19 -39t-45 -17t-46 17t-20 39zM31 238q0 -75 36.5 -131.5t100 -87.5t143.5 -31q85 0 143 27.5t88 74.5t30 105q0 67 -32 112.5t-84.5 68t-117.5 22.5q-51 0 -87 -25.5t-36 -67.5q0 -26 15.5 -46t40.5 -31.5t51 -11.5
q27 0 50.5 11.5t38.5 31t15 46.5q0 15 -5.5 29.5t-17.5 26.5q44 -10 67.5 -37.5t23.5 -59.5q0 -41 -24 -70t-65 -44t-94 -15q-63 0 -107.5 21.5t-68.5 57.5t-24 77q0 38 18 69t50 54t75 35t94 12q74 0 140 -26.5t117 -82.5t81.5 -145.5t33.5 -216.5h36q-3 133 -35.5 229
t-88 157.5t-128.5 91.5t-156 30q-71 0 -129 -18t-100 -52t-65 -82t-23 -108z" />
    <glyph glyph-name="sinTwolith" unicode="&#xde8;" horiz-adv-x="1141" 
d="M1063 188q0 -80 -39 -125.5t-98 -45.5q-24 0 -39 4.5t-25 9.5v-34q11 -6 29.5 -10.5t38.5 -4.5q60 0 100.5 33.5t60.5 88t20 116.5q0 36 -5.5 75t-18.5 74.5t-37 63.5t-60 44.5t-87 16.5q-48 0 -87.5 -21.5t-65.5 -59.5t-35.5 -88t-0.5 -108l10 -57l26 -76q-4 28 -5.5 54
t-1.5 48q0 54 16.5 94t52 62.5t91.5 22.5q52 0 87.5 -24t54 -64t18.5 -89zM256 307q0 23 20 39t46 16t45 -16t19 -39q0 -22 -19 -39t-45 -17t-46 17t-20 39zM31 238q0 -75 36.5 -131.5t100 -87.5t143.5 -31q85 0 143 27.5t88 74.5t30 105q0 67 -32 112.5t-84.5 68
t-117.5 22.5q-51 0 -87 -25.5t-36 -67.5q0 -26 15.5 -46t40.5 -31.5t51 -11.5q27 0 50.5 11.5t38.5 31t15 46.5q0 15 -5.5 29.5t-17.5 26.5q44 -10 67.5 -37.5t23.5 -59.5q0 -41 -24 -70t-65 -44t-94 -15q-63 0 -107.5 21.5t-68.5 57.5t-24 77q0 38 18 69t50 54t75 35t94 12
q74 0 140 -26.5t117 -82.5t81.5 -145.5t33.5 -216.5h36q-3 133 -35.5 229t-88 157.5t-128.5 91.5t-156 30q-71 0 -129 -18t-100 -52t-65 -82t-23 -108z" />
    <glyph glyph-name="sinThreelith" unicode="&#xde9;" horiz-adv-x="1524" 
d="M1166 114q0 -61 36 -96.5t95 -35.5q80 0 121 63t41 176t-41 176t-121 63q-35 0 -65 -16t-48 -45t-18 -70v-14t1 -13h33q-1 5 -1 9.5v8.5q0 28 8.5 42.5t20 20.5t20.5 6q17 0 32 -14.5t24 -51t9 -102.5q0 -65 -9 -101.5t-24 -51t-32 -14.5q-10 0 -21.5 5t-19.5 20t-8 43
v9.5t1 8.5h-33q-1 -7 -1 -13v-13zM256 307q0 23 20 39t46 16t45 -16t19 -39q0 -22 -19 -39t-45 -17t-46 17t-20 39zM31 238q0 -75 36.5 -131.5t100 -87.5t143.5 -31q85 0 143 27.5t88 74.5t30 105q0 67 -32 112.5t-84.5 68t-117.5 22.5q-51 0 -87 -25.5t-36 -67.5
q0 -26 15.5 -46t40.5 -31.5t51 -11.5q27 0 50.5 11.5t38.5 31t15 46.5q0 15 -5.5 29.5t-17.5 26.5q44 -10 67.5 -37.5t23.5 -59.5q0 -41 -24 -70t-65 -44t-94 -15q-63 0 -107.5 21.5t-68.5 57.5t-24 77q0 38 18 69t50 54t75 35t94 12q74 0 140 -26.5t117 -82.5t81.5 -145.5
t33.5 -216.5h36q-3 133 -35.5 229t-88 157.5t-128.5 91.5t-156 30q-71 0 -129 -18t-100 -52t-65 -82t-23 -108zM1063 188q0 -80 -39 -125.5t-98 -45.5q-24 0 -39 4.5t-25 9.5v-34q11 -6 29.5 -10.5t38.5 -4.5q60 0 100.5 33.5t60.5 88t20 116.5q0 36 -5.5 75t-18.5 74.5
t-37 63.5t-60 44.5t-87 16.5q-48 0 -87.5 -21.5t-65.5 -59.5t-35.5 -88t-0.5 -108l10 -57l26 -76q-4 28 -5.5 54t-1.5 48q0 54 16.5 94t52 62.5t91.5 22.5q52 0 87.5 -24t54 -64t18.5 -89z" />
    <glyph glyph-name="sinFourlith" unicode="&#xdea;" horiz-adv-x="692" 
d="M27 189q0 -55 25.5 -93.5t69.5 -62t100.5 -34t117.5 -10.5q56 0 109 10.5t95.5 34t67.5 61.5t25 92q0 51 -20 84t-53.5 51.5t-73.5 26t-81 7.5q-11 0 -19 -0.5t-16 -1.5q-3 17 -3 29q0 35 22.5 60t84.5 25q39 0 64 -15.5t25 -44.5q0 -23 -17 -37.5t-43 -14.5t-40.5 20.5
t-14.5 49.5q0 39 13 71t32 55t36 36q25 19 47.5 31t40.5 22t28.5 19.5t10.5 23.5q0 11 -7.5 23t-31.5 12q-17 0 -44.5 -12.5t-54.5 -37.5q-26 -24 -50 -60.5t-39.5 -83t-15.5 -100.5q0 -22 9 -45.5t28.5 -39t51.5 -15.5q38 0 59 13t29.5 32t8.5 36q0 35 -20 56t-47.5 30.5
t-52.5 9.5q-40 0 -74 -11.5t-54.5 -38.5t-20.5 -73q0 -25 9 -54q13 1 29.5 2.5t35.5 1.5q68 0 102.5 -14.5t46 -35.5t11.5 -38q0 -28 -18.5 -48t-51.5 -32t-75.5 -17.5t-89.5 -5.5q-45 0 -88 5t-76.5 16t-53.5 30t-20 47q0 14 6.5 29.5t23 30t49.5 23t85 8.5q8 0 18.5 -0.5
t20.5 -1.5q3 12 4 25t1 23q0 60 -37 93t-96 33q-28 0 -54.5 -9t-43.5 -27.5t-17 -48.5q0 -22 13 -35t34 -13q20 0 32.5 11t22.5 32q6 14 19.5 25.5t32.5 11.5q22 0 34 -11t17.5 -26t5.5 -30q0 -6 -0.5 -11t-1.5 -12q-7 2 -10 2h-20q-66 0 -112 -22.5t-70.5 -61t-24.5 -85.5z
" />
    <glyph glyph-name="sinFivelith" unicode="&#xdeb;" horiz-adv-x="531" 
d="M282 -20q25 0 48.5 2t48.5 8q-43 -44 -68.5 -84t-25.5 -88q0 -34 14 -62.5t43.5 -46.5t76.5 -18q16 0 34 2.5t35 6.5v37q-36 11 -56.5 31.5t-28.5 47t-8 53.5q0 33 8.5 62.5t22.5 55t30 46t29 36.5l-29 22q-35 -40 -62 -51t-57 -11q-32 0 -62.5 18.5t-49.5 53.5t-19 84
q0 74 39.5 107t117.5 33h90q-16 85 -56.5 126.5t-116.5 41.5q-49 0 -81.5 -21t-32.5 -53q0 -19 14 -31.5t36 -12.5q16 0 30.5 7.5t23.5 26.5q8 15 20.5 24.5t29.5 9.5q31 0 55 -23t33 -64h-139q-106 0 -167 -41t-61 -135q0 -88 62.5 -144t178.5 -56z" />
    <glyph glyph-name="sinSixlith" unicode="&#xdec;" horiz-adv-x="828" 
d="M398 354q45 0 91.5 -5.5t88.5 -17.5t75 -32.5t52 -50.5t19 -71q0 -46 -15 -77.5t-39 -50.5t-50.5 -27.5t-50.5 -9.5v-24q34 0 70 11t66.5 36t49.5 65.5t19 100.5q0 73 -26.5 124.5t-69 85.5t-93 53t-100 26.5t-87.5 7.5q-39 0 -86.5 -9t-95.5 -29t-88.5 -54.5t-65 -86
t-24.5 -122.5q0 -57 18.5 -97t47.5 -64.5t63 -36t65 -11.5q68 0 104.5 35.5t36.5 94.5v14t-1 13h-34q1 -4 1 -8.5v-9.5q0 -50 -26.5 -77.5t-80.5 -27.5q-19 0 -43 8t-45 24.5t-34.5 42.5t-13.5 62q0 40 14.5 71t42 54.5t65 39t83 23t97.5 7.5zM569 -12q29 0 53.5 14.5
t39 38.5t14.5 53t-14.5 53.5t-39 39t-53.5 14.5t-53 -14.5t-38.5 -39t-14.5 -53.5q0 -43 31.5 -74.5t74.5 -31.5zM569 163q28 0 48 -20.5t20 -47.5q0 -28 -20 -48t-48 -20t-47.5 20t-19.5 48q0 27 19.5 47.5t47.5 20.5z" />
    <glyph glyph-name="sinSevenlith" unicode="&#xded;" horiz-adv-x="744" 
d="M284 490q-56 0 -92 -19.5t-36 -59.5q0 -17 13.5 -32t39.5 -15q23 0 36 12t20 23q12 20 28.5 28t36.5 8q25 0 48 -14t38 -37.5t17 -53.5h-118q-84 0 -145.5 -31t-95 -84t-33.5 -120q0 -70 28.5 -126.5t78.5 -96t112.5 -61t129.5 -21.5t125.5 20t102.5 56.5t69 86t25 108.5
h-37q0 -46 -18.5 -83.5t-50 -64.5t-70.5 -41.5t-78 -14.5q-71 0 -127.5 30.5t-90 87.5t-33.5 138q0 86 47 135.5t157 49.5h62v5v4q0 56 -24 97t-66.5 63.5t-98.5 22.5z" />
    <glyph glyph-name="sinEightlith" unicode="&#xdee;" horiz-adv-x="648" 
d="M55 189q0 -73 33.5 -130t92 -89.5t131.5 -32.5q80 0 142.5 36.5t98.5 97t36 132.5q0 50 -15.5 91t-47.5 76q-36 40 -81 60t-82 20q25 7 58.5 18.5t65.5 25.5t53 25q55 29 78 55t23 51q0 19 -14 27.5t-28 8.5q-21 0 -36 -10.5t-29 -28.5t-30.5 -37.5t-41.5 -39.5
q-40 -29 -76 -47.5t-73.5 -31.5t-81.5 -31q-49 -19 -89 -52t-63.5 -81t-23.5 -113zM109 236q0 42 20 77t53 59t71 37t74 13q54 0 93.5 -18.5t61.5 -52t22 -78.5q0 -60 -27.5 -102t-75 -63.5t-109.5 -21.5q-63 0 -103.5 21t-60 56t-19.5 73z" />
    <glyph glyph-name="sinNinelith" unicode="&#xdef;" horiz-adv-x="1172" 
d="M697 663q0 33 23 54.5t54 21.5q32 0 55.5 -22t23.5 -54q0 -28 -22.5 -50.5t-56.5 -22.5t-55.5 22.5t-21.5 50.5zM286 655q0 -44 34 -81t98 -52l7 12q-59 20 -82.5 50t-23.5 53q0 48 38 77t98.5 42.5t128.5 13.5q34 0 66.5 -3.5t56.5 -8.5t31 -9l18 20q-31 0 -52 -16.5
t-32 -41t-11 -49.5q0 -30 16 -54t42 -38t55 -14q48 0 81.5 31.5t33.5 78.5q0 46 -28 81t-73.5 59t-99 36t-105.5 12q-79 0 -135.5 -19t-92.5 -49t-52.5 -64.5t-16.5 -66.5zM256 307q0 22 19.5 38.5t46.5 16.5q25 0 44.5 -16.5t19.5 -38.5t-19.5 -39t-44.5 -17
q-27 0 -46.5 17t-19.5 39zM31 238q0 -75 36.5 -131.5t100 -87.5t143.5 -31q85 0 143 27.5t88 74.5t30 105q0 67 -32 112.5t-84.5 68t-117.5 22.5q-51 0 -87 -25.5t-36 -67.5q0 -26 15.5 -46t40.5 -31.5t51 -11.5t50 11.5t39 31t15 46.5q0 14 -5.5 29t-17.5 27
q44 -10 67.5 -37.5t23.5 -59.5q0 -41 -24 -70t-65 -44t-94 -15q-63 0 -107.5 21.5t-68.5 57.5t-24 77q0 38 18 69t50 54t75 35t94 12q74 0 140 -26.5t117 -82.5t81.5 -145.5t33.5 -216.5h36q-3 133 -35.5 229t-88 157.5t-128.5 91.5t-156 30q-71 0 -129 -18t-100 -52
t-65 -82t-23 -108zM1063 188q0 -80 -39 -125.5t-98 -45.5q-24 0 -39 4.5t-25 9.5v-34q11 -6 29.5 -10.5t38.5 -4.5q60 0 100.5 33.5t60.5 88t20 116.5q0 36 -5.5 75t-18.5 74.5t-37 63.5t-60 44.5t-87 16.5q-48 0 -87.5 -21.5t-65.5 -59.5t-35.5 -88t-0.5 -108l10 -57
l26 -76q-4 28 -5.5 54t-1.5 48q0 54 16.5 94t52 62.5t91.5 22.5q52 0 87.5 -24t54 -64t18.5 -89z" />
    <glyph glyph-name="sinMatraRr" unicode="&#xdf2;" horiz-adv-x="727" 
d="M180 0q-39 0 -75 17.5t-58.5 52.5t-22.5 85q0 39 16 72.5t49.5 54.5t85.5 21h13v-100h-13q-21 0 -34.5 -13.5t-13.5 -33.5q0 -24 16 -38.5t37 -14.5q20 0 34 14.5t14 39.5v228q0 19 -4.5 35.5t-18 27.5t-39.5 11h-90v113h104q45 0 79.5 -22.5t54 -62t19.5 -89.5v-245
q0 -50 -22 -84t-57 -51.5t-74 -17.5zM543 0q-39 0 -75 17.5t-58.5 52.5t-22.5 85q0 39 16 72.5t49.5 54.5t85.5 21h13v-100h-13q-21 0 -34.5 -13.5t-13.5 -33.5q0 -24 16 -38.5t37 -14.5q20 0 34 14.5t14 39.5v228q0 19 -4.5 35.5t-18 27.5t-39.5 11h-90v113h104
q45 0 79.5 -22.5t54 -62t19.5 -89.5v-245q0 -50 -22 -84t-57 -51.5t-74 -17.5z" />
    <glyph glyph-name="sinMatraLl" unicode="&#xdf3;" horiz-adv-x="416" 
d="M203 -8q-44 0 -84.5 18.5t-66.5 57t-26 95.5v39h111v-39q0 -22 10.5 -36.5t26.5 -22t34 -7.5q17 0 32.5 7t25 22t9.5 37v268q0 14 -7 20.5t-16 6.5q-8 0 -15.5 -6.5t-7.5 -20.5v-49q0 -43 -29.5 -66t-66.5 -23q-26 0 -50.5 12t-40.5 37.5t-16 64.5v157h82v-127
q0 -12 7.5 -18t15.5 -6q9 0 16 6t7 18v26q0 36 16 59.5t41.5 35.5t53.5 12q47 0 83.5 -33t37.5 -95v-279q0 -56 -26.5 -94t-68.5 -57.5t-88 -19.5z" />
    <glyph glyph-name="sinkundaliya" unicode="&#xdf4;" horiz-adv-x="1516" 
d="M42 0v98h207q49 0 84 10t64 34t56.5 67t60.5 108t78 158l87 -49q-54 -106 -93.5 -180.5t-72.5 -122.5t-68.5 -75t-82.5 -37.5t-113 -10.5h-207zM629 -1l-88 49l227 455l86 -49zM792 -1l-88 49l169 334l86 -48zM956 -1l-88 50l112 223q78 -49 136 -82t101.5 -53t76 -29
t61.5 -9h119v-99h-120q-50 0 -102 16.5t-108.5 46.5t-120.5 69z" />
    <glyph glyph-name="uni200C" unicode="&#x200c;" horiz-adv-x="0" 
d="M-20 9v752h40v-752h-40z" />
    <glyph glyph-name="uni200D" unicode="&#x200d;" horiz-adv-x="0" 
d="M-145 489l-22 33l323 223l23 -33zM-20 9v620h40v-620h-40zM145 489l-323 223l23 33l323 -223z" />
    <glyph glyph-name="endash" unicode="&#x2013;" horiz-adv-x="532" 
d="M26 239v110h480v-110h-480z" />
    <glyph glyph-name="emdash" unicode="&#x2014;" horiz-adv-x="906" 
d="M26 238v110h854v-110h-854z" />
    <glyph glyph-name="quoteleft" unicode="&#x2018;" horiz-adv-x="174" 
d="M31 465v271h111v-271h-111z" />
    <glyph glyph-name="quoteright" unicode="&#x2019;" horiz-adv-x="174" 
d="M31 465v271h111v-271h-111z" />
    <glyph glyph-name="quotesinglbase" unicode="&#x201a;" horiz-adv-x="174" 
d="M31 465v271h111v-271h-111z" />
    <glyph glyph-name="quotedblleft" unicode="&#x201c;" horiz-adv-x="338" 
d="M195 465v271h110v-271h-110zM31 465v271h111v-271h-111z" />
    <glyph glyph-name="quotedblright" unicode="&#x201d;" horiz-adv-x="338" 
d="M195 465v271h110v-271h-110zM31 465v271h111v-271h-111z" />
    <glyph glyph-name="quotedblbase" unicode="&#x201e;" horiz-adv-x="334" 
d="M173 -23l37 152h110l-37 -152h-110zM11 -23l37 152h110l-37 -152h-110z" />
    <glyph glyph-name="dagger" unicode="&#x2020;" horiz-adv-x="453" 
d="M166 -56v514h-140v110h140v196h121v-196h140v-110h-140v-514h-121z" />
    <glyph glyph-name="daggerdbl" unicode="&#x2021;" horiz-adv-x="453" 
d="M166 -56v195h-140v110h140v210h-140v110h140v195h121v-195h140v-110h-140v-210h140v-110h-140v-195h-121z" />
    <glyph glyph-name="bullet" unicode="&#x2022;" horiz-adv-x="352" 
d="M176 211q-38 0 -67.5 18t-47.5 48t-18 67t18 68t47.5 49t67.5 18t67.5 -18t47.5 -49t18 -68t-18 -67t-47.5 -48t-67.5 -18z" />
    <glyph glyph-name="ellipsis" unicode="&#x2026;" horiz-adv-x="620" 
d="M520 -21q-27 0 -46.5 19t-19.5 46q0 29 19.5 48t46.5 19q28 0 47 -19t19 -48q0 -27 -19 -46t-47 -19zM99 -21q-27 0 -46 19t-19 46q0 29 19 48t46 19q28 0 47 -19t19 -48q0 -27 -19 -46t-47 -19zM310 -21q-27 0 -46.5 19t-19.5 46q0 29 19.5 48t46.5 19q28 0 47 -19
t19 -48q0 -27 -19 -46t-47 -19z" />
    <glyph glyph-name="perthousand" unicode="&#x2030;" horiz-adv-x="897" 
d="M70 0l432 700h68l-426 -700h-74zM122 352q-16 0 -34 7t-34 25.5t-26.5 53t-10.5 89.5q0 73 17 110.5t42 51t46 13.5v-68q-14 -2 -22 -15.5t-11.5 -34t-3.5 -48.5v-14q0 -30 3.5 -52t11.5 -34.5t22 -15.5v-68zM489 0q-16 0 -34 7t-34 25.5t-26.5 53t-10.5 89.5
q0 73 17 110.5t42 51t46 13.5v-68q-14 -2 -22 -15.5t-11.5 -34t-3.5 -48.5v-14q0 -30 3.5 -52t11.5 -34.5t22 -15.5v-68zM149 352v68q14 3 22 15.5t11.5 34.5t3.5 52v14q0 28 -3.5 48.5t-11.5 34t-22 15.5v68q22 0 46.5 -13.5t41.5 -51t17 -110.5q0 -55 -10.5 -89.5
t-26.5 -53t-34 -25.5t-34 -7zM516 0v68q14 3 22 15.5t11.5 34.5t3.5 52v14q0 28 -3.5 48.5t-11.5 34t-22 15.5v68q22 0 46.5 -13.5t41.5 -51t17 -110.5q0 -55 -10.5 -89.5t-26.5 -53t-34 -25.5t-34 -7zM747 0q-15 0 -33.5 7t-34.5 25.5t-26.5 53t-10.5 89.5q0 73 17 110.5
t42 51t46 13.5v-68q-14 -2 -22 -15.5t-11.5 -34t-3.5 -48.5v-14q0 -30 4 -52t12 -34.5t21 -15.5v-68zM775 0v68q13 3 21 15.5t12 34.5t4 52v14q0 28 -4 48.5t-12 34t-21 15.5v68q22 0 46 -13.5t41.5 -51t17.5 -110.5q0 -55 -11 -89.5t-27 -53t-34 -25.5t-33 -7z" />
    <glyph glyph-name="guilsinglleft" unicode="&#x2039;" horiz-adv-x="338" 
d="M167 79l-131 213l131 208h135l-131 -208l131 -213h-135z" />
    <glyph glyph-name="guilsinglright" unicode="&#x203a;" horiz-adv-x="338" 
d="M36 79l131 213l-131 208h135l131 -208l-131 -213h-135z" />
    <glyph glyph-name="fraction" unicode="&#x2044;" horiz-adv-x="543" 
d="M21 -2l432 704h68l-426 -704h-74z" />
    <glyph glyph-name="uni2074" unicode="&#x2074;" horiz-adv-x="270" 
d="M22 439v57l103 178v-114l-35 -64h35v-57h-103zM149 384v316h64v-204h25v-57h-25v-55h-64z" />
    <glyph glyph-name="Euro" unicode="&#x20ac;" horiz-adv-x="553" 
d="M401 471v24.5t-1 20.5q-3 21 -12 35t-22 21t-29 7v121q40 -1 73.5 -15.5t57.5 -40t37.5 -58.5t13.5 -72zM280 1q-41 2 -74 18t-57 42t-37 57.5t-15 63.5v81h-47v54h47v60h-47v54h47v69q0 38 14 73t38 63t58 45.5t73 18.5v-121q-16 0 -28.5 -6t-20.5 -16t-11.5 -22
t-3.5 -25v-79h192v-55h-192v-59h192v-54h-192v-65q0 -18 4 -32t12.5 -24.5t20.5 -16t27 -5.5v-119zM337 1v120q17 1 30.5 9t22 22.5t10.5 35.5q1 11 1.5 21t0.5 19l117 -43q0 -32 -15.5 -64.5t-41.5 -59.5t-58.5 -43.5t-66.5 -16.5z" />
    <glyph glyph-name="uni2113" unicode="&#x2113;" horiz-adv-x="194" 
d="M223 -7q-22 0 -52.5 10.5t-59 32.5t-47.5 59.5t-19 91.5v511h115v-511q0 -23 8 -37t20 -21.5t22 -10t13 -2.5v-123z" />
    <glyph glyph-name="trademark" unicode="&#x2122;" horiz-adv-x="414" 
d="M74 484v174h-48v42h138v-42h-47v-174h-43zM186 484v146h4l40 -95v-51h-44zM265 484l-78 189v27h34l58 -143l38 84h5v-93l-28 -64h-29zM335 484v216h42v-216h-42z" />
    <glyph glyph-name="uni2126" unicode="&#x2126;" horiz-adv-x="463" 
d="M28 0v58h54q-20 22 -29.5 45.5t-9.5 39.5v235q0 19 10 43t30 46t51 36.5t73 14.5v-102q-22 0 -35 -8t-18.5 -20t-5.5 -23v-209q0 -12 6 -24.5t19 -20t34 -7.5v-104h-179zM259 0v104q22 0 35 7.5t18.5 19.5t5.5 25v209q0 11 -5.5 22.5t-18.5 20t-35 8.5v102q42 0 73 -14.5
t51 -36.5t29.5 -46t9.5 -43v-235q0 -16 -9 -39.5t-29 -45.5h53v-58h-178z" />
    <glyph glyph-name="estimated" unicode="&#x212e;" horiz-adv-x="531" 
d="M233 -2q-53 0 -99.5 26t-75 72t-28.5 103v305q0 56 28.5 102t75 72.5t99.5 26.5v-121q-20 0 -39 -12t-31 -36t-12 -62v-81h220v81q0 57 -26 83t-57 27v121q55 0 101 -26.5t74.5 -72t28.5 -102.5v-232h-341v-43q0 -58 26.5 -83.5t55.5 -27.5v-120zM289 -2v121q18 1 35 10
t30 26t16 42l121 -30q-6 -49 -35.5 -87.5t-74 -60t-92.5 -21.5z" />
    <glyph glyph-name="partialdiff" unicode="&#x2202;" horiz-adv-x="420" 
d="M233 -1v103q21 0 33.5 9t18 21.5t5.5 23.5l-1 201q0 15 -5.5 27.5t-18 20.5t-32.5 8v103q16 0 29 -3t25 -9q0 38 -17.5 66.5t-47.5 47t-69 27.5t-83 9v60q111 0 182 -28t105.5 -88t34.5 -154v-303q0 -18 -9.5 -42.5t-29.5 -47t-49.5 -37.5t-70.5 -15zM192 -1
q-42 0 -73 15t-51 38t-30 47t-10 42v235q0 18 10 42t30.5 46.5t51.5 37t72 14.5v-103q-22 0 -35 -9.5t-18.5 -23t-5.5 -25.5v-201q0 -13 6 -25t19.5 -19.5t33.5 -7.5v-103z" />
    <glyph glyph-name="uni2206" unicode="&#x2206;" horiz-adv-x="614" 
d="M70 0l154 583h9l47 -178l-76 -296h205l-155 592h106l183 -701h-473z" />
    <glyph glyph-name="product" unicode="&#x220f;" horiz-adv-x="520" 
d="M71 -140v723h-46v116h470v-116h-47v-723h-112v723h-153v-723h-112z" />
    <glyph glyph-name="summation" unicode="&#x2211;" horiz-adv-x="654" 
d="M30 -140v128l233 319l-233 311v83h93l295 -398l-235 -314h345v-129h-498zM279 580l-84 112v9h333v-121h-249z" />
    <glyph glyph-name="minus" unicode="&#x2212;" horiz-adv-x="416" 
d="M48 239v110h316v-110h-316z" />
    <glyph glyph-name="uni2215" unicode="&#x2215;" horiz-adv-x="543" 
d="M21 -2l432 704h68l-426 -704h-74z" />
    <glyph glyph-name="uni2219" unicode="&#x2219;" horiz-adv-x="250" 
d="M100 364q-28 0 -48 20t-20 48q0 29 20 49t48 20q29 0 48.5 -20t19.5 -49q0 -28 -19.5 -48t-48.5 -20z" />
    <glyph glyph-name="radical" unicode="&#x221a;" horiz-adv-x="624" 
d="M315 0l-185 455l-93 -33l-31 91l198 74l155 -384l133 616h122l-175 -819h-124z" />
    <glyph glyph-name="infinity" unicode="&#x221e;" horiz-adv-x="798" 
d="M235 0v103q16 0 27.5 5t16.5 16l66 137l-64 132q-6 11 -18 16t-28 5v103q50 0 86 -22t52 -54l29 -63l28 63q16 31 52.5 53.5t85.5 22.5v-103q-16 0 -28 -5t-18 -16l-63 -132l65 -137q6 -11 17.5 -16t26.5 -5v-103q-48 0 -81 21.5t-52 53.5l-33 72l-34 -72
q-18 -32 -51 -53.5t-82 -21.5zM194 0q-42 0 -73 15t-51 38t-30 47t-10 42v235q0 18 10 42t30.5 46.5t51.5 37t72 14.5v-103q-22 0 -35 -8.5t-18.5 -20t-5.5 -21.5v-209q0 -13 6 -25t19.5 -19.5t33.5 -7.5v-103zM609 0v102q21 0 33.5 8.5t18.5 20.5t6 22v211q0 13 -6 24
t-18.5 18.5t-33.5 7.5v103q40 0 70.5 -14.5t50 -37t29.5 -46.5t10 -42v-235q0 -18 -9.5 -42.5t-29.5 -47t-50 -37.5t-71 -15z" />
    <glyph glyph-name="integral" unicode="&#x222b;" horiz-adv-x="330" 
d="M24 -199v58q6 -1 22 4t34.5 19.5t32.5 42.5t14 72v628q0 54 19 91t47.5 59.5t59 31.5t52.5 7v-57q-5 1 -20.5 -2.5t-34 -16.5t-32 -40t-13.5 -73v-628q0 -54 -19 -92t-48 -61t-59.5 -33.5t-54.5 -9.5z" />
    <glyph glyph-name="approxequal" unicode="&#x2248;" horiz-adv-x="568" 
d="M381 365q-34 0 -62 11t-53.5 25.5t-51.5 25.5t-57 11q-22 0 -48.5 -8t-58.5 -28v115q34 20 62 27.5t51 7.5q33 0 59.5 -11t52 -25.5t52.5 -25.5t60 -11q26 0 58.5 10t72.5 35v-113q-42 -25 -75.5 -35.5t-61.5 -10.5zM381 145q-34 0 -62 11t-53.5 25.5t-51.5 25.5t-57 11
q-22 0 -48.5 -8t-58.5 -28v115q34 20 62 27.5t51 7.5q33 0 59.5 -11t52 -25.5t52.5 -25.5t60 -11q26 0 58.5 10t72.5 35v-113q-42 -25 -75.5 -35.5t-61.5 -10.5z" />
    <glyph glyph-name="notequal" unicode="&#x2260;" horiz-adv-x="418" 
d="M63 -76l175 739h110l-174 -739h-111zM50 325v110h318v-110h-318zM50 148v110h318v-110h-318z" />
    <glyph glyph-name="lessequal" unicode="&#x2264;" horiz-adv-x="463" 
d="M430 151l-403 182v53l403 181v-111l-235 -96l235 -98v-111zM29 9v94h404v-94h-404z" />
    <glyph glyph-name="greaterequal" unicode="&#x2265;" horiz-adv-x="463" 
d="M30 152v111l235 97l-235 97v111l403 -181v-53zM29 10v94h404v-94h-404z" />
    <glyph glyph-name="lozenge" unicode="&#x25ca;" horiz-adv-x="416" 
d="M178 -2l-181 354l182 354h58l181 -354l-182 -354h-58zM205 151l103 201l-102 201l-96 -201z" />
    <glyph glyph-name="uni25CC" unicode="&#x25cc;" horiz-adv-x="636" 
d="M442 434q-20 0 -35 14.5t-15 35.5t14.5 35.5t35.5 14.5t35.5 -14.5t14.5 -35.5q0 -20 -14.5 -35t-35.5 -15zM202 22q-20 0 -35 14.5t-15 35.5t14.5 35.5t35.5 14.5t35.5 -14.5t14.5 -35.5q0 -20 -14.5 -35t-35.5 -15zM116 108q-20 0 -35 14.5t-15 35.5t14.5 35.5
t35.5 14.5t35.5 -14.5t14.5 -35.5q0 -20 -14.5 -35t-35.5 -15zM322 -10q-20 0 -35 14.5t-15 35.5t14.5 35.5t35.5 14.5t35.5 -14.5t14.5 -35.5q0 -20 -14.5 -35t-35.5 -15zM84 228q-20 0 -35 14.5t-15 35.5t14.5 35.5t35.5 14.5t35.5 -14.5t14.5 -35.5q0 -20 -14.5 -35
t-35.5 -15zM116 348q-20 0 -35 14.5t-15 35.5t14.5 35.5t35.5 14.5t35.5 -14.5t14.5 -35.5q0 -20 -14.5 -35t-35.5 -15zM442 22q-20 0 -35 14.5t-15 35.5t14.5 35.5t35.5 14.5t35.5 -14.5t14.5 -35.5q0 -20 -14.5 -35t-35.5 -15zM202 434q-20 0 -35 14.5t-15 35.5t14.5 35.5
t35.5 14.5t35.5 -14.5t14.5 -35.5q0 -20 -14.5 -35t-35.5 -15zM528 108q-20 0 -35 14.5t-15 35.5t14.5 35.5t35.5 14.5t35.5 -14.5t14.5 -35.5q0 -20 -14.5 -35t-35.5 -15zM560 228q-20 0 -35 14.5t-15 35.5t14.5 35.5t35.5 14.5t35.5 -14.5t14.5 -35.5q0 -20 -14.5 -35
t-35.5 -15zM322 466q-20 0 -35 14.5t-15 35.5t14.5 35.5t35.5 14.5t35.5 -14.5t14.5 -35.5q0 -20 -14.5 -35t-35.5 -15zM528 348q-20 0 -35 14.5t-15 35.5t14.5 35.5t35.5 14.5t35.5 -14.5t14.5 -35.5q0 -20 -14.5 -35t-35.5 -15z" />
    <glyph glyph-name="u111E1" unicode="&#x111e1;" horiz-adv-x="838" 
d="M721 476v-485h34v485h-34zM254 307q0 22 20 38.5t46 16.5t45 -16.5t19 -38.5t-19 -39t-45 -17t-46 17t-20 39zM29 238q0 -75 36.5 -131.5t100 -87.5t143.5 -31q85 0 143 27.5t88 74.5t30 105q0 67 -32 112.5t-84.5 68t-116.5 22.5q-52 0 -88 -25.5t-36 -67.5
q0 -26 15.5 -46t40.5 -31.5t51 -11.5q27 0 51 11.5t39 31t15 46.5q0 14 -6 29t-18 27q44 -10 67.5 -37.5t23.5 -59.5q0 -41 -23.5 -70t-65 -44t-94.5 -15q-63 0 -107.5 21.5t-68 57.5t-23.5 77q0 38 18 69t50 54t75 35t93 12q75 0 141 -26.5t116.5 -82.5t81 -145.5
t34.5 -216.5h36q-4 133 -36.5 229t-88 157.5t-128 91.5t-156.5 30q-70 0 -128.5 -18t-100.5 -52t-65 -82t-23 -108z" />
    <glyph glyph-name="u111E2" unicode="&#x111e2;" horiz-adv-x="1102" 
d="M338 338q27 0 46 -15.5t19 -38.5q0 -22 -19 -39t-46 -17q-26 0 -45.5 17t-19.5 39q0 23 19.5 38.5t45.5 15.5zM48 215q0 -74 35.5 -130.5t99 -88.5t145.5 -32q79 0 137.5 26t91 72.5t32.5 108.5q0 61 -29 107.5t-81.5 72t-123.5 25.5q-53 0 -87.5 -26.5t-34.5 -67.5
q0 -37 31.5 -63.5t74.5 -26.5t73.5 26.5t30.5 63.5q0 15 -6 30t-17 25q40 -9 65 -35.5t25 -61.5q0 -39 -22.5 -68t-63.5 -45t-96 -16q-57 0 -102.5 20t-71 55.5t-25.5 81.5q0 50 30 88t83 59.5t120 21.5q84 0 143.5 -26.5t103.5 -87.5t81 -164q33 -87 63 -144.5t61 -89.5
t65.5 -45t72.5 -13q64 0 107.5 41t67.5 113l-38 18q-24 -38 -59 -58t-80 -20q-47 0 -88 22.5t-74.5 70t-62.5 119.5q-41 109 -91 175t-116 96.5t-156 30.5q-95 0 -165.5 -32.5t-109.5 -91t-39 -136.5z" />
    <glyph glyph-name="u111E3" unicode="&#x111e3;" horiz-adv-x="1357" 
d="M724 187l12 -178l18 -19v135q0 42 9.5 66.5t25 34.5t33.5 10q35 0 56.5 -28.5t39.5 -75.5q26 -69 51.5 -115.5t53.5 -74.5t61 -40t71 -12q64 0 107.5 41t66.5 113l-37 18q-24 -38 -59 -58.5t-81 -20.5q-47 0 -87 23t-73 70.5t-61 119.5q-12 28 -25.5 56t-34.5 46.5
t-55 18.5q-48 0 -72 -36t-20 -94zM254 307q0 23 20 39t46 16t45 -16t19 -39q0 -22 -19 -39t-45 -17t-46 17t-20 39zM29 238q0 -75 36.5 -131.5t100 -87.5t143.5 -31q85 0 143 27.5t88 74.5t30 105q0 67 -32 112.5t-84.5 68t-117.5 22.5q-51 0 -87 -25.5t-36 -67.5
q0 -26 15.5 -46t40.5 -31.5t51 -11.5q27 0 50.5 11.5t38.5 31t15 46.5q0 15 -5.5 29.5t-17.5 26.5q44 -10 67.5 -37.5t23.5 -59.5q0 -41 -24 -70t-65 -44t-94 -15q-63 0 -107.5 21.5t-68.5 57.5t-24 77q0 38 18 69t50 54t75 35t94 12q74 0 140 -26.5t117 -82.5t81.5 -145.5
t33.5 -216.5h36q-3 133 -35.5 229t-88 157.5t-128.5 91.5t-156 30q-71 0 -129 -18t-100 -52t-65 -82t-23 -108z" />
    <glyph glyph-name="u111E4" unicode="&#x111e4;" horiz-adv-x="924" 
d="M194 485q-49 0 -86 -31t-57 -88.5t-20 -135.5q0 -73 25 -131t68 -91t96 -33q25 0 45 8v32q-10 -4 -19.5 -5.5t-19.5 -1.5q-42 0 -74 23.5t-50.5 66t-18.5 96.5q0 70 31.5 108.5t87.5 38.5q51 0 80 -37t29 -103v-35h38v35q0 68 28 104t80 36t80 -36t28 -104v-35h38v35
q0 66 29.5 103t81.5 37q58 0 87 -41t29 -125v-376h-61q-42 0 -70.5 23t-28.5 58q0 38 18.5 65.5t55.5 45.5q6 3 9 5t10.5 5t28 11.5t61.5 24.5l-12 29q-25 -10 -53 -20.5t-66 -27.5q-72 -31 -106 -67.5t-34 -83.5q0 -57 45 -89t122 -32h122v513q0 106 -40 166t-112 60
q-69 0 -105 -45.5t-36 -130.5h22q0 85 -37 130.5t-106 45.5q-68 0 -105.5 -45.5t-37.5 -130.5h22q0 86 -36 131t-106 45z" />
    <glyph glyph-name="u111E5" unicode="&#x111e5;" horiz-adv-x="1309" 
d="M844 320q-31 0 -58.5 -16t-44.5 -46.5t-15 -73.5l10 -173l19 -21v96q0 48 14.5 74t35.5 36.5t39 10.5q23 0 45.5 -10.5t37.5 -36.5t15 -74v-96h34v201q0 31 -16 60.5t-45.5 49t-70.5 19.5zM964 62l12 -36v35q0 47 18.5 71t49.5 24q33 0 51 -21t34 -67q18 -54 53.5 -73.5
t91.5 -3.5v30q-38 -10 -61 -5t-36.5 23.5t-23.5 49.5q-12 36 -23.5 72t-31.5 59.5t-58 23.5q-48 0 -70 -43t-10 -116zM254 307q0 22 19.5 38.5t46.5 16.5q25 0 44.5 -16.5t19.5 -38.5t-19.5 -39t-44.5 -17q-27 0 -46.5 17t-19.5 39zM29 238q0 -75 36.5 -131.5t100 -87.5
t143.5 -31q85 0 143 27.5t88 74.5t30 105q0 67 -32 112.5t-84.5 68t-117.5 22.5q-51 0 -87 -25.5t-36 -67.5q0 -26 15.5 -46t40.5 -31.5t51 -11.5t50 11.5t39 31t15 46.5q0 14 -5.5 29t-17.5 27q44 -10 67.5 -37.5t23.5 -59.5q0 -41 -24 -70t-65 -44t-94 -15
q-63 0 -107.5 21.5t-68.5 57.5t-24 77q0 38 18 69t50 54t75 35t94 12q74 0 140 -26.5t117 -82.5t81.5 -145.5t33.5 -216.5h36q-3 133 -35.5 229t-88 157.5t-128.5 91.5t-156 30q-71 0 -129 -18t-100 -52t-65 -82t-23 -108z" />
    <glyph glyph-name="u111E6" unicode="&#x111e6;" horiz-adv-x="828" 
d="M447 269v31h-86q-90 0 -143 -44.5t-53 -119.5q0 -53 23 -90t62.5 -60.5t89 -34t102.5 -10.5q109 0 182.5 41.5t111.5 115t38 167.5q0 75 -23 140t-66 113.5t-102 76t-130 27.5q-87 0 -150.5 -32t-108.5 -94h41q39 48 94 72t124 24q60 0 107.5 -22.5t81.5 -62.5t52 -90
t18 -105q0 -100 -65.5 -160.5t-200.5 -60.5q-34 0 -70.5 3.5t-67.5 13.5t-50 29t-19 49q0 25 15.5 43.5t46 29t73.5 10.5h73zM177 -59v39q-89 78 -89 219q0 60 19.5 110t64 81t118.5 31q26 0 52 -0.5t52 -0.5v28q-23 1 -47 1.5t-47 0.5q-124 0 -187.5 -65.5t-63.5 -182.5
q0 -90 35 -161t93 -100zM234 361q0 -38 31 -64t96 -26l45 14v17h-35q-43 0 -70.5 12.5t-27.5 46.5q0 23 17 41.5t70 18.5v27q-48 0 -75.5 -13t-39 -33t-11.5 -41z" />
    <glyph glyph-name="u111E7" unicode="&#x111e7;" horiz-adv-x="828" 
d="M576 84v-307h-29q-44 0 -70 12.5t-38.5 30t-16 35.5t-3.5 29q0 18 8.5 42t30.5 42t61 18q17 0 32.5 -0.5t31.5 -5.5l21 -7q39 -12 69.5 -32.5t69.5 -61.5h26v609h-41v-573l26 -9q-28 29 -64 55.5t-86 42.5l-16 7q-33 6 -69 6q-67 0 -109 -20t-60.5 -52t-18.5 -70
q0 -29 20.5 -59t63 -50t109.5 -20h93v435q0 58 -15 112.5t-49 98t-88.5 68.5t-134.5 25q-79 0 -133.5 -26.5t-87 -68.5t-47 -91t-14.5 -95q0 -41 11 -82t32.5 -74.5t55 -53.5t78.5 -20q21 0 45 9v30q-20 -7 -39 -7q-41 0 -73.5 21.5t-50.5 56t-18 73.5q0 42 14.5 75.5
t43.5 57.5t74.5 37t108.5 13q86 0 140.5 -26t80 -82.5t25.5 -147.5z" />
    <glyph glyph-name="u111E8" unicode="&#x111e8;" horiz-adv-x="942" 
d="M211 485q-76 0 -120 -62.5t-44 -179.5q0 -71 25 -120t68 -74.5t96 -25.5q12 0 23 2t22 7v32q-20 -7 -39 -7q-62 0 -102.5 36t-40.5 114q0 69 31.5 101.5t87.5 32.5q52 0 80.5 -37t28.5 -103v-35h38v35q0 68 28 104t80 36t80 -36t28 -104v-35h38v35q0 66 29.5 103t81.5 37
q42 0 67.5 -21t37 -58t11.5 -85q0 -92 -29.5 -159t-76.5 -111.5t-102 -71t-105.5 -37.5t-85.5 -12q-56 0 -104 7.5t-76 26t-28 51.5q0 38 44 60.5t135 22.5q72 0 136.5 -17t122.5 -46.5t110.5 -67t99.5 -78.5v42q-40 39 -90 75.5t-109 65.5t-126.5 47t-143.5 18
q-45 0 -94.5 -5.5t-92 -18.5t-69 -37t-26.5 -61q0 -38 27 -62.5t72 -38t100 -19t112 -5.5q48 0 106.5 13.5t117.5 44.5t108 84.5t78.5 133.5t29.5 191q0 59 -8.5 109t-26.5 86.5t-47 56.5t-70 20q-68 0 -104.5 -45.5t-36.5 -130.5h22q0 85 -37 130.5t-106 45.5
q-68 0 -105.5 -45.5t-37.5 -130.5h22q0 86 -36 131t-105 45z" />
    <glyph glyph-name="u111E9" unicode="&#x111e9;" horiz-adv-x="1339" 
d="M359 466q-75 0 -119.5 -63.5t-44.5 -185.5q0 -68 25 -119t68 -78.5t96 -27.5q25 0 45 8v32q-10 -4 -19 -5.5t-20 -1.5q-42 0 -74 18.5t-50.5 53.5t-18.5 84q0 74 31.5 107t87.5 33q51 0 80 -36.5t29 -102.5v-36h39v36q0 68 27.5 103.5t79.5 35.5t80 -35.5t28 -103.5v-36
h39v36q0 66 29 102.5t81 36.5q42 0 67.5 -20.5t37 -57.5t11.5 -85q0 -68 -23.5 -126t-74 -102t-130.5 -68.5t-193 -24.5q-107 0 -197.5 25t-158 74t-104 120t-36.5 161q0 136 62 231.5t178 146.5t278 51q296 0 457 -192t203 -594h28v609h-41v-464l24 -118q0 130 -25.5 249.5
t-78 220t-132.5 175t-188.5 115.5t-246.5 41q-174 0 -299 -56.5t-192.5 -161.5t-67.5 -253q0 -113 39 -203.5t111 -154.5t172.5 -98t222.5 -34q149 0 250 58t152.5 163.5t51.5 245.5q0 59 -8.5 109t-27 86t-47 56.5t-69.5 20.5q-68 0 -104.5 -45.5t-36.5 -130.5h22
q0 85 -37 130.5t-106 45.5q-68 0 -105.5 -45.5t-37.5 -130.5h22q0 86 -36 131t-105 45z" />
    <glyph glyph-name="u111EA" unicode="&#x111ea;" horiz-adv-x="1096" 
d="M666 466q-45 0 -84.5 -23t-70 -62t-49.5 -89.5t-23 -106.5l31 -10q6 19 15 26.5t22 7.5q12 0 21 -7.5t9 -26.5q0 -25 -21.5 -40.5t-52 -22.5t-56.5 -7q-34 0 -67 9t-54.5 29.5t-21.5 53.5q0 35 32.5 62t102.5 27v28h-13q-85 0 -137.5 -48t-52.5 -127q0 -54 25 -95.5
t70 -65t104 -23.5q88 0 142 47.5t54 125.5q0 49 -21.5 80.5t-56.5 31.5q-17 0 -32 -8q15 53 59.5 84.5t102.5 31.5q62 0 105.5 -28.5t67 -81.5t23.5 -128v-123h-29q-44 0 -69.5 26t-25.5 65q0 43 25 68.5t65 25.5q12 0 22 -1t19 -3l19 -7q33 -12 56 -33.5t43.5 -62
t44.5 -109.5h30v510h-42v-474l26 -8q-22 64 -43.5 103.5t-47.5 63t-65 40.5l-16 6q-9 2 -28 4t-28 2q-75 0 -122 -34.5t-47 -90.5q0 -57 48 -89.5t131 -32.5h68v249q0 77 -26.5 135.5t-73 92t-107.5 33.5zM170 -44v39q-90 78 -90 219q0 60 20 110t64.5 81t117.5 31h104v29
h-47h-47q-124 0 -187.5 -65.5t-63.5 -182.5q0 -90 35.5 -161t93.5 -100zM227 376q0 -38 30.5 -64t96.5 -26l44 13v18h-35q-43 0 -70.5 12.5t-27.5 46.5q0 23 17 41.5t70 18.5v27q-47 0 -74.5 -13t-39 -33t-11.5 -41z" />
    <glyph glyph-name="u111EB" unicode="&#x111eb;" horiz-adv-x="1005" 
d="M309 271h196v30h-364v-38q14 3 60 5.5t108 2.5zM195 118q0 -46 21.5 -88t61.5 -68.5t96 -26.5q60 0 97.5 26t56.5 72q17 -45 55 -70.5t95 -25.5q87 0 143 50.5t56 145.5q0 91 -58 134t-158 43q-21 0 -43 -2t-32 -5q5 50 31.5 74t72.5 24h53v32q-36 0 -65 13t-45.5 37
t-16.5 55q0 41 28.5 70t75.5 29q41 0 73 -18t56 -46t41 -60.5t28.5 -62t18.5 -49.5h34v268h-41v-198l21 -34q-6 17 -18 46t-30.5 61t-46.5 60.5t-68 46.5t-93 18q-38 0 -76 -12.5t-64 -41t-26 -76.5q0 -34 17.5 -57.5t45.5 -37.5t58 -19.5t55 -5.5v14q-65 0 -109 -38
t-44 -115v-5.5v-5.5q32 7 58 9t56 2q65 0 102.5 -23.5t37.5 -70.5q0 -46 -38 -73t-102 -27q-38 0 -65 8t-41 24.5t-14 41.5v22h-32v-22q0 -23 -14 -39.5t-39.5 -25.5t-62.5 -9t-66 12t-46 33.5t-17 47.5q0 31 15.5 51t42.5 30.5t63 10.5h115l-36 30h-16q-30 0 -72.5 -8
t-75.5 -20q-50 -16 -80 -56.5t-30 -98.5zM48 198q0 -60 15.5 -112.5t44.5 -91t68 -57.5v39q-90 78 -90 218q0 60 20.5 110.5t67.5 81.5t127 31h92v30h-95q-123 0 -186.5 -66t-63.5 -183zM257 358q0 -38 33 -59.5t89 -21.5l50 12v12h-43q-46 0 -70.5 15.5t-24.5 41.5
q0 24 16.5 41.5t54.5 17.5h21v22q-126 0 -126 -81z" />
    <glyph glyph-name="u111EC" unicode="&#x111ec;" horiz-adv-x="861" 
d="M278 416q60 0 100.5 -23t57.5 -75q57 -1 77 -24.5t20 -56.5q0 -32 -21 -51.5t-50 -19.5q-16 0 -36 6t-34 25.5t-14 57.5q0 48 -28 70t-70 22q-52 0 -85.5 -43.5t-33.5 -112.5q0 -77 38 -135.5t105.5 -91.5t156.5 -33q157 0 242 85t85 243l-76 49q0 -107 -67.5 -169.5
t-186.5 -62.5q-113 0 -179.5 41.5t-66.5 112.5q0 37 20 61.5t53 24.5q28 0 44.5 -15t16.5 -47q0 -46 17 -72t43.5 -37t55.5 -11q42 0 72 29t30 74q0 47 -25.5 75.5t-79.5 34.5q-22 52 -70.5 78.5t-116.5 26.5q-70 0 -122.5 -33.5t-80.5 -94.5t-28 -144q0 -84 35.5 -148.5
t99.5 -99.5v39q-46 31 -73 88t-27 121q0 75 24 127.5t69.5 80.5t108.5 28zM416 635q85 0 154 -20t115 -56.5t60 -85.5h34v255h-41v-221l10 2q-15 44 -49.5 83t-81.5 68t-101.5 46t-109.5 17q-68 0 -119.5 -16t-80.5 -45t-29 -67q0 -35 21 -55t75.5 -30t156.5 -16
q57 -3 94.5 -6.5t61 -9.5t41 -16.5t35.5 -26.5q23 -21 36.5 -55.5t13.5 -74.5l76 -55q0 71 -26.5 130t-74.5 93q-23 17 -57 27.5t-83 17t-118 8.5q-78 3 -118 8t-53.5 14.5t-13.5 26.5q0 28 45.5 44t126.5 16z" />
    <glyph glyph-name="u111ED" unicode="&#x111ed;" horiz-adv-x="1283" 
d="M176 -44v40q-49 35 -69.5 78t-20.5 104q0 47 14.5 83t40.5 56.5t58 20.5q16 0 29 -3t30 -8l4 35q-16 5 -30.5 8.5t-34.5 3.5q-36 0 -70.5 -21t-56.5 -65.5t-22 -115.5q0 -38 12.5 -78.5t41 -76.5t74.5 -61zM429 377q0 44 -29 67t-68 23q-19 0 -40 -8t-35 -26.5t-14 -52.5
q0 -10 3 -23.5t12 -29.5l23 13q-4 11 -5.5 17.5t-1.5 15.5q0 32 18 45.5t43 13.5q31 0 47 -19t16 -45q0 -17 -8.5 -30t-16.5 -21q-33 -37 -67.5 -91.5t-60.5 -116.5t-34 -124l27 -19q8 40 20 61.5t33 21.5q18 0 30.5 -9.5t25.5 -24t33 -29t53 -24t86 -9.5q63 0 110 25t73 69
t26 100q0 59 -26 100.5t-73 63.5t-112 22q-58 0 -94 -16q30 37 83.5 56.5t116.5 19.5q40 0 76.5 -13.5t66 -39t47.5 -63.5h26l1 13q4 33 23.5 58.5t56.5 25.5q30 0 50 -13.5t30.5 -39t10.5 -60.5v-274h-28q-32 0 -56.5 12t-38 33t-13.5 46q0 40 27 67t71 27q12 0 23.5 -1
t21.5 -4l20 -6q35 -13 61.5 -37t49.5 -64.5t45 -103.5h29v510h-41v-474l25 -9q-20 60 -43.5 99t-53 64.5t-71.5 43.5l-16 4q-18 5 -37 6.5t-33 1.5q-52 0 -89 -16t-57 -44.5t-20 -63.5q0 -59 49.5 -90.5t140.5 -31.5h68v359q0 50 -13.5 84.5t-39 52.5t-61.5 18
q-28 0 -50.5 -12t-37 -32.5t-21.5 -45.5t-7 -53h22q0 26 -16 51t-44.5 46t-65.5 33.5t-79 12.5q-55 0 -103 -23.5t-101 -80.5q1 7 1 11zM372 262q29 20 66.5 30.5t80.5 10.5q41 0 70 -13t45.5 -35.5t16.5 -48.5q0 -37 -20 -58.5t-55.5 -31.5t-81.5 -10q-41 0 -69 8t-50 15.5
t-44 7.5q-10 0 -20.5 -1.5t-18.5 -8.5q17 38 34.5 69.5t45.5 65.5z" />
    <glyph glyph-name="u111EE" unicode="&#x111ee;" horiz-adv-x="896" 
d="M226 19q-10 -19 -16.5 -36t-26.5 -17q-25 0 -45 20.5t-33 52t-20 65.5t-7 61q0 126 42 185.5t118 59.5q44 0 83.5 -25.5t57.5 -57.5l20 23q-12 21 -33.5 42.5t-52.5 36.5t-74 15q-53 0 -98 -26.5t-71.5 -86.5t-26.5 -163q0 -40 9 -81.5t26.5 -77t43.5 -57t61 -21.5
q29 0 42.5 19.5t24.5 47.5zM314 -70q35 0 64.5 24.5t29.5 67.5q0 37 -28 63t-66 26q-37 0 -59.5 -20.5t-26.5 -51.5q-5 12 -7.5 31t-2.5 29q0 53 27 90.5t72.5 57.5t99.5 20q42 0 69.5 -8.5t41 -22.5t13.5 -32q0 -22 -9.5 -34.5t-23.5 -21t-28.5 -19t-24 -27t-9.5 -46.5
q0 -52 37 -89.5t104 -37.5q61 0 104.5 28.5t71.5 76.5t41 108t13 123l-75 50q0 -58 -15.5 -107t-43.5 -86t-66 -57t-83 -20q-16 0 -32.5 6t-16.5 24t13.5 28.5t33.5 19.5t40 22t33.5 36t13.5 63q0 52 -27 86.5t-71.5 51.5t-99.5 17q-69 0 -124.5 -30.5t-88 -86t-32.5 -130.5
q0 -56 14.5 -107t45 -83t78.5 -32zM314 77q23 0 40 -16.5t17 -39.5t-17 -40t-40 -17q-22 0 -39 17t-17 40t17 39.5t39 16.5zM445 635q81 0 139.5 -14.5t98 -39t61.5 -53t30 -55.5h35v255h-42v-221l10 2q-7 21 -29.5 56.5t-63.5 72t-102.5 61.5t-145.5 25q-40 0 -80.5 -7
t-74 -22t-54.5 -40t-21 -60q0 -38 23 -58t60.5 -28t82 -10.5t87.5 -4.5q60 -3 101 -6.5t72 -14.5t60 -38q28 -24 39 -60.5t11 -69.5l75 -55q0 77 -28 134.5t-72 88.5q-33 24 -79 34.5t-94 14t-86 4.5q-60 3 -101 5.5t-62 12.5t-21 31q0 20 16.5 31.5t43 18t56 8.5t55.5 2z
" />
    <glyph glyph-name="u111EF" unicode="&#x111ef;" horiz-adv-x="1038" 
d="M547 311q0 -72 -18 -113t-45.5 -59t-56 -22.5t-49.5 -4.5h-84v33h86q31 0 57.5 9.5t43 33.5t16.5 69q0 24 -9.5 43.5t-28 30t-44.5 10.5q-37 0 -59.5 -26t-22.5 -82v-12h-39v12q0 55 -24.5 81.5t-68.5 26.5q-36 0 -57.5 -20.5t-30.5 -53t-9 -67.5q0 -94 38.5 -144
t102.5 -50q20 0 38 7v-30q-11 -4 -22 -6t-22 -2q-61 0 -103 37t-64 100.5t-22 141.5q0 43 9 84t28 74.5t47 53t65 19.5q58 0 89.5 -35t31.5 -103h-13q0 68 31.5 103t85.5 35q43 0 70 -24.5t40 -64.5t13 -85zM326 144q76 0 146 -23.5t125.5 -65t88 -94.5t32.5 -112
q0 -41 -17.5 -72t-44.5 -31q-40 0 -63 43.5t-23 152.5q0 15 0.5 51t3 86t9.5 105.5t20 108.5t34.5 96.5t53.5 69.5t75 26t73 -30t50.5 -78t32 -105t17.5 -111.5t8 -97t2 -61.5l-16 94v389h39v-509h-40q0 48 -4.5 99t-16 98.5t-30.5 85t-47 59.5t-68 22q-22 0 -45 -11.5
t-44 -38t-38 -72t-27 -114t-10 -162.5q0 -63 6 -97.5t18.5 -48t29.5 -13.5q11 0 17.5 11t9.5 26.5t3 28.5q0 57 -31.5 105t-83.5 83.5t-115.5 55t-128.5 19.5z" />
    <glyph glyph-name="u111F0" unicode="&#x111f0;" horiz-adv-x="1569" 
d="M407 485q-54 0 -85.5 -35t-31.5 -103h13q0 68 -31.5 103t-89.5 35q-37 0 -64.5 -19.5t-46.5 -53t-28.5 -74.5t-9.5 -84q0 -78 22 -141.5t64 -101t103 -37.5q22 0 44 9v30q-18 -7 -38 -7q-64 0 -102.5 49.5t-38.5 143.5q0 36 9 68t30.5 53t57.5 21q45 0 69 -26.5t24 -81.5
v-12h39v12q0 55 22.5 81.5t60.5 26.5q26 0 44 -10.5t27.5 -30t9.5 -43.5q0 -45 -16.5 -69t-43 -33.5t-57.5 -9.5h-86v-33h84q21 0 49.5 4.5t56 22.5t45.5 59t18 113q0 45 -13 85t-40 64.5t-70 24.5zM603 -58v140q0 77 5.5 139t21.5 107t44.5 72.5t73.5 36.5l57 44
q-96 -9 -146 -52t-68.5 -124t-18.5 -206v-157q0 -109 22.5 -152.5t63.5 -43.5q27 0 44 31t17 72q0 59 -35 112t-94 94t-132 65t-149 24l1 -32q65 0 131 -19.5t122 -55t90.5 -83.5t34.5 -105q0 -13 -3 -28.5t-9.5 -26.5t-17.5 -11q-18 0 -30 13.5t-18.5 48t-6.5 97.5z
M705 396q0 -38 30.5 -64t96.5 -26l45 13v17h-35q-43 0 -71 13t-28 47q0 23 17 41.5t71 18.5v27q-48 0 -75.5 -13t-39 -33t-11.5 -41zM1144 486q-45 0 -84 -23t-69.5 -62t-49.5 -89.5t-23 -106.5l29 -10q7 19 16.5 26.5t22.5 7.5q11 0 20 -8t9 -26q0 -25 -21.5 -40.5
t-52 -22.5t-56.5 -7q-34 0 -67 9t-54.5 29.5t-21.5 53.5q0 23 14 43.5t44.5 33t77.5 12.5v28h-13q-85 0 -137.5 -48t-52.5 -128q0 -54 25 -95.5t70 -65t103 -23.5q88 0 142 47.5t54 125.5q0 50 -21 81.5t-56 31.5q-18 0 -33 -8q16 53 60 84.5t102 31.5q62 0 105.5 -28.5
t67 -81.5t23.5 -129v-122h-29q-44 0 -69.5 26t-25.5 65q0 43 25 68.5t66 25.5q12 0 21.5 -1t18.5 -4l20 -6q32 -12 55 -34t44 -62.5t45 -108.5h28v510h-40v-474l25 -9q-22 65 -43.5 104t-47.5 62.5t-65 40.5l-16 6q-9 2 -27.5 4t-27.5 2q-76 0 -123 -34t-47 -90
q0 -57 48 -89.5t131 -32.5h68v249q0 76 -26.5 135t-73 92.5t-107.5 33.5z" />
    <glyph glyph-name="u111F1" unicode="&#x111f1;" horiz-adv-x="940" 
d="M48 198q0 -90 35 -161.5t93 -100.5v39q-46 41 -68 94.5t-22 124.5q0 60 20.5 110.5t67.5 81.5t127 31q23 0 46 -0.5t46 -4.5v28q-24 4 -47.5 5.5t-47.5 1.5q-123 0 -186.5 -66t-63.5 -183zM232 370q0 -26 20.5 -41.5t51 -22.5t61.5 -7v23q-93 5 -93 50q0 9 7 20
t25.5 18.5t54.5 4.5l3 17l-38 -3q-39 3 -65.5 -11.5t-26.5 -47.5zM483 86q-46 0 -91 6t-82 19t-59.5 35.5t-22.5 56.5q0 30 19 49.5t53 29t77 9.5q1 0 12 -0.5t26 -1.5t26 -2q2 7 3 14.5t1 13.5q-21 3 -44.5 5t-35.5 2q-95 0 -151 -44t-56 -125q0 -61 26 -102.5t71 -66.5
t103.5 -36.5t124.5 -11.5q62 0 119 13t101.5 39.5t70 68.5t25.5 100q0 66 -30 102.5t-76.5 50.5t-95.5 14q-14 0 -28 -1t-30 -3q-1 4 -1 7v6q0 41 26 54.5t73 13.5h36v32q-36 0 -65 13t-45.5 37t-16.5 55q0 41 28.5 70t74.5 29q41 0 73 -18t56.5 -46.5t41.5 -60.5
t28.5 -61.5t18.5 -49.5h33v268h-40v-198l20 -34q-6 17 -17.5 46t-30 61t-47 60.5t-68 46.5t-92.5 18q-38 0 -76.5 -12.5t-64.5 -41t-26 -76.5q0 -34 18 -57.5t45.5 -37.5t57.5 -20t56 -6v15q-61 0 -98.5 -24t-37.5 -85q0 -9 1 -18.5t3 -20.5q20 4 42 6.5t41 2.5
q44 0 75.5 -10t48.5 -29t17 -45q0 -34 -21.5 -57.5t-57 -38t-78.5 -21.5t-87 -7z" />
    <glyph glyph-name="u111F2" unicode="&#x111f2;" horiz-adv-x="934" 
d="M38 198q0 -90 35 -161.5t93 -100.5v39q-46 41 -68 94.5t-22 124.5q0 60 20.5 110.5t67.5 81.5t127 31q23 0 46 -0.5t46 -4.5v28q-24 4 -47.5 5.5t-47.5 1.5q-123 0 -186.5 -66t-63.5 -183zM222 370q0 -26 20.5 -41.5t51 -22.5t61.5 -7v23q-93 5 -93 50q0 9 7 20
t25.5 18.5t54.5 4.5l3 14h-38q-39 3 -65.5 -11.5t-26.5 -47.5zM473 -64q63 0 119.5 13t101 39.5t70 68.5t25.5 100q0 96 -71 138q17 13 24 27.5t7 32.5q0 35 -30.5 64t-88.5 29q-64 0 -102.5 -31.5t-38.5 -92.5q0 -18 4 -37q20 4 42 6.5t41 2.5q39 0 72.5 -9.5t54 -31
t20.5 -56.5q0 -32 -22 -56.5t-58.5 -40t-81 -24t-91.5 -8.5t-92.5 8t-82 24.5t-58.5 41.5t-22 59q0 33 21.5 53t56.5 28.5t74 8.5q1 0 12 -0.5t26 -1.5t26 -2q4 12 4 26q-21 3 -44.5 5t-35.5 2q-95 0 -151.5 -43.5t-56.5 -124.5q0 -61 26 -103t71.5 -67t104 -36.5
t124.5 -11.5zM621 416q42 0 64 -19.5t22 -44.5t-18 -43q-22 8 -47.5 11.5t-54.5 3.5q-14 0 -28 -1t-30 -3q-1 4 -1 7v6q0 41 27.5 62t65.5 21zM392 131q66 -16 117.5 -10.5t80.5 25.5t29 47q0 17 -12.5 30.5t-38.5 18.5l-3 -3q36 5 76 17t60 32l-38 8q-7 -8 -32.5 -17
t-60.5 -14q-27 -5 -59 -7t-54 -2v-26q66 0 97.5 -8.5t31.5 -28.5q0 -14 -23.5 -27t-66.5 -16t-104 11v-30zM625 420h43v13q-41 0 -70.5 13t-45 36.5t-15.5 54.5q0 42 28.5 71t74.5 29q41 0 73 -17.5t56.5 -46.5t41 -61t28 -61.5t18.5 -49.5h35v268h-42v-198l20 -33
q-6 18 -17.5 46.5t-29.5 60t-45.5 60t-66.5 46.5t-92 18q-38 0 -77 -12.5t-66 -41.5t-27 -77q0 -34 17.5 -57t44.5 -36.5t57 -19t57 -5.5z" />
    <glyph glyph-name="u111F3" unicode="&#x111f3;" horiz-adv-x="1354" 
d="M833 177q0 -78 -25.5 -147.5t-76 -123.5t-125.5 -86t-175 -35q-55 -1 -97.5 9.5t-67 30t-24.5 45.5q0 43 55 58.5t164 15.5v32q-112 0 -190.5 -8t-120 -30.5t-41.5 -67.5q0 -39 41 -67t111.5 -42.5t157.5 -14.5q142 0 243.5 58.5t156.5 163.5t55 245q0 59 -8.5 109
t-27 86t-47 56.5t-69.5 20.5q-69 0 -105 -45.5t-36 -130.5h22q0 85 -37 130.5t-106 45.5t-106 -45.5t-37 -130.5h22q0 86 -36 131t-106 45q-75 0 -119 -62.5t-44 -179.5q0 -71 25 -120t67.5 -74.5t96.5 -25.5q12 0 23 2t22 6v33q-10 -4 -19.5 -6t-19.5 -2q-63 0 -103 36
t-40 115q0 69 31 101.5t87 32.5q52 0 81 -37t29 -103v-35h38v35q0 68 28 104t80 36t80 -36t28 -104v-35h38v35q0 66 29.5 103t81.5 37q42 0 67 -21t37 -58t12 -85zM910 44q0 -149 37 -223.5t91 -74.5q22 0 39 15.5t17 46.5q0 49 -60.5 87t-185.5 59.5t-319 21.5h-68v-32h68
q192 0 309 -19t170 -49.5t53 -64.5q0 -28 -27 -28q-37 0 -64.5 65t-27.5 196q0 87 13 144.5t35.5 90.5t49 47t54.5 14q40 0 68.5 -22t48 -59.5t31 -85t16 -98.5t4.5 -99h40v509h-39v-389l16 -94q0 19 -2 61.5t-8 97t-18 111.5t-32.5 105t-51 78t-73.5 30q-51 0 -85 -29.5
t-54 -76t-30 -100.5t-13 -104t-2.5 -85.5t0.5 -45.5z" />
    <glyph glyph-name="u111F4" unicode="&#x111f4;" horiz-adv-x="1070" 
d="M201 490q-49 0 -86 -31t-57 -88t-20 -135q0 -74 24.5 -132t67.5 -91t97 -33q11 0 22.5 2t21.5 6v33q-10 -4 -19 -6t-19 -2q-42 0 -74 24t-50.5 66t-18.5 97q0 69 31.5 107.5t87.5 38.5q51 0 79.5 -37t28.5 -103v-35h39v35q0 68 28 104t80 36t80 -36t28 -104v-35h38v35
q0 66 29 103t82 37q58 0 86.5 -41t28.5 -124v-377l42 -53v513q0 106 -40 166t-112 60q-68 0 -104.5 -45.5t-36.5 -130.5h22q0 85 -37 130.5t-106 45.5t-106 -45.5t-37 -130.5h22q0 86 -36.5 131t-105.5 45zM713 110q-58 0 -107 -17.5t-85 -57.5l28 -18q30 36 72.5 49.5
t89.5 13.5q52 0 102.5 -18t98 -60.5t88.5 -117.5h28v608h-40v-572l25 -8q-54 105 -134.5 151.5t-165.5 46.5zM580 -47q0 -13 -7.5 -26t-23.5 -13q-15 0 -26 10.5t-11 28.5q0 14 8.5 31t25.5 30l-19 17q-24 -13 -35 -35.5t-11 -42.5q0 -34 21 -52t47 -18q21 0 42 16.5
t21 53.5q0 38 -33 64t-101 26q-44 0 -88 -21.5t-73.5 -61.5t-29.5 -99q0 -55 27.5 -93.5t69.5 -58.5t83 -20q33 0 57 11t43.5 27.5t38.5 33t41.5 27.5t52.5 11q40 0 70 -16.5t50 -40.5t29 -45h29v522l-42 -70v-379q-23 29 -62.5 45t-77.5 16q-42 0 -70 -10t-49.5 -22.5
t-42 -22t-46.5 -9.5q-27 0 -56 14.5t-49 41.5t-20 65q0 39 15.5 66t43 42t62.5 15q55 0 75.5 -19t20.5 -39z" />
    <glyph glyph-name="sinKSsa" horiz-adv-x="1195" 
d="M197 567q49 0 86.5 -21t50.5 -50l-81 -86q-2 28 -21.5 39t-38.5 11q-24 0 -40.5 -14.5t-19.5 -36.5l-102 32q8 48 35.5 75.5t63 39t67.5 11.5zM30 167v90l271 224q73 60 159.5 86.5t168.5 26.5q64 0 119.5 -15t95.5 -42t57 -65l-87 -72q-11 22 -37.5 39.5t-64 28
t-82.5 10.5q-60 0 -125.5 -21.5t-130.5 -74.5l-235 -193zM199 -7q-32 0 -63 15t-51 41t-20 59v19q0 13 -2.5 27.5t-19.5 14.5q-3 0 -6.5 -0.5t-6.5 -1.5l95 86q15 -7 24 -17t13.5 -20.5t4.5 -20.5v-44q0 -18 12.5 -27.5t26.5 -9.5t25.5 9t11.5 28v49h89v-47q0 -20 12 -29.5
t27 -9.5t28 10t13 29v56q0 22 -5.5 37.5t-19 27.5t-41.5 20l86 69q33 -11 53.5 -30t29.5 -46.5t9 -64.5v-90q0 -43 -20.5 -74.5t-52.5 -47.5t-67 -16q-27 0 -52.5 10.5t-44.5 31.5q-15 -22 -38.5 -32.5t-49.5 -10.5zM736 406h258q54 0 92 -12.5t58.5 -46t20.5 -98.5h-120
q0 13 -3 25t-13 20t-33 8h-251q-23 0 -34 -8.5t-14.5 -20.5t-3.5 -24h-120q0 63 20.5 97t57.5 47t85 13zM826 -11q-133 0 -193.5 52t-60.5 159h121q0 -33 15.5 -54.5t43.5 -30.5t65 -9h103q39 0 66.5 9.5t42.5 31t15 53.5h121q0 -103 -62 -157t-190 -54h-87zM989 573
q59 0 102.5 -27.5t61.5 -82.5l-103 -34q-4 14 -18.5 25t-38.5 11q-14 0 -29.5 -6.5t-26.5 -20.5t-11 -38v-22h-112v22q0 49 14.5 80.5t36 50t46 28t45.5 12t33 2.5zM794 168q0 53 23 93.5t57.5 67t69.5 38.5h147q-30 -11 -62 -30t-59 -45t-43.5 -56.5t-16.5 -65.5z" />
    <glyph glyph-name="sinKVa" horiz-adv-x="1105" 
d="M197 567q49 0 86.5 -21t50.5 -50l-81 -86q-2 28 -21.5 39t-38.5 11q-24 0 -40.5 -14.5t-19.5 -36.5l-102 32q8 48 35.5 75.5t63 39t67.5 11.5zM199 -7q-32 0 -63 15t-51 41t-20 59v19q0 13 -2.5 27.5t-19.5 14.5q-3 0 -6.5 -0.5t-6.5 -1.5l95 86q15 -7 24 -17t13.5 -20.5
t4.5 -20.5v-44q0 -18 12.5 -27.5t26.5 -9.5t25.5 9t11.5 28v49h89v-47q0 -20 12 -29.5t27 -9.5t28 10t13 29v56q0 22 -5.5 37.5t-19 27.5t-41.5 20l86 69q33 -11 53.5 -30t29.5 -46.5t9 -64.5v-90q0 -43 -20.5 -74.5t-52.5 -47.5t-67 -16q-27 0 -52.5 10.5t-44.5 31.5
q-15 -22 -38.5 -32.5t-49.5 -10.5zM573 194q0 29 8 58t24 53q20 25 51.5 40t77.5 20q-7 29 -32 51.5t-61.5 35.5t-78.5 13t-82.5 -14t-73.5 -43l-267 -219l-109 -22v90l297 245q52 42 115.5 62.5t127.5 20.5q71 0 134.5 -25t104.5 -73.5t45 -121.5v-102h-77
q-18 0 -37.5 -3.5t-33.5 -17.5t-14 -46q0 -22 11 -40t32 -28.5t51 -10.5v-121q-63 0 -111 26.5t-75 72t-27 99.5zM954 501q0 69 -24 101.5t-88 32.5v120q69 0 121.5 -22t82 -74t29.5 -140v-271q0 -127 -58.5 -189.5t-174.5 -62.5v121q28 0 53.5 10t42 38.5t16.5 82.5v253z
M786 755v-119q-19 0 -36.5 -7t-31.5 -21l-124 41q19 32 49.5 56t67.5 37t75 13z" />
    <glyph glyph-name="sinTVa" horiz-adv-x="1080" 
d="M761 -4q-63 0 -111 26t-75 70.5t-27 100.5q0 24 5.5 53t21.5 53q19 28 52 44.5t79 21.5q-7 24 -21.5 41t-34.5 28t-43 17t-48 6q-45 0 -91.5 -18.5t-84.5 -47.5l-244 -196l-109 -33v95l293 240q49 40 108 57t116 17q54 0 105 -14.5t90.5 -43.5t63 -72t23.5 -99v-79h-77
q-18 0 -37.5 -3.5t-33.5 -17.5t-14 -46q0 -22 11 -40t32 -28.5t51 -10.5v-121zM305 -7q-35 0 -63.5 8.5t-53 24.5t-44.5 38.5t-39 49.5q-11 18 -24 34t-35 16q-4 0 -7.5 -0.5t-8.5 -1.5l39 84q10 3 18 4t14 1q23 0 38.5 -10t27 -26.5t23 -34t25 -34t33 -26.5t48.5 -10
q27 0 48.5 10.5t34 30t12.5 44.5q0 18 -5 34.5t-19.5 30t-42.5 21.5l86 69q41 -15 61 -42t27 -58t7 -59q0 -59 -26.5 -104t-71.5 -69.5t-102 -24.5zM144 409l-102 32q9 48 36.5 75.5t62.5 39t64 11.5q35 0 65.5 -12t49 -28t19.5 -27l-74 -90q-2 28 -21.5 39t-38.5 11
q-24 0 -40.5 -14.5t-20.5 -36.5zM817 -4v121q27 0 53 10t42.5 38.5t16.5 82.5v253q0 69 -24 101.5t-88 32.5v120q69 0 121.5 -22t82 -74t29.5 -140v-271q0 -127 -58.5 -189.5t-174.5 -62.5zM693 608l-124 41q19 32 49.5 56t67.5 37t75 13v-119q-19 0 -36.5 -7t-31.5 -21z
" />
    <glyph glyph-name="sinTTha" horiz-adv-x="1076" 
d="M144 409l-102 32q9 48 36.5 75.5t63 39t65.5 11.5q34 0 64 -11.5t50.5 -27t24.5 -27.5l-81 -91q-2 28 -21.5 39t-38.5 11q-24 0 -40.5 -14.5t-20.5 -36.5zM305 -7q-29 0 -53.5 6t-45 17t-38.5 26.5t-33.5 34t-30.5 39.5q-12 18 -24 33t-34 15q-4 0 -7.5 -0.5t-8.5 -1.5
l39 84q10 3 18 4t14 1q23 0 38.5 -10t27 -26.5t23 -34t25 -34t33 -26.5t48.5 -10q27 0 48.5 10.5t34 30t12.5 44.5q0 18 -5 34.5t-19.5 30t-42.5 21.5l86 69q41 -15 61 -42t27 -58t7 -59q0 -59 -26.5 -104t-71.5 -69.5t-102 -24.5zM30 162v95l275 226q33 27 65 47.5t68 32
t79 11.5q44 0 86 -13t76.5 -42.5t55.5 -76t23 -112.5l-121 10q-3 46 -22.5 70t-46 33t-49.5 9q-33 0 -65.5 -15.5t-70.5 -45.5l-244 -196zM763 -4q-54 0 -94.5 18t-67 47t-39.5 63.5t-13 68.5v65q0 27 9 53t29.5 47.5t53.5 35t80 14.5l37 -78h-13q-23 0 -40.5 -9.5t-27 -29
t-9.5 -49.5v-31q0 -28 11.5 -48.5t33 -31t50.5 -10.5v-125zM818 -4v125q28 0 52.5 10t39.5 37.5t15 79.5h121q0 -127 -55.5 -189.5t-172.5 -62.5zM813 755q67 0 119.5 -21.5t83 -73t30.5 -143.5v-270h-121v259q0 73 -21 106t-82 33h-9v-27q0 -22 6.5 -40t22.5 -28t43 -10
v-95q-62 0 -102 23t-58 61.5t-18 82.5v143h106z" />
    <glyph glyph-name="sinNDa" horiz-adv-x="970" 
d="M679 0q-60 0 -112 20.5t-83.5 64.5t-31.5 115q0 67 29 111t80 65.5t117 21.5h61q0 34 -20.5 51t-53 23.5t-68.5 6.5v113q54 0 102.5 -9.5t84.5 -32t57 -60t21 -95.5v-113h-186q-21 0 -44 -6t-39.5 -23.5t-16.5 -51.5q0 -31 14.5 -49t38 -26t50.5 -8h37q31 0 55.5 10
t36.5 39l111 -29q-10 -34 -31 -60t-48.5 -43.5t-59 -26t-64.5 -8.5h-37zM789 -204q-55 0 -96.5 20.5t-63.5 56t-22 82.5h118q0 -14 8.5 -25t24 -17.5t32.5 -6.5q21 0 40 11t25 32l115 -29q-11 -35 -34.5 -63t-59.5 -44.5t-87 -16.5zM195 567q35 0 65 -12t49 -28t20 -27
l-74 -90q-2 28 -21.5 39t-38.5 11q-24 0 -40.5 -14.5t-20.5 -36.5l-102 32q9 48 36.5 75.5t62.5 39t64 11.5zM277 -7q-51 0 -96 16.5t-79 50t-53 83t-19 113.5v88h103v-74q0 -20 5 -47t19 -53t41 -43t71 -17q36 0 60.5 13t36.5 34.5t12 45.5q0 14 -4 27t-13.5 24.5
t-25.5 19.5l66 89q34 -15 56 -41t32.5 -57.5t10.5 -64.5q0 -54 -26 -101.5t-75.5 -76.5t-121.5 -29zM111 174v121h23q8 0 19 8.5t25.5 26t32.5 41.5l75 103q42 57 105.5 87.5t150.5 30.5v-113q-40 0 -72.5 -9t-58 -26.5t-47.5 -46.5l-78 -103q-27 -35 -51.5 -62t-47.5 -42.5
t-50 -15.5h-26z" />
    <glyph glyph-name="sinNDha" horiz-adv-x="1108" 
d="M195 567q35 0 65 -12t49 -28t20 -27l-74 -90q-2 28 -21.5 39t-38.5 11q-24 0 -40.5 -14.5t-20.5 -36.5l-102 32q9 48 36.5 75.5t62.5 39t64 11.5zM277 -7q-51 0 -96 16.5t-79 50t-53 83t-19 113.5v88h103v-74q0 -20 5 -47t19 -53t41 -43t71 -17q36 0 60.5 13t36.5 34.5
t12 45.5q0 14 -4 27t-13.5 24.5t-25.5 19.5l66 89q34 -15 56 -41t32.5 -57.5t10.5 -64.5q0 -54 -26 -101.5t-75.5 -76.5t-121.5 -29zM509 593q69 0 129.5 -26t98.5 -78t41 -133h-107q-2 35 -17.5 59t-40 39t-51.5 22t-50 7q-42 0 -80 -23t-68 -63l-78 -103
q-27 -35 -51.5 -62t-47.5 -42.5t-50 -15.5h-26v121h23q8 0 19 8.5t25.5 26t32.5 41.5l75 103q27 36 58.5 63t71.5 41.5t93 14.5zM716 -6q-47 0 -85.5 20t-61 56t-22.5 85v116q0 32 8 66.5t31.5 63t70.5 43.5l67 15l54 -103h-26q-21 0 -36.5 -5.5t-27 -17t-16.5 -27t-5 -37.5
v-108q0 -8 4.5 -19t15.5 -19t30 -8q20 0 30.5 8t15 19t4.5 19v39h89v-39q0 -8 4 -19t15 -19t30 -8t30 8t15.5 19t4.5 19v49h123v-55q0 -73 -44 -117t-112 -44q-28 0 -57 10.5t-50 34.5q-19 -25 -44 -35t-55 -10zM955 501q0 46 -9.5 75.5t-33.5 44t-70 14.5v120
q74 0 126.5 -23t81 -74.5t28.5 -138.5v-311h-123v293zM696 596l-117 42q28 55 85 86t123 31v-119q-29 0 -52 -9t-39 -31z" />
    <glyph glyph-name="sinNVa" horiz-adv-x="1079" 
d="M134 409l-102 32q9 48 36.5 75.5t63 39t65.5 11.5q34 0 63.5 -12t48.5 -28t20 -27l-74 -90q-2 28 -22 39t-37 11q-26 0 -42 -14.5t-20 -36.5zM277 -7q-51 0 -96 16.5t-79 50t-53 83t-19 113.5v88h103v-74q0 -64 20.5 -99t54 -48t69.5 -13q31 0 53.5 13t35 34.5t12.5 46.5
q0 14 -4 26.5t-13.5 24t-25.5 19.5l66 89q34 -15 56 -41t32.5 -57.5t10.5 -64.5q0 -54 -26 -101.5t-75.5 -76.5t-121.5 -29zM760 -4q-63 0 -111 26.5t-75 70t-27 94.5q0 55 17 92t52 58.5t89 27.5q-14 44 -44 66.5t-67 30.5t-72 8q-50 0 -92 -20.5t-66 -52.5l-78 -103
q-27 -35 -51.5 -62t-47.5 -42.5t-50 -15.5h-26v121h23q10 0 23 11.5t27 29t27 35.5q22 32 41 61t33 48q36 52 103 79t140 27q56 0 109.5 -15.5t96.5 -45.5t69 -76t26 -108v-78h-78q-26 0 -44.5 -5.5t-29.5 -20.5t-11 -45q0 -17 10.5 -34.5t31.5 -29t52 -11.5v-121zM816 -4
v121q28 0 53.5 10t42 38.5t16.5 82.5v253q0 69 -24 101.5t-88 32.5v120q69 0 121.5 -22t82 -74t29.5 -140v-271q0 -127 -58.5 -189.5t-174.5 -62.5zM692 608l-124 41q19 32 49.5 56t67.5 37t75 13v-119q-19 0 -36.5 -7t-31.5 -21z" />
    <glyph glyph-name="sinNTha" horiz-adv-x="1075" 
d="M111 174v121h23q9 0 21.5 10.5t27 28t28.5 37.5l74 109q37 54 96.5 79t120.5 25q69 0 129 -30t97.5 -86.5t39.5 -137.5l-119 -17q-2 52 -21.5 86t-51.5 50.5t-76 16.5q-41 0 -74.5 -15.5t-61.5 -53.5l-78 -103q-27 -35 -51.5 -62t-47.5 -42.5t-50 -15.5h-26zM277 -7
q-51 0 -96 16.5t-79 50t-53 83t-19 113.5v88h103v-74q0 -20 5 -47t19 -53t41 -43t71 -17q36 0 60.5 13t36.5 34.5t12 45.5q0 14 -4 27t-13.5 24.5t-25.5 19.5l66 89q34 -15 56 -41t32.5 -57.5t10.5 -64.5q0 -54 -26 -101.5t-75.5 -76.5t-121.5 -29zM134 409l-102 32
q9 48 36.5 75.5t62.5 39t64 11.5q35 0 65 -12t49 -28t20 -27l-74 -90q-2 28 -21.5 39t-38.5 11q-24 0 -40.5 -14.5t-20.5 -36.5zM769 -4q-54 0 -94 18t-67 47t-40 63.5t-13 68.5v65q0 27 9.5 53.5t30.5 48.5t55 35t83 13l32 -78h-9q-26 0 -44 -9.5t-27.5 -28.5t-9.5 -50v-31
q0 -28 11 -48.5t32.5 -31t50.5 -10.5v-125zM825 -4v125q27 0 51.5 10t39.5 37.5t15 79.5h122q0 -127 -56 -189.5t-172 -62.5zM819 755q67 0 119.5 -21.5t83.5 -73t31 -143.5v-270h-122v259q0 72 -21 105.5t-81 33.5h-10v-27q0 -22 6.5 -40t23 -28t43.5 -10v-95
q-63 0 -102.5 23t-57.5 61.5t-18 82.5v143h105z" />
    <glyph glyph-name="sinDVa" horiz-adv-x="745" 
d="M93 -24q-25 36 -39 63.5t-19 59.5t-5 78v103q0 68 23 113.5t63 69t90 23.5q22 0 46 -5t48 -14v-89q-33 10 -47 12t-24 2q-27 0 -45 -13t-27 -37.5t-9 -61.5v-103q0 -40 5 -66t17.5 -48t35.5 -52zM481 -4v121q28 0 53.5 10t42 38.5t16.5 82.5v253q0 69 -24 101.5t-88 32.5
v120q70 0 122.5 -22t82 -74t29.5 -140v-271q0 -127 -58.5 -189.5t-175.5 -62.5zM425 -4q-62 0 -110 27t-75 71.5t-27 95.5q0 25 2.5 48.5t14.5 45.5t37 42q26 21 58.5 30t77.5 9q0 20 -15.5 30.5t-36.5 10.5q-15 0 -29.5 -6t-19.5 -22l-87 23q12 37 33.5 58t48.5 30t54 9
q40 0 72 -16t51.5 -45.5t19.5 -70.5v-103h-78q-17 0 -36.5 -3.5t-33.5 -17.5t-14 -46q0 -22 11 -40t32 -28.5t50 -10.5v-121zM328 534l-118 31q0 41 18.5 75t50 60t69.5 40.5t77 14.5v-119q-24 0 -46.5 -11t-36.5 -33t-14 -58z" />
    <glyph glyph-name="sinDDha" horiz-adv-x="773" 
d="M91 -24q-29 39 -41.5 73t-16 71t-3.5 82v49q0 42 10.5 81.5t36 72t70.5 51.5t113 19h171v-119h-204q-32 0 -49 -15t-23.5 -38t-6.5 -49v-77q0 -29 3 -55t15 -52t39 -59zM381 -6q-47 0 -85.5 20t-61 56t-22.5 85v116q0 30 7 65.5t27 67t61.5 51.5t110.5 20h25v-119h-25
q-21 0 -37 -5.5t-27 -17t-16.5 -27t-5.5 -37.5v-108q0 -8 4.5 -19t15.5 -19t30 -8q20 0 31 8t15 19t4 19v39h89v-39q0 -8 4.5 -19t15 -19t29.5 -8q20 0 31 8t15.5 19t4.5 19v41h122v-47q0 -73 -44 -117t-112 -44q-27 0 -56 10.5t-51 34.5q-18 -25 -43 -35t-56 -10zM337 534
l-118 31q0 43 20.5 77.5t54 60t75 39t83.5 13.5v-119q-29 0 -55 -9.5t-43 -31.5t-17 -61zM621 202v299q0 49 -9.5 78t-34 42.5t-69.5 13.5v120q73 0 125.5 -21t81 -72.5t28.5 -142.5v-317h-122z" />
    <glyph glyph-name="sinTtTtha" horiz-adv-x="774" 
d="M91 -24q-29 39 -41.5 73t-16 71t-3.5 82v49q0 42 10.5 81.5t36 72t70.5 51.5t113 19h171v-119h-204q-32 0 -49 -15t-23.5 -38t-6.5 -49v-77q0 -29 3 -55t15 -52t39 -59zM382 -6q-47 0 -85.5 20t-61 56t-22.5 85v110q0 27 6.5 60t26 63.5t59 50.5t105.5 20h17v-119h-17
q-18 0 -32.5 -6t-24.5 -16.5t-15 -25t-5 -31.5v-94q0 -11 4.5 -23t15.5 -20.5t30 -8.5q20 0 30.5 8t15 19t4.5 19v39h89v-39q0 -8 4.5 -19t15 -19t29.5 -8q20 0 31 8t15.5 19t4.5 19v41h122v-47q0 -73 -44 -117t-112 -44q-28 0 -57 10.5t-50 34.5q-19 -25 -43.5 -35
t-55.5 -10zM510 755q67 0 119.5 -21.5t83.5 -73t31 -143.5v-317h-122v306q0 73 -21 106t-82 33h-9v-27q0 -22 6.5 -40t23 -28t43.5 -10v-95q-63 0 -102.5 23t-57.5 61.5t-18 82.5v143h105z" />
    <glyph glyph-name="sinMatraU.sub" horiz-adv-x="195" 
d="M161 -281q-37 0 -69.5 12.5t-52 40.5t-19.5 73v57q0 34 6 55t20.5 40t39.5 48h-62v76h150v-76q-25 -28 -40 -47t-22.5 -33t-10 -26.5t-2.5 -27.5v-55q0 -17 7 -30t20 -20t30 -7h18v-80h-13z" />
    <glyph glyph-name="sinMatraUu.sub" horiz-adv-x="201" 
d="M152 -283q-36 0 -66 11t-48 33.5t-18 58.5v29q0 18 7 33.5t21.5 31t37.5 32.5h-65v62l72 50h-72v62h148v-62l-71 -50h71v-63q-34 -24 -49 -39.5t-18 -26t-3 -22.5v-14q0 -13 5.5 -23.5t17 -16.5t30.5 -6h17v-80h-17z" />
    <glyph glyph-name="sinRakar" horiz-adv-x="0" 
d="M-270 -232v113q33 0 58 9t39.5 26t14.5 39q0 27 -23 37t-63 13l5 103q105 -4 152 -47.5t47 -109.5q0 -57 -29.5 -98.5t-81.5 -63t-119 -21.5zM-326 -232q-51 0 -98 20t-76 56t-29 84v25h112q0 -18 8.5 -31t22 -21.5t29.5 -13t31 -4.5v-115z" />
    <glyph glyph-name="sinReph" horiz-adv-x="430" 
d="M149 594q-37 0 -68 18t-49 48t-18 69t19.5 71t54.5 51t82 19h81q85 0 125.5 -39t40.5 -104v-103h-101v81q0 28 -9 44t-24.5 22.5t-37.5 6.5h-71q-31 0 -47.5 -16t-16.5 -37q0 -19 11 -30t28 -11q14 0 21.5 6t11 14.5t3.5 16.5l82 -1q0 -37 -14 -65.5t-40 -44.5t-64 -16z
" />
    <glyph glyph-name="sinYansaya" horiz-adv-x="514" 
d="M30 0l78 313q6 26 10 44.5t4 34.5q0 27 -17.5 43t-66.5 16v113q60 0 105 -21t70 -61t25 -95q0 -16 -2 -31.5t-6 -32.5l-78 -323h-122zM210 0l28 117h58q29 0 48 12t19 46v62q0 17 -5 26.5t-12.5 14t-16 5.5t-15.5 1h-96v119h96q31 0 61 -4t54.5 -19t39.5 -48t15 -92v-80
q0 -42 -14.5 -78.5t-43.5 -59t-74 -22.5h-142zM302 566q48 0 90.5 -21.5t70.5 -83.5l-96 -33q-5 10 -14 17.5t-20 11.5t-25 4q-15 0 -26.5 -5.5t-18.5 -14.5t-10.5 -20.5t-4.5 -23.5l-112 -25q3 90 42 142t124 52z" />
    <glyph glyph-name="sinMatraAa.virama" horiz-adv-x="275" 
d="M30 619v200h118v-200h-118zM31 0v123h20q20 0 33.5 6t22 16.5t12.5 25.5t4 33v156q0 19 -4 35.5t-12.5 28t-22 18.5t-33.5 7h-20v123h20q69 0 111.5 -26.5t62.5 -72.5t20 -105v-164q0 -59 -20 -105t-62.5 -72.5t-111.5 -26.5h-20z" />
    </font>
</defs>
</svg>
