<svg width="50" height="40" viewBox="0 0 50 40" fill="none" xmlns="http://www.w3.org/2000/svg">
<path d="M45.8333 2.63888C45.8333 1.48436 44.9045 0.555542 43.75 0.555542C42.5955 0.555542 41.6667 1.48436 41.6667 2.63888V3.33332H2.77778C1.24132 3.33332 0 4.57464 0 6.1111V15.8333C0 17.3698 1.24132 18.6111 2.77778 18.6111H3.64583C5.45139 18.6111 6.77951 20.3125 6.33681 22.066L2.86458 35.9896C2.65625 36.8229 2.84722 37.6996 3.36806 38.3767C3.88889 39.0538 4.69618 39.4444 5.55556 39.4444H13.8889C15.1649 39.4444 16.276 38.5764 16.5799 37.3437L18.8368 28.3333H27.8993C29.9566 28.3333 31.7882 27.0399 32.474 25.1042L34.8003 18.6111H37.5C38.2378 18.6111 38.941 18.316 39.4618 17.7951L41.4323 15.8333H47.2222C48.7587 15.8333 50 14.592 50 13.0555V6.1111C50 4.57464 48.7587 3.33332 47.2222 3.33332H45.8333V2.63888ZM27.8993 24.1667H19.8785L21.2674 18.6111H30.3819L28.559 23.7066C28.4635 23.9844 28.1944 24.1667 27.908 24.1667H27.8993ZM6.94444 8.88888H40.2778C41.0417 8.88888 41.6667 9.51388 41.6667 10.2778C41.6667 11.0417 41.0417 11.6667 40.2778 11.6667H6.94444C6.18056 11.6667 5.55556 11.0417 5.55556 10.2778C5.55556 9.51388 6.18056 8.88888 6.94444 8.88888Z" fill="#063C7A"/>
</svg>
