<svg width="51" height="51" viewBox="0 0 51 51" fill="none" xmlns="http://www.w3.org/2000/svg">
<path fill-rule="evenodd" clip-rule="evenodd" d="M16.8791 4.16455C20.1384 3.30205 23.5978 2.52393 25.6697 2.52393C27.7384 2.52393 31.2009 3.30205 34.4603 4.16455C37.3675 4.9451 40.2558 5.79429 43.1228 6.71143C44.7728 7.23643 46.0166 8.6583 46.2572 10.4114C48.0478 23.5271 43.8947 33.2458 38.8603 39.6771C36.715 42.4371 34.1679 44.8598 31.3041 46.8646C30.3083 47.5621 29.2556 48.1746 28.1572 48.6958C27.3134 49.0833 26.4134 49.3989 25.6697 49.3989C24.9259 49.3989 24.0259 49.0833 23.1822 48.6958C22.0835 48.1751 21.0308 47.5625 20.0353 46.8646C17.1726 44.8596 14.6266 42.4368 12.4822 39.6771C7.44157 33.2458 3.29158 23.5271 5.0822 10.4114C5.20192 9.56165 5.55985 8.76315 6.11455 8.10835C6.66925 7.45355 7.39804 6.96922 8.21657 6.71143C11.0836 5.79432 13.9719 4.94512 16.8791 4.16455V4.16455Z" fill="white"/>
</svg>
