<svg width="50" height="51" viewBox="0 0 50 51" fill="none" xmlns="http://www.w3.org/2000/svg">
<g clip-path="url(#clip0_10_2186)">
<path d="M9.01406 16.6567L16.9914 19.5614C19.7406 13.1911 23.7266 8.28873 27.8508 5.99107C20.3602 5.60904 13.1023 8.87857 8.43437 14.7254C7.91172 15.3817 8.22656 16.37 9.01406 16.6567ZM19.3461 20.4192L37.9773 27.2028C40.7711 17.72 39.4383 9.10435 34.6469 7.3606C34.0688 7.14966 33.4648 7.0481 32.843 7.0481C28.3102 7.04888 22.8219 12.452 19.3461 20.4192ZM40.7406 10.6879C41.2266 11.9614 41.5867 13.3911 41.7719 14.9997C42.2203 18.8973 41.6609 23.4551 40.2914 28.045L48.3086 30.9637C49.0969 31.2504 49.9734 30.6958 49.9937 29.8567C50.175 22.3809 46.7195 15.2129 40.7406 10.6879ZM43.75 40.9598H25.0828L30.1562 27.0161L25.4578 25.3051L19.7625 40.959H1.25C0.559375 40.959 0 41.5184 0 42.2098V44.7106C0 45.4012 0.559375 45.9614 1.25 45.9614H43.75C44.4406 45.9614 45 45.4012 45 44.7106V42.2098C45 41.5192 44.4406 40.9598 43.75 40.9598Z" fill="white"/>
</g>
<defs>
<clipPath id="clip0_10_2186">
<rect width="50" height="50" fill="white" transform="translate(0 0.961426)"/>
</clipPath>
</defs>
</svg>
