<svg width="51" height="51" viewBox="0 0 51 51" fill="none" xmlns="http://www.w3.org/2000/svg">
<path fill-rule="evenodd" clip-rule="evenodd" d="M28.6147 2.3208C26.8022 0.508301 23.8647 0.508301 22.0522 2.3208L12.9804 11.3958L25.3335 23.7521L37.6897 11.3958L28.6116 2.3208H28.6147ZM39.896 13.6052L27.546 25.9614L39.9022 38.3177L48.9772 29.2396C50.7897 27.4271 50.7897 24.4927 48.9772 22.6833L39.9022 13.6052H39.896ZM37.6897 40.5271L25.3335 28.1708L12.9772 40.5271L22.0554 49.602C23.8679 51.4145 26.8022 51.4145 28.6116 49.602L37.6897 40.5271V40.5271ZM10.7679 38.3177L23.1241 25.9614L10.7679 13.6052L1.69287 22.6833C-0.119629 24.4958 -0.119629 27.4302 1.69287 29.2396L10.7679 38.3177V38.3177Z" fill="white"/>
</svg>
