<svg width="51" height="51" viewBox="0 0 51 51" fill="none" xmlns="http://www.w3.org/2000/svg">
<path d="M44.0835 25.9614C44.0835 23.4991 43.5985 21.061 42.6562 18.7861C41.714 16.5113 40.3328 14.4443 38.5917 12.7032C36.8506 10.9621 34.7837 9.58096 32.5088 8.63868C30.234 7.69641 27.7958 7.21143 25.3335 7.21143C22.8712 7.21143 20.433 7.69641 18.1582 8.63868C15.8833 9.58096 13.8163 10.9621 12.0752 12.7032C10.3341 14.4443 8.95303 16.5113 8.01075 18.7861C7.06848 21.061 6.5835 23.4991 6.5835 25.9614C6.5835 28.4237 7.06848 30.8619 8.01075 33.1367C8.95303 35.4116 10.3341 37.4786 12.0752 39.2197C13.8163 40.9608 15.8833 42.3419 18.1582 43.2842C20.433 44.2264 22.8712 44.7114 25.3335 44.7114C27.7958 44.7114 30.234 44.2264 32.5088 43.2842C34.7837 42.3419 36.8506 40.9608 38.5917 39.2197C40.3328 37.4786 41.714 35.4116 42.6562 33.1367C43.5985 30.8619 44.0835 28.4237 44.0835 25.9614ZM0.333496 25.9614C0.333496 19.331 2.96742 12.9722 7.65583 8.28376C12.3442 3.59535 18.7031 0.961426 25.3335 0.961426C31.9639 0.961426 38.3228 3.59535 43.0112 8.28376C47.6996 12.9722 50.3335 19.331 50.3335 25.9614C50.3335 32.5918 47.6996 38.9507 43.0112 43.6391C38.3228 48.3275 31.9639 50.9614 25.3335 50.9614C18.7031 50.9614 12.3442 48.3275 7.65583 43.6391C2.96742 38.9507 0.333496 32.5918 0.333496 25.9614ZM25.3335 33.7739C27.4055 33.7739 29.3926 32.9508 30.8578 31.4857C32.3229 30.0206 33.146 28.0334 33.146 25.9614C33.146 23.8894 32.3229 21.9023 30.8578 20.4372C29.3926 18.972 27.4055 18.1489 25.3335 18.1489C23.2615 18.1489 21.2744 18.972 19.8092 20.4372C18.3441 21.9023 17.521 23.8894 17.521 25.9614C17.521 28.0334 18.3441 30.0206 19.8092 31.4857C21.2744 32.9508 23.2615 33.7739 25.3335 33.7739ZM25.3335 11.8989C29.0631 11.8989 32.64 13.3805 35.2772 16.0177C37.9144 18.655 39.396 22.2318 39.396 25.9614C39.396 29.691 37.9144 33.2679 35.2772 35.9051C32.64 38.5423 29.0631 40.0239 25.3335 40.0239C21.6039 40.0239 18.027 38.5423 15.3898 35.9051C12.7526 33.2679 11.271 29.691 11.271 25.9614C11.271 22.2318 12.7526 18.655 15.3898 16.0177C18.027 13.3805 21.6039 11.8989 25.3335 11.8989ZM22.2085 25.9614C22.2085 25.1326 22.5377 24.3378 23.1238 23.7517C23.7098 23.1657 24.5047 22.8364 25.3335 22.8364C26.1623 22.8364 26.9572 23.1657 27.5432 23.7517C28.1293 24.3378 28.4585 25.1326 28.4585 25.9614C28.4585 26.7902 28.1293 27.5851 27.5432 28.1711C26.9572 28.7572 26.1623 29.0864 25.3335 29.0864C24.5047 29.0864 23.7098 28.7572 23.1238 28.1711C22.5377 27.5851 22.2085 26.7902 22.2085 25.9614Z" fill="white"/>
</svg>
