<svg width="50" height="40" viewBox="0 0 50 40" fill="none" xmlns="http://www.w3.org/2000/svg">
<path d="M45.8333 2.6003C45.8333 1.44579 44.9045 0.516968 43.75 0.516968C42.5955 0.516968 41.6667 1.44579 41.6667 2.6003V3.29475H2.77778C1.24132 3.29475 0 4.53607 0 6.07252V15.7947C0 17.3312 1.24132 18.5725 2.77778 18.5725H3.64583C5.45139 18.5725 6.77951 20.2739 6.33681 22.0274L2.86458 35.951C2.65625 36.7843 2.84722 37.6611 3.36806 38.3382C3.88889 39.0152 4.69618 39.4059 5.55556 39.4059H13.8889C15.1649 39.4059 16.276 38.5378 16.5799 37.3052L18.8368 28.2947H27.8993C29.9566 28.2947 31.7882 27.0013 32.474 25.0656L34.8003 18.5725H37.5C38.2378 18.5725 38.941 18.2774 39.4618 17.7566L41.4323 15.7947H47.2222C48.7587 15.7947 50 14.5534 50 13.017V6.07252C50 4.53607 48.7587 3.29475 47.2222 3.29475H45.8333V2.6003ZM27.8993 24.1281H19.8785L21.2674 18.5725H30.3819L28.559 23.668C28.4635 23.9458 28.1944 24.1281 27.908 24.1281H27.8993ZM6.94444 8.8503H40.2778C41.0417 8.8503 41.6667 9.4753 41.6667 10.2392C41.6667 11.0031 41.0417 11.6281 40.2778 11.6281H6.94444C6.18056 11.6281 5.55556 11.0031 5.55556 10.2392C5.55556 9.4753 6.18056 8.8503 6.94444 8.8503Z" fill="white"/>
</svg>
